<?xml version="1.0" standalone="no"?>
<!DOCTYPE svg PUBLIC "-//W3C//DTD SVG 1.1//EN" "http://www.w3.org/Graphics/SVG/1.1/DTD/svg11.dtd" >
<svg xmlns="http://www.w3.org/2000/svg" xmlns:xlink="http://www.w3.org/1999/xlink" version="1.1">
<metadata></metadata>
<defs>
<font id="freighttextlight_italic" horiz-adv-x="878" >
<font-face units-per-em="2048" ascent="1638" descent="-410" />
<missing-glyph horiz-adv-x="317" />
<glyph unicode="&#xfb01;" horiz-adv-x="1003" d="M-242 -406q0 34 21 55t49 21q38 0 62 -28q23 -28 28 -74l141 102q22 47 43 150q21 99 39 215l129 805l-178 6l4 55l189 29q24 137 70 235t106 158q37 37 99 62q64 26 114 26q57 0 95 -29t38 -69q0 -34 -19 -59q-17 -23 -47 -23q-38 0 -61 32q-22 31 -27 78l-166 -57 q-47 -57 -78 -160q-29 -98 -46 -206h362q34 22 59 22q18 0 36 -7q20 -7 36 -18q16 -10 28 -22t7 -23l-236 -827l21 -10l235 182l27 -37q-26 -30 -56 -61q-33 -35 -75 -70q-36 -30 -76 -56q-37 -24 -61 -24q-16 0 -33 7q-21 9 -34 19q-17 13 -24 23q-10 13 -8 21l220 797 l-9 8h-430l-131 -785q-29 -183 -64 -293q-36 -114 -102 -180q-88 -88 -182 -88q-48 0 -82 31q-33 30 -33 67z" />
<glyph unicode="&#xfb02;" horiz-adv-x="997" d="M-242 -406q0 34 21 55t49 21q38 0 62 -28q23 -28 28 -74l141 102q22 47 43 150q21 99 39 215l129 805l-178 6l4 55l189 29q24 137 70 235t106 158q37 37 99 62q64 26 114 26q53 0 86 -20l252 36l-353 -1364l56 -14l205 166l26 -37q-26 -30 -56 -61q-33 -35 -75 -70 q-36 -30 -76 -56q-37 -24 -61 -24q-16 0 -33 7q-18 8 -33 18q-14 10 -23 22t-7 23l198 805h-428l-131 -785q-29 -183 -64 -293q-36 -114 -102 -180q-88 -88 -182 -88q-48 0 -82 31q-33 30 -33 67zM362 918h437l104 423q-29 -39 -62 -58q-30 -17 -59 -14q-27 3 -45 24 q-17 20 -22 57l-207 -45q-29 -29 -53 -75t-41 -96q-21 -60 -31 -108q-16 -76 -21 -108z" />
<glyph unicode="&#xfb03;" horiz-adv-x="1480" d="M-242 -406q0 34 21 55t49 21q38 0 62 -28q23 -28 28 -74l141 102q22 47 43 150q21 99 39 215l129 805l-178 6l4 55l189 29q23 136 62 220q41 87 93 144q40 45 102 71q61 26 111 26q58 0 96 -29q37 -28 37 -70q0 -34 -18 -58t-47 -24q-39 0 -62 28q-21 25 -26 75l-166 -58 q-33 -61 -61 -153q-28 -95 -44 -184h398q27 149 73 246q48 102 105 159q37 37 99 62q64 26 114 26q57 0 95 -29t38 -69q0 -35 -18 -59q-17 -23 -47 -23q-39 0 -62 32q-23 31 -27 78l-165 -57q-49 -59 -79 -160q-29 -98 -46 -206h362q34 22 60 22q17 0 35 -7q19 -7 36 -18 q17 -10 28 -22q12 -12 7 -23l-235 -827l20 -10l236 182l26 -37q-26 -30 -56 -61q-33 -35 -75 -70q-36 -30 -76 -56q-38 -24 -61 -24q-16 0 -33 7q-21 9 -34 19q-17 13 -24 23q-9 12 -7 21l219 797l-8 8h-431l-124 -744q-34 -175 -68 -293q-33 -115 -98 -180 q-88 -88 -183 -88q-48 0 -82 31q-32 29 -32 67q0 35 20 55q21 21 49 21q39 0 63 -28q22 -26 27 -74l142 102q22 47 43 150q21 99 39 215l123 766h-396l-131 -785q-29 -183 -64 -293q-36 -114 -102 -180q-88 -88 -182 -88q-48 0 -82 31q-33 30 -33 67z" />
<glyph unicode="&#xfb04;" horiz-adv-x="1474" d="M-242 -406q0 34 21 55t49 21q38 0 62 -28q23 -28 28 -74l141 102q22 47 43 150q21 99 39 215l129 805l-178 6l4 55l189 29q23 136 62 220q41 87 93 144q40 45 102 71q61 26 111 26q58 0 96 -29q37 -28 37 -70q0 -34 -18 -58t-47 -24q-39 0 -62 28q-21 25 -26 75l-166 -58 q-33 -61 -61 -153q-28 -95 -44 -184h398q27 149 73 246q48 102 105 159q37 37 99 62q64 26 114 26q53 0 86 -20l252 36l-352 -1364l55 -14l205 166l26 -37q-26 -30 -56 -61q-33 -35 -75 -70q-39 -33 -75 -56q-37 -24 -62 -24q-16 0 -33 7q-16 6 -32 18q-16 11 -24 22 q-9 12 -7 23l198 805h-428l-124 -744q-23 -172 -63 -294q-37 -113 -103 -179q-88 -88 -183 -88q-48 0 -82 31q-32 29 -32 67q0 35 20 55q21 21 49 21q39 0 63 -28q22 -26 27 -74l142 102q22 47 43 150q21 99 39 215l123 766h-396l-131 -785q-29 -183 -64 -293 q-36 -114 -102 -180q-88 -88 -182 -88q-48 0 -82 31q-33 30 -33 67zM840 918h436l104 423q-29 -39 -62 -58q-30 -17 -58 -14t-46 24q-17 20 -22 57l-207 -45q-29 -29 -53 -75t-41 -96q-21 -60 -31 -108q-13 -62 -20 -108z" />
<glyph horiz-adv-x="0" />
<glyph unicode="&#xd;" horiz-adv-x="317" />
<glyph unicode=" "  horiz-adv-x="317" />
<glyph unicode="&#x09;" horiz-adv-x="317" />
<glyph unicode="&#xa0;" horiz-adv-x="317" />
<glyph unicode="!" horiz-adv-x="561" d="M125 74q1 35 31 66q28 30 75 30q48 0 75 -29t26 -67q-2 -41 -29 -72q-28 -31 -74 -31q-45 0 -76 31q-30 30 -28 72zM252 412l59 850q1 14 8 31q6 16 29 16h90q23 0 26 -16t-1 -31l-168 -850q-2 -7 -9 -10q-8 -3 -15 -3t-13 3t-6 10z" />
<glyph unicode="&#x22;" horiz-adv-x="655" d="M102 825l267 502h2l121 -43l-342 -459h-48zM393 825l271 502h2l120 -43l-342 -459h-51z" />
<glyph unicode="#" horiz-adv-x="1128" d="M12 375v57h285l109 408h-269v59h285l108 393h60l-107 -393h377l107 393h59l-106 -393h272v-59h-289l-108 -408h272v-57h-289l-104 -387h-60l105 387h-379l-102 -387h-60l103 387h-269zM356 432h377l111 408h-375z" />
<glyph unicode="$" horiz-adv-x="960" d="M47 12l12 355h68l37 -287q63 -25 141 -35l160 578q-65 35 -109 64q-55 36 -95 76q-41 41 -67 96t-26 124q0 91 41 155q40 63 106 100t146 54q82 17 157 17h35q4 0 11 31q9 36 18 71l29 102h63l-57 -206q49 -6 66 -8q31 -3 63 -11l112 31l-51 -391h-69l-9 260 q-22 13 -61 27q-34 12 -72 18l-6 -23l-16 -60q-2 -9 -10.5 -38.5t-13.5 -47.5q-3 -12 -12 -46t-15 -53q-58 -210 -76 -271q91 -53 113 -66q58 -35 101 -75q42 -39 70 -94q27 -52 27 -125q0 -102 -40 -170q-42 -71 -105 -113t-149 -62q-85 -20 -171 -20h-45l-86 -307h-63 l86 311q-54 4 -121 14q-64 10 -117 25zM270 1008q0 -54 18 -95q17 -38 48 -74q30 -35 71 -62q45 -30 85 -54q50 188 71 260q10 33 28 95q5 16 12.5 43.5l10.5 38.5q13 46 16 59l5 22q-14 2 -19 2h-18q-62 0 -116 -11q-58 -12 -105 -39q-46 -27 -77 -73q-30 -45 -30 -112z M367 39q14 -2 21 -2h22q66 0 127 13q64 14 113 45q51 32 82 83q32 52 32 125q0 54 -20 97t-53 76q-35 34 -78 63q-39 26 -93 55z" />
<glyph unicode="%" horiz-adv-x="1527" d="M92 -31l1305 1340h106l-1304 -1340h-107zM113 946q0 80 29 147q28 65 80 120q48 51 119 82q69 30 144 30q70 0 126 -20q60 -22 103 -60q44 -40 69 -95q26 -58 26 -126q0 -81 -30 -150q-29 -67 -80 -121q-49 -52 -118 -82t-149 -30q-63 0 -124 22q-58 21 -101 61 q-45 42 -69 96q-25 56 -25 126zM186 950q0 -53 20 -101q19 -46 54 -79q33 -31 81 -50q47 -18 99 -18q62 0 115 24t92 65q40 41 62 96q22 54 22 117q0 111 -71 184q-70 72 -183 72q-61 0 -115 -26q-53 -26 -92 -69q-39 -44 -61 -99q-23 -58 -23 -116zM801 254q0 81 28 149 t79 122q48 51 118 82q68 30 148 30q64 0 123 -21q60 -22 102 -59q43 -38 68 -95q26 -58 26 -126q0 -81 -30 -150q-30 -68 -81 -121q-51 -52 -119 -82q-69 -30 -147 -30q-137 0 -226 80t-89 221zM874 262q0 -112 72 -180q73 -68 178 -68q60 0 116 25q54 24 94 67 q41 44 63 100t22 118q0 56 -19 100q-20 45 -54 78t-81 51q-46 18 -100 18q-63 0 -114 -25q-55 -27 -93 -69q-39 -44 -61 -99q-23 -58 -23 -116z" />
<glyph unicode="&#x26;" horiz-adv-x="1222" d="M27 238q0 89 29 156q30 69 81 120q50 50 119 87q67 36 143 58v3q-65 76 -107 149q-42 72 -42 162q0 65 27 127q25 58 76 107q48 47 112 74q65 28 135 28q60 0 115 -21q57 -21 97 -56q43 -37 68 -84t25 -101q0 -117 -96 -219q-95 -101 -285 -154v-2l279 -307h4l274 299v2 q-36 7 -60 33t-24 61q0 30 22 55t62 25q49 0 75 -39q26 -40 26 -78q0 -35 -19 -76q-18 -39 -50 -77q-24 -29 -73 -74q-41 -38 -86 -68l-125 -88l306 -332l-113 -37l-264 295h-4q-51 -63 -104 -119q-52 -55 -107 -95q-53 -39 -118 -62q-64 -23 -136 -23q-56 0 -104 21 q-50 22 -84 57q-36 37 -55 86q-19 48 -19 107zM127 262q0 -99 52 -157t124 -58q102 0 203 61q99 60 223 187l-303 338q-142 -68 -221 -161q-78 -92 -78 -210zM348 993q0 -63 42 -134t114 -159q131 62 216 150q83 86 83 207q0 45 -19 83q-17 34 -48 59q-30 24 -67 36 q-38 12 -79 12q-53 0 -95 -19q-44 -20 -77 -54t-51 -81q-19 -49 -19 -100z" />
<glyph unicode="'" horiz-adv-x="360" d="M98 825l271 502h2l121 -43l-342 -459h-52z" />
<glyph unicode="(" horiz-adv-x="808" d="M197 428q0 184 53 338q51 150 133 273q80 120 173 203q96 85 175 124q18 -24 21 -31q18 -29 18 -37q-78 -40 -162 -118q-83 -77 -156 -192q-72 -114 -118 -254q-47 -144 -47 -306t47 -305q46 -139 118 -254q70 -113 156 -192q82 -76 162 -117q0 -10 -18 -39 q-3 -7 -21 -31q-79 39 -175 124q-93 83 -173 203q-82 123 -133 273q-53 154 -53 338z" />
<glyph unicode=")" horiz-adv-x="808" d="M39 -442q78 39 163 118q81 75 155 192q72 114 118 254q47 144 47 306t-47 306q-46 140 -118 254q-74 117 -155 192q-85 79 -163 118q0 4 6 15q2 4 7 11.5l7 10.5q3 7 21 31q78 -40 173 -124q93 -83 173 -203q82 -123 133 -273q53 -154 53 -338t-53 -338 q-51 -150 -133 -273q-80 -120 -173 -203q-95 -84 -173 -124q-18 24 -21 31l-7 10.5t-7 11.5q-6 11 -6 15z" />
<glyph unicode="*" horiz-adv-x="704" d="M111 805l100 108l160 48l4 32l-148 51l-73 105l28 37l125 -39l88 -133l35 10l33 170l82 106l43 -14l-17 -131l-118 -141l16 -27l174 45l115 -39l-6 -45l-125 -41l-162 49l-23 -26l76 -142l-20 -131l-43 -10l-60 109l19 168l-29 8l-123 -123l-129 -43z" />
<glyph unicode="+" horiz-adv-x="983" d="M74 436l6 88h369v379h92v-379h366l6 -88h-372v-381h-92v381h-375z" />
<glyph unicode="," horiz-adv-x="434" d="M-41 -309q86 62 137 124q54 67 66 152q6 41 -11 67q-19 28 -39 44q-19 15 -41 25q-20 9 -20 12q4 33 29 64q24 30 78 30q71 0 109 -50q38 -51 28 -122q-7 -58 -38 -115t-73 -102q-49 -52 -94 -88q-52 -41 -104 -74z" />
<glyph unicode="-" horiz-adv-x="671" d="M14 434l6 92h512l7 -92h-525z" />
<glyph unicode="." horiz-adv-x="438" d="M66 74q1 39 28 68q27 30 74 30t76 -30q28 -29 26 -68q-2 -41 -29 -72q-28 -31 -75 -31q-48 0 -75 32q-27 31 -25 71z" />
<glyph unicode="/" horiz-adv-x="571" d="M25 -428l436 1780h82l-437 -1780h-81z" />
<glyph unicode="0" horiz-adv-x="1042" d="M92 412q0 108 33 212q33 103 94 185q60 81 147 131q85 49 189 49q83 0 152 -30q70 -31 120 -86q52 -58 81 -137q30 -81 30 -181q0 -108 -33 -213q-33 -104 -93 -187q-62 -86 -145 -135q-85 -51 -190 -51q-81 0 -151 32q-69 32 -122 89q-52 56 -82 139t-30 183zM184 412 q0 -78 23 -145q23 -66 61 -115q39 -50 94 -78q56 -29 119 -29q95 0 165 50q69 49 113 127q44 77 65 166q22 93 22 167q0 76 -23 142q-24 68 -62 112q-42 48 -94 74t-120 26q-95 0 -163 -49q-69 -50 -114 -123q-44 -71 -65 -160q-21 -87 -21 -165z" />
<glyph unicode="1" horiz-adv-x="690" d="M68 0l14 63l180 17q10 0 12 12l105 789l-248 16l12 53l340 29l-116 -887q-1 -12 8 -12l170 -17l-2 -63h-475z" />
<glyph unicode="2" horiz-adv-x="890" d="M20 0l3 80q102 76 216 156q117 82 208 161q99 86 159 165q64 84 64 165q0 84 -57 126t-134 42q-97 0 -185 -44t-157 -110l-31 41q31 33 79 75q44 38 96 67q54 30 106 47q56 18 113 18q62 0 111 -14q54 -15 91 -44q40 -31 62 -75t22 -104q0 -89 -61 -174t-157 -167 q-91 -78 -211 -159q-82 -55 -222 -152v-10h119q152 0 223 4q78 4 122 17q41 12 56 34q12 18 29 62l53 147h74l-84 -354h-707z" />
<glyph unicode="3" horiz-adv-x="835" d="M-55 -305q0 41 28 63q29 23 66 23q52 0 80 -34t43 -79q34 -6 67 -6q65 0 132 32q69 33 120 84q54 54 88 122q35 70 35 145q0 45 -15 85t-46 71t-76 49t-105 18q-63 0 -117 -11q-61 -12 -106 -30l-12 47q65 41 143 81q80 41 161 97q79 54 131 115q54 63 54 138 q0 97 -60 143q-61 47 -144 47q-89 0 -176 -41q-90 -42 -156 -106l-31 40q32 36 78 73t95 65q46 27 106 46q52 17 106 17q63 0 114 -17q56 -19 96 -50q44 -35 67 -82q24 -50 24 -113q0 -70 -38 -128q-35 -53 -95 -102q-53 -44 -126 -83q-61 -33 -128 -70v-6q31 4 33 4 q28 2 41 2q58 0 110 -18q53 -18 95 -54q41 -35 65 -85q25 -52 25 -115q0 -103 -52 -191q-50 -84 -136 -153q-84 -67 -186 -104q-105 -38 -206 -38q-28 0 -57 4q-33 4 -64 17q-28 11 -51 34q-20 20 -20 54z" />
<glyph unicode="4" horiz-adv-x="899" d="M-20 74l4 63l731 852h59l-112 -842h221l-23 -73h-207l-59 -451h-96l59 451h-577zM82 147h483l94 674h-4z" />
<glyph unicode="5" horiz-adv-x="839" d="M-84 -289q5 39 35 65q29 25 67 25q53 0 88 -38q34 -37 39 -89q17 -5 31 -6q20 -2 33 -2q71 0 133 27q64 28 109 70q46 43 75 101q30 60 37 116q18 139 -93 257q-109 116 -353 201l205 533h491l-14 -115h-455l-127 -338q138 -52 228 -109q93 -59 145 -122q55 -65 72 -131 q18 -66 10 -136q-12 -91 -60 -174q-47 -81 -121 -137q-75 -57 -173 -90q-97 -33 -207 -33q-94 0 -147 37q-54 37 -48 88z" />
<glyph unicode="6" horiz-adv-x="980" d="M72 436q0 104 34 203q33 97 99 194q64 94 153 176q92 84 198 149q112 69 231 113q123 46 257 64l43 -41q-150 -28 -295 -92q-142 -63 -263 -155q-117 -89 -208 -211t-137 -261l11 -2q37 53 76 90q39 38 96 73q53 33 106 50q59 19 107 19q70 0 130 -29q58 -28 99 -78 t64 -117q24 -69 24 -149q0 -88 -39 -172q-39 -85 -101 -148q-63 -64 -144 -105q-80 -40 -164 -40q-73 0 -142 32q-67 31 -120 92q-52 59 -84 148q-31 86 -31 197zM174 379q0 -56 20 -121q21 -66 56 -116q37 -52 89 -86q50 -33 116 -33q58 0 118 30q59 30 107 85t77 130 q29 74 29 168q0 80 -22 136q-22 57 -57 93q-32 33 -76 53q-38 17 -80 17q-106 0 -195 -62q-92 -64 -168 -161q-4 -22 -10 -65q-4 -31 -4 -68z" />
<glyph unicode="7" horiz-adv-x="888" d="M29 -381l755 1231v10h-417q-42 0 -66 -4q-28 -5 -45 -13t-30 -25q-8 -10 -21 -38q-7 -18 -23 -51q-12 -23 -18 -41l-12 -31h-62l80 314h721l2 -70l-772 -1282h-92z" />
<glyph unicode="8" horiz-adv-x="944" d="M59 315q7 64 40 117q31 50 78 91q46 40 103 70q58 30 111 52v2q-49 29 -93 63q-50 40 -76 73q-33 42 -47 86q-15 46 -7 100q10 66 43 125q32 58 88 102q55 43 130 67q72 23 167 17q72 -4 132 -33t102 -72q43 -45 64 -101t13 -118q-16 -123 -100 -205q-85 -83 -195 -128 l-2 -2q59 -32 98 -63q46 -36 75 -74q32 -42 47 -87q16 -49 10 -102q-23 -164 -142 -253q-120 -90 -321 -75q-72 6 -138 37q-60 28 -106 78q-42 45 -62 107q-19 60 -12 126zM172 336q-8 -64 5 -117q14 -57 47 -97q35 -43 89 -69q52 -25 129 -30q65 -5 115 13q53 19 90 50 q39 33 63 80q23 45 31 104q8 67 -14 115q-23 50 -65 91q-45 43 -102 77q-62 37 -122 68q-38 -19 -90 -52q-45 -29 -82 -64q-35 -34 -62 -78q-26 -43 -32 -91zM270 997q-7 -61 12 -109q20 -49 61 -90q43 -43 100 -78q50 -31 126 -73q89 52 151 120q61 67 73 159q7 57 -6 109 q-13 51 -45 92t-78 66t-109 30q-54 4 -106 -13q-48 -16 -87 -47q-37 -30 -61 -73q-25 -46 -31 -93z" />
<glyph unicode="9" horiz-adv-x="980" d="M-121 -338q152 28 296 92q137 60 262 156q119 91 209 211q90 121 136 260l-10 2q-33 -47 -77 -89q-44 -43 -95 -74q-53 -33 -105 -50q-54 -18 -108 -18q-70 0 -129 28t-100 78q-42 51 -65 118q-23 66 -23 148q0 88 39 172q40 87 101 149q62 64 143 104q80 40 165 40 q72 0 142 -32q67 -31 121 -92q53 -61 83 -147q31 -90 31 -198q0 -151 -77 -300q-76 -147 -210 -272q-132 -123 -309 -211t-377 -116zM180 520q0 -78 23 -136q22 -55 57 -92q32 -33 76 -53q40 -18 80 -18q104 0 194 63q94 65 168 160q4 22 10 65q5 38 5 69q0 56 -20 121 t-56 115q-37 51 -88 86q-50 34 -117 34q-57 0 -119 -31q-58 -29 -106 -85q-48 -55 -77 -130q-30 -76 -30 -168z" />
<glyph unicode=":" horiz-adv-x="436" d="M66 74q1 39 28 68q27 30 74 30t76 -30q28 -29 26 -68q-2 -41 -29 -72q-28 -31 -75 -31q-48 0 -75 32q-27 31 -25 71zM152 729q0 39 27 69q26 29 75 29q48 0 76 -29t26 -69q-2 -41 -29 -72q-27 -30 -75 -30q-47 0 -74 31q-26 30 -26 71z" />
<glyph unicode=";" horiz-adv-x="436" d="M-41 -309q86 62 137 124q54 67 66 152q6 41 -11 67q-19 28 -39 44q-19 15 -41 25q-20 9 -20 12q4 33 29 64q24 30 78 30q71 0 109 -50q38 -51 28 -122q-7 -58 -38 -115t-73 -102q-49 -52 -94 -88q-52 -41 -104 -74zM152 729q0 39 27 69q26 29 75 29q48 0 76 -29t26 -69 q-2 -41 -29 -72q-27 -30 -75 -30q-47 0 -74 31q-26 30 -26 71z" />
<glyph unicode="&#x3c;" horiz-adv-x="983" d="M4 461v41l809 381l23 -80l-668 -311v-19l668 -313l-23 -80z" />
<glyph unicode="=" horiz-adv-x="983" d="M31 256l6 92h786l6 -92h-798zM31 705h798l-6 -93h-786z" />
<glyph unicode="&#x3e;" horiz-adv-x="983" d="M25 160l667 313v19l-667 311l22 80l809 -381v-41l-809 -381z" />
<glyph unicode="?" horiz-adv-x="641" d="M98 74q1 35 31 66q29 30 76 30t74 -29q26 -27 26 -67q0 -43 -26 -72q-28 -31 -74 -31q-47 0 -78 31t-29 72zM125 588q0 55 22 95q22 39 59 70q37 30 82 51q52 23 93 38q9 3 25 8.5t28.5 10.5l22.5 9q36 16 62 33q29 19 43 42q16 26 16 54q0 33 -22 69q-19 32 -63 60 q-41 26 -102 43q-62 17 -135 17q-31 0 -45 -1q-21 -1 -33 -3q-4 11 -4 30q0 47 36 71t89 24q79 0 142 -27q65 -28 107 -70q43 -43 67 -96q24 -52 24 -108q0 -65 -19 -109t-52 -77q-31 -31 -75 -52q-38 -18 -94 -37l-73 -28q-40 -16 -65 -34q-27 -19 -45 -48q-17 -27 -17 -72 q1 -50 37 -99q35 -49 77 -85l-67 4q-26 26 -40 41q-22 24 -39 49q-18 28 -30 58q-12 31 -12 69z" />
<glyph unicode="@" horiz-adv-x="1708" d="M82 496q0 168 62 313q63 148 172 258q108 110 257 175q148 65 318 65q143 0 279 -49q135 -49 238 -135q104 -87 165 -211q61 -123 61 -277q0 -98 -29 -195q-30 -102 -86 -181q-56 -80 -140 -133q-82 -52 -191 -52q-42 0 -77 7q-46 9 -67 18q-28 12 -45 24q-16 11 -14 20 l111 498h-21q-40 -79 -99 -182q-53 -92 -111 -172q-60 -82 -110 -128q-55 -50 -102 -50q-40 0 -75 17q-39 19 -66 47q-28 30 -45 71q-16 39 -16 88q0 65 20 136q21 75 55 149q32 69 79 144q43 68 93 118q30 30 74 48q41 17 84 17q50 0 85 -17q40 -19 67 -45q28 -26 50 -63 q22 -36 36 -67h18l66 180h69l-112 -338l-62 -436q16 -8 31 -13q15 -4 38 -9t50 -5q89 0 158 45q67 44 118 116q50 70 75 159q26 90 26 176q0 143 -57 259q-57 115 -151 196q-95 81 -220 125q-126 44 -260 44q-153 0 -287 -60q-133 -60 -234 -164q-100 -103 -157 -237 q-58 -136 -58 -282q0 -144 51 -278q50 -130 141 -225q92 -95 217 -150q127 -56 277 -56q59 0 122 12q71 13 128 33l15 -55q-76 -24 -138 -35q-66 -12 -141 -12q-161 0 -295 58t-233 160t-153 240t-54 296zM537 352q0 -52 13 -85q12 -32 33 -54q20 -21 43 -30q24 -9 44 -9 q28 0 70 39t91 106t105 159q53 87 111 194l14 35q-15 27 -36 57q-23 33 -48 58q-30 30 -58 46q-33 19 -65 19q-70 0 -121 -51q-31 -31 -67 -95q-38 -68 -64 -132q-30 -75 -47 -139q-18 -69 -18 -118z" />
<glyph unicode="A" horiz-adv-x="1118" d="M-106 0l6 63l139 15q10 0 16 14l512 1131v41l150 41l233 -1211q1 -2 2.5 -5.5t1.5 -4.5q1 -4 13 -6l139 -15l6 -63h-450l6 63l157 13q8 0 12 4t3 10l-72 379h-459l-166 -373q-6 -14 4 -14l156 -19l6 -63h-415zM344 547h410l-119 633h-10z" />
<glyph unicode="B" horiz-adv-x="1140" d="M37 0l6 63l160 17q11 0 12 12l143 1096q2 12 -8 12l-155 17l-7 63h484q81 0 154 -16q72 -16 131 -53q58 -37 92 -90t34 -132q0 -125 -96 -216q-97 -92 -274 -116v-4q158 -28 241 -111q82 -82 82 -188q0 -76 -26 -131q-27 -57 -66 -96q-40 -40 -89 -64q-44 -21 -109 -38 q-62 -16 -119 -20q-68 -5 -123 -5h-467zM324 86q6 -1 21 -2.5t22 -2.5q36 -4 54 -7q12 -2 52 -7q32 -4 39 -4q15 0 43 2q14 1 43 1q68 2 126 19q61 18 105 52t72 88q27 52 27 127q0 70 -31 124q-29 50 -84 85q-52 33 -125 48q-77 16 -153 16h-142zM401 688l158 2 q85 0 162 18q78 18 132 51q56 34 89 86q33 53 33 124q0 127 -93 185q-92 58 -245 58h-166z" />
<glyph unicode="C" horiz-adv-x="1228" d="M102 506q0 165 58 325q57 158 172 273q94 94 218 149q126 56 275 56q55 0 129 -9q62 -8 123 -24l144 35l-54 -404h-65l-10 275q-65 28 -137 45q-68 16 -138 16q-142 0 -252 -64q-111 -64 -187 -169q-79 -108 -118 -235q-41 -132 -41 -259q0 -115 33 -208t98 -158 q53 -53 130 -83q76 -30 177 -30q74 0 138 16q69 17 129 43l114 269h70l-102 -369l-68 22q-48 -12 -144 -32q-72 -15 -147 -15q-124 0 -223 37q-101 38 -172 106q-72 69 -111 168t-39 224z" />
<glyph unicode="D" horiz-adv-x="1288" d="M37 0l6 63l160 17q11 0 12 12l143 1096q2 12 -8 12l-155 17l-7 63h443q129 0 241 -38q109 -37 192 -112q81 -73 126 -182q45 -108 45 -250q0 -139 -50 -265q-48 -121 -145 -218q-57 -57 -127 -98q-74 -43 -145 -67q-80 -27 -154 -38q-78 -12 -153 -12h-424zM324 88 l170 -22q126 6 239 48q114 43 198 119q85 78 135 192q50 115 50 267q0 128 -38 228q-36 96 -105 163q-66 65 -164 100q-95 34 -213 34h-125z" />
<glyph unicode="E" horiz-adv-x="1155" d="M37 0l6 63l160 17q11 0 12 12l143 1096q2 12 -8 12l-155 17l-7 63h942l-45 -346h-63l-8 223q0 19 -10 30t-54 17q-48 7 -133 8q-120 2 -252 2h-94l-70 -526h131q92 0 120 1q48 2 64 4q20 3 27 8q6 5 11 16l61 135h49l-90 -395h-49l6 133q0 10 -3 16t-22 9q-32 5 -63 6 q-58 2 -121 2h-129l-74 -557h48q150 0 286 2q99 1 153 8q50 6 64 17q15 12 21 30l82 219h74l-82 -342h-928z" />
<glyph unicode="F" horiz-adv-x="1069" d="M37 0l6 63l160 17q11 0 12 12l143 1096q2 12 -8 12l-155 17l-7 63h932l-45 -346h-63l-8 223q0 17 -11 30q-10 11 -53 17q-48 7 -133 8q-120 2 -252 2h-84l-72 -538h121q92 0 120 1q47 2 63 4q21 3 28 8q5 3 10 16l64 135h49l-92 -396h-49l6 134q0 10 -3 16t-23 9 q-24 4 -62 5q-58 2 -121 2h-119l-67 -518q-2 -12 8 -12l194 -17l6 -63h-495z" />
<glyph unicode="G" horiz-adv-x="1302" d="M102 506q0 165 58 325q57 158 172 273q94 94 218 149q126 56 275 56q46 0 114 -9q56 -7 118 -24l143 35l-53 -404h-64l-10 275q-60 28 -126 45q-64 16 -130 16q-135 0 -244 -62q-108 -61 -189 -165q-77 -99 -122 -234q-43 -129 -43 -266q0 -231 131 -362q54 -54 137 -85 q85 -32 179 -32q71 0 135 14q77 17 117 31l49 383q1 12 -9 12l-180 17l-6 63h473l-6 -63l-160 -17q-11 0 -12 -12l-47 -352l104 -15l6 -49q-103 -31 -230 -55q-124 -23 -245 -23q-123 0 -224 37q-103 38 -174 106q-74 71 -114 168q-41 100 -41 224z" />
<glyph unicode="H" horiz-adv-x="1447" d="M37 0l6 63l160 17q11 0 12 12l143 1096q2 12 -8 12l-155 17l-7 63h457l-6 -63l-160 -17q-11 0 -12 -12l-64 -490h699l63 490q1 12 -8 12l-156 17l-6 63h457l-6 -63l-160 -17q-10 0 -12 -12l-144 -1096q-2 -12 9 -12l155 -17l6 -63h-456l6 63l160 17q10 0 12 12l70 529 h-699l-69 -529q-2 -12 8 -12l155 -17l7 -63h-457z" />
<glyph unicode="I" horiz-adv-x="675" d="M55 0l6 63l160 17q11 0 12 12l144 1096q1 12 -8 12l-156 17l-6 63h457l-7 -63l-159 -17q-12 0 -13 -12l-143 -1096q-2 -12 8 -12l156 -17l6 -63h-457z" />
<glyph unicode="J" horiz-adv-x="720" d="M-68 96q5 39 29 59q23 19 55 17q54 -5 79 -44q25 -40 36 -93h2q109 17 164 113q55 98 78 276l100 764q1 12 -8 12l-172 17l-6 63h473l-6 -63l-160 -17q-10 0 -12 -12l-101 -758q-12 -97 -44 -185q-31 -84 -80 -147q-47 -60 -114 -95q-65 -34 -151 -34q-80 0 -124 38 q-39 33 -39 77q0 6 1 12z" />
<glyph unicode="K" horiz-adv-x="1267" d="M37 0l6 63l160 17q11 0 12 12l143 1096q2 12 -8 12l-155 17l-7 63h457l-6 -63l-160 -17q-11 0 -12 -12l-78 -604l662 608l2 4l-2 4l-146 17l-6 63h430l-6 -63l-127 -15q-6 0 -15 -6q-12 -8 -14 -10l-485 -438l367 -656q2 -2 12 -8q7 -4 18 -6l105 -15l6 -63h-381l8 63 l107 13q3 0 8 6q4 6 0 10l-322 590l-237 -211l-49 -379q-2 -12 8 -12l155 -17l7 -63h-457z" />
<glyph unicode="L" horiz-adv-x="1081" d="M37 0l6 63l160 17q11 0 12 12l143 1096q2 12 -8 12l-155 17l-7 63h482l-6 -63l-185 -17q-11 0 -12 -12l-148 -1118h3q217 0 284 1q105 2 150 7q48 6 60 16t18 29l98 278h72l-97 -401h-870z" />
<glyph unicode="M" horiz-adv-x="1585" d="M-33 0l6 63l187 17q12 0 14 12l184 1096q2 12 -8 12l-178 17l-6 63h371l208 -1065h11l530 1065h340l-6 -63l-170 -17q-10 0 -10 -12l-107 -1096q0 -12 10 -12l156 -17l6 -63h-471l8 63l177 17q10 0 10 12l108 1092h-10l-579 -1143h-60l-237 1145h-11l-184 -1094 q-2 -12 6 -12l178 -17l6 -63h-479z" />
<glyph unicode="N" horiz-adv-x="1359" d="M10 0l6 63l187 17q11 0 12 12l141 1082q2 11 -8 12l-158 31l-6 63h322l543 -1118h4l131 1026q2 12 -8 12l-177 17l-6 63h477l-6 -63l-186 -17q-10 0 -12 -12l-158 -1198h-84l-582 1194h-6l-139 -1092q-1 -12 8 -12l176 -17l6 -63h-477z" />
<glyph unicode="O" horiz-adv-x="1378" d="M104 573q0 135 44 264q43 126 128 232q85 107 208 174q122 66 272 66q127 0 231 -49q102 -48 179 -133q75 -83 117 -193q42 -111 42 -232q0 -148 -52 -285q-53 -140 -151 -245q-85 -91 -199 -148t-251 -57q-126 0 -230 49q-102 48 -180 132q-76 82 -117 194t-41 231z M231 567q0 -123 39 -232t115 -185q115 -115 301 -115q129 0 225 63q98 64 160 162q64 101 95 217q32 120 32 232q0 120 -36 228t-111 183q-58 58 -133 89q-78 32 -175 32q-129 0 -225 -63q-98 -64 -160 -162q-64 -101 -95 -217q-32 -120 -32 -232z" />
<glyph unicode="P" horiz-adv-x="1062" d="M37 0l6 63l160 17q11 0 12 12l143 1096q2 12 -8 12l-155 17l-7 63h424q102 0 189 -23t147 -67q61 -45 96 -110t35 -150q0 -92 -38 -170q-37 -75 -104 -130t-155 -83q-90 -29 -190 -29q-72 0 -117 4q-11 1 -44 3.5t-50 4.5l-57 -438q-2 -12 8 -12l192 -17l6 -63h-493z M391 600q45 -7 87 -11q55 -5 110 -5q80 0 147 21q66 20 117 64q50 42 78 105q28 62 28 148q0 80 -26 133q-26 54 -74 91q-44 34 -113 53q-66 18 -145 18q-12 0 -35.5 -1.5t-28.5 -1.5q-34 -1 -67 -6z" />
<glyph unicode="Q" horiz-adv-x="1378" d="M104 573q0 135 44 264q43 126 128 232q85 107 208 174q122 66 272 66q127 0 231 -49q102 -48 179 -133q75 -83 117 -193q42 -111 42 -232q0 -148 -52 -285q-53 -140 -151 -245q-84 -90 -206 -148q-120 -57 -240 -57q39 -96 92 -158q52 -61 121 -94t164 -39q28 -2 60 -2 q70 0 161 9v-33q0 -9 2 -31q-63 -9 -100 -11q-45 -3 -101 -3q-85 0 -156 12q-72 12 -134 52q-61 39 -119 114q-56 73 -117 197q-99 22 -182 72q-82 49 -141 125q-59 75 -90 175q-32 102 -32 221zM231 567q0 -123 39 -232t115 -185q115 -115 301 -115q129 0 225 63 q98 64 160 162q64 101 95 217q32 120 32 232q0 120 -36 228t-111 183q-58 58 -133 89q-78 32 -175 32q-129 0 -225 -63q-98 -64 -160 -162q-64 -101 -95 -217q-32 -120 -32 -232z" />
<glyph unicode="R" horiz-adv-x="1148" d="M37 0l6 63l160 17q11 0 12 12l143 1096q2 12 -8 12l-155 17l-7 63h494q97 0 175 -25q75 -24 125 -65q52 -43 75 -97q24 -57 24 -118q0 -154 -100 -258q-101 -106 -276 -152l245 -473q4 -10 17 -12l127 -17l6 -63h-234l-63 141l-203 418l-215 4l-61 -471q-2 -12 8 -12 l155 -17l7 -63h-457zM393 641l248 -27q65 12 127 41q57 27 102 72t68 99q25 59 25 124q0 60 -24 111q-24 52 -70 87q-47 37 -114 54q-61 16 -130 16q-14 0 -29 -1l-127 -9z" />
<glyph unicode="S" horiz-adv-x="970" d="M47 12l12 355h68l37 -287q50 -22 121 -33q66 -10 125 -10q66 0 127 13q64 14 113 45q51 32 82 83q32 52 32 125q0 60 -25 107q-24 45 -64 82q-37 34 -91 66q-41 24 -107 58q-48 26 -112 65q-61 38 -100 77q-43 43 -70 97t-27 128q0 91 41 155q40 63 106 100t146 54 q82 17 157 17q64 0 115 -4q54 -4 113 -17l112 31l-51 -391h-69l-9 260q-45 28 -111 42q-64 13 -120 13q-62 0 -116 -11q-58 -12 -105 -39q-46 -27 -77 -73q-30 -45 -30 -112q0 -61 25 -109q24 -47 64 -84q35 -33 92 -66q78 -46 106 -61q60 -32 110 -63q54 -33 96 -75 q40 -40 68 -94q27 -52 27 -122q0 -102 -40 -170q-42 -71 -105 -113t-149 -62q-85 -20 -171 -20q-81 0 -174 11q-94 11 -172 32z" />
<glyph unicode="T" horiz-adv-x="1226" d="M111 907l86 373h1056l-49 -377h-61l-4 254q0 17 -5 30q-4 11 -37 17q-34 7 -101 8q-92 2 -193 2h-39l-148 -1122q-2 -12 9 -12l176 -17l6 -63h-498l6 63l181 17q10 0 12 12l147 1122h-39q-103 0 -191 -2q-63 -1 -99 -8q-34 -6 -41 -17q-11 -17 -15 -30l-86 -250h-73z" />
<glyph unicode="U" horiz-adv-x="1445" d="M154 1280h456l-6 -63l-160 -17q-10 0 -12 -12l-92 -707q-3 -17 -7 -51q-3 -29 -3 -59q0 -153 93 -239q92 -85 269 -85q75 0 144 23t120 68q55 49 90 116q36 69 48 164l100 770q2 12 -8 12l-176 17l-6 63h477l-6 -63l-187 -17q-10 0 -12 -12l-102 -778q-15 -110 -59 -194 t-109 -137q-68 -55 -152 -82q-89 -28 -186 -28q-95 0 -181 25q-78 23 -141 73q-59 47 -92 118t-33 165q0 44 4 84q3 30 11 88l88 666q2 12 -9 12l-155 17z" />
<glyph unicode="V" horiz-adv-x="1146" d="M76 1280h446l-6 -63l-158 -13q-7 0 -11 -4t-3 -10l201 -1090h4l481 1084q7 14 -4 14l-156 19l-6 63h424l-6 -63l-139 -15q-11 0 -17 -14l-544 -1196h-113l-231 1194q-1 2 -3 5.5t-2 4.5q-1 4 -12 6l-139 15z" />
<glyph unicode="W" horiz-adv-x="1722" d="M43 1280h444l-6 -63l-155 -13q-8 0 -13 -4t-4 -10l168 -1088h6l410 973l-16 111q-1 2 -3 5.5t-2 4.5q-2 4 -12 6l-141 15l-6 63h444l-6 -63l-160 -13q-7 0 -11 -4t-3 -10l149 -1088h2l494 1082q7 14 -4 14l-156 19l-6 63h426l-6 -63l-139 -15q-10 0 -17 -14l-557 -1196 h-106l-135 928h-4l-400 -928h-115l-202 1194q-4 14 -15 16l-137 15z" />
<glyph unicode="X" horiz-adv-x="1239" d="M-55 0l6 63l137 15q2 0 13 4q5 2 12 10l475 561l-301 533q-7 14 -23 16l-125 15l-6 63h436l-6 -63l-149 -13q-9 0 -12 -7t1 -11l254 -463h5l376 465q4 4 2 9t-6 5l-149 15l-6 63h434l-6 -63l-136 -15q-3 0 -13 -4q-4 -1 -11 -10l-442 -522l329 -572q7 -14 23 -16l127 -15 l6 -63h-442l6 63l147 13q8 0 11 7t-1 11l-276 504h-4l-408 -502q-4 -4 -2 -9t6 -5l146 -19l6 -63h-434z" />
<glyph unicode="Y" horiz-adv-x="1204" d="M92 1280h430l-6 -63l-147 -13q-19 0 -11 -18l275 -574h4l424 576q4 4 2 9t-6 5l-146 15l-6 63h420l-6 -63l-137 -15q-19 -5 -25 -14l-479 -641l-62 -455q-2 -12 11 -12l174 -17l6 -63h-498l6 63l183 17q8 0 10 12l59 451l-321 643q-7 14 -23 16l-125 15z" />
<glyph unicode="Z" horiz-adv-x="1032" d="M-23 0l7 57l983 1153v4h-224q-131 0 -253 -2q-87 -1 -136 -8q-46 -6 -57 -17q-12 -12 -18 -30l-66 -223h-70l45 346h922l-8 -61l-975 -1149l-2 -4h178q150 0 288 2q98 1 154 8q52 6 66 17t20 30l91 254h75l-92 -377h-928z" />
<glyph unicode="[" horiz-adv-x="753" d="M201 -440v1771h504v-74h-416v-1624h416v-73h-504z" />
<glyph unicode="\" horiz-adv-x="571" d="M27 1352h82l436 -1780h-82z" />
<glyph unicode="]" horiz-adv-x="753" d="M49 -367h416v1624h-416v74h504v-1771h-504v73z" />
<glyph unicode="^" horiz-adv-x="819" d="M203 1034l246 363h167l148 -363h-39q-9 14 -45 67.5t-53 78.5q-12 18 -36 52q-16 23 -31 46q-16 26 -22 33l-10 12h-4l-274 -289h-47z" />
<glyph unicode="_" horiz-adv-x="962" d="M-72 -100l6 92h971l6 -92h-983z" />
<glyph unicode="`" horiz-adv-x="817" d="M270 1397h164l158 -363h-47z" />
<glyph unicode="a" horiz-adv-x="964" d="M51 258q0 66 17 149q15 75 47 159q29 77 71 150q40 70 90 120q39 39 101 73q60 33 104 33q48 0 83 -22t64 -54q28 -31 47 -62q17 -28 32 -50h18l45 186h82l-96 -410l-109 -467l66 -14l166 166l32 -37q-17 -25 -46 -61q-32 -40 -62 -70q-27 -27 -65 -56q-32 -24 -56 -24 q-16 0 -37 7t-43 18q-20 10 -35 22q-14 11 -14 23q0 9 10 48q3 11 27 101q16 62 39 141q27 95 49 165h-21q-4 -6 -46 -73q-7 -10 -29.5 -47.5t-36.5 -59.5q-35 -54 -79 -119q-47 -69 -85 -112q-46 -53 -84 -82q-41 -32 -78 -32q-44 0 -77 25q-30 23 -52 65q-21 40 -30 94 q-9 53 -9 107zM152 283q0 -112 22 -172q23 -62 68 -62q35 0 80 47q39 41 101 125q48 66 122 180q20 31 65.5 102.5t71.5 110.5l18 64q-35 40 -50 55q-41 41 -64 59q-36 28 -73 46t-73 18q-29 0 -56 -15t-54 -42q-36 -36 -70 -101q-30 -57 -56 -137q-21 -65 -38 -147 q-14 -69 -14 -131z" />
<glyph unicode="b" horiz-adv-x="909" d="M94 121l260 1167q6 27 -20 31l-170 14l6 51l313 43l-114 -479l-150 -575h21q12 24 47 87q31 56 68 118q40 67 81 128q44 66 86 116q41 49 84 86q40 34 74 34q44 0 78 -25q33 -24 54 -64q22 -43 32 -89q10 -47 10 -98q0 -72 -17 -150q-16 -75 -49 -163q-28 -75 -71 -152 q-40 -71 -86 -117q-117 -117 -252 -117q-51 0 -104 18t-93 42t-66 51q-26 28 -22 43zM186 137q20 -20 45 -38q24 -17 58 -36q25 -14 62 -26q30 -10 59 -10q37 0 77 22q41 22 80 62q37 37 71 101q32 60 59 139q26 78 41 152q16 82 16 140q0 81 -29 145t-82 70q-24 0 -66 -48 q-43 -50 -99 -133q-43 -64 -125 -200q-35 -59 -144 -248z" />
<glyph unicode="c" horiz-adv-x="718" d="M63 283q0 137 40 254q41 119 106 208q67 92 148 143q82 52 169 52q39 0 74 -7q37 -7 68 -23q29 -15 50 -40q19 -23 19 -59q0 -40 -20 -63q-22 -25 -60 -25q-29 0 -47 15t-18 44q0 23 14 45q-11 15 -58 36q-50 22 -102 22q-10 0 -39 -19q-30 -20 -49 -39q-31 -31 -66 -89 q-34 -57 -63 -126q-30 -72 -47 -147q-18 -78 -18 -154q0 -72 18 -123t47 -83t63 -47t66 -15q26 0 55 14q36 17 66 38q45 31 70 52q29 24 61 56l33 -37q-29 -33 -72 -70q-37 -32 -85 -63q-46 -30 -87 -47q-46 -19 -77 -19q-56 0 -103 24q-50 26 -82 65q-34 42 -54 101 q-20 60 -20 126z" />
<glyph unicode="d" horiz-adv-x="964" d="M51 258q0 66 17 149q15 75 47 159q29 77 71 150q40 70 90 120q39 39 101 73q60 33 104 33q48 0 83 -22t64 -54q28 -31 47 -62q17 -28 32 -50h18l115 534q6 27 -21 31l-170 14l6 51l314 43l-213 -897l-109 -467l66 -14l166 166l32 -37q-17 -25 -46 -61q-32 -40 -62 -70 q-27 -27 -65 -56q-32 -24 -56 -24q-16 0 -37 7t-43 18q-20 10 -35 22q-14 11 -14 23q0 9 10 48q3 11 27 101q16 62 39 141q27 95 49 165h-21q-4 -6 -46 -73q-7 -10 -29.5 -47.5t-36.5 -59.5q-35 -54 -79 -119q-47 -69 -85 -112q-46 -53 -84 -82q-41 -32 -78 -32 q-44 0 -77 25q-30 23 -52 65q-21 40 -30 94q-9 53 -9 107zM152 283q0 -112 22 -172q23 -62 68 -62q35 0 80 47q39 41 101 125q48 66 122 180q20 31 65.5 102.5t71.5 110.5l18 64q-35 40 -50 55q-41 41 -64 59q-36 28 -73 46t-73 18q-29 0 -56 -15t-54 -42q-36 -36 -70 -101 q-30 -57 -56 -137q-21 -65 -38 -147q-14 -69 -14 -131z" />
<glyph unicode="e" horiz-adv-x="702" d="M63 283q0 134 41 254q39 115 106 208q66 92 146 143q82 52 164 52q50 0 87 -15q39 -16 64 -39q25 -24 40 -52q14 -27 14 -54q0 -44 -19 -78q-20 -35 -79 -78q-70 -50 -169 -109q-116 -69 -292 -165q0 -5 -0.5 -9.5t-1 -6.5t-0.5 -3v-20q0 -72 18 -123t47 -83t63 -47 t66 -15q26 0 55 14q36 17 66 38q45 31 70 52q29 24 61 56l33 -37q-29 -33 -72 -70q-37 -32 -85 -63q-46 -30 -87 -47q-46 -19 -77 -19q-56 0 -103 24q-50 26 -82 65q-34 42 -54 101q-20 60 -20 126zM172 414l2 -2l2 -2q139 78 214 121q78 45 135 90q52 41 71 71q20 31 20 72 q0 52 -34 86q-35 35 -86 35q-41 0 -82 -25q-39 -24 -68 -53q-20 -20 -46 -61q-29 -46 -50 -92q-25 -55 -45 -113q-21 -62 -33 -127z" />
<glyph unicode="f" horiz-adv-x="559" d="M-242 -406q0 34 21 55t49 21q38 0 62 -28q23 -28 28 -74l141 102q22 47 43 150q21 99 39 215l129 805l-178 6l4 55l189 29q50 274 155 385q39 43 102 70q61 26 111 26q58 0 96 -29q37 -28 37 -69q0 -35 -18 -59q-17 -23 -47 -23q-39 0 -62 27q-21 25 -26 75l-166 -57 q-33 -61 -61 -158q-28 -98 -44 -201h269l6 -75h-285l-131 -785q-29 -183 -64 -293q-36 -114 -102 -180q-88 -88 -182 -88q-48 0 -82 31q-33 30 -33 67z" />
<glyph unicode="g" horiz-adv-x="837" d="M-106 -246q0 43 21 82q20 38 56 72q32 30 79 58q43 25 89 42v8q-36 21 -62 58q-24 34 -24 78q0 30 14 55q15 26 34 44t50 35q27 15 54 27v6q-41 35 -71 92t-30 140q0 71 29 141t81 125q51 54 123 89q69 34 157 34q67 0 118 -11q68 -15 103 -26h217l-35 -96l-279 45v-12 q48 -45 81 -97q32 -50 32 -118q0 -71 -32 -138q-30 -62 -82 -116q-50 -51 -112 -81q-63 -30 -124 -30q-32 0 -72 8q-33 7 -65 25q-109 -45 -109 -119q0 -49 44 -81q42 -30 149 -64l118 -37q130 -41 199 -95q70 -55 70 -137q0 -55 -34 -104q-35 -50 -94 -84q-58 -33 -145 -55 q-84 -21 -186 -21q-67 0 -133 18q-69 19 -117 50q-53 34 -82 81q-30 48 -30 109zM-18 -233q0 -52 23 -88q24 -38 67 -63t102 -40q56 -14 129 -14q75 0 130 14q59 15 102 39q40 22 66 56q24 32 24 67q0 61 -46 97q-49 38 -122 65q-50 19 -123 40q-71 21 -139 46 q-33 -15 -75 -38q-41 -23 -69 -48q-32 -28 -50 -61q-19 -34 -19 -72zM199 555q0 -62 15 -113t56 -92q8 -8 33 -23q23 -14 49 -14q47 0 98 19q48 18 87 57q53 53 80 130q28 79 28 161q0 42 -24 76q-23 33 -61 60t-76 41q-41 15 -70 15q-56 0 -115 -59q-41 -41 -71 -113 q-29 -70 -29 -145z" />
<glyph unicode="h" horiz-adv-x="993" d="M72 2l63 301l219 985q6 27 -20 31l-170 14l6 51l313 43l-114 -479l-148 -624h21q49 96 94 173q46 79 100 162q50 77 90 135q34 48 64 85q11 15 38 39q25 22 60 22q36 0 65 -11q34 -13 57 -32q26 -22 41 -48q15 -27 15 -58q0 -15 -8 -55q-9 -45 -22 -88q-16 -53 -30 -106 q-13 -49 -32 -108q-51 -174 -63 -214q-4 -13 -47 -157l65 -14l166 166l33 -37q-17 -25 -46 -61q-28 -35 -63 -70q-30 -30 -64 -56q-31 -24 -57 -24q-15 0 -35 7q-24 8 -40 18q-21 12 -32 22q-13 12 -13 23q0 24 10 64q17 66 26 98q5 15 17 55.5t19 64.5q3 10 17.5 59.5 t22.5 76.5q10 34 30.5 103t29.5 100q24 86 24 110q0 40 -36 68q-35 28 -72 28q-24 0 -73 -63q-55 -70 -115 -165q-73 -115 -135 -225q-66 -117 -136 -247l-27 -172z" />
<glyph unicode="i" horiz-adv-x="532" d="M74 729q22 32 46 62q28 35 62 69q27 27 65 56q31 24 56 24q18 0 40 -7q24 -7 45 -18q23 -11 36 -22q15 -12 10 -23l-231 -807l65 -14l166 166l33 -37q-17 -25 -46 -61q-28 -35 -63 -70q-30 -30 -64 -56q-32 -24 -56 -24q-16 0 -37 7q-23 8 -42 18q-21 11 -33 22 q-13 11 -11 23l223 807l-66 14l-166 -166zM377 1235q0 49 26 79q27 32 60 32q40 0 62 -25t22 -61q0 -47 -26 -79t-60 -32q-41 0 -63 25q-21 24 -21 61z" />
<glyph unicode="j" horiz-adv-x="458" d="M-258 -449q-2 34 19 58t61 24q39 0 58 -20q21 -23 28 -49l67 12q34 50 72 148q39 100 62 206l208 914l-65 14l-166 -166l-33 37q22 32 46 62t63 69q30 30 64 56q31 24 57 24q18 0 39 -7q24 -8 44 -18t35 -22t13 -23l-224 -927q-69 -300 -180 -408q-68 -70 -153 -70 q-46 0 -80 26t-35 60zM344 1235q0 47 27 79t59 32q41 0 63 -25q21 -24 21 -61q0 -47 -26 -79t-60 -32q-40 0 -62 25t-22 61z" />
<glyph unicode="k" horiz-adv-x="858" d="M57 0l78 299l219 989q6 27 -20 31l-170 14l6 51l313 43l-114 -479l-119 -454h8l385 229l59 53q-63 33 -63 86q0 36 26 57q25 21 60 21q41 0 65 -30q23 -29 23 -66q0 -58 -42 -106q-40 -46 -155 -107l-204 -109l153 -479h41l160 176l33 -37q-1 -1 -16.5 -23.5t-25.5 -37.5 q-21 -30 -56 -71q-30 -34 -58 -58q-30 -25 -53 -25q-14 0 -31 7q-18 8 -36 18q-15 9 -30 22q-13 12 -18 23l-137 446l-92 -47l-86 -446z" />
<glyph unicode="l" horiz-adv-x="479" d="M63 37l310 1251q6 27 -21 31l-170 14l6 51l306 43l-353 -1364l66 -14l174 166l33 -37q-17 -25 -46 -61q-28 -35 -63 -70q-30 -30 -64 -56q-31 -24 -57 -24q-16 0 -37 7q-23 8 -42 18t-31 22t-11 23z" />
<glyph unicode="m" horiz-adv-x="1554" d="M53 729q22 32 46 62t63 69q30 30 64 56q31 24 57 24q18 0 38 -7q18 -6 41 -18q20 -10 35 -22t15 -23q0 -14 -35 -157q-12 -50 -44 -182t-50 -207h20q46 90 93 173q22 38 97 162q54 88 86 135q43 63 62 85q11 15 38 39q25 22 60 22q37 0 64 -11q34 -14 55 -32 q26 -23 40 -48q15 -27 15 -58q0 -38 -36 -159q-20 -67 -95 -308h21q50 99 95 173q53 88 101 162q45 69 92 135q43 59 64 85q11 15 38 39q25 22 60 22q37 0 64 -11q34 -14 55 -32q26 -23 40 -48q15 -27 15 -58q0 -15 -8 -55q-9 -45 -22 -88q-16 -53 -30 -106 q-13 -49 -32 -108q-17 -57 -36 -123q-7 -22 -18.5 -62.5t-16.5 -58.5q-23 -72 -39 -127l65 -14l166 166l33 -37q-17 -25 -46 -61q-28 -35 -63 -70q-30 -30 -64 -56q-32 -24 -56 -24q-16 0 -36 7q-24 8 -40 18q-21 12 -32 22q-13 12 -13 23q0 14 10 53q11 40 27 99 q5 18 16.5 60.5t18.5 66.5q30 106 40 139q28 97 62 202q26 81 26 109q0 40 -35 69t-73 29q-23 0 -74 -63q-53 -66 -116 -165q-69 -109 -136 -225q-62 -107 -137 -247l-37 -172l-108 10l122 453q14 53 27 97l27 93q10 36 19 76q7 31 7 45q0 40 -35 69t-73 29q-23 0 -72 -63 q-45 -58 -110 -165q-90 -150 -132 -225q-77 -140 -135 -247l-26 -172l-109 10l64 301l129 541l-66 14l-174 -166z" />
<glyph unicode="n" horiz-adv-x="1054" d="M53 729q22 32 46 62t63 69q30 30 64 56q31 24 57 24q18 0 38 -7q18 -6 41 -18q20 -10 35 -22t15 -23q0 -14 -35 -157q-12 -50 -44 -182t-50 -207h20q48 90 96 173q23 40 100 162q43 69 89 135q38 56 63 85q11 15 38 39q25 22 61 22q35 0 64 -11q34 -13 57 -32 q26 -22 41 -48q16 -29 16 -58q0 -15 -8 -55q-7 -36 -23 -88q-16 -53 -30 -106q-17 -65 -31 -108q-11 -38 -32.5 -109t-31.5 -105q-4 -13 -47 -157l66 -14l165 166l33 -37q-17 -25 -46 -61q-32 -40 -62 -70q-27 -27 -65 -56q-32 -24 -56 -24q-16 0 -36 7q-24 8 -40 18 q-21 12 -32 22q-13 12 -13 23q0 24 10 64q11 45 27 98q5 15 17 55.5t19 64.5q3 10 17.5 59.5t22.5 76.5q56 193 59 203q25 89 25 110q0 40 -36 68q-35 28 -73 28q-23 0 -73 -63t-114 -165q-82 -130 -136 -225q-66 -117 -136 -247l-26 -172l-109 10l64 301l120 541l-65 14 l-166 -166z" />
<glyph unicode="o" d="M70 346q0 92 30 196q29 101 88 192q57 89 142 148q83 58 188 58q77 0 132 -35q53 -34 88 -90q33 -53 50 -123t17 -133q0 -88 -31 -195q-29 -101 -88 -192q-56 -87 -141 -146t-189 -59q-75 0 -131 35q-53 33 -89 89q-33 51 -50 122q-16 65 -16 133zM170 326q0 -59 10 -110 q11 -55 34 -96q25 -44 62 -68q38 -25 97 -25q57 0 104 30q46 30 84 80q39 52 65 112q30 70 46 126q16 57 24 110q9 63 9 95q0 52 -11 109q-11 55 -34 97q-25 45 -62 69q-40 26 -96 26q-55 0 -103 -31t-85 -80q-39 -52 -65 -112q-30 -70 -46 -126q-19 -68 -25 -112 q-8 -56 -8 -94z" />
<glyph unicode="p" horiz-adv-x="970" d="M-145 -504l4 64l164 14q3 -4 8 1q4 4 6 11l280 1258l-65 14l-166 -166l-33 37q22 32 46 62t63 69q30 30 64 56q31 24 57 24q18 0 38 -7q18 -6 41 -18q20 -10 35 -22t15 -23q0 -8 -15 -62q-4 -15 -15.5 -58t-19.5 -71q-3 -10 -19 -68t-25 -90q-14 -49 -39 -148h22 q12 24 47 87q17 31 69 118q40 67 81 128q44 66 86 116q41 49 84 86q40 34 73 34q44 0 78 -25q33 -24 54 -64q22 -43 32 -89q10 -47 10 -98q0 -72 -17 -150q-18 -81 -48 -163q-26 -70 -72 -152q-40 -71 -86 -117q-117 -117 -252 -117q-60 0 -114 20q-59 22 -95 46h-6 l-92 -447q0 -6 1 -10q1 -6 5 -2l187 -14l4 -64h-475zM248 137q20 -20 45 -38q27 -19 57 -36q23 -13 63 -26q30 -10 58 -10q38 0 78 22q41 22 80 62q34 34 70 101q35 65 60 139q26 78 41 152q15 77 15 140q0 81 -29 145t-81 70q-25 0 -67 -48q-39 -45 -98 -133 q-43 -64 -125 -200q-54 -90 -145 -248z" />
<glyph unicode="q" horiz-adv-x="888" d="M51 258q0 66 17 149q15 75 47 159q29 77 71 150q40 70 90 120q39 39 101 73q60 33 104 33q48 0 83 -22t64 -54q28 -31 47 -62q17 -28 32 -50h18l37 161l82 -10l-88 -375l-209 -944q0 -12 6 -12l166 -14l4 -64h-473l4 64l184 14q4 -4 8 1q6 6 7 11l102 451q19 83 35 141 q20 76 39 146q26 94 49 168h-21q-4 -6 -46 -73q-7 -10 -29.5 -47.5t-36.5 -59.5q-35 -54 -79 -119q-47 -69 -85 -112q-46 -53 -84 -82q-41 -32 -78 -32q-44 0 -77 25q-30 23 -52 65q-21 40 -30 94q-9 53 -9 107zM152 283q0 -112 22 -172q23 -62 68 -62q35 0 80 47 q39 41 101 125q48 66 122 180q20 31 65.5 102.5t71.5 110.5l18 64q-35 40 -50 55q-41 41 -64 59q-36 28 -73 46t-73 18q-29 0 -56 -15t-54 -42q-36 -36 -70 -101q-30 -57 -56 -137q-21 -65 -38 -147q-14 -69 -14 -131z" />
<glyph unicode="r" horiz-adv-x="804" d="M53 729q22 32 46 62t63 69q30 30 64 56q31 24 57 24q18 0 38 -7q18 -6 41 -18q20 -10 35 -22t15 -23q0 -14 -35 -157q-12 -50 -44 -182t-50 -207h20l174 323q22 42 79 145q31 56 58 89q26 31 55 46q26 13 66 13q53 0 87 -42q34 -41 34 -85q0 -38 -20 -62q-21 -26 -60 -26 q-15 0 -30 6t-24 20q-9 13 -10 32q-2 20 13 46l-55 21l-398 -666l-30 -192l-109 10l64 299l120 543l-65 14l-166 -166z" />
<glyph unicode="s" horiz-adv-x="661" d="M2 98q0 37 22 62q21 24 58 24q29 0 49 -20q21 -21 21 -49q0 -6 -2 -26q-1 -6 -5 -19q45 -20 91 -27q51 -8 108 -12q65 28 95 73t30 107q0 59 -46 108q-49 52 -124 117l-66 60q-29 26 -59 63q-27 34 -42 67q-15 34 -15 70q0 60 27 105t72 76q44 31 101 47q55 16 117 16 q36 0 73 -6q38 -6 71 -21t54 -39t21 -63q0 -40 -20 -63q-22 -25 -60 -25q-30 0 -47 20q-18 21 -18 50q0 16 1 26q1 13 3 25q-46 16 -91 24q-58 10 -91 11q-68 -21 -98 -63q-29 -41 -29 -103q0 -27 8 -53q7 -22 28 -48q22 -27 52 -53l82 -72q72 -63 126 -125q56 -65 56 -139 q0 -51 -24 -97q-25 -49 -66 -81q-44 -35 -104 -56q-63 -22 -134 -22q-103 0 -164 36t-61 95z" />
<glyph unicode="t" horiz-adv-x="569" d="M92 846l4 55l191 29l51 266h82l-55 -278h241l6 -76h-264l-160 -779l66 -14l170 166l33 -37q-12 -16 -48 -61q-28 -35 -63 -70q-32 -32 -65 -56t-58 -24q-16 0 -36 7q-24 8 -40 18q-19 11 -30 22q-13 13 -11 23l160 803z" />
<glyph unicode="u" horiz-adv-x="1054" d="M66 729q22 32 46 62q28 35 62 69q27 27 65 56q31 24 56 24q17 0 37 -7q21 -7 39 -18t31 -22q14 -12 14 -23q0 -24 -10 -64q-10 -39 -27 -97q-2 -6 -15 -50.5t-21 -70.5q-36 -122 -40 -135q-54 -184 -59 -203q-25 -87 -25 -109q0 -38 36 -68t73 -30q22 0 72 64 q58 74 115 164q67 106 135 226q76 135 136 246l37 172l109 -10l-74 -301l-121 -541l66 -14l166 166l32 -37q-17 -25 -46 -61q-32 -40 -62 -70q-27 -27 -65 -56q-32 -24 -56 -24q-16 0 -37 7t-43 18q-20 10 -35 22q-14 11 -14 23q0 15 35 158q12 50 44 182t50 207h-20 q-42 -83 -95 -173t-100 -163q-46 -71 -90 -133q-35 -49 -64 -86q-11 -15 -43 -39q-31 -23 -77 -23q-67 0 -111 43q-45 43 -45 107q0 14 8 54q7 36 23 88q5 18 15 54.5t15 52.5q29 101 31 107q11 38 32.5 109t31.5 105q4 13 47 157l-66 14l-166 -166z" />
<glyph unicode="v" horiz-adv-x="854" d="M8 715q17 28 43 64q27 37 59 74q28 32 62 61q31 26 55 26q17 0 37 -10q16 -8 41 -24q21 -13 34 -28q13 -14 13 -28l6 -774h11l245 399q66 106 98 178q31 68 31 112v5q-1 49 -33 70q-30 20 -73 28q18 31 35 51q18 21 63 21t78 -33t35 -86v-8q0 -25 -10 -57 q-11 -36 -41 -96q-24 -47 -77 -134q-24 -38 -118 -182l-242 -362l-81 -13l-15 860l-61 13l-160 -162z" />
<glyph unicode="w" horiz-adv-x="1343" d="M8 715q17 28 43 64q27 37 59 74q28 32 62 61q31 26 55 26q17 0 37 -10q16 -8 41 -24q21 -13 34 -28q13 -14 13 -28l4 -774h11l364 725l-4 114l49 -4l49 -4l33 -831h14l218 399q60 107 85 177q25 69 25 110v6q-1 48 -34 70q-30 20 -72 28q18 32 34 50q19 22 64 22 q44 0 77 -31q31 -30 36 -84q1 -6 1 -14q0 -21 -8 -51q-12 -46 -36 -96q-33 -70 -70 -136q-42 -76 -109 -182l-217 -362l-86 -13l-37 717h-6l-370 -704l-86 -13l-17 860l-61 13l-160 -162z" />
<glyph unicode="x" horiz-adv-x="942" d="M-29 59q0 44 23 72q23 27 55 27q38 0 56 -29q15 -23 15 -53q0 -8 -1 -17h55l256 412l-121 381h-49l-139 -162l-33 37q27 36 44 61q21 31 53 70q21 26 55 56q27 24 51 24q11 0 28 -6q16 -6 32 -17q20 -14 28 -22q12 -12 14 -25l103 -374h4q76 147 112 213q43 80 85 138 q38 53 71 74t70 21q55 0 87 -29q31 -29 33 -69v-7q0 -41 -21 -64q-25 -28 -56 -28q-71 0 -71 70q0 9 1 18h-55l-234 -378l125 -404h49l140 162l30 -37q-27 -36 -43 -61q-19 -30 -52 -70q-24 -29 -54 -56q-27 -24 -51 -24q-12 0 -27 7q-18 8 -32 18q-17 12 -27 22 q-12 13 -17 23l-104 387h-6q-64 -125 -117 -217q-50 -86 -92 -141q-39 -50 -77 -74q-37 -23 -71 -23q-53 0 -89 27t-36 67z" />
<glyph unicode="y" d="M-240 -410q0 36 22 61q20 23 54 23q38 0 62 -30q17 -22 17 -50q0 -12 -3 -26l106 -23q4 1 20 22q22 29 37 50q19 27 47 70q5 8 23.5 36t28.5 44q62 95 135 213l-37 10l-8 839l-61 13l-160 -162l-35 35q17 28 43 64q27 37 59 74q28 32 62 61q31 26 55 26q17 0 37 -10 q16 -8 41 -24q21 -13 34 -28q13 -14 13 -28v-774h17l370 620l25 68q-35 5 -63 24q-31 21 -31 66q0 34 24 60t60 26q46 0 76 -30t30 -76q0 -56 -26 -107q-28 -54 -74 -127l-311 -491l-117 -179q-62 -125 -119 -223q-51 -89 -97 -139q-46 -51 -93 -72q-44 -20 -107 -20 t-109 31q-47 32 -47 83z" />
<glyph unicode="z" horiz-adv-x="759" d="M-43 41q0 46 35 92q35 45 80 74l530 506q-57 32 -106 57q-56 29 -106 53q-33 16 -89 44q-46 23 -61 28l-37 -53q37 -50 37 -82q0 -29 -20 -47q-21 -19 -48 -19q-36 0 -56 21q-20 22 -20 47q0 29 16 61q16 31 43 57q27 25 65 42q38 16 81 18q58 0 112 -23q52 -22 95 -55 q49 -37 74 -66q29 -33 45 -59l14 4l70 199q45 -8 66 -21q22 -14 22 -42q0 -41 -35 -85q-36 -46 -78 -73l-526 -496q132 -75 242 -143q94 -59 135 -70l45 60q-27 27 -40 50q-12 21 -12 38q0 25 21 43t55 18q32 0 50 -19q18 -20 18 -48q0 -32 -15 -62q-17 -33 -38 -56 q-24 -26 -59 -44q-36 -19 -75 -23q-53 0 -110 27q-64 30 -107 63q-48 36 -86 76q-35 36 -53 66l-12 -9l-72 -223q-90 18 -90 74z" />
<glyph unicode="{" horiz-adv-x="667" d="M78 446l20 50q46 1 99 11q48 9 87 29q36 19 61 50q24 30 24 76q0 51 -19 97t-42 89q-23 44 -42 95q-18 50 -18 116q0 135 90 212q91 77 272 89v-55q-121 -12 -187 -70q-65 -57 -65 -129q0 -51 19 -97t42 -89t42 -97q18 -51 18 -116q0 -53 -24 -96q-23 -41 -64 -76 q-42 -36 -85 -55q-45 -20 -89 -25v-21q42 -6 89 -27q43 -19 85 -55q41 -35 64 -76q24 -43 24 -94q0 -64 -18 -113q-20 -54 -42 -96q-23 -43 -42 -89t-19 -95q0 -72 65 -132q66 -61 187 -73v-51q-183 10 -272 88q-90 78 -90 213q0 66 18 116q19 52 42 94q22 41 42 88 q19 46 19 97q0 45 -24 75t-61 49q-38 19 -87 30t-99 12z" />
<glyph unicode="|" horiz-adv-x="569" d="M244 -377v1780h82v-1780h-82z" />
<glyph unicode="}" horiz-adv-x="667" d="M57 -416q122 12 188 73q64 60 64 132q0 51 -18 95q-19 46 -42 89q-22 42 -42 96q-19 52 -19 113q0 49 25 94q23 43 63 76q42 36 85 55q47 21 90 27v21q-45 5 -90 25q-43 19 -85 55q-40 33 -63 76q-25 45 -25 96q0 62 19 116t42 97t42 89q18 43 18 97q0 72 -64 129 q-66 58 -188 70v55q182 -12 273 -89q90 -77 90 -212q0 -64 -19 -116q-19 -51 -42 -95q-23 -43 -42 -89q-18 -43 -18 -97q0 -46 24 -76q25 -31 61 -50q39 -20 87 -29q53 -10 98 -11l21 -50l-21 -51q-48 -1 -98 -12q-49 -11 -87 -30q-37 -19 -61 -49t-24 -75q0 -53 18 -97 q20 -48 42 -88q23 -42 42 -94t19 -116q0 -135 -90 -213q-89 -77 -273 -88v51z" />
<glyph unicode="~" horiz-adv-x="819" d="M72 350q66 213 207 213q40 0 77 -22q29 -17 70 -51q4 -3 27 -22t34 -28q28 -22 52 -22q18 0 36 5q17 5 34 19q18 15 34 41q15 25 37 70h57q-66 -213 -207 -213q-40 0 -77 22q-32 19 -69 51q-39 33 -60 50q-28 22 -54 22q-18 0 -38 -5q-17 -4 -33 -19q-18 -16 -33 -41 q-18 -30 -39 -70h-55z" />
<glyph unicode="&#xa1;" horiz-adv-x="561" d="M146 -13q-3 16 1 31l166 850q2 7 10 10t14 3q7 0 13 -3t6 -10l-57 -850q-1 -14 -8 -31q-6 -16 -29 -16h-90q-23 0 -26 16zM274 1206q0 41 29 72t76 31q46 0 74 -31q26 -29 28 -72q2 -39 -26 -67q-29 -29 -76 -29t-76 30q-29 31 -29 66z" />
<glyph unicode="&#xa2;" horiz-adv-x="712" d="M63 283q0 137 40 254q41 119 106 208q67 92 148 143q82 52 169 52q11 0 19 -2l100 365h64l-103 -371q54 -11 92 -40q39 -30 39 -81q0 -39 -18 -61q-18 -23 -57 -23q-29 0 -44 14q-17 15 -24 35q-8 21 -9 44q-1 17 1 42l-228 -819q26 0 55 14q36 17 66 38q45 31 70 52 q29 24 61 56l33 -37q-29 -33 -66 -66q-36 -32 -80 -60t-83 -47q-40 -19 -76 -24l-84 -307h-64l86 309q-92 18 -152 104q-61 87 -61 208zM164 311q0 -112 41 -174q40 -60 94 -82l227 815q-22 7 -39 11q-19 4 -41 4q-10 0 -39 -19q-30 -20 -49 -39q-31 -31 -66 -89 q-34 -57 -63 -126q-30 -72 -47 -147q-18 -78 -18 -154z" />
<glyph unicode="&#xa3;" horiz-adv-x="874" d="M-63 8q85 18 142 51q55 32 92 81q36 48 54 111q19 68 29 138q2 12 4.5 37t3.5 31q2 14 4.5 40t3.5 38h-182l6 71h182q2 26 6.5 74.5t6.5 71.5q2 24 5 65.5t5 59.5q10 86 41 165q30 76 83 132q50 53 123 84q70 30 156 30q47 0 86 -10q41 -11 73 -29t50 -45q19 -29 19 -57 q0 -32 -20 -60q-19 -26 -60 -26q-22 0 -39 10q-19 11 -30 28q-12 17 -13 41q-2 25 10 48q-19 14 -52 27q-30 12 -69 12q-91 0 -160 -78q-68 -77 -89 -260q-10 -109 -12 -135q-2 -38 -11 -148h346l2 -71h-354q-1 -13 -4 -41t-5 -41q-2 -17 -14 -80q-16 -80 -38 -136 q-26 -64 -56 -100v-6q44 -17 68 -26q21 -8 89 -29q42 -13 98 -25q47 -10 95 -10q42 0 64 9t37 24q24 25 44 59q19 35 36 78l38 -16q-8 -51 -24 -94q-16 -42 -45 -77q-28 -34 -71 -54q-41 -19 -101 -19q-59 0 -113 20q-59 22 -107 45t-86 47q-36 23 -48 27q-32 -37 -103 -79 q-64 -39 -188 -60z" />
<glyph unicode="&#xa4;" horiz-adv-x="1015" d="M41 428l4 72h109v2q2 17 4 50t4 49q5 59 14 97h-135l6 72h148q30 107 79 195t124 160q73 70 167 110q96 41 207 41q38 0 83 -7q47 -7 92 -26q44 -18 75 -49t31 -78q0 -30 -22 -55t-54 -25q-25 0 -44 14t-27 33q-10 22 -11 45q-2 30 2 50q-27 21 -76 29q-43 7 -82 7 q-95 0 -164 -39t-125 -104q-57 -66 -91 -142q-34 -74 -56 -159h440l7 -72h-463q-11 -50 -15 -98q-4 -44 -4 -98v-2h473l9 -72h-476q6 -64 29 -132q23 -67 62 -121t94 -88t127 -34q110 0 192 51q84 52 146 127l39 -28q-68 -103 -172 -169q-103 -65 -232 -65q-98 0 -169 40 q-73 41 -122 105q-51 66 -77 146q-27 82 -33 168h-117z" />
<glyph unicode="&#xa5;" horiz-adv-x="1251" d="M131 1280h418l-6 -63l-146 -13q-7 0 -12 -6t0 -12l266 -549h11l389 551q4 4 1 9t-8 5l-147 15l-6 63h426l-6 -63l-137 -15q-15 -2 -23 -14l-418 -559h359l6 -72h-408l-26 -199h426l8 -71h-443l-26 -195q-1 -12 8 -12l178 -17l6 -63h-497l6 63l182 17q10 0 12 12l27 195 h-397l4 71h401l27 199h-432l6 72h397l-272 557q-6 11 -23 16l-125 15z" />
<glyph unicode="&#xa7;" horiz-adv-x="923" d="M113 14q0 35 21 56q20 20 56 20q22 0 39 -12q14 -10 28 -31q11 -16 16 -40q5 -21 3 -40q22 -11 59 -19q32 -7 62 -7q66 0 108 49t42 114q0 85 -62 145q-64 62 -149 120q-37 25 -85 62q-39 31 -71 67q-32 37 -49 75q-18 41 -18 91q0 52 18 92q17 37 49 73q31 35 71 58 q45 26 83 41q-19 46 -19 92q0 59 24 110q26 55 62 90q39 37 93 59q52 21 110 21q34 0 72 -7q44 -8 78 -23q37 -16 62 -43q26 -28 26 -66q0 -34 -21 -55t-55 -21q-20 0 -40 13q-16 11 -29 30q-11 16 -16 40q-5 21 -3 40q-25 12 -55 20q-28 7 -60 7q-68 0 -112 -47 q-43 -46 -43 -115q0 -44 16 -79q17 -36 46 -67q33 -35 69 -61q60 -44 82 -59q26 -18 85 -61q43 -32 70 -63q31 -36 48 -74q18 -41 18 -93q0 -49 -19 -93q-17 -39 -49 -76q-29 -33 -71 -58q-51 -30 -82 -43q18 -44 18 -92q0 -60 -24 -111q-24 -52 -62 -88q-38 -37 -91 -58 q-55 -22 -112 -22q-33 0 -71 7q-41 8 -78 24q-38 17 -63 43t-25 65zM209 713q0 -61 37 -113q38 -54 129 -119q70 -48 126 -91q62 -47 101 -107q58 30 99 71q44 44 44 111q0 43 -15 77q-14 31 -40 61q-25 28 -52 49q-36 28 -52 40q-20 14 -51.5 37t-35.5 26q-45 33 -66 51 q-31 28 -46 45q-18 21 -33 42q-53 -26 -100 -71q-45 -44 -45 -109z" />
<glyph unicode="&#xa8;" horiz-adv-x="819" d="M205 1174q0 40 23 69q25 31 69 31q45 0 70 -31q24 -30 24 -69q0 -40 -24 -71q-24 -32 -70 -32q-45 0 -69 32q-23 30 -23 71zM610 1174q0 38 26 69t71 31q42 0 67 -31t25 -69t-25 -71q-24 -32 -67 -32q-45 0 -71 32t-26 71z" />
<glyph unicode="&#xa9;" horiz-adv-x="1503" d="M82 639q0 141 52 261q53 123 143 213q91 91 213 144q125 54 262 54q136 0 261 -54q121 -53 213 -144q90 -90 143 -213q52 -120 52 -261t-52 -261q-53 -123 -143 -213t-213 -143t-261 -53q-139 0 -262 53t-213 143t-143 213q-52 120 -52 261zM147 639q0 -121 48 -236 q45 -108 129 -192t192 -129q112 -47 236 -47q123 0 235 47q110 46 193 129q84 84 129 192q47 112 47 236t-47 236q-45 108 -129 192q-82 82 -193 130t-235 48q-125 0 -236 -48q-109 -47 -192 -130q-84 -84 -129 -192q-48 -115 -48 -236zM381 623q0 89 30 164q30 76 82 129 q54 56 124 85q74 31 159 31q48 0 93 -5q31 -3 75 -13l90 18v-246h-49l-31 160q-22 10 -66 24q-42 13 -120 13q-64 0 -122 -26t-97 -71q-42 -48 -64 -110t-22 -139q0 -152 83 -247t230 -95q55 0 95 10q42 11 67 23l51 157h51l-30 -225l-49 12q-33 -10 -90 -18q-58 -8 -101 -8 q-82 0 -154 27q-69 26 -123 77q-51 48 -82 119q-30 69 -30 154z" />
<glyph unicode="&#xaa;" horiz-adv-x="704" d="M98 809q0 43 13 108q13 63 34 117q23 57 53 109q31 53 66 88q30 30 72 53q45 25 78 25q31 0 59 -17q25 -15 47 -39q18 -19 35 -45q18 -27 23 -37h12l33 136h61l-72 -299l-77 -340l38 -11l144 121l20 -26q-20 -24 -41 -45q-36 -36 -55 -52q-30 -26 -55 -42 q-26 -17 -45 -17q-23 0 -49 17q-27 18 -27 34q0 13 30 118q3 12 32.5 114.5t50.5 175.5h-15q-32 -67 -68 -134q-37 -70 -91 -151q-48 -72 -96 -123t-87 -51q-32 0 -56 18q-22 16 -38 49q-15 29 -22 68q-7 36 -7 78zM172 827q0 -81 16 -125q16 -45 50 -45q24 0 57 34 q36 37 71 91q34 52 79 132t83 155l15 47q-7 17 -25 40q-15 19 -38 42q-19 19 -46 34q-23 13 -51 13q-39 0 -80 -41q-26 -26 -51 -74q-23 -45 -42 -100q-17 -48 -28 -107q-10 -51 -10 -96z" />
<glyph unicode="&#xab;" horiz-adv-x="983" d="M35 416l8 73l485 302l13 -46l-351 -296l273 -297l-25 -37zM414 416l8 73l477 322l14 -45l-364 -317l280 -318l-24 -37z" />
<glyph unicode="&#xac;" horiz-adv-x="964" d="M51 258q0 66 17 149q15 75 47 159q29 77 71 150q40 70 90 120q39 39 101 73q60 33 104 33q48 0 83 -22t64 -54q28 -31 47 -62q17 -28 32 -50h18l45 186h82l-96 -410l-109 -467l66 -14l166 166l32 -37q-17 -25 -46 -61q-32 -40 -62 -70q-27 -27 -65 -56q-32 -24 -56 -24 q-16 0 -37 7t-43 18q-20 10 -35 22q-14 11 -14 23q0 9 10 48q3 11 27 101q16 62 39 141q27 95 49 165h-21q-4 -6 -46 -73q-7 -10 -29.5 -47.5t-36.5 -59.5q-35 -54 -79 -119q-47 -69 -85 -112q-46 -53 -84 -82q-41 -32 -78 -32q-44 0 -77 25q-30 23 -52 65q-21 40 -30 94 q-9 53 -9 107zM152 283q0 -112 22 -172q23 -62 68 -62q35 0 80 47q39 41 101 125q48 66 122 180q20 31 65.5 102.5t71.5 110.5l18 64q-35 40 -50 55q-41 41 -64 59q-36 28 -73 46t-73 18q-29 0 -56 -15t-54 -42q-36 -36 -70 -101q-30 -57 -56 -137q-21 -65 -38 -147 q-14 -69 -14 -131z" />
<glyph unicode="&#xad;" horiz-adv-x="671" d="M14 434l6 92h512l7 -92h-525z" />
<glyph unicode="&#xae;" horiz-adv-x="1503" d="M82 639q0 141 52 261q52 122 144 213q92 92 212 144q125 54 262 54q136 0 261 -54q121 -53 213 -144q90 -90 143 -213q52 -120 52 -261t-52 -261q-53 -123 -143 -213t-213 -143t-261 -53q-139 0 -262 53q-122 52 -212 143q-92 91 -144 213q-52 120 -52 261zM147 639 q0 -121 48 -236q45 -108 129 -192t192 -129q112 -47 236 -47q123 0 235 47q110 46 193 129q84 84 129 192q47 112 47 236q0 123 -47 235q-46 110 -129 193q-82 82 -193 130t-235 48q-125 0 -236 -48q-109 -47 -192 -130t-129 -193q-48 -115 -48 -235zM428 274l6 50l117 10 q6 0 6 10v602q0 10 -6 10l-117 11l-6 49h350q130 0 194 -55t64 -134q0 -84 -52 -139q-52 -56 -138 -84l178 -264q8 -8 12 -8l88 -8l6 -50h-159l-51 84l-148 230l-137 4v-248q0 -10 6 -10l135 -10l4 -50h-352zM635 645l135 -12q71 10 127 54q55 43 55 122q0 81 -54 121 q-55 41 -165 37l-98 -4v-318z" />
<glyph unicode="&#xaf;" horiz-adv-x="819" d="M262 1098l4 78h469l8 -78h-481z" />
<glyph unicode="&#xb0;" horiz-adv-x="843" d="M176 946q0 78 30 147q28 65 80 120q49 52 118 82t145 30q70 0 126 -20q59 -21 102 -60q46 -41 70 -95q25 -56 25 -126q0 -83 -29 -150t-80 -121q-48 -51 -119 -82q-69 -30 -148 -30q-63 0 -124 22q-59 21 -102 61t-68 96q-26 58 -26 126zM250 950q0 -56 19 -101 q18 -44 55 -79q33 -32 80 -50q46 -18 100 -18q62 0 114 24q54 25 93 65q38 40 61 96q23 57 23 117q0 111 -71 184q-70 72 -183 72q-61 0 -115 -26q-53 -26 -92 -69q-41 -46 -62 -99q-22 -56 -22 -116z" />
<glyph unicode="&#xb1;" horiz-adv-x="1503" d="M82 639q0 141 52 261q52 122 144 213q92 92 212 144q125 54 262 54q136 0 261 -54q121 -53 213 -144q90 -90 143 -213q52 -120 52 -261t-52 -261q-53 -123 -143 -213t-213 -143t-261 -53q-139 0 -262 53q-122 52 -212 143q-92 91 -144 213q-52 120 -52 261zM147 639 q0 -121 48 -236q45 -108 129 -192t192 -129q112 -47 236 -47q123 0 235 47q110 46 193 129q84 84 129 192q47 112 47 236q0 123 -47 235q-46 110 -129 193q-82 82 -193 130t-235 48q-125 0 -236 -48q-109 -47 -192 -130t-129 -193q-48 -115 -48 -235zM469 274l6 50l117 10 q6 0 6 10v602q0 10 -6 10l-117 11l-6 49h291q156 0 228 -63q73 -64 73 -154q0 -48 -22 -94q-21 -44 -60 -74t-90 -48t-111 -18q-35 0 -53 1q-24 1 -49 3v-225q0 -10 6 -10l135 -10l4 -50h-352zM676 623q27 -7 50 -11q24 -4 56 -4q97 0 147 47t50 131q0 92 -59 138 q-61 47 -175 43h-34q-7 0 -35 -2v-342z" />
<glyph unicode="&#xb4;" horiz-adv-x="817" d="M375 1034l256 363h164l-373 -363h-47z" />
<glyph unicode="&#xb5;" horiz-adv-x="837" d="M-106 -246q0 43 21 82q20 38 56 72q32 30 79 58q43 25 89 42v8q-36 21 -62 58q-24 34 -24 78q0 30 14 55q15 26 34 44t50 35q27 15 54 27v6q-41 35 -71 92t-30 140q0 71 29 141t81 125q51 54 123 89q69 34 157 34q67 0 118 -11q68 -15 103 -26h217l-35 -96l-279 45v-12 q48 -45 81 -97q32 -50 32 -118q0 -71 -32 -138q-30 -62 -82 -116q-50 -51 -112 -81q-63 -30 -124 -30q-32 0 -72 8q-33 7 -65 25q-109 -45 -109 -119q0 -49 44 -81q42 -30 149 -64l118 -37q130 -41 199 -95q70 -55 70 -137q0 -55 -34 -104q-35 -50 -94 -84q-58 -33 -145 -55 q-84 -21 -186 -21q-67 0 -133 18q-69 19 -117 50q-53 34 -82 81q-30 48 -30 109zM-18 -233q0 -52 23 -88q24 -38 67 -63t102 -40q56 -14 129 -14q75 0 130 14q59 15 102 39q40 22 66 56q24 32 24 67q0 61 -46 97q-49 38 -122 65q-50 19 -123 40q-71 21 -139 46 q-33 -15 -75 -38q-41 -23 -69 -48q-32 -28 -50 -61q-19 -34 -19 -72zM199 555q0 -62 15 -113t56 -92q8 -8 33 -23q23 -14 49 -14q47 0 98 19q48 18 87 57q53 53 80 130q28 79 28 161q0 42 -24 76q-23 33 -61 60t-76 41q-41 15 -70 15q-56 0 -115 -59q-41 -41 -71 -113 q-29 -70 -29 -145z" />
<glyph unicode="&#xb6;" horiz-adv-x="980" d="M139 868q0 104 41 183q41 78 110 128t157 75q90 26 186 26h295l-176 -1346h-82l86 658q-50 -15 -102 -24t-105 -9q-77 0 -149 15q-70 15 -131 52q-59 36 -94 95q-36 60 -36 147z" />
<glyph unicode="&#xb7;" horiz-adv-x="436" d="M66 463q1 39 28 68q27 30 74 30t76 -30q28 -29 26 -68q-2 -41 -29 -72q-28 -31 -75 -31q-48 0 -75 32q-27 31 -25 71z" />
<glyph unicode="&#xb8;" horiz-adv-x="819" d="M98 -498q175 27 260 77q84 49 84 130q0 43 -39 72q-40 29 -120 29q-8 0 -26 -1.5t-23 -1.5q-27 -1 -54 -6l4 25l213 205h66l-168 -158q101 7 168 -33t67 -119q0 -51 -30 -94q-29 -42 -86 -76q-54 -32 -133 -55q-82 -24 -175 -31z" />
<glyph unicode="&#xba;" horiz-adv-x="641" d="M113 874q0 69 22 144q22 73 65 140q42 65 103 108t137 43q55 0 96 -26q40 -25 65 -65q25 -39 37 -90q11 -45 11 -98q0 -68 -22 -143t-65 -141q-41 -64 -102 -106q-60 -42 -138 -42q-55 0 -96 26q-40 25 -65 65t-37 89q-11 45 -11 96zM186 860q0 -38 8 -80q8 -43 24 -69 q20 -33 45 -51q26 -19 71 -19q41 0 76 23q36 24 62 58q29 38 47 82q21 50 32 93q24 84 24 150q0 43 -7 79q-8 44 -24 70q-19 31 -46 50q-29 20 -70 20q-40 0 -75 -23q-34 -22 -61 -58t-48 -81q-17 -37 -35 -92q-15 -53 -18 -82q-5 -43 -5 -70z" />
<glyph unicode="&#xbb;" horiz-adv-x="983" d="M61 139l363 318l-279 317l23 37l389 -322l-8 -73l-475 -322zM430 160l352 297l-274 297l24 37l404 -302l-8 -73l-486 -301z" />
<glyph unicode="&#xbf;" horiz-adv-x="641" d="M47 270q0 63 20 109t51 77q30 30 76 52q40 19 93 37l73 28q40 16 65 34q27 19 45 48q17 27 17 72q-1 51 -36 99q-34 47 -78 85l67 -4q26 -26 40 -41q22 -24 39 -49q18 -28 30 -58q12 -31 12 -69q0 -55 -22 -95q-22 -39 -59 -70q-37 -30 -82 -51q-52 -23 -93 -38 q-9 -4 -35 -13t-40 -15q-36 -15 -63 -33q-29 -19 -43 -42q-15 -24 -15 -54q0 -35 22 -69q20 -31 64 -60q42 -28 100 -44t135 -16q31 0 45 1q21 1 33 3q4 -11 4 -31q0 -46 -36 -70t-89 -24q-79 0 -142 27q-65 28 -107 70q-43 43 -67 96q-24 52 -24 108zM381 1204q0 42 27 72 q28 31 73 31q47 0 78 -31t29 -72q-1 -35 -31 -66q-29 -30 -76 -30q-46 0 -73 29t-27 67z" />
<glyph unicode="&#xc0;" horiz-adv-x="1118" d="M-106 0l6 63l139 15q10 0 16 14l512 1131v41l150 41l233 -1211q1 -2 2.5 -5.5t1.5 -4.5q1 -4 13 -6l139 -15l6 -63h-450l6 63l157 13q8 0 12 4t3 10l-72 379h-459l-166 -373q-6 -14 4 -14l156 -19l6 -63h-415zM344 547h410l-119 633h-10zM422 1769h164l157 -362h-47z" />
<glyph unicode="&#xc1;" horiz-adv-x="1118" d="M-106 0l6 63l139 15q10 0 16 14l512 1131v41l150 41l233 -1211q1 -2 2.5 -5.5t1.5 -4.5q1 -4 13 -6l139 -15l6 -63h-450l6 63l157 13q8 0 12 4t3 10l-72 379h-459l-166 -373q-6 -14 4 -14l156 -19l6 -63h-415zM344 547h410l-119 633h-10zM629 1407l256 362h164l-373 -362 h-47z" />
<glyph unicode="&#xc2;" horiz-adv-x="1118" d="M-106 0l6 63l139 15q10 0 16 14l512 1131v41l150 41l233 -1211q1 -2 2.5 -5.5t1.5 -4.5q1 -4 13 -6l139 -15l6 -63h-450l6 63l157 13q8 0 12 4t3 10l-72 379h-459l-166 -373q-6 -14 4 -14l156 -19l6 -63h-415zM344 547h410l-119 633h-10zM352 1407l246 362h168l147 -362 h-39q-80 119 -98 145q-24 36 -36 53q-5 7 -30 46q-6 9 -23 32l-9 13h-4l-275 -289h-47z" />
<glyph unicode="&#xc3;" horiz-adv-x="1118" d="M-106 0l6 63l139 15q10 0 16 14l512 1131v41l150 41l233 -1211q1 -2 2.5 -5.5t1.5 -4.5q1 -4 13 -6l139 -15l6 -63h-450l6 63l157 13q8 0 12 4t3 10l-72 379h-459l-166 -373q-6 -14 4 -14l156 -19l6 -63h-415zM330 1448q66 213 207 213q39 0 77 -23q33 -20 70 -50 q4 -3 27 -22t34 -28q28 -22 52 -22q19 0 37 5q15 4 33 19t34 41q15 25 37 70h57q-66 -213 -207 -213q-40 0 -77 22q-36 21 -69 50q-54 46 -60 51q-28 22 -54 22q-18 0 -38 -5q-17 -4 -33 -19q-18 -16 -33 -41q-18 -30 -39 -70h-55zM344 547h410l-119 633h-10z" />
<glyph unicode="&#xc4;" horiz-adv-x="1118" d="M-106 0l6 63l139 15q10 0 16 14l512 1131v41l150 41l233 -1211q1 -2 2.5 -5.5t1.5 -4.5q1 -4 13 -6l139 -15l6 -63h-450l6 63l157 13q8 0 12 4t3 10l-72 379h-459l-166 -373q-6 -14 4 -14l156 -19l6 -63h-415zM344 547h410l-119 633h-10zM354 1546q0 40 24 70 q25 31 68 31q45 0 70 -31t25 -70q0 -37 -25 -70q-24 -32 -70 -32q-44 0 -68 32t-24 70zM760 1546q0 41 25 70q26 31 71 31q43 0 68 -31q24 -30 24 -70q0 -38 -24 -70t-68 -32q-45 0 -71 32q-25 31 -25 70z" />
<glyph unicode="&#xc5;" horiz-adv-x="1118" d="M-106 0l6 63l139 15q10 0 16 14l523 1157q-46 23 -70 67q-25 45 -25 97q0 76 48 130t135 54q86 0 135 -54q49 -53 47 -130q-1 -56 -33 -107q-31 -49 -86 -67l221 -1145q1 -2 2.5 -5.5t1.5 -4.5q1 -4 13 -6l139 -15l6 -63h-450l6 63l157 13q8 0 12 4t3 10l-72 379h-459 l-166 -373q-6 -14 4 -14l156 -19l6 -63h-415zM344 547h410l-119 633h-10zM543 1413q-2 -55 31 -93q34 -40 94 -40t90 40t30 93t-31 93t-91 40q-61 0 -91 -40q-31 -41 -32 -93z" />
<glyph unicode="&#xc6;" horiz-adv-x="1662" d="M-166 0l6 63l144 15q5 0 12 7q8 7 12 15l740 1088q7 12 -7 12l-161 17l2 63h1056l-45 -346h-63l-8 223q0 17 -11 30q-10 11 -53 17q-48 7 -133 8q-120 2 -252 2h-94l-70 -526h131q92 0 120 1q48 2 64 4q20 3 27 8q6 5 11 16l61 135h49l-90 -395h-49l6 133q0 10 -3 16 t-23 9q-32 5 -62 6q-58 2 -121 2h-129l-74 -557h47q151 0 287 2q99 1 153 8q50 6 64 17q15 12 21 30l82 219h73l-81 -342h-936l14 63l162 17q9 0 10 12l49 377h-428l-119 -178l-129 -195q-4 -4 -2 -9t6 -5l144 -19l6 -63h-416zM397 547h385l86 655h-28z" />
<glyph unicode="&#xc7;" horiz-adv-x="1228" d="M102 506q0 165 58 325q57 158 172 273q94 94 218 149q126 56 275 56q55 0 129 -9q62 -8 123 -24l144 35l-54 -404h-65l-10 275q-65 28 -137 45q-68 16 -138 16q-142 0 -252 -64q-111 -64 -187 -169q-79 -108 -118 -235q-41 -132 -41 -259q0 -115 33 -208t98 -158 q53 -53 130 -83q76 -30 177 -30q74 0 138 16q69 17 129 43l114 269h70l-102 -369l-68 22q-48 -12 -144 -32q-72 -15 -147 -15h-20q-7 0 -21 2l-106 -100q100 7 168 -33q67 -40 67 -119q0 -51 -30 -94q-28 -41 -87 -76q-54 -32 -133 -55q-83 -24 -174 -31l-8 37 q175 27 260 77q84 49 84 130q0 43 -39 72q-40 29 -121 29q-8 0 -25.5 -1.5t-22.5 -1.5q-27 -1 -54 -6l4 25q40 36 80 76q10 10 27.5 27t25.5 25q25 25 25 26q-101 12 -183 54q-86 44 -141 109q-58 68 -89 159q-32 93 -32 204z" />
<glyph unicode="&#xc8;" horiz-adv-x="1155" d="M37 0l6 63l160 17q11 0 12 12l143 1096q2 12 -8 12l-155 17l-7 63h942l-45 -346h-63l-8 223q0 19 -10 30t-54 17q-48 7 -133 8q-120 2 -252 2h-94l-70 -526h131q92 0 120 1q48 2 64 4q20 3 27 8q6 5 11 16l61 135h49l-90 -395h-49l6 133q0 10 -3 16t-22 9q-32 5 -63 6 q-58 2 -121 2h-129l-74 -557h48q150 0 286 2q99 1 153 8q50 6 64 17q15 12 21 30l82 219h74l-82 -342h-928zM440 1769h164l158 -362h-47z" />
<glyph unicode="&#xc9;" horiz-adv-x="1155" d="M37 0l6 63l160 17q11 0 12 12l143 1096q2 12 -8 12l-155 17l-7 63h942l-45 -346h-63l-8 223q0 19 -10 30t-54 17q-48 7 -133 8q-120 2 -252 2h-94l-70 -526h131q92 0 120 1q48 2 64 4q20 3 27 8q6 5 11 16l61 135h49l-90 -395h-49l6 133q0 10 -3 16t-22 9q-32 5 -63 6 q-58 2 -121 2h-129l-74 -557h48q150 0 286 2q99 1 153 8q50 6 64 17q15 12 21 30l82 219h74l-82 -342h-928zM545 1407l256 362h164l-373 -362h-47z" />
<glyph unicode="&#xca;" horiz-adv-x="1155" d="M37 0l6 63l160 17q11 0 12 12l143 1096q2 12 -8 12l-155 17l-7 63h942l-45 -346h-63l-8 223q0 19 -10 30t-54 17q-48 7 -133 8q-120 2 -252 2h-94l-70 -526h131q92 0 120 1q48 2 64 4q20 3 27 8q6 5 11 16l61 135h49l-90 -395h-49l6 133q0 10 -3 16t-22 9q-32 5 -63 6 q-58 2 -121 2h-129l-74 -557h48q150 0 286 2q99 1 153 8q50 6 64 17q15 12 21 30l82 219h74l-82 -342h-928zM371 1407l245 362h168l148 -362h-39q-80 119 -98 145q-24 36 -36 53q-16 23 -31 46q-12 19 -22 32l-10 13h-4l-274 -289h-47z" />
<glyph unicode="&#xcb;" horiz-adv-x="1155" d="M37 0l6 63l160 17q11 0 12 12l143 1096q2 12 -8 12l-155 17l-7 63h942l-45 -346h-63l-8 223q0 19 -10 30t-54 17q-48 7 -133 8q-120 2 -252 2h-94l-70 -526h131q92 0 120 1q48 2 64 4q20 3 27 8q6 5 11 16l61 135h49l-90 -395h-49l6 133q0 10 -3 16t-22 9q-32 5 -63 6 q-58 2 -121 2h-129l-74 -557h48q150 0 286 2q99 1 153 8q50 6 64 17q15 12 21 30l82 219h74l-82 -342h-928zM414 1546q0 41 23 70q25 31 69 31t69 -31t25 -70q0 -37 -25 -70q-24 -32 -69 -32t-69 32q-23 30 -23 70zM819 1546q0 39 26 70t70 31q43 0 68 -31t25 -70 q0 -37 -25 -70q-24 -32 -68 -32t-70 32t-26 70z" />
<glyph unicode="&#xcc;" horiz-adv-x="675" d="M55 0l6 63l160 17q11 0 12 12l144 1096q1 12 -8 12l-156 17l-6 63h457l-7 -63l-159 -17q-12 0 -13 -12l-143 -1096q-2 -12 8 -12l156 -17l6 -63h-457zM139 1769h164l158 -362h-47z" />
<glyph unicode="&#xcd;" horiz-adv-x="675" d="M55 0l6 63l160 17q11 0 12 12l144 1096q1 12 -8 12l-156 17l-6 63h457l-7 -63l-159 -17q-12 0 -13 -12l-143 -1096q-2 -12 8 -12l156 -17l6 -63h-457zM408 1407l256 362h163l-372 -362h-47z" />
<glyph unicode="&#xce;" horiz-adv-x="675" d="M55 0l6 63l160 17q11 0 12 12l144 1096q1 12 -8 12l-156 17l-6 63h457l-7 -63l-159 -17q-12 0 -13 -12l-143 -1096q-2 -12 8 -12l156 -17l6 -63h-457zM172 1407l246 362h168l147 -362h-39q-80 119 -98 145q-24 36 -36 53q-16 23 -31 46q-12 19 -22 32l-9 13h-4l-275 -289 h-47z" />
<glyph unicode="&#xcf;" horiz-adv-x="675" d="M55 0l6 63l160 17q11 0 12 12l144 1096q1 12 -8 12l-156 17l-6 63h457l-7 -63l-159 -17q-12 0 -13 -12l-143 -1096q-2 -12 8 -12l156 -17l6 -63h-457zM154 1546q0 41 23 70q25 31 69 31t69 -31t25 -70q0 -37 -25 -70q-24 -32 -69 -32t-69 32q-23 30 -23 70zM559 1546 q0 39 26 70t70 31q43 0 68 -31t25 -70q0 -37 -25 -70q-24 -32 -68 -32t-70 32t-26 70z" />
<glyph unicode="&#xd0;" horiz-adv-x="1288" d="M37 0l6 63l160 17q11 0 12 12l70 531h-197l6 71h199l3 22l8 56q9 66 10 80q1 13 3 28t5 33.5t4 28.5l32 246q2 12 -8 12l-155 17l-7 63h443q129 0 241 -38q109 -37 192 -112q81 -73 126 -182q45 -108 45 -250q0 -139 -50 -265q-48 -121 -145 -218q-57 -57 -127 -98 q-74 -43 -145 -67q-80 -27 -154 -38q-78 -12 -153 -12h-424zM324 88l170 -22q126 6 239 48q114 43 198 119q85 78 135 192q50 115 50 267q0 128 -38 228q-36 96 -105 163q-66 65 -164 100q-95 34 -213 34h-125l-68 -523h279l6 -71h-295z" />
<glyph unicode="&#xd1;" horiz-adv-x="1359" d="M10 0l6 63l187 17q11 0 12 12l141 1082q2 11 -8 12l-158 31l-6 63h322l543 -1118h4l131 1026q2 12 -8 12l-177 17l-6 63h477l-6 -63l-186 -17q-10 0 -12 -12l-158 -1198h-84l-582 1194h-6l-139 -1092q-1 -12 8 -12l176 -17l6 -63h-477zM440 1448q66 213 207 213 q40 0 78 -23q33 -20 70 -50q4 -3 27 -22t34 -28q28 -22 51 -22q19 0 37 5q17 5 34 19q18 15 34 41q15 25 37 70h57q-66 -213 -207 -213q-41 0 -78 22q-32 19 -68 50q-42 36 -61 51q-28 22 -53 22q-18 0 -38 -5q-18 -5 -34 -19t-32 -41q-18 -30 -39 -70h-56z" />
<glyph unicode="&#xd2;" horiz-adv-x="1378" d="M104 573q0 135 44 264q43 126 128 232q85 107 208 174q122 66 272 66q127 0 231 -49q102 -48 179 -133q75 -83 117 -193q42 -111 42 -232q0 -148 -52 -285q-53 -140 -151 -245q-85 -91 -199 -148t-251 -57q-126 0 -230 49q-102 48 -180 132q-76 82 -117 194t-41 231z M231 567q0 -123 39 -232t115 -185q115 -115 301 -115q129 0 225 63q98 64 160 162q64 101 95 217q32 120 32 232q0 120 -36 228t-111 183q-58 58 -133 89q-78 32 -175 32q-129 0 -225 -63q-98 -64 -160 -162q-64 -101 -95 -217q-32 -120 -32 -232zM489 1769h164l158 -362 h-47z" />
<glyph unicode="&#xd3;" horiz-adv-x="1378" d="M104 573q0 135 44 264q43 126 128 232q85 107 208 174q122 66 272 66q127 0 231 -49q102 -48 179 -133q75 -83 117 -193q42 -111 42 -232q0 -148 -52 -285q-53 -140 -151 -245q-85 -91 -199 -148t-251 -57q-126 0 -230 49q-102 48 -180 132q-76 82 -117 194t-41 231z M231 567q0 -123 39 -232t115 -185q115 -115 301 -115q129 0 225 63q98 64 160 162q64 101 95 217q32 120 32 232q0 120 -36 228t-111 183q-58 58 -133 89q-78 32 -175 32q-129 0 -225 -63q-98 -64 -160 -162q-64 -101 -95 -217q-32 -120 -32 -232zM778 1407l256 362h164 l-373 -362h-47z" />
<glyph unicode="&#xd4;" horiz-adv-x="1378" d="M104 573q0 135 44 264q43 126 128 232q85 107 208 174q122 66 272 66q127 0 231 -49q102 -48 179 -133q75 -83 117 -193q42 -111 42 -232q0 -148 -52 -285q-53 -140 -151 -245q-85 -91 -199 -148t-251 -57q-126 0 -230 49q-102 48 -180 132q-76 82 -117 194t-41 231z M231 567q0 -123 39 -232t115 -185q115 -115 301 -115q129 0 225 63q98 64 160 162q64 101 95 217q32 120 32 232q0 120 -36 228t-111 183q-58 58 -133 89q-78 32 -175 32q-129 0 -225 -63q-98 -64 -160 -162q-64 -101 -95 -217q-32 -120 -32 -232zM522 1407l246 362h168 l147 -362h-39q-80 119 -98 145q-24 36 -36 53q-5 7 -30 46q-6 9 -23 32l-9 13h-4l-275 -289h-47z" />
<glyph unicode="&#xd5;" horiz-adv-x="1378" d="M104 573q0 135 44 264q43 126 128 232q85 107 208 174q122 66 272 66q127 0 231 -49q102 -48 179 -133q75 -83 117 -193q42 -111 42 -232q0 -148 -52 -285q-53 -140 -151 -245q-85 -91 -199 -148t-251 -57q-126 0 -230 49q-102 48 -180 132q-76 82 -117 194t-41 231z M231 567q0 -123 39 -232t115 -185q115 -115 301 -115q129 0 225 63q98 64 160 162q64 101 95 217q32 120 32 232q0 120 -36 228t-111 183q-58 58 -133 89q-78 32 -175 32q-129 0 -225 -63q-98 -64 -160 -162q-64 -101 -95 -217q-32 -120 -32 -232zM449 1448q66 213 206 213 q40 0 78 -23q33 -20 70 -50q4 -3 27 -22t34 -28q28 -22 51 -22q19 0 37 5q17 5 34 19q18 15 34 41q15 25 37 70h57q-66 -213 -207 -213q-41 0 -78 22q-32 19 -68 50q-42 36 -61 51q-28 22 -53 22q-18 0 -38 -5q-18 -5 -34 -19t-32 -41q-18 -30 -39 -70h-55z" />
<glyph unicode="&#xd6;" horiz-adv-x="1378" d="M104 573q0 135 44 264q43 126 128 232q85 107 208 174q122 66 272 66q127 0 231 -49q102 -48 179 -133q75 -83 117 -193q42 -111 42 -232q0 -148 -52 -285q-53 -140 -151 -245q-85 -91 -199 -148t-251 -57q-126 0 -230 49q-102 48 -180 132q-76 82 -117 194t-41 231z M231 567q0 -123 39 -232t115 -185q115 -115 301 -115q129 0 225 63q98 64 160 162q64 101 95 217q32 120 32 232q0 120 -36 228t-111 183q-58 58 -133 89q-78 32 -175 32q-129 0 -225 -63q-98 -64 -160 -162q-64 -101 -95 -217q-32 -120 -32 -232zM483 1546q0 40 24 70 q25 31 68 31q45 0 70 -31t25 -70q0 -37 -25 -70q-24 -32 -70 -32q-44 0 -68 32t-24 70zM889 1546q0 41 25 70q26 31 71 31q43 0 68 -31q24 -30 24 -70q0 -38 -24 -70t-68 -32q-45 0 -71 32q-25 31 -25 70z" />
<glyph unicode="&#xd7;" horiz-adv-x="995" d="M80 133l346 346l-346 344l76 76l346 -346l346 348l76 -76l-349 -346l347 -346l-76 -76l-344 346l-346 -346z" />
<glyph unicode="&#xd8;" horiz-adv-x="1378" d="M104 573q0 135 44 264q43 126 128 232q85 107 208 174q122 66 272 66q95 0 179 -29q81 -28 150 -80l150 209h76q-60 -88 -88 -125q-27 -36 -62 -85q-26 -36 -26 -40q91 -86 140 -204q50 -120 50 -253q0 -148 -52 -285q-53 -140 -151 -245q-85 -91 -199 -148t-251 -57 q-92 0 -173 27q-80 27 -147 74q0 2 -24 -33q-9 -12 -27.5 -38t-26.5 -38q-45 -64 -79 -111h-76l184 258q-92 86 -145 208q-54 125 -54 259zM231 567q0 -109 32 -211q31 -99 93 -176l680 953q-54 50 -128 79q-73 29 -165 29q-129 0 -225 -63q-98 -64 -160 -162 q-64 -101 -95 -217q-32 -120 -32 -232zM399 135q53 -47 125 -74q69 -26 162 -26q129 0 225 63q98 64 160 162q64 101 95 217q32 120 32 232q0 106 -29 205q-28 97 -88 173z" />
<glyph unicode="&#xd9;" horiz-adv-x="1445" d="M154 1280h456l-6 -63l-160 -17q-10 0 -12 -12l-92 -707q-3 -17 -7 -51q-3 -29 -3 -59q0 -153 93 -239q92 -85 269 -85q75 0 144 23t120 68q55 49 90 116q36 69 48 164l100 770q2 12 -8 12l-176 17l-6 63h477l-6 -63l-187 -17q-10 0 -12 -12l-102 -778q-15 -110 -59 -194 t-109 -137q-68 -55 -152 -82q-89 -28 -186 -28q-95 0 -181 25q-78 23 -141 73q-59 47 -92 118t-33 165q0 44 4 84q3 30 11 88l88 666q2 12 -9 12l-155 17zM524 1769h164l158 -362h-47z" />
<glyph unicode="&#xda;" horiz-adv-x="1445" d="M154 1280h456l-6 -63l-160 -17q-10 0 -12 -12l-92 -707q-3 -17 -7 -51q-3 -29 -3 -59q0 -153 93 -239q92 -85 269 -85q75 0 144 23t120 68q55 49 90 116q36 69 48 164l100 770q2 12 -8 12l-176 17l-6 63h477l-6 -63l-187 -17q-10 0 -12 -12l-102 -778q-15 -110 -59 -194 t-109 -137q-68 -55 -152 -82q-89 -28 -186 -28q-95 0 -181 25q-78 23 -141 73q-59 47 -92 118t-33 165q0 44 4 84q3 30 11 88l88 666q2 12 -9 12l-155 17zM793 1407l256 362h163l-372 -362h-47z" />
<glyph unicode="&#xdb;" horiz-adv-x="1445" d="M154 1280h456l-6 -63l-160 -17q-10 0 -12 -12l-92 -707q-3 -17 -7 -51q-3 -29 -3 -59q0 -153 93 -239q92 -85 269 -85q75 0 144 23t120 68q55 49 90 116q36 69 48 164l100 770q2 12 -8 12l-176 17l-6 63h477l-6 -63l-187 -17q-10 0 -12 -12l-102 -778q-15 -110 -59 -194 t-109 -137q-68 -55 -152 -82q-89 -28 -186 -28q-95 0 -181 25q-78 23 -141 73q-59 47 -92 118t-33 165q0 44 4 84q3 30 11 88l88 666q2 12 -9 12l-155 17zM547 1407l246 362h168l147 -362h-39q-80 119 -98 145q-24 36 -36 53q-16 23 -31 46q-12 19 -22 32l-10 13h-4 l-274 -289h-47z" />
<glyph unicode="&#xdc;" horiz-adv-x="1445" d="M154 1280h456l-6 -63l-160 -17q-10 0 -12 -12l-92 -707q-3 -17 -7 -51q-3 -29 -3 -59q0 -153 93 -239q92 -85 269 -85q75 0 144 23t120 68q55 49 90 116q36 69 48 164l100 770q2 12 -8 12l-176 17l-6 63h477l-6 -63l-187 -17q-10 0 -12 -12l-102 -778q-15 -110 -59 -194 t-109 -137q-68 -55 -152 -82q-89 -28 -186 -28q-95 0 -181 25q-78 23 -141 73q-59 47 -92 118t-33 165q0 44 4 84q3 30 11 88l88 666q2 12 -9 12l-155 17zM518 1546q0 40 24 70q25 31 68 31q45 0 70 -31t25 -70q0 -37 -25 -70q-24 -32 -70 -32q-44 0 -68 32t-24 70z M924 1546q0 41 25 70q26 31 71 31q42 0 67 -31t25 -70q0 -37 -25 -70q-24 -32 -67 -32q-45 0 -71 32q-25 31 -25 70z" />
<glyph unicode="&#xdd;" horiz-adv-x="1204" d="M92 1280h430l-6 -63l-147 -13q-19 0 -11 -18l275 -574h4l424 576q4 4 2 9t-6 5l-146 15l-6 63h420l-6 -63l-137 -15q-19 -5 -25 -14l-479 -641l-62 -455q-2 -12 11 -12l174 -17l6 -63h-498l6 63l183 17q8 0 10 12l59 451l-321 643q-7 14 -23 16l-125 15zM672 1407 l256 362h164l-373 -362h-47z" />
<glyph unicode="&#xde;" horiz-adv-x="1062" d="M37 0l6 63l160 17q11 0 12 12l143 1096q2 12 -8 12l-155 17l-7 63h457l-6 -63l-160 -17q-11 0 -12 -12l-18 -154h131q104 0 188 -22t147 -68q64 -47 97 -109q35 -65 35 -151q0 -92 -38 -170q-36 -74 -105 -130q-67 -55 -154 -83q-90 -29 -191 -29q-72 0 -117 4 q-48 4 -94 9l-24 -193q-2 -12 8 -12l192 -17l6 -63h-493zM358 354q45 -7 87 -11q55 -5 110 -5q79 0 147 21q66 20 117 64q49 42 78 105q29 64 29 148q0 78 -27 133q-26 54 -74 91q-45 35 -112 53q-66 18 -146 18q-19 0 -63 -2q-33 -1 -66 -6z" />
<glyph unicode="&#xdf;" horiz-adv-x="1073" d="M-242 -406q0 34 21 55t49 21q38 0 62 -28q23 -28 28 -74l141 102q22 47 43 150q21 99 39 215l129 805l-178 6l4 55l189 29q50 274 155 385q39 43 102 70q61 26 111 26q58 0 96 -29q37 -28 37 -69q0 -35 -18 -59q-17 -23 -47 -23q-39 0 -62 27q-21 25 -26 75l-166 -57 q-33 -61 -61 -158q-28 -98 -44 -201l-141 -860q-29 -183 -64 -293q-36 -114 -102 -180q-88 -88 -182 -88q-48 0 -82 31q-33 30 -33 67zM414 98q0 38 21 62t59 24q29 0 49 -20t20 -49q0 -6 -2 -26q-1 -10 -4 -19q46 -20 90 -27q50 -8 109 -12q65 28 95 73t30 107 q0 59 -46 108q-49 52 -124 117q-10 8 -21 18t-24.5 22.5t-20.5 19.5q-29 26 -59 63q-27 34 -42 67q-16 37 -16 70q0 58 28 105q27 45 72 76q44 31 101 47q55 16 117 16q35 0 73 -6q37 -6 70 -21t54 -39q22 -25 22 -63q0 -39 -21 -63q-22 -25 -59 -25q-30 0 -47 20 q-18 21 -18 50q0 16 1 26q1 13 3 25q-46 16 -91 24q-57 10 -92 11q-67 -21 -97 -63t-30 -103q0 -24 9 -53q7 -24 27 -48q22 -27 52 -53l82 -72q72 -63 126 -125q57 -66 57 -139q0 -51 -24 -97q-25 -49 -66 -81q-44 -35 -104 -56q-63 -22 -134 -22q-103 0 -164 36t-61 95z " />
<glyph unicode="&#xe0;" horiz-adv-x="964" d="M51 258q0 66 17 149q15 75 47 159q29 77 71 150q40 70 90 120q39 39 101 73q60 33 104 33q48 0 83 -22t64 -54q28 -31 47 -62q17 -28 32 -50h18l45 186h82l-96 -410l-109 -467l66 -14l166 166l32 -37q-17 -25 -46 -61q-32 -40 -62 -70q-27 -27 -65 -56q-32 -24 -56 -24 q-16 0 -37 7t-43 18q-20 10 -35 22q-14 11 -14 23q0 9 10 48q3 11 27 101q16 62 39 141q27 95 49 165h-21q-4 -6 -46 -73q-7 -10 -29.5 -47.5t-36.5 -59.5q-35 -54 -79 -119q-47 -69 -85 -112q-46 -53 -84 -82q-41 -32 -78 -32q-44 0 -77 25q-30 23 -52 65q-21 40 -30 94 q-9 53 -9 107zM152 283q0 -112 22 -172q23 -62 68 -62q35 0 80 47q39 41 101 125q48 66 122 180q20 31 65.5 102.5t71.5 110.5l18 64q-35 40 -50 55q-41 41 -64 59q-36 28 -73 46t-73 18q-29 0 -56 -15t-54 -42q-36 -36 -70 -101q-30 -57 -56 -137q-21 -65 -38 -147 q-14 -69 -14 -131zM303 1397h164l158 -363h-47z" />
<glyph unicode="&#xe1;" horiz-adv-x="964" d="M51 258q0 66 17 149q15 75 47 159q29 77 71 150q40 70 90 120q39 39 101 73q60 33 104 33q48 0 83 -22t64 -54q28 -31 47 -62q17 -28 32 -50h18l45 186h82l-96 -410l-109 -467l66 -14l166 166l32 -37q-17 -25 -46 -61q-32 -40 -62 -70q-27 -27 -65 -56q-32 -24 -56 -24 q-16 0 -37 7t-43 18q-20 10 -35 22q-14 11 -14 23q0 9 10 48q3 11 27 101q16 62 39 141q27 95 49 165h-21q-4 -6 -46 -73q-7 -10 -29.5 -47.5t-36.5 -59.5q-35 -54 -79 -119q-47 -69 -85 -112q-46 -53 -84 -82q-41 -32 -78 -32q-44 0 -77 25q-30 23 -52 65q-21 40 -30 94 q-9 53 -9 107zM152 283q0 -112 22 -172q23 -62 68 -62q35 0 80 47q39 41 101 125q48 66 122 180q20 31 65.5 102.5t71.5 110.5l18 64q-35 40 -50 55q-41 41 -64 59q-36 28 -73 46t-73 18q-29 0 -56 -15t-54 -42q-36 -36 -70 -101q-30 -57 -56 -137q-21 -65 -38 -147 q-14 -69 -14 -131zM469 1034l256 363h164l-373 -363h-47z" />
<glyph unicode="&#xe2;" horiz-adv-x="964" d="M51 258q0 66 17 149q15 75 47 159q29 77 71 150q40 70 90 120q39 39 101 73q60 33 104 33q48 0 83 -22t64 -54q28 -31 47 -62q17 -28 32 -50h18l45 186h82l-96 -410l-109 -467l66 -14l166 166l32 -37q-17 -25 -46 -61q-32 -40 -62 -70q-27 -27 -65 -56q-32 -24 -56 -24 q-16 0 -37 7t-43 18q-20 10 -35 22q-14 11 -14 23q0 9 10 48q3 11 27 101q16 62 39 141q27 95 49 165h-21q-4 -6 -46 -73q-7 -10 -29.5 -47.5t-36.5 -59.5q-35 -54 -79 -119q-47 -69 -85 -112q-46 -53 -84 -82q-41 -32 -78 -32q-44 0 -77 25q-30 23 -52 65q-21 40 -30 94 q-9 53 -9 107zM152 283q0 -112 22 -172q23 -62 68 -62q35 0 80 47q39 41 101 125q48 66 122 180q20 31 65.5 102.5t71.5 110.5l18 64q-35 40 -50 55q-41 41 -64 59q-36 28 -73 46t-73 18q-29 0 -56 -15t-54 -42q-36 -36 -70 -101q-30 -57 -56 -137q-21 -65 -38 -147 q-14 -69 -14 -131zM274 1034l246 363h168l148 -363h-39q-69 102 -99 146q-29 44 -35 52q-16 23 -31 46q-10 16 -23 33l-9 12h-4l-274 -289h-48z" />
<glyph unicode="&#xe3;" horiz-adv-x="964" d="M51 258q0 66 17 149q15 75 47 159q29 77 71 150q40 70 90 120q39 39 101 73q60 33 104 33q48 0 83 -22t64 -54q28 -31 47 -62q17 -28 32 -50h18l45 186h82l-96 -410l-109 -467l66 -14l166 166l32 -37q-17 -25 -46 -61q-32 -40 -62 -70q-27 -27 -65 -56q-32 -24 -56 -24 q-16 0 -37 7t-43 18q-20 10 -35 22q-14 11 -14 23q0 9 10 48q3 11 27 101q16 62 39 141q27 95 49 165h-21q-4 -6 -46 -73q-7 -10 -29.5 -47.5t-36.5 -59.5q-35 -54 -79 -119q-47 -69 -85 -112q-46 -53 -84 -82q-41 -32 -78 -32q-44 0 -77 25q-30 23 -52 65q-21 40 -30 94 q-9 53 -9 107zM152 283q0 -112 22 -172q23 -62 68 -62q35 0 80 47q39 41 101 125q48 66 122 180q20 31 65.5 102.5t71.5 110.5l18 64q-35 40 -50 55q-41 41 -64 59q-36 28 -73 46t-73 18q-29 0 -56 -15t-54 -42q-36 -36 -70 -101q-30 -57 -56 -137q-21 -65 -38 -147 q-14 -69 -14 -131zM242 1075q66 213 207 213q40 0 77 -22q29 -17 70 -51q4 -3 27 -22t34 -28q28 -22 52 -22q18 0 36 5q17 5 34 19q18 15 34 41q15 25 37 70h57q-66 -213 -207 -213q-40 0 -77 22q-32 19 -69 51q-39 33 -60 50q-28 22 -54 22q-18 0 -38 -5q-17 -4 -33 -19 q-18 -16 -33 -41q-18 -30 -39 -70h-55z" />
<glyph unicode="&#xe4;" horiz-adv-x="964" d="M51 258q0 66 17 149q15 75 47 159q29 77 71 150q40 70 90 120q39 39 101 73q60 33 104 33q48 0 83 -22t64 -54q28 -31 47 -62q17 -28 32 -50h18l45 186h82l-96 -410l-109 -467l66 -14l166 166l32 -37q-17 -25 -46 -61q-32 -40 -62 -70q-27 -27 -65 -56q-32 -24 -56 -24 q-16 0 -37 7t-43 18q-20 10 -35 22q-14 11 -14 23q0 9 10 48q3 11 27 101q16 62 39 141q27 95 49 165h-21q-4 -6 -46 -73q-7 -10 -29.5 -47.5t-36.5 -59.5q-35 -54 -79 -119q-47 -69 -85 -112q-46 -53 -84 -82q-41 -32 -78 -32q-44 0 -77 25q-30 23 -52 65q-21 40 -30 94 q-9 53 -9 107zM152 283q0 -112 22 -172q23 -62 68 -62q35 0 80 47q39 41 101 125q48 66 122 180q20 31 65.5 102.5t71.5 110.5l18 64q-35 40 -50 55q-41 41 -64 59q-36 28 -73 46t-73 18q-29 0 -56 -15t-54 -42q-36 -36 -70 -101q-30 -57 -56 -137q-21 -65 -38 -147 q-14 -69 -14 -131zM276 1174q0 39 24 69q25 31 69 31t69 -31t25 -69t-25 -71q-24 -32 -69 -32t-69 32q-24 31 -24 71zM682 1174q0 38 26 69t70 31q43 0 68 -31q24 -30 24 -69q0 -40 -24 -71q-24 -32 -68 -32t-70 32t-26 71z" />
<glyph unicode="&#xe5;" horiz-adv-x="964" d="M51 258q0 66 17 149q15 75 47 159q29 77 71 150q40 70 90 120q39 39 101 73q60 33 104 33q48 0 83 -22t64 -54q28 -31 47 -62q17 -28 32 -50h18l45 186h82l-96 -410l-109 -467l66 -14l166 166l32 -37q-17 -25 -46 -61q-32 -40 -62 -70q-27 -27 -65 -56q-32 -24 -56 -24 q-16 0 -37 7t-43 18q-20 10 -35 22q-14 11 -14 23q0 9 10 48q3 11 27 101q16 62 39 141q27 95 49 165h-21q-4 -6 -46 -73q-7 -10 -29.5 -47.5t-36.5 -59.5q-35 -54 -79 -119q-47 -69 -85 -112q-46 -53 -84 -82q-41 -32 -78 -32q-44 0 -77 25q-30 23 -52 65q-21 40 -30 94 q-9 53 -9 107zM152 283q0 -112 22 -172q23 -62 68 -62q35 0 80 47q39 41 101 125q48 66 122 180q20 31 65.5 102.5t71.5 110.5l18 64q-35 40 -50 55q-41 41 -64 59q-36 28 -73 46t-73 18q-29 0 -56 -15t-54 -42q-36 -36 -70 -101q-30 -57 -56 -137q-21 -65 -38 -147 q-14 -69 -14 -131zM399 1233q0 76 48 130t135 54q86 0 135 -54q49 -53 47 -130q-1 -75 -49 -130q-47 -54 -133 -54q-87 0 -135 54t-48 130zM459 1233q-2 -55 31 -93q34 -40 94 -40t90 40q31 42 31 93q0 52 -32 93q-31 40 -91 40t-90 -40q-32 -43 -33 -93z" />
<glyph unicode="&#xe6;" horiz-adv-x="1206" d="M51 258q0 66 17 149q15 75 47 159q29 77 71 150q40 70 90 120q39 39 101 73q60 33 104 33q47 0 84 -22q36 -21 66 -55q29 -32 48 -64q16 -26 32 -51q67 87 147 138q82 52 168 52q49 0 84 -14q38 -15 64 -37q24 -20 40 -49q15 -27 15 -52q0 -36 -21 -66q-22 -31 -81 -71 q-60 -41 -171 -105q-55 -32 -290 -171q-2 -22 -2 -32v-32q0 -72 18 -123t47 -83t63 -47t66 -15q25 0 54 14q39 19 67 38q45 31 70 52q29 24 61 56l33 -37q-29 -33 -72 -70q-37 -32 -85 -63q-46 -30 -87 -47q-46 -19 -78 -19q-55 0 -102 24q-50 26 -82 65q-34 42 -54 101 q-20 60 -20 126q0 29 1 43q0 7 1 20.5t2 20.5q-36 -64 -86 -144q-44 -70 -91 -128q-44 -54 -90 -92q-44 -36 -81 -36q-44 0 -77 25q-30 23 -52 65q-21 40 -30 94q-9 53 -9 107zM152 283q0 -112 22 -172q23 -62 68 -62q35 0 80 47q42 44 97 125q44 65 108 180q57 102 114 213 l18 64q-15 29 -34 55q-26 35 -53 59q-35 31 -63 46q-35 18 -69 18q-29 0 -56 -15t-54 -42q-36 -36 -70 -101q-30 -57 -56 -137q-21 -65 -38 -147q-14 -69 -14 -131zM672 440h4q147 88 230 134q96 54 140 83q49 32 67 57q17 23 17 54q0 23 -14 43q-15 21 -38 37 q-22 15 -55 26t-67 11q-19 0 -49 -19q-27 -17 -49 -39q-26 -26 -52 -65q-28 -42 -53 -92q-27 -53 -47 -110q-23 -65 -34 -120z" />
<glyph unicode="&#xe7;" horiz-adv-x="718" d="M45 -498q175 27 260 77q84 49 84 130q0 43 -39 72q-40 29 -121 29q-8 0 -25.5 -1.5t-22.5 -1.5q-27 -1 -54 -6l4 25l150 145q-95 17 -156 102q-62 86 -62 210q0 137 40 254q41 119 106 208q67 92 148 143q82 52 169 52q39 0 74 -7q37 -7 68 -23q29 -15 50 -40 q19 -23 19 -59q0 -40 -20 -63q-22 -25 -60 -25q-29 0 -47 15t-18 44q0 23 14 45q-11 15 -58 36q-50 22 -102 22q-10 0 -39 -19q-30 -20 -49 -39q-31 -31 -66 -89q-34 -57 -63 -126q-30 -72 -47 -147q-18 -78 -18 -154q0 -72 18 -123t47 -83t63 -47t66 -15q26 0 55 14 q36 17 66 38q45 31 70 52q29 24 61 56l33 -37q-39 -41 -65 -64q-38 -33 -78 -60q-43 -29 -81 -47q-42 -20 -75 -26l-102 -96q100 7 168 -33q67 -40 67 -119q0 -49 -31 -94q-29 -42 -86 -76q-54 -32 -133 -55q-83 -24 -174 -31z" />
<glyph unicode="&#xe8;" horiz-adv-x="702" d="M63 283q0 134 41 254q39 115 106 208q66 92 146 143q82 52 164 52q50 0 87 -15q39 -16 64 -39q25 -24 40 -52q14 -27 14 -54q0 -44 -19 -78q-20 -35 -79 -78q-70 -50 -169 -109q-116 -69 -292 -165q0 -5 -0.5 -9.5t-1 -6.5t-0.5 -3v-20q0 -72 18 -123t47 -83t63 -47 t66 -15q26 0 55 14q36 17 66 38q45 31 70 52q29 24 61 56l33 -37q-29 -33 -72 -70q-37 -32 -85 -63q-46 -30 -87 -47q-46 -19 -77 -19q-56 0 -103 24q-50 26 -82 65q-34 42 -54 101q-20 60 -20 126zM172 414l2 -2l2 -2q139 78 214 121q78 45 135 90q52 41 71 71q20 31 20 72 q0 52 -34 86q-35 35 -86 35q-41 0 -82 -25q-39 -24 -68 -53q-20 -20 -46 -61q-29 -46 -50 -92q-25 -55 -45 -113q-21 -62 -33 -127zM233 1397h164l158 -363h-47z" />
<glyph unicode="&#xe9;" horiz-adv-x="702" d="M63 283q0 134 41 254q39 115 106 208q66 92 146 143q82 52 164 52q50 0 87 -15q39 -16 64 -39q25 -24 40 -52q14 -27 14 -54q0 -44 -19 -78q-20 -35 -79 -78q-70 -50 -169 -109q-116 -69 -292 -165q0 -5 -0.5 -9.5t-1 -6.5t-0.5 -3v-20q0 -72 18 -123t47 -83t63 -47 t66 -15q26 0 55 14q36 17 66 38q45 31 70 52q29 24 61 56l33 -37q-29 -33 -72 -70q-37 -32 -85 -63q-46 -30 -87 -47q-46 -19 -77 -19q-56 0 -103 24q-50 26 -82 65q-34 42 -54 101q-20 60 -20 126zM172 414l2 -2l2 -2q139 78 214 121q78 45 135 90q52 41 71 71q20 31 20 72 q0 52 -34 86q-35 35 -86 35q-41 0 -82 -25q-39 -24 -68 -53q-20 -20 -46 -61q-29 -46 -50 -92q-25 -55 -45 -113q-21 -62 -33 -127zM399 1034l256 363h164l-373 -363h-47z" />
<glyph unicode="&#xea;" horiz-adv-x="702" d="M63 283q0 134 41 254q39 115 106 208q66 92 146 143q82 52 164 52q50 0 87 -15q39 -16 64 -39q25 -24 40 -52q14 -27 14 -54q0 -44 -19 -78q-20 -35 -79 -78q-70 -50 -169 -109q-116 -69 -292 -165q0 -5 -0.5 -9.5t-1 -6.5t-0.5 -3v-20q0 -72 18 -123t47 -83t63 -47 t66 -15q26 0 55 14q36 17 66 38q45 31 70 52q29 24 61 56l33 -37q-29 -33 -72 -70q-37 -32 -85 -63q-46 -30 -87 -47q-46 -19 -77 -19q-56 0 -103 24q-50 26 -82 65q-34 42 -54 101q-20 60 -20 126zM172 414l2 -2l2 -2q139 78 214 121q78 45 135 90q52 41 71 71q20 31 20 72 q0 52 -34 86q-35 35 -86 35q-41 0 -82 -25q-39 -24 -68 -53q-20 -20 -46 -61q-29 -46 -50 -92q-25 -55 -45 -113q-21 -62 -33 -127zM205 1034l246 363h167l148 -363h-39q-9 14 -45 67.5t-53 78.5q-12 18 -36 52q-16 23 -31 46q-17 26 -22 33l-10 12h-4l-274 -289h-47z" />
<glyph unicode="&#xeb;" horiz-adv-x="702" d="M63 283q0 134 41 254q39 115 106 208q66 92 146 143q82 52 164 52q50 0 87 -15q39 -16 64 -39q25 -24 40 -52q14 -27 14 -54q0 -44 -19 -78q-20 -35 -79 -78q-70 -50 -169 -109q-116 -69 -292 -165q0 -5 -0.5 -9.5t-1 -6.5t-0.5 -3v-20q0 -72 18 -123t47 -83t63 -47 t66 -15q26 0 55 14q36 17 66 38q45 31 70 52q29 24 61 56l33 -37q-29 -33 -72 -70q-37 -32 -85 -63q-46 -30 -87 -47q-46 -19 -77 -19q-56 0 -103 24q-50 26 -82 65q-34 42 -54 101q-20 60 -20 126zM172 414l2 -2l2 -2q139 78 214 121q78 45 135 90q52 41 71 71q20 31 20 72 q0 52 -34 86q-35 35 -86 35q-41 0 -82 -25q-39 -24 -68 -53q-20 -20 -46 -61q-29 -46 -50 -92q-25 -55 -45 -113q-21 -62 -33 -127zM207 1174q0 40 23 69q25 31 69 31q45 0 70 -31q24 -30 24 -69q0 -40 -24 -71q-24 -32 -70 -32q-45 0 -69 32q-23 30 -23 71zM612 1174 q0 38 26 69t71 31q42 0 67 -31t25 -69t-25 -71q-24 -32 -67 -32q-45 0 -71 32t-26 71z" />
<glyph unicode="&#xec;" horiz-adv-x="532" d="M74 729q22 32 46 62q28 35 62 69q27 27 65 56q31 24 56 24q18 0 40 -7q24 -7 45 -18q23 -11 36 -22q15 -12 10 -23l-231 -807l65 -14l166 166l33 -37q-17 -25 -46 -61q-28 -35 -63 -70q-30 -30 -64 -56q-32 -24 -56 -24q-16 0 -37 7q-23 8 -42 18q-21 11 -33 22 q-13 11 -11 23l223 807l-66 14l-166 -166zM109 1397h163l158 -363h-47z" />
<glyph unicode="&#xed;" horiz-adv-x="532" d="M74 729q22 32 46 62q28 35 62 69q27 27 65 56q31 24 56 24q18 0 40 -7q24 -7 45 -18q23 -11 36 -22q15 -12 10 -23l-231 -807l65 -14l166 166l33 -37q-17 -25 -46 -61q-28 -35 -63 -70q-30 -30 -64 -56q-32 -24 -56 -24q-16 0 -37 7q-23 8 -42 18q-21 11 -33 22 q-13 11 -11 23l223 807l-66 14l-166 -166zM295 1034l256 363h164l-373 -363h-47z" />
<glyph unicode="&#xee;" horiz-adv-x="532" d="M74 729q22 32 46 62q28 35 62 69q27 27 65 56q31 24 56 24q18 0 40 -7q24 -7 45 -18q23 -11 36 -22q15 -12 10 -23l-231 -807l65 -14l166 166l33 -37q-17 -25 -46 -61q-28 -35 -63 -70q-30 -30 -64 -56q-32 -24 -56 -24q-16 0 -37 7q-23 8 -42 18q-21 11 -33 22 q-13 11 -11 23l223 807l-66 14l-166 -166zM80 1034l246 363h168l147 -363h-39q-9 14 -45 67.5t-53 78.5q-12 18 -36 52q-16 23 -31 46q-16 26 -22 33l-9 12h-5l-274 -289h-47z" />
<glyph unicode="&#xef;" horiz-adv-x="532" d="M61 1174q0 39 24 69q25 31 69 31t69 -31t25 -69t-25 -71q-24 -32 -69 -32t-69 32q-24 31 -24 71zM74 729q22 32 46 62q28 35 62 69q27 27 65 56q31 24 56 24q18 0 40 -7q24 -7 45 -18q23 -11 36 -22q15 -12 10 -23l-231 -807l65 -14l166 166l33 -37q-17 -25 -46 -61 q-28 -35 -63 -70q-30 -30 -64 -56q-32 -24 -56 -24q-16 0 -37 7q-23 8 -42 18q-21 11 -33 22q-13 11 -11 23l223 807l-66 14l-166 -166zM467 1174q0 38 26 69t70 31q43 0 68 -31q24 -30 24 -69q0 -40 -24 -71q-24 -32 -68 -32t-70 32t-26 71z" />
<glyph unicode="&#xf0;" d="M70 346q0 92 30 196q29 101 88 192q57 89 142 148q83 58 188 58q98 0 151 -50q52 -49 81 -136q-7 103 -47 211q-38 104 -109 188l-322 -100l19 77l252 78q-91 91 -219 146l53 30q72 -24 132 -63q65 -42 112 -88l311 96l-19 -78q-21 -6 -61.5 -18.5t-58.5 -18.5 q-17 -6 -44.5 -14t-37.5 -11q-34 -11 -39 -11q80 -98 125 -224q43 -120 41 -258q0 -74 -15 -156q-16 -86 -43 -164q-29 -82 -69 -155q-37 -67 -95 -130q-50 -55 -118 -90q-65 -34 -142 -34q-75 0 -131 35q-53 33 -89 89q-33 51 -50 122q-16 65 -16 133zM170 326 q0 -59 10 -110q11 -55 34 -96q25 -44 62 -68q38 -25 97 -25q57 0 104 30q46 30 84 80q39 52 65 112q30 70 46 126q16 57 24 110q9 63 9 95q0 52 -11 109q-11 55 -34 97q-25 45 -62 69q-40 26 -96 26q-55 0 -103 -31t-85 -80q-39 -52 -65 -112q-30 -70 -46 -126 q-19 -68 -25 -112q-8 -56 -8 -94z" />
<glyph unicode="&#xf1;" horiz-adv-x="1054" d="M53 729q22 32 46 62t63 69q30 30 64 56q31 24 57 24q18 0 38 -7q18 -6 41 -18q20 -10 35 -22t15 -23q0 -14 -35 -157q-12 -50 -44 -182t-50 -207h20q48 90 96 173q23 40 100 162q43 69 89 135q38 56 63 85q11 15 38 39q25 22 61 22q35 0 64 -11q34 -13 57 -32 q26 -22 41 -48q16 -29 16 -58q0 -15 -8 -55q-7 -36 -23 -88q-16 -53 -30 -106q-17 -65 -31 -108q-11 -38 -32.5 -109t-31.5 -105q-4 -13 -47 -157l66 -14l165 166l33 -37q-17 -25 -46 -61q-32 -40 -62 -70q-27 -27 -65 -56q-32 -24 -56 -24q-16 0 -36 7q-24 8 -40 18 q-21 12 -32 22q-13 12 -13 23q0 24 10 64q11 45 27 98q5 15 17 55.5t19 64.5q3 10 17.5 59.5t22.5 76.5q56 193 59 203q25 89 25 110q0 40 -36 68q-35 28 -73 28q-23 0 -73 -63t-114 -165q-82 -130 -136 -225q-66 -117 -136 -247l-26 -172l-109 10l64 301l120 541l-65 14 l-166 -166zM287 1075q66 213 207 213q40 0 77 -22q29 -17 70 -51q4 -3 27 -22t34 -28q28 -22 52 -22q19 0 37 5q15 4 33 19t34 41q15 25 37 70h57q-66 -213 -207 -213q-40 0 -77 22q-32 19 -69 51q-39 33 -60 50q-28 22 -54 22q-18 0 -38 -5q-17 -4 -33 -19q-18 -16 -33 -41 q-18 -30 -39 -70h-55z" />
<glyph unicode="&#xf2;" d="M70 346q0 92 30 196q29 101 88 192q57 89 142 148q83 58 188 58q77 0 132 -35q53 -34 88 -90q33 -53 50 -123t17 -133q0 -88 -31 -195q-29 -101 -88 -192q-56 -87 -141 -146t-189 -59q-75 0 -131 35q-53 33 -89 89q-33 51 -50 122q-16 65 -16 133zM170 326q0 -59 10 -110 q11 -55 34 -96q25 -44 62 -68q38 -25 97 -25q57 0 104 30q46 30 84 80q39 52 65 112q30 70 46 126q16 57 24 110q9 63 9 95q0 52 -11 109q-11 55 -34 97q-25 45 -62 69q-40 26 -96 26q-55 0 -103 -31t-85 -80q-39 -52 -65 -112q-30 -70 -46 -126q-19 -68 -25 -112 q-8 -56 -8 -94zM301 1397h164l158 -363h-48z" />
<glyph unicode="&#xf3;" d="M70 346q0 92 30 196q29 101 88 192q57 89 142 148q83 58 188 58q77 0 132 -35q53 -34 88 -90q33 -53 50 -123t17 -133q0 -88 -31 -195q-29 -101 -88 -192q-56 -87 -141 -146t-189 -59q-75 0 -131 35q-53 33 -89 89q-33 51 -50 122q-16 65 -16 133zM170 326q0 -59 10 -110 q11 -55 34 -96q25 -44 62 -68q38 -25 97 -25q57 0 104 30q46 30 84 80q39 52 65 112q30 70 46 126q16 57 24 110q9 63 9 95q0 52 -11 109q-11 55 -34 97q-25 45 -62 69q-40 26 -96 26q-55 0 -103 -31t-85 -80q-39 -52 -65 -112q-30 -70 -46 -126q-19 -68 -25 -112 q-8 -56 -8 -94zM467 1034l256 363h164l-373 -363h-47z" />
<glyph unicode="&#xf4;" d="M70 346q0 92 30 196q29 101 88 192q57 89 142 148q83 58 188 58q77 0 132 -35q53 -34 88 -90q33 -53 50 -123t17 -133q0 -88 -31 -195q-29 -101 -88 -192q-56 -87 -141 -146t-189 -59q-75 0 -131 35q-53 33 -89 89q-33 51 -50 122q-16 65 -16 133zM170 326q0 -59 10 -110 q11 -55 34 -96q25 -44 62 -68q38 -25 97 -25q57 0 104 30q46 30 84 80q39 52 65 112q30 70 46 126q16 57 24 110q9 63 9 95q0 52 -11 109q-11 55 -34 97q-25 45 -62 69q-40 26 -96 26q-55 0 -103 -31t-85 -80q-39 -52 -65 -112q-30 -70 -46 -126q-19 -68 -25 -112 q-8 -56 -8 -94zM252 1034l246 363h168l147 -363h-39q-9 14 -45 67.5t-53 78.5q-12 18 -36 52q-16 23 -31 46q-16 26 -22 33l-9 12h-5l-274 -289h-47z" />
<glyph unicode="&#xf5;" d="M70 346q0 92 30 196q29 101 88 192q57 89 142 148q83 58 188 58q77 0 132 -35q53 -34 88 -90q33 -53 50 -123t17 -133q0 -88 -31 -195q-29 -101 -88 -192q-56 -87 -141 -146t-189 -59q-75 0 -131 35q-53 33 -89 89q-33 51 -50 122q-16 65 -16 133zM170 326q0 -59 10 -110 q11 -55 34 -96q25 -44 62 -68q38 -25 97 -25q57 0 104 30q46 30 84 80q39 52 65 112q30 70 46 126q16 57 24 110q9 63 9 95q0 52 -11 109q-11 55 -34 97q-25 45 -62 69q-40 26 -96 26q-55 0 -103 -31t-85 -80q-39 -52 -65 -112q-30 -70 -46 -126q-19 -68 -25 -112 q-8 -56 -8 -94zM219 1075q66 213 207 213q41 0 78 -22q25 -15 69 -51q37 -30 62 -50q28 -22 51 -22q19 0 37 5q17 5 34 19q18 15 34 41q11 17 36 70h58q-66 -213 -207 -213q-41 0 -78 22q-32 19 -69 51q-39 33 -60 50q-28 22 -53 22q-18 0 -38 -5q-18 -5 -34 -19 q-18 -16 -33 -41q-18 -30 -39 -70h-55z" />
<glyph unicode="&#xf6;" d="M70 346q0 92 30 196q29 101 88 192q57 89 142 148q83 58 188 58q77 0 132 -35q53 -34 88 -90q33 -53 50 -123t17 -133q0 -88 -31 -195q-29 -101 -88 -192q-56 -87 -141 -146t-189 -59q-75 0 -131 35q-53 33 -89 89q-33 51 -50 122q-16 65 -16 133zM170 326q0 -59 10 -110 q11 -55 34 -96q25 -44 62 -68q38 -25 97 -25q57 0 104 30q46 30 84 80q39 52 65 112q30 70 46 126q16 57 24 110q9 63 9 95q0 52 -11 109q-11 55 -34 97q-25 45 -62 69q-40 26 -96 26q-55 0 -103 -31t-85 -80q-39 -52 -65 -112q-30 -70 -46 -126q-19 -68 -25 -112 q-8 -56 -8 -94zM254 1174q0 39 24 69q25 31 68 31q45 0 70 -31q24 -30 24 -69q0 -40 -24 -71q-24 -32 -70 -32q-44 0 -68 32q-24 31 -24 71zM659 1174q0 38 26 69t71 31q42 0 67 -31t25 -69t-25 -71q-24 -32 -67 -32q-45 0 -71 32t-26 71z" />
<glyph unicode="&#xf7;" horiz-adv-x="995" d="M84 426l6 111h817l6 -111h-829zM395 193q0 41 30 72q30 32 77 32t76 -32q28 -31 28 -72q0 -42 -28 -74q-28 -33 -76 -33q-47 0 -77 33t-30 74zM395 766q0 40 29 74q28 32 76 32t77 -32t29 -74t-29 -74q-30 -33 -77 -33t-76 33q-29 34 -29 74z" />
<glyph unicode="&#xf8;" d="M-35 -152l172 240q-35 56 -51 124q-16 67 -16 134q0 92 30 196q29 101 88 192q57 89 142 148q83 58 188 58q60 0 102 -19t76 -53l135 189h70q-13 -18 -84 -117q-22 -33 -56 -81q-24 -34 -28 -38q35 -52 54 -125q18 -69 18 -137q0 -88 -31 -195q-29 -101 -88 -192 q-56 -87 -141 -146t-189 -59q-56 0 -101 20q-46 21 -79 52l-135 -191h-76zM170 326q0 -37 5 -82q4 -33 18 -78l456 637q-24 35 -59 56q-36 22 -88 22q-55 0 -103 -31t-85 -80q-39 -52 -65 -112q-30 -70 -46 -126q-19 -68 -25 -112q-8 -56 -8 -94zM223 104q24 -34 61 -56 q36 -21 89 -21q57 0 104 30q46 30 84 80q39 52 65 112q30 70 46 126q16 57 24 110q9 63 9 95q0 36 -7 85q-6 44 -20 78z" />
<glyph unicode="&#xf9;" horiz-adv-x="1054" d="M66 729q22 32 46 62q28 35 62 69q27 27 65 56q31 24 56 24q17 0 37 -7q21 -7 39 -18t31 -22q14 -12 14 -23q0 -24 -10 -64q-10 -39 -27 -97q-2 -6 -15 -50.5t-21 -70.5q-36 -122 -40 -135q-54 -184 -59 -203q-25 -87 -25 -109q0 -38 36 -68t73 -30q22 0 72 64 q58 74 115 164q67 106 135 226q76 135 136 246l37 172l109 -10l-74 -301l-121 -541l66 -14l166 166l32 -37q-17 -25 -46 -61q-32 -40 -62 -70q-27 -27 -65 -56q-32 -24 -56 -24q-16 0 -37 7t-43 18q-20 10 -35 22q-14 11 -14 23q0 15 35 158q12 50 44 182t50 207h-20 q-42 -83 -95 -173t-100 -163q-46 -71 -90 -133q-35 -49 -64 -86q-11 -15 -43 -39q-31 -23 -77 -23q-67 0 -111 43q-45 43 -45 107q0 14 8 54q7 36 23 88q5 18 15 54.5t15 52.5q29 101 31 107q11 38 32.5 109t31.5 105q4 13 47 157l-66 14l-166 -166zM348 1397h164l158 -363 h-47z" />
<glyph unicode="&#xfa;" horiz-adv-x="1054" d="M66 729q22 32 46 62q28 35 62 69q27 27 65 56q31 24 56 24q17 0 37 -7q21 -7 39 -18t31 -22q14 -12 14 -23q0 -24 -10 -64q-10 -39 -27 -97q-2 -6 -15 -50.5t-21 -70.5q-36 -122 -40 -135q-54 -184 -59 -203q-25 -87 -25 -109q0 -38 36 -68t73 -30q22 0 72 64 q58 74 115 164q67 106 135 226q76 135 136 246l37 172l109 -10l-74 -301l-121 -541l66 -14l166 166l32 -37q-17 -25 -46 -61q-32 -40 -62 -70q-27 -27 -65 -56q-32 -24 -56 -24q-16 0 -37 7t-43 18q-20 10 -35 22q-14 11 -14 23q0 15 35 158q12 50 44 182t50 207h-20 q-42 -83 -95 -173t-100 -163q-46 -71 -90 -133q-35 -49 -64 -86q-11 -15 -43 -39q-31 -23 -77 -23q-67 0 -111 43q-45 43 -45 107q0 14 8 54q7 36 23 88q5 18 15 54.5t15 52.5q29 101 31 107q11 38 32.5 109t31.5 105q4 13 47 157l-66 14l-166 -166zM535 1034l256 363h163 l-372 -363h-47z" />
<glyph unicode="&#xfb;" horiz-adv-x="1054" d="M66 729q22 32 46 62q28 35 62 69q27 27 65 56q31 24 56 24q17 0 37 -7q21 -7 39 -18t31 -22q14 -12 14 -23q0 -24 -10 -64q-10 -39 -27 -97q-2 -6 -15 -50.5t-21 -70.5q-36 -122 -40 -135q-54 -184 -59 -203q-25 -87 -25 -109q0 -38 36 -68t73 -30q22 0 72 64 q58 74 115 164q67 106 135 226q76 135 136 246l37 172l109 -10l-74 -301l-121 -541l66 -14l166 166l32 -37q-17 -25 -46 -61q-32 -40 -62 -70q-27 -27 -65 -56q-32 -24 -56 -24q-16 0 -37 7t-43 18q-20 10 -35 22q-14 11 -14 23q0 15 35 158q12 50 44 182t50 207h-20 q-42 -83 -95 -173t-100 -163q-46 -71 -90 -133q-35 -49 -64 -86q-11 -15 -43 -39q-31 -23 -77 -23q-67 0 -111 43q-45 43 -45 107q0 14 8 54q7 36 23 88q5 18 15 54.5t15 52.5q29 101 31 107q11 38 32.5 109t31.5 105q4 13 47 157l-66 14l-166 -166zM340 1034l246 363h168 l147 -363h-39q-9 14 -45 67.5t-53 78.5q-12 18 -36 52q-16 23 -31 46q-17 26 -22 33l-9 12h-4l-275 -289h-47z" />
<glyph unicode="&#xfc;" horiz-adv-x="1054" d="M66 729q22 32 46 62q28 35 62 69q27 27 65 56q31 24 56 24q17 0 37 -7q21 -7 39 -18t31 -22q14 -12 14 -23q0 -24 -10 -64q-10 -39 -27 -97q-2 -6 -15 -50.5t-21 -70.5q-36 -122 -40 -135q-54 -184 -59 -203q-25 -87 -25 -109q0 -38 36 -68t73 -30q22 0 72 64 q58 74 115 164q67 106 135 226q76 135 136 246l37 172l109 -10l-74 -301l-121 -541l66 -14l166 166l32 -37q-17 -25 -46 -61q-32 -40 -62 -70q-27 -27 -65 -56q-32 -24 -56 -24q-16 0 -37 7t-43 18q-20 10 -35 22q-14 11 -14 23q0 15 35 158q12 50 44 182t50 207h-20 q-42 -83 -95 -173t-100 -163q-46 -71 -90 -133q-35 -49 -64 -86q-11 -15 -43 -39q-31 -23 -77 -23q-67 0 -111 43q-45 43 -45 107q0 14 8 54q7 36 23 88q5 18 15 54.5t15 52.5q29 101 31 107q11 38 32.5 109t31.5 105q4 13 47 157l-66 14l-166 -166zM342 1174q0 39 24 69 q25 31 68 31q45 0 70 -31q24 -30 24 -69q0 -40 -24 -71q-24 -32 -70 -32q-44 0 -68 32q-24 31 -24 71zM748 1174q0 40 25 69q26 31 71 31q42 0 67 -31t25 -69t-25 -71q-24 -32 -67 -32q-45 0 -71 32q-25 31 -25 71z" />
<glyph unicode="&#xfd;" d="M-240 -410q0 36 22 61q20 23 54 23q38 0 62 -30q25 -31 14 -76l106 -23q4 1 20 22q22 29 37 50q19 27 47 70q5 8 23.5 36t28.5 44q62 95 135 213l-37 10l-8 839l-61 13l-160 -162l-35 35q17 28 43 64q27 37 59 74q28 32 62 61q31 26 55 26q17 0 37 -10q16 -8 41 -24 q21 -13 34 -28q13 -14 13 -28v-774h17l370 620l25 68q-35 5 -63 24q-31 21 -31 66q0 34 24 60t60 26q46 0 76 -30t30 -76q0 -56 -26 -107q-28 -54 -74 -127l-311 -491l-117 -179q-62 -125 -119 -223q-51 -89 -97 -139q-46 -51 -93 -72q-44 -20 -107 -20t-109 31 q-47 32 -47 83zM406 1034l256 363h163l-372 -363h-47z" />
<glyph unicode="&#xfe;" horiz-adv-x="907" d="M-209 -504l4 64l164 14q3 -4 8 1q4 4 6 11l381 1702q6 27 -20 31l-170 14l6 51l313 43l-114 -479l-176 -639h20q45 87 115 212q67 119 124 202q69 101 120 154q57 60 106 65q44 0 78 -25q33 -24 54 -64q22 -43 32 -89q10 -47 10 -98q0 -68 -15 -147q-14 -72 -43 -157 q-23 -68 -66 -146q-37 -68 -81 -112q-59 -59 -131 -98t-139 -39q-61 0 -115 20q-56 21 -94 46h-6l-92 -447q0 -6 1 -10q1 -6 5 -2l186 -14l4 -64h-475zM195 137q19 -19 44 -38q24 -18 53 -36q22 -13 58 -26q29 -10 58 -10q21 0 63 16q43 17 74 47q41 41 80 111q35 63 65 145 q28 78 45 156q17 80 17 141q0 81 -29 145t-82 70q-25 0 -67 -46q-43 -48 -96 -130q-58 -91 -121 -199q-69 -119 -140 -254z" />
<glyph unicode="&#xff;" d="M-240 -410q0 36 22 61q20 23 54 23q38 0 62 -30q25 -31 14 -76l106 -23q4 1 20 22q22 29 37 50q19 27 47 70q5 8 23.5 36t28.5 44q62 95 135 213l-37 10l-8 839l-61 13l-160 -162l-35 35q17 28 43 64q27 37 59 74q28 32 62 61q31 26 55 26q17 0 37 -10q16 -8 41 -24 q21 -13 34 -28q13 -14 13 -28v-774h17l370 620l25 68q-35 5 -63 24q-31 21 -31 66q0 34 24 60t60 26q46 0 76 -30t30 -76q0 -56 -26 -107q-28 -54 -74 -127l-311 -491l-117 -179q-62 -125 -119 -223q-51 -89 -97 -139q-46 -51 -93 -72q-44 -20 -107 -20t-109 31 q-47 32 -47 83zM254 1174q0 39 24 69q25 31 68 31q45 0 70 -31q24 -30 24 -69q0 -40 -24 -71q-24 -32 -70 -32q-44 0 -68 32q-24 31 -24 71zM659 1174q0 38 26 69t71 31q42 0 67 -31t25 -69t-25 -71q-24 -32 -67 -32q-45 0 -71 32t-26 71z" />
<glyph unicode="&#x152;" horiz-adv-x="1812" d="M104 582q0 137 51 265q49 123 144 218q57 57 127 98q74 43 145 67q80 27 154 38q78 12 154 12h909l-45 -346h-64l-8 223q0 19 -10 30t-53 17q-48 7 -133 8q-120 2 -252 2h-95l-69 -526h131q92 0 120 1q47 2 63 4q21 3 28 8q5 3 10 16l62 135h49l-90 -395h-50l7 133 q0 8 -4 16q-3 6 -22 9q-32 5 -63 6q-58 2 -120 2h-129l-74 -557h47q151 0 287 2q98 1 152 8q52 6 65 17q14 11 20 30l82 219h74l-82 -342h-913q-130 0 -242 38q-109 37 -192 112q-79 72 -125 182t-46 250zM223 588q0 -128 38 -228q36 -94 106 -163q67 -65 163 -100 q95 -34 213 -34h125l148 1129l-170 22q-128 -6 -240 -48q-113 -42 -197 -119q-87 -80 -136 -192q-50 -115 -50 -267z" />
<glyph unicode="&#x153;" horiz-adv-x="1318" d="M70 346q0 92 30 196q29 101 88 192q57 89 142 148q83 58 188 58q60 0 102 -19t77 -54q36 -36 57 -77t34 -94q66 111 159 177q94 67 192 67q49 0 84 -14q36 -14 63 -37q26 -21 41 -49q14 -25 14 -52q0 -37 -20 -66q-22 -31 -81 -71q-60 -41 -171 -105t-291 -171 q-2 -22 -2 -32v-32q0 -69 19 -123q18 -51 47 -83q30 -33 62 -47q34 -15 67 -15q25 0 54 14q39 19 67 38q38 27 69 52q35 28 62 56l32 -37q-32 -37 -71 -70q-37 -32 -85 -63q-46 -30 -87 -47q-46 -19 -78 -19q-86 0 -153 58t-91 153q-60 -91 -142 -151t-192 -60 q-75 0 -131 35q-53 33 -89 89q-33 51 -50 122q-16 65 -16 133zM170 326q0 -59 10 -110q11 -55 34 -96q25 -44 62 -68q38 -25 97 -25q57 0 104 30q46 30 84 80q39 52 65 112q30 70 46 126q16 57 24 110q9 63 9 95q0 52 -11 109q-11 55 -34 97q-25 45 -62 69q-40 26 -96 26 q-55 0 -103 -31t-85 -80q-39 -52 -65 -112q-30 -70 -46 -126q-19 -68 -25 -112q-8 -56 -8 -94zM784 440h4q132 78 231 134q90 50 139 83q50 34 68 57q17 23 17 54q0 23 -14 43q-15 21 -38 37q-22 15 -55 26t-67 11q-19 0 -49 -19q-27 -17 -49 -39q-26 -26 -52 -65 q-32 -48 -54 -92q-27 -53 -47 -110q-23 -65 -34 -120z" />
<glyph unicode="&#x178;" horiz-adv-x="1204" d="M92 1280h430l-6 -63l-147 -13q-19 0 -11 -18l275 -574h4l424 576q4 4 2 9t-6 5l-146 15l-6 63h420l-6 -63l-137 -15q-19 -5 -25 -14l-479 -641l-62 -455q-2 -12 11 -12l174 -17l6 -63h-498l6 63l183 17q8 0 10 12l59 451l-321 643q-7 14 -23 16l-125 15zM459 1546 q0 41 23 70q25 31 69 31q45 0 70 -31q24 -30 24 -70q0 -38 -24 -70t-70 -32q-45 0 -69 32q-23 30 -23 70zM864 1546q0 39 26 70t71 31q42 0 67 -31t25 -70q0 -37 -25 -70q-24 -32 -67 -32q-45 0 -71 32t-26 70z" />
<glyph unicode="&#x2c6;" horiz-adv-x="819" d="M203 1034l246 363h167l148 -363h-39q-9 14 -45 67.5t-53 78.5q-12 18 -36 52q-16 23 -31 46q-16 26 -22 33l-10 12h-4l-274 -289h-47z" />
<glyph unicode="&#x2dc;" horiz-adv-x="819" d="M170 1075q66 213 207 213q41 0 78 -22q25 -15 69 -51q37 -30 62 -50q28 -22 51 -22q19 0 37 5q17 5 34 19q16 13 33 41q15 25 37 70h58q-66 -213 -207 -213q-41 0 -78 22q-32 19 -69 51q-39 33 -60 50q-28 22 -53 22q-18 0 -38 -5q-18 -5 -34 -19q-18 -16 -33 -41 q-18 -30 -39 -70h-55z" />
<glyph unicode="&#x2000;" horiz-adv-x="884" />
<glyph unicode="&#x2001;" horiz-adv-x="1769" />
<glyph unicode="&#x2002;" horiz-adv-x="884" />
<glyph unicode="&#x2003;" horiz-adv-x="1769" />
<glyph unicode="&#x2004;" horiz-adv-x="589" />
<glyph unicode="&#x2005;" horiz-adv-x="442" />
<glyph unicode="&#x2006;" horiz-adv-x="294" />
<glyph unicode="&#x2007;" horiz-adv-x="294" />
<glyph unicode="&#x2008;" horiz-adv-x="221" />
<glyph unicode="&#x2009;" horiz-adv-x="353" />
<glyph unicode="&#x200a;" horiz-adv-x="98" />
<glyph unicode="&#x2010;" horiz-adv-x="671" d="M14 434l6 92h512l7 -92h-525z" />
<glyph unicode="&#x2011;" horiz-adv-x="671" d="M14 434l6 92h512l7 -92h-525z" />
<glyph unicode="&#x2012;" horiz-adv-x="671" d="M14 434l6 92h512l7 -92h-525z" />
<glyph unicode="&#x2013;" horiz-adv-x="962" d="M47 420l4 78h856l8 -78h-868z" />
<glyph unicode="&#x2014;" horiz-adv-x="1908" d="M47 420l4 78h1802l9 -78h-1815z" />
<glyph unicode="&#x2018;" horiz-adv-x="434" d="M152 989q8 61 37 115q31 57 73 102q49 53 95 88q54 42 104 74l26 -33q-86 -62 -137 -124q-53 -65 -65 -152q-6 -41 11 -67q19 -28 39 -44q19 -15 41 -25q19 -9 19 -12q-5 -35 -28 -64q-24 -30 -78 -30q-72 0 -110 50t-27 122z" />
<glyph unicode="&#x2019;" horiz-adv-x="434" d="M109 831q85 61 138 124q53 64 64 153q6 42 -10 69q-17 27 -38 44q-21 16 -41 24q-19 7 -19 10q5 36 28 65q24 30 78 30q71 0 110 -51q37 -49 27 -121q-7 -58 -38 -115q-29 -54 -74 -102q-52 -56 -94 -89q-42 -34 -105 -73z" />
<glyph unicode="&#x201a;" horiz-adv-x="434" d="M-43 -309q85 61 138 124q55 65 65 152q6 42 -10 69q-17 27 -38 44q-21 16 -41 24t-20 11q4 33 29 64q24 30 78 30q71 0 109 -50q38 -51 28 -122q-7 -56 -39 -115q-29 -54 -74 -102q-49 -52 -94 -88q-52 -41 -104 -74z" />
<glyph unicode="&#x201c;" horiz-adv-x="823" d="M152 989q8 61 37 115q31 57 73 102q49 53 95 88q54 42 104 74l26 -33q-86 -62 -137 -124q-53 -65 -65 -152q-6 -41 11 -67q19 -28 39 -44q19 -15 41 -25q19 -9 19 -12q-5 -35 -28 -64q-24 -30 -78 -30q-72 0 -110 50t-27 122zM541 989q7 58 38 115q32 59 72 102 q49 53 95 88q54 42 104 74l27 -33q-89 -63 -138 -124q-53 -65 -65 -152q-6 -41 11 -67q19 -28 39 -44q19 -15 41 -25q19 -9 19 -12q-5 -35 -28 -64q-24 -30 -78 -30q-72 0 -110 50t-27 122z" />
<glyph unicode="&#x201d;" horiz-adv-x="823" d="M109 831q85 61 138 124q53 64 64 153q6 42 -10 69q-17 27 -38 44q-21 16 -41 24q-19 7 -19 10q5 36 28 65q24 30 78 30q71 0 110 -51q37 -49 27 -121q-7 -58 -38 -115q-29 -54 -74 -102q-52 -56 -94 -89q-42 -34 -105 -73zM498 831q85 61 138 124q53 64 64 153 q6 42 -10 69q-17 27 -38 44q-21 16 -41 24q-19 7 -19 10q4 34 29 65q24 30 77 30q71 0 110 -51q38 -51 28 -121q-7 -56 -39 -115q-31 -57 -74 -103q-49 -52 -94 -88q-42 -34 -105 -73z" />
<glyph unicode="&#x201e;" horiz-adv-x="823" d="M-43 -309q85 61 138 124q55 65 65 152q6 42 -10 69q-17 27 -38 44q-21 16 -41 24t-20 11q4 33 29 64q24 30 78 30q71 0 109 -50q38 -51 28 -122q-7 -56 -39 -115q-29 -54 -74 -102q-49 -52 -94 -88q-52 -41 -104 -74zM346 -309q85 61 138 124q55 65 65 152q6 42 -10 69 q-17 27 -38 44q-21 16 -41 24t-20 11q4 33 29 64q24 30 78 30q71 0 109 -50q38 -51 28 -122q-7 -56 -39 -115q-29 -54 -74 -102q-49 -52 -94 -88q-52 -41 -104 -74z" />
<glyph unicode="&#x2022;" horiz-adv-x="931" d="M72 475q0 23 12 63q8 28 31 83q16 40 39 80q24 43 34 53q16 16 54 36q27 14 80 36q44 18 84 30q41 12 61 12q21 0 62 -12q37 -11 83 -30q58 -24 81 -36q37 -19 52 -36q16 -15 36 -53q19 -37 37 -80q19 -46 30 -83q12 -40 12 -63q0 -21 -12 -62q-11 -37 -30 -83 q-20 -48 -37 -81q-19 -37 -36 -54q-13 -13 -52 -35q-31 -17 -81 -38q-44 -18 -84 -30t-63 -12q-22 0 -62 12q-41 12 -84 30t-79 38q-39 22 -52 35q-10 11 -34 54q-21 37 -39 81q-23 55 -31 83q-12 41 -12 62z" />
<glyph unicode="&#x2026;" horiz-adv-x="1314" d="M66 74q1 39 28 68q27 30 74 30t76 -30q28 -29 26 -68q-2 -41 -29 -72q-28 -31 -75 -31q-48 0 -75 32q-27 31 -25 71zM504 74q1 39 28 68q27 30 74 30q48 0 76 -30t27 -68q-1 -40 -30 -72q-28 -31 -75 -31q-48 0 -75 32q-27 31 -25 71zM942 74q1 37 29 68q27 30 73 30 q48 0 76 -30t27 -68q-1 -40 -30 -72q-28 -31 -75 -31t-74 32t-26 71z" />
<glyph unicode="&#x202f;" horiz-adv-x="353" />
<glyph unicode="&#x2039;" horiz-adv-x="634" d="M76 416l8 73l477 322l14 -45l-368 -317l285 -318l-25 -37z" />
<glyph unicode="&#x203a;" horiz-adv-x="634" d="M47 139l367 318l-283 317l23 37l391 -322l-8 -73l-478 -322z" />
<glyph unicode="&#x205f;" horiz-adv-x="442" />
<glyph unicode="&#x20ac;" horiz-adv-x="1015" d="M41 428l4 72h109v2q2 17 4 50t4 49q5 59 14 97h-135l6 72h148q30 107 79 195t124 160q73 70 167 110q96 41 207 41q38 0 83 -7q47 -7 92 -26q44 -18 75 -49t31 -78q0 -30 -22 -55t-54 -25q-25 0 -44 14t-27 33q-10 22 -11 45q-2 30 2 50q-27 21 -76 29q-43 7 -82 7 q-95 0 -164 -39t-125 -104q-57 -66 -91 -142q-34 -74 -56 -159h440l7 -72h-463q-11 -50 -15 -98q-4 -44 -4 -98v-2h473l9 -72h-476q6 -64 29 -132q23 -67 62 -121t94 -88t127 -34q110 0 192 51q84 52 146 127l39 -28q-68 -103 -172 -169q-103 -65 -232 -65q-98 0 -169 40 q-73 41 -122 105q-51 66 -77 146q-27 82 -33 168h-117z" />
<glyph unicode="&#x2122;" horiz-adv-x="1835" d="M90 1038l21 242h653v-242h-51l-23 144q-1 12 -7 22t-25 14q-25 6 -57 7q-50 2 -107 2h-21v-633q0 -10 6 -10l135 -11l4 -55h-370l4 55l135 11q6 0 6 10v633q0 2 -10 1q-7 -1 -12 -1q-55 0 -107 -2q-38 -1 -58 -6t-25 -14q-6 -12 -7 -21l-31 -146h-53zM836 518l6 55 l121 11q6 0 6 10l22 610q0 10 -4 10l-123 11l-2 55h266l191 -621h16l228 621h260l-4 -55l-121 -11q-4 0 -4 -10l20 -610q0 -10 8 -10l121 -11l6 -55h-342l4 55l121 11q6 0 6 10l-20 620h-16l-252 -671h-68l-215 676h-16l-25 -625q0 -10 6 -10l121 -11l4 -55h-321z" />
<glyph unicode="&#x25fc;" horiz-adv-x="942" d="M0 0v942h942v-942h-942z" />
</font>
</defs>
</svg>
