<?xml version="1.0" standalone="no"?>
<!DOCTYPE svg PUBLIC "-//W3C//DTD SVG 1.1//EN" "http://www.w3.org/Graphics/SVG/1.1/DTD/svg11.dtd" >
<svg xmlns="http://www.w3.org/2000/svg" xmlns:xlink="http://www.w3.org/1999/xlink" version="1.1">
<metadata></metadata>
<defs>
<font id="freighttextbold" horiz-adv-x="1558" >
<font-face units-per-em="2048" ascent="1638" descent="-410" />
<missing-glyph horiz-adv-x="327" />
<glyph unicode="&#xfb01;" horiz-adv-x="1220" d="M12 801l13 117h141l4 47q6 109 48 194t112 146q67 59 163 91q92 31 203 31q56 0 107 -12q52 -12 89 -36q38 -24 60 -58q23 -35 23 -80q0 -57 -37 -91t-92 -34q-59 0 -103 38q-41 36 -63 128l-2 8l-127 23q-59 -40 -97 -126q-38 -87 -38 -222v-47h383l239 38v-833 q0 -21 21 -27q19 -5 57 -10l43 -6l6 -80h-489l6 80l47 6q28 4 49 12t21 27v668h-383v-670q0 -18 14 -25q15 -8 64 -12l84 -6l6 -80h-533l6 80l49 6q70 6 70 39v661z" />
<glyph unicode="&#xfb02;" horiz-adv-x="1216" d="M12 801l13 117h141l4 47q6 109 48 194t112 146q67 59 163 91q92 31 203 31q62 0 113 -13q54 -14 92 -40l137 53v-1304q0 -17 15 -25t63 -12l43 -6l6 -80h-489l6 80l47 6q70 6 70 39v668h-383v-670q0 -18 14 -25q15 -8 64 -12l84 -6l6 -80h-533l6 80l49 6q70 6 70 39v661z M416 918h383v204q-42 12 -72 50q-31 38 -47 110l-2 8l-127 23q-59 -40 -97 -126q-38 -87 -38 -222v-47z" />
<glyph unicode="&#xfb03;" horiz-adv-x="1851" d="M12 801l13 117h141l4 26q11 105 50 188t104 146q62 60 145 95q81 34 174 34q51 0 89 -11q43 -12 74 -33q32 -22 50 -51q18 -30 18 -65q0 -61 -36 -91q-38 -32 -84 -32q-59 0 -99 40t-61 130l-2 9l-60 4q-57 -39 -87 -118q-29 -77 -29 -216v-55h383l2 47q7 107 50 194 q42 86 111 146t161 91t204 31q56 0 107 -12q52 -12 89 -36q38 -24 60 -58q23 -35 23 -80q0 -57 -37 -91t-92 -34q-59 0 -103 38q-41 36 -63 128l-2 8l-127 23q-61 -41 -98 -126q-37 -84 -37 -222v-47h383l239 38v-833q0 -21 21 -27q19 -5 57 -10l43 -6l6 -80h-489l6 80l47 6 q28 4 49 12t21 27v668h-383v-670q0 -18 14 -25q15 -8 63 -12l84 -6l6 -80h-530l6 80l49 6q28 4 49 12t21 27v670h-393v-660q0 -15 12 -27t49 -16l107 -12l6 -80h-539l6 80l62 12q57 8 57 45v649z" />
<glyph unicode="&#xfb04;" horiz-adv-x="1847" d="M12 801l13 117h141l4 26q11 105 50 188t104 146q62 60 145 95q81 34 174 34q51 0 89 -11q43 -12 74 -33q32 -22 50 -51q18 -30 18 -65q0 -61 -36 -91q-38 -32 -84 -32q-59 0 -99 40t-61 130l-2 9l-60 4q-57 -39 -87 -118q-29 -77 -29 -216v-55h383l2 47q7 107 50 194 q42 86 111 146t161 91t204 31q62 0 113 -13q54 -14 92 -40l137 53v-1304q0 -18 14 -25q15 -8 64 -12l43 -6l6 -80h-489l6 80l47 6q70 6 70 39v668h-383v-670q0 -18 14 -25q15 -8 63 -12l84 -6l6 -80h-530l6 80l49 6q28 4 49 12t21 27v670h-393v-660q0 -15 12 -27t49 -16 l107 -12l6 -80h-539l6 80l62 12q57 8 57 45v649zM1047 918h383v204q-42 12 -72 50q-31 38 -47 110l-2 8l-127 23q-61 -41 -98 -126q-37 -84 -37 -222v-47z" />
<glyph horiz-adv-x="0" />
<glyph unicode="&#xd;" horiz-adv-x="327" />
<glyph unicode=" "  horiz-adv-x="327" />
<glyph unicode="&#x09;" horiz-adv-x="327" />
<glyph unicode="&#xa0;" horiz-adv-x="327" />
<glyph unicode="!" horiz-adv-x="602" d="M160 111q0 59 42 100q43 41 101 41q61 0 101 -42q40 -41 40 -99t-40 -101t-101 -43q-59 0 -101 42t-42 102zM170 1200q-8 52 26 80q35 29 105 29h4q71 0 106 -29q33 -27 25 -80l-106 -788q-5 -17 -27 -17t-24 17z" />
<glyph unicode="&#x22;" horiz-adv-x="808" d="M14 825l228 496h4l186 -64l-323 -432h-95zM367 825l227 496h2l186 -64l-323 -432h-92z" />
<glyph unicode="#" horiz-adv-x="1189" d="M10 362v99h281l96 354h-256v96h281l104 381h100l-102 -381h320l102 381h100l-102 -381h256v-96h-281l-96 -354h256v-99h-281l-100 -374h-100l100 374h-321l-103 -374h-100l102 374h-256zM391 461h324l94 354h-322z" />
<glyph unicode="$" horiz-adv-x="1116" d="M113 422h129l88 -313q6 -5 15 -6t15 -3l117 451q-78 27 -144 57q-67 30 -115 74q-49 44 -75 101q-26 56 -26 141q0 77 29 144q31 71 88 122q60 54 147 85q90 32 207 32h43q15 0 37 -2l8 32q11 44 18 70q12 45 27 102h102l-55 -213q8 -2 24 -4.5t23 -3.5q38 -7 51 -10 l109 31v-426h-125l-78 282q-6 5 -16 6q-4 1 -10.5 3t-8.5 2l-102 -398q96 -32 160 -62q77 -36 128 -80q54 -47 84 -109q29 -61 29 -150q0 -84 -34 -156q-34 -73 -97 -130q-60 -54 -156 -90q-92 -34 -214 -34q-38 0 -55 1q-34 2 -50 3l-72 -282h-102l76 293q-61 9 -102 19 q-64 16 -97 26zM336 1020q0 -46 14 -74q16 -32 42 -55t66 -44q36 -19 83 -36q33 132 49 190q11 41 18 71q4 20 16 62q3 9 6.5 23.5t4.5 19.5l4 15q-16 4 -35 6q-24 2 -35 2q-117 0 -175 -54t-58 -126zM459 84q16 -3 48 -7q21 -3 46 -1q71 0 116 17q50 19 79 45q30 27 45 65 q14 35 14 76q0 53 -17 87t-49 63q-33 30 -73 49q-48 23 -97 40z" />
<glyph unicode="%" horiz-adv-x="1527" d="M35 987q0 72 23 132q23 61 68 109q44 47 107 74t142 27t142 -27t107 -74q43 -46 67 -109t24 -132q0 -67 -24 -129q-24 -61 -67 -107q-44 -47 -107 -74q-65 -28 -142 -28t-142 28q-63 27 -107 74q-45 48 -68 107t-23 129zM135 987q0 -48 17 -93q16 -42 47 -78 q28 -32 75 -54q45 -21 101 -21q55 0 100 21q49 23 76 54q31 36 47 78t16 93q0 52 -16 97q-16 44 -47 80q-29 34 -76 54q-44 19 -100 19q-57 0 -101 -19q-45 -20 -75 -54q-31 -36 -47 -80q-17 -48 -17 -97zM190 -31l1039 1340h110l-1038 -1340h-111zM813 291q0 67 24 129 q24 61 67 107q44 47 107 74q65 28 142 28q76 0 141 -28t108 -74t67 -107q24 -62 24 -129q0 -69 -24 -132t-67 -109t-108 -74q-63 -27 -141 -27q-79 0 -142 27t-107 74q-43 46 -67 109t-24 132zM913 291q0 -49 17 -97q16 -44 47 -80q29 -34 76 -54q44 -19 100 -19t100 19 q47 20 76 54q31 36 47 80q17 48 17 97q0 48 -17 93q-16 42 -47 78q-27 31 -76 54q-45 21 -100 21t-100 -21q-49 -23 -76 -54q-31 -36 -47 -78q-17 -45 -17 -93z" />
<glyph unicode="&#x26;" horiz-adv-x="1468" d="M51 299q0 68 24 125q24 58 64 105q40 48 94 83t113 56q-97 50 -149 126q-54 79 -54 179q0 72 33 132t91 106q59 47 136 72q80 26 170 26q76 0 144 -20q66 -20 112 -55q47 -37 74 -84q27 -48 27 -106q0 -111 -76 -188q-77 -79 -193 -113q198 -97 312 -272q11 14 28.5 38.5 t18.5 25.5q22 32 32 47q15 22 15 32q28 46 16 68q-12 21 -49 31l-53 14l-6 78h457l-9 -78l-59 -16q-40 -11 -87 -39q-46 -28 -81 -74l-176 -209q10 -20 28 -54.5t25 -47.5q25 -48 53 -82t65 -54t85 -20q45 0 87 15q38 13 77 34l30 -49q-27 -27 -65 -60q-33 -29 -74 -54 q-34 -21 -84 -36q-47 -14 -98 -14q-107 0 -180 59t-125 169q-79 -95 -182 -160q-107 -68 -246 -68q-84 0 -152 27t-114 72q-48 47 -73 105q-26 61 -26 128zM285 393q0 -54 19 -98t54 -79q32 -32 83 -53q49 -20 104 -20q69 0 140 34q75 36 124 99q-33 72 -74 125 q-42 54 -91 96q-47 40 -107 73t-123 59q-61 -46 -95 -105t-34 -131zM367 1047q0 -84 51 -150q52 -67 172 -119q60 43 88 107q27 63 27 137q0 35 -11 73q-11 37 -31 63t-53 44q-31 17 -71 17q-78 0 -126 -51q-46 -49 -46 -121z" />
<glyph unicode="'" horiz-adv-x="458" d="M14 825l230 496h2l186 -64l-323 -432h-95z" />
<glyph unicode="(" horiz-adv-x="808" d="M184 455q0 183 55 342q53 154 136 276t179 205q99 86 181 125l56 -78q-79 -44 -164 -123q-88 -82 -159 -191q-74 -114 -121 -252q-48 -141 -48 -304t48 -304q47 -138 121 -252q71 -109 159 -191q85 -79 164 -120l-56 -82q-82 39 -181 125q-96 83 -179 205 q-82 121 -136 277q-55 159 -55 342z" />
<glyph unicode=")" horiz-adv-x="808" d="M18 -416q79 44 164 123q87 81 159 192q74 114 121 252q48 141 48 304t-48 304q-47 138 -121 252q-71 109 -159 191q-85 79 -164 123l60 78q84 -40 179 -125t177 -205q83 -122 136 -276q55 -159 55 -342t-55 -342q-54 -156 -136 -277q-82 -120 -177 -205t-179 -125z" />
<glyph unicode="*" horiz-adv-x="724" d="M68 1174l28 36l129 -4l111 -192l33 10l-13 225l103 68l45 -14l37 -117l-148 -172l21 -27l209 84l98 -78v-45l-98 -76l-209 84l-21 -26l146 -172l-37 -117l-43 -14l-105 69l13 228l-31 8l-111 -191l-127 -4l-28 35l32 123l215 57v41l-215 60z" />
<glyph unicode="+" horiz-adv-x="983" d="M59 422l7 117h368v374h117v-374h367l6 -117h-373v-373h-117v373h-375z" />
<glyph unicode="," horiz-adv-x="475" d="M49 -330q80 56 134 122q55 67 55 149q0 49 -29 84t-63 57t-62 34q-29 12 -29 13q0 55 43 101t117 46q46 0 81 -17q40 -19 68 -47q29 -29 47 -70q17 -38 17 -87q0 -64 -26 -125t-68 -113q-45 -56 -102 -104q-58 -49 -123 -92z" />
<glyph unicode="-" horiz-adv-x="681" d="M68 440l6 123h538l6 -123h-550z" />
<glyph unicode="." horiz-adv-x="477" d="M80 127q0 66 46 112t114 46q67 0 112 -46q45 -47 45 -112q0 -64 -45 -112t-112 -48t-114 47q-46 46 -46 113z" />
<glyph unicode="/" horiz-adv-x="571" d="M8 -397l443 1796h108l-442 -1796h-109z" />
<glyph unicode="0" horiz-adv-x="1165" d="M80 483q0 118 37 213q38 98 104 165q68 69 160 107q93 38 203 38q111 0 203 -37q94 -38 159 -106t103 -164q36 -91 36 -212t-36 -212q-37 -95 -105 -162q-69 -69 -161 -106q-94 -38 -203 -38q-113 0 -203 37q-92 38 -158 105q-64 66 -102 161q-37 93 -37 211zM250 487 q0 -77 24 -142q24 -63 69 -112q42 -45 106 -73q61 -27 135 -27q72 0 135 26q61 25 104 71q44 47 68 111q24 65 24 142q0 78 -24 144q-23 64 -70 112q-46 48 -106 74q-61 27 -135 27t-135 -26q-59 -25 -104 -73q-44 -47 -68 -111q-23 -62 -23 -143z" />
<glyph unicode="1" horiz-adv-x="780" d="M70 836l6 69l452 103v-852q0 -39 47 -47l130 -23l6 -86h-596l6 86l121 23q47 11 47 47v659z" />
<glyph unicode="2" horiz-adv-x="999" d="M63 145q64 46 186 137q79 58 152 125q67 61 105 118q39 59 39 116q0 82 -55 135t-140 53q-72 0 -126 -42t-97 -97l-45 25q23 75 64 128q40 51 97 91q51 35 116 54q63 18 128 18q64 0 124 -20t102 -55q43 -36 67 -85q25 -52 25 -111q0 -76 -43 -141q-43 -66 -118 -130 t-174 -132q-86 -58 -212 -146v-10h115q137 0 219 3q77 3 128 11q44 7 66 26q20 17 35 44l45 86h78l-26 -346h-840z" />
<glyph unicode="3" horiz-adv-x="897" d="M16 -229q0 48 35 83q33 33 82 33q37 0 66 -18q28 -18 50 -46t34 -64q11 -34 16 -68q14 -2 17 -2h16q50 0 97 19q50 20 86 55q37 36 62 90q23 50 23 120q0 124 -72 196q-73 73 -182 73q-82 0 -166 -35l-26 67q69 44 135 84q62 38 115 83q50 42 80 89q30 46 30 105 q0 81 -56 137q-57 57 -143 57q-71 0 -133 -42q-60 -41 -104 -97q-3 0 -10 4l-17 8q-10 6 -14 9q-5 4 -4 4q23 74 65 126q43 54 100 91t120 55q68 19 131 19q71 0 130 -21t100 -55q40 -33 65 -83q24 -48 24 -102q0 -113 -78 -195q-81 -86 -221 -163v-8q76 0 147 -22 q69 -21 118 -63q52 -44 79 -100q29 -60 29 -133q0 -100 -44 -186q-43 -85 -118 -149q-76 -65 -172 -100q-99 -36 -207 -36q-121 0 -204 51q-81 49 -81 130z" />
<glyph unicode="4" horiz-adv-x="1071" d="M23 109l651 884h149v-809h246l-14 -155h-232v-406h-227v406h-563zM184 184h412v547h-8z" />
<glyph unicode="5" horiz-adv-x="917" d="M4 -231q0 51 33 85q32 33 82 33q63 0 108 -52q47 -55 54 -134q12 -4 32 -10q13 -4 43 -4q54 0 99 21q43 20 79 59q33 36 53 86q19 48 19 104q0 144 -128 240q-126 95 -384 155l156 623h588l-7 -213h-524l-57 -221q151 -38 256 -88t175 -111q68 -59 100 -129t32 -143 q0 -98 -45 -187q-44 -86 -119 -152t-167 -103q-94 -38 -189 -38q-131 0 -210 46t-79 133z" />
<glyph unicode="6" horiz-adv-x="1101" d="M78 498q0 173 69 326q68 151 192 269q120 114 287 187q165 72 353 84l25 -78q-143 -21 -254 -75q-109 -53 -193 -131q-80 -74 -134 -170q-53 -95 -77 -189l6 -4q67 55 146 84q77 28 153 28q83 0 148 -29q67 -30 115 -82q50 -54 76 -126q28 -76 28 -162q0 -99 -38 -186 q-39 -88 -103 -148q-66 -61 -152 -96q-87 -35 -182 -35q-107 0 -194 42q-85 41 -146 114q-59 70 -92 169q-33 98 -33 208zM338 496q0 -79 16 -153q16 -76 47 -137q30 -59 76 -98q46 -38 105 -38q93 0 139 78q47 80 47 208q0 157 -70 245q-69 87 -174 87q-55 0 -98 -20 q-48 -22 -74 -47q-5 -13 -10 -46q-4 -25 -4 -79z" />
<glyph unicode="7" horiz-adv-x="1015" d="M55 598l47 377h863l10 -86l-643 -1266h-150l611 1151v6h-256q-92 0 -178 -2q-61 -1 -97 -8q-34 -6 -45 -17q-12 -12 -22 -32l-62 -123h-78z" />
<glyph unicode="8" horiz-adv-x="1083" d="M84 299q1 103 74 188t198 123v2q-38 21 -94 58q-45 30 -79 70q-32 37 -54 90q-20 47 -20 114q0 61 27 127q27 65 82 119q54 53 136 87q81 34 195 34q87 0 164 -24t131 -65q56 -42 86 -103q31 -62 31 -134q-1 -100 -70 -170q-68 -70 -184 -110v-3q58 -30 107 -62 q54 -35 94 -77q44 -46 67 -97q24 -54 24 -126q0 -76 -32 -141q-33 -68 -95 -118q-65 -53 -149 -81q-91 -31 -199 -31q-86 0 -169 23t-141 65q-61 44 -95 105q-35 62 -35 137zM311 317q0 -52 19 -103q18 -49 52 -84q33 -34 81 -56q47 -21 104 -21q103 0 164 53q60 52 60 132 q0 67 -31 118q-29 47 -81 87t-114 69q-19 9 -40 19t-46 22.5l-39 19.5q-54 -44 -92 -109q-37 -64 -37 -147zM317 1044q0 -61 27 -106q28 -47 70 -80q47 -37 98 -62l113 -57q54 40 81 95q28 57 29 133q0 52 -15 98q-15 47 -45 84q-29 36 -71 58t-92 22q-92 0 -143 -55 q-52 -57 -52 -130z" />
<glyph unicode="9" horiz-adv-x="1101" d="M78 545q0 100 38 187q38 86 103 147q66 61 153 96q88 35 183 35q109 0 194 -42t145 -114q61 -73 92 -169q32 -99 32 -208q0 -171 -70 -326q-69 -153 -191 -269q-120 -114 -287 -187q-165 -72 -353 -84l-23 78q145 22 253 74q109 53 194 132q81 75 133 170q53 96 76 189 l-7 4q-68 -56 -145 -84q-79 -29 -154 -29q-80 0 -147 30q-69 31 -116 82q-50 54 -76 126q-27 73 -27 162zM328 618q0 -157 69 -244t174 -87q56 0 99 20q46 22 73 47q7 19 11 45q4 25 4 80q0 75 -17 154q-16 74 -47 136q-30 59 -76 98q-46 38 -104 38q-93 0 -139 -79 q-47 -80 -47 -208z" />
<glyph unicode=":" horiz-adv-x="475" d="M80 129q0 66 46 112t114 46q67 0 112 -47q45 -46 45 -111q0 -67 -45 -113q-45 -47 -112 -47t-114 47q-46 46 -46 113zM80 748q0 65 46 111t114 46q67 0 112 -47q45 -46 45 -110q0 -66 -45 -113t-112 -47t-114 47q-46 46 -46 113z" />
<glyph unicode=";" horiz-adv-x="475" d="M49 -330q80 56 134 122q55 67 55 149q0 49 -29 84t-63 57t-62 34q-29 12 -29 13q0 55 43 101t117 46q46 0 81 -17q40 -19 68 -47q29 -29 47 -70q17 -38 17 -87q0 -64 -26 -125t-68 -113q-45 -56 -102 -104q-58 -49 -123 -92zM72 748q0 65 46 111t113 46q68 0 113 -47 q45 -46 45 -110q0 -66 -45 -113t-113 -47q-66 0 -113 47q-46 46 -46 113z" />
<glyph unicode="&#x3c;" horiz-adv-x="983" d="M53 451v59l832 385l28 -107l-667 -305v-2l667 -307l-28 -106z" />
<glyph unicode="=" horiz-adv-x="983" d="M80 248l6 114h811l6 -114h-823zM80 713h823l-6 -115h-811z" />
<glyph unicode="&#x3e;" horiz-adv-x="983" d="M70 174l667 307v2l-667 305l28 107l832 -385v-59l-832 -383z" />
<glyph unicode="?" horiz-adv-x="804" d="M109 1165q0 63 49 103q50 41 147 41q80 0 158 -30q76 -29 137 -81q57 -49 96 -120q37 -68 37 -144q0 -71 -16 -116q-16 -46 -47 -78q-28 -29 -75 -52q-37 -18 -99 -43q-13 -5 -61 -22q-31 -11 -51 -25q-22 -16 -35 -33t-13 -43q0 -32 21 -66q12 -20 53 -71h-84 q-29 17 -53 39q-23 20 -46 50q-18 24 -32 61q-13 36 -13 65q0 50 19 90q18 38 53 65q34 27 83 48q48 21 105 39q70 22 125 47q54 25 54 65q0 30 -26 54q-25 24 -69 42q-41 17 -99 26q-57 9 -116 9q-45 0 -86 -6q-14 -2 -37.5 -5.5t-33.5 -4.5q-21 17 -33 43q-12 27 -12 53z M215 111q0 59 42 100q43 41 101 41q62 0 102 -42q40 -41 40 -99t-40 -101t-102 -43q-59 0 -101 42t-42 102z" />
<glyph unicode="@" horiz-adv-x="1785" d="M88 522q5 174 73 323q70 152 184 263q116 113 270 176q156 63 331 62q159 -1 309 -56q140 -51 248 -148q104 -94 162 -229q57 -133 51 -297q-5 -121 -44 -219q-42 -104 -105 -174q-66 -73 -152 -114q-87 -41 -182 -41q-71 0 -119 16t-79 41q-28 22 -41 55q-12 30 -7 60 q0 10 9 46q2 8 22 78q19 66 23 79q2 5 16 53h-27q-25 -43 -91 -152q-45 -74 -87 -125q-46 -55 -87 -85q-44 -32 -91 -32q-45 0 -88 19q-41 18 -72 49q-29 29 -48 73q-17 40 -17 91q0 62 18 134q17 69 50 144q30 69 74 138q42 66 91 112q56 56 120 86q67 31 124 31 q75 0 122 -41q45 -39 68 -119h21l55 146h178l-123 -344l-71 -355q-8 -36 27 -63q37 -29 104 -29q65 0 121 34q59 36 99 93q41 59 67 139q27 83 28 172q6 149 -43 267t-141 202t-220 131q-133 49 -280 50q-154 2 -289 -57q-137 -59 -237 -158q-102 -101 -164 -235 q-61 -133 -66 -284q-4 -166 48 -302q51 -133 148 -233q96 -99 225 -151q132 -53 282 -53q70 0 131 11q66 12 129 30l22 -76q-78 -28 -144 -39q-69 -12 -148 -12q-167 0 -313 61t-253 171t-167 260t-54 327zM662 389q0 -62 31 -96q32 -35 67 -35q23 0 56 31q31 29 68 79 q31 41 72 107q9 14 34 54t38 61q4 6 12 27q13 36 16 46q2 5 6.5 20t6.5 22q6 18 6 20q-12 24 -37 49q-26 26 -53 43q-32 20 -59 31q-30 12 -56 12q-41 0 -67 -26q-20 -20 -46 -74q-24 -49 -46 -119q-18 -57 -35 -133q-14 -63 -14 -119z" />
<glyph unicode="A" horiz-adv-x="1292" d="M-41 0l6 84l51 12q38 11 60 24q25 14 50 51q26 37 57 114t81 207l240 663v86l252 74l387 -1137q22 -60 98 -76l80 -18l6 -84h-625l7 84l79 12q33 5 48 16q17 12 18 34v9q0 24 -8 55q-10 39 -33 103l-37 113h-418l-26 -84q-36 -112 -36 -168v-11q4 -56 62 -67l68 -12 l6 -84h-473zM389 526h356l-163 516h-19z" />
<glyph unicode="B" horiz-adv-x="1261" d="M74 0l6 82l74 8q40 5 54 13q15 9 15 26v1024q0 16 -13 23q-15 8 -65 14l-65 8l-6 82h569q273 0 391 -77q117 -77 117 -210q0 -65 -29 -120t-75 -95q-44 -38 -111 -67q-61 -26 -135 -37v-10q184 -21 289 -105q104 -83 104 -219q0 -160 -138 -250t-438 -90h-544zM494 102 l112 -22l21 2q60 0 108 17q53 19 89 49q39 33 60 79q21 47 21 107q0 73 -25 123q-26 51 -71 86t-108 51q-61 16 -134 16h-73v-508zM494 696l110 2q125 5 190 73q66 69 66 169q0 112 -69 183t-211 71h-86v-498z" />
<glyph unicode="C" horiz-adv-x="1454" d="M88 621q0 158 55 284q55 127 154 217q102 93 231 139q134 48 289 48q95 0 182 -17q88 -17 127 -32l189 45v-457h-141l-87 299q-57 29 -116 45q-60 16 -137 16q-106 0 -191 -41q-84 -41 -141 -114t-87 -176q-30 -102 -30 -226q0 -133 30 -241q31 -111 88 -186 q60 -79 143 -118q84 -40 194 -40q63 0 121 13q59 13 106 36q0 4 16 49q34 97 37 104q1 2 54 154h149l-39 -422l-135 27q-63 -24 -147 -41q-92 -19 -191 -19q-155 0 -289 42q-132 41 -229 125q-97 83 -151 205q-54 121 -54 282z" />
<glyph unicode="D" horiz-adv-x="1470" d="M74 0l6 82l74 8q40 5 54 13q15 9 15 26v1024q0 16 -13 23q-15 8 -65 14l-65 8l-6 82l538 8h15q171 0 306 -43q142 -45 242 -128q99 -82 153 -197q54 -114 54 -250q0 -131 -50 -254q-50 -122 -148 -213q-101 -93 -243 -148q-143 -55 -331 -55h-536zM494 115l147 -31 q105 1 189 44t141 115t87 170q29 94 29 208q0 132 -32 234q-33 105 -99 180q-67 76 -163 117q-99 42 -232 42h-67v-1079z" />
<glyph unicode="E" horiz-adv-x="1314" d="M74 0l6 82l74 8q40 5 54 13q15 9 15 26v1024q0 16 -13 23q-15 8 -65 14l-65 8l-6 82h1112v-422h-139l-46 170q-16 61 -34 87q-21 32 -64 48q-43 17 -117 21q-65 4 -196 4h-96v-496h51q92 0 129 11q41 12 57 55l49 139h107l-47 -496h-103l-20 131q-2 19 -9 32 q-8 15 -27 22q-21 8 -53 11q-35 3 -89 3h-45v-508h100q118 0 203 5q73 4 121 22q44 16 68 48q23 31 42 85l45 151h148l-39 -403h-1108z" />
<glyph unicode="F" horiz-adv-x="1228" d="M74 0l6 82l74 8q40 5 54 13q15 9 15 26v1024q0 16 -13 23q-15 8 -65 14l-65 8l-6 82h1081v-422h-139l-43 170q-16 53 -38 88q-21 33 -65 48q-45 16 -116 20q-65 4 -195 4h-65v-518h61q88 0 128 10q42 10 58 55l50 139h106l-47 -495h-102l-21 131q-1 16 -10 32 q-7 13 -27 21t-52 11q-46 4 -89 4h-55v-453q0 -16 14 -23q15 -8 61 -12l111 -8l6 -82h-612z" />
<glyph unicode="G" horiz-adv-x="1501" d="M88 623q0 160 58 286q58 127 159 216q104 91 235 137q135 47 283 47q96 0 181 -17t122 -32l181 45v-451h-152l-80 293q-52 29 -113 45t-137 16q-98 0 -179 -42t-139 -115q-59 -74 -90 -175q-32 -104 -32 -221q0 -277 112 -434q110 -155 320 -155q55 0 112 12q56 12 91 33 v344q0 16 -13 23q-11 6 -61 11l-86 9l-6 82h582l-6 -82l-76 -9q-41 -5 -55 -13q-15 -9 -15 -25v-291l125 -13l4 -61q-64 -28 -127 -46q-80 -23 -152 -38q-86 -18 -165 -26q-84 -9 -162 -9q-163 0 -295 46t-227 132t-146 207q-51 122 -51 271z" />
<glyph unicode="H" horiz-adv-x="1546" d="M74 0l6 82l74 8q40 5 54 13q15 9 15 26v1024q0 16 -13 23q-15 8 -65 14l-65 8l-6 82h571l-6 -82l-74 -8q-43 -4 -57 -13q-14 -8 -14 -26v-446h559v450q0 17 -15 24q-13 6 -61 11l-70 8l-6 82h574l-7 -82l-75 -8q-41 -5 -55 -13q-15 -9 -15 -26v-1024q0 -16 13 -23 q15 -8 65 -14l67 -8l7 -82h-574l6 82l74 6q43 4 57 14q15 10 15 27v475h-559v-479q0 -16 14 -23q15 -8 61 -12l70 -8l6 -82h-571z" />
<glyph unicode="I" horiz-adv-x="763" d="M76 0l6 82l94 8q72 8 72 39v1024q0 15 -15 23q-17 8 -63 14l-88 8l-6 82h614l-6 -82l-96 -8q-42 -5 -56 -13t-14 -26v-1026q0 -16 13 -23t61 -12l92 -8l6 -82h-614z" />
<glyph unicode="J" horiz-adv-x="903" d="M6 133q0 53 35 85t88 32q33 0 59 -11q31 -13 58 -40q49 -49 67 -150h2q33 23 52 50q20 28 32 76q14 54 18 113q5 73 5 161v706q0 17 -13 24q-11 6 -61 11l-110 8l-7 82h621l-6 -82l-82 -8q-72 -8 -72 -39v-576q0 -165 -29 -277q-31 -117 -86 -189q-57 -74 -139 -108 q-81 -34 -184 -34q-49 0 -98 13q-45 12 -79 34q-33 22 -52 53q-19 32 -19 66z" />
<glyph unicode="K" horiz-adv-x="1390" d="M74 0l6 82l74 8q40 5 54 13q15 9 15 26v1024q0 16 -13 23q-15 8 -65 14l-65 8l-6 82h571l-6 -82l-74 -8q-43 -4 -57 -13q-14 -8 -14 -26v-535l346 355q55 55 78 91q25 38 29 62q5 26 -9 40q-16 16 -43 22l-70 12l-6 82h557l-6 -82l-80 -16q-58 -12 -114 -48 q-58 -38 -134 -112l-245 -240l393 -583q35 -52 64 -75t75 -34l49 -8l6 -82h-557l7 82l47 14q23 6 21 27q-2 22 -17 49l-273 430l-118 -113v-364q0 -16 14 -23q15 -8 61 -12l70 -8l6 -82h-571z" />
<glyph unicode="L" horiz-adv-x="1185" d="M74 0l6 82l74 10q40 5 54 13q15 9 15 26v1020q0 16 -13 23q-15 8 -65 14l-65 10l-6 82h579l-6 -82l-82 -10q-43 -4 -57 -13q-14 -8 -14 -26v-1057h34q114 0 192 5q68 4 111 22q42 17 61 48q20 32 38 85l51 168h145l-41 -420h-1011z" />
<glyph unicode="M" horiz-adv-x="1830" d="M41 0l6 80l105 16q14 1 28 12q12 9 23 47t18 115q10 106 15 219l28 555q1 9 1 17q0 42 -21 72q-24 34 -66 45l-108 20l-7 82h562l284 -901h15l288 901h545l-6 -82l-127 -12q-25 -1 -38 -22q-11 -18 -11 -40l16 -643q3 -78 10 -200q4 -72 14 -116q9 -41 20 -53 q13 -15 26 -16l104 -16l7 -80h-603l7 80l104 16q14 1 25 19q11 17 15 57t6 116v32q0 67 -3 161l-18 664h-19l-371 -1104h-178l-342 1071h-22l-31 -623q-6 -135 -9 -213q-2 -38 -1.5 -67.5t1.5 -49.5q3 -39 12 -50q10 -12 26 -13l112 -16l6 -80h-448z" />
<glyph unicode="N" horiz-adv-x="1501" d="M49 0l6 82l97 20q21 4 37 17t26 52q11 41 15 119q6 106 6 220v526q0 54 -21 84q-22 31 -55 47l-92 31l-7 82h422l674 -940h17v428q0 131 -5 219q-5 84 -13 121q-9 41 -24 53q-16 13 -38 17l-109 20l-6 82h483l-6 -82l-96 -20q-19 -4 -37 -17q-17 -12 -27 -52 q-10 -41 -15 -120q-5 -88 -5 -221v-784h-189l-735 1017h-14v-491q0 -148 4 -219q5 -84 13 -121q9 -39 25 -52q14 -11 36 -16l110 -20l6 -82h-483z" />
<glyph unicode="O" d="M88 627q0 148 55 273q55 124 151 216q94 90 222 141q130 52 268 52q154 0 280 -48q123 -47 217 -136q90 -85 140 -209q49 -120 49 -269t-55 -272q-55 -125 -150 -216q-95 -92 -222 -142t-269 -50q-153 0 -279 48q-122 47 -217 135q-92 86 -141 207q-49 120 -49 270z M383 651q0 -139 32 -252q31 -109 87 -185q55 -75 128 -114q72 -39 154 -39q80 0 152 36q71 35 124 107q53 71 83 176q31 109 31 245q0 140 -32 251q-31 108 -86 184q-53 74 -127 114q-70 38 -155 38q-83 0 -152 -35q-72 -37 -124 -107q-55 -74 -84 -175q-31 -109 -31 -244z " />
<glyph unicode="P" horiz-adv-x="1228" d="M74 0l6 82l74 8q40 5 54 13q15 9 15 26v1024q0 16 -13 23q-15 8 -65 14l-65 8l-6 82h575q130 0 229 -27t164 -73t100 -113q34 -65 34 -143q0 -100 -44 -180t-120 -132q-81 -55 -173 -81q-97 -27 -206 -27q-23 0 -71 2q-35 1 -68 6v-387q0 -16 14 -23q15 -8 61 -12l99 -8 l6 -82h-600zM494 606q20 -4 62 -10q28 -4 67 -4q116 0 188 81t72 216q0 139 -72 222t-203 83h-114v-588z" />
<glyph unicode="Q" d="M88 627q0 148 55 273q55 124 151 216q94 90 222 141q130 52 268 52q154 0 280 -48q123 -47 217 -136q90 -85 140 -209q49 -120 49 -269q0 -118 -34 -220q-34 -101 -97 -186q-65 -87 -146 -144q-86 -61 -185 -93q92 -153 235 -210q114 -45 254 -45q37 0 76 3l10 -76 q-33 -10 -59 -16q-34 -8 -75 -15t-84 -12q-39 -4 -87 -4q-106 0 -192 21q-85 21 -152 61q-66 39 -123 106q-56 65 -106 152q-138 10 -253 62q-113 51 -195 137t-125 203q-44 118 -44 256zM383 651q0 -139 32 -252q31 -109 87 -185q55 -75 128 -114q72 -39 154 -39 q80 0 152 36q71 35 124 107q53 71 83 176q31 109 31 245q0 140 -32 251q-31 108 -86 184q-53 74 -127 114q-70 38 -155 38q-83 0 -152 -35q-72 -37 -124 -107q-55 -74 -84 -175q-31 -109 -31 -244z" />
<glyph unicode="R" horiz-adv-x="1300" d="M74 0l6 82l74 8q40 5 54 13q15 9 15 26v1024q0 16 -13 23q-15 8 -65 14l-65 8l-6 82h598q251 0 372 -88t121 -229q0 -125 -75 -213q-78 -91 -218 -142l267 -420q33 -45 56 -66q22 -21 54 -28l58 -12l6 -82h-395l-84 162l-218 395l-122 -2v-430q0 -16 14 -23q15 -8 61 -12 l66 -8l6 -82h-567zM494 649l124 -12q116 15 184 80t68 198q0 140 -74 210q-72 67 -192 67h-14h-53q-13 0 -43 -2v-541z" />
<glyph unicode="S" horiz-adv-x="1124" d="M106 422h136l90 -305q48 -19 109 -32q52 -11 108 -11q71 0 116 17q49 18 78 46q30 29 45 66q15 38 15 76q0 56 -23 97q-21 38 -63 69q-43 32 -96 52q-67 25 -123 44q-81 27 -155 59q-67 28 -123 75q-51 42 -82 104q-29 58 -29 145q0 77 29 144q30 70 90 122q61 53 150 85 q90 32 208 32h18q71 0 130 -7q66 -8 132 -22l109 31v-426h-129l-82 280q-55 20 -96 28q-47 9 -101 9q-117 0 -175 -54t-58 -126q0 -51 21 -87q20 -34 60 -63q34 -25 90 -47q49 -19 113 -43q98 -31 172 -63q78 -34 132 -79t85 -110q29 -61 29 -151q0 -84 -34 -156 q-35 -74 -98 -130q-62 -54 -159 -90q-93 -34 -215 -34q-126 0 -220 17q-96 17 -183 43z" />
<glyph unicode="T" horiz-adv-x="1312" d="M35 850l39 430h1183v-430h-135l-43 170q-16 57 -35 88q-21 33 -51 51q-32 19 -77 25q-46 6 -113 6h-12v-1065q0 -16 14 -23q15 -8 61 -12l101 -8l6 -82h-633l6 82l105 8q40 5 54 13q15 9 15 26v1061h-8q-63 0 -115 -5q-47 -5 -79 -23q-31 -18 -52 -49q-19 -29 -37 -85 l-47 -178h-147z" />
<glyph unicode="U" horiz-adv-x="1454" d="M57 1280h572l-6 -82l-74 -8q-43 -4 -57 -13q-15 -9 -15 -26v-688q0 -187 86 -279t242 -92q160 0 245 91t85 280v305q0 131 -5 219q-5 84 -13 121q-9 42 -23 53q-16 13 -37 17l-111 20l-6 82h485l-6 -82l-96 -20q-22 -4 -38 -17q-15 -12 -25 -52q-12 -45 -16 -120 q-5 -88 -5 -221v-338q0 -104 -35 -194q-34 -88 -101 -150q-64 -60 -161 -95q-93 -34 -211 -34q-117 0 -214 27t-166 81t-106 136q-38 84 -38 190v762q0 16 -13 23q-15 8 -65 14l-66 8z" />
<glyph unicode="V" horiz-adv-x="1316" d="M-29 1280h611l-7 -84l-79 -12q-32 -5 -46 -16q-17 -14 -17 -38q0 -22 11 -60q11 -36 33 -103l252 -746h27l211 621q33 104 43 159q8 44 8 78q0 14 -1 26q-4 39 -27 58q-22 19 -56 25l-62 8l-6 84h500l-6 -84l-49 -12q-37 -7 -62 -23q-26 -16 -51 -54q-28 -42 -57 -116 q-46 -117 -80 -209l-285 -782h-252l-383 1102q-12 33 -29 50q-19 19 -57 26l-78 18z" />
<glyph unicode="W" horiz-adv-x="1957" d="M-35 1280h625l-6 -84l-84 -12q-24 -4 -38 -17q-16 -15 -16 -42q0 -22 8 -59q8 -35 27 -99l207 -703h17l237 699l-41 139q-18 61 -86 76l-84 18l-6 84h621l-7 -84l-88 -12q-25 -5 -37 -17t-14 -37v-6q0 -23 6 -58q4 -24 27 -99l203 -703l14 2l154 516q36 123 50 194 q12 62 12 103v15q-3 41 -25 62q-23 21 -58 28l-72 12l-6 84h510l-4 -84l-47 -14q-32 -10 -64 -28q-30 -17 -54 -55q-26 -41 -54 -114q-33 -85 -70 -203l-254 -782h-206l-250 809h-13l-280 -809h-211l-365 1102q-11 34 -28 51q-19 19 -58 25l-86 18z" />
<glyph unicode="X" horiz-adv-x="1308" d="M-2 0l6 82l82 20q44 10 86 55q44 48 86 99l279 356l-312 443q-45 61 -67 85q-29 32 -49 36l-86 22l-7 82h605l-7 -82l-65 -12q-49 -10 -49 -48v-6q5 -47 69 -143l131 -203h11l159 232q55 76 55 114v6q-4 37 -59 48l-59 12l-6 82h469l-6 -82l-80 -20q-20 -5 -48 -25 q-27 -19 -52 -44q-29 -29 -50 -54q-18 -21 -45 -58l-219 -282l346 -504q35 -51 61 -76q27 -25 48 -31l84 -22l6 -82h-600l6 82l65 12q49 10 49 47q0 4 -1 9q-6 44 -72 139l-160 250h-10l-172 -254q-63 -86 -63 -129q0 -4 1 -8q7 -42 66 -54l59 -12l6 -82h-491z" />
<glyph unicode="Y" horiz-adv-x="1241" d="M-25 1280h584l-6 -84l-72 -12q-18 -4 -31 -17t-11 -37q1 -22 17 -64q13 -36 48 -99l182 -328h14l183 326q61 104 61 153v6q-5 50 -65 60l-58 12l-6 84h451l-6 -84l-41 -12q-24 -8 -47 -19q-26 -13 -46 -33q-26 -26 -53 -63q-25 -35 -67 -102l-244 -422v-420q0 -16 13 -23 t61 -12l100 -8l6 -82h-633l6 82l105 8q72 8 72 39v389l-351 584q-18 28 -42 48t-58 30l-59 16z" />
<glyph unicode="Z" horiz-adv-x="1241" d="M74 0v92l778 1084v10h-225q-97 0 -150 -7q-57 -7 -93 -27q-37 -20 -54 -53q-19 -37 -35 -87l-41 -158h-135v426h1050v-94l-788 -1084v-10h258q112 0 172 10q64 11 100 31q39 22 56 52q15 27 32 77l45 148h146l-43 -410h-1073z" />
<glyph unicode="[" horiz-adv-x="753" d="M188 -428v1788h529v-98h-416v-1592h416v-98h-529z" />
<glyph unicode="\" horiz-adv-x="571" d="M10 1399h109l442 -1796h-108z" />
<glyph unicode="]" horiz-adv-x="753" d="M37 -330h416v1592h-416v98h528v-1788h-528v98z" />
<glyph unicode="^" horiz-adv-x="819" d="M117 1055l237 403h111l237 -403h-75l-215 215h-4l-215 -215h-76z" />
<glyph unicode="_" horiz-adv-x="962" d="M-18 -109l6 109h987l6 -109h-999z" />
<glyph unicode="`" horiz-adv-x="817" d="M86 1427h260l195 -372h-92z" />
<glyph unicode="a" horiz-adv-x="1003" d="M61 684q0 44 41 94q38 46 106 89q65 41 146 66t162 25q86 0 147 -19t103 -67q41 -47 59 -124q14 -62 14 -141q0 -25 -1 -52l-15 -338v-7q0 -40 11 -60q12 -21 40 -21q34 0 97 51l33 -53q-45 -64 -112 -114q-64 -48 -128 -48q-62 0 -111 39q-48 38 -53 131h-10 q-63 -75 -122 -119q-64 -47 -146 -47q-48 0 -96 17q-46 16 -81 47q-33 29 -55 76q-20 43 -20 102q0 126 131 209q128 81 399 149v17q1 132 -51 192t-152 60q-53 0 -97 -15t-44 -24q0 -4 8 -14q17 -20 18 -22q10 -15 17 -33q8 -21 8 -44q0 -38 -33 -73q-32 -33 -88 -33 q-54 0 -89 29q-36 30 -36 75zM297 268q0 -65 42 -98t97 -33q40 0 81 23q42 24 71 55l8 281q-85 -22 -150 -53q-52 -25 -91 -55q-33 -26 -46 -58q-12 -30 -12 -62z" />
<glyph unicode="b" horiz-adv-x="1130" d="M8 1253l6 60l373 114v-634h10q56 64 131 109q74 44 160 44q83 0 153 -35q67 -34 117 -94q51 -62 77 -140q28 -84 28 -173q0 -106 -35 -203q-34 -96 -101 -170q-67 -75 -161 -118q-96 -44 -215 -44q-26 0 -54 4q-31 5 -66 12q-34 7 -67 16q-29 7 -65 22h-2l-121 -66h-29 v1178q0 53 -34 69zM387 186q50 -58 102 -92q49 -33 109 -33q80 0 143 93q62 92 62 260q0 166 -68 261t-174 95q-54 0 -99 -22t-75 -52v-510z" />
<glyph unicode="c" horiz-adv-x="958" d="M68 432q0 117 38 211q39 95 109 167q69 71 163 110q91 38 202 38q152 0 235 -60q82 -60 82 -148q0 -73 -41 -100q-40 -27 -90 -27q-39 0 -65 19q-27 20 -44 50q-16 30 -21 70q-1 14 -1 28q0 25 4 50v4q-29 20 -84 20q-99 0 -166 -85t-67 -251q0 -87 20 -154 q22 -72 58 -122q37 -50 92 -80q53 -29 116 -29q72 0 138 33q69 34 120 96l45 -24q-51 -135 -156 -207t-255 -72q-93 0 -171 34q-81 35 -138 95q-58 61 -91 147q-32 83 -32 187z" />
<glyph unicode="d" horiz-adv-x="1146" d="M70 422q0 110 35 202q36 95 103 168q66 72 164 114t220 42q28 0 73 -5q37 -4 76 -15h2v268q0 55 -34 70l-123 43l8 59l389 49v-1241q0 -30 7 -48q8 -20 28 -26l104 -32l-6 -60l-373 -41v148h-6q-54 -65 -131 -105q-79 -41 -157 -41q-88 0 -156 34q-71 35 -119 94 q-50 60 -77 144q-27 83 -27 179zM328 506q0 -82 18 -151q17 -66 50 -116q31 -48 77 -75q45 -27 100 -27q47 0 91 21q38 19 79 51v516q-50 58 -101 94q-49 35 -107 35q-91 0 -149 -91t-58 -257z" />
<glyph unicode="e" horiz-adv-x="989" d="M68 432q0 114 37 209t106 167q67 70 160 111q88 39 198 39q75 0 138 -21q59 -20 109 -63q46 -40 72 -99q25 -57 25 -134q0 -25 -3 -55q-3 -32 -9 -58l-582 9v-23q0 -81 22 -153q20 -66 59 -116q36 -46 92 -75q52 -27 116 -27q70 0 136 33q69 34 120 96l45 -24 q-51 -135 -156 -207t-253 -72q-93 0 -171 34q-81 35 -138 95q-58 61 -91 147q-32 83 -32 187zM322 606q74 0 178 2q43 0 64 1t57 1h38h2h2h9q1 21 1 40q0 96 -33 151q-40 67 -110 67q-78 0 -137 -65t-71 -197z" />
<glyph unicode="f" horiz-adv-x="696" d="M12 801l13 117h141l4 47q6 100 47 187q39 82 106 146q65 62 146 96q79 33 174 33q51 0 89 -11q43 -12 74 -33q32 -22 50 -51q18 -30 18 -64q0 -61 -36 -91q-38 -32 -84 -32q-59 0 -99 40t-61 130l-2 8l-60 4q-57 -39 -87 -118q-29 -77 -29 -216v-75h280l-14 -125h-266 v-670q0 -18 14 -25q15 -8 64 -12l84 -6l6 -80h-533l6 80l49 6q70 6 70 39v661z" />
<glyph unicode="g" horiz-adv-x="1011" d="M14 -305q0 91 57 144t144 85v8q-65 21 -104 67t-39 105q0 35 14 66q15 33 39 60q26 29 57 49q30 19 72 32q0 6 2 8l2 3q-77 34 -133 102q-55 67 -55 186q0 70 25 132q25 61 76 111q50 48 124 77q72 28 172 28q77 0 141 -16q69 -17 119 -43h297l-4 -160l-201 35v-10 q13 -18 26 -51q11 -27 11 -74q0 -76 -29 -142q-29 -65 -82 -112q-54 -48 -128 -73t-166 -25q-63 0 -115 12q-16 -11 -39 -33q-23 -23 -23 -45q0 -92 129 -92q64 0 133 3t123 3q68 0 121 -20q56 -21 97 -59q40 -37 64 -90q24 -52 24 -116q0 -78 -41 -151q-40 -71 -115 -126 q-76 -56 -178 -85q-109 -31 -232 -31q-172 0 -279 64q-106 64 -106 174zM217 -240q0 -88 76 -146t207 -58q58 0 108 15q49 15 85 42q37 28 57 63q20 36 20 78q0 66 -33 105t-110 49q-40 7 -101 7h-15q-50 -1 -210 -1q-20 -11 -52 -51t-32 -103zM307 635q0 -162 70 -232 q34 -34 84 -34q70 0 104 34q58 58 58 209q0 158 -66 224q-38 41 -90 41q-73 0 -117 -61q-43 -59 -43 -181z" />
<glyph unicode="h" horiz-adv-x="1153" d="M20 1253l7 60l374 114v-620h11q84 66 168 109q82 42 168 42q46 0 93 -18q46 -18 81 -53q77 -77 77 -236v-526q0 -15 15 -24t69 -15l43 -6l7 -80h-490l6 80l41 6q47 5 58 13q12 9 12 26v401q0 80 -11 125q-13 52 -35 77q-24 27 -57 39q-30 11 -75 11q-56 0 -103 -20 q-51 -22 -78 -43v-273v-319q0 -17 15 -25t63 -12l53 -6l7 -80h-504l6 80l49 6q70 6 70 39v1010q0 51 -35 69z" />
<glyph unicode="i" horiz-adv-x="606" d="M55 795l2 63l367 100v-835q0 -18 14 -25q15 -8 64 -12l45 -6l6 -80h-492l7 80l47 6q69 6 69 39v491q0 53 -4 78q-5 29 -13 46q-9 18 -27 27q-19 9 -44 15zM141 1251q0 63 40 107q40 45 106 45q65 0 106 -45q41 -46 41 -107q0 -60 -41 -106q-40 -45 -106 -45 q-65 0 -106 45q-40 44 -40 106z" />
<glyph unicode="j" horiz-adv-x="573" d="M-162 -393q0 52 37 83t82 31q59 0 96 -37t60 -94q35 15 48 100q13 82 13 201v725q0 53 -4 78q-5 29 -13 46q-9 18 -27 27q-19 9 -44 15l-41 13l2 63l367 100v-960q-7 -126 -46 -228q-37 -98 -94 -167q-58 -70 -123 -103q-70 -35 -137 -35q-77 0 -127 38q-49 37 -49 104z M131 1251q0 63 40 107q41 45 105 45q66 0 107 -45q41 -46 41 -107q0 -60 -41 -106q-40 -45 -107 -45q-64 0 -105 45q-40 44 -40 106z" />
<glyph unicode="k" horiz-adv-x="1085" d="M20 1253l7 60l374 114v-948l82 76q89 79 143 134q54 54 54 95q0 28 -23 43q-22 14 -51 19l-22 2l-6 80h471l-7 -80l-43 -10q-53 -11 -122 -60q-61 -43 -170 -141l-58 -53l264 -408q27 -38 52 -60q24 -21 57 -28l43 -8l6 -80h-346l-96 184l-150 256l-78 -73v-244 q0 -16 14 -24q12 -7 58 -13l39 -6l6 -80h-483l6 80l49 6q70 6 70 39v1010q0 51 -35 69z" />
<glyph unicode="l" horiz-adv-x="595" d="M39 1253l6 60l373 114v-1304q0 -18 14 -25q15 -8 64 -12l43 -6l6 -80h-490l6 80l48 6q69 6 69 39v1010q0 52 -35 69z" />
<glyph unicode="m" horiz-adv-x="1742" d="M49 795l2 63l367 100v-149h8q86 71 163 110t163 39q50 0 92 -17q45 -18 82 -52q35 -35 57 -94h8q173 163 344 163q49 0 92 -17q45 -18 82 -52q41 -41 59 -99q17 -55 17 -139v-526q0 -16 14 -24q15 -9 70 -15l43 -6l6 -80h-487l6 80l39 6q46 5 57 13q13 10 13 26v401 q0 74 -14 125t-37 77q-24 27 -55 39q-29 11 -71 11q-50 0 -91 -20q-48 -23 -77 -47v-60v-526q0 -15 15 -24t69 -15l39 -6l6 -80h-483l6 80l39 6q47 5 58 13q12 9 12 26v401q0 77 -13 125q-14 51 -37 77q-24 27 -56 39q-29 11 -70 11q-50 0 -91 -20q-48 -23 -77 -43v-199 v-393q0 -18 14 -25q15 -8 64 -12l49 -6l6 -80h-498l6 80l50 6q69 6 69 39v491q0 53 -4 78q-5 29 -13 46q-9 18 -27 27q-19 9 -44 15z" />
<glyph unicode="n" horiz-adv-x="1173" d="M49 795l2 63l367 100v-151h10q84 66 168 109q82 42 168 42q46 0 93 -18q46 -18 81 -53q78 -78 78 -236v-526q0 -16 14 -24q15 -9 70 -15l43 -6l6 -80h-487l6 80l39 6q46 5 57 13q12 9 12 26v401q0 80 -11 125q-13 52 -35 77q-24 28 -56 39q-30 11 -76 11q-54 0 -101 -20 q-53 -22 -79 -43v-273v-319q0 -18 14 -25q15 -8 64 -12l55 -6l6 -80h-504l6 80l50 6q69 6 69 39v491q0 53 -4 78q-5 29 -13 46q-9 18 -27 27q-19 9 -44 15z" />
<glyph unicode="o" horiz-adv-x="1124" d="M70 457q0 105 40 195q41 93 108 160q69 69 163 108q92 38 205 38q111 0 197 -37q88 -38 148 -104q61 -68 92 -152q32 -88 32 -186q0 -105 -38 -198t-107 -162q-71 -71 -162 -110q-93 -40 -205 -40q-111 0 -199 39q-85 38 -149 106q-63 68 -94 154q-31 87 -31 189z M336 512q0 -139 20 -236q21 -101 74 -157q20 -20 56 -38t83 -18q96 0 158 96q61 94 61 255q0 132 -23 233q-24 106 -73 156q-23 25 -54 41q-34 18 -81 18q-98 0 -160 -92q-61 -91 -61 -258z" />
<glyph unicode="p" horiz-adv-x="1144" d="M29 -504l6 80l57 6q70 6 70 39v995q0 53 -4 78q-4 26 -14 46q-9 19 -26 27q-19 9 -44 15l-39 13l2 63l366 100v-165h11q56 64 131 109q74 44 160 44q82 0 152 -35q69 -34 118 -94t76 -140q26 -78 26 -173q0 -106 -35 -203t-99 -170q-65 -74 -157 -118q-93 -44 -208 -44 q-42 0 -92 8q-37 6 -78 19h-5v-377q0 -17 15 -25t63 -12l70 -6l6 -80h-528zM403 186q47 -55 102 -92q49 -33 107 -33q42 0 79 24q39 25 67 69q29 46 45 110t16 150q0 168 -68 261q-69 95 -176 95q-54 0 -98 -22t-74 -52v-510z" />
<glyph unicode="q" horiz-adv-x="1126" d="M70 422q0 110 35 202q36 95 103 168q66 72 164 114t220 42q52 0 113 -13q64 -14 116 -36h2l138 59h22v-1339q0 -14 13 -23q14 -9 67 -14l47 -6l4 -80h-524l6 80l78 6q39 4 55 14q14 8 14 25v496h-6q-54 -65 -131 -105q-79 -41 -157 -41q-88 0 -156 34q-71 35 -119 94 q-50 60 -77 144q-27 83 -27 179zM328 506q0 -82 18 -151q17 -66 50 -116q31 -48 77 -75q45 -27 100 -27q47 0 90 21q41 20 80 51v516q-50 58 -101 94q-49 35 -107 35q-91 0 -149 -91t-58 -257z" />
<glyph unicode="r" horiz-adv-x="845" d="M49 795l2 63l367 100v-256h10q71 120 132 187q63 69 142 69q69 0 107 -38q39 -39 39 -105q0 -53 -32 -94t-89 -41q-49 0 -78 23q-29 24 -51 59q-42 -28 -91 -74q-50 -47 -89 -113v-452q0 -18 14 -25q15 -8 64 -12l69 -6l6 -80h-516l6 80l48 6q69 6 69 39v491q0 53 -4 78 q-5 29 -13 46q-9 18 -27 27q-19 9 -44 15z" />
<glyph unicode="s" horiz-adv-x="884" d="M84 291h139l49 -187q19 -10 72 -30q40 -15 84 -15q74 0 127 41t53 107q0 35 -19 58t-51 43q-33 20 -74 35q-11 4 -85 32q-71 26 -109 44q-54 25 -91 57q-38 33 -63 82q-24 48 -24 116q0 56 25 111q25 54 70 92q46 38 114 61q69 23 154 23q63 0 125 -10q60 -10 96 -23 l90 22l10 -303h-129l-55 180q-30 18 -66 29q-38 12 -77 12q-70 0 -113 -34t-43 -89q0 -37 14 -59q16 -26 43 -43q29 -18 70 -35q46 -19 92 -35q59 -22 110 -45q56 -25 95 -58q41 -35 66 -82q26 -49 26 -116q0 -60 -27 -116q-28 -57 -76 -98q-47 -40 -125 -65 q-75 -24 -171 -24q-77 0 -168 13q-86 12 -148 36z" />
<glyph unicode="t" horiz-adv-x="763" d="M8 801l4 71l148 129l145 132l96 -13l-2 -202h334l-14 -125h-320l-10 -451v-9q0 -112 46 -154q49 -44 124 -44q43 0 86 11q51 13 86 32l8 -59q-57 -66 -141 -108t-178 -42q-120 0 -193 73q-69 69 -69 219v9l10 516z" />
<glyph unicode="u" horiz-adv-x="1146" d="M18 928h383l-12 -527q0 -79 11 -123q13 -50 35 -77q23 -28 57 -40q30 -11 75 -11q56 0 103 20q51 22 78 43v324v270q0 17 -15 24q-18 9 -63 13l-60 4l-8 80h385v-752q0 -27 8 -48q8 -20 27 -26l104 -32l-6 -60l-372 -41v152h-11q-87 -69 -168 -110q-83 -42 -168 -42 q-44 0 -93 19q-46 18 -81 53q-77 77 -77 235l2 529q0 20 -16 25q-28 8 -70 14l-41 4z" />
<glyph unicode="v" horiz-adv-x="999" d="M-35 928h514l-6 -80l-65 -17q-39 -9 -39 -45q0 -14 6 -32l198 -543l183 504q14 41 14 67q0 7 -1 13q-4 26 -44 32l-68 23l-6 78h385l-6 -78l-59 -12q-41 -6 -62 -35t-45 -88l-278 -733h-164l-307 776q-15 34 -34 49q-19 14 -58 22l-50 19z" />
<glyph unicode="w" horiz-adv-x="1517" d="M-29 928h500l-6 -80l-59 -17q-44 -9 -44 -46q0 -15 7 -33l170 -535l172 500l-15 41q-16 36 -34 49q-20 14 -58 22l-53 19l-6 80h506l-7 -78l-59 -19q-43 -9 -43 -47q0 -14 6 -32l176 -537l150 492q13 42 13 68q0 10 -2 18q-7 28 -52 38l-55 19l-7 78h383l-6 -78l-55 -16 q-39 -7 -63 -33q-24 -25 -46 -86l-243 -733h-158l-221 600l-215 -600h-158l-278 776q-15 35 -33 50q-19 16 -53 23l-48 17z" />
<glyph unicode="x" horiz-adv-x="1017" d="M-16 0l6 80l61 16q20 4 37 12q18 8 33 19q17 12 35 32q3 3 18.5 19t24.5 27l198 237l-215 289q-43 54 -63 69q-26 20 -62 31l-49 17l-4 80h512l-6 -78l-29 -8q-49 -11 -49 -38q0 -24 37 -75l102 -149h7l110 145q39 46 42 77q2 15 -9.5 25.5t-36.5 16.5l-29 6l-6 78h379 l-6 -78l-61 -19q-45 -8 -74 -31q-32 -25 -76 -77l-180 -215l229 -311q41 -51 67 -69q31 -22 60 -32l41 -16l6 -80h-512l8 80l29 8q48 11 52 33q1 2 1 5q0 24 -37 73l-118 174h-6l-129 -168q-43 -57 -43 -83t47 -36l28 -6l6 -80h-376z" />
<glyph unicode="y" horiz-adv-x="989" d="M-35 928h508l-6 -80l-61 -17q-41 -8 -41 -42q0 -15 8 -35l217 -512l166 473q14 37 14 62q0 11 -3 19q-9 25 -48 31l-68 23l-6 78h391l-6 -78l-61 -12q-40 -6 -61 -35q-24 -32 -46 -88l-246 -643l-116 -344q-46 -134 -106 -200q-59 -65 -150 -65q-67 0 -111 37 q-45 38 -45 92q0 47 29 85t86 38q55 0 85 -26q31 -26 46 -60q25 11 45 44t43 106l53 155v13l-364 811q-15 33 -32 47q-15 13 -59 24l-47 19z" />
<glyph unicode="z" horiz-adv-x="1001" d="M55 0v78l574 760l-84 -2q-53 -1 -133 -8q-52 -5 -81 -19q-30 -15 -45 -39q-17 -27 -28 -65l-49 -148h-117v371h823v-78l-577 -760l117 2q85 1 144 8q50 6 88 22q32 14 54 41q19 23 41 64l76 148h117l-88 -375h-832z" />
<glyph unicode="{" horiz-adv-x="714" d="M53 467l23 61q120 15 186 49q68 35 68 115q0 46 -18 89q-34 82 -38 91q-9 21 -37 99q-18 51 -18 106q0 135 109 218q109 84 331 94v-78q-120 -10 -173 -59q-52 -48 -52 -119q0 -50 18 -95q1 -3 15 -38.5t22 -54.5q16 -36 38 -99q18 -51 18 -113q0 -49 -24 -93 q-25 -45 -65 -78q-39 -32 -100 -56q-58 -23 -127 -29v-24q67 -7 127 -31q61 -24 100 -56q40 -33 65 -78q24 -44 24 -93q0 -60 -18 -111q-22 -63 -38 -98q-4 -9 -37 -94q-18 -47 -18 -95q0 -72 52 -121q51 -48 173 -59v-74q-224 11 -331 92q-109 83 -109 218q0 57 18 107 q28 77 37 97q4 9 38 91q18 44 18 90q0 82 -63 116q-64 35 -191 47z" />
<glyph unicode="|" horiz-adv-x="563" d="M231 -322v1797h101v-1797h-101z" />
<glyph unicode="}" horiz-adv-x="714" d="M63 -383q123 11 174 59q52 49 52 121q0 49 -18 95q-27 69 -38 94q-11 24 -37 98q-18 51 -18 111q0 49 24 93t64 78q38 32 100 56t128 31v24q-68 6 -128 29q-62 24 -100 56q-40 34 -64 78t-24 93q0 62 18 113q26 75 37 99q9 21 38 93q18 45 18 95q0 71 -52 119 q-53 49 -174 59v78q222 -10 331 -94q108 -83 108 -218q0 -55 -18 -106q-24 -68 -38 -99q-8 -18 -21 -51t-16 -40q-18 -43 -18 -89q0 -80 68 -115q67 -34 188 -49l23 -61l-23 -66q-128 -12 -192 -47t-64 -116q0 -46 18 -90q3 -7 16 -40t21 -51q14 -31 38 -97q18 -50 18 -107 q0 -135 -108 -218q-107 -81 -331 -92v74z" />
<glyph unicode="~" horiz-adv-x="819" d="M53 371q18 147 71 212q52 64 142 64q48 0 91 -22q40 -21 84 -50q36 -24 76 -49q35 -22 65 -22q33 0 54 30q23 32 44 95h86q-16 -146 -70 -212q-53 -65 -143 -65q-44 0 -90 23q-44 22 -86 50q-48 32 -78 50q-38 23 -66 23q-34 0 -51 -31q-16 -30 -39 -96h-90z" />
<glyph unicode="&#xa1;" horiz-adv-x="602" d="M160 1165q0 60 42 102t101 42q61 0 101 -42q40 -41 40 -102q0 -58 -40 -99q-40 -42 -101 -42q-59 0 -101 42t-42 99zM170 76l109 788q2 17 24 17t27 -17l106 -788q8 -51 -25 -79q-35 -30 -106 -30h-4q-71 0 -105 30q-34 29 -26 79z" />
<glyph unicode="&#xa2;" horiz-adv-x="948" d="M70 453q0 115 40 207q42 96 109 160q70 67 163 103q90 35 198 35h33q17 0 32 -4l90 349h99l-95 -367q79 -27 119 -76q41 -50 41 -110q0 -54 -34 -85q-35 -32 -74 -32q-80 0 -113 63l-139 -538q22 -7 39 -11q19 -4 43 -4q61 0 130 33q68 33 121 96l43 -24 q-47 -125 -153 -203t-250 -78q-13 0 -23 2l-79 -307h-97l84 322q-75 18 -134 61q-60 44 -103 104q-42 59 -67 139q-23 73 -23 165zM324 528q0 -107 34 -190q35 -84 95 -131l165 641q-20 9 -30 10q-20 2 -33 2q-99 0 -165 -83t-66 -249z" />
<glyph unicode="&#xa3;" horiz-adv-x="1079" d="M49 47q143 38 199 116q57 80 57 214q0 46 -1 70q-1 32 -3 77h-225l6 94h215l-3 81q-1 27 -1 81q0 114 32 208t92 160q59 65 147 103q86 37 198 37q120 0 182 -47t62 -125q0 -56 -36 -90q-37 -35 -87 -35q-66 0 -100 52q-34 51 -17 128q-12 11 -34 20q-21 9 -50 9 q-32 0 -58 -13q-29 -14 -49 -49q-19 -33 -32 -97q-13 -65 -13 -156q0 -20 4 -114q4 -91 5 -153h301l6 -94h-307q-1 -17 -8 -94q-4 -42 -14 -90q-10 -46 -22 -78q-14 -36 -30 -59l-2 -10q9 -2 30 -7t34 -8q10 -2 34.5 -7.5t38.5 -8.5q4 -1 31.5 -7t42.5 -8q38 -6 67 -6 q101 0 148 47q27 24 45 62q20 41 35 84l53 -15q10 -76 -2 -145q-12 -68 -45 -117q-32 -48 -87 -77t-128 -29q-65 0 -115 20q-56 22 -98 49q-40 26 -80 60q-41 36 -61 49q-63 -67 -151 -116q-87 -48 -177 -66z" />
<glyph unicode="&#xa4;" horiz-adv-x="1083" d="M39 442l6 97h113q-2 22 -2 32v33q0 30 1 46t3 46h-121l6 97h129q22 104 75 201q49 91 122 156q72 64 161 100q90 36 195 36q134 0 217 -50q82 -49 82 -124q0 -54 -33 -85q-34 -32 -82 -32q-62 0 -100 53q-37 52 -43 117q-18 11 -39 18q-20 7 -49 7q-58 0 -107 -30 q-50 -30 -87 -82q-38 -52 -63 -126t-36 -159h412l6 -97h-426v-39q0 -63 6 -118h414l6 -97h-404q39 -152 120 -231q82 -80 206 -80q85 0 155 39q72 40 126 98l41 -26q-50 -119 -152 -197t-246 -78q-188 0 -314 126q-127 127 -167 349h-131z" />
<glyph unicode="&#xa5;" horiz-adv-x="1253" d="M4 1280h574l-7 -82l-71 -12q-41 -8 -36 -60q4 -51 64 -155l168 -307h11l174 315q59 105 59 151t-63 58l-46 10l-6 82h424l-6 -82l-37 -12q-24 -7 -49 -20q-24 -13 -46 -32t-51 -58q-36 -48 -63 -95l-204 -356h325l6 -95h-362v-161h356l6 -95h-358v-122q0 -42 47 -50 l131 -22l6 -80h-622l6 80l131 22q47 8 47 50v122h-352l6 95h350v161h-356l6 95h309l-303 489q-17 23 -37 39q-23 18 -53 25l-72 20z" />
<glyph unicode="&#xa7;" horiz-adv-x="923" d="M57 621q0 86 46 151q45 64 118 102q-63 74 -63 158q0 53 26 101t74 88q45 38 111 63t139 25q112 0 183 -43q73 -44 73 -121q0 -53 -35 -86t-82 -33q-58 0 -96 47q-36 45 -47 125q-15 9 -41 14q-25 5 -39 5q-53 0 -82 -32t-29 -85q0 -32 22 -62q20 -27 57 -55 q33 -25 81 -52q34 -19 94 -52q9 -5 109 -62q54 -31 96 -67q42 -37 70 -81q26 -42 26 -102q0 -84 -47 -151q-46 -66 -119 -105q64 -70 64 -155q0 -54 -28 -107q-27 -52 -75 -92q-50 -42 -115 -66q-66 -24 -145 -24q-59 0 -103 11q-48 12 -84 33t-57 51q-22 31 -22 69 q0 53 34 86q35 33 81 33q58 0 107 -49t59 -126q38 -16 78 -16q55 0 85 36q29 35 29 91q0 36 -21 64q-20 27 -57 56q-38 30 -79 53q-9 5 -95 52q-22 12 -62.5 35.5t-45.5 26.5q-54 31 -96 67q-42 37 -70 81q-27 43 -27 100zM201 723q0 -35 15 -64q14 -27 43 -54 q25 -24 64 -48q48 -30 74 -45q66 -39 138 -75t127 -85q61 43 61 113q0 35 -15 63q-15 29 -43 55q-24 22 -63 48q-33 21 -76 47q-73 43 -136 74q-70 34 -126 84q-26 -17 -45 -49q-18 -30 -18 -64z" />
<glyph unicode="&#xa8;" horiz-adv-x="819" d="M55 1241q0 57 36 100t99 43q65 0 99 -43q35 -44 35 -100t-35 -99q-35 -42 -99 -42q-63 0 -99 42t-36 99zM498 1241q0 58 33 100q34 43 98 43q66 0 100 -43q35 -44 35 -100t-35 -99q-35 -42 -100 -42q-63 0 -98 42q-33 40 -33 99z" />
<glyph unicode="&#xa9;" horiz-adv-x="1572" d="M72 637q0 153 56 281q57 130 153 228q93 94 227 153q131 57 278 57q148 0 279 -57q134 -59 227 -153q96 -98 153 -228q56 -128 56 -281q0 -151 -56 -279q-57 -131 -153 -227t-227 -153q-128 -56 -279 -56q-150 0 -278 56q-131 57 -227 153t-153 227q-56 128 -56 279z M156 637q0 -133 49 -247q50 -116 135 -203t201 -137q115 -50 245 -50q131 0 246 50q116 50 201 137t135 203q49 114 49 247q0 132 -49 248q-50 117 -135 204q-84 86 -201 138q-114 51 -246 51q-131 0 -245 -51q-117 -52 -201 -138q-86 -87 -135 -204q-49 -116 -49 -248z M395 635q0 88 32 161q33 75 87 126q57 54 130 83q72 29 161 29q61 0 104 -10q54 -13 74 -20l107 28v-282h-86l-56 174q-51 39 -151 39q-102 0 -168 -77t-66 -227q0 -72 18 -135q19 -65 50 -111q34 -50 81 -76q50 -28 111 -28q72 0 113 29l72 182h92l-25 -260l-78 16 q-34 -14 -92 -26q-50 -10 -98 -10q-107 0 -184 31q-78 32 -128 86q-52 57 -75 126q-25 75 -25 152z" />
<glyph unicode="&#xaa;" horiz-adv-x="761" d="M66 752q0 92 100 153q99 61 293 94l4 54q6 71 -42 117q-49 47 -114 47q-34 0 -60 -14t-26 -21q0 -4 17 -26q16 -20 16 -50q0 -34 -26 -57t-66 -23q-42 0 -69 24t-27 66q0 36 33 69t87 61q51 26 117 45q63 18 121 18q101 0 167 -58q65 -57 60 -147l-12 -320q-2 -49 9 -67 q12 -21 46 -21q35 0 70 23l6 -49q-28 -36 -76 -62t-102 -26q-63 0 -92 32q-32 35 -39 86h-8q-52 -54 -108 -86q-55 -32 -105 -32q-36 0 -65 11q-33 13 -56 34q-24 23 -39 54q-14 29 -14 71zM252 809q0 -45 24 -74q24 -28 66 -28q28 0 60 18q33 19 51 37l6 184 q-98 -18 -153 -53q-54 -35 -54 -84z" />
<glyph unicode="&#xab;" horiz-adv-x="1024" d="M57 391v123l467 295l25 -43l-287 -313l287 -314l-25 -43zM479 391v123l477 315l25 -43l-322 -333l322 -334l-25 -43z" />
<glyph unicode="&#xac;" horiz-adv-x="1003" d="M61 684q0 44 41 94q38 46 106 89q65 41 146 66t162 25q86 0 147 -19t103 -67q41 -47 59 -124q19 -82 13 -193l-15 -338q-1 -45 11 -67q12 -21 40 -21q34 0 97 51l33 -53q-45 -64 -112 -114q-64 -48 -128 -48q-62 0 -111 39q-48 38 -53 131h-10q-63 -75 -122 -119 q-64 -47 -146 -47q-48 0 -96 17q-46 16 -81 47q-33 29 -55 76q-20 43 -20 102q0 126 131 209q128 81 399 149v17q1 132 -51 192t-152 60q-53 0 -97 -15t-44 -24q0 -4 8 -14q17 -20 18 -22q10 -15 17 -33q8 -21 8 -44q0 -38 -33 -73q-32 -33 -88 -33q-54 0 -89 29 q-36 30 -36 75zM297 268q0 -65 42 -98t97 -33q40 0 81 23q42 24 71 55l8 281q-85 -22 -150 -53q-52 -25 -91 -55q-33 -26 -46 -58q-12 -30 -12 -62z" />
<glyph unicode="&#xad;" horiz-adv-x="681" d="M68 440l6 123h538l6 -123h-550z" />
<glyph unicode="&#xae;" horiz-adv-x="1572" d="M72 641q0 151 56 279q57 130 153 228q95 96 227 154q128 56 278 56q152 0 280 -56q130 -57 227 -154q97 -98 153 -228q55 -129 55 -279q0 -151 -55 -280q-55 -130 -153 -226q-96 -95 -227 -152q-130 -57 -280 -57q-147 0 -278 57q-133 58 -227 152q-96 96 -153 226 q-56 128 -56 280zM156 641q0 -133 49 -247q50 -116 135 -203t201 -137q115 -50 245 -50q131 0 246 50q116 50 201 137t135 203q49 114 49 247t-49 247q-50 116 -135 203q-84 86 -201 138q-114 51 -246 51q-131 0 -245 -51q-117 -52 -201 -138q-85 -87 -135 -203 q-49 -114 -49 -247zM442 264l7 70l57 12q29 8 29 29v534q0 23 -29 29l-57 14l-7 70h365q152 0 220 -58q69 -58 69 -135q0 -160 -183 -211l154 -231q19 -25 33 -32q10 -5 26 -11l43 -10l7 -70h-230l-45 84l-141 236l-64 4v-213q0 -21 29 -29l55 -12l4 -70h-342zM696 659 l72 -8q73 5 115 38q43 34 43 112t-49 115q-49 38 -132 36l-49 -2v-291z" />
<glyph unicode="&#xaf;" horiz-adv-x="819" d="M109 1118l12 119h579l13 -119h-604z" />
<glyph unicode="&#xb0;" horiz-adv-x="839" d="M80 987q0 72 23 132q23 61 68 109q43 46 108 74q63 27 141 27q79 0 142 -27t107 -74q43 -46 67 -109t24 -132q0 -67 -24 -129q-24 -61 -67 -107q-44 -47 -107 -74q-65 -28 -142 -28q-76 0 -141 28t-108 74q-45 48 -68 107t-23 129zM180 987q0 -48 17 -93q16 -42 47 -78 q28 -32 75 -54q45 -21 101 -21q55 0 100 21q49 23 76 54q31 36 47 78t16 93q0 52 -16 97q-16 44 -47 80q-29 34 -76 54q-44 19 -100 19q-57 0 -101 -19q-45 -20 -75 -54q-31 -36 -47 -80q-17 -48 -17 -97z" />
<glyph unicode="&#xb1;" horiz-adv-x="1572" d="M72 637q0 153 56 281q57 130 153 228q93 94 227 153q131 57 278 57q148 0 279 -57q134 -59 227 -153q96 -98 153 -228q56 -128 56 -281q0 -150 -56 -278q-56 -129 -153 -227q-94 -95 -227 -152q-132 -56 -279 -56q-146 0 -278 56q-133 57 -227 152q-97 98 -153 227 q-56 128 -56 278zM156 637q0 -133 49 -247q50 -116 135 -203t201 -137q115 -50 245 -50q131 0 246 50q116 50 201 137t135 203q49 114 49 247q0 132 -49 248q-50 117 -135 204q-84 86 -201 138q-114 51 -246 51q-131 0 -245 -51q-117 -52 -201 -138q-86 -87 -135 -204 q-49 -116 -49 -248zM494 260l4 70l59 14q27 6 27 27v536q0 21 -27 27l-59 16l-4 68h331q157 0 234 -57q76 -57 76 -156q0 -58 -24 -106q-25 -50 -64 -83q-41 -35 -97 -53t-116 -18q-48 0 -89 6v-180q0 -21 29 -27l74 -14l4 -70h-358zM745 621q30 -6 36 -7q20 -2 44 -2 q66 0 106 46t40 130q0 76 -48 118t-120 42h-58v-327z" />
<glyph unicode="&#xb4;" horiz-adv-x="817" d="M276 1055l193 372h264l-362 -372h-95z" />
<glyph unicode="&#xb5;" horiz-adv-x="1011" d="M14 -305q0 91 57 144t144 85v8q-65 21 -104 67t-39 105q0 35 14 66q15 33 39 60q26 29 57 49q30 19 72 32q0 6 2 8l2 3q-77 34 -133 102q-55 67 -55 186q0 70 25 132q25 61 76 111q50 48 124 77q72 28 172 28q77 0 141 -16q69 -17 119 -43h297l-4 -160l-201 35v-10 q13 -18 26 -51q11 -27 11 -74q0 -76 -29 -142q-29 -65 -82 -112q-54 -48 -128 -73t-166 -25q-63 0 -115 12q-16 -11 -39 -33q-23 -23 -23 -45q0 -92 129 -92q64 0 133 3t123 3q68 0 121 -20q56 -21 97 -59q40 -37 64 -90q24 -52 24 -116q0 -78 -41 -151q-40 -71 -115 -126 q-76 -56 -178 -85q-109 -31 -232 -31q-172 0 -279 64q-106 64 -106 174zM217 -240q0 -88 76 -146t207 -58q58 0 108 15q49 15 85 42q37 28 57 63q20 36 20 78q0 66 -33 105t-110 49q-45 8 -116 7q-50 -1 -210 -1q-20 -11 -52 -51t-32 -103zM307 635q0 -162 70 -232 q34 -34 84 -34q70 0 104 34q58 58 58 209q0 158 -66 224q-38 41 -90 41q-73 0 -117 -61q-43 -59 -43 -181z" />
<glyph unicode="&#xb6;" horiz-adv-x="1001" d="M61 889q0 201 136 296t368 95h285v-1346h-131v588q-45 -10 -86 -15q-45 -5 -72 -5q-128 0 -218 29q-93 30 -156 81q-62 50 -94 123t-32 154z" />
<glyph unicode="&#xb7;" horiz-adv-x="475" d="M80 489q0 66 46 112t114 46q67 0 112 -46q45 -47 45 -112q0 -63 -45 -111t-112 -48t-114 47q-46 46 -46 112z" />
<glyph unicode="&#xb8;" horiz-adv-x="819" d="M182 -508q322 38 322 166q0 47 -43 77q-42 29 -129 29q-80 0 -142 -14v49l236 244h102l-151 -154q128 -4 205 -54q75 -49 75 -140q0 -57 -32 -101q-31 -42 -93 -78q-61 -35 -143 -54q-81 -19 -186 -25z" />
<glyph unicode="&#xba;" horiz-adv-x="837" d="M59 940q0 78 27 144q28 68 74 117q48 51 114 79q69 29 150 29q82 0 149 -29q66 -28 111 -78q47 -52 70 -115q24 -66 24 -139q0 -77 -25 -143q-25 -67 -74 -117q-47 -49 -115 -78q-65 -28 -148 -28q-84 0 -149 28t-112 78t-71 114q-25 67 -25 138zM260 981q0 -204 80 -289 q33 -33 92 -33q66 0 105 69q38 67 38 179q0 102 -20 173q-21 76 -55 110q-18 18 -40 29q-24 12 -54 12q-67 0 -107 -70q-39 -69 -39 -180z" />
<glyph unicode="&#xbb;" horiz-adv-x="1024" d="M63 119l320 334l-320 333l23 43l479 -315v-123l-479 -315zM496 139l286 314l-286 313l22 43l467 -295v-123l-467 -295z" />
<glyph unicode="&#xbf;" horiz-adv-x="804" d="M74 342q0 73 16 117q16 45 47 77q30 32 76 53q47 22 100 42q8 3 29 11t31 12q32 14 50 25q21 14 35 32q13 17 13 43q0 33 -20 66q-19 31 -54 71h84q29 -17 53 -39q23 -20 46 -50q18 -23 32 -60q13 -34 13 -66q0 -50 -19 -90q-18 -38 -53 -65q-33 -26 -82 -48 q-47 -21 -106 -39q-70 -22 -125 -47q-54 -25 -54 -65q0 -30 26 -54t69 -42q41 -17 99 -26q63 -10 116 -10q39 0 86 7q14 2 37.5 5.5t33.5 4.5q21 -17 33 -43q12 -27 12 -53q0 -63 -49 -103q-50 -41 -147 -41q-80 0 -158 30q-76 29 -137 81q-57 49 -96 120q-37 68 -37 144z M307 1165q0 58 40 101t102 43q59 0 101 -42t42 -102q0 -59 -42 -100q-43 -41 -101 -41q-61 0 -102 42q-40 41 -40 99z" />
<glyph unicode="&#xc0;" horiz-adv-x="1292" d="M-41 0l6 84l51 12q38 11 60 24q25 14 50 51q26 37 57 114t81 207l240 663v86l252 74l387 -1137q22 -60 98 -76l80 -18l6 -84h-625l7 84l79 12q33 5 48 16q17 12 18 34q2 27 -8 64q-10 39 -33 103l-37 113h-418l-26 -84q-40 -123 -36 -179t62 -67l68 -12l6 -84h-473z M262 1769h260l195 -372h-92zM389 526h356l-163 516h-19z" />
<glyph unicode="&#xc1;" horiz-adv-x="1292" d="M-41 0l6 84l51 12q38 11 60 24q25 14 50 51q26 37 57 114t81 207l240 663v86l252 74l387 -1137q22 -60 98 -76l80 -18l6 -84h-625l7 84l79 12q33 5 48 16q17 12 18 34q2 27 -8 64q-10 39 -33 103l-37 113h-418l-26 -84q-40 -123 -36 -179t62 -67l68 -12l6 -84h-473z M389 526h356l-163 516h-19zM545 1397l192 372h264l-362 -372h-94z" />
<glyph unicode="&#xc2;" horiz-adv-x="1292" d="M-41 0l6 84l51 12q38 11 60 24q25 14 50 51q26 37 57 114t81 207l240 663v86l252 74l387 -1137q22 -60 98 -76l80 -18l6 -84h-625l7 84l79 12q33 5 48 16q17 12 18 34q2 27 -8 64q-10 39 -33 103l-37 113h-418l-26 -84q-40 -123 -36 -179t62 -67l68 -12l6 -84h-473z M354 1397l238 403h110l238 -403h-76l-215 215h-4l-215 -215h-76zM389 526h356l-163 516h-19z" />
<glyph unicode="&#xc3;" horiz-adv-x="1292" d="M-41 0l6 84l51 12q38 11 60 24q25 14 50 51q26 37 57 114t81 207l240 663v86l252 74l387 -1137q22 -60 98 -76l80 -18l6 -84h-625l7 84l79 12q33 5 48 16q17 12 18 34q2 27 -8 64q-10 39 -33 103l-37 113h-418l-26 -84q-40 -123 -36 -179t62 -67l68 -12l6 -84h-473z M291 1432q18 148 70 212t143 64q48 0 91 -22q40 -21 84 -50q36 -24 76 -49q35 -22 64 -22q34 0 54 29q24 34 45 96h86q-16 -146 -70 -212q-53 -65 -143 -65q-45 0 -91 23q-44 22 -86 50q-57 38 -77 50q-38 23 -66 23q-34 0 -51 -31q-16 -30 -39 -96h-90zM389 526h356 l-163 516h-19z" />
<glyph unicode="&#xc4;" horiz-adv-x="1292" d="M-41 0l6 84l51 12q38 11 60 24q25 14 50 51q26 37 57 114t81 207l240 663v86l252 74l387 -1137q22 -60 98 -76l80 -18l6 -84h-625l7 84l79 12q33 5 48 16q17 12 18 34q2 27 -8 64q-10 39 -33 103l-37 113h-418l-26 -84q-40 -123 -36 -179t62 -67l68 -12l6 -84h-473z M293 1583q0 57 36 100t99 43q64 0 98 -43q35 -44 35 -100t-35 -99q-34 -42 -98 -42q-63 0 -99 42t-36 99zM389 526h356l-163 516h-19zM735 1583q0 57 34 100t97 43q67 0 101 -43t34 -100q0 -58 -34 -99q-34 -42 -101 -42q-62 0 -97 42q-34 41 -34 99z" />
<glyph unicode="&#xc5;" horiz-adv-x="1292" d="M-41 0l6 84l51 12q37 11 59 25q25 15 49 54q27 42 57 116q41 100 83 207l275 745q-48 28 -72 74q-25 48 -25 102q0 83 55 144q53 59 148 59q96 0 148 -59q53 -61 53 -144q0 -99 -70 -157l367 -1084q22 -60 98 -76l80 -18l6 -84h-625l7 84l79 12q33 5 48 16q17 12 18 34 q2 27 -8 64q-10 39 -33 103l-37 113h-418l-26 -84q-40 -123 -36 -179t62 -67l68 -12l6 -84h-473zM389 520h356l-170 529h-10zM514 1419q0 -52 35 -96q34 -43 96 -43t96 43q35 44 35 96t-35 95q-35 42 -96 42t-96 -42q-35 -43 -35 -95z" />
<glyph unicode="&#xc6;" horiz-adv-x="1849" d="M-61 0l6 82l53 14q36 10 64 24q29 15 61 52q34 40 78 115q47 80 114 211l279 538q34 66 18 103t-75 47l-70 14l-6 80h1272v-422h-136l-45 170q-16 61 -34 87q-21 32 -64 48q-44 17 -118 21q-67 4 -199 4l-80 2v-498h39q94 0 131 11q41 12 57 55l49 139h103l-47 -496h-99 l-20 131q-1 16 -10 32q-8 14 -27 22t-53 11t-90 3h-33v-510l82 2q120 0 207 5q74 4 122 22q46 17 68 48q23 32 41 85l47 151h143l-41 -403h-1075l6 80l101 22q47 11 47 50v303h-395l-48 -92q-40 -79 -57 -125q-18 -49 -18 -79q0 -29 15 -44q14 -14 40 -19l68 -14l6 -82h-477 zM459 549h346v637h-17z" />
<glyph unicode="&#xc7;" horiz-adv-x="1454" d="M88 621q0 158 55 284q55 127 154 217q102 93 231 139q134 48 289 48q95 0 182 -17q88 -17 127 -32l189 45v-457h-141l-87 299q-57 29 -116 45q-60 16 -137 16q-106 0 -191 -41q-84 -41 -141 -114t-87 -176q-30 -102 -30 -226q0 -133 30 -241q31 -111 88 -186 q60 -79 143 -118q84 -40 194 -40q63 0 121 13q59 13 106 36q0 4 16 49q34 97 37 104q20 59 53 154h150l-39 -422l-135 27q-51 -18 -128 -36q-72 -17 -163 -22l-78 -80q128 -4 205 -54q76 -49 76 -140q0 -56 -33 -101q-32 -43 -92 -78q-61 -35 -143 -54q-81 -19 -187 -25 l-20 55q321 38 321 166q0 47 -43 77q-42 29 -129 29q-79 0 -141 -14v49l164 170q-147 6 -271 53q-126 48 -212 128q-90 84 -138 199q-49 117 -49 272z" />
<glyph unicode="&#xc8;" horiz-adv-x="1314" d="M74 0l6 82l74 8q40 5 54 13q15 9 15 26v1024q0 16 -13 23q-15 8 -65 14l-65 8l-6 82h1112v-422h-139l-46 170q-16 61 -34 87q-21 32 -64 48q-43 17 -117 21q-65 4 -196 4h-96v-496h51q92 0 129 11q41 12 57 55l49 139h107l-47 -496h-103l-20 131q-2 19 -9 32 q-8 15 -27 22q-21 8 -53 11q-35 3 -89 3h-45v-508h100q118 0 203 5q73 4 121 22q44 16 68 48q23 31 42 85l45 151h148l-39 -403h-1108zM309 1769h260l195 -372h-92z" />
<glyph unicode="&#xc9;" horiz-adv-x="1314" d="M74 0l6 82l74 8q40 5 54 13q15 9 15 26v1024q0 16 -13 23q-15 8 -65 14l-65 8l-6 82h1112v-422h-139l-46 170q-16 61 -34 87q-21 32 -64 48q-43 17 -117 21q-65 4 -196 4h-96v-496h51q92 0 129 11q41 12 57 55l49 139h107l-47 -496h-103l-20 131q-2 19 -9 32 q-8 15 -27 22q-21 8 -53 11q-35 3 -89 3h-45v-508h100q118 0 203 5q73 4 121 22q44 16 68 48q23 31 42 85l45 151h148l-39 -403h-1108zM557 1397l193 372h264l-363 -372h-94z" />
<glyph unicode="&#xca;" horiz-adv-x="1314" d="M74 0l6 82l74 8q40 5 54 13q15 9 15 26v1024q0 16 -13 23q-15 8 -65 14l-65 8l-6 82h1112v-422h-139l-46 170q-16 61 -34 87q-21 32 -64 48q-43 17 -117 21q-65 4 -196 4h-96v-496h51q92 0 129 11q41 12 57 55l49 139h107l-47 -496h-103l-20 131q-2 19 -9 32 q-8 15 -27 22q-21 8 -53 11q-35 3 -89 3h-45v-508h100q118 0 203 5q73 4 121 22q44 16 68 48q23 31 42 85l45 151h148l-39 -403h-1108zM365 1397l237 403h111l237 -403h-76l-215 215h-4l-215 -215h-75z" />
<glyph unicode="&#xcb;" horiz-adv-x="1314" d="M74 0l6 82l74 8q40 5 54 13q15 9 15 26v1024q0 16 -13 23q-15 8 -65 14l-65 8l-6 82h1112v-422h-139l-46 170q-16 61 -34 87q-21 32 -64 48q-43 17 -117 21q-65 4 -196 4h-96v-496h51q92 0 129 11q41 12 57 55l49 139h107l-47 -496h-103l-20 131q-2 19 -9 32 q-8 15 -27 22q-21 8 -53 11q-35 3 -89 3h-45v-508h100q118 0 203 5q73 4 121 22q44 16 68 48q23 31 42 85l45 151h148l-39 -403h-1108zM303 1583q0 57 36 100t99 43q65 0 99 -43t34 -100q0 -58 -34 -99q-35 -42 -99 -42q-63 0 -99 42t-36 99zM745 1583q0 57 34 100t98 43 q66 0 100 -43q35 -44 35 -100t-35 -99q-34 -42 -100 -42q-63 0 -98 42q-34 41 -34 99z" />
<glyph unicode="&#xcc;" horiz-adv-x="763" d="M-2 1769h260l195 -372h-93zM76 0l6 82l94 8q72 8 72 39v1024q0 15 -15 23q-17 8 -63 14l-88 8l-6 82h614l-6 -82l-96 -8q-42 -5 -56 -13t-14 -26v-1026q0 -16 13 -23t61 -12l92 -8l6 -82h-614z" />
<glyph unicode="&#xcd;" horiz-adv-x="763" d="M76 0l6 82l94 8q72 8 72 39v1024q0 15 -15 23q-17 8 -63 14l-88 8l-6 82h614l-6 -82l-96 -8q-42 -5 -56 -13t-14 -26v-1026q0 -16 13 -23t61 -12l92 -8l6 -82h-614zM313 1397l193 372h264l-362 -372h-95z" />
<glyph unicode="&#xce;" horiz-adv-x="763" d="M76 0l6 82l94 8q72 8 72 39v1024q0 15 -15 23q-17 8 -63 14l-88 8l-6 82h614l-6 -82l-96 -8q-42 -5 -56 -13t-14 -26v-1026q0 -16 13 -23t61 -12l92 -8l6 -82h-614zM90 1397l238 403h110l238 -403h-76l-215 215h-4l-215 -215h-76z" />
<glyph unicode="&#xcf;" horiz-adv-x="763" d="M29 1583q0 57 36 100t99 43q64 0 98 -43q35 -44 35 -100t-35 -99q-34 -42 -98 -42q-63 0 -99 42t-36 99zM76 0l6 82l94 8q72 8 72 39v1024q0 15 -15 23q-17 8 -63 14l-88 8l-6 82h614l-6 -82l-96 -8q-42 -5 -56 -13t-14 -26v-1026q0 -16 13 -23t61 -12l92 -8l6 -82h-614z M471 1583q0 57 34 100t97 43q66 0 100 -43q35 -44 35 -100t-35 -99q-34 -42 -100 -42q-62 0 -97 42q-34 41 -34 99z" />
<glyph unicode="&#xd0;" horiz-adv-x="1447" d="M66 600l6 94h151v432q0 42 -47 50l-98 22l-6 82l532 8q176 2 317 -43q140 -44 242 -128q100 -82 156 -197q55 -113 55 -250q0 -138 -50 -261q-50 -122 -148 -213q-100 -92 -242 -144q-143 -52 -332 -52h-530l6 82l98 22q47 8 47 50v446h-157zM487 123l146 -31 q107 -2 191 37q85 39 144 110t89 168q30 98 30 209q0 133 -32 235q-32 103 -100 180q-66 75 -167 116q-102 41 -235 41h-66v-494h238l6 -94h-244v-477z" />
<glyph unicode="&#xd1;" horiz-adv-x="1501" d="M49 0l6 82l97 20q21 4 37 17t26 52q11 41 15 119q6 106 6 220v526q0 54 -21 84q-22 31 -55 47l-92 31l-7 82h422l674 -940h17v428q0 131 -5 219q-5 84 -13 121q-9 41 -24 53q-16 13 -38 17l-109 20l-6 82h483l-6 -82l-96 -20q-19 -4 -37 -17q-17 -12 -27 -52 q-10 -41 -15 -120q-5 -88 -5 -221v-784h-189l-735 1017h-14v-491q0 -148 4 -219q5 -84 13 -121q9 -39 25 -52q14 -11 36 -16l110 -20l6 -82h-483zM395 1432q18 147 71 212q52 64 142 64q48 0 91 -22q40 -21 84 -50q36 -24 76 -49q35 -22 65 -22q34 0 54 29q22 31 44 96h86 q-16 -146 -70 -212q-53 -65 -143 -65q-44 0 -90 23q-44 22 -86 50q-48 32 -78 50q-38 23 -66 23q-34 0 -51 -31q-16 -30 -39 -96h-90z" />
<glyph unicode="&#xd2;" d="M88 627q0 148 55 273q55 124 151 216q94 90 222 141q130 52 268 52q154 0 280 -48q123 -47 217 -136q90 -85 140 -209q49 -120 49 -269t-55 -272q-55 -125 -150 -216q-95 -92 -222 -142t-269 -50q-153 0 -279 48q-122 47 -217 135q-92 86 -141 207q-49 120 -49 270z M383 651q0 -139 32 -252q31 -109 87 -185q55 -75 128 -114q72 -39 154 -39q80 0 152 36q71 35 124 107q53 71 83 176q31 109 31 245q0 140 -32 251q-31 108 -86 184q-53 74 -127 114q-70 38 -155 38q-83 0 -152 -35q-72 -37 -124 -107q-55 -74 -84 -175q-31 -109 -31 -244z M457 1769h260l194 -372h-92z" />
<glyph unicode="&#xd3;" d="M88 627q0 148 55 273q55 124 151 216q94 90 222 141q130 52 268 52q154 0 280 -48q123 -47 217 -136q90 -85 140 -209q49 -120 49 -269t-55 -272q-55 -125 -150 -216q-95 -92 -222 -142t-269 -50q-153 0 -279 48q-122 47 -217 135q-92 86 -141 207q-49 120 -49 270z M383 651q0 -139 32 -252q31 -109 87 -185q55 -75 128 -114q72 -39 154 -39q80 0 152 36q71 35 124 107q53 71 83 176q31 109 31 245q0 140 -32 251q-31 108 -86 184q-53 74 -127 114q-70 38 -155 38q-83 0 -152 -35q-72 -37 -124 -107q-55 -74 -84 -175q-31 -109 -31 -244z M678 1397l192 372h265l-363 -372h-94z" />
<glyph unicode="&#xd4;" d="M88 627q0 148 55 273q55 124 151 216q94 90 222 141q130 52 268 52q154 0 280 -48q123 -47 217 -136q90 -85 140 -209q49 -120 49 -269t-55 -272q-55 -125 -150 -216q-95 -92 -222 -142t-269 -50q-153 0 -279 48q-122 47 -217 135q-92 86 -141 207q-49 120 -49 270z M383 651q0 -139 32 -252q31 -109 87 -185q55 -75 128 -114q72 -39 154 -39q80 0 152 36q71 35 124 107q53 71 83 176q31 109 31 245q0 140 -32 251q-31 108 -86 184q-53 74 -127 114q-70 38 -155 38q-83 0 -152 -35q-72 -37 -124 -107q-55 -74 -84 -175q-31 -109 -31 -244z M485 1397l238 403h111l237 -403h-76l-215 215h-4l-215 -215h-76z" />
<glyph unicode="&#xd5;" d="M88 627q0 148 55 273q55 124 151 216q94 90 222 141q130 52 268 52q154 0 280 -48q123 -47 217 -136q90 -85 140 -209q49 -120 49 -269t-55 -272q-55 -125 -150 -216q-95 -92 -222 -142t-269 -50q-153 0 -279 48q-122 47 -217 135q-92 86 -141 207q-49 120 -49 270z M383 651q0 -139 32 -252q31 -109 87 -185q55 -75 128 -114q72 -39 154 -39q80 0 152 36q71 35 124 107q53 71 83 176q31 109 31 245q0 140 -32 251q-31 108 -86 184q-53 74 -127 114q-70 38 -155 38q-83 0 -152 -35q-72 -37 -124 -107q-55 -74 -84 -175q-31 -109 -31 -244z M422 1432q18 147 71 212q52 64 142 64q48 0 91 -22q40 -21 84 -50q36 -24 76 -49q35 -22 64 -22q35 0 55 29q22 31 44 96h86q-16 -146 -70 -212q-53 -65 -143 -65q-45 0 -91 23q-44 22 -86 50q-57 38 -77 50q-38 23 -66 23q-34 0 -51 -31q-17 -30 -39 -96h-90z" />
<glyph unicode="&#xd6;" d="M88 627q0 148 55 273q55 124 151 216q94 90 222 141q130 52 268 52q154 0 280 -48q123 -47 217 -136q90 -85 140 -209q49 -120 49 -269t-55 -272q-55 -125 -150 -216q-95 -92 -222 -142t-269 -50q-153 0 -279 48q-122 47 -217 135q-92 86 -141 207q-49 120 -49 270z M383 651q0 -139 32 -252q31 -109 87 -185q55 -75 128 -114q72 -39 154 -39q80 0 152 36q71 35 124 107q53 71 83 176q31 109 31 245q0 140 -32 251q-31 108 -86 184q-53 74 -127 114q-70 38 -155 38q-83 0 -152 -35q-72 -37 -124 -107q-55 -74 -84 -175q-31 -109 -31 -244z M424 1583q0 57 36 100t99 43q64 0 98 -43q35 -44 35 -100t-35 -99q-35 -42 -98 -42t-99 42t-36 99zM866 1583q0 57 34 100t97 43q67 0 101 -43q35 -44 35 -100t-35 -99q-34 -42 -101 -42q-63 0 -97 42q-34 41 -34 99z" />
<glyph unicode="&#xd7;" horiz-adv-x="995" d="M80 133l346 346l-346 344l76 76l346 -346l346 348l76 -76l-349 -346l347 -346l-76 -76l-344 346l-346 -346z" />
<glyph unicode="&#xd8;" d="M82 627q0 145 51 270t142 216q89 89 218 143q127 53 275 53q166 0 301 -60l92 160h107l-58 -100q-8 -13 -21.5 -36t-19.5 -32q-18 -30 -18 -33q140 -84 216 -226q77 -143 77 -333q0 -145 -51 -270q-51 -124 -143 -216q-92 -91 -216 -144q-123 -52 -274 -52 q-158 0 -297 58q-17 -34 -35 -64q-19 -32 -35 -55q-15 -23 -33 -58h-104l125 215q-139 83 -220 229q-79 143 -79 335zM362 662q0 -134 32 -242q31 -105 87 -182l508 872q-99 98 -239 98q-86 0 -155 -34t-123 -105q-52 -68 -81 -172t-29 -235zM543 164q104 -94 235 -94 q87 0 154 35q70 36 122 105t81 171q28 100 28 235q0 132 -30 237q-29 101 -82 181l-254 -434q-24 -43 -94 -160q-34 -58 -80 -139q-20 -36 -58 -99z" />
<glyph unicode="&#xd9;" horiz-adv-x="1454" d="M57 1280h572l-6 -82l-74 -8q-43 -4 -57 -13q-15 -9 -15 -26v-688q0 -187 86 -279t242 -92q160 0 245 91t85 280v305q0 131 -5 219q-5 84 -13 121q-9 42 -23 53q-16 13 -37 17l-111 20l-6 82h485l-6 -82l-96 -20q-22 -4 -38 -17q-15 -12 -25 -52q-12 -45 -16 -120 q-5 -88 -5 -221v-338q0 -104 -35 -194q-34 -88 -101 -150q-64 -60 -161 -95q-93 -34 -211 -34q-117 0 -214 27t-166 81t-106 136q-38 84 -38 190v762q0 16 -13 23q-15 8 -65 14l-66 8zM406 1769h260l194 -372h-92z" />
<glyph unicode="&#xda;" horiz-adv-x="1454" d="M57 1280h572l-6 -82l-74 -8q-43 -4 -57 -13q-15 -9 -15 -26v-688q0 -187 86 -279t242 -92q160 0 245 91t85 280v305q0 131 -5 219q-5 84 -13 121q-9 42 -23 53q-16 13 -37 17l-111 20l-6 82h485l-6 -82l-96 -20q-22 -4 -38 -17q-15 -12 -25 -52q-12 -45 -16 -120 q-5 -88 -5 -221v-338q0 -104 -35 -194q-34 -88 -101 -150q-64 -60 -161 -95q-93 -34 -211 -34q-117 0 -214 27t-166 81t-106 136q-38 84 -38 190v762q0 16 -13 23q-15 8 -65 14l-66 8zM698 1397l193 372h264l-362 -372h-95z" />
<glyph unicode="&#xdb;" horiz-adv-x="1454" d="M57 1280h572l-6 -82l-74 -8q-43 -4 -57 -13q-15 -9 -15 -26v-688q0 -187 86 -279t242 -92q160 0 245 91t85 280v305q0 131 -5 219q-5 84 -13 121q-9 42 -23 53q-16 13 -37 17l-111 20l-6 82h485l-6 -82l-96 -20q-22 -4 -38 -17q-15 -12 -25 -52q-12 -45 -16 -120 q-5 -88 -5 -221v-338q0 -104 -35 -194q-34 -88 -101 -150q-64 -60 -161 -95q-93 -34 -211 -34q-117 0 -214 27t-166 81t-106 136q-38 84 -38 190v762q0 16 -13 23q-15 8 -65 14l-66 8zM475 1397l238 403h110l238 -403h-76l-215 215h-4l-215 -215h-76z" />
<glyph unicode="&#xdc;" horiz-adv-x="1454" d="M57 1280h572l-6 -82l-74 -8q-43 -4 -57 -13q-15 -9 -15 -26v-688q0 -187 86 -279t242 -92q160 0 245 91t85 280v305q0 131 -5 219q-5 84 -13 121q-9 42 -23 53q-16 13 -37 17l-111 20l-6 82h485l-6 -82l-96 -20q-22 -4 -38 -17q-15 -12 -25 -52q-12 -45 -16 -120 q-5 -88 -5 -221v-338q0 -104 -35 -194q-34 -88 -101 -150q-64 -60 -161 -95q-93 -34 -211 -34q-117 0 -214 27t-166 81t-106 136q-38 84 -38 190v762q0 16 -13 23q-15 8 -65 14l-66 8zM403 1583q0 57 36 100t100 43t98 -43q35 -44 35 -100t-35 -99q-35 -42 -98 -42 q-64 0 -100 42t-36 99zM846 1583q0 57 34 100t97 43q66 0 100 -43q35 -44 35 -100t-35 -99q-35 -42 -100 -42q-63 0 -97 42q-34 41 -34 99z" />
<glyph unicode="&#xdd;" horiz-adv-x="1241" d="M-25 1280h584l-6 -84l-72 -12q-18 -4 -31 -17t-11 -37q1 -22 17 -64q13 -36 48 -99l182 -328h14l183 326q65 110 61 159q-5 50 -65 60l-58 12l-6 84h451l-6 -84l-41 -12q-24 -8 -47 -19q-26 -13 -46 -33q-26 -26 -53 -63q-25 -35 -67 -102l-244 -422v-420q0 -16 13 -23 t61 -12l100 -8l6 -82h-633l6 82l105 8q72 8 72 39v389l-351 584q-18 28 -42 48t-58 30l-59 16zM489 1397l193 372h264l-362 -372h-95z" />
<glyph unicode="&#xde;" horiz-adv-x="1259" d="M74 0l6 82l74 8q40 5 54 13q15 9 15 26v1026q0 16 -13 23t-65 12l-65 10l-6 82l571 -2l-6 -82l-74 -8q-71 -6 -71 -39v-119h155q260 0 393 -100q134 -101 134 -260q0 -100 -44 -177q-44 -78 -120 -130q-81 -55 -173 -81q-101 -28 -206 -28q-24 0 -70 2q-35 2 -69 6v-139 q0 -16 14 -23q15 -8 61 -12l99 -8l6 -82h-600zM494 360q39 -8 66 -11q31 -3 73 -3q117 0 183 80q67 81 67 209q0 144 -79 227q-80 84 -231 84h-79v-586z" />
<glyph unicode="&#xdf;" horiz-adv-x="1482" d="M12 801l13 117h141l4 47q6 100 47 187q39 82 106 146q65 62 146 96q79 33 174 33q51 0 89 -11q43 -12 74 -33q32 -22 50 -51q18 -30 18 -64q0 -61 -36 -91q-38 -32 -84 -32q-59 0 -99 40t-61 130l-2 8l-60 4q-57 -39 -87 -118q-29 -77 -29 -216v-870q0 -18 14 -25 q15 -8 64 -12l59 -6l6 -80h-508l6 80l49 6q70 6 70 39v661zM678 291h137l51 -187q21 -11 71 -30q41 -15 83 -15q73 0 128 41q54 40 54 107q0 35 -19 58q-18 22 -53 43q-37 22 -74 35q-11 4 -85 32q-68 26 -108 44q-55 25 -91 57q-38 33 -62 82q-24 48 -24 116q0 56 25 111 q25 54 70 92q46 38 114 61q69 23 154 23q63 0 125 -10q60 -10 96 -23l90 22l10 -303h-129l-55 180q-30 18 -66 29q-38 12 -78 12q-69 0 -112 -34t-43 -89q0 -37 14 -59q16 -26 42 -43q27 -18 69 -35q46 -19 92 -35q52 -20 109 -45q58 -26 97 -58q42 -34 67 -82 q26 -49 26 -116q0 -60 -27 -116t-77 -98q-48 -41 -124 -65q-75 -24 -171 -24q-77 0 -168 13q-86 12 -148 36z" />
<glyph unicode="&#xe0;" horiz-adv-x="993" d="M61 684q0 44 41 94q38 46 106 89q65 41 146 66t162 25q86 0 147 -19t103 -67q41 -47 59 -124q19 -82 13 -193l-15 -338q-1 -45 11 -67q12 -21 40 -21q34 0 97 51l33 -53q-45 -64 -112 -114q-64 -48 -128 -48q-62 0 -111 39q-48 38 -53 131h-10q-63 -75 -122 -119 q-64 -47 -146 -47q-48 0 -96 17q-46 16 -81 47q-33 29 -55 76q-20 43 -20 102q0 126 131 209q128 81 399 149v17q1 132 -51 192t-152 60q-53 0 -97 -15t-44 -24q0 -4 8 -14q17 -20 18 -22q10 -15 17 -33q8 -21 8 -44q0 -38 -33 -73q-32 -33 -88 -33q-54 0 -89 29 q-36 30 -36 75zM94 1427h260l195 -372h-92zM297 268q0 -65 42 -98t97 -33q40 0 81 23q42 24 71 55l8 281q-85 -22 -150 -53q-52 -25 -91 -55q-33 -26 -46 -58q-12 -30 -12 -62z" />
<glyph unicode="&#xe1;" horiz-adv-x="993" d="M61 684q0 44 41 94q38 46 106 89q65 41 146 66t162 25q86 0 147 -19t103 -67q41 -47 59 -124q19 -82 13 -193l-15 -338q-1 -45 11 -67q12 -21 40 -21q34 0 97 51l33 -53q-45 -64 -112 -114q-64 -48 -128 -48q-62 0 -111 39q-48 38 -53 131h-10q-63 -75 -122 -119 q-64 -47 -146 -47q-48 0 -96 17q-46 16 -81 47q-33 29 -55 76q-20 43 -20 102q0 126 131 209q128 81 399 149v17q1 132 -51 192t-152 60q-53 0 -97 -15t-44 -24q0 -4 8 -14q17 -20 18 -22q10 -15 17 -33q8 -21 8 -44q0 -38 -33 -73q-32 -33 -88 -33q-54 0 -89 29 q-36 30 -36 75zM297 268q0 -65 42 -98t97 -33q40 0 81 23q42 24 71 55l8 281q-85 -22 -150 -53q-52 -25 -91 -55q-33 -26 -46 -58q-12 -30 -12 -62zM365 1055l192 372h264l-362 -372h-94z" />
<glyph unicode="&#xe2;" horiz-adv-x="993" d="M61 684q0 44 41 94q38 46 106 89q65 41 146 66t162 25q86 0 147 -19t103 -67q41 -47 59 -124q19 -82 13 -193l-15 -338q-1 -45 11 -67q12 -21 40 -21q34 0 97 51l33 -53q-45 -64 -112 -114q-64 -48 -128 -48q-62 0 -111 39q-48 38 -53 131h-10q-63 -75 -122 -119 q-64 -47 -146 -47q-48 0 -96 17q-46 16 -81 47q-33 29 -55 76q-20 43 -20 102q0 126 131 209q128 81 399 149v17q1 132 -51 192t-152 60q-53 0 -97 -15t-44 -24q0 -4 8 -14q17 -20 18 -22q10 -15 17 -33q8 -21 8 -44q0 -38 -33 -73q-32 -33 -88 -33q-54 0 -89 29 q-36 30 -36 75zM176 1055l238 403h110l238 -403h-76l-215 215h-4l-215 -215h-76zM297 268q0 -65 42 -98t97 -33q40 0 81 23q42 24 71 55l8 281q-85 -22 -150 -53q-52 -25 -91 -55q-33 -26 -46 -58q-12 -30 -12 -62z" />
<glyph unicode="&#xe3;" horiz-adv-x="993" d="M61 684q0 44 41 94q38 46 106 89q65 41 146 66t162 25q86 0 147 -19t103 -67q41 -47 59 -124q19 -82 13 -193l-15 -338q-1 -45 11 -67q12 -21 40 -21q34 0 97 51l33 -53q-45 -64 -112 -114q-64 -48 -128 -48q-62 0 -111 39q-48 38 -53 131h-10q-63 -75 -122 -119 q-64 -47 -146 -47q-48 0 -96 17q-46 16 -81 47q-33 29 -55 76q-20 43 -20 102q0 126 131 209q128 81 399 149v17q1 132 -51 192t-152 60q-53 0 -97 -15t-44 -24q0 -4 8 -14q17 -20 18 -22q10 -15 17 -33q8 -21 8 -44q0 -38 -33 -73q-32 -33 -88 -33q-54 0 -89 29 q-36 30 -36 75zM113 1090q18 148 70 212t143 64q47 0 91 -23q47 -24 84 -49q36 -24 76 -49q35 -22 64 -22q34 0 54 29q22 31 44 96h86q-17 -148 -69 -212q-53 -65 -144 -65q-44 0 -90 23q-44 22 -86 50q-48 32 -78 50q-38 23 -65 23q-34 0 -51 -31q-16 -30 -39 -96h-90z M297 268q0 -65 42 -98t97 -33q40 0 81 23q42 24 71 55l8 281q-85 -22 -150 -53q-52 -25 -91 -55q-33 -26 -46 -58q-12 -30 -12 -62z" />
<glyph unicode="&#xe4;" horiz-adv-x="993" d="M61 684q0 44 41 94q38 46 106 89q65 41 146 66t162 25q86 0 147 -19t103 -67q41 -47 59 -124q19 -82 13 -193l-15 -338q-1 -45 11 -67q12 -21 40 -21q34 0 97 51l33 -53q-45 -64 -112 -114q-64 -48 -128 -48q-62 0 -111 39q-48 38 -53 131h-10q-63 -75 -122 -119 q-64 -47 -146 -47q-48 0 -96 17q-46 16 -81 47q-33 29 -55 76q-20 43 -20 102q0 126 131 209q128 81 399 149v17q1 132 -51 192t-152 60q-53 0 -97 -15t-44 -24q0 -4 8 -14q17 -20 18 -22q10 -15 17 -33q8 -21 8 -44q0 -38 -33 -73q-32 -33 -88 -33q-54 0 -89 29 q-36 30 -36 75zM123 1241q0 57 36 100t99 43q64 0 98 -43q35 -44 35 -100t-35 -99q-34 -42 -98 -42q-63 0 -99 42t-36 99zM297 268q0 -65 42 -98t97 -33q40 0 81 23q42 24 71 55l8 281q-85 -22 -150 -53q-52 -25 -91 -55q-33 -26 -46 -58q-12 -30 -12 -62zM565 1241 q0 57 34 100t97 43q67 0 101 -43t34 -100q0 -58 -34 -99q-35 -42 -101 -42q-62 0 -97 42q-34 41 -34 99z" />
<glyph unicode="&#xe5;" horiz-adv-x="993" d="M61 684q0 44 41 94q38 46 106 89q65 41 146 66t162 25q86 0 147 -19t103 -67q41 -47 59 -124q19 -82 13 -193l-15 -338q-1 -45 11 -67q12 -21 40 -21q34 0 97 51l33 -53q-45 -64 -112 -114q-64 -48 -128 -48q-62 0 -111 39q-48 38 -53 131h-10q-63 -75 -122 -119 q-64 -47 -146 -47q-48 0 -96 17q-46 16 -81 47q-33 29 -55 76q-20 43 -20 102q0 126 131 209q128 81 399 149v17q1 132 -51 192t-152 60q-53 0 -97 -15t-44 -24q0 -4 8 -14q17 -20 18 -22q10 -15 17 -33q8 -21 8 -44q0 -38 -33 -73q-32 -33 -88 -33q-54 0 -89 29 q-36 30 -36 75zM274 1255q0 84 55 145q54 60 148 60q95 0 149 -60t54 -145q0 -84 -54 -144t-149 -60q-94 0 -148 60q-55 61 -55 144zM297 268q0 -65 42 -98t97 -33q40 0 81 23q42 24 71 55l8 281q-85 -22 -150 -53q-52 -25 -91 -55q-33 -26 -46 -58q-12 -30 -12 -62z M346 1255q0 -52 35 -95q35 -42 96 -42t96 42q35 43 35 95q0 53 -35 97q-34 43 -96 43t-96 -43q-35 -44 -35 -97z" />
<glyph unicode="&#xe6;" horiz-adv-x="1509" d="M61 684q0 44 41 94q38 46 106 89q65 41 146 66t164 25q98 0 163 -25q67 -26 101 -81q64 52 141 79q76 27 167 27q74 0 137 -21q59 -20 109 -63q46 -40 72 -99q26 -60 26 -134q0 -25 -3 -55q-2 -24 -10 -58l-581 9v-23q0 -84 21 -153q20 -64 60 -116q37 -47 91 -75 q52 -27 116 -27q71 0 137 33q67 33 119 96l46 -24q-51 -134 -157 -207q-105 -72 -253 -72q-121 0 -217 57q-98 58 -152 154q-60 -92 -146 -151q-87 -60 -183 -60q-48 0 -96 17q-46 16 -81 47q-33 29 -55 76q-20 43 -20 102q0 126 131 209q128 81 399 149v21q8 124 -48 185 q-57 63 -155 63q-53 0 -97 -15t-44 -24q0 -4 8 -14q17 -20 18 -22q10 -15 17 -33q8 -21 8 -44q0 -38 -33 -73q-32 -33 -88 -33q-54 0 -89 29q-36 30 -36 75zM297 268q0 -65 41 -98q40 -33 100 -33q54 0 100 27q45 26 85 72q-35 93 -35 196q0 17 1 31q1 20 3 31 q-79 -21 -142 -49q-57 -26 -91 -55q-32 -28 -48 -60q-14 -28 -14 -62zM842 606q74 0 178 2q43 0 64 1t57 1h39h14q6 124 -34 191t-109 67q-79 0 -138 -65t-71 -197z" />
<glyph unicode="&#xe7;" horiz-adv-x="958" d="M68 432q0 117 38 211q39 95 109 167q69 71 163 110q91 38 202 38q152 0 235 -60q82 -60 82 -148q0 -73 -41 -100q-40 -27 -90 -27q-39 0 -65 19q-27 20 -44 50q-16 30 -21 70q-4 39 3 78v4q-29 20 -84 20q-99 0 -166 -85t-67 -251q0 -87 20 -154q22 -72 58 -122 q37 -50 92 -80q53 -29 116 -29q72 0 138 33q69 34 120 96l45 -24q-46 -119 -130 -187q-86 -70 -206 -86l-83 -86q127 -4 204 -54q76 -49 76 -140q0 -56 -33 -101q-32 -43 -92 -78q-61 -35 -143 -54q-81 -19 -187 -25l-20 55q321 38 321 166q0 47 -43 77q-42 29 -129 29 q-79 0 -141 -14v49l166 170q-87 6 -160 42t-128 97q-55 62 -85 143q-30 83 -30 181z" />
<glyph unicode="&#xe8;" horiz-adv-x="989" d="M68 432q0 114 37 209t106 167q67 70 160 111q88 39 198 39q75 0 138 -21q59 -20 109 -63q46 -40 72 -99q25 -57 25 -134q0 -25 -3 -55q-3 -32 -9 -58l-582 9v-23q0 -81 22 -153q20 -66 59 -116q36 -46 92 -75q52 -27 116 -27q70 0 136 33q69 34 120 96l45 -24 q-51 -135 -156 -207t-253 -72q-93 0 -171 34q-81 35 -138 95q-58 61 -91 147q-32 83 -32 187zM172 1427h260l195 -372h-92zM322 606q74 0 178 2q43 0 64 1t57 1h38h2h2h9q8 125 -32 191q-40 67 -110 67q-78 0 -137 -65t-71 -197z" />
<glyph unicode="&#xe9;" horiz-adv-x="989" d="M68 432q0 114 37 209t106 167q67 70 160 111q88 39 198 39q75 0 138 -21q59 -20 109 -63q46 -40 72 -99q25 -57 25 -134q0 -25 -3 -55q-3 -32 -9 -58l-582 9v-23q0 -81 22 -153q20 -66 59 -116q36 -46 92 -75q52 -27 116 -27q70 0 136 33q69 34 120 96l45 -24 q-51 -135 -156 -207t-253 -72q-93 0 -171 34q-81 35 -138 95q-58 61 -91 147q-32 83 -32 187zM322 606q74 0 178 2q43 0 64 1t57 1h38h2h2h9q8 125 -32 191q-40 67 -110 67q-78 0 -137 -65t-71 -197zM383 1055l192 372h265l-363 -372h-94z" />
<glyph unicode="&#xea;" horiz-adv-x="989" d="M68 432q0 114 37 209t106 167q67 70 160 111q88 39 198 39q75 0 138 -21q59 -20 109 -63q46 -40 72 -99q25 -57 25 -134q0 -25 -3 -55q-3 -32 -9 -58l-582 9v-23q0 -81 22 -153q20 -66 59 -116q36 -46 92 -75q52 -27 116 -27q70 0 136 33q69 34 120 96l45 -24 q-51 -135 -156 -207t-253 -72q-93 0 -171 34q-81 35 -138 95q-58 61 -91 147q-32 83 -32 187zM201 1055l237 403h111l237 -403h-75l-215 215h-4l-216 -215h-75zM322 606q74 0 178 2q43 0 64 1t57 1h38h2h2h9q8 125 -32 191q-40 67 -110 67q-78 0 -137 -65t-71 -197z" />
<glyph unicode="&#xeb;" horiz-adv-x="989" d="M68 432q0 114 37 209t106 167q67 70 160 111q88 39 198 39q75 0 138 -21q59 -20 109 -63q46 -40 72 -99q25 -57 25 -134q0 -25 -3 -55q-3 -32 -9 -58l-582 9v-23q0 -81 22 -153q20 -66 59 -116q36 -46 92 -75q52 -27 116 -27q70 0 136 33q69 34 120 96l45 -24 q-51 -135 -156 -207t-253 -72q-93 0 -171 34q-81 35 -138 95q-58 61 -91 147q-32 83 -32 187zM139 1241q0 57 36 100t99 43q65 0 99 -43q35 -44 35 -100t-35 -99q-34 -42 -99 -42q-63 0 -99 42t-36 99zM322 606q74 0 178 2q43 0 64 1t57 1h38h2h2h9q8 125 -32 191 q-40 67 -110 67q-78 0 -137 -65t-71 -197zM582 1241q0 58 33 100q34 43 98 43q66 0 100 -43q35 -44 35 -100t-35 -99q-35 -42 -100 -42q-63 0 -98 42q-33 40 -33 99z" />
<glyph unicode="&#xec;" horiz-adv-x="606" d="M-25 1427h261l194 -372h-92zM55 795l2 63l367 100v-835q0 -18 14 -25q15 -8 64 -12l45 -6l6 -80h-492l7 80l47 6q69 6 69 39v491q0 53 -4 78q-5 29 -13 46q-9 18 -27 27q-19 9 -44 15z" />
<glyph unicode="&#xed;" horiz-adv-x="606" d="M55 795l2 63l367 100v-835q0 -18 14 -25q15 -8 64 -12l45 -6l6 -80h-492l7 80l47 6q69 6 69 39v491q0 53 -4 78q-5 29 -13 46q-9 18 -27 27q-19 9 -44 15zM172 1055l193 372h264l-363 -372h-94z" />
<glyph unicode="&#xee;" horiz-adv-x="606" d="M10 1055l238 403h110l238 -403h-76l-215 215h-4l-215 -215h-76zM55 795l2 63l367 100v-835q0 -18 14 -25q15 -8 64 -12l45 -6l6 -80h-492l7 80l47 6q69 6 69 39v491q0 53 -4 78q-5 29 -13 46q-9 18 -27 27q-19 9 -44 15z" />
<glyph unicode="&#xef;" horiz-adv-x="606" d="M-51 1241q0 57 36 100t99 43q64 0 98 -43q35 -44 35 -100t-35 -99q-34 -42 -98 -42q-63 0 -99 42t-36 99zM55 795l2 63l367 100v-835q0 -18 14 -25q15 -8 64 -12l45 -6l6 -80h-492l7 80l47 6q69 6 69 39v491q0 53 -4 78q-5 29 -13 46q-9 18 -27 27q-19 9 -44 15z M391 1241q0 57 34 100t97 43q67 0 101 -43t34 -100q0 -58 -34 -99q-35 -42 -101 -42q-62 0 -97 42q-34 41 -34 99z" />
<glyph unicode="&#xf0;" horiz-adv-x="1101" d="M70 461q0 109 34 198q33 87 96 156q59 65 139 101t167 36q75 0 138 -31q65 -32 112 -98q-23 83 -73 170q-47 82 -122 150l-293 -99v99l201 67q-51 33 -94 51q-47 19 -111 37l33 74q174 -33 317 -115l250 84v-98l-73 -24q-26 -9 -53 -18q-23 -7 -23 -9q146 -110 232 -276 q86 -165 87 -371q0 -128 -38 -236q-37 -105 -102 -182q-64 -76 -153 -118t-190 -42q-111 0 -200 39q-87 38 -151 107q-62 67 -97 157q-33 86 -33 191zM328 518q0 -137 29 -236q30 -102 85 -157q21 -22 53 -39q31 -16 78 -16q96 0 152 92q55 91 55 246q0 132 -28 234 q-28 103 -80 155q-23 23 -56 41t-79 18q-98 0 -154 -92q-55 -91 -55 -246z" />
<glyph unicode="&#xf1;" horiz-adv-x="1173" d="M49 795l2 63l367 100v-151h10q84 66 168 109q82 42 168 42q46 0 93 -18q46 -18 81 -53q78 -78 78 -236v-526q0 -16 14 -24q15 -9 70 -15l43 -6l6 -80h-487l6 80l39 6q46 5 57 13q12 9 12 26v401q0 80 -11 125q-13 52 -35 77q-24 28 -56 39q-30 11 -76 11q-54 0 -101 -20 q-53 -22 -79 -43v-273v-319q0 -18 14 -25q15 -8 64 -12l55 -6l6 -80h-504l6 80l50 6q69 6 69 39v491q0 53 -4 78q-5 29 -13 46q-9 18 -27 27q-19 9 -44 15zM229 1090q18 147 71 212q52 64 142 64q48 0 92 -23q42 -22 83 -49q36 -24 76 -49q35 -22 65 -22q34 0 54 29 q22 31 44 96h86q-16 -146 -70 -212q-53 -65 -143 -65q-44 0 -90 23q-44 22 -86 50q-48 32 -78 50q-38 23 -65 23q-35 0 -52 -31q-16 -30 -39 -96h-90z" />
<glyph unicode="&#xf2;" horiz-adv-x="1118" d="M70 457q0 105 40 195q41 93 108 160q69 69 163 108q92 38 205 38q111 0 197 -37q88 -38 148 -104q61 -68 92 -152q32 -88 32 -186q0 -105 -38 -198t-107 -162q-71 -71 -162 -110q-93 -40 -205 -40q-111 0 -199 39q-85 38 -149 106q-63 68 -94 154q-31 87 -31 189z M190 1427h261l194 -372h-92zM336 512q0 -139 20 -236q21 -101 74 -157q20 -20 56 -38t83 -18q96 0 158 96q61 94 61 255q0 132 -23 233q-24 106 -73 156q-23 25 -54 41q-34 18 -81 18q-98 0 -160 -92q-61 -91 -61 -258z" />
<glyph unicode="&#xf3;" horiz-adv-x="1118" d="M70 457q0 105 40 195q41 93 108 160q69 69 163 108q92 38 205 38q111 0 197 -37q88 -38 148 -104q61 -68 92 -152q32 -88 32 -186q0 -105 -38 -198t-107 -162q-71 -71 -162 -110q-93 -40 -205 -40q-111 0 -199 39q-85 38 -149 106q-63 68 -94 154q-31 87 -31 189z M336 512q0 -139 20 -236q21 -101 74 -157q20 -20 56 -38t83 -18q96 0 158 96q61 94 61 255q0 132 -23 233q-24 106 -73 156q-23 25 -54 41q-34 18 -81 18q-98 0 -160 -92q-61 -91 -61 -258zM459 1055l192 372h264l-362 -372h-94z" />
<glyph unicode="&#xf4;" horiz-adv-x="1118" d="M70 457q0 105 40 195q41 93 108 160q69 69 163 108q92 38 205 38q111 0 197 -37q88 -38 148 -104q61 -68 92 -152q32 -88 32 -186q0 -105 -38 -198t-107 -162q-71 -71 -162 -110q-93 -40 -205 -40q-111 0 -199 39q-85 38 -149 106q-63 68 -94 154q-31 87 -31 189z M266 1055l238 403h110l238 -403h-76l-215 215h-4l-215 -215h-76zM336 512q0 -139 20 -236q21 -101 74 -157q20 -20 56 -38t83 -18q96 0 158 96q61 94 61 255q0 132 -23 233q-24 106 -73 156q-23 25 -54 41q-34 18 -81 18q-98 0 -160 -92q-61 -91 -61 -258z" />
<glyph unicode="&#xf5;" horiz-adv-x="1118" d="M70 457q0 105 40 195q41 93 108 160q69 69 163 108q92 38 205 38q111 0 197 -37q88 -38 148 -104q61 -68 92 -152q32 -88 32 -186q0 -105 -38 -198t-107 -162q-71 -71 -162 -110q-93 -40 -205 -40q-111 0 -199 39q-85 38 -149 106q-63 68 -94 154q-31 87 -31 189z M203 1090q18 148 70 212t143 64q47 0 91 -23q47 -24 84 -49q36 -24 76 -49q35 -22 64 -22q34 0 54 29q22 31 44 96h86q-17 -148 -69 -212q-53 -65 -144 -65q-44 0 -90 23q-44 22 -86 50q-57 38 -77 50q-38 23 -66 23q-34 0 -51 -31q-16 -30 -39 -96h-90zM336 512 q0 -139 20 -236q21 -101 74 -157q20 -20 56 -38t83 -18q96 0 158 96q61 94 61 255q0 132 -23 233q-24 106 -73 156q-23 25 -54 41q-34 18 -81 18q-98 0 -160 -92q-61 -91 -61 -258z" />
<glyph unicode="&#xf6;" horiz-adv-x="1118" d="M70 457q0 105 40 195q41 93 108 160q69 69 163 108q92 38 205 38q111 0 197 -37q88 -38 148 -104q61 -68 92 -152q32 -88 32 -186q0 -105 -38 -198t-107 -162q-71 -71 -162 -110q-93 -40 -205 -40q-111 0 -199 39q-85 38 -149 106q-63 68 -94 154q-31 87 -31 189z M205 1241q0 57 36 100t99 43q64 0 98 -43q35 -44 35 -100t-35 -99q-34 -42 -98 -42q-63 0 -99 42t-36 99zM336 512q0 -139 20 -236q21 -101 74 -157q20 -20 56 -38t83 -18q96 0 158 96q61 94 61 255q0 132 -23 233q-24 106 -73 156q-23 25 -54 41q-34 18 -81 18 q-98 0 -160 -92q-61 -91 -61 -258zM647 1241q0 57 34 100t97 43q67 0 101 -43t34 -100q0 -58 -34 -99q-35 -42 -101 -42q-62 0 -97 42q-34 41 -34 99z" />
<glyph unicode="&#xf7;" horiz-adv-x="995" d="M84 426l6 111h817l6 -111h-829zM395 193q0 41 30 72q30 32 77 32t76 -32q28 -31 28 -72q0 -42 -28 -74q-28 -33 -76 -33q-47 0 -77 33t-30 74zM395 766q0 40 29 74q28 32 76 32t77 -32t29 -74t-29 -74q-30 -33 -77 -33t-76 33q-29 34 -29 74z" />
<glyph unicode="&#xf8;" horiz-adv-x="1118" d="M74 461q0 104 36 194q37 93 101 158q67 68 156 107q88 38 198 38q118 0 205 -43l178 308l82 -25q-80 -138 -94 -162q-24 -40 -35 -59q-26 -46 -30 -52q-5 -8 -12 -20t-9 -17l-8 -14q96 -66 148 -173t52 -234q0 -107 -35 -196t-101 -158t-154 -107q-90 -39 -199 -39 q-113 0 -209 45l-158 -276l-82 24l168 293q-94 65 -146 173q-52 107 -52 235zM317 516q0 -164 58 -285l319 551q-30 39 -71 56q-43 18 -93 18q-98 0 -155 -90q-58 -92 -58 -250zM422 143q28 -37 73 -56q40 -17 89 -17q96 0 154 90q59 91 59 250q0 168 -58 284z" />
<glyph unicode="&#xf9;" horiz-adv-x="1146" d="M18 928h383l-12 -527q0 -79 11 -123q13 -50 35 -77q23 -28 57 -40q30 -11 75 -11q56 0 103 20q51 22 78 43v324v270q0 17 -15 24q-18 9 -63 13l-60 4l-8 80h385v-752q0 -27 8 -48q8 -20 27 -26l104 -32l-6 -60l-372 -41v152h-11q-87 -69 -168 -110q-83 -42 -168 -42 q-44 0 -93 19q-46 18 -81 53q-77 77 -77 235l2 529q0 20 -16 25q-28 8 -70 14l-41 4zM199 1427h260l194 -372h-92z" />
<glyph unicode="&#xfa;" horiz-adv-x="1146" d="M18 928h383l-12 -527q0 -79 11 -123q13 -50 35 -77q23 -28 57 -40q30 -11 75 -11q56 0 103 20q51 22 78 43v324v270q0 17 -15 24q-18 9 -63 13l-60 4l-8 80h385v-752q0 -27 8 -48q8 -20 27 -26l104 -32l-6 -60l-372 -41v152h-11q-87 -69 -168 -110q-83 -42 -168 -42 q-44 0 -93 19q-46 18 -81 53q-77 77 -77 235l2 529q0 20 -16 25q-28 8 -70 14l-41 4zM440 1055l193 372h264l-362 -372h-95z" />
<glyph unicode="&#xfb;" horiz-adv-x="1146" d="M18 928h383l-12 -527q0 -79 11 -123q13 -50 35 -77q23 -28 57 -40q30 -11 75 -11q56 0 103 20q51 22 78 43v324v270q0 17 -15 24q-18 9 -63 13l-60 4l-8 80h385v-752q0 -27 8 -48q8 -20 27 -26l104 -32l-6 -60l-372 -41v152h-11q-87 -69 -168 -110q-83 -42 -168 -42 q-44 0 -93 19q-46 18 -81 53q-77 77 -77 235l2 529q0 20 -16 25q-28 8 -70 14l-41 4zM254 1055l238 403h110l238 -403h-76l-215 215h-4l-215 -215h-76z" />
<glyph unicode="&#xfc;" horiz-adv-x="1146" d="M18 928h383l-12 -527q0 -79 11 -123q13 -50 35 -77q23 -28 57 -40q30 -11 75 -11q56 0 103 20q51 22 78 43v324v270q0 17 -15 24q-18 9 -63 13l-60 4l-8 80h385v-752q0 -27 8 -48q8 -20 27 -26l104 -32l-6 -60l-372 -41v152h-11q-87 -69 -168 -110q-83 -42 -168 -42 q-44 0 -93 19q-46 18 -81 53q-77 77 -77 235l2 529q0 20 -16 25q-28 8 -70 14l-41 4zM193 1241q0 58 35 100q36 43 100 43t98 -43q35 -44 35 -100t-35 -99q-34 -42 -98 -42t-100 42q-35 41 -35 99zM635 1241q0 57 34 100t97 43q66 0 100 -43q35 -44 35 -100t-35 -99 q-34 -42 -100 -42q-62 0 -97 42q-34 41 -34 99z" />
<glyph unicode="&#xfd;" horiz-adv-x="989" d="M-35 928h508l-6 -80l-61 -17q-60 -12 -33 -77l217 -512l166 473q20 54 11 81q-9 25 -48 31l-68 23l-6 78h391l-6 -78l-61 -12q-40 -6 -61 -35q-24 -32 -46 -88l-246 -643l-116 -344q-46 -134 -106 -200q-59 -65 -150 -65q-67 0 -111 37q-45 38 -45 92q0 47 29 85t86 38 q55 0 85 -26q31 -26 46 -60q25 11 45 44t43 106l53 155v13l-364 811q-15 33 -32 47q-15 13 -59 24l-47 19zM362 1055l193 372h264l-362 -372h-95z" />
<glyph unicode="&#xfe;" horiz-adv-x="1130" d="M8 1253l6 60l373 114v-634h10q56 64 131 109q74 44 160 44q83 0 153 -35q67 -34 117 -94q51 -62 77 -140q28 -84 28 -173q0 -106 -35 -203q-35 -98 -100 -170q-67 -75 -158 -118q-93 -44 -209 -44q-40 0 -90 8q-41 7 -80 19h-4v-377q0 -33 78 -37l70 -6l6 -80h-527l6 80 l58 6q69 6 69 39v1514q0 53 -34 69zM387 186q50 -58 102 -92q49 -33 109 -33q80 0 143 93q62 92 62 260q0 166 -68 261t-174 95q-54 0 -99 -22t-75 -52v-510z" />
<glyph unicode="&#xff;" horiz-adv-x="989" d="M-35 928h508l-6 -80l-61 -17q-60 -12 -33 -77l217 -512l166 473q20 54 11 81q-9 25 -48 31l-68 23l-6 78h391l-6 -78l-61 -12q-40 -6 -61 -35q-24 -32 -46 -88l-246 -643l-116 -344q-46 -134 -106 -200q-59 -65 -150 -65q-67 0 -111 37q-45 38 -45 92q0 47 29 85t86 38 q55 0 85 -26q31 -26 46 -60q25 11 45 44t43 106l53 155v13l-364 811q-15 33 -32 47q-15 13 -59 24l-47 19zM160 1241q0 57 36 100t99 43q64 0 98 -43q35 -44 35 -100t-35 -99q-34 -42 -98 -42q-63 0 -99 42t-36 99zM602 1241q0 57 34 100t97 43q67 0 101 -43t34 -100 q0 -58 -34 -99q-34 -42 -101 -42q-63 0 -97 42q-34 41 -34 99z" />
<glyph unicode="&#x152;" horiz-adv-x="2045" d="M88 610q0 132 50 255q50 122 149 214q102 95 242 147q144 54 331 54h1057v-416h-129l-45 174q-16 55 -34 83q-20 30 -62 45q-45 16 -119 20q-68 4 -203 4h-98v-498h59q99 0 136 11q40 12 55 53l49 139h100l-47 -489h-96l-19 131q-1 16 -10 30q-8 13 -27 21t-53 11t-94 3 h-53v-512h98q124 0 212 5q76 4 124 22q45 17 66 46q23 33 40 81l48 155h137l-39 -399h-1086q-165 0 -302 45q-135 44 -233 126t-151 193q-53 112 -53 246zM365 662q0 -135 33 -235q35 -107 103 -179q70 -75 171 -115q103 -41 237 -41h66v1069l-148 31q-109 0 -196 -41 q-86 -41 -146 -113t-90 -169t-30 -207z" />
<glyph unicode="&#x153;" horiz-adv-x="1708" d="M70 459q1 102 41 195q39 92 106 159q68 68 161 107q91 38 204 38q115 0 202 -40t148 -113q67 73 157 113t199 40q74 0 137 -21q61 -20 110 -63q47 -40 72 -99q25 -57 25 -134q0 -25 -3 -55q-3 -32 -9 -58l-592 9v-23q0 -82 23 -153q23 -69 62 -116q41 -49 95 -75 q56 -27 119 -27q70 0 136 33q69 34 120 96l45 -24q-51 -134 -157 -207q-105 -72 -254 -72q-98 0 -180 38q-79 37 -138 108q-68 -68 -159 -107q-92 -39 -201 -39q-111 0 -199 39t-149 106t-92 155q-31 86 -29 190zM332 514q0 -137 20 -236q21 -103 74 -159q20 -20 56 -38 t83 -18q96 0 158 95q61 94 63 254q0 133 -23 234q-24 107 -73 157q-25 25 -56 41q-34 18 -81 18q-99 0 -159 -91q-61 -92 -62 -257zM1030 606q76 0 182 2q46 0 67 1t57 1h41h2h2h10q8 125 -32 191q-40 67 -110 67q-78 0 -142 -65q-65 -67 -77 -197z" />
<glyph unicode="&#x178;" horiz-adv-x="1241" d="M-25 1280h584l-6 -84l-72 -12q-18 -4 -31 -17t-11 -37q1 -22 17 -64q13 -36 48 -99l182 -328h14l183 326q65 110 61 159q-5 50 -65 60l-58 12l-6 84h451l-6 -84l-41 -12q-24 -8 -47 -19q-26 -13 -46 -33q-26 -26 -53 -63q-25 -35 -67 -102l-244 -422v-420q0 -16 13 -23 t61 -12l100 -8l6 -82h-633l6 82l105 8q72 8 72 39v389l-351 584q-18 28 -42 48t-58 30l-59 16zM297 1583q0 57 36 100t99 43q64 0 98 -43q35 -44 35 -100t-35 -99q-34 -42 -98 -42q-63 0 -99 42t-36 99zM739 1583q0 57 34 100t97 43q67 0 101 -43q35 -44 35 -100t-35 -99 q-35 -42 -101 -42q-62 0 -97 42q-34 41 -34 99z" />
<glyph unicode="&#x2c6;" horiz-adv-x="819" d="M117 1055l237 403h111l237 -403h-75l-215 215h-4l-215 -215h-76z" />
<glyph unicode="&#x2dc;" horiz-adv-x="819" d="M53 1090q18 147 71 212q52 64 142 64q47 0 91 -23q47 -24 84 -49q36 -24 76 -49q35 -22 65 -22q34 0 54 29q22 31 44 96h86q-16 -146 -70 -212q-53 -65 -143 -65q-44 0 -90 23q-44 22 -86 50q-48 32 -78 50q-38 23 -66 23q-34 0 -51 -31q-16 -30 -39 -96h-90z" />
<glyph unicode="&#x2000;" horiz-adv-x="900" />
<glyph unicode="&#x2001;" horiz-adv-x="1800" />
<glyph unicode="&#x2002;" horiz-adv-x="900" />
<glyph unicode="&#x2003;" horiz-adv-x="1800" />
<glyph unicode="&#x2004;" horiz-adv-x="600" />
<glyph unicode="&#x2005;" horiz-adv-x="450" />
<glyph unicode="&#x2006;" horiz-adv-x="300" />
<glyph unicode="&#x2007;" horiz-adv-x="300" />
<glyph unicode="&#x2008;" horiz-adv-x="225" />
<glyph unicode="&#x2009;" horiz-adv-x="360" />
<glyph unicode="&#x200a;" horiz-adv-x="100" />
<glyph unicode="&#x2010;" horiz-adv-x="681" d="M68 440l6 123h538l6 -123h-550z" />
<glyph unicode="&#x2011;" horiz-adv-x="681" d="M68 440l6 123h538l6 -123h-550z" />
<glyph unicode="&#x2012;" horiz-adv-x="681" d="M68 440l6 123h538l6 -123h-550z" />
<glyph unicode="&#x2013;" horiz-adv-x="962" d="M61 440l7 123h831l6 -123h-844z" />
<glyph unicode="&#x2014;" horiz-adv-x="1925" d="M61 440l7 123h1794l6 -123h-1807z" />
<glyph unicode="&#x2018;" horiz-adv-x="495" d="M57 938q0 64 26 125q25 60 69 114q44 55 101 103q55 46 124 92l59 -51q-80 -54 -136 -122q-54 -66 -54 -148q0 -50 28 -84q30 -36 64 -57q29 -18 63 -32q29 -12 29 -16q0 -55 -43 -101t-119 -46q-46 0 -81 17q-39 19 -66 47q-27 29 -46 71q-18 40 -18 88z" />
<glyph unicode="&#x2019;" horiz-adv-x="495" d="M63 743q83 56 137 122t54 149q0 49 -29 84q-29 36 -63 56q-32 20 -64 33q-28 12 -28 15q0 56 43 102t118 46q43 0 81 -18q41 -20 67 -47q27 -29 46 -71q17 -38 17 -88q0 -65 -25 -124q-26 -61 -69 -113q-48 -58 -100 -103t-123 -92z" />
<glyph unicode="&#x201a;" horiz-adv-x="495" d="M63 -330q83 56 137 122t54 149q0 51 -29 86q-29 36 -63 56q-32 20 -64 33q-28 12 -28 15q0 55 43 101q44 47 118 47q43 0 81 -18q41 -20 67 -47q27 -29 46 -71q17 -38 17 -88q0 -66 -25 -125q-25 -58 -69 -113q-46 -57 -100 -104q-52 -45 -123 -92z" />
<glyph unicode="&#x201c;" horiz-adv-x="937" d="M57 938q0 64 26 125q25 60 69 114q44 55 101 103q55 46 124 92l59 -51q-80 -54 -136 -122q-54 -66 -54 -148q0 -50 28 -84q30 -36 64 -57q29 -18 63 -32q29 -12 29 -16q0 -55 -43 -101t-119 -46q-46 0 -81 17q-39 19 -66 47q-27 29 -46 71q-18 40 -18 88zM514 938 q0 64 26 125q27 63 68 114q42 52 102 103q55 46 124 92l59 -51q-78 -55 -135 -122q-56 -67 -56 -148q0 -49 29 -84q30 -36 64 -57q29 -18 63 -32q29 -12 29 -16q0 -55 -43 -101t-119 -46q-44 0 -79 17q-38 18 -67 47q-30 30 -48 71q-17 38 -17 88z" />
<glyph unicode="&#x201d;" horiz-adv-x="937" d="M63 743q83 56 137 122t54 149q0 49 -29 84q-29 36 -63 56q-32 20 -64 33q-28 12 -28 15q0 56 43 102t118 46q43 0 81 -18q41 -20 67 -47q27 -29 46 -71q17 -38 17 -88q0 -65 -25 -124q-26 -61 -69 -113q-48 -58 -100 -103t-123 -92zM522 743q78 55 135 122q56 67 56 149 q0 49 -29 84q-29 36 -63 56q-32 20 -64 33q-29 12 -29 15q0 56 43 102t119 46q41 0 80 -18q42 -19 68 -47q27 -29 46 -71q17 -38 17 -88q0 -65 -25 -124q-26 -61 -69 -113q-49 -59 -101 -103q-55 -46 -124 -92z" />
<glyph unicode="&#x201e;" horiz-adv-x="927" d="M63 -330q83 56 137 122t54 149q0 49 -29 84q-29 36 -63 56q-32 20 -64 33q-28 12 -28 15q0 55 43 101t118 46q46 0 81 -17q41 -20 67 -47q27 -29 46 -71q17 -38 17 -88q0 -66 -25 -125t-69 -112q-48 -58 -100 -103t-123 -92zM522 -330q78 55 135 122q56 67 56 149 q0 49 -29 84q-29 36 -63 56q-32 20 -64 33q-29 12 -29 15q0 55 43 101t119 46q43 0 80 -17q42 -19 68 -47q27 -29 46 -71q17 -38 17 -88q0 -66 -25 -125t-69 -112q-49 -59 -101 -103q-55 -46 -124 -92z" />
<glyph unicode="&#x2022;" horiz-adv-x="931" d="M72 475q0 23 12 63q8 28 31 83q16 40 39 80q24 43 34 53q16 16 54 36q27 14 80 36q44 18 84 30q41 12 61 12q21 0 62 -12q37 -11 83 -30q58 -24 81 -36q37 -19 52 -36q16 -15 36 -53q19 -37 37 -80q19 -46 30 -83q12 -40 12 -63q0 -21 -12 -62q-11 -37 -30 -83 q-20 -48 -37 -81q-19 -37 -36 -54q-13 -13 -52 -35q-31 -17 -81 -38q-44 -18 -84 -30t-63 -12q-22 0 -62 12q-41 12 -84 30t-79 38q-39 22 -52 35q-10 11 -34 54q-21 37 -39 81q-23 55 -31 83q-12 41 -12 62z" />
<glyph unicode="&#x2026;" horiz-adv-x="1425" d="M82 127q0 66 46 112t114 46q67 0 112 -46q45 -47 45 -112q0 -64 -45 -112t-112 -48t-114 47q-46 46 -46 113zM557 127q0 66 46 112t114 46q67 0 112 -46q45 -47 45 -112q0 -64 -45 -112t-112 -48t-114 47q-46 46 -46 113zM1032 127q0 66 46 112t114 46t113 -46 q45 -47 45 -112q0 -64 -45 -112t-113 -48q-67 0 -114 47q-46 46 -46 113z" />
<glyph unicode="&#x202f;" horiz-adv-x="360" />
<glyph unicode="&#x2039;" horiz-adv-x="634" d="M68 391v123l479 315l22 -43l-297 -333l297 -334l-22 -43z" />
<glyph unicode="&#x203a;" horiz-adv-x="634" d="M84 119l297 334l-297 333l22 43l480 -315v-123l-480 -315z" />
<glyph unicode="&#x205f;" horiz-adv-x="450" />
<glyph unicode="&#x20ac;" horiz-adv-x="1083" d="M39 442l6 97h113q-2 22 -2 32v33q0 30 1 46t3 46h-121l6 97h129q22 104 75 201q49 91 122 156q72 64 161 100q90 36 195 36q134 0 217 -50q82 -49 82 -124q0 -54 -33 -85q-34 -32 -82 -32q-62 0 -100 53q-37 52 -43 117q-18 11 -39 18q-20 7 -49 7q-58 0 -107 -30 q-50 -30 -87 -82q-38 -52 -63 -126t-36 -159h412l6 -97h-426v-39q0 -63 6 -118h414l6 -97h-404q39 -152 120 -231q82 -80 206 -80q85 0 155 39q72 40 126 98l41 -26q-50 -119 -152 -197t-246 -78q-188 0 -314 126q-127 127 -167 349h-131z" />
<glyph unicode="&#x2122;" horiz-adv-x="1918" d="M53 983l17 297h706v-297h-84l-10 39q-14 54 -27 94q-13 39 -31 59q-19 21 -49 30q-29 9 -77 9h-2v-593q0 -9 5 -17t19 -12l80 -12l4 -62h-387l6 62l78 12q18 5 22 12q5 8 5 17v593h-2q-43 0 -69 -10q-28 -11 -47 -33t-34 -59q-13 -32 -31 -90l-12 -39h-80zM852 518l6 62 l62 10q11 1 19 8q7 5 13 27q7 26 10 61q4 49 5 111l12 379q0 10 -5 18q-4 7 -22 12l-69 13l-4 61h346l112 -557h21l162 557h344l-4 -61l-70 -13q-17 -5 -23 -12q-6 -8 -6 -18l8 -461q0 -37 5 -62q4 -23 9 -36q4 -12 12 -17q7 -4 15 -6l64 -14l4 -62h-371l2 62l66 14 q16 4 21 26q5 21 3 95l-8 475h-20l-201 -647h-139l-152 653h-20l-15 -399q-2 -90 -2 -108q0 -32 2 -60q1 -18 9 -28q4 -5 14 -11l66 -10l4 -62h-285z" />
<glyph unicode="&#x25fc;" horiz-adv-x="931" d="M0 0v932h932v-932h-932z" />
</font>
</defs>
</svg>
