<?xml version="1.0" standalone="no"?>
<!DOCTYPE svg PUBLIC "-//W3C//DTD SVG 1.1//EN" "http://www.w3.org/Graphics/SVG/1.1/DTD/svg11.dtd" >
<svg xmlns="http://www.w3.org/2000/svg" xmlns:xlink="http://www.w3.org/1999/xlink" version="1.1">
<metadata></metadata>
<defs>
<font id="freighttextblack_italic" horiz-adv-x="1191" >
<font-face units-per-em="2048" ascent="1638" descent="-410" />
<missing-glyph horiz-adv-x="417" />
<glyph unicode="&#xfb01;" horiz-adv-x="1214" d="M-385 -305q0 62 40 99q41 38 95 38q74 0 122 -57t54 -135l103 18q21 58 37 128q18 81 30 177l107 799l-170 20l6 80l199 80q11 76 53 164q44 92 121 168q75 75 184 116q111 42 238 42q142 0 221 -63q80 -63 80 -171q0 -59 -43 -105t-109 -46q-38 0 -68 21q-29 21 -54 56 q-23 34 -39 79q-16 46 -23 89l-166 -22q-40 -93 -59 -176q-16 -67 -37 -176h235q26 17 70 36q34 15 71 15q23 0 59 -18t69 -41t58 -48q24 -24 19 -37l-172 -643l17 -16l172 113l36 -52q-29 -47 -63 -89q-38 -46 -78 -84q-39 -36 -87 -61q-47 -24 -95 -24q-22 0 -58 18 q-34 17 -70 42q-32 22 -56 48q-22 24 -21 36l176 653l-16 16h-295l-129 -635q-39 -194 -105 -329q-63 -130 -139 -207q-60 -60 -130 -87q-73 -28 -148 -28q-48 0 -94 16q-41 14 -76 41t-53 62q-19 37 -19 80z" />
<glyph unicode="&#xfb02;" horiz-adv-x="1204" d="M-385 -305q0 62 40 99q41 38 95 38q74 0 122 -57t54 -135l103 18q21 58 37 128q18 81 30 177l107 799l-170 20l6 80l199 80q11 76 53 164q44 92 121 168q75 75 184 116q111 42 238 42q121 0 200 -50l201 45l-279 -1245l17 -16l172 113l37 -52q-26 -42 -64 -89 q-38 -46 -78 -84q-39 -36 -87 -61q-47 -24 -95 -24q-22 0 -56 18t-66 42q-33 25 -53 48q-21 23 -19 36l145 669h-301l-129 -635q-39 -194 -105 -329q-63 -130 -139 -207q-60 -60 -130 -87q-73 -28 -148 -28q-48 0 -94 16q-41 14 -76 41t-53 62q-19 37 -19 80zM537 918h303 l37 169q-29 29 -49 91q-17 53 -29 114l-166 -22q-40 -93 -59 -176q-16 -67 -37 -176z" />
<glyph unicode="&#xfb03;" horiz-adv-x="1787" d="M-385 -305q0 62 40 99q41 38 95 38q74 0 122 -57t54 -135l103 18q21 58 37 128q18 81 30 177l107 799l-170 20l6 80l199 80q11 75 46 158q37 89 117 164q31 30 78 66q36 27 84 50q43 20 101 31q53 10 124 10q83 0 144 -29q62 -29 100 -77q74 56 170 86q99 31 205 31 q141 0 221 -63t80 -171q0 -59 -43 -105t-109 -46q-37 0 -67 21q-29 21 -54 56q-23 34 -39 79q-18 51 -24 89l-172 -22q-38 -89 -55 -176q-5 -28 -17 -86.5t-18 -89.5h236q28 18 69 36q35 15 72 15q22 0 58 -18q39 -20 70 -41q30 -21 57 -48q25 -25 20 -37l-172 -643l16 -16 l172 113l37 -52q-26 -42 -64 -89q-40 -50 -77 -84q-39 -36 -87 -61q-47 -24 -96 -24q-22 0 -58 18q-34 17 -70 42q-32 22 -56 48q-23 24 -21 36l177 653l-17 16h-295l-116 -571q-40 -200 -104 -332q-64 -133 -140 -209q-59 -59 -134 -86q-72 -26 -153 -26q-86 0 -146 36 q-62 37 -85 99q-17 -23 -34 -43q-25 -29 -34 -39q-60 -60 -130 -87q-73 -28 -148 -28q-48 0 -94 16q-41 14 -76 41t-53 62q-19 37 -19 80zM305 -109q15 3 23 3q75 0 122 -59t54 -136l106 20q19 54 35 128q15 68 31 176l104 759h-272l-129 -635q-29 -140 -74 -256zM537 918 h270q13 57 20 81q8 30 23 72q-46 34 -74 94q-29 62 -39 127l-131 -22q-20 -83 -37 -176q-26 -145 -32 -176z" />
<glyph unicode="&#xfb04;" horiz-adv-x="1777" d="M-385 -305q0 62 40 99q41 38 95 38q74 0 122 -57t54 -135l103 18q21 58 37 128q18 81 30 177l107 799l-170 20l6 80l199 80q11 75 46 158q37 89 117 164q31 30 78 66q36 27 84 50q43 20 101 31q53 10 124 10q83 0 144 -29q62 -29 100 -77q74 56 170 86q99 31 205 31 q122 0 201 -50l200 45l-278 -1245l16 -16l172 113l37 -52q-29 -47 -63 -89q-38 -46 -78 -84q-39 -36 -87 -61q-47 -24 -95 -24q-22 0 -57 18q-31 16 -65 42q-36 27 -54 48q-21 23 -19 36l145 669h-301l-116 -571q-40 -200 -104 -332q-64 -133 -140 -209q-59 -59 -134 -86 q-72 -26 -153 -26q-86 0 -146 36q-62 37 -85 99q-17 -23 -34 -43q-25 -29 -34 -39q-60 -60 -130 -87q-73 -28 -148 -28q-48 0 -94 16q-41 14 -76 41t-53 62q-19 37 -19 80zM305 -109q15 3 23 3q75 0 122 -59t54 -136l106 20q19 54 35 128q15 68 31 176l104 759h-272 l-129 -635q-29 -140 -74 -256zM537 918h270q13 57 20 81q8 30 23 72q-46 34 -74 94q-29 62 -39 127l-131 -22q-20 -83 -37 -176q-26 -145 -32 -176zM1110 918h303l37 169q-28 28 -48 91q-20 62 -30 114l-172 -22q-38 -89 -55 -176q-5 -28 -17 -86.5t-18 -89.5z" />
<glyph horiz-adv-x="0" />
<glyph unicode="&#xd;" horiz-adv-x="417" />
<glyph unicode=" "  horiz-adv-x="417" />
<glyph unicode="&#x09;" horiz-adv-x="417" />
<glyph unicode="&#xa0;" horiz-adv-x="417" />
<glyph unicode="!" horiz-adv-x="622" d="M96 129q0 67 47 116q47 48 115 48q69 0 115 -49q47 -50 47 -115t-47 -114q-47 -48 -115 -48t-115 47t-47 115zM272 1190q0 56 46 87q47 32 112 32h10q38 0 71 -11t53 -28q23 -20 30 -44q8 -28 -2 -57l-256 -743q-2 -8 -12 -11t-21 -3q-10 0 -18 5q-9 5 -9 13z" />
<glyph unicode="&#x22;" horiz-adv-x="798" d="M53 825l236 496h2l207 -72l-338 -424h-107zM422 825l235 496h2l207 -72l-338 -424h-106z" />
<glyph unicode="#" horiz-adv-x="1220" d="M80 356l4 119h278l84 328h-249l6 115h278l99 374h120l-96 -374h291l100 374h117l-96 -374h248l-7 -115h-276l-84 -328h248l-4 -119h-281l-98 -368h-117l94 368h-293l-98 -368h-121l99 368h-246zM483 475h297l80 328h-295z" />
<glyph unicode="$" horiz-adv-x="1161" d="M53 43l47 422l179 -6l67 -334q4 -1 13.5 -3.5t14.5 -4.5q1 -1 29 -8l105 387q-89 40 -148 74q-60 34 -111 85q-47 47 -71 109t-24 147q0 83 37 154q38 72 107 125q72 55 164 84q98 31 208 31h27q10 0 26 -2l57 208h111l-60 -221q56 -9 97 -19q76 -18 104 -26l119 43 l-57 -444l-168 6l-62 297l-33 9q-5 1 -16 4t-16 5l-101 -366q79 -40 145 -77t113 -83q48 -46 74 -103q27 -58 27 -139q0 -103 -40 -182q-41 -80 -110 -134t-166 -83q-98 -29 -211 -29h-27q-10 0 -26 2l-84 -311h-110l86 317q-86 10 -168 29q-53 12 -148 37zM455 1034 q0 -66 41 -113q39 -45 106 -83l92 348h-37q-47 0 -86 -14q-36 -13 -63 -34q-25 -20 -40 -49q-13 -26 -13 -55zM506 88q14 -2 20 -2h23q103 0 158 52t55 134q0 66 -45 108q-43 40 -113 79z" />
<glyph unicode="%" horiz-adv-x="1527" d="M72 -31l1290 1340h121l-1290 -1340h-121zM92 946q0 78 30 147q28 65 80 120q48 51 119 82q69 30 144 30q70 0 126 -20q59 -21 102 -60q46 -41 70 -95q25 -56 25 -126q0 -83 -29 -150t-80 -121q-48 -51 -119 -82q-69 -30 -148 -30q-63 0 -124 22q-59 21 -102 61t-68 96 q-26 58 -26 126zM190 950q0 -102 67 -163q66 -60 163 -60q55 0 105 22q47 21 84 59q35 37 57 88q20 47 20 108q0 102 -63 166q-63 65 -166 65q-58 0 -106 -24q-50 -25 -84 -63q-35 -39 -56 -91q-21 -51 -21 -107zM780 254q0 79 29 149q28 68 79 122q48 51 118 82 q68 30 147 30q65 0 124 -21t101 -59q44 -40 69 -95q26 -58 26 -126q0 -81 -30 -150q-30 -68 -81 -121q-50 -52 -120 -82q-69 -30 -146 -30q-138 0 -227 80t-89 221zM879 262q0 -103 64 -163q65 -60 161 -60q59 0 106 23q48 23 86 63q37 38 58 90q20 49 20 109q0 50 -18 90 q-17 38 -49 70q-29 29 -73 46q-43 17 -89 17q-58 0 -106 -24q-50 -25 -84 -63q-35 -39 -56 -91q-20 -49 -20 -107z" />
<glyph unicode="&#x26;" horiz-adv-x="1431" d="M4 301q0 80 33 140q35 64 82 105q51 45 108 72q62 29 113 41v5q-57 48 -102 120q-43 68 -43 162q0 90 44 158q43 68 114 114q68 45 158 68q89 23 171 23q87 0 162 -20q77 -21 127 -56q53 -38 83 -87q29 -48 29 -112q0 -62 -28 -111q-29 -50 -80 -89q-53 -41 -119 -67 q-70 -28 -147 -44v-4l254 -262h4l192 180v6q-34 30 -50 58q-15 27 -15 71q0 68 48 115q49 47 120 47q84 0 135 -53t51 -131q0 -115 -100 -190q-98 -73 -281 -134l-53 -18l315 -334l-309 -135l-248 288h-4q-111 -131 -227 -193q-117 -63 -244 -63q-60 0 -116 25 q-55 24 -93 67q-38 42 -61 104q-23 61 -23 134zM297 377q0 -72 51 -117t144 -45q49 0 105 13q60 14 110 46l-301 332q-49 -52 -79 -109t-30 -120zM502 1042q0 -79 34 -135q38 -63 105 -127q75 55 109 128q32 70 32 132q0 70 -39 121t-100 51q-59 0 -100 -48 q-41 -49 -41 -122z" />
<glyph unicode="'" horiz-adv-x="430" d="M53 825l236 496h2l207 -72l-338 -424h-107z" />
<glyph unicode="(" horiz-adv-x="808" d="M180 430q0 186 54 341q52 150 138 276q80 118 180 204q96 83 183 127l60 -86q-85 -46 -166 -122q-92 -85 -159 -189q-75 -116 -120 -250q-47 -141 -47 -301t47 -301q45 -134 120 -250q67 -104 159 -189q84 -78 166 -120l-60 -88q-85 44 -183 126t-180 204 q-87 128 -138 276q-54 156 -54 342z" />
<glyph unicode=")" horiz-adv-x="808" d="M16 -434q81 45 165 122q88 80 159 190q73 112 119 251q47 141 47 301t-47 301q-46 137 -119 250q-70 107 -159 189q-84 77 -165 122l62 86q85 -44 180 -127q100 -87 179 -204q84 -123 137 -276q55 -157 55 -341q0 -183 -55 -342q-52 -151 -137 -276q-82 -120 -179 -204 q-96 -82 -180 -126z" />
<glyph unicode="*" horiz-adv-x="735" d="M145 758l11 127l241 65v43l-241 66l-11 127l31 35l125 12l115 -219l33 10l-17 250l115 51l43 -16l53 -107l-170 -188l21 -27l229 98l88 -92v-45l-88 -90l-229 98l-21 -26l170 -189l-53 -106l-43 -17l-115 52l14 254l-30 8l-115 -221l-125 12z" />
<glyph unicode="+" horiz-adv-x="983" d="M55 420l6 123h369v370h125v-370h367l6 -123h-373v-371h-125v371h-375z" />
<glyph unicode="," horiz-adv-x="475" d="M-92 -297q108 64 173 139q66 76 66 148q0 45 -22 79q-20 31 -48 57q-25 24 -48 36t-23 14q0 27 13 53q15 30 37 49t55 34q31 14 67 14q47 0 88 -19q38 -18 65 -49q25 -29 39 -70q13 -38 13 -79q0 -61 -31 -126q-29 -62 -86 -123q-59 -64 -133 -115q-80 -56 -174 -101z " />
<glyph unicode="-" horiz-adv-x="692" d="M68 453l6 137h549l6 -137h-561z" />
<glyph unicode="." horiz-adv-x="475" d="M18 147q0 76 53 129q54 54 128 54q36 0 69 -15q36 -16 58 -40q24 -26 39 -58q14 -31 14 -70q0 -75 -52 -127q-53 -53 -128 -53q-76 0 -128 52q-53 53 -53 128z" />
<glyph unicode="/" horiz-adv-x="571" d="M4 -434l445 1796h114l-444 -1796h-115z" />
<glyph unicode="0" horiz-adv-x="1075" d="M78 420q0 112 35 222q35 108 99 192q65 84 155 134q91 50 198 50q86 0 165 -31q75 -29 133 -89q56 -57 89 -143q33 -85 33 -192q0 -110 -35 -220q-35 -108 -97 -190q-66 -86 -153 -134q-91 -50 -200 -50q-86 0 -165 31q-76 30 -134 88q-57 57 -90 141t-33 191zM285 420 q0 -61 17 -106q18 -49 47 -82t70 -53q39 -19 85 -19q75 0 128 41q51 39 86 102q34 60 49 132q15 70 15 128t-18 106q-17 46 -49 84q-28 34 -72 55q-39 19 -86 19q-76 0 -127 -42q-52 -43 -84 -104q-31 -60 -47 -133q-14 -66 -14 -128z" />
<glyph unicode="1" horiz-adv-x="784" d="M33 0l18 98l115 23q48 7 53 47l82 627l-211 22l16 78l537 137l-113 -864q-1 -15 7 -30q7 -12 34 -17l113 -23l-6 -98h-645z" />
<glyph unicode="2" horiz-adv-x="999" d="M10 0l6 170q63 41 199 130q96 63 162 116q70 56 111 109q44 56 51 112q10 72 -28 129q-37 55 -132 61q-52 4 -119 -20q-64 -23 -149 -84l-21 65q48 50 105 91q53 39 126 75q67 34 137 50t138 12q142 -10 222 -87t63 -200q-10 -76 -70 -140q-61 -66 -147 -124 q-85 -57 -195 -118q-109 -60 -211 -124l-2 -10h98q152 0 203 1q80 2 118 7q42 6 60 18q21 14 33 31l63 92h89l-123 -362h-787z" />
<glyph unicode="3" horiz-adv-x="927" d="M-106 -184q0 59 40 102t101 43q51 0 80 -23q31 -25 47 -61q17 -38 21 -80q4 -43 3 -82q11 0 15 -1t14 -1q62 0 115 25q50 24 88 66q34 38 57 97q21 54 21 115q0 99 -61 165q-60 65 -163 65q-35 0 -77 -8q-26 -5 -78 -19l-31 78q28 15 83 42t80 40q76 39 134 80 q55 39 91 89q34 47 34 109q0 82 -58 124t-135 42q-72 0 -136 -32q-68 -34 -122 -72l-22 67q52 54 100 90q55 41 119 72q67 32 130 49q70 19 132 19q51 0 112 -16q54 -14 100 -46t73 -76q28 -46 28 -108q0 -85 -47 -150q-46 -64 -117 -114q-69 -48 -151 -84 q-27 -12 -75 -33.5t-70 -30.5v-14q74 23 145 23q61 0 115 -20q53 -19 93 -54q38 -32 63 -86q24 -51 24 -113q0 -108 -56 -195q-58 -90 -144 -154q-85 -63 -191 -101q-104 -37 -201 -37q-47 0 -101 10q-56 10 -107 35t-83 64t-32 100z" />
<glyph unicode="4" horiz-adv-x="1161" d="M-2 145l813 887l145 -45l-106 -821h256l-33 -129h-242l-53 -414h-289l54 414h-539zM150 166h411l78 520h-10z" />
<glyph unicode="5" horiz-adv-x="1003" d="M-102 -195q0 59 39 106q39 46 100 46q49 0 80 -22q32 -22 46 -55t19 -76q4 -41 0 -80q31 -16 64 -23q35 -8 67 -8q52 0 91 20q42 22 68 55q30 38 43 78q15 45 15 93q0 82 -47 149q-47 66 -116 116q-66 47 -150 87q-77 36 -145 61l258 637h618l-41 -252h-553l-73 -170 q82 -29 175 -75q92 -45 168 -108q80 -66 127 -143q50 -82 50 -186q0 -103 -47 -189q-46 -84 -124 -147q-75 -60 -173 -94q-96 -33 -193 -33q-44 0 -110 11q-63 10 -121 35q-56 24 -96 65q-39 41 -39 102z" />
<glyph unicode="6" horiz-adv-x="1157" d="M76 455q0 165 83 326t226 291t337 217q193 87 415 108l55 -90q-151 -33 -278 -90q-126 -56 -228 -134q-102 -77 -170 -171t-106 -205l10 -7q76 83 168 135q94 54 198 54q60 0 115 -27t96 -75q43 -51 66 -114q24 -66 24 -147q0 -125 -51 -227t-131 -176t-178 -114 t-192 -40q-96 0 -181 32q-83 31 -145 93q-61 61 -97 153q-36 91 -36 208zM377 332q0 -122 47 -192q46 -68 115 -68q49 0 88 33q41 35 71 92q34 64 50 135q18 78 18 164q0 123 -46 178t-106 55q-51 0 -102 -39q-53 -41 -92 -104q-14 -34 -28 -100q-15 -69 -15 -154z" />
<glyph unicode="7" horiz-adv-x="1024" d="M25 -377l753 1133v2h-143q-127 0 -201 -3q-70 -3 -112 -11q-41 -8 -56 -20q-14 -11 -30 -34l-84 -123h-89l113 422h850v-78l-815 -1288h-186z" />
<glyph unicode="8" horiz-adv-x="1146" d="M53 289q0 65 26 119t68 93q40 37 99 66q55 27 114 37v4q-32 19 -77 55q-40 32 -66 65q-28 35 -46 79q-17 41 -17 96q0 93 41 169q40 74 108 127t154 80q89 28 178 28q88 0 172 -18q85 -18 148 -55q65 -38 105 -96t40 -141q0 -67 -26 -117q-27 -52 -67 -85 q-43 -36 -97 -58q-57 -24 -113 -35v-4q54 -32 89 -59q44 -33 80 -74q36 -40 57 -89q21 -48 21 -107q0 -95 -46 -169q-48 -77 -119 -125q-74 -50 -164 -77t-176 -27q-82 0 -172 19q-88 19 -156 57q-72 40 -114 99q-44 61 -44 143zM344 299q0 -101 57 -165t162 -64 q81 0 138 45t57 131q0 58 -29 104q-28 44 -73 80q-47 37 -95 64q-15 8 -46.5 26t-47.5 27q-59 -40 -91 -109t-32 -139zM434 1028q0 -54 26 -95t65 -73q42 -34 86 -57q33 -17 85 -49q55 40 84 104t29 131q0 91 -48 154t-143 63q-80 0 -132 -48t-52 -130z" />
<glyph unicode="9" horiz-adv-x="1157" d="M-51 -317q150 33 278 90q127 57 228 132q102 76 170 165t106 192l-10 6q-74 -81 -168 -134q-95 -54 -199 -54q-59 0 -113 30q-58 32 -97 81q-42 52 -66 122q-25 72 -25 150q0 125 51 227q50 100 132 176q80 74 178 114t192 40q95 0 180 -32t146 -93t97 -153t36 -207 q0 -166 -83 -327t-226 -291t-337 -217q-193 -87 -415 -108zM375 494q0 -124 46 -189t105 -65q52 0 103 39q53 41 92 104q16 50 30 122q13 68 13 152q0 122 -47 192q-47 69 -115 69q-46 0 -87 -34q-44 -36 -73 -91q-31 -60 -49 -136q-18 -78 -18 -163z" />
<glyph unicode=":" horiz-adv-x="475" d="M18 147q0 76 53 129q54 54 128 54q36 0 69 -15q36 -16 58 -40q24 -26 39 -58q14 -31 14 -70q0 -75 -52 -127q-53 -53 -128 -53q-76 0 -128 52q-53 53 -53 128zM104 760q0 76 53 129t128 53q38 0 69 -14q36 -16 58 -40q24 -25 39 -59q14 -31 14 -69q0 -75 -52 -127 q-53 -53 -128 -53q-76 0 -128 52q-53 53 -53 128z" />
<glyph unicode=";" horiz-adv-x="475" d="M-92 -317q108 64 173 139q66 77 66 147q0 45 -22 79q-20 31 -48 57q-25 24 -48 36t-23 15q0 27 13 53q14 28 37 48q24 21 55 35q29 13 67 13q49 0 88 -18q38 -18 65 -49q25 -29 39 -70q13 -38 13 -80q0 -61 -31 -126q-29 -62 -86 -123q-56 -61 -133 -114 q-85 -59 -174 -102zM104 760q0 76 53 129t128 53q38 0 69 -14q36 -16 58 -40q24 -25 39 -59q14 -31 14 -69q0 -75 -52 -127q-53 -53 -128 -53q-76 0 -128 52q-53 53 -53 128z" />
<glyph unicode="&#x3c;" horiz-adv-x="983" d="M53 432v94l838 385l35 -135q-207 -89 -330 -145q-73 -34 -121 -53q-39 -16 -106 -48q-70 -32 -103 -47v-4l660 -291l-35 -137z" />
<glyph unicode="=" horiz-adv-x="962" d="M76 221l10 146h795l10 -146h-815zM76 739h815l-10 -145h-795z" />
<glyph unicode="&#x3e;" horiz-adv-x="983" d="M37 188l659 291v4l-27 13q-58 26 -74 33q-14 6 -49.5 22.5t-57.5 26.5q-24 11 -68.5 30.5t-52.5 22.5q-123 56 -330 145l35 135l837 -385v-94l-837 -381z" />
<glyph unicode="?" horiz-adv-x="825" d="M104 129q0 66 48 116q46 48 114 48q69 0 115 -49q47 -50 47 -115t-47 -114q-47 -48 -115 -48q-67 0 -114 47q-48 48 -48 115zM178 580q0 60 30 104q29 42 77 73q46 30 104 48q43 14 111 33q75 19 122 33q50 15 50 38q0 24 -21 48q-20 23 -56 41q-34 17 -84 28 q-46 10 -105 10q-38 0 -83 -5q-36 -4 -71 -11q-49 49 -49 106q0 78 62 130q64 53 179 53q79 0 154 -29q73 -28 130 -81q57 -52 91 -124q35 -73 35 -157q0 -85 -30 -142q-31 -59 -74 -95q-46 -38 -101 -59q-63 -24 -108 -38q-84 -27 -119 -38q-49 -15 -49 -48q0 -30 18 -58 t51 -51h-139q-55 28 -90 82q-35 53 -35 109z" />
<glyph unicode="@" horiz-adv-x="1863" d="M78 489q0 184 67 346q66 160 187 284t281 193q162 70 356 70q175 0 323 -49q150 -50 259 -142t172 -228q63 -135 63 -308q0 -115 -38 -224q-36 -105 -106 -190t-161 -133q-97 -51 -209 -51q-46 0 -101 13t-92 32q-39 20 -66 49q-26 28 -26 58q0 22 10 56q9 32 24 76 t28 80q15 40 22 66h-22q-66 -99 -95 -146q-44 -71 -84 -123t-86 -84t-100 -32q-104 0 -172 69q-68 70 -68 200q0 65 18 133q19 70 49 132q32 66 75 125q45 62 92 109q61 61 130 95t134 34q87 0 127 -46q42 -48 64 -126h20l64 172h247l-127 -354l-104 -375q-6 -24 41 -51 q46 -27 115 -27q64 0 119 38q53 37 95 102q39 60 62 144q23 83 23 169q0 152 -54 277q-52 120 -150 203q-97 82 -232 126q-132 43 -296 43q-163 0 -304 -64q-143 -65 -248 -174q-105 -110 -165 -252q-61 -145 -61 -300q0 -170 56 -306q57 -139 157 -237q99 -98 239 -151 q142 -54 304 -54q64 0 131 12q82 15 135 31l25 -80q-74 -25 -151 -40q-69 -13 -156 -13q-175 0 -330 64q-153 63 -267 174q-115 112 -179 261t-64 324zM709 451q0 -67 25 -108q26 -42 67 -42q28 0 56 23q30 25 56 58q38 48 60 82q27 41 65 93l62 170q-18 30 -46 55 q-23 20 -59 42q-29 17 -58 27q-27 9 -44 9q-23 0 -35 -6q-14 -7 -27 -20q-15 -15 -37 -61q-24 -50 -40 -100q-21 -65 -32 -116q-13 -58 -13 -106z" />
<glyph unicode="A" horiz-adv-x="1327" d="M-92 0l6 94l41 12q39 10 67 23t58 54q33 46 74 124t112 232l293 614v88l336 70l240 -1100q11 -46 28 -69q17 -22 62 -33l47 -15l6 -94h-668l6 94l54 6q37 6 60 19q22 13 28 39q3 13 3 31t-3 41q-6 48 -21 116l-10 47h-393l-6 -16q-40 -96 -40 -166q0 -11 1 -20 q7 -75 71 -87l54 -10l6 -94h-512zM381 506h328l-84 493h-25z" />
<glyph unicode="B" horiz-adv-x="1312" d="M6 0l10 90l88 23q32 8 40 19q10 13 14 30l131 956q4 17 -2 30q-6 11 -39 19l-82 23l-4 90h688q207 0 322 -71q114 -71 114 -212q0 -71 -32 -127t-84 -96q-55 -43 -120 -68q-72 -28 -145 -44v-11q51 -11 116 -34q59 -21 105 -57q47 -36 77 -89t30 -129q0 -121 -90 -211 q-62 -62 -167 -97q-102 -34 -239 -34h-731zM496 111l88 -15h14q61 0 113 22q49 21 84 56t53 79t18 91q0 64 -18 112q-18 47 -50 81q-30 31 -74 50q-40 17 -87 17h-74zM580 707h102q47 0 88 14q44 15 77 44q32 28 54 76q21 46 21 109q0 102 -67 167t-175 65h-35z" />
<glyph unicode="C" horiz-adv-x="1396" d="M100 547q0 143 64 288q62 140 174 252q102 102 235 161q137 61 295 61q47 0 102 -5q37 -3 95 -15q50 -10 81 -19q34 -10 56 -21l203 60l-64 -492h-192l-66 320q-73 57 -168 57q-97 0 -176 -58q-78 -57 -136 -154q-57 -94 -87 -219q-31 -129 -31 -253q0 -127 31 -218 q30 -89 86 -145q69 -69 176 -69q45 0 82 11q44 13 74 28l162 329h204l-94 -446l-141 29q-65 -25 -152 -44q-91 -20 -202 -20q-158 0 -271 43t-190 120q-75 75 -113 183q-37 105 -37 236z" />
<glyph unicode="D" horiz-adv-x="1458" d="M6 0l10 90l88 23q32 8 40 19q10 13 14 30l131 956q4 17 -2 30q-6 11 -39 19l-82 23l-4 90q232 2 305 2h272q171 0 298 -42q128 -42 214 -119q85 -77 129 -183q43 -105 43 -233q0 -149 -52 -266t-163 -228q-96 -97 -254 -154q-159 -57 -350 -57h-598zM500 133l133 -31 q85 6 160 46q76 40 133 115t90 184t33 251q0 100 -19 193q-17 85 -59 150q-40 63 -109 98q-68 35 -166 35h-53z" />
<glyph unicode="E" horiz-adv-x="1384" d="M6 0l10 90l88 23q32 8 40 19q10 13 14 30l131 956q5 18 -3 30q-7 11 -38 19l-82 23l-4 90h1210l-59 -461h-182l-21 142q-10 75 -31 118q-22 45 -62 65q-42 21 -108 27q-77 7 -168 7h-98l-68 -484h33q52 0 105 16q50 15 78 70l71 142h131l-123 -549h-129l-6 129 q-1 51 -32 69q-32 19 -119 19h-25l-63 -488h127q94 0 164 8q71 8 114 29q48 23 82 66q37 47 70 117l57 112h184l-98 -434h-1190z" />
<glyph unicode="F" horiz-adv-x="1312" d="M6 0l10 90l88 23q32 8 40 19q10 13 14 30l131 956q5 18 -3 30q-7 11 -38 19l-82 23l-4 90h1169l-57 -461h-182l-23 142q-11 70 -34 118q-21 44 -63 65t-108 27q-77 7 -166 7h-55l-70 -519h25q58 0 108 15t78 71l72 144h129l-123 -549h-129l8 127q0 53 -38 70 q-36 16 -130 16h-18l-51 -391q-1 -5 -1 -9q0 -33 42 -40l108 -23l6 -90h-653z" />
<glyph unicode="G" horiz-adv-x="1511" d="M100 547q0 143 64 288q62 140 174 252q51 51 116 91q64 39 141 70q75 30 155 45q85 16 159 16q47 0 102 -5q37 -3 95 -15q50 -10 81 -19q34 -10 56 -21l203 60l-64 -478h-192l-66 306q-14 12 -44 24q-26 11 -55 18q-20 5 -58 11q-25 4 -52 4q-97 0 -176 -58 q-78 -57 -136 -154q-57 -94 -87 -219q-31 -129 -31 -253q0 -127 31 -218q30 -89 86 -145q33 -33 85 -52q47 -17 104 -17q44 0 71 4q43 6 49 8l56 338q5 23 -6 32q-11 10 -43 17l-80 23l-7 90h631l-10 -90l-94 -23q-49 -12 -55 -49l-54 -287l119 -14l6 -78q-110 -32 -270 -58 q-159 -26 -330 -26q-172 0 -301 41q-127 40 -210 117t-123 183q-40 107 -40 241z" />
<glyph unicode="H" horiz-adv-x="1558" d="M10 0l6 90l88 23q29 8 39 19q11 12 15 30l131 956q5 18 -3 30q-7 11 -38 19l-84 23l-6 90h626l-6 -90l-92 -23q-47 -17 -53 -49l-55 -409h460l56 409q5 23 -3 32t-38 17l-82 23l-6 90h628l-10 -90l-90 -23q-47 -17 -53 -49l-131 -956q-1 -4 -1 -8q0 -31 42 -41l84 -23 l6 -90h-625l6 90l88 23q31 8 40 17t14 32l59 434h-461l-59 -434q-1 -4 -1 -8q0 -31 42 -41l86 -23l6 -90h-625z" />
<glyph unicode="I" horiz-adv-x="790" d="M10 0l6 90l109 23q29 8 39 19q9 10 14 30l131 956q5 19 -3 31q-7 12 -38 18l-104 23l-6 90h667l-6 -90l-112 -23q-48 -11 -54 -49l-131 -956q-1 -4 -1 -7q0 -27 42 -42l107 -23l8 -90h-668z" />
<glyph unicode="J" horiz-adv-x="972" d="M-43 174q0 29 13 54q14 27 34 44q23 19 46 29q24 10 50 10q36 0 69 -10t61 -38q26 -26 45 -78q19 -51 20 -130h2q54 48 81 142q27 96 42 192l98 729q1 5 1 9q0 33 -42 40l-123 23l-4 90h664l-8 -90l-88 -23q-48 -8 -54 -49l-82 -598q-39 -281 -167 -418t-363 -137 q-62 0 -117 15q-59 16 -95 40q-40 27 -63 66q-20 34 -20 80v8z" />
<glyph unicode="K" horiz-adv-x="1441" d="M4 0l10 90l88 23q32 8 40 19q10 13 14 30l129 956q5 18 -3 30q-7 11 -38 19l-84 23l-2 90h624l-8 -90l-92 -23q-47 -17 -53 -49l-64 -499l342 342q65 65 91 103t26 60q-6 35 -41 52l-49 16l-4 88h561l-8 -88l-76 -25q-48 -18 -116 -61q-71 -45 -169 -127l-198 -168 l290 -588q16 -32 32 -58q15 -23 28 -35t31 -20q27 -12 38 -16l13 -4l2 -90h-578l6 90l35 14q30 11 35 35q1 5 1 12q0 21 -13 50l-166 381q0 1 -4.5 -2.5t-16.5 -14.5q-5 -4 -21 -18t-26 -23q-24 -19 -69 -59l-39 -303q-1 -4 -1 -8q0 -31 42 -41l84 -23l2 -90h-625z" />
<glyph unicode="L" horiz-adv-x="1226" d="M4 0l10 90l88 23q32 8 40 19q10 13 14 30l131 956q4 17 -2 30q-6 11 -39 19l-82 23l-4 90h622l-8 -90l-88 -23q-47 -17 -53 -49l-139 -1016h63q74 0 129 11q56 11 94 35q42 26 73 68t65 106l57 112h184l-100 -434h-1055z" />
<glyph unicode="M" horiz-adv-x="1902" d="M-14 0l6 90l100 25q18 5 30 13t26 44q13 32 30 108q16 70 39 203l105 623q4 16 -1 39q-4 19 -32 24l-115 21l-2 90h635l86 -942h31l395 942h610l-8 -90l-109 -23q-26 -4 -38 -19q-14 -17 -15 -34l-76 -639q-2 -18 -21 -195q-5 -50 -5 -86v-20q2 -35 14 -44t33 -15l92 -25 l4 -90h-653l6 90l100 25q17 4 28 16q12 12 21 49q7 31 19 107q9 58 22 188l70 643h-31l-452 -1077h-344l-101 1094h-30l-109 -652q-23 -137 -33 -205q-10 -72 -12 -109q-1 -36 6 -43q6 -6 23 -11l114 -25l7 -90h-465z" />
<glyph unicode="N" horiz-adv-x="1464" d="M-37 0l6 90l99 27q18 5 37 27q18 21 33 68q16 48 30 122q14 71 31 186l84 594q2 13 -2 29q-5 18 -33 24l-84 23l-4 90h477l442 -915h21l55 395q18 121 23 188q5 69 5 110v13q-2 48 -12 69q-11 22 -26 23l-119 27l-6 90h504l-6 -90l-99 -27q-20 -6 -38 -28 q-16 -20 -32 -69q-15 -47 -30 -121q-14 -68 -31 -185l-108 -774h-283l-481 989h-21l-63 -455q-18 -121 -23 -188q-5 -69 -5 -110v-13q2 -49 11 -68q10 -19 27 -24l119 -27l6 -90h-504z" />
<glyph unicode="O" horiz-adv-x="1505" d="M96 561q0 153 52 284t157 236q103 103 233 163q133 61 287 61q133 0 244 -43q115 -45 196 -121q83 -79 130 -187q47 -109 47 -241q0 -161 -67 -303q-66 -139 -177 -250q-96 -96 -218 -143q-124 -48 -267 -48q-132 0 -245 43q-114 44 -196 121q-83 78 -129 187 q-47 111 -47 241zM471 463q0 -87 16 -174q17 -91 76 -150q24 -27 59 -42q34 -15 83 -15q71 0 126 40q56 41 96 103q36 56 66 144q26 76 43 159q16 78 24 153q7 67 7 122q0 41 -3 86q-3 49 -13 89q-10 42 -29 86q-18 43 -47 73q-30 26 -61 40q-35 15 -80 15q-74 0 -129 -40 q-57 -41 -96 -104q-37 -59 -66 -146q-27 -81 -42 -162q-16 -88 -23 -154q-7 -69 -7 -123z" />
<glyph unicode="P" horiz-adv-x="1255" d="M6 0l10 90l88 23q32 8 40 19q10 13 14 30l131 956q5 18 -3 30q-7 11 -38 19l-82 23l-4 90h583q113 0 206 -24q97 -25 161 -69q68 -47 105 -115q36 -66 36 -159t-44 -172q-43 -77 -122 -133q-79 -57 -187 -86q-110 -30 -241 -30q-16 0 -56 2t-54 2l-45 -334v-8 q0 -34 41 -41l106 -23l2 -90h-647zM559 592q15 -2 27 -3q8 -1 24 -1q130 0 212 80q81 80 81 221q0 71 -20 121q-22 54 -55 92q-34 38 -78 59q-45 21 -93 21h-16z" />
<glyph unicode="Q" horiz-adv-x="1505" d="M96 561q0 150 55 283q55 132 148 233q99 105 232 166q135 62 290 62q135 0 246 -43q114 -44 197 -121q84 -78 131 -187t47 -241q0 -162 -64 -305q-63 -141 -172 -244q-32 -31 -72 -59q-38 -27 -92 -55q-51 -26 -103 -45q-58 -21 -110 -28q50 -67 100 -116q50 -48 109 -77 q62 -30 141 -45q87 -16 191 -22l12 -65q-69 -21 -173 -36q-107 -16 -226 -17q-93 0 -169 18q-74 18 -144 67q-69 49 -128 132q-63 88 -118 213q-148 72 -238 209q-90 136 -90 323zM473 459q0 -41 3 -86q3 -47 13 -88q11 -45 28 -82q18 -40 48 -68q24 -27 59 -42 q34 -15 85 -15q73 0 126 40q55 41 94 105q37 60 66 146q27 81 42 161q17 92 22 155q6 72 6 122q0 41 -3 86q-3 48 -13 90q-10 44 -29 86q-18 41 -49 72q-25 25 -60 40t-80 15q-73 0 -129 -41q-54 -40 -95 -106q-39 -63 -65 -148q-27 -88 -41 -164q-17 -93 -22 -155 q-6 -74 -6 -123z" />
<glyph unicode="R" horiz-adv-x="1351" d="M10 0l6 90l88 23q32 8 40 19q10 13 14 30l127 956q4 17 -4 30q-7 11 -37 19l-82 23l-4 90h665q115 0 204 -24q92 -25 149 -65q60 -42 90 -97q30 -56 30 -121q0 -130 -85 -228q-85 -99 -269 -151l236 -422q18 -35 42 -50q29 -18 60 -28l12 -4l2 -90h-430l-71 184l-162 351 l-72 6l-55 -379q-5 -19 7 -28q13 -10 34 -21l57 -23l6 -90h-598zM567 653l111 -22q46 7 91 29q42 20 78 58q32 34 53 86q20 51 20 116q0 56 -19 108q-17 47 -50 83q-30 33 -74 52t-91 19h-43z" />
<glyph unicode="S" horiz-adv-x="1161" d="M53 43l47 422l179 -6l67 -334q45 -15 93 -24t112 -9q97 0 150 50t53 128q0 44 -21 75q-21 32 -55 57q-38 28 -80 49l-94 47q-66 32 -148 79q-66 37 -110 83q-45 46 -69 107q-23 57 -23 144q0 83 37 154q38 72 107 125q72 55 164 84q98 31 208 31q98 0 180 -18 q71 -15 182 -42l119 43l-57 -444l-168 6l-62 297q-94 33 -209 33q-93 0 -143 -46q-51 -46 -51 -98q0 -50 22 -85q20 -32 61 -65q39 -31 88 -55q67 -32 103 -51q87 -44 133 -72q59 -35 102 -80q40 -42 64 -100q23 -57 23 -131q0 -103 -40 -182q-41 -80 -110 -134t-166 -83 q-98 -29 -211 -29q-140 0 -261 23q-114 22 -216 51z" />
<glyph unicode="T" horiz-adv-x="1355" d="M70 821l100 459h1249l-57 -459h-170l-21 144q-10 76 -31 117q-22 43 -50 64q-29 22 -63 26q-46 6 -69 6h-20l-135 -1016q-4 -18 8 -32q11 -12 33 -17l102 -23l8 -90h-657l4 90l107 23q27 6 39 18t14 31l135 1016h-12q-37 0 -74 -8q-39 -8 -67 -30q-31 -23 -63 -68 q-35 -48 -63 -116l-59 -135h-188z" />
<glyph unicode="U" horiz-adv-x="1437" d="M135 1280h625l-6 -90l-90 -23q-48 -17 -54 -49l-92 -659q-4 -28 -6 -57q-2 -36 -2 -74q0 -46 17 -84q19 -42 51 -73q33 -31 80 -52q48 -21 110 -21q142 0 228 87q85 87 114 296l41 279q18 121 23 188q4 54 4 96v27q-1 44 -12 69q-9 22 -27 23l-117 27l-6 90h504l-7 -90 l-98 -27q-20 -6 -38 -28q-16 -20 -32 -69q-15 -47 -30 -121q-14 -68 -31 -185l-47 -326q-18 -122 -67 -216q-48 -91 -120 -151q-73 -61 -165 -91q-88 -29 -199 -29q-112 0 -207 27q-94 27 -162 83q-67 55 -105 139t-38 191q0 38 1 53q2 35 5 52l84 626q4 18 -3 30 q-7 11 -38 19l-82 23z" />
<glyph unicode="V" horiz-adv-x="1298" d="M63 1280h668l-6 -94l-57 -6q-37 -6 -60 -19q-19 -11 -27 -39q-4 -13 -4 -33q0 -17 3 -38q8 -58 20 -117l117 -658h20l264 586q37 79 51 137q10 42 10 74q0 11 -1 21q-4 36 -24 56t-52 26l-51 10l-6 94h512l-6 -94l-43 -12q-39 -10 -66 -24t-57 -54t-74 -124 q-26 -50 -115 -231l-358 -741h-279l-237 1069q-10 44 -29 69q-16 22 -59 33l-47 15z" />
<glyph unicode="W" horiz-adv-x="2041" d="M53 1280h692l-6 -94l-65 -6q-54 -7 -73 -63q-8 -23 -8 -61q0 -49 13 -122l94 -651h21l303 661l-18 125q-6 43 -25 69q-17 22 -63 33l-60 15l-6 94h692l-6 -94l-65 -6q-31 -5 -49 -18q-17 -13 -25 -42q-6 -22 -6 -51q0 -11 1 -22q2 -35 11 -113l70 -651h20l209 454 q51 121 78 201q26 76 29 130v14q0 40 -15 61q-19 26 -55 33l-35 10l-6 94h526l-6 -94l-45 -15q-45 -13 -77 -29q-32 -17 -70 -61q-38 -43 -81 -123q-44 -80 -110 -217l-367 -741h-276l-104 764h-21l-358 -764h-285l-219 1069q-11 46 -28 69t-60 33l-60 15z" />
<glyph unicode="X" horiz-adv-x="1331" d="M-66 0l7 90l88 23q26 6 50 25q28 22 53 45q28 26 55 55q8 8 17 17.5t20 20t16 15.5l292 295l-225 389q-32 54 -84 138q-30 48 -51 54l-70 23l-6 90h666l-6 -90l-54 -14q-14 -5 -32 -19q-15 -12 -21 -33t0 -51t31 -72l84 -178h20l142 158q41 46 63 83q21 34 22 57 q1 22 -15 37q-16 14 -44 20l-49 12l-6 90h494l-7 -90l-88 -23q-21 -6 -56 -33q-23 -18 -71 -64q-33 -32 -71 -73q-11 -12 -31.5 -33t-28.5 -30l-200 -197l252 -458q46 -85 70 -121q26 -38 52 -45l68 -23l6 -90h-663l4 90l53 14q40 10 55 56q4 12 4 26q0 39 -32 93l-107 219 h-20l-138 -152q-53 -59 -78 -104q-24 -44 -24 -72q0 -30 20 -44q24 -17 52 -24l45 -12l8 -90h-531z" />
<glyph unicode="Y" horiz-adv-x="1230" d="M51 1280h645l-6 -94l-78 -12q-56 -10 -56 -61v-5q3 -54 44 -174l111 -316h20l180 261q58 86 81 131q27 53 32 88q4 34 -12 52t-51 24l-56 12l-6 94h469l-6 -94l-43 -15q-28 -7 -47 -17q-24 -13 -52 -41q-30 -30 -72 -84q-37 -48 -108 -146l-252 -355l-47 -366 q-1 -4 -1 -8q0 -31 42 -41l101 -23l-9 -90h-659l18 90l109 23q47 8 53 49l45 342l-254 581q-18 39 -36 57q-15 15 -48 27l-45 17z" />
<glyph unicode="Z" horiz-adv-x="1312" d="M10 0l17 111l878 1040v20h-200q-65 0 -107 -7q-45 -8 -79 -28q-33 -20 -61 -62q-32 -48 -57 -107l-61 -146h-182l59 459h1116l-14 -113l-895 -1040l-2 -21l215 -4q83 0 136 15q51 15 86 42q32 25 57 67q26 45 51 91l59 115h186l-100 -432h-1102z" />
<glyph unicode="[" horiz-adv-x="753" d="M184 -455v1788h537v-104h-416v-1577h416v-107h-537z" />
<glyph unicode="\" horiz-adv-x="571" d="M6 1362h115l444 -1796h-114z" />
<glyph unicode="]" horiz-adv-x="753" d="M33 -348h416v1577h-416v104h536v-1788h-536v107z" />
<glyph unicode="^" horiz-adv-x="819" d="M117 1065l248 362h294l154 -362h-139l-176 229h-4l-238 -229h-139z" />
<glyph unicode="_" horiz-adv-x="962" d="M-18 -109l6 109h987l6 -109h-999z" />
<glyph unicode="`" horiz-adv-x="815" d="M162 1427h315l150 -362h-140z" />
<glyph unicode="a" d="M49 266q0 70 20 148t55 148q36 73 83 139q48 68 102 122q67 67 144 104q79 38 149 38q96 0 148 -50q51 -50 69 -120h21l67 170h277l-142 -394l-110 -421l53 -19l139 88l37 -47q-52 -83 -134 -144t-179 -61q-22 0 -58 9q-32 8 -71 25q-38 17 -60 33q-24 18 -24 34 q0 22 14 63q8 24 33 92q17 46 38 100q24 60 32 83h-25q-49 -73 -108 -167q-47 -75 -97 -140q-47 -61 -96 -95q-50 -35 -111 -35q-114 0 -190 76t-76 221zM342 356q0 -69 28 -119q28 -49 74 -49q32 0 65 25q29 22 63 66q34 43 67 94q27 40 76 110l63 181q-21 34 -49 61 q-26 24 -59 46q-29 19 -61 30q-29 10 -48 10q-23 0 -37 -7q-12 -6 -30 -24q-38 -39 -66 -90q-29 -53 -48 -107q-21 -60 -29 -115q-9 -58 -9 -112z" />
<glyph unicode="b" horiz-adv-x="1161" d="M78 178l198 930q4 17 4 32q0 45 -38 62l-107 51l17 66l491 108l-119 -462l-116 -435h24q44 90 102 189q47 81 97 137q49 56 102 84q53 29 115 29q114 0 190 -76t76 -221q0 -73 -19 -148q-19 -73 -56 -148q-37 -73 -83 -139q-48 -68 -102 -122q-65 -65 -155 -106 q-87 -40 -205 -40q-94 0 -172 27q-82 29 -134 62q-55 35 -84 71q-28 33 -26 49zM377 233q22 -34 49 -60q29 -28 59 -47q29 -19 61 -30q29 -10 48 -10q23 0 37 7t31 24q34 36 66 96q27 51 50 122q19 58 32 130q11 60 11 117q0 71 -27 119q-28 49 -75 49q-38 0 -73 -29 q-27 -23 -67 -76q-30 -41 -70 -107q-38 -63 -77 -124z" />
<glyph unicode="c" horiz-adv-x="958" d="M53 338q0 110 48 223q48 112 131 203q81 89 195 147q113 58 241 58q57 0 111 -17q51 -16 91 -47q39 -30 62 -75q22 -43 22 -97q0 -81 -49 -131q-49 -51 -110 -51q-38 0 -63 13t-42 35q-15 19 -23 47q-8 27 -8 50q0 20 10 52q10 31 23 51q-34 17 -78 24q-46 8 -75 8 q-15 0 -31 -16q-22 -22 -48 -67q-25 -43 -51 -108q-23 -56 -40 -131q-17 -73 -17 -140q0 -99 49 -160q50 -62 134 -62q21 0 100 44q52 29 178 108l39 -49q-30 -46 -78 -98q-49 -54 -100 -91q-56 -41 -121 -66q-67 -26 -139 -26q-89 0 -158 29q-68 29 -113 78q-44 49 -67 117 q-23 69 -23 145z" />
<glyph unicode="d" d="M49 266q0 70 20 148t55 148q36 73 83 139q48 68 102 122q67 67 144 104q79 38 149 38q46 0 79 -14q31 -13 52 -36q20 -21 34 -53q14 -30 21 -67h21l74 313q10 37 -1 60q-12 24 -34 34l-107 51l17 66l499 113l-251 -969l-74 -313l53 -19l139 88l37 -47q-52 -83 -134 -144 t-179 -61q-21 0 -57 17q-38 18 -67 39q-31 23 -55 46q-24 24 -24 40q0 19 12 57q11 36 30 79q7 16 19.5 47t15.5 38q19 47 30 76h-25q-49 -73 -108 -167q-47 -75 -97 -140q-47 -61 -96 -95q-50 -35 -111 -35q-114 0 -190 76t-76 221zM342 356q0 -69 28 -119q28 -49 74 -49 q32 0 65 25q29 22 63 66q34 43 67 94q27 40 76 110l63 181q-21 34 -49 61q-26 24 -59 46q-29 19 -61 30q-29 10 -48 10q-23 0 -37 -7q-12 -6 -30 -24q-38 -39 -66 -90q-29 -53 -48 -107q-21 -60 -29 -115q-9 -58 -9 -112z" />
<glyph unicode="e" horiz-adv-x="954" d="M53 338q0 112 46 223q47 114 127 203q81 90 191 147q111 58 236 58q145 0 215 -61t70 -152q0 -53 -38 -97q-34 -40 -112 -89q-63 -40 -182 -101q-126 -65 -252 -133v-4q0 -34 13 -70q12 -34 35 -58q25 -27 58 -41q37 -16 75 -16q21 0 100 44q52 29 178 108l39 -49 q-30 -46 -78 -98q-49 -54 -100 -91q-56 -41 -121 -66q-67 -26 -139 -26q-93 0 -163 29t-113 78t-64 117q-21 67 -21 145zM346 420h10q90 54 131 80q67 42 103 73q41 35 66 76q24 39 24 84q0 24 -14 41q-15 18 -36 33q-16 12 -46 21q-26 8 -43 8q-18 0 -34 -6q-11 -4 -20 -13 q-18 -19 -41 -59q-24 -43 -44 -96q-21 -56 -36 -118q-16 -66 -20 -124z" />
<glyph unicode="f" horiz-adv-x="690" d="M-385 -307q0 64 40 101q41 38 95 38q76 0 122 -58q47 -59 54 -136l107 20q20 57 34 128q12 62 31 175l107 803l-168 18l6 82l197 78q46 208 170 332q156 156 366 156q114 0 187 -60t73 -158q0 -63 -42 -111t-109 -48q-41 0 -71 20q-32 21 -54 55q-21 32 -37 80 q-13 38 -18 92l-91 -16q-9 -28 -23 -86q-13 -52 -21 -101q-15 -86 -17 -100q-3 -18 -14 -79h258l6 -136h-289l-133 -632q-40 -200 -104 -332q-64 -133 -140 -209q-59 -59 -131 -86t-149 -27q-53 0 -96 15q-47 16 -76 40q-35 28 -52 63q-18 36 -18 79z" />
<glyph unicode="g" horiz-adv-x="1017" d="M-154 -330q0 92 80 148q79 55 205 84v20q-28 17 -52 54q-24 36 -24 81q0 73 48 126q48 52 130 79v21q-72 39 -115 107q-44 70 -44 149q0 90 36 169t98 137t147 92q84 34 184 34q25 0 63 -5q23 -3 71 -13q54 -11 65 -14q7 -2 17 -4.5t16.5 -4t10.5 -2.5l316 8l-62 -217 l-262 69l-4 -20q73 -40 103 -100t30 -113q0 -78 -34 -139q-36 -64 -92 -104q-57 -41 -138 -64t-170 -23q-33 0 -76 6q-16 2 -78 13q-11 -5 -25 -26q-14 -20 -14 -42q0 -18 17 -33q13 -12 41 -26q29 -15 54 -22q33 -10 56 -15l103 -27q168 -44 243 -107q76 -64 76 -179 q0 -65 -37 -124q-39 -62 -110 -107q-74 -47 -182 -74t-250 -27q-215 0 -327 62q-114 63 -114 173zM88 -283q0 -71 76 -117t223 -46q121 0 182 31q62 32 62 71q0 20 -8 39q-7 17 -31 36q-22 18 -65 36q-35 15 -109 38q-8 3 -44.5 14.5t-58.5 19.5q-51 17 -114 44 q-65 -29 -88 -70q-25 -44 -25 -96zM356 442q0 -26 11 -54q11 -29 26 -44q5 -5 24 -13q17 -7 34 -7q26 0 44 9q16 8 35 27q34 31 55 82q22 54 35 108q14 58 18 110q5 60 5 94q0 14 -13 28t-33 25q-14 8 -44 17q-22 7 -47 7q-9 0 -21 -3t-16 -7q-25 -25 -47 -75 q-18 -42 -35 -102q-14 -50 -22 -108q-9 -65 -9 -94z" />
<glyph unicode="h" horiz-adv-x="1167" d="M18 -10l80 311l178 807q4 17 4 32q0 45 -38 62l-107 51l17 66l491 108l-119 -462l-118 -494h24q35 82 49 112q18 40 55 111q26 51 55 99q25 43 54 71q44 44 107 74q65 31 129 31q103 0 160 -51t57 -132q0 -79 -34 -184q-51 -157 -71 -215l-88 -237l53 -19l140 88l37 -47 q-52 -83 -133 -144t-177 -61q-24 0 -58 10t-71 26q-36 16 -59 33q-25 19 -25 34q0 30 32 126q43 129 91 267q21 61 40 125q18 60 18 94q0 28 -30 43q-28 14 -65 14q-28 0 -54 -22q-29 -24 -58 -72q-36 -60 -70 -126q-36 -70 -90 -185l-78 -334z" />
<glyph unicode="i" horiz-adv-x="628" d="M31 711q18 38 48 89q26 45 62 84q33 36 77 61q42 24 91 24q23 0 66 -12q54 -15 85 -26q35 -13 71 -34q31 -18 26 -31l-201 -716l54 -19l139 88l37 -47q-52 -84 -132 -144q-81 -61 -178 -61q-26 0 -60 11q-45 14 -73 29q-41 21 -59 35q-24 18 -23 30l191 704l-64 17 l-110 -134zM340 1235q0 48 14 84q16 41 38 69q23 29 53 47q28 17 63 17q78 0 120 -51t42 -117q0 -45 -15 -84q-15 -40 -38 -67q-26 -31 -53 -46q-29 -16 -62 -16q-78 0 -120 49q-42 50 -42 115z" />
<glyph unicode="j" horiz-adv-x="577" d="M-418 -338q0 64 40 101q41 38 95 38q76 0 122 -58q48 -60 55 -136l75 16q15 36 37 122q23 88 45 185l201 844l-78 21l-106 -136l-48 52q13 27 49 89q26 45 62 84q33 36 77 61q42 24 91 24q20 0 66 -11t85 -25q35 -13 71 -34q30 -18 26 -33l-176 -751q-39 -173 -105 -306 q-64 -130 -145 -208q-66 -61 -138 -99q-71 -37 -155 -37q-110 0 -178 56t-68 141zM352 1235q0 45 15 84q17 44 37 69q22 28 54 47q28 17 62 17q78 0 120 -51t42 -117q0 -48 -14 -84q-15 -40 -38 -67q-26 -31 -53 -46q-29 -16 -63 -16q-78 0 -120 49q-42 50 -42 115z" />
<glyph unicode="k" horiz-adv-x="1032" d="M18 -10l80 311l178 807q4 17 4 32q0 45 -38 62l-107 51l17 66l485 108l-117 -458l-137 -494h14l381 203v31q-41 18 -65 56q-25 39 -25 81q0 69 49 115q50 47 121 47q41 0 77 -15q34 -14 62 -39q27 -24 42 -58q16 -37 16 -73q0 -54 -26 -98q-25 -43 -71 -78 q-47 -36 -105 -62q-63 -28 -128 -50l-25 -9l156 -348h37l94 82l51 -49q-15 -44 -47 -86q-31 -41 -75 -77q-38 -31 -92 -54q-50 -21 -101 -21q-17 0 -33 4q-18 5 -36 12q-16 7 -30 16q-12 8 -18 18l-143 397l-76 -31l-47 -389z" />
<glyph unicode="l" horiz-adv-x="606" d="M55 72l228 1036q4 17 4 31q0 45 -39 63l-107 51l17 66l479 108l-289 -1277l53 -19l140 88l37 -47q-52 -83 -133 -144t-177 -61q-25 0 -59 11q-42 13 -73 29q-37 18 -59 35q-24 18 -22 30z" />
<glyph unicode="m" horiz-adv-x="1828" d="M25 711q18 38 48 89q26 45 62 84q33 36 77 61q42 24 91 24q23 0 64 -6q39 -6 80 -18q49 -15 70 -25q30 -15 30 -31q0 -31 -12 -91q-10 -50 -29 -126q-15 -59 -33 -122q-12 -41 -22 -79h24q35 82 49 112q18 40 55 111q26 51 55 99q26 43 54 71q44 44 107 74q65 31 129 31 q103 0 160 -51t57 -132q0 -38 -12 -88q-17 -70 -25 -95q-5 -15 -14 -42.5t-13 -40.5l-16 -49h24q63 141 114 239q51 99 106 154q45 45 106 74q65 31 129 31q104 0 161 -51q56 -50 56 -132q0 -75 -32 -185q-31 -106 -72 -214l-88 -237l53 -19l139 88l37 -47 q-52 -84 -132 -144q-81 -61 -177 -61q-25 0 -59 10q-31 9 -70 26q-38 17 -60 33q-24 18 -24 34q0 30 32 126q43 129 91 267q21 61 40 125q17 57 17 94q0 28 -30 43q-28 14 -64 14q-28 0 -54 -22q-30 -25 -60 -72q-32 -49 -72 -126q-38 -71 -93 -185l-90 -334l-334 -10 l88 311q8 26 31 108q18 65 30 113q9 36 22 100q10 48 10 60q0 28 -30 43q-28 14 -65 14q-28 0 -54 -22q-29 -24 -58 -72q-36 -60 -70 -126q-36 -70 -90 -185l-78 -334l-328 -10l80 311l99 475l-60 17l-110 -134z" />
<glyph unicode="n" horiz-adv-x="1212" d="M25 711q18 38 48 89q26 45 62 84q33 36 77 61q42 24 91 24q23 0 64 -6q39 -6 80 -18q49 -15 70 -25q30 -15 30 -31q0 -31 -12 -91q-10 -50 -29 -126q-15 -59 -33 -122q-12 -41 -22 -79h24q35 82 49 112q18 40 55 111q26 51 55 99q26 43 54 71q44 44 107 74q65 31 129 31 q103 0 160 -51t57 -132q0 -79 -34 -184q-51 -157 -71 -215l-88 -237l53 -19l140 88l37 -47q-52 -84 -132 -144q-81 -61 -178 -61q-24 0 -58 10t-71 26q-36 16 -59 33q-25 19 -25 34q0 30 32 126q43 129 91 267q21 61 40 125q18 60 18 94q0 28 -30 43q-28 14 -65 14 q-28 0 -54 -22q-29 -24 -58 -72q-36 -60 -70 -126q-36 -70 -90 -185l-78 -334l-328 -10l80 311l99 475l-60 17l-110 -134z" />
<glyph unicode="o" horiz-adv-x="1069" d="M61 399q0 114 40 216q41 105 112 182q74 80 170 125q100 47 215 47q94 0 172 -32q76 -31 128 -88q53 -58 81 -135q29 -81 29 -175q0 -113 -39 -216t-110 -182q-72 -79 -169 -125q-100 -47 -215 -47q-93 0 -171 32t-131 88q-55 58 -83 136q-29 81 -29 174zM350 283 q0 -89 32 -139t89 -50q39 0 74 30q35 31 62 81q28 54 50 117q21 62 37 135q14 66 19 106q6 51 6 92q0 90 -32 140q-31 49 -89 49q-40 0 -74 -30q-35 -30 -62 -80q-28 -52 -50 -114q-21 -60 -37 -137q-14 -68 -19 -108q-6 -51 -6 -92z" />
<glyph unicode="p" horiz-adv-x="1193" d="M-139 -504l6 88l80 23q26 8 34 19t13 30l248 1120l-60 17l-110 -134l-47 52q18 38 48 89q26 45 62 84q33 36 77 61q42 24 91 24q22 0 62 -14q39 -14 77 -31q41 -19 67 -39q28 -22 28 -37q0 -60 -29 -135q-26 -67 -51 -142h26q47 97 97 183q46 78 91 123q47 47 97 69 q52 23 113 23q114 0 190 -76t76 -221q0 -71 -18 -148q-18 -78 -49 -148q-34 -77 -76 -139q-45 -66 -101 -122q-65 -65 -142 -106q-76 -40 -145 -40q-71 0 -127 37q-59 39 -92 96h-20l-94 -446q-1 -4 -1 -7q0 -31 48 -42l131 -23l6 -88h-606zM422 274q20 -32 47 -66 q30 -38 55 -62q27 -26 57 -44q26 -16 46 -16q23 0 37 7q12 6 30 24q36 38 67 96q27 51 50 122q19 58 32 130q11 60 11 117q0 69 -28 119q-28 49 -74 49q-28 0 -62 -29q-28 -24 -68 -76q-37 -48 -74 -107q-25 -40 -77 -124z" />
<glyph unicode="q" horiz-adv-x="1150" d="M49 266q0 70 20 148t55 148q36 73 83 139q48 68 102 122q67 67 144 104q79 38 149 38q96 0 148 -50q51 -50 69 -120h21l67 170h277l-142 -394l-192 -915q-1 -4 -1 -7q0 -32 48 -42l90 -23l6 -88h-606l6 88l121 23q26 8 34 19t13 30l101 453l90 297h-25q-49 -73 -108 -167 q-47 -75 -97 -140q-47 -61 -96 -95q-50 -35 -111 -35q-114 0 -190 76t-76 221zM342 356q0 -69 28 -119q28 -49 74 -49q32 0 65 25q29 22 63 66q34 43 67 94q27 40 76 110l63 181q-21 34 -49 61q-26 24 -59 46q-29 19 -61 30q-29 10 -48 10q-23 0 -37 -7q-12 -6 -30 -24 q-38 -39 -66 -90q-29 -53 -48 -107q-21 -60 -29 -115q-9 -58 -9 -112z" />
<glyph unicode="r" horiz-adv-x="1042" d="M25 711q18 38 48 89q26 45 62 84q33 36 77 61q42 24 91 24q23 0 64 -6q39 -6 80 -18q49 -15 70 -25q30 -15 30 -31q0 -26 -16 -96q-14 -63 -36 -142q-14 -51 -44 -147q-26 -82 -37 -115h24l164 336q28 58 61 116q27 48 58 79q29 29 69 45q35 14 91 14q36 0 69 -13 q36 -14 62 -40t43 -67q16 -39 16 -93q0 -40 -13 -72q-14 -33 -36 -57t-51 -39q-27 -14 -60 -14q-37 0 -67 15t-51 42q-22 28 -26 62q-1 10 -1 20q0 28 10 55l-47 10l-295 -528l-43 -260l-328 -10l80 311l99 475l-60 17l-110 -134z" />
<glyph unicode="s" horiz-adv-x="856" d="M-8 170q0 73 37 113q38 41 108 41q59 0 97 -39q38 -40 38 -99q0 -8 -3 -24q-3 -19 -7 -27q15 -7 39 -18q29 -13 53 -19q34 -9 58 -14q28 -6 49 -6q20 22 37 55q16 32 16 62q0 17 -15 37q-10 13 -40 43q-21 21 -56 49q-39 31 -61 51q-96 88 -100 92q-45 40 -72 73 q-30 36 -42 66q-13 32 -13 70q0 76 33 129q34 55 91 91q58 36 131 54q79 19 154 19q50 0 117 -10q60 -9 108 -30q47 -21 78 -59q31 -39 31 -92q0 -75 -37 -115t-104 -40q-65 0 -103 41q-36 39 -36 96q0 10 3 26q3 19 7 27q-25 15 -77 34q-43 16 -91 21q-30 -30 -47 -63 q-19 -36 -19 -43q0 -17 19 -42q17 -22 45 -49q30 -29 57 -50q25 -20 53 -48q97 -89 99 -91q46 -43 71 -73q28 -34 43 -67t15 -72q0 -63 -34 -118q-35 -57 -92 -96q-55 -38 -138 -63q-80 -24 -173 -24q-48 0 -109 11q-64 11 -107 33q-46 23 -79 62q-32 38 -32 95z" />
<glyph unicode="t" horiz-adv-x="735" d="M63 782l7 80l198 80l54 283h288l-63 -307h258l6 -136h-289l-149 -632l53 -19l139 88l37 -47q-52 -84 -132 -144q-81 -61 -177 -61q-27 0 -61 11q-42 14 -72 29q-44 23 -60 35q-24 18 -22 30l155 690z" />
<glyph unicode="u" horiz-adv-x="1212" d="M47 711q18 38 48 89q24 42 63 84q34 37 76 61t92 24q21 0 61 -17q37 -16 76 -39q38 -23 64 -46q28 -25 28 -40t-6 -40t-21 -66l-35 -100q-49 -140 -51 -146q-28 -83 -38 -115q-15 -50 -15 -84q0 -28 28 -53q27 -24 62 -24q30 0 56 22q25 21 59 72q35 53 74 126 q32 60 96 185l88 336l328 10l-101 -311l-104 -500l53 -18l129 88l37 -47q-52 -83 -129 -139t-174 -56q-24 0 -58 10t-71 26q-33 15 -61 34q-25 18 -25 35q0 35 14 92q14 58 33 124q15 54 36 114t23 65h-24q-27 -53 -56 -112q-28 -59 -57 -111q-34 -63 -57 -99 q-26 -41 -56 -71q-45 -45 -106 -74q-65 -31 -129 -31q-105 0 -159 62q-54 61 -54 141q0 75 32 176q37 115 68 203q22 62 26 72q5 14 13.5 38t12.5 35q5 14 14 41t14 39l-59 17l-111 -134z" />
<glyph unicode="v" horiz-adv-x="1054" d="M0 711q18 38 48 89q24 42 63 84q34 37 76 61t92 24q17 0 62 -10q39 -9 79 -24q38 -15 67 -33t29 -34l19 -747h30l207 373q22 44 46 96q18 39 18 80q0 51 -53 95t-121 56q13 32 29 55q21 28 47 49q25 20 62 34q36 14 74 14q42 0 79 -15q42 -17 66 -38q27 -24 44 -59 q16 -33 16 -73q0 -49 -12 -94q-11 -40 -37 -91q-23 -45 -61 -98q-37 -53 -84 -114l-291 -383l-338 -39l-43 807l-59 17l-107 -134z" />
<glyph unicode="w" horiz-adv-x="1630" d="M0 711q18 38 48 89q24 42 63 84q34 37 76 61t92 24q17 0 62 -10q39 -9 79 -24q38 -15 67 -33t29 -34l19 -747h28l262 653l-16 195l156 -25l141 -22l43 -801h29l170 373q27 57 45 96t18 80q0 51 -44 95t-110 56q11 28 29 55q19 28 44 49q24 20 59 34q34 14 71 14 q78 0 131 -53q54 -54 54 -132q0 -50 -12 -93q-13 -46 -34 -90q-23 -48 -55 -97q-33 -51 -78 -117l-262 -383l-317 -39l-25 623h-24l-234 -584l-352 -39l-39 807l-57 17l-109 -134z" />
<glyph unicode="x" horiz-adv-x="1118" d="M-47 129q2 75 39 121q38 47 94 47q63 0 95 -41q26 -33 26 -85q0 -13 -2 -28l53 -14l90 160q22 40 33 59l29 50l20 35l8 13l-129 326h-41l-118 -113l-46 52q13 27 49 89q26 45 62 84q32 35 76 61q41 24 90 24q20 0 55 -7t74 -21q37 -13 65 -31q30 -19 31 -38l43 -266h21 q54 132 94 198q44 73 81 110q39 38 73 49q33 10 71 10q93 0 145 -45q50 -42 50 -110v-5q-1 -73 -40 -121q-38 -47 -95 -47q-65 0 -95 41q-24 32 -24 84q0 14 2 29l-57 10l-185 -305l119 -336h39l121 113l45 -52q-18 -38 -48 -89q-24 -42 -63 -84q-33 -36 -77 -61 q-42 -24 -91 -24q-17 0 -55 12q-45 14 -74 26q-34 13 -64 32q-29 18 -30 27l-41 266h-22q-59 -133 -101 -209q-41 -75 -74 -109q-34 -35 -62 -41q-30 -6 -67 -6q-92 0 -143 45q-49 43 -49 110v5z" />
<glyph unicode="y" horiz-adv-x="1071" d="M-113 -307q0 64 37 101q38 38 92 38q76 0 118 -52t42 -140l37 -11l242 297l-179 54l-59 796l-59 17l-107 -134l-47 52q18 38 48 89q24 42 63 84q34 37 76 61t92 24q17 0 62 -10q46 -10 78 -23q36 -14 67 -33q30 -18 30 -35l-2 -776h31l291 529v30q-66 24 -95 68 q-28 43 -28 78q0 73 48 123q48 49 122 49t132 -49t58 -138q0 -50 -24 -113q-20 -54 -66 -133q-41 -70 -96 -147q-53 -73 -115 -149l-168 -209l-106 -230q-72 -157 -162 -231q-91 -74 -211 -74q-47 0 -91 15q-48 17 -78 40q-33 26 -53 63t-20 79z" />
<glyph unicode="z" horiz-adv-x="915" d="M-27 121q0 85 65 145t191 60l357 313q-82 35 -148 87q-62 48 -149 132l-27 -29q26 -33 37 -60q10 -24 10 -62q0 -53 -33 -87q-32 -34 -81 -38q-10 -1 -19 -1q-59 0 -87 34q-34 40 -34 94q0 47 23 91q23 45 60 79q38 35 91 59q55 25 115 31q79 0 136 -19q52 -17 90 -49 q36 -30 58 -72q22 -43 38 -86q6 0 9 1t9 1h10l58 226h13q63 0 111 -35q52 -39 52 -111q0 -85 -65 -150t-193 -65l-351 -305q98 -44 171 -100q75 -57 157 -133l25 26q-25 28 -37 59q-10 26 -10 64q0 54 32 87t82 38q36 5 62 -7t44 -31q17 -19 25 -45q9 -31 9 -52 q0 -46 -20 -92t-56 -82q-37 -37 -90 -61q-50 -23 -121 -29q-153 0 -230 68q-76 67 -120 188h-21q-4 0 -12 -2l-59 -230h-12q-62 0 -112 37q-53 41 -53 113z" />
<glyph unicode="{" horiz-adv-x="741" d="M55 492l23 67q68 12 117 26q50 14 74 32q26 19 39 48q11 25 11 64q0 37 -15 81q-11 33 -35 93q-21 53 -35 101q-15 51 -15 98q0 66 27 121q27 56 85 96q60 42 149 65q94 25 218 29v-82q-61 -6 -98 -19q-39 -14 -61 -34q-24 -22 -31 -49q-8 -30 -8 -64q0 -45 15 -92 q15 -45 35 -97q20 -51 35 -103t15 -107q0 -92 -86 -164q-85 -71 -283 -100v-23q196 -27 282 -100q87 -73 87 -166q0 -55 -15 -108q-14 -48 -35 -102t-35 -98q-15 -48 -15 -93q0 -34 8 -64q7 -27 31 -49q23 -21 61 -33q39 -12 98 -18v-82q-129 5 -218 28q-86 23 -149 66 q-58 40 -85 96t-27 121q0 47 15 98q14 48 35 101q24 60 35 93q15 43 15 81q0 35 -8 64q-7 27 -33 48q-24 20 -73 34q-46 13 -127 24z" />
<glyph unicode="|" horiz-adv-x="561" d="M227 -383v1796h107v-1796h-107z" />
<glyph unicode="}" horiz-adv-x="741" d="M57 -352q60 6 99 18q38 12 61 33q24 22 31 49q8 30 8 64q0 45 -15 93q-14 44 -35 98t-35 102q-15 53 -15 108q0 92 86 166q85 73 280 100v23q-195 29 -280 100q-86 72 -86 164q0 54 15 107q15 52 35 103q20 52 35 97q15 47 15 92q0 34 -8 64q-7 27 -31 49q-22 20 -61 34 q-37 13 -99 19v82q125 -4 217 -29q90 -24 149 -65q58 -40 85 -96t27 -121q0 -44 -16 -98q-14 -48 -35 -101q-15 -39 -34 -93q-16 -46 -16 -81q0 -39 11 -64q13 -29 39 -48q24 -17 75 -32q49 -14 117 -26l22 -67l-22 -72q-78 -10 -126 -24q-50 -14 -74 -34q-27 -22 -34 -48 q-8 -29 -8 -64t16 -81q19 -54 34 -93q21 -53 35 -101q16 -54 16 -98q0 -65 -27 -121t-85 -96q-62 -43 -149 -66q-88 -23 -217 -28v82z" />
<glyph unicode="~" horiz-adv-x="819" d="M-8 365q33 170 98 235q66 66 160 66q42 0 84 -22t79 -47q53 -36 71 -47q36 -22 63 -22q34 0 59 31t53 86h115q-16 -83 -41 -144q-24 -59 -57 -93q-34 -36 -73 -50q-38 -14 -87 -14q-42 0 -85 23q-39 21 -82 48q-41 25 -75 48q-34 22 -63 22q-39 0 -55 -32 q-22 -44 -41 -88h-123z" />
<glyph unicode="&#xa1;" horiz-adv-x="622" d="M55 50q-8 27 2 56l256 744q5 8 14 11t19 3q12 0 19 -4q8 -5 8 -14l4 -760q0 -56 -46 -87q-47 -32 -112 -32h-10q-41 0 -71 10q-31 10 -53 29q-23 20 -30 44zM229 1147q0 65 47 114q46 48 115 48q68 0 115 -47t47 -115q0 -67 -47 -116q-47 -48 -115 -48q-69 0 -115 49 q-47 50 -47 115z" />
<glyph unicode="&#xa2;" horiz-adv-x="905" d="M53 348q0 110 41 222q40 111 116 200q74 88 182 143q109 56 239 56h4l82 334h114l-86 -353q74 -24 121 -74t47 -120q0 -81 -46 -121q-47 -41 -107 -41q-37 0 -59 11q-23 12 -40 30l-112 -477q39 16 102 54q79 47 142 87l38 -49q-53 -79 -135 -155t-190 -109l-80 -324 h-115l76 307q-78 1 -141 32q-62 30 -105 81q-42 49 -65 120t-23 146zM352 358q0 -65 21 -116q22 -53 63 -76q51 216 80 326q11 41 31 119q5 20 13 55t12 50q11 43 18 74l6 27q-44 12 -86 12q-17 0 -37 -20t-43 -68q-22 -47 -39 -108q-12 -46 -27 -132q-12 -71 -12 -143z" />
<glyph unicode="&#xa3;" horiz-adv-x="1181" d="M29 63q78 15 126 40q51 26 82 68q31 41 49 100q17 56 25 139q1 21 3 48q2 41 5 62h-231l6 105h232q2 16 4.5 46.5t3.5 45.5q6 62 10 92q16 100 56 182q43 87 110 153t161 105q93 39 208 39q146 0 225 -53q78 -52 78 -145q0 -66 -36 -105t-108 -39q-35 0 -65 19 q-28 17 -46 48q-19 31 -20 69q-1 40 15 83q-10 10 -31 22q-19 11 -51 11q-28 0 -53 -13q-26 -14 -48 -47q-24 -36 -41 -94q-18 -60 -30 -151q-18 -126 -20 -141q-10 -77 -19 -127h274l6 -105h-299l-8 -33l-8 -32q-18 -68 -44 -122q-26 -53 -54 -87v-10q10 -2 34 -8.5 t38 -9.5q31 -7 82 -16q58 -10 81 -13q43 -5 70 -5q53 0 94 12q43 13 70 40q43 43 71 124l60 -20q11 -198 -67 -294q-77 -95 -232 -95q-81 0 -140 26t-107 63t-78 70q-24 26 -50 48q-62 -76 -165 -134q-101 -57 -212 -73z" />
<glyph unicode="&#xa4;" horiz-adv-x="1093" d="M27 449l6 108h114v2q5 78 19 148h-107l7 108h129q33 98 87 184q55 87 128 151q71 63 168 101q93 37 208 37q142 0 225 -51q84 -52 85 -125q0 -65 -40 -105t-95 -40q-72 0 -111 58q-39 59 -29 140q-12 7 -27 13q-21 8 -46 8q-50 0 -97 -31q-45 -30 -83 -82 q-36 -49 -67 -119q-28 -62 -50 -139h415l6 -108h-444q-3 -23 -7 -69q-3 -34 -3 -67v-14h416l6 -108h-414q21 -143 90 -219t199 -76q72 0 140 31q65 30 130 85l35 -32q-29 -61 -70 -108q-46 -53 -97 -85q-52 -33 -117 -55q-63 -21 -130 -21q-102 0 -183 36t-139 100 q-58 65 -93 153q-33 85 -41 191h-123z" />
<glyph unicode="&#xa5;" horiz-adv-x="1253" d="M84 1280h625l-7 -92l-59 -12q-35 -8 -41 -64t31 -147l96 -295h21l168 245q92 133 108 194q15 56 -61 71l-43 8l-7 92h445l-6 -92l-49 -14q-20 -6 -51 -21q-23 -11 -52 -39q-27 -25 -66 -74q-43 -53 -94 -125l-208 -290h296l7 -105h-344l-21 -155h358l9 -105h-371 l-14 -100q-6 -41 41 -49l108 -23l6 -88h-651l6 88l113 23q47 8 53 49l14 100h-321l4 105h338l20 155h-364l6 105h328l-230 485q-12 24 -24 36q-11 11 -37 19l-74 23z" />
<glyph unicode="&#xa7;" horiz-adv-x="1009" d="M82 569q5 99 59 170q55 71 142 117q-35 32 -50 59q-18 33 -18 80q0 63 31 122q29 55 86 98q56 42 130 66q75 24 163 24q160 0 236 -50q75 -49 75 -131q0 -64 -44 -108q-43 -43 -99 -43q-39 0 -66 17q-29 18 -48 46q-20 30 -29 66q-9 37 -3 76q-7 5 -22 10q-5 2 -15 4 t-15 4q-15 4 -31 6q-20 2 -23 2q-39 0 -63 -9q-23 -9 -36 -25q-11 -14 -16 -33q-4 -16 -4 -37q0 -26 20 -47q21 -22 55 -46q38 -27 77 -48q14 -8 92 -48q56 -32 106 -62q52 -31 96 -69q43 -37 70 -79t27 -91q0 -94 -54 -168q-51 -70 -139 -116q31 -28 49 -62q19 -36 19 -78 q0 -62 -32 -120q-33 -59 -89 -102q-58 -45 -133 -68q-80 -25 -166 -25q-161 0 -249 50q-87 50 -87 136q0 64 44 105t99 41q37 0 73 -18q39 -20 64 -47q30 -33 43 -66q15 -37 9 -76q25 -15 49 -20q27 -5 47 -5q54 0 88 32q33 31 33 81q0 19 -22 43q-22 23 -55 45 q-39 26 -78 47q-64 35 -91 51q-37 19 -109 61q-58 34 -98 67q-42 35 -70 78q-28 44 -28 93zM281 713q0 -62 58 -107q59 -45 140 -88q60 -38 126 -72q71 -37 120 -75q49 30 49 94q0 32 -15 59q-14 25 -42 50q-32 28 -61 46q-57 35 -70 42q-88 46 -132 71q-72 41 -120 78 q-53 -29 -53 -98z" />
<glyph unicode="&#xa8;" horiz-adv-x="819" d="M125 1239q0 65 40 111q41 47 109 47q70 0 108 -47t38 -111q0 -63 -38 -109q-38 -45 -108 -45q-68 0 -109 45q-40 44 -40 109zM596 1239q0 64 38 111t107 47q70 0 108 -47t38 -111q0 -63 -38 -109q-37 -45 -108 -45q-69 0 -107 45q-38 46 -38 109z" />
<glyph unicode="&#xa9;" horiz-adv-x="1640" d="M61 637q0 157 60 297t163 243q101 101 241 162q138 60 296 60t296 -60q142 -62 241 -162q102 -103 162 -243q59 -137 59 -297t-59 -296q-60 -139 -162 -242q-99 -100 -241 -162q-138 -60 -296 -60t-296 60q-140 61 -241 162q-102 102 -163 242q-60 138 -60 296zM152 637 q0 -138 52 -260q54 -126 143 -215q95 -95 213 -146q123 -53 261 -53q137 0 260 53q116 50 212 146q91 91 144 215q52 122 52 260q0 140 -52 262q-53 124 -144 215q-96 96 -212 146q-123 53 -260 53q-138 0 -261 -53q-118 -51 -213 -146q-89 -89 -143 -215q-52 -122 -52 -262 zM395 641q0 90 36 165q36 76 97 129q63 55 143 85q84 31 169 31q65 0 113 -12q55 -14 77 -23l121 33v-297h-119l-61 198q-51 33 -137 33q-105 0 -168 -80q-64 -81 -64 -250q0 -74 16 -138q16 -63 48 -118q31 -53 76 -82q47 -30 106 -30q40 0 64 7q30 9 44 17l74 203h127 l-22 -272l-95 20q-40 -18 -99 -30q-54 -11 -105 -11q-118 0 -203 35q-83 34 -136 93t-77 135q-25 80 -25 159z" />
<glyph unicode="&#xaa;" horiz-adv-x="870" d="M117 780q0 114 46 227q47 115 128 193q56 56 116 80q62 25 113 25q70 0 95 -36q24 -34 40 -89h15l35 127l202 -17l-94 -352l-49 -219l41 -12l100 96l29 -37q-23 -37 -46 -66q-22 -29 -57 -60q-29 -26 -65 -45q-33 -17 -70 -17q-19 0 -41 11q-32 16 -48 27q-24 16 -40 34 q-16 17 -16 30q0 15 9 42t24 63q5 12 15 38.5t16 41.5q12 29 34 91h-18q-36 -61 -95 -156q-40 -66 -85 -120q-38 -47 -82 -76q-39 -26 -88 -26q-68 0 -116 50t-48 152zM336 866q0 -118 78 -118q28 0 73 58q49 64 115 167l37 117q-53 39 -99 66q-48 28 -75 28q-15 0 -27 -5 q-7 -3 -22 -18q-14 -14 -29 -47q-12 -27 -26 -75q-8 -29 -18 -87q-7 -42 -7 -86z" />
<glyph unicode="&#xab;" horiz-adv-x="1044" d="M16 385v143l539 308l20 -45l-325 -338l252 -322l-33 -45zM471 385v143l563 328l21 -45l-379 -358l297 -342l-33 -45z" />
<glyph unicode="&#xac;" d="M49 266q0 70 20 148t55 148q36 73 83 139q48 68 102 122q67 67 144 104q79 38 149 38q96 0 148 -50q51 -50 69 -120h21l67 170h277l-142 -394l-110 -421l53 -19l139 88l37 -47q-52 -83 -134 -144t-179 -61q-22 0 -58 9q-32 8 -71 25q-38 17 -60 33q-24 18 -24 34 q0 22 14 63q8 24 33 92q17 46 38 100q24 60 32 83h-25q-49 -73 -108 -167q-47 -75 -97 -140q-47 -61 -96 -95q-50 -35 -111 -35q-114 0 -190 76t-76 221zM342 356q0 -69 28 -119q28 -49 74 -49q32 0 65 25q29 22 63 66q34 43 67 94q27 40 76 110l63 181q-21 34 -49 61 q-26 24 -59 46q-29 19 -61 30q-29 10 -48 10q-23 0 -37 -7q-12 -6 -30 -24q-38 -39 -66 -90q-29 -53 -48 -107q-21 -60 -29 -115q-9 -58 -9 -112z" />
<glyph unicode="&#xad;" horiz-adv-x="692" d="M68 453l6 137h549l6 -137h-561z" />
<glyph unicode="&#xae;" horiz-adv-x="1642" d="M61 643q0 158 60 296q61 140 163 242q101 101 241 162q138 60 296 60q157 0 297 -60q143 -61 242 -162q102 -103 162 -242q59 -136 59 -296t-59 -296q-60 -139 -162 -242q-99 -101 -242 -162q-140 -60 -297 -60q-158 0 -296 60q-140 61 -241 162q-102 102 -163 242 q-60 138 -60 296zM152 643q0 -138 53 -262q52 -121 143 -214q90 -91 213 -144q127 -54 260 -54q136 0 261 54q122 53 213 144q92 92 144 214t52 262t-52 262q-53 124 -144 215q-95 95 -213 146q-123 53 -261 53q-136 0 -260 -53q-120 -51 -213 -146q-91 -92 -143 -215 q-53 -124 -53 -262zM440 246l6 73l58 15q31 8 31 28v556q0 22 -31 30l-58 15l-6 75h414q82 0 140 -15t97 -43q36 -26 55 -65q17 -35 17 -77q0 -162 -192 -215l176 -258q11 -17 25 -21q18 -5 26 -10l25 -15l6 -73h-254l-47 88l-148 250l-47 4v-226q0 -17 29 -28l43 -15l8 -73 h-373zM733 659l66 -8q70 5 112 38q43 34 43 112q0 81 -50 125q-49 43 -120 43h-51v-310z" />
<glyph unicode="&#xaf;" horiz-adv-x="819" d="M125 1128l31 154h655l10 -154h-696z" />
<glyph unicode="&#xb0;" horiz-adv-x="839" d="M145 946q0 78 30 147q28 65 80 120q48 51 119 82q69 30 144 30q70 0 126 -20q58 -21 102 -60q46 -41 70 -95q26 -58 26 -126q0 -80 -30 -149t-80 -122q-48 -51 -119 -82q-69 -30 -148 -30q-63 0 -124 22q-58 21 -101 61q-45 42 -69 96q-26 58 -26 126zM244 950 q0 -103 66 -163t163 -60q56 0 106 22q47 21 84 59q33 35 56 88q20 47 20 108q0 102 -63 166q-63 65 -166 65q-58 0 -106 -24q-49 -24 -83 -63q-36 -41 -57 -91q-20 -49 -20 -107z" />
<glyph unicode="&#xb1;" horiz-adv-x="1640" d="M61 637q0 157 60 297t163 243q101 101 241 162q138 60 296 60t296 -60q142 -62 241 -162q102 -103 162 -243q59 -137 59 -297t-59 -296q-61 -140 -162 -241q-99 -99 -241 -161q-138 -60 -296 -60t-296 60q-139 60 -241 161q-102 100 -163 241q-60 138 -60 296zM152 637 q0 -138 52 -260q54 -126 143 -215q95 -95 213 -146q123 -53 261 -53q137 0 260 53q116 50 212 146q91 91 144 215q52 122 52 260q0 140 -52 262q-53 124 -144 215q-96 96 -212 146q-123 53 -260 53q-138 0 -261 -53q-118 -51 -213 -146q-89 -89 -143 -215q-52 -122 -52 -262 zM492 238l6 73l57 17q29 8 29 28v555q0 21 -29 29l-57 16l-6 74h366q174 0 258 -60t84 -165q0 -61 -24 -111q-23 -48 -69 -84q-45 -36 -103 -53q-60 -18 -132 -18q-26 0 -44 1q-28 2 -44 3v-187q0 -20 29 -28l68 -17l8 -73h-397zM784 612q6 -1 16.5 -2.5t15.5 -1.5 q20 -2 44 -2q64 0 98 46q35 47 35 139q0 76 -47 123t-112 47h-50v-349z" />
<glyph unicode="&#xb4;" horiz-adv-x="815" d="M303 1065l248 362h315l-428 -362h-135z" />
<glyph unicode="&#xb5;" horiz-adv-x="1017" d="M-154 -330q0 92 80 148q79 55 205 84v20q-28 17 -52 54q-24 36 -24 81q0 73 48 126q48 52 130 79v21q-72 39 -115 107q-44 70 -44 149q0 90 36 169t98 137t147 92q84 34 184 34q25 0 63 -5q23 -3 71 -13q54 -11 65 -14q7 -2 17 -4.5t16.5 -4t10.5 -2.5l316 8l-62 -217 l-262 69l-4 -20q73 -40 103 -100t30 -113q0 -78 -34 -139q-36 -64 -92 -104q-57 -41 -138 -64t-170 -23q-33 0 -76 6q-16 2 -78 13q-11 -5 -25 -26q-14 -20 -14 -42q0 -18 17 -33q13 -12 41 -26q29 -15 54 -22q33 -10 56 -15l103 -27q168 -44 243 -107q76 -64 76 -179 q0 -65 -37 -124q-39 -62 -110 -107q-74 -47 -182 -74t-250 -27q-215 0 -327 62q-114 63 -114 173zM88 -283q0 -71 76 -117t223 -46q121 0 182 31q62 32 62 71q0 20 -8 39q-7 17 -31 36q-22 18 -65 36q-35 15 -109 38q-8 3 -44.5 14.5t-58.5 19.5q-51 17 -114 44 q-65 -29 -88 -70q-25 -44 -25 -96zM356 442q0 -26 11 -54q11 -29 26 -44q5 -5 24 -13q17 -7 34 -7q26 0 44 9q16 8 35 27q34 31 55 82q22 54 35 108q14 58 18 110q5 60 5 94q0 14 -13 28t-33 25q-14 8 -44 17q-22 7 -47 7q-9 0 -21 -3t-16 -7q-25 -25 -47 -75 q-18 -42 -35 -102q-14 -50 -22 -108q-9 -65 -9 -94z" />
<glyph unicode="&#xb6;" horiz-adv-x="976" d="M102 858q0 117 41 197q41 81 120 130t194 72q117 23 264 23h252l-176 -1346h-154l78 551q-11 -1 -28.5 -2.5t-21.5 -1.5q-28 -2 -57 -2q-108 0 -206 28q-93 27 -162 77q-70 51 -106 118q-38 70 -38 156z" />
<glyph unicode="&#xb7;" horiz-adv-x="475" d="M66 508q0 77 52 129q53 53 128 53q38 0 69 -14q36 -16 58 -40q24 -26 39 -58q14 -31 14 -70q0 -75 -52 -127q-53 -53 -128 -53q-76 0 -128 52t-52 128z" />
<glyph unicode="&#xb8;" horiz-adv-x="819" d="M16 -512q167 18 256 61q90 43 90 99q0 100 -157 100q-45 0 -81 -3q-39 -3 -75 -13l4 57l281 254h115l-175 -147q126 -11 198 -57q73 -47 73 -130q0 -61 -39 -111t-108 -87q-72 -39 -162 -59q-92 -20 -205 -25z" />
<glyph unicode="&#xba;" horiz-adv-x="780" d="M125 889q0 83 29 159q29 77 80 132q52 57 124 91q71 34 158 34q140 0 220 -86q79 -85 79 -228q0 -79 -29 -157q-29 -79 -80 -134q-52 -56 -123 -91q-69 -34 -157 -34q-138 0 -220 88q-81 87 -81 226zM336 805q0 -67 23 -102t65 -35q29 0 53 21q25 22 46 59q24 42 37 85 q16 53 26 99q10 54 13 79q5 42 5 66q0 67 -23 102t-65 35q-29 0 -53 -21q-27 -23 -46 -58q-24 -42 -37 -85q-16 -51 -26 -100q-11 -65 -13 -80q-5 -42 -5 -65z" />
<glyph unicode="&#xbb;" horiz-adv-x="1044" d="M-25 102l375 359l-293 342l29 45l473 -320v-143l-563 -328zM451 123l329 338l-252 321l33 45l449 -299v-143l-539 -307z" />
<glyph unicode="&#xbf;" horiz-adv-x="825" d="M0 358q0 85 30 142q31 59 74 95q45 37 102 60q55 22 107 37q84 27 119 38q49 15 49 48q0 30 -18 58t-51 51h139q55 -28 90 -82q35 -53 35 -109q0 -60 -30 -104q-29 -42 -77 -73q-46 -30 -104 -48q-43 -14 -111 -33q-56 -14 -122 -34q-50 -15 -50 -37q0 -25 21 -49 q19 -21 56 -40q34 -17 84 -28q46 -10 106 -10q37 0 82 5q36 4 71 11q49 -49 49 -106q0 -79 -62 -131t-179 -52q-79 0 -154 29q-73 28 -130 81q-57 52 -91 124q-35 73 -35 157zM426 1147q0 65 47 114q47 48 115 48q67 0 114 -47q48 -48 48 -115q0 -66 -48 -116 q-46 -48 -114 -48q-69 0 -115 49q-47 50 -47 115z" />
<glyph unicode="&#xc0;" horiz-adv-x="1327" d="M-92 0l6 94l41 12q39 10 67 23t58 54q33 46 74 124t112 232l293 614v88l336 70l240 -1100q11 -46 28 -69q17 -22 62 -33l47 -15l6 -94h-668l6 94l54 6q37 6 60 19q22 13 28 39t0 72q-6 48 -21 116l-10 47h-393l-6 -16q-46 -111 -39 -186t71 -87l54 -10l6 -94h-512z M381 506h328l-84 493h-25zM418 1769h315l150 -362h-140z" />
<glyph unicode="&#xc1;" horiz-adv-x="1327" d="M-92 0l6 94l41 12q39 10 67 23t58 54q33 46 74 124t112 232l293 614v88l336 70l240 -1100q11 -46 28 -69q17 -22 62 -33l47 -15l6 -94h-668l6 94l54 6q37 6 60 19q22 13 28 39t0 72q-6 48 -21 116l-10 47h-393l-6 -16q-46 -111 -39 -186t71 -87l54 -10l6 -94h-512z M381 506h328l-84 493h-25zM621 1407l247 362h316l-428 -362h-135z" />
<glyph unicode="&#xc2;" horiz-adv-x="1327" d="M-92 0l6 94l41 12q39 10 67 23t58 54q33 46 74 124t112 232l293 614v88l336 70l240 -1100q11 -46 28 -69q17 -22 62 -33l47 -15l6 -94h-668l6 94l54 6q37 6 60 19q22 13 28 39t0 72q-6 48 -21 116l-10 47h-393l-6 -16q-46 -111 -39 -186t71 -87l54 -10l6 -94h-512z M371 1407l247 362h295l154 -362h-139l-176 229h-4l-238 -229h-139zM381 506h328l-84 493h-25z" />
<glyph unicode="&#xc3;" horiz-adv-x="1327" d="M-92 0l6 94l41 12q39 10 67 23t58 54q33 46 74 124t112 232l293 614v88l336 70l240 -1100q11 -46 28 -69q17 -22 62 -33l47 -15l6 -94h-668l6 94l54 6q37 6 60 19q22 13 28 39t0 72q-6 48 -21 116l-10 47h-393l-6 -16q-46 -111 -39 -186t71 -87l54 -10l6 -94h-512z M348 1440q33 170 98 235q66 66 160 66q42 0 84 -22t79 -47q45 -30 72 -47q35 -21 62 -21q36 0 60 30q25 31 53 86h114q-17 -88 -40 -144q-23 -57 -58 -93q-33 -34 -73 -49q-41 -15 -87 -15q-42 0 -85 23q-32 17 -81 48q-40 26 -75 48q-35 23 -64 23q-39 0 -55 -33 q-22 -44 -41 -88h-123zM381 506h328l-84 493h-25z" />
<glyph unicode="&#xc4;" horiz-adv-x="1327" d="M-92 0l6 94l41 12q39 10 67 23t58 54q33 46 74 124t112 232l293 614v88l336 70l240 -1100q11 -46 28 -69q17 -22 62 -33l47 -15l6 -94h-668l6 94l54 6q37 6 60 19q22 13 28 39t0 72q-6 48 -21 116l-10 47h-393l-6 -16q-46 -111 -39 -186t71 -87l54 -10l6 -94h-512z M379 1581q0 65 40 111q41 47 109 47q70 0 108 -47t38 -111q0 -62 -38 -108t-108 -46q-68 0 -109 46q-40 44 -40 108zM381 506h328l-84 493h-25zM850 1581q0 64 38 111t107 47q70 0 108 -47t38 -111q0 -62 -38 -108t-108 -46q-69 0 -107 46t-38 108z" />
<glyph unicode="&#xc5;" horiz-adv-x="1327" d="M-92 0l6 94l41 12q37 10 65 24q29 14 58 54q30 40 74 124q12 23 114 231l344 725q-63 63 -63 161q1 44 17 86t44 72q29 31 70 49q43 19 92 19t92 -19q42 -18 69 -49q28 -31 43 -72t15 -86q0 -56 -20 -100q-22 -49 -60 -78l226 -1036q11 -46 28 -69q17 -22 62 -33l47 -15 l6 -94h-668l6 94l54 6q37 6 60 19q22 13 28 39t0 72q-6 48 -21 116l-10 47h-393l-6 -16q-46 -111 -39 -186t71 -87l54 -10l6 -94h-512zM379 496h326l-74 503h-31zM629 1425q0 -57 38 -101t103 -44t103 44t38 101t-38 104q-37 46 -103 46t-103 -46q-38 -47 -38 -104z" />
<glyph unicode="&#xc6;" horiz-adv-x="1949" d="M-154 0l7 94l41 12q38 12 67 27q32 17 64 53q30 34 87 112q44 60 136 200l338 508q51 78 36 118q-15 41 -73 52l-84 16l4 88h1468l-59 -461h-182l-21 142q-11 78 -30 118q-21 44 -63 65t-107 27q-77 7 -168 7h-99l-67 -484h33q51 0 104 16q50 15 78 70l71 142h132 l-123 -549h-129l-7 129q-2 51 -31 69q-32 19 -120 19h-25l-63 -488h127q95 0 165 8q69 8 113 29q48 23 82 66q37 47 70 117l57 112h185l-99 -434h-1202l19 88l92 23q28 6 39 18q9 10 14 31l39 289h-406l-41 -60q-46 -67 -69 -121q-21 -50 -21 -84t21 -54q22 -20 53 -26 l53 -10l6 -94h-512zM422 549h352l84 633h-14z" />
<glyph unicode="&#xc7;" horiz-adv-x="1396" d="M100 547q0 143 64 288q62 140 174 252q102 102 235 161q137 61 295 61q47 0 102 -5q37 -3 95 -15q50 -10 81 -19q34 -10 56 -21l203 60l-64 -492h-192l-66 320q-73 57 -168 57q-97 0 -176 -58q-78 -57 -136 -154q-57 -94 -87 -219q-31 -129 -31 -253q0 -127 31 -218 q30 -89 86 -145q69 -69 176 -69q45 0 82 11q44 13 74 28l162 329h204l-94 -446l-141 29q-49 -21 -128 -40q-72 -17 -167 -22l-84 -71q126 -11 198 -57t72 -130q0 -63 -38 -111q-39 -50 -108 -87q-71 -39 -163 -59t-205 -25l-14 61q167 18 256 61q90 43 90 99q0 100 -158 100 q-44 0 -80 -3q-39 -3 -75 -13l4 57l197 178q-145 6 -249 52q-108 48 -175 122q-70 77 -104 180q-34 102 -34 226z" />
<glyph unicode="&#xc8;" horiz-adv-x="1384" d="M6 0l10 90l88 23q32 8 40 19q10 13 14 30l131 956q5 18 -3 30q-7 11 -38 19l-82 23l-4 90h1210l-59 -461h-182l-21 142q-10 75 -31 118q-22 45 -62 65q-42 21 -108 27q-77 7 -168 7h-98l-68 -484h33q52 0 105 16q50 15 78 70l71 142h131l-123 -549h-129l-6 129 q-1 51 -32 69q-32 19 -119 19h-25l-63 -488h127q94 0 164 8q71 8 114 29q48 23 82 66q37 47 70 117l57 112h184l-98 -434h-1190zM467 1769h315l150 -362h-139z" />
<glyph unicode="&#xc9;" horiz-adv-x="1384" d="M6 0l10 90l88 23q32 8 40 19q10 13 14 30l131 956q5 18 -3 30q-7 11 -38 19l-82 23l-4 90h1210l-59 -461h-182l-21 142q-10 75 -31 118q-22 45 -62 65q-42 21 -108 27q-77 7 -168 7h-98l-68 -484h33q52 0 105 16q50 15 78 70l71 142h131l-123 -549h-129l-6 129 q-1 51 -32 69q-32 19 -119 19h-25l-63 -488h127q94 0 164 8q71 8 114 29q48 23 82 66q37 47 70 117l57 112h184l-98 -434h-1190zM690 1407l248 362h315l-428 -362h-135z" />
<glyph unicode="&#xca;" horiz-adv-x="1384" d="M6 0l10 90l88 23q32 8 40 19q10 13 14 30l131 956q5 18 -3 30q-7 11 -38 19l-82 23l-4 90h1210l-59 -461h-182l-21 142q-10 75 -31 118q-22 45 -62 65q-42 21 -108 27q-77 7 -168 7h-98l-68 -484h33q52 0 105 16q50 15 78 70l71 142h131l-123 -549h-129l-6 129 q-1 51 -32 69q-32 19 -119 19h-25l-63 -488h127q94 0 164 8q71 8 114 29q48 23 82 66q37 47 70 117l57 112h184l-98 -434h-1190zM399 1407l248 362h295l154 -362h-140l-176 229h-4l-237 -229h-140z" />
<glyph unicode="&#xcb;" horiz-adv-x="1384" d="M6 0l10 90l88 23q32 8 40 19q10 13 14 30l131 956q5 18 -3 30q-7 11 -38 19l-82 23l-4 90h1210l-59 -461h-182l-21 142q-10 75 -31 118q-22 45 -62 65q-42 21 -108 27q-77 7 -168 7h-98l-68 -484h33q52 0 105 16q50 15 78 70l71 142h131l-123 -549h-129l-6 129 q-1 51 -32 69q-32 19 -119 19h-25l-63 -488h127q94 0 164 8q71 8 114 29q48 23 82 66q37 47 70 117l57 112h184l-98 -434h-1190zM428 1581q0 65 40 111q41 47 110 47t107 -47t38 -111q0 -62 -38 -108t-107 -46t-110 46q-40 44 -40 108zM899 1581q0 64 38 111t107 47 q70 0 108 -47t38 -111q0 -62 -38 -108t-108 -46q-69 0 -107 46t-38 108z" />
<glyph unicode="&#xcc;" horiz-adv-x="790" d="M10 0l6 90l109 23q29 8 39 19q9 10 14 30l131 956q5 19 -3 31q-7 12 -38 18l-104 23l-6 90h667l-6 -90l-112 -23q-48 -11 -54 -49l-131 -956q-6 -32 41 -49l107 -23l8 -90h-668zM150 1769h315l149 -362h-139z" />
<glyph unicode="&#xcd;" horiz-adv-x="790" d="M10 0l6 90l109 23q29 8 39 19q9 10 14 30l131 956q5 19 -3 31q-7 12 -38 18l-104 23l-6 90h667l-6 -90l-112 -23q-48 -11 -54 -49l-131 -956q-6 -32 41 -49l107 -23l8 -90h-668zM434 1407l248 362h315l-428 -362h-135z" />
<glyph unicode="&#xce;" horiz-adv-x="790" d="M10 0l6 90l109 23q29 8 39 19q9 10 14 30l131 956q5 19 -3 31q-7 12 -38 18l-104 23l-6 90h667l-6 -90l-112 -23q-48 -11 -54 -49l-131 -956q-6 -32 41 -49l107 -23l8 -90h-668zM147 1407l248 362h295l154 -362h-139l-177 229h-4l-237 -229h-140z" />
<glyph unicode="&#xcf;" horiz-adv-x="790" d="M10 0l6 90l109 23q29 8 39 19q9 10 14 30l131 956q5 19 -3 31q-7 12 -38 18l-104 23l-6 90h667l-6 -90l-112 -23q-48 -11 -54 -49l-131 -956q-6 -32 41 -49l107 -23l8 -90h-668zM131 1581q0 65 40 111q41 47 110 47t107 -47t38 -111q0 -62 -38 -108t-107 -46t-110 46 q-40 44 -40 108zM602 1581q0 64 38 111t108 47q69 0 107 -47t38 -111q0 -62 -38 -108t-107 -46q-70 0 -108 46t-38 108z" />
<glyph unicode="&#xd0;" horiz-adv-x="1458" d="M6 0l10 90l88 23q32 8 40 19q10 13 14 30l59 428h-127l6 104h135l58 424q4 17 -2 30q-6 11 -39 19l-82 23l-4 90q232 2 305 2h272q171 0 298 -42q128 -42 214 -119q85 -77 129 -183q43 -105 43 -233q0 -149 -52 -266t-163 -228q-96 -97 -254 -154q-159 -57 -350 -57h-598 zM500 133l133 -31q85 6 160 46q76 40 133 115t90 184t33 251q0 100 -19 193q-17 85 -59 150q-40 63 -109 98q-68 35 -166 35h-53l-65 -480h231l6 -104h-252z" />
<glyph unicode="&#xd1;" horiz-adv-x="1464" d="M-37 0l6 90l99 27q18 5 37 27q18 21 33 68q16 48 30 122q14 71 31 186l84 594q2 13 -2 29q-5 18 -33 24l-84 23l-4 90h477l442 -915h21l55 395q18 121 23 188q6 81 5 123q-2 48 -12 69q-11 22 -26 23l-119 27l-6 90h504l-6 -90l-99 -27q-20 -6 -38 -28q-16 -20 -32 -69 q-15 -47 -30 -121q-14 -68 -31 -185l-108 -774h-283l-481 989h-21l-63 -455q-18 -121 -23 -188q-6 -81 -5 -123q2 -49 11 -68q10 -19 27 -24l119 -27l6 -90h-504zM457 1440q33 170 98 235q66 66 160 66q42 0 84 -22t79 -47q53 -36 71 -47q35 -21 63 -21q35 0 59 30 q25 31 53 86h115q-16 -83 -41 -144q-24 -58 -57 -93q-33 -34 -73 -49t-87 -15q-42 0 -85 23q-39 21 -82 48q-40 26 -75 48q-35 23 -63 23q-38 0 -55 -33q-22 -44 -41 -88h-123z" />
<glyph unicode="&#xd2;" horiz-adv-x="1505" d="M96 561q0 153 52 284t157 236q103 103 233 163q133 61 287 61q133 0 244 -43q115 -45 196 -121q83 -79 130 -187q47 -109 47 -241q0 -161 -67 -303q-66 -139 -177 -250q-96 -96 -218 -143q-124 -48 -267 -48q-132 0 -245 43q-114 44 -196 121q-83 78 -129 187 q-47 111 -47 241zM471 463q0 -87 16 -174q17 -91 76 -150q24 -27 59 -42q34 -15 83 -15q71 0 126 40q56 41 96 103q36 56 66 144q26 76 43 159q16 78 24 153q7 67 7 122q0 41 -3 86q-3 49 -13 89q-10 42 -29 86q-18 43 -47 73q-30 26 -61 40q-35 15 -80 15q-74 0 -129 -40 q-57 -41 -96 -104q-37 -59 -66 -146q-27 -81 -42 -162q-16 -88 -23 -154q-7 -69 -7 -123zM485 1769h316l149 -362h-139z" />
<glyph unicode="&#xd3;" horiz-adv-x="1505" d="M96 561q0 153 52 284t157 236q103 103 233 163q133 61 287 61q133 0 244 -43q115 -45 196 -121q83 -79 130 -187q47 -109 47 -241q0 -161 -67 -303q-66 -139 -177 -250q-96 -96 -218 -143q-124 -48 -267 -48q-132 0 -245 43q-114 44 -196 121q-83 78 -129 187 q-47 111 -47 241zM471 463q0 -87 16 -174q17 -91 76 -150q24 -27 59 -42q34 -15 83 -15q71 0 126 40q56 41 96 103q36 56 66 144q26 76 43 159q16 78 24 153q7 67 7 122q0 41 -3 86q-3 49 -13 89q-10 42 -29 86q-18 43 -47 73q-30 26 -61 40q-35 15 -80 15q-74 0 -129 -40 q-57 -41 -96 -104q-37 -59 -66 -146q-27 -81 -42 -162q-16 -88 -23 -154q-7 -69 -7 -123zM729 1407l248 362h315l-428 -362h-135z" />
<glyph unicode="&#xd4;" horiz-adv-x="1505" d="M96 561q0 153 52 284t157 236q103 103 233 163q133 61 287 61q133 0 244 -43q115 -45 196 -121q83 -79 130 -187q47 -109 47 -241q0 -161 -67 -303q-66 -139 -177 -250q-96 -96 -218 -143q-124 -48 -267 -48q-132 0 -245 43q-114 44 -196 121q-83 78 -129 187 q-47 111 -47 241zM471 463q0 -87 16 -174q17 -91 76 -150q24 -27 59 -42q34 -15 83 -15q71 0 126 40q56 41 96 103q36 56 66 144q26 76 43 159q16 78 24 153q7 67 7 122q0 41 -3 86q-3 49 -13 89q-10 42 -29 86q-18 43 -47 73q-30 26 -61 40q-35 15 -80 15q-74 0 -129 -40 q-57 -41 -96 -104q-37 -59 -66 -146q-27 -81 -42 -162q-16 -88 -23 -154q-7 -69 -7 -123zM520 1407l248 362h295l154 -362h-140l-176 229h-4l-238 -229h-139z" />
<glyph unicode="&#xd5;" horiz-adv-x="1505" d="M96 561q0 153 52 284t157 236q103 103 233 163q133 61 287 61q133 0 244 -43q115 -45 196 -121q83 -79 130 -187q47 -109 47 -241q0 -161 -67 -303q-66 -139 -177 -250q-96 -96 -218 -143q-124 -48 -267 -48q-132 0 -245 43q-114 44 -196 121q-82 78 -129 188 q-47 111 -47 240zM436 1440q33 169 99 235t159 66q42 0 84 -22t79 -47q45 -30 72 -47q34 -21 62 -21q36 0 60 30q25 31 53 86h115q-16 -83 -41 -144q-23 -57 -58 -93q-33 -35 -72 -49q-40 -15 -87 -15q-42 0 -85 23q-39 21 -82 48q-40 26 -75 48q-35 23 -64 23 q-39 0 -55 -33q-22 -44 -41 -88h-123zM471 463q0 -87 16 -174q17 -91 76 -150q24 -27 59 -42q34 -15 83 -15q71 0 126 40q56 41 96 103q36 56 66 144q26 76 43 159q16 78 24 153q7 67 7 122q0 41 -3 86q-3 49 -13 89q-10 42 -29 86q-18 43 -47 73q-30 26 -61 40 q-35 15 -80 15q-74 0 -129 -40q-57 -41 -96 -104q-37 -59 -66 -146q-27 -81 -42 -162q-16 -88 -23 -154q-7 -69 -7 -123z" />
<glyph unicode="&#xd6;" horiz-adv-x="1505" d="M96 561q0 153 52 284t157 236q103 103 233 163q133 61 287 61q133 0 244 -43q115 -45 196 -121q83 -79 130 -187q47 -109 47 -241q0 -161 -67 -303q-66 -139 -177 -250q-96 -96 -218 -143q-124 -48 -267 -48q-132 0 -245 43q-114 44 -196 121q-83 78 -129 187 q-47 111 -47 241zM471 463q0 -87 16 -174q17 -91 76 -150q24 -27 59 -42q34 -15 83 -15q71 0 126 40q56 41 96 103q36 56 66 144q26 76 43 159q16 78 24 153q7 67 7 122q0 41 -3 86q-3 49 -13 89q-10 42 -29 86q-18 43 -47 73q-30 26 -61 40q-35 15 -80 15q-74 0 -129 -40 q-57 -41 -96 -104q-37 -59 -66 -146q-27 -81 -42 -162q-16 -88 -23 -154q-7 -69 -7 -123zM508 1581q0 65 40 111q41 47 109 47q70 0 108 -47t38 -111q0 -62 -38 -108t-108 -46q-68 0 -109 46q-40 44 -40 108zM979 1581q0 64 38 111t107 47q70 0 108 -47t38 -111 q0 -62 -38 -108t-108 -46q-69 0 -107 46t-38 108z" />
<glyph unicode="&#xd7;" horiz-adv-x="995" d="M80 133l346 346l-346 344l76 76l346 -346l346 348l76 -76l-349 -346l347 -346l-76 -76l-344 346l-346 -346z" />
<glyph unicode="&#xd8;" horiz-adv-x="1505" d="M121 561q0 153 52 284t157 236q104 104 232 163q133 61 288 61q134 0 256 -48l88 152h96l-110 -188q133 -73 211 -204q77 -128 75 -304q0 -163 -66 -303q-66 -139 -177 -250q-96 -96 -218 -143q-124 -48 -268 -48q-136 0 -256 47l-98 -168h-94l119 203q-134 77 -211 206 q-78 130 -76 304zM485 463q0 -44 7 -112q6 -59 24 -111l510 878q-50 84 -168 84q-72 0 -130 -41q-55 -39 -98 -105q-42 -64 -69 -147q-24 -73 -44 -165q-15 -70 -24 -156q-8 -78 -8 -125zM561 154q37 -37 70 -58q37 -24 98 -24q74 0 129 40q56 41 97 104q44 68 70 145 q29 86 44 163q19 93 25 156q8 78 8 123q0 55 -7 111q-7 58 -26 116z" />
<glyph unicode="&#xd9;" horiz-adv-x="1437" d="M135 1280h625l-6 -90l-90 -23q-48 -17 -54 -49l-92 -659q-4 -28 -6 -57q-2 -36 -2 -74q0 -46 17 -84q19 -42 51 -73q33 -31 80 -52q48 -21 110 -21q142 0 228 87q85 87 114 296l41 279q18 121 23 188q6 72 4 123q-1 44 -12 69q-9 22 -27 23l-117 27l-6 90h504l-7 -90 l-98 -27q-20 -6 -38 -28q-16 -20 -32 -69q-15 -47 -30 -121q-14 -68 -31 -185l-47 -326q-18 -122 -67 -216q-48 -91 -120 -151q-73 -61 -165 -91q-88 -29 -199 -29q-112 0 -207 27q-94 27 -162 83q-67 55 -105 139t-38 191q0 38 1 53q2 35 5 52l84 626q4 18 -3 30 q-7 11 -38 19l-82 23zM535 1769h315l149 -362h-139z" />
<glyph unicode="&#xda;" horiz-adv-x="1437" d="M135 1280h625l-6 -90l-90 -23q-48 -17 -54 -49l-92 -659q-4 -28 -6 -57q-2 -36 -2 -74q0 -46 17 -84q19 -42 51 -73q33 -31 80 -52q48 -21 110 -21q142 0 228 87q85 87 114 296l41 279q18 121 23 188q6 72 4 123q-1 44 -12 69q-9 22 -27 23l-117 27l-6 90h504l-7 -90 l-98 -27q-20 -6 -38 -28q-16 -20 -32 -69q-15 -47 -30 -121q-14 -68 -31 -185l-47 -326q-18 -122 -67 -216q-48 -91 -120 -151q-73 -61 -165 -91q-88 -29 -199 -29q-112 0 -207 27q-94 27 -162 83q-67 55 -105 139t-38 191q0 38 1 53q2 35 5 52l84 626q4 18 -3 30 q-7 11 -38 19l-82 23zM778 1407l248 362h315l-428 -362h-135z" />
<glyph unicode="&#xdb;" horiz-adv-x="1437" d="M135 1280h625l-6 -90l-90 -23q-48 -17 -54 -49l-92 -659q-4 -28 -6 -57q-2 -36 -2 -74q0 -46 17 -84q19 -42 51 -73q33 -31 80 -52q48 -21 110 -21q142 0 228 87q85 87 114 296l41 279q18 121 23 188q6 72 4 123q-1 44 -12 69q-9 22 -27 23l-117 27l-6 90h504l-7 -90 l-98 -27q-20 -6 -38 -28q-16 -20 -32 -69q-15 -47 -30 -121q-14 -68 -31 -185l-47 -326q-18 -122 -67 -216q-48 -91 -120 -151q-73 -61 -165 -91q-88 -29 -199 -29q-112 0 -207 27q-94 27 -162 83q-67 55 -105 139t-38 191q0 38 1 53q2 35 5 52l84 626q4 18 -3 30 q-7 11 -38 19l-82 23zM535 1407l247 362h295l154 -362h-139l-177 229h-4l-237 -229h-139z" />
<glyph unicode="&#xdc;" horiz-adv-x="1437" d="M135 1280h625l-6 -90l-90 -23q-48 -17 -54 -49l-92 -659q-4 -28 -6 -57q-2 -36 -2 -74q0 -46 17 -84q19 -42 51 -73q33 -31 80 -52q48 -21 110 -21q142 0 228 87q85 87 114 296l41 279q18 121 23 188q6 72 4 123q-1 44 -12 69q-9 22 -27 23l-117 27l-6 90h504l-7 -90 l-98 -27q-20 -6 -38 -28q-16 -20 -32 -69q-15 -47 -30 -121q-14 -68 -31 -185l-47 -326q-18 -122 -67 -216q-48 -91 -120 -151q-73 -61 -165 -91q-88 -29 -199 -29q-112 0 -207 27q-94 27 -162 83q-67 55 -105 139t-38 191q0 38 1 53q2 35 5 52l84 626q4 18 -3 30 q-7 11 -38 19l-82 23zM475 1581q0 65 40 111q41 47 110 47t107 -47t38 -111q0 -62 -38 -108t-107 -46t-110 46q-40 44 -40 108zM946 1581q0 64 38 111t108 47q69 0 107 -47t38 -111q0 -62 -38 -108t-107 -46q-70 0 -108 46t-38 108z" />
<glyph unicode="&#xdd;" horiz-adv-x="1230" d="M51 1280h645l-6 -94l-78 -12q-59 -10 -56 -66q3 -54 44 -174l111 -316h20l180 261q58 86 81 131q27 53 32 88q4 34 -12 52t-51 24l-56 12l-6 94h469l-6 -94l-43 -15q-28 -7 -47 -17q-24 -13 -52 -41q-30 -30 -72 -84q-37 -48 -108 -146l-252 -355l-47 -366q-6 -38 41 -49 l101 -23l-9 -90h-659l18 90l109 23q47 8 53 49l45 342l-254 581q-18 39 -36 57q-15 15 -48 27l-45 17zM674 1407l248 362h315l-428 -362h-135z" />
<glyph unicode="&#xde;" horiz-adv-x="1255" d="M6 0l10 90l88 23q32 8 40 19q10 13 14 30l131 956q5 18 -3 30q-7 11 -38 19l-84 23l-6 90h626l-6 -90l-92 -23q-47 -17 -53 -49l-10 -84h92q117 0 206 -23q93 -24 160 -70q68 -47 105 -115t37 -158q0 -93 -44 -172q-44 -78 -122 -134q-79 -56 -188 -86t-240 -30 q-17 0 -57 2t-54 2l-14 -88q-5 -41 41 -49l106 -23l2 -90h-647zM528 346q15 -2 27 -3q8 -1 25 -1q130 0 212 80q80 79 80 221q0 71 -20 121q-23 57 -54 92q-33 38 -79 59q-45 21 -92 21h-17z" />
<glyph unicode="&#xdf;" horiz-adv-x="1380" d="M-385 -307q0 64 40 101q41 38 95 38q76 0 122 -58q47 -59 54 -136l107 20q20 57 34 128q12 62 31 175l107 803l-168 18l6 82l197 78q46 208 170 332q156 156 366 156q114 0 187 -60t73 -158q0 -63 -42 -111t-109 -48q-41 0 -71 20q-32 21 -54 55q-21 32 -37 80 q-13 38 -18 92l-91 -16q-24 -77 -41 -173q-19 -107 -36 -194l-158 -770q-39 -195 -103 -330q-61 -131 -139 -208q-59 -59 -131 -86t-149 -27q-53 0 -96 15q-47 16 -76 40q-35 28 -52 63q-18 36 -18 79zM516 170q0 73 37 113q38 41 109 41q60 0 97 -39q38 -40 38 -99 q0 -8 -3 -24q-3 -14 -8 -27q15 -7 39 -18q27 -12 54 -19q38 -10 57 -14q29 -6 49 -6q20 22 37 55q16 32 16 62q0 17 -15 37q-10 13 -40 43q-25 25 -55 49q-48 38 -62 51q-96 88 -100 92q-45 40 -72 73q-30 36 -42 66q-13 32 -13 70q0 74 34 129q35 56 90 91q58 36 131 54 q79 19 155 19q49 0 116 -10q60 -9 108 -30q49 -21 79 -59t30 -92q0 -76 -36 -115q-37 -40 -105 -40q-64 0 -102 41q-37 40 -37 96q0 10 3 26q3 19 7 27q-25 15 -77 34q-43 16 -91 21q-30 -30 -47 -63q-18 -35 -18 -43q0 -18 18 -42q17 -22 45 -49q30 -29 57 -50 q30 -24 54 -48q20 -18 98 -91q51 -47 72 -73q28 -34 43 -67q14 -31 14 -72q0 -63 -34 -118q-35 -57 -92 -96q-55 -38 -138 -63q-80 -24 -172 -24q-49 0 -110 11q-62 11 -106 33q-48 24 -80 62t-32 95z" />
<glyph unicode="&#xe0;" d="M49 266q0 70 20 148t55 148q36 73 83 139q48 68 102 122q67 67 144 104q79 38 149 38q96 0 148 -50q51 -50 69 -120h21l67 170h277l-142 -394l-110 -421l53 -19l139 88l37 -47q-52 -83 -134 -144t-179 -61q-22 0 -58 9q-32 8 -71 25q-38 17 -60 33q-24 18 -24 34 q0 22 14 63q8 24 33 92q17 46 38 100q24 60 32 83h-25q-49 -73 -108 -167q-47 -75 -97 -140q-47 -61 -96 -95q-50 -35 -111 -35q-114 0 -190 76t-76 221zM342 356q0 -69 28 -119q28 -49 74 -49q32 0 65 25q29 22 63 66q34 43 67 94q27 40 76 110l63 181q-21 34 -49 61 q-26 24 -59 46q-29 19 -61 30q-29 10 -48 10q-23 0 -37 -7q-12 -6 -30 -24q-38 -39 -66 -90q-29 -53 -48 -107q-21 -60 -29 -115q-9 -58 -9 -112zM391 1427h316l149 -362h-139z" />
<glyph unicode="&#xe1;" d="M49 266q0 70 20 148t55 148q36 73 83 139q48 68 102 122q67 67 144 104q79 38 149 38q96 0 148 -50q51 -50 69 -120h21l67 170h277l-142 -394l-110 -421l53 -19l139 88l37 -47q-52 -83 -134 -144t-179 -61q-22 0 -58 9q-32 8 -71 25q-38 17 -60 33q-24 18 -24 34 q0 22 14 63q8 24 33 92q17 46 38 100q24 60 32 83h-25q-49 -73 -108 -167q-47 -75 -97 -140q-47 -61 -96 -95q-50 -35 -111 -35q-114 0 -190 76t-76 221zM342 356q0 -69 28 -119q28 -49 74 -49q32 0 65 25q29 22 63 66q34 43 67 94q27 40 76 110l63 181q-21 34 -49 61 q-26 24 -59 46q-29 19 -61 30q-29 10 -48 10q-23 0 -37 -7q-12 -6 -30 -24q-38 -39 -66 -90q-29 -53 -48 -107q-21 -60 -29 -115q-9 -58 -9 -112zM594 1065l248 362h315l-428 -362h-135z" />
<glyph unicode="&#xe2;" d="M49 266q0 70 20 148t55 148q36 73 83 139q48 68 102 122q67 67 144 104q79 38 149 38q96 0 148 -50q51 -50 69 -120h21l67 170h277l-142 -394l-110 -421l53 -19l139 88l37 -47q-52 -83 -134 -144t-179 -61q-22 0 -58 9q-32 8 -71 25q-38 17 -60 33q-24 18 -24 34 q0 22 14 63q8 24 33 92q17 46 38 100q24 60 32 83h-25q-49 -73 -108 -167q-47 -75 -97 -140q-47 -61 -96 -95q-50 -35 -111 -35q-114 0 -190 76t-76 221zM342 356q0 -69 28 -119q28 -49 74 -49q32 0 65 25q29 22 63 66q34 43 67 94q27 40 76 110l63 181q-21 34 -49 61 q-26 24 -59 46q-29 19 -61 30q-29 10 -48 10q-23 0 -37 -7q-12 -6 -30 -24q-38 -39 -66 -90q-29 -53 -48 -107q-21 -60 -29 -115q-9 -58 -9 -112zM385 1065l248 362h295l153 -362h-139l-176 229h-4l-238 -229h-139z" />
<glyph unicode="&#xe3;" d="M49 266q0 70 20 148t55 148q36 73 83 139q48 68 102 122q67 67 144 104q79 38 149 38q96 0 148 -50q51 -50 69 -120h21l67 170h277l-142 -394l-110 -421l53 -19l139 88l37 -47q-52 -83 -134 -144t-179 -61q-22 0 -58 9q-32 8 -71 25q-38 17 -60 33q-24 18 -24 34 q0 22 14 63q8 24 33 92q17 46 38 100q24 60 32 83h-25q-49 -73 -108 -167q-47 -75 -97 -140q-47 -61 -96 -95q-50 -35 -111 -35q-114 0 -190 76t-76 221zM342 356q0 -69 28 -119q28 -49 74 -49q32 0 65 25q29 22 63 66q34 43 67 94q27 40 76 110l63 181q-21 34 -49 61 q-26 24 -59 46q-29 19 -61 30q-29 10 -48 10q-23 0 -37 -7q-12 -6 -30 -24q-38 -39 -66 -90q-29 -53 -48 -107q-21 -60 -29 -115q-9 -58 -9 -112zM342 1098q33 170 98 235q66 66 160 66q42 0 84 -22t79 -47q45 -30 72 -47q35 -21 62 -21q35 0 59 30q27 34 54 86h114 q-16 -83 -41 -144q-24 -58 -57 -93q-33 -34 -73 -49q-41 -15 -87 -15q-42 0 -85 23q-39 21 -82 48q-12 7 -74 48q-35 23 -64 23q-39 0 -55 -33q-22 -44 -41 -88h-123z" />
<glyph unicode="&#xe4;" d="M49 266q0 70 20 148t55 148q36 73 83 139q48 68 102 122q67 67 144 104q79 38 149 38q96 0 148 -50q51 -50 69 -120h21l67 170h277l-142 -394l-110 -421l53 -19l139 88l37 -47q-52 -83 -134 -144t-179 -61q-22 0 -58 9q-32 8 -71 25q-38 17 -60 33q-24 18 -24 34 q0 22 14 63q8 24 33 92q17 46 38 100q24 60 32 83h-25q-49 -73 -108 -167q-47 -75 -97 -140q-47 -61 -96 -95q-50 -35 -111 -35q-114 0 -190 76t-76 221zM342 356q0 -69 28 -119q28 -49 74 -49q32 0 65 25q29 22 63 66q34 43 67 94q27 40 76 110l63 181q-21 34 -49 61 q-26 24 -59 46q-29 19 -61 30q-29 10 -48 10q-23 0 -37 -7q-12 -6 -30 -24q-38 -39 -66 -90q-29 -53 -48 -107q-21 -60 -29 -115q-9 -58 -9 -112zM352 1239q0 65 40 111q41 47 110 47t107 -47t38 -111q0 -63 -38 -109q-37 -45 -107 -45t-110 45q-40 44 -40 109zM823 1239 q0 64 38 111t108 47q69 0 107 -47t38 -111q0 -63 -38 -109q-38 -45 -107 -45q-70 0 -108 45q-38 46 -38 109z" />
<glyph unicode="&#xe5;" d="M49 266q0 70 20 148t55 148q36 73 83 139q48 68 102 122q67 67 144 104q79 38 149 38q96 0 148 -50q51 -50 69 -120h21l67 170h277l-142 -394l-110 -421l53 -19l139 88l37 -47q-52 -83 -134 -144t-179 -61q-22 0 -58 9q-32 8 -71 25q-38 17 -60 33q-24 18 -24 34 q0 22 14 63q8 24 33 92q17 46 38 100q24 60 32 83h-25q-49 -73 -108 -167q-47 -75 -97 -140q-47 -61 -96 -95q-50 -35 -111 -35q-114 0 -190 76t-76 221zM342 356q0 -69 28 -119q28 -49 74 -49q32 0 65 25q29 22 63 66q34 43 67 94q27 40 76 110l63 181q-21 34 -49 61 q-26 24 -59 46q-29 19 -61 30q-29 10 -48 10q-23 0 -37 -7q-12 -6 -30 -24q-38 -39 -66 -90q-29 -53 -48 -107q-21 -60 -29 -115q-9 -58 -9 -112zM553 1268q1 44 17 86q15 40 44 71q31 33 70 50q40 18 92 18t92 -18t69 -50q28 -32 43 -71q15 -40 15 -86t-15 -86 q-15 -41 -43 -72t-69 -49q-43 -19 -92 -19t-92 19q-40 18 -71 49q-29 29 -45 72q-15 41 -15 86zM635 1268q0 -58 38 -102t103 -44q66 0 104 44t38 102q0 56 -38 103q-37 46 -104 46q-66 0 -103 -46q-38 -47 -38 -103z" />
<glyph unicode="&#xe6;" horiz-adv-x="1574" d="M49 266q0 70 20 148t55 148q36 73 83 139q48 68 102 122q67 67 144 104q79 38 149 38q96 0 149 -55q51 -52 66 -183q88 109 203 176q112 66 254 66q145 0 215 -61t70 -152q0 -53 -38 -97q-34 -40 -112 -89q-63 -40 -182 -101q-126 -65 -252 -133v-4q0 -37 12 -70 q12 -32 36 -58q26 -27 57 -41q37 -16 75 -16q21 0 100 44q61 34 179 108l39 -49q-31 -46 -78 -98q-47 -51 -101 -91q-57 -42 -120 -66q-67 -26 -140 -26q-89 0 -155 27q-65 27 -111 74q-45 46 -69 110q-22 58 -27 137v9q-52 -82 -78 -124q-39 -63 -82 -115t-91 -85t-106 -33 q-114 0 -190 76t-76 221zM342 356q0 -69 28 -119q28 -49 74 -49q34 0 68 39q33 38 72 98q23 35 73 128q42 78 76 131l45 80q-21 34 -49 61q-26 24 -59 46q-29 19 -61 30q-29 10 -48 10q-23 0 -37 -7q-12 -6 -30 -24q-38 -39 -66 -90q-29 -53 -48 -107q-21 -60 -29 -115 q-9 -58 -9 -112zM967 420h10q90 54 131 80q63 39 102 73q43 37 67 76q23 37 23 84q0 24 -14 41q-15 18 -36 33q-16 12 -46 21q-26 8 -43 8q-18 0 -34 -6q-10 -4 -19 -13q-18 -19 -41 -59q-24 -43 -44 -96q-24 -63 -37 -118q-14 -60 -19 -124z" />
<glyph unicode="&#xe7;" horiz-adv-x="958" d="M53 338q0 110 48 223q48 112 131 203q81 89 195 147q113 58 241 58q57 0 111 -17q51 -16 91 -47q39 -30 62 -75q22 -43 22 -97q0 -81 -49 -131q-49 -51 -110 -51q-38 0 -63 13t-42 35q-15 19 -23 47q-8 27 -8 50q0 20 10 52q10 31 23 51q-34 17 -78 24q-46 8 -75 8 q-15 0 -31 -16q-22 -22 -48 -67q-25 -43 -51 -108q-23 -56 -40 -131q-17 -73 -17 -140q0 -99 49 -160q50 -62 134 -62q21 0 100 44q52 29 178 108l39 -49q-27 -39 -70 -87q-41 -46 -86 -82q-49 -40 -101 -67q-54 -28 -116 -39l-94 -79q126 -11 198 -57t72 -130 q0 -61 -39 -111q-40 -50 -107 -87q-71 -39 -163 -59t-205 -25l-14 61q167 18 256 61q90 43 90 99q0 100 -158 100q-45 0 -81 -3q-37 -3 -74 -13l4 57l201 182q-156 17 -234 118q-78 102 -78 249z" />
<glyph unicode="&#xe8;" horiz-adv-x="954" d="M53 338q0 112 46 223q47 114 127 203q81 90 191 147q111 58 236 58q145 0 215 -61t70 -152q0 -53 -38 -97q-34 -40 -112 -89q-63 -40 -182 -101q-126 -65 -252 -133v-4q0 -34 13 -70q12 -34 35 -58q25 -27 58 -41q37 -16 75 -16q21 0 100 44q52 29 178 108l39 -49 q-30 -46 -78 -98q-49 -54 -100 -91q-56 -41 -121 -66q-67 -26 -139 -26q-93 0 -163 29t-113 78t-64 117q-21 67 -21 145zM272 1427h316l149 -362h-139zM346 420h10q90 54 131 80q67 42 103 73q41 35 66 76q24 39 24 84q0 24 -14 41q-15 18 -36 33q-16 12 -46 21q-26 8 -43 8 q-18 0 -34 -6q-11 -4 -20 -13q-18 -19 -41 -59q-24 -43 -44 -96q-21 -56 -36 -118q-16 -66 -20 -124z" />
<glyph unicode="&#xe9;" horiz-adv-x="954" d="M53 338q0 112 46 223q47 114 127 203q81 90 191 147q111 58 236 58q145 0 215 -61t70 -152q0 -53 -38 -97q-34 -40 -112 -89q-63 -40 -182 -101q-126 -65 -252 -133v-4q0 -34 13 -70q12 -34 35 -58q25 -27 58 -41q37 -16 75 -16q21 0 100 44q52 29 178 108l39 -49 q-30 -46 -78 -98q-49 -54 -100 -91q-56 -41 -121 -66q-67 -26 -139 -26q-93 0 -163 29t-113 78t-64 117q-21 67 -21 145zM346 420h10q90 54 131 80q67 42 103 73q41 35 66 76q24 39 24 84q0 24 -14 41q-15 18 -36 33q-16 12 -46 21q-26 8 -43 8q-18 0 -34 -6q-11 -4 -20 -13 q-18 -19 -41 -59q-24 -43 -44 -96q-21 -56 -36 -118q-16 -66 -20 -124zM475 1065l248 362h315l-428 -362h-135z" />
<glyph unicode="&#xea;" horiz-adv-x="954" d="M53 338q0 112 46 223q47 114 127 203q81 90 191 147q111 58 236 58q145 0 215 -61t70 -152q0 -53 -38 -97q-34 -40 -112 -89q-63 -40 -182 -101q-126 -65 -252 -133v-4q0 -34 13 -70q12 -34 35 -58q25 -27 58 -41q37 -16 75 -16q21 0 100 44q52 29 178 108l39 -49 q-30 -46 -78 -98q-49 -54 -100 -91q-56 -41 -121 -66q-67 -26 -139 -26q-93 0 -163 29t-113 78t-64 117q-21 67 -21 145zM225 1065l248 362h295l154 -362h-140l-176 229h-4l-237 -229h-140zM346 420h10q90 54 131 80q67 42 103 73q41 35 66 76q24 39 24 84q0 24 -14 41 q-15 18 -36 33q-16 12 -46 21q-26 8 -43 8q-18 0 -34 -6q-11 -4 -20 -13q-18 -19 -41 -59q-24 -43 -44 -96q-21 -56 -36 -118q-16 -66 -20 -124z" />
<glyph unicode="&#xeb;" horiz-adv-x="954" d="M53 338q0 112 46 223q47 114 127 203q81 90 191 147q111 58 236 58q145 0 215 -61t70 -152q0 -53 -38 -97q-34 -40 -112 -89q-63 -40 -182 -101q-126 -65 -252 -133v-4q0 -34 13 -70q12 -34 35 -58q25 -27 58 -41q37 -16 75 -16q21 0 100 44q52 29 178 108l39 -49 q-30 -46 -78 -98q-49 -54 -100 -91q-56 -41 -121 -66q-67 -26 -139 -26q-93 0 -163 29t-113 78t-64 117q-21 67 -21 145zM233 1239q0 65 40 111q41 47 110 47t107 -47t38 -111q0 -63 -38 -109q-38 -45 -107 -45t-110 45q-40 44 -40 109zM346 420h10q90 54 131 80 q67 42 103 73q41 35 66 76q24 39 24 84q0 24 -14 41q-15 18 -36 33q-16 12 -46 21q-26 8 -43 8q-18 0 -34 -6q-11 -4 -20 -13q-18 -19 -41 -59q-24 -43 -44 -96q-21 -56 -36 -118q-16 -66 -20 -124zM705 1239q0 65 37 111q38 47 108 47q69 0 107 -47t38 -111q0 -63 -38 -109 q-38 -45 -107 -45q-70 0 -108 45q-37 44 -37 109z" />
<glyph unicode="&#xec;" horiz-adv-x="628" d="M31 711q18 38 48 89q26 45 62 84q33 36 77 61q42 24 91 24q23 0 66 -12q54 -15 85 -26q35 -13 71 -34q31 -18 26 -31l-201 -716l54 -19l139 88l37 -47q-52 -84 -132 -144q-81 -61 -178 -61q-26 0 -60 11q-45 14 -73 29q-41 21 -59 35q-24 18 -23 30l191 704l-64 17 l-110 -134zM47 1427h315l150 -362h-139z" />
<glyph unicode="&#xed;" horiz-adv-x="628" d="M31 711q18 38 48 89q26 45 62 84q33 36 77 61q42 24 91 24q23 0 66 -12q54 -15 85 -26q35 -13 71 -34q31 -18 26 -31l-201 -716l54 -19l139 88l37 -47q-52 -84 -132 -144q-81 -61 -178 -61q-26 0 -60 11q-45 14 -73 29q-41 21 -59 35q-24 18 -23 30l191 704l-64 17 l-110 -134zM229 1065l248 362h316l-428 -362h-136z" />
<glyph unicode="&#xee;" horiz-adv-x="628" d="M31 711q18 38 48 89q26 45 62 84q33 36 77 61q42 24 91 24q23 0 66 -12q54 -15 85 -26q35 -13 71 -34q31 -18 26 -31l-201 -716l54 -19l139 88l37 -47q-52 -84 -132 -144q-81 -61 -178 -61q-26 0 -60 11q-45 14 -73 29q-41 21 -59 35q-24 18 -23 30l191 704l-64 17 l-110 -134zM41 1065l248 362h295l153 -362h-139l-176 229h-4l-238 -229h-139z" />
<glyph unicode="&#xef;" horiz-adv-x="628" d="M31 711q18 38 48 89q26 45 62 84q33 36 77 61q42 24 91 24q23 0 66 -12q54 -15 85 -26q35 -13 71 -34q31 -18 26 -31l-201 -716l54 -19l139 88l37 -47q-52 -84 -132 -144q-81 -61 -178 -61q-26 0 -60 11q-45 14 -73 29q-41 21 -59 35q-24 18 -23 30l191 704l-64 17 l-110 -134zM49 1239q0 65 40 111q41 47 110 47t107 -47t38 -111q0 -63 -38 -109q-37 -45 -107 -45q-69 0 -110 45q-40 44 -40 109zM520 1239q0 64 38 111t108 47q69 0 107 -47t38 -111q0 -63 -38 -109q-37 -45 -107 -45t-108 45q-38 46 -38 109z" />
<glyph unicode="&#xf0;" horiz-adv-x="1069" d="M61 399q0 114 40 216q41 105 109 182q69 78 161 125t196 47q100 0 162 -54q-16 59 -39 112t-63 103l-301 -59l24 107l193 36q-68 57 -166 101l59 78q168 -52 293 -142l264 52l-26 -105l-138 -27q103 -101 154 -220q54 -124 55 -265q0 -151 -44 -283q-43 -129 -121 -227 q-75 -95 -179 -151q-103 -56 -219 -56q-93 0 -171 32t-131 88q-55 58 -83 136q-29 81 -29 174zM350 283q0 -89 32 -139t89 -50q39 0 74 30q35 31 62 81q28 54 50 117q21 62 37 135q14 66 19 106q6 51 6 92q0 90 -32 140q-31 49 -89 49q-40 0 -74 -30q-35 -30 -62 -80 q-28 -52 -50 -114q-21 -60 -37 -137q-14 -68 -19 -108q-6 -51 -6 -92z" />
<glyph unicode="&#xf1;" horiz-adv-x="1212" d="M25 711q18 38 48 89q26 45 62 84q33 36 77 61q42 24 91 24q23 0 64 -6q39 -6 80 -18q49 -15 70 -25q30 -15 30 -31q0 -31 -12 -91q-10 -50 -29 -126q-15 -59 -33 -122q-12 -41 -22 -79h24q35 82 49 112q18 40 55 111q26 51 55 99q26 43 54 71q44 44 107 74q65 31 129 31 q103 0 160 -51t57 -132q0 -79 -34 -184q-51 -157 -71 -215l-88 -237l53 -19l140 88l37 -47q-52 -84 -132 -144q-81 -61 -178 -61q-24 0 -58 10t-71 26q-36 16 -59 33q-25 19 -25 34q0 30 32 126q43 129 91 267q21 61 40 125q18 60 18 94q0 28 -30 43q-28 14 -65 14 q-28 0 -54 -22q-29 -24 -58 -72q-36 -60 -70 -126q-36 -70 -90 -185l-78 -334l-328 -10l80 311l99 475l-60 17l-110 -134zM311 1098q33 169 99 235t159 66q42 0 84 -22t79 -47q45 -30 72 -47q34 -21 62 -21q36 0 60 30q25 31 53 86h115q-16 -83 -41 -144q-23 -57 -58 -93 q-33 -35 -72 -49q-41 -15 -87 -15q-42 0 -85 23q-39 21 -82 48q-41 26 -75 48q-35 23 -64 23q-38 0 -55 -33q-22 -44 -41 -88h-123z" />
<glyph unicode="&#xf2;" horiz-adv-x="1069" d="M61 399q0 114 40 216q41 105 112 182q74 80 170 125q100 47 215 47q94 0 172 -32q76 -31 128 -88q53 -58 81 -135q29 -81 29 -175q0 -113 -39 -216t-110 -182q-72 -79 -169 -125q-100 -47 -215 -47q-93 0 -171 32t-131 88q-55 58 -83 136q-29 81 -29 174zM268 1427h316 l149 -362h-139zM350 283q0 -89 32 -139t89 -50q39 0 74 30q35 31 62 81q28 54 50 117q21 62 37 135q14 66 19 106q6 51 6 92q0 90 -32 140q-31 49 -89 49q-40 0 -74 -30q-35 -30 -62 -80q-28 -52 -50 -114q-21 -60 -37 -137q-14 -68 -19 -108q-6 -51 -6 -92z" />
<glyph unicode="&#xf3;" horiz-adv-x="1069" d="M61 399q0 114 40 216q41 105 112 182q74 80 170 125q100 47 215 47q94 0 172 -32q76 -31 128 -88q53 -58 81 -135q29 -81 29 -175q0 -113 -39 -216t-110 -182q-72 -79 -169 -125q-100 -47 -215 -47q-93 0 -171 32t-131 88q-55 58 -83 136q-29 81 -29 174zM350 283 q0 -89 32 -139t89 -50q39 0 74 30q35 31 62 81q28 54 50 117q21 62 37 135q14 66 19 106q6 51 6 92q0 90 -32 140q-31 49 -89 49q-40 0 -74 -30q-35 -30 -62 -80q-28 -52 -50 -114q-21 -60 -37 -137q-14 -68 -19 -108q-6 -51 -6 -92zM532 1065l248 362h316l-428 -362h-136z " />
<glyph unicode="&#xf4;" horiz-adv-x="1069" d="M61 399q0 114 40 216q41 105 112 182q74 80 170 125q100 47 215 47q94 0 172 -32q76 -31 128 -88q53 -58 81 -135q29 -81 29 -175q0 -113 -39 -216t-110 -182q-72 -79 -169 -125q-100 -47 -215 -47q-93 0 -171 32t-131 88q-55 58 -83 136q-29 81 -29 174zM283 1065 l247 362h295l154 -362h-139l-176 229h-5l-237 -229h-139zM350 283q0 -89 32 -139t89 -50q39 0 74 30q35 31 62 81q28 54 50 117q21 62 37 135q14 66 19 106q6 51 6 92q0 90 -32 140q-31 49 -89 49q-40 0 -74 -30q-35 -30 -62 -80q-28 -52 -50 -114q-21 -60 -37 -137 q-14 -68 -19 -108q-6 -51 -6 -92z" />
<glyph unicode="&#xf5;" horiz-adv-x="1069" d="M61 399q0 114 40 216q41 105 112 182q74 80 170 125q100 47 215 47q94 0 172 -32q76 -31 128 -88q53 -58 81 -135q29 -81 29 -175q0 -113 -39 -216t-110 -182q-72 -79 -169 -125q-100 -47 -215 -47q-93 0 -171 32t-131 88q-55 58 -83 136q-29 81 -29 174zM276 1098 q33 169 99 235t160 66q41 0 83 -22t79 -47q45 -30 72 -47q35 -21 62 -21q36 0 60 30q25 31 53 86h115q-16 -83 -41 -144q-24 -58 -57 -93q-33 -34 -73 -49t-87 -15q-42 0 -85 23q-39 21 -82 48q-40 26 -75 48q-35 23 -63 23q-40 0 -56 -33q-22 -44 -41 -88h-123zM350 283 q0 -89 32 -139t89 -50q39 0 74 30q35 31 62 81q28 54 50 117q21 62 37 135q14 66 19 106q6 51 6 92q0 90 -32 140q-31 49 -89 49q-40 0 -74 -30q-35 -30 -62 -80q-28 -52 -50 -114q-21 -60 -37 -137q-14 -68 -19 -108q-6 -51 -6 -92z" />
<glyph unicode="&#xf6;" horiz-adv-x="1069" d="M61 399q0 114 40 216q41 105 112 182q74 80 170 125q100 47 215 47q94 0 172 -32q76 -31 128 -88q53 -58 81 -135q29 -81 29 -175q0 -113 -39 -216t-110 -182q-72 -79 -169 -125q-100 -47 -215 -47q-93 0 -171 32t-131 88q-55 58 -83 136q-29 81 -29 174zM291 1239 q0 65 40 111q41 47 109 47q70 0 108 -47t38 -111q0 -63 -38 -109q-37 -45 -108 -45q-68 0 -109 45q-40 44 -40 109zM350 283q0 -89 32 -139t89 -50q39 0 74 30q35 31 62 81q28 54 50 117q21 62 37 135q14 66 19 106q6 51 6 92q0 90 -32 140q-31 49 -89 49q-40 0 -74 -30 q-35 -30 -62 -80q-28 -52 -50 -114q-21 -60 -37 -137q-14 -68 -19 -108q-6 -51 -6 -92zM762 1239q0 64 38 111t107 47q70 0 108 -47t38 -111q0 -63 -38 -109q-37 -45 -108 -45q-69 0 -107 45q-38 46 -38 109z" />
<glyph unicode="&#xf7;" horiz-adv-x="995" d="M84 426l6 111h817l6 -111h-829zM395 193q0 41 30 72q30 32 77 32t76 -32q28 -31 28 -72q0 -42 -28 -74q-28 -33 -76 -33q-47 0 -77 33t-30 74zM395 766q0 40 29 74q28 32 76 32t77 -32t29 -74t-29 -74q-30 -33 -77 -33t-76 33q-29 34 -29 74z" />
<glyph unicode="&#xf8;" horiz-adv-x="1069" d="M61 399q0 114 40 216q41 105 112 182q74 80 170 125q100 47 215 47q87 0 162 -29l164 285h96l-186 -322q87 -53 130 -147q44 -96 44 -217q0 -113 -39 -216t-110 -182q-72 -79 -169 -125q-100 -47 -215 -47q-88 0 -166 29l-151 -262h-95q57 95 87 149q7 11 18.5 32 t12.5 24q6 10 15.5 26.5t12.5 21.5q3 6 9.5 18t9.5 16l8 12q-86 57 -130 149q-45 94 -45 215zM340 283q0 -21 1 -31q1 -5 2 -14.5t1 -14.5l342 590q-35 41 -88 41q-38 0 -75 -31q-34 -28 -66 -81q-33 -55 -54 -116q-19 -55 -38 -141q-14 -68 -19 -109q-6 -52 -6 -93z M383 125q35 -41 88 -41q40 0 76 31q34 30 65 82q33 55 55 117q21 58 38 141q12 57 18 107q6 52 6 93q0 21 -1 31q0 5 -1 14.5t-2 14.5z" />
<glyph unicode="&#xf9;" horiz-adv-x="1212" d="M47 711q18 38 48 89q24 42 63 84q34 37 76 61t92 24q21 0 61 -17q37 -16 76 -39q38 -23 64 -46q28 -25 28 -40t-6 -40t-21 -66l-35 -100q-49 -140 -51 -146q-28 -83 -38 -115q-15 -50 -15 -84q0 -28 28 -53q27 -24 62 -24q30 0 56 22q25 21 59 72q35 53 74 126 q32 60 96 185l88 336l328 10l-101 -311l-104 -500l53 -18l129 88l37 -47q-52 -83 -129 -139t-174 -56q-24 0 -58 10t-71 26q-33 15 -61 34q-25 18 -25 35q0 35 14 92q14 58 33 124q15 54 36 114t23 65h-24q-27 -53 -56 -112q-28 -59 -57 -111q-34 -63 -57 -99 q-26 -41 -56 -71q-45 -45 -106 -74q-65 -31 -129 -31q-105 0 -159 62q-54 61 -54 141q0 75 32 176q37 115 68 203q22 62 26 72q5 14 13.5 38t12.5 35q5 14 14 41t14 39l-59 17l-111 -134zM340 1427h315l150 -362h-139z" />
<glyph unicode="&#xfa;" horiz-adv-x="1212" d="M47 711q18 38 48 89q24 42 63 84q34 37 76 61t92 24q21 0 61 -17q37 -16 76 -39q38 -23 64 -46q28 -25 28 -40t-6 -40t-21 -66l-35 -100q-49 -140 -51 -146q-28 -83 -38 -115q-15 -50 -15 -84q0 -28 28 -53q27 -24 62 -24q30 0 56 22q25 21 59 72q35 53 74 126 q32 60 96 185l88 336l328 10l-101 -311l-104 -500l53 -18l129 88l37 -47q-52 -83 -129 -139t-174 -56q-24 0 -58 10t-71 26q-33 15 -61 34q-25 18 -25 35q0 35 14 92q14 58 33 124q15 54 36 114t23 65h-24q-27 -53 -56 -112q-28 -59 -57 -111q-34 -63 -57 -99 q-26 -41 -56 -71q-45 -45 -106 -74q-65 -31 -129 -31q-105 0 -159 62q-54 61 -54 141q0 75 32 176q37 115 68 203q22 62 26 72q5 14 13.5 38t12.5 35q5 14 14 41t14 39l-59 17l-111 -134zM563 1065l248 362h315l-428 -362h-135z" />
<glyph unicode="&#xfb;" horiz-adv-x="1212" d="M47 711q18 38 48 89q24 42 63 84q34 37 76 61t92 24q21 0 61 -17q37 -16 76 -39q38 -23 64 -46q28 -25 28 -40t-6 -40t-21 -66l-35 -100q-49 -140 -51 -146q-28 -83 -38 -115q-15 -50 -15 -84q0 -28 28 -53q27 -24 62 -24q30 0 56 22q25 21 59 72q35 53 74 126 q32 60 96 185l88 336l328 10l-101 -311l-104 -500l53 -18l129 88l37 -47q-52 -83 -129 -139t-174 -56q-24 0 -58 10t-71 26q-33 15 -61 34q-25 18 -25 35q0 35 14 92q14 58 33 124q15 54 36 114t23 65h-24q-27 -53 -56 -112q-28 -59 -57 -111q-34 -63 -57 -99 q-26 -41 -56 -71q-45 -45 -106 -74q-65 -31 -129 -31q-105 0 -159 62q-54 61 -54 141q0 75 32 176q37 115 68 203q22 62 26 72q5 14 13.5 38t12.5 35q5 14 14 41t14 39l-59 17l-111 -134zM354 1065l248 362h295l154 -362h-140l-176 229h-4l-237 -229h-140z" />
<glyph unicode="&#xfc;" horiz-adv-x="1212" d="M47 711q18 38 48 89q24 42 63 84q34 37 76 61t92 24q21 0 61 -17q37 -16 76 -39q38 -23 64 -46q28 -25 28 -40t-6 -40t-21 -66l-35 -100q-49 -140 -51 -146q-28 -83 -38 -115q-15 -50 -15 -84q0 -28 28 -53q27 -24 62 -24q30 0 56 22q25 21 59 72q35 53 74 126 q32 60 96 185l88 336l328 10l-101 -311l-104 -500l53 -18l129 88l37 -47q-52 -83 -129 -139t-174 -56q-24 0 -58 10t-71 26q-33 15 -61 34q-25 18 -25 35q0 35 14 92q14 58 33 124q15 54 36 114t23 65h-24q-27 -53 -56 -112q-28 -59 -57 -111q-34 -63 -57 -99 q-26 -41 -56 -71q-45 -45 -106 -74q-65 -31 -129 -31q-105 0 -159 62q-54 61 -54 141q0 75 32 176q37 115 68 203q22 62 26 72q5 14 13.5 38t12.5 35q5 14 14 41t14 39l-59 17l-111 -134zM342 1239q0 65 40 111q41 47 110 47t107 -47t38 -111q0 -63 -38 -109 q-37 -45 -107 -45t-110 45q-40 44 -40 109zM813 1239q0 64 38 111t107 47q70 0 108 -47t38 -111q0 -63 -38 -109q-38 -45 -108 -45t-107 45q-38 46 -38 109z" />
<glyph unicode="&#xfd;" horiz-adv-x="1071" d="M-113 -307q0 64 37 101q38 38 92 38q76 0 118 -52t42 -140l37 -11l242 297l-179 54l-59 796l-59 17l-107 -134l-47 52q18 38 48 89q24 42 63 84q34 37 76 61t92 24q17 0 62 -10q46 -10 78 -23q36 -14 67 -33q30 -18 30 -35l-2 -776h31l291 529v30q-66 24 -95 68 q-28 43 -28 78q0 73 48 123q48 49 122 49t132 -49t58 -138q0 -50 -24 -113q-20 -54 -66 -133q-41 -70 -96 -147q-53 -73 -115 -149l-168 -209l-106 -230q-72 -157 -162 -231q-91 -74 -211 -74q-47 0 -91 15q-48 17 -78 40q-33 26 -53 63t-20 79zM532 1065l248 362h316 l-428 -362h-136z" />
<glyph unicode="&#xfe;" horiz-adv-x="1161" d="M-172 -504l6 88l80 23q26 8 34 19t13 30l315 1452q16 72 -34 94l-107 51l17 66l491 108l-119 -462l-100 -394h27q51 107 96 183q46 78 91 123q47 47 97 69q52 23 113 23q114 0 190 -76t76 -221q0 -76 -17 -148q-18 -78 -49 -148q-32 -73 -77 -139t-101 -122 q-66 -65 -142 -106q-76 -40 -144 -40q-71 0 -127 37q-59 39 -92 96h-21l-94 -446q-6 -37 47 -49l131 -23l6 -88h-606zM375 233q22 -35 50 -60q32 -29 60 -47q29 -19 61 -30q29 -10 48 -10q23 0 37 7t31 24q34 36 66 96q27 51 50 122q19 58 32 130q11 60 11 117q0 71 -27 119 q-28 49 -75 49q-28 0 -62 -29q-28 -24 -68 -76q-37 -48 -74 -107q-25 -40 -77 -124z" />
<glyph unicode="&#xff;" horiz-adv-x="1071" d="M-113 -307q0 64 37 101q38 38 92 38q76 0 118 -52t42 -140l37 -11l242 297l-179 54l-59 796l-59 17l-107 -134l-47 52q18 38 48 89q24 42 63 84q34 37 76 61t92 24q17 0 62 -10q46 -10 78 -23q36 -14 67 -33q30 -18 30 -35l-2 -776h31l291 529v30q-66 24 -95 68 q-28 43 -28 78q0 73 48 123q48 49 122 49t132 -49t58 -138q0 -50 -24 -113q-20 -54 -66 -133q-41 -70 -96 -147q-53 -73 -115 -149l-168 -209l-106 -230q-72 -157 -162 -231q-91 -74 -211 -74q-47 0 -91 15q-48 17 -78 40q-33 26 -53 63t-20 79zM291 1239q0 65 40 111 q41 47 109 47q70 0 108 -47t38 -111q0 -63 -38 -109q-37 -45 -108 -45q-68 0 -109 45q-40 44 -40 109zM762 1239q0 64 38 111t107 47q70 0 108 -47t38 -111q0 -63 -38 -109q-37 -45 -108 -45q-69 0 -107 45q-38 46 -38 109z" />
<glyph unicode="&#x152;" horiz-adv-x="2111" d="M96 575q0 149 52 266t163 228q94 94 254 153q158 58 350 58h1184l-59 -461h-182l-21 142q-10 75 -31 118q-22 45 -62 65q-42 21 -108 27q-77 7 -168 7h-98l-67 -484h32q52 0 105 16q50 15 78 70l71 142h131l-123 -549h-129l-6 129q-2 51 -31 69q-32 19 -120 19h-25 l-63 -488h127q94 0 164 8q71 8 114 29q48 23 82 66q37 47 70 117l57 112h184l-98 -434h-1143q-170 0 -298 42q-130 43 -214 118q-86 77 -129 182t-43 233zM471 582q0 -229 89 -353q88 -123 263 -123h54l143 1041l-135 31q-85 -6 -160 -46t-132 -115q-56 -73 -89 -184 q-33 -109 -33 -251z" />
<glyph unicode="&#x153;" horiz-adv-x="1585" d="M61 399q0 114 40 216q41 105 112 182q74 80 170 125q100 47 215 47t192 -44q75 -42 119 -122q66 73 159 120q92 46 216 46q145 0 215 -61t70 -152q0 -53 -38 -97q-34 -40 -112 -89q-63 -40 -182 -101q-126 -65 -252 -133v-4q0 -37 12 -70q12 -32 36 -58q25 -27 58 -41 q37 -16 74 -16q22 0 101 44q52 29 178 108l39 -49q-31 -46 -78 -98q-49 -54 -100 -91q-56 -41 -121 -66q-67 -26 -140 -26q-103 0 -166 36q-64 37 -98 97q-58 -58 -136 -96q-75 -37 -169 -37q-93 0 -171 32t-131 88q-55 58 -83 136q-29 81 -29 174zM350 283q0 -89 32 -139 t89 -50q39 0 74 30q35 31 62 81q28 54 50 117q21 62 37 135q14 66 19 106q6 51 6 92q0 90 -32 140q-31 49 -89 49q-40 0 -74 -30q-35 -30 -62 -80q-28 -52 -50 -114q-21 -60 -37 -137q-14 -68 -19 -108q-6 -51 -6 -92zM977 420h10q90 54 131 80q67 42 103 73q41 35 66 76 q24 39 24 84q0 23 -15 41q-16 20 -35 33q-16 11 -47 21q-26 8 -43 8t-33 -6q-11 -4 -20 -13q-18 -19 -41 -59q-24 -43 -44 -96q-24 -63 -37 -118q-14 -60 -19 -124z" />
<glyph unicode="&#x178;" horiz-adv-x="1230" d="M51 1280h645l-6 -94l-78 -12q-59 -10 -56 -66q3 -54 44 -174l111 -316h20l180 261q58 86 81 131q27 53 32 88q4 34 -12 52t-51 24l-56 12l-6 94h469l-6 -94l-43 -15q-28 -7 -47 -17q-24 -13 -52 -41q-30 -30 -72 -84q-37 -48 -108 -146l-252 -355l-47 -366q-6 -38 41 -49 l101 -23l-9 -90h-659l18 90l109 23q47 8 53 49l45 342l-254 581q-18 39 -36 57q-15 15 -48 27l-45 17zM412 1581q0 65 40 111q41 47 109 47q70 0 108 -47t38 -111q0 -62 -38 -108t-108 -46q-68 0 -109 46q-40 44 -40 108zM883 1581q0 64 38 111t107 47q70 0 108 -47t38 -111 q0 -62 -38 -108t-108 -46q-69 0 -107 46t-38 108z" />
<glyph unicode="&#x2c6;" horiz-adv-x="819" d="M117 1065l248 362h294l154 -362h-139l-176 229h-4l-238 -229h-139z" />
<glyph unicode="&#x2dc;" horiz-adv-x="819" d="M94 1098q33 169 99 235t159 66q42 0 84 -22t79 -47q45 -30 72 -47q35 -21 62 -21q36 0 60 30q25 31 53 86h115q-16 -83 -41 -144q-23 -57 -58 -93q-33 -35 -72 -49q-40 -15 -88 -15q-41 0 -84 23q-39 21 -82 48q-40 26 -75 48q-35 23 -64 23q-39 0 -55 -33 q-22 -44 -41 -88h-123z" />
<glyph unicode="&#x2000;" horiz-adv-x="884" />
<glyph unicode="&#x2001;" horiz-adv-x="1769" />
<glyph unicode="&#x2002;" horiz-adv-x="884" />
<glyph unicode="&#x2003;" horiz-adv-x="1769" />
<glyph unicode="&#x2004;" horiz-adv-x="589" />
<glyph unicode="&#x2005;" horiz-adv-x="442" />
<glyph unicode="&#x2006;" horiz-adv-x="294" />
<glyph unicode="&#x2007;" horiz-adv-x="294" />
<glyph unicode="&#x2008;" horiz-adv-x="221" />
<glyph unicode="&#x2009;" horiz-adv-x="353" />
<glyph unicode="&#x200a;" horiz-adv-x="98" />
<glyph unicode="&#x2010;" horiz-adv-x="692" d="M68 453l6 137h549l6 -137h-561z" />
<glyph unicode="&#x2011;" horiz-adv-x="692" d="M68 453l6 137h549l6 -137h-561z" />
<glyph unicode="&#x2012;" horiz-adv-x="692" d="M68 453l6 137h549l6 -137h-561z" />
<glyph unicode="&#x2013;" horiz-adv-x="962" d="M68 453l6 137h819l6 -137h-831z" />
<glyph unicode="&#x2014;" horiz-adv-x="1925" d="M68 453l6 137h1781l7 -137h-1794z" />
<glyph unicode="&#x2018;" horiz-adv-x="516" d="M98 881q0 61 31 126q28 60 86 122q60 65 134 115q90 61 173 102l51 -60q-108 -64 -173 -139q-66 -77 -66 -148q0 -44 22 -78q22 -33 48 -58q24 -23 49 -36q22 -12 22 -14q0 -27 -13 -53q-14 -28 -37 -48q-25 -22 -54 -35t-68 -13q-49 0 -88 18q-37 17 -64 49 q-25 29 -39 70q-14 40 -14 80z" />
<glyph unicode="&#x2019;" horiz-adv-x="516" d="M88 727q108 64 173 139q67 78 67 148q0 44 -23 79q-20 31 -48 57q-25 24 -48 36t-23 14q0 25 14 53q15 30 37 49q23 20 54 34t67 14q47 0 88 -19q38 -18 65 -49q25 -29 39 -70q13 -38 13 -79q0 -61 -31 -126q-29 -62 -86 -123q-59 -64 -133 -115q-80 -56 -174 -101z" />
<glyph unicode="&#x201a;" horiz-adv-x="516" d="M-92 -297q108 64 173 139q66 76 66 148q0 45 -22 79q-20 31 -48 57q-25 24 -48 36t-23 14q0 27 13 53q15 30 37 49t55 34q31 14 67 14q47 0 88 -19q38 -18 65 -49q25 -29 39 -70q13 -38 13 -79q0 -61 -31 -126q-29 -62 -86 -123q-59 -64 -133 -115q-80 -56 -174 -101z " />
<glyph unicode="&#x201c;" horiz-adv-x="985" d="M98 881q0 61 31 126q28 60 86 122q60 65 134 115q90 61 173 102l51 -60q-108 -64 -173 -139q-66 -77 -66 -148q0 -44 22 -78q22 -33 48 -58q24 -23 49 -36q22 -12 22 -14q0 -27 -13 -53q-14 -28 -37 -48q-25 -22 -54 -35t-68 -13q-49 0 -88 18q-37 17 -64 49 q-25 29 -39 70q-14 40 -14 80zM567 881q0 61 31 126q28 60 86 122q60 65 134 115q90 61 173 102l51 -60q-108 -64 -173 -139q-66 -77 -66 -148q0 -44 22 -78q22 -33 48 -58q24 -23 49 -36q22 -12 22 -14q0 -27 -13 -53q-14 -28 -37 -48q-25 -22 -54 -35t-68 -13 q-49 0 -88 18q-37 17 -64 49q-25 29 -39 70q-14 40 -14 80z" />
<glyph unicode="&#x201d;" horiz-adv-x="985" d="M88 727q108 64 173 139q67 78 67 148q0 44 -23 79q-20 31 -48 57q-25 24 -48 36t-23 14q0 25 14 53q15 30 37 49q23 20 54 34t67 14q47 0 88 -19q38 -18 65 -49q25 -29 39 -70q13 -38 13 -79q0 -61 -31 -126q-29 -62 -86 -123q-59 -64 -133 -115q-80 -56 -174 -101z M557 727q108 64 173 139q67 78 67 148q0 44 -23 79q-20 31 -48 57q-26 24 -48 36q-23 12 -23 14q0 25 14 53q15 30 37 49q23 20 54 34t67 14q47 0 88 -19q38 -18 65 -49q25 -29 39 -70q13 -38 13 -79q0 -61 -31 -126q-29 -62 -86 -123q-59 -64 -133 -115q-80 -56 -174 -101z " />
<glyph unicode="&#x201e;" horiz-adv-x="985" d="M-92 -297q108 64 173 139q66 76 66 148q0 45 -22 79q-20 31 -48 57q-25 24 -48 36t-23 14q0 27 13 53q15 30 37 49t55 34q31 14 67 14q47 0 88 -19q38 -18 65 -49q25 -29 39 -70q13 -38 13 -79q0 -61 -31 -126q-29 -62 -86 -123q-59 -64 -133 -115q-80 -56 -174 -101z M377 -297q108 64 173 139q66 77 66 148q0 45 -22 79q-20 31 -48 57q-26 24 -48 36q-23 12 -23 14q0 27 13 53q15 30 37 49t55 34q31 14 67 14q47 0 88 -19q38 -18 65 -49q25 -29 39 -70q13 -38 13 -79q0 -61 -31 -126q-29 -62 -86 -123q-59 -64 -133 -115q-80 -56 -174 -101 z" />
<glyph unicode="&#x2022;" horiz-adv-x="931" d="M72 475q0 23 12 63q8 28 31 83q16 40 39 80q24 43 34 53q16 16 54 36q27 14 80 36q44 18 84 30q41 12 61 12q21 0 62 -12q37 -11 83 -30q58 -24 81 -36q37 -19 52 -36q16 -15 36 -53q19 -37 37 -80q19 -46 30 -83q12 -40 12 -63q0 -21 -12 -62q-11 -37 -30 -83 q-20 -48 -37 -81q-19 -37 -36 -54q-13 -13 -52 -35q-31 -17 -81 -38q-44 -18 -84 -30t-63 -12q-22 0 -62 12q-41 12 -84 30t-79 38q-39 22 -52 35q-10 11 -34 54q-21 37 -39 81q-23 55 -31 83q-12 41 -12 62z" />
<glyph unicode="&#x2026;" horiz-adv-x="1425" d="M18 147q0 76 53 129q54 54 128 54q36 0 69 -15q36 -16 58 -40q24 -26 39 -58q14 -31 14 -70q0 -75 -52 -127q-53 -53 -128 -53q-76 0 -128 52q-53 53 -53 128zM494 147q0 77 52 129q54 54 128 54q36 0 69 -15q36 -16 58 -40q24 -26 39 -58q14 -31 14 -70q0 -75 -52 -127 q-53 -53 -128 -53q-76 0 -128 52t-52 128zM969 147q0 77 52 129q54 54 128 54q37 0 70 -15q34 -15 57 -40q24 -26 39 -58q14 -31 14 -70q0 -75 -52 -127q-53 -53 -128 -53q-76 0 -128 52t-52 128z" />
<glyph unicode="&#x202f;" horiz-adv-x="353" />
<glyph unicode="&#x2039;" horiz-adv-x="614" d="M37 385v143l567 328l21 -45l-375 -358l289 -342l-29 -45z" />
<glyph unicode="&#x203a;" horiz-adv-x="614" d="M20 102l342 351l-260 350l29 45l473 -320l-12 -151l-551 -320z" />
<glyph unicode="&#x205f;" horiz-adv-x="442" />
<glyph unicode="&#x20ac;" horiz-adv-x="1093" d="M27 449l6 108h114v2q5 78 19 148h-107l7 108h129q33 98 87 184q55 87 128 151q71 63 168 101q93 37 208 37q142 0 225 -51q84 -52 85 -125q0 -65 -40 -105t-95 -40q-72 0 -111 58q-39 59 -29 140q-12 7 -27 13q-21 8 -46 8q-50 0 -97 -31q-45 -30 -83 -82 q-36 -49 -67 -119q-28 -62 -50 -139h415l6 -108h-444q-3 -23 -7 -69q-3 -34 -3 -67v-14h416l6 -108h-414q21 -143 90 -219t199 -76q72 0 140 31q65 30 130 85l35 -32q-29 -61 -70 -108q-46 -53 -97 -85q-52 -33 -117 -55q-63 -21 -130 -21q-102 0 -183 36t-139 100 q-58 65 -93 153q-33 85 -41 191h-123z" />
<glyph unicode="&#x2122;" horiz-adv-x="1957" d="M109 967l16 313h735v-313h-106l-9 39q-14 66 -22 96q-11 39 -27 63q-17 25 -43 35t-69 10h-2v-585q0 -9 5 -17t19 -12l70 -12l6 -66h-401l6 66l69 12q18 5 22 12q5 8 5 17v585h-2q-39 0 -65 -12q-24 -12 -42 -37q-16 -23 -28 -63q-10 -32 -27 -92l-10 -39h-100zM915 518 l7 66l61 10q13 2 21 8q9 7 13 26q5 23 8 59q4 50 5 110l12 374q0 11 -5 19t-21 12l-70 12l-4 66h395l86 -545h21l137 545h385l-4 -66l-68 -12q-16 -4 -22 -12t-6 -19l8 -456q1 -76 12 -94t29 -23l63 -14l4 -66h-407l2 66l72 14q9 2 13 6q5 5 8 17t3 34v60l-10 475h-21 l-180 -647h-176l-131 653h-20l-15 -399q-2 -90 -2 -108q0 -39 3 -60q3 -20 8 -27q5 -6 14 -8l65 -10l6 -66h-299z" />
<glyph unicode="&#x25fc;" horiz-adv-x="972" d="M0 0v973h973v-973h-973z" />
</font>
</defs>
</svg>
