<?xml version="1.0" standalone="no"?>
<!DOCTYPE svg PUBLIC "-//W3C//DTD SVG 1.1//EN" "http://www.w3.org/Graphics/SVG/1.1/DTD/svg11.dtd" >
<svg xmlns="http://www.w3.org/2000/svg" xmlns:xlink="http://www.w3.org/1999/xlink" version="1.1">
<metadata></metadata>
<defs>
<font id="freighttextbook" horiz-adv-x="819" >
<font-face units-per-em="2048" ascent="1638" descent="-410" />
<missing-glyph horiz-adv-x="327" />
<glyph unicode="&#xfb01;" horiz-adv-x="1130" d="M25 821l12 90h149l2 52q6 102 41 189q33 81 96 146q60 62 142 96q79 33 182 33q35 0 72 -9q38 -9 66 -26q32 -19 50 -44q19 -26 19 -62q0 -40 -26 -66t-66 -26q-98 0 -125 119l-2 10l-119 23q-86 -35 -131 -125t-45 -244v-66h358l232 31v-836q0 -12 10 -19q11 -8 47 -9 l86 -8l6 -70h-438l6 70l84 8q51 2 51 31v708h-442v-711q0 -12 11 -19q12 -8 46 -9l136 -8l6 -70h-488l6 70l86 8q52 2 52 31v704z" />
<glyph unicode="&#xfb02;" horiz-adv-x="1134" d="M25 821l12 90h149l2 52q6 102 41 189q33 81 96 146q60 62 142 96q79 33 182 33q80 0 144 -38l139 38v-1321q0 -12 10 -19q11 -8 47 -9l86 -8l6 -70h-438l6 70l84 8q51 2 51 31v708h-442v-711q0 -12 11 -19q12 -8 46 -9l136 -8l6 -70h-488l6 70l86 8q52 2 52 31v704z M342 911h442v285q-8 -2 -20 -2q-98 0 -125 119l-2 10l-119 23q-86 -35 -131 -125t-45 -244v-66z" />
<glyph unicode="&#xfb03;" horiz-adv-x="1718" d="M25 821l12 90h149l2 33q11 104 46 188q34 82 94 146q55 59 130 95q71 34 154 34q73 0 125 -34q54 -35 54 -89q0 -43 -26 -67q-27 -25 -63 -25q-43 0 -77 34q-36 36 -52 93l-2 10l-51 4q-86 -35 -132 -129q-46 -93 -46 -248v-45h432l2 52q6 101 41 188q34 85 95 147 q60 61 143 96q79 33 182 33q35 0 72 -9q38 -9 66 -26q30 -18 49 -44q20 -28 20 -62q0 -40 -26 -66t-64 -26q-97 0 -127 119l-2 10l-117 23q-86 -35 -131 -125t-45 -244v-66h356l232 31v-836q0 -12 11 -19q12 -8 46 -9l86 -8l6 -70h-438l6 70l86 8q51 2 51 31v708h-442v-711 q0 -12 10 -19q11 -8 47 -9l133 -8l6 -70h-485l6 70l84 8q17 1 35 8q16 6 16 23v710h-442v-692q0 -33 37 -39l162 -18l6 -70h-494l6 70l103 18q35 6 35 39v686z" />
<glyph unicode="&#xfb04;" horiz-adv-x="1722" d="M25 821l12 90h149l2 33q11 104 46 188q34 82 94 146q55 59 130 95q71 34 154 34q73 0 125 -34q54 -35 54 -89q0 -43 -26 -67q-27 -25 -63 -25q-43 0 -77 34q-36 36 -52 93l-2 10l-51 4q-86 -35 -132 -129q-46 -93 -46 -248v-45h432l2 52q6 101 41 188q34 85 95 147 q60 61 143 96q79 33 182 33q79 0 143 -38l140 38v-1321q0 -12 11 -19q12 -8 46 -9l86 -8l6 -70h-438l6 70l86 8q51 2 51 31v708h-442v-711q0 -12 10 -19q11 -8 47 -9l133 -8l6 -70h-485l6 70l84 8q17 1 35 8q16 6 16 23v710h-442v-692q0 -33 37 -39l162 -18l6 -70h-494l6 70 l103 18q35 6 35 39v686zM932 911h442v285q-8 -2 -20 -2q-97 0 -127 119l-2 10l-117 23q-86 -35 -131 -125t-45 -244v-66z" />
<glyph horiz-adv-x="0" />
<glyph unicode="&#xd;" horiz-adv-x="327" />
<glyph unicode=" "  horiz-adv-x="327" />
<glyph unicode="&#x09;" horiz-adv-x="327" />
<glyph unicode="&#xa0;" horiz-adv-x="327" />
<glyph unicode="!" horiz-adv-x="575" d="M170 86q0 45 34 79t85 34q54 0 84 -34t30 -79q0 -48 -30 -82q-30 -35 -84 -35q-50 0 -85 35q-34 34 -34 82zM193 1233q-4 33 11 55q15 21 70 21h31q56 0 71 -21q15 -22 11 -55l-78 -827q-2 -13 -20 -13q-19 0 -21 13z" />
<glyph unicode="&#x22;" horiz-adv-x="727" d="M35 825l215 500h2l151 -53l-301 -447h-67zM356 825l215 500h2l150 -53l-299 -447h-68z" />
<glyph unicode="#" horiz-adv-x="1148" d="M-4 371v71h285l104 389h-264v72h282l107 389h74l-105 -389h357l106 389h74l-107 -389h267v-72h-285l-105 -389h267v-71h-285l-104 -383h-74l104 383h-360l-103 -383h-73l102 383h-264zM354 442h359l104 389h-356z" />
<glyph unicode="$" horiz-adv-x="1019" d="M102 387h68l94 -281q13 -7 24 -11q18 -6 29 -9l140 516q-80 32 -128 56q-62 31 -105 71t-70 97t-27 135q0 66 26 130q25 63 76 109q52 48 130 77q80 30 184 30h53q17 0 47 -2l55 206h76l-29 -106q-3 -13 -9.5 -38t-9.5 -37q-9 -34 -11 -34q6 -1 15.5 -2.5t13.5 -1.5 q14 -2 26 -6l109 31v-404h-74l-62 254q-4 2 -12.5 5.5t-13.5 5.5q-12 5 -31 10l-121 -455q73 -28 142 -59q65 -29 118 -74q54 -46 82 -104q31 -64 31 -150q0 -72 -32 -142t-91 -120q-61 -52 -145 -83q-87 -32 -195 -32q-59 0 -115 6l-84 -315h-73l86 324q-45 8 -83 19 q-46 14 -77 26zM266 1018q0 -52 19 -95q17 -39 50 -70q30 -28 74 -52t89 -41l118 448q-38 8 -56 11q-24 4 -54 4q-60 0 -105 -18q-43 -17 -74 -45q-30 -27 -45 -64q-16 -40 -16 -78zM385 66q46 -8 68 -11q28 -4 63 -2q68 0 119 21q52 21 87 52q36 31 54 74q19 44 19 87 q0 63 -22 110t-58 77q-40 34 -86 56q-49 24 -105 45l-69 -253q-10 -40 -26 -94q-11 -37 -22 -82q-3 -14 -9 -34t-7 -24z" />
<glyph unicode="%" horiz-adv-x="1527" d="M35 987q0 72 23 132q23 61 68 109q44 47 107 74t142 27t142 -27t107 -74q43 -46 67 -109t24 -132q0 -67 -24 -129q-24 -61 -67 -107q-44 -47 -107 -74q-65 -28 -142 -28t-142 28q-63 27 -107 74q-45 48 -68 107t-23 129zM131 987q0 -50 16 -94t49 -80q31 -34 76 -55 t103 -21q57 0 102 21q47 22 77 55q31 34 48 80q16 44 16 94q0 107 -63 180q-63 74 -180 74t-180 -74q-64 -75 -64 -180zM190 -31l1045 1340h104l-1042 -1340h-107zM813 291q0 67 24 129q24 61 67 107q44 47 107 74q65 28 142 28q76 0 141 -28t108 -74t67 -107 q24 -62 24 -129q0 -69 -24 -132t-67 -109t-108 -74q-63 -27 -141 -27q-79 0 -142 27t-107 74q-43 46 -67 109t-24 132zM909 291q0 -105 64 -180q63 -74 180 -74t180 74q64 75 64 180q0 48 -17 94t-48 80q-30 33 -77 55q-45 21 -102 21t-102 -21q-47 -22 -77 -55 q-31 -34 -48 -80t-17 -94z" />
<glyph unicode="&#x26;" horiz-adv-x="1413" d="M53 305q0 63 24 122q26 62 63 108q40 48 96 88q56 39 118 63q-87 40 -142 116q-54 75 -54 173q0 68 26 126q27 60 76 106q48 45 119 73q69 27 153 27q75 0 136 -23q59 -22 100 -60t62 -87q22 -52 22 -103q0 -94 -63 -180t-199 -141q95 -40 183 -119q87 -78 140 -170 q39 56 72 102q24 35 51 79q23 38 23 50q1 33 -45 39l-72 11l-4 67h428l-8 -67l-66 -11q-41 -11 -82 -35q-40 -23 -73 -69q-51 -66 -90 -117q-12 -15 -33.5 -41t-30.5 -38q-29 -37 -29 -38q26 -52 66 -120q31 -52 60 -83q33 -34 63 -48q33 -15 71 -15t80 20q47 23 86 46 l31 -54q-61 -64 -122 -99q-63 -36 -134 -36q-105 0 -172 66q-68 66 -129 196q-40 -53 -87 -98q-51 -49 -103 -83q-56 -36 -118 -57q-66 -22 -130 -22q-84 0 -154 28q-67 27 -114 74q-46 46 -70 107q-25 64 -25 127zM205 360q0 -55 20 -101q21 -47 60 -85q38 -37 91 -58 q55 -22 113 -22q81 0 167 53q84 51 159 156q-38 73 -81 125q-46 56 -93 94q-54 44 -105 71q-47 25 -120 56q-97 -50 -154 -122t-57 -167zM293 1026q0 -103 57 -169q58 -68 172 -114q183 84 183 269q0 42 -14 82q-13 37 -39 68q-26 30 -63 48q-40 19 -85 19q-97 0 -155 -61 q-56 -59 -56 -142z" />
<glyph unicode="'" horiz-adv-x="405" d="M35 825l215 500h2l151 -53l-301 -447h-67z" />
<glyph unicode="(" horiz-adv-x="808" d="M190 428q0 183 55 342q54 156 135 276q79 118 176 202q97 85 177 124l25 -33q9 -11 17 -23q7 -11 7 -13q-70 -37 -162 -121q-85 -78 -159 -193q-72 -112 -120 -254q-48 -141 -48 -307t48 -307q48 -142 120 -254q74 -115 159 -193q88 -80 162 -118q0 -3 -7 -13 q-10 -14 -17 -24q-13 -21 -25 -35q-80 39 -177 124q-95 83 -176 203q-82 121 -135 275q-55 159 -55 342z" />
<glyph unicode=")" horiz-adv-x="808" d="M27 -446q77 40 163 120q85 79 158 193q72 112 120 254q48 141 48 307t-48 307q-48 142 -120 254q-73 114 -158 193q-89 82 -163 121l8 13q5 8 18 23l25 33q78 -38 176 -124q94 -82 175 -202t135 -276t54 -342t-54 -342q-53 -154 -135 -275q-83 -122 -175 -203 q-98 -86 -176 -124l-25 33q-13 15 -18 23q-8 13 -8 14z" />
<glyph unicode="*" horiz-adv-x="710" d="M66 1157l24 37l131 -25l107 -155l32 10v190l82 93l45 -15l17 -127l-119 -151l21 -27l182 62l112 -56v-45l-112 -55l-182 63l-21 -26l115 -152l-17 -127l-43 -10l-86 94l4 189l-30 8l-107 -150l-125 -26l-28 37l65 116l176 49v35l-176 54z" />
<glyph unicode="+" horiz-adv-x="983" d="M66 430l6 100h368v379h105v-379h366l7 -100h-373v-381h-105v381h-374z" />
<glyph unicode="," horiz-adv-x="462" d="M68 -322q29 21 63 55q37 37 55 63q24 35 39 73q15 39 15 80q0 44 -24 74q-25 32 -52 50q-25 17 -52 29q-24 10 -24 13q0 47 34 81q33 33 95 33q35 0 66 -14q32 -15 58 -39q27 -25 41 -58q15 -34 15 -75q0 -64 -25 -120q-23 -51 -67 -105q-37 -45 -92 -92 q-44 -38 -100 -80z" />
<glyph unicode="-" horiz-adv-x="671" d="M70 428l6 104h524l6 -104h-536z" />
<glyph unicode="." horiz-adv-x="466" d="M106 96q0 48 36 86q36 37 94 37q56 0 90 -37t34 -86q0 -50 -34 -88q-34 -39 -90 -39q-58 0 -94 39t-36 88z" />
<glyph unicode="/" horiz-adv-x="571" d="M18 -432l439 1790h92l-438 -1790h-93z" />
<glyph unicode="0" horiz-adv-x="1146" d="M80 479q0 116 37 208q39 96 102 161q65 66 157 104q90 37 199 37q110 0 199 -37q93 -39 155 -102q64 -65 100 -159q36 -93 36 -208t-37 -208q-39 -97 -102 -162q-68 -69 -156 -106q-91 -38 -199 -38q-109 0 -198 37q-90 38 -156 105q-65 66 -101 161q-36 94 -36 207z M197 483q0 -88 27 -161t78 -127q49 -52 120 -83q69 -30 153 -30t153 30t118 82t76 124q26 69 26 161q0 89 -27 161q-26 70 -78 125q-48 51 -119 82q-69 30 -153 30q-82 0 -152 -29q-68 -28 -118 -81q-51 -54 -77 -124q-27 -72 -27 -160z" />
<glyph unicode="1" horiz-adv-x="749" d="M86 864l6 60l369 59v-856q0 -31 37 -37l149 -20l6 -70h-522l6 70l146 20q34 12 34 37v725z" />
<glyph unicode="2" horiz-adv-x="954" d="M68 106q106 82 201 156q100 78 166 141q71 68 112 133t41 126q0 38 -15 74t-42 63q-26 26 -68 43q-39 16 -92 16q-77 0 -139 -43t-101 -98l-39 24q46 117 141 183q93 65 220 65q62 0 115 -19q55 -20 97 -56t66 -86q25 -52 25 -111q0 -78 -37 -143q-39 -68 -108 -133 q-74 -70 -172 -140q-171 -124 -232 -166v-10h117q147 0 233 3q85 3 135 15t71 35q21 22 36 60l37 92h63l-25 -330h-798z" />
<glyph unicode="3" horiz-adv-x="856" d="M25 -270q0 42 27 69t69 27q55 0 95 -46q39 -45 50 -102q28 -6 58 -6q55 0 112 23q56 23 99 63q40 38 69 98q27 57 27 126q0 123 -73 199q-72 75 -198 75q-39 0 -85 -8q-42 -7 -87 -29l-22 53q12 8 60 38.5t74 47.5q74 49 121 88q50 42 88 96q34 49 34 111q0 41 -15 79 q-16 39 -42 67q-27 28 -67 46q-38 17 -89 17q-80 0 -142 -44t-102 -99q-2 0 -9 4q-2 1 -7.5 3.5t-8.5 4.5l-13 8q-4 4 -3 4q46 117 151 182q103 64 226 64q69 0 119 -20q52 -21 92 -56q39 -34 60 -83q22 -50 22 -103q0 -104 -68 -187t-209 -167v-4q77 0 143 -23t111 -62 q47 -41 74 -98t27 -129q0 -91 -43 -174q-42 -81 -116 -149q-70 -64 -169 -106q-95 -40 -203 -40q-113 0 -175 43t-62 99z" />
<glyph unicode="4" horiz-adv-x="952" d="M14 119l652 862h69v-811h230l-15 -123h-215v-424h-145v424h-570zM141 170h449v590h-6z" />
<glyph unicode="5" horiz-adv-x="858" d="M23 -276q0 45 28 70q29 26 68 26q58 0 95 -43t48 -101q15 -4 29 -4h28q61 0 119 25q57 25 98 67t65 100q24 57 24 122q0 144 -139 247q-137 102 -382 168l144 562h540l-4 -154h-489l-72 -287q285 -78 412 -199t127 -274q0 -93 -40 -176q-39 -81 -110 -146 q-70 -64 -160 -101q-93 -38 -194 -38q-104 0 -170 39q-65 38 -65 97z" />
<glyph unicode="6" horiz-adv-x="1024" d="M78 465q0 170 70 322q70 153 192 270q121 116 280 190q158 73 332 88l15 -59q-148 -21 -261 -77q-119 -59 -203 -137q-87 -81 -147 -183t-90 -215l4 -2q59 55 141 91q79 35 160 35q88 0 157 -30q67 -29 117 -84q49 -54 73 -124t24 -149q0 -99 -34 -179q-36 -83 -93 -138 q-62 -59 -140 -89q-82 -32 -173 -32q-100 0 -180 42q-82 43 -134 112q-54 71 -82 159t-28 189zM242 459q0 -84 20 -155q21 -75 61 -133q41 -59 96 -94q57 -36 126 -36q58 0 104 26q47 26 77 67q32 42 48 97q17 57 17 115q0 74 -23 138q-22 63 -60 108t-90 70q-51 24 -110 24 q-75 0 -142 -31q-66 -31 -106 -69q-9 -12 -13 -49q-5 -43 -5 -78z" />
<glyph unicode="7" horiz-adv-x="946" d="M55 637l41 326h803l10 -89l-635 -1253h-106l614 1188v10h-360q-95 0 -126 -1q-49 -2 -71 -7q-25 -6 -35 -18t-18 -33q-11 -22 -25 -58q-5 -10 -17 -42q-2 -5 -4 -10.5t-3.5 -8.5t-1.5 -4h-66z" />
<glyph unicode="8" horiz-adv-x="997" d="M82 301q0 63 22 113t61 92t90 74t110 57v2q-54 28 -98 57q-42 27 -80 70q-32 36 -54 87q-20 46 -20 110q0 62 25 122t76 111q50 50 125 80q77 31 171 31q73 0 139 -24q68 -25 115 -66q50 -43 78 -102q28 -57 28 -126q0 -109 -66 -185q-65 -76 -175 -126v-2 q49 -24 108 -61q51 -31 91 -73q39 -41 64 -95q23 -50 23 -121q0 -76 -29 -140q-30 -66 -86 -113q-59 -50 -139 -76q-86 -28 -186 -28q-76 0 -151 25q-73 24 -125 69q-53 46 -85 106q-32 61 -32 132zM231 311q0 -57 21 -108q21 -52 59 -88q40 -38 92 -59q53 -21 119 -21 q62 0 110 18q47 18 81 50q31 30 50 74q17 40 17 91q0 71 -31 120q-32 50 -84 89q-54 40 -117 71q-21 10 -65 31.5t-67 32.5q-79 -56 -131 -132q-54 -79 -54 -169zM250 1022q0 -61 26 -106q25 -43 72 -82q44 -37 104 -69q86 -47 121 -63q76 52 114 118q38 65 38 157 q0 52 -17 97q-18 49 -51 86q-34 39 -79 62t-105 23q-51 0 -92 -18t-70 -49q-28 -30 -45 -71q-16 -39 -16 -85z" />
<glyph unicode="9" horiz-adv-x="1024" d="M55 -315q151 22 261 76q117 58 203 138q87 81 147 183q58 98 92 215l-6 2q-61 -58 -141 -92q-82 -35 -160 -35q-85 0 -156 31q-69 30 -117 84q-47 53 -73 123q-25 68 -25 149q0 99 34 179q36 85 93 139q62 59 140 88q81 30 173 30q102 0 181 -42q82 -43 134 -110 q54 -69 81 -159q28 -93 28 -188q0 -171 -71 -324q-71 -152 -191 -268q-123 -118 -279 -191t-333 -88zM233 612q0 -72 22 -138q20 -61 60 -107t91 -70q53 -25 108 -25q76 0 142 32q65 32 106 71q9 12 13 48q5 42 5 79q0 81 -20 152q-21 74 -60 133q-40 60 -95 95 q-57 36 -126 36q-57 0 -105 -25q-46 -24 -77 -67q-31 -44 -47 -97q-17 -57 -17 -117z" />
<glyph unicode=":" horiz-adv-x="462" d="M106 96q0 48 36 86q36 37 94 37q56 0 90 -37t34 -86q0 -50 -34 -88q-34 -39 -90 -39q-58 0 -94 39t-36 88zM106 731q0 49 36 86t94 37q56 0 90 -37t34 -86q0 -50 -34 -87q-35 -38 -90 -38q-58 0 -94 38t-36 87z" />
<glyph unicode=";" horiz-adv-x="462" d="M68 -322q29 21 63 55q37 37 55 63q24 35 39 73q15 39 15 80q0 44 -24 74q-25 32 -52 50q-25 17 -52 29q-24 10 -24 13q0 47 34 81q33 33 95 33q35 0 66 -14q32 -15 58 -39q27 -25 41 -58q15 -34 15 -75q0 -64 -25 -120q-23 -51 -67 -105q-37 -45 -92 -92 q-44 -38 -100 -80zM106 731q0 49 36 86t94 37q56 0 90 -37t34 -86q0 -50 -34 -87q-35 -38 -90 -38q-58 0 -94 38t-36 87z" />
<glyph unicode="&#x3c;" horiz-adv-x="983" d="M59 457v49l820 385l24 -92l-667 -312v-10l667 -313l-24 -92z" />
<glyph unicode="=" horiz-adv-x="983" d="M86 250l6 104h799l6 -104h-811zM86 711h811l-6 -105h-799z" />
<glyph unicode="&#x3e;" horiz-adv-x="983" d="M80 164l668 313v10l-668 312l24 92l820 -385v-49l-820 -385z" />
<glyph unicode="?" horiz-adv-x="731" d="M109 1202q0 47 42 77t109 30q83 0 155 -29q70 -28 123 -77q52 -47 82 -108q29 -58 29 -124q0 -65 -16 -106q-16 -42 -46 -70q-31 -30 -69 -50q-31 -17 -86 -38q-22 -8 -64 -26q-34 -15 -56 -31q-23 -17 -38 -40q-14 -21 -14 -57q0 -50 31 -93q29 -41 76 -83h-62 q-3 3 -18.5 16.5t-24.5 22.5q-28 26 -46 52q-24 35 -37 64q-15 34 -15 74q0 52 18 90t50 65q31 26 74 48q17 8 89 41q10 4 32.5 13.5t33.5 14.5q37 17 55 29q24 17 39 36q14 18 14 46q0 68 -87 116t-228 48q-43 0 -72 -4q-47 -6 -55 -8q-10 13 -13 27q-5 20 -5 34zM193 86 q0 46 32 79q33 34 86 34q52 0 83 -34q32 -35 32 -79q0 -47 -32 -82t-83 -35q-53 0 -86 35q-32 33 -32 82z" />
<glyph unicode="@" horiz-adv-x="1708" d="M94 537q6 160 74 304q67 141 178 246q110 104 257 164q148 60 308 56q154 -4 293 -58q139 -53 237 -147q99 -94 154 -223q55 -127 47 -285q-6 -114 -44 -210q-38 -95 -99 -164q-61 -68 -141 -106q-81 -38 -168 -38q-77 0 -119 16t-64 41t-25 52t3 48l72 314h-27 q-48 -93 -91 -164q-48 -79 -96 -141q-49 -63 -94 -99q-46 -37 -90 -37q-41 0 -78 18q-40 19 -67 46q-29 29 -45 64t-16 71q0 63 19 138q21 82 52 154q35 81 76 146q46 73 90 117q47 47 99 71q50 23 102 23q74 0 128 -45q55 -46 77 -116h22l51 137h97l-117 -334l-45 -365 q-6 -35 19 -59q27 -25 91 -25q72 0 134 35q58 32 107 96q47 61 74 141q28 83 32 175q6 140 -42 255q-47 113 -138 201q-87 84 -212 133q-122 47 -262 52q-145 4 -275 -51t-230 -151q-98 -94 -159 -223q-61 -130 -67 -271q-8 -160 41 -290q50 -134 138 -229q89 -96 213 -150 t266 -54q71 0 129 11q60 11 122 30l21 -68q-74 -24 -138 -36q-59 -11 -141 -11q-160 0 -296 59q-138 60 -237 165q-100 106 -154 251q-54 144 -46 320zM592 334q0 -40 11 -62q13 -27 29 -41q16 -15 37 -23q18 -7 36 -7q22 0 59 40q42 45 81 102q55 80 91 140q53 88 90 154 q9 17 17 49q8 30 8 33q-10 20 -30 46q-20 27 -46 48q-28 23 -59 38q-32 15 -66 15q-56 0 -88 -32q-30 -30 -60 -91q-33 -68 -55 -135q-27 -82 -40 -147q-15 -74 -15 -127z" />
<glyph unicode="A" horiz-adv-x="1222" d="M-33 0l6 70l82 14q23 6 40 16q18 11 36 40q21 34 41 86q20 50 55 151l285 803v65l170 72l395 -1188q11 -33 51 -39l121 -20l6 -70h-526l6 70l117 14q22 5 31 11q9 7 11 24t-6 45q-10 38 -22 74l-75 225h-443l-74 -223q-27 -80 -29 -116q-2 -32 36 -40l102 -14l6 -70h-422 zM377 547h387l-182 575h-11z" />
<glyph unicode="B" horiz-adv-x="1181" d="M86 0l6 70l107 12q53 6 53 29v1060q0 14 -10 18q-11 5 -43 9l-107 12l-6 70h522q128 0 213 -24q88 -25 138 -62q53 -39 75 -90q23 -52 23 -107q0 -60 -23 -115q-24 -57 -63 -99q-38 -41 -99 -73q-57 -30 -127 -42v-9q189 -21 273 -108q86 -89 86 -203q0 -172 -133 -260 t-371 -88h-514zM420 102l160 -28l59 2q62 5 109 20q51 17 91 49q37 31 63 80q24 47 24 109q0 71 -28 125q-27 52 -79 89q-49 34 -120 53q-65 17 -152 17h-127v-516zM420 694l162 2q78 0 133 24q56 24 91 58q34 33 53 80q18 45 18 88q0 122 -78 191t-250 69h-129v-512z" />
<glyph unicode="C" horiz-adv-x="1359" d="M94 621q0 159 54 286q53 125 150 216t224 138q129 48 279 48q84 0 165 -13q79 -13 119 -26l156 33v-416h-86l-53 266q-53 30 -126 53q-74 23 -188 23q-111 0 -205 -44q-92 -43 -161 -121q-68 -76 -105 -183q-36 -102 -36 -234q0 -133 35 -241q36 -111 104 -191 q69 -81 166 -124q100 -44 225 -44q78 0 143 16q66 16 121 46l86 276h90l-49 -387l-94 20q-57 -18 -144 -33q-93 -16 -171 -16q-147 0 -276 44q-127 43 -221 128q-95 86 -148 205q-54 122 -54 275z" />
<glyph unicode="D" horiz-adv-x="1390" d="M86 0l6 70l107 12q53 6 53 29v1060q0 14 -10 18q-11 5 -43 9l-107 12l-6 70l455 6h15q169 0 301 -44q139 -46 239 -129q95 -80 150 -198q52 -113 52 -249q0 -131 -47 -254q-45 -118 -142 -212q-95 -92 -238 -146t-332 -54h-453zM420 102l164 -26q126 1 225 45 q97 43 166 116q67 71 103 171q36 99 36 210q0 134 -40 241t-118 185t-192 120t-266 42h-78v-1104z" />
<glyph unicode="E" horiz-adv-x="1193" d="M86 0l6 70l107 12q53 6 53 29v1060q0 14 -10 18q-11 5 -43 9l-107 12l-6 70h983v-371h-88l-45 207q-7 28 -22 48q-14 18 -56 27q-46 10 -127 11q-112 2 -233 2h-78v-514h78q78 0 103 1q44 2 59 5q22 5 31 12q10 9 14 21l45 137h71l-43 -426h-67l-17 131q0 13 -5 21 t-25 14q-23 7 -61 8q-54 2 -109 2h-74v-540h55q163 0 255 3t138 12q48 9 63 27q14 17 25 46l52 198h100l-39 -362h-983z" />
<glyph unicode="F" horiz-adv-x="1140" d="M86 0l6 70l107 12q53 6 53 29v1060q0 14 -10 18q-11 5 -43 9l-107 12l-6 70h969v-371h-90l-43 207q-7 29 -23 48q-15 18 -57 27q-46 10 -126 11q-110 2 -233 2h-63v-526h94q78 0 103 1q45 2 60 5q24 5 30 11q9 9 14 22l47 137h70l-43 -426h-68l-14 131q-2 13 -8 21 t-26 14q-21 7 -59 8q-54 2 -110 2h-90v-495q0 -14 11 -18q12 -5 42 -9l148 -12l6 -70h-541z" />
<glyph unicode="G" horiz-adv-x="1449" d="M94 621q0 159 57 287q59 132 154 217q102 92 230 137q132 47 278 47q86 0 166 -13q79 -13 117 -26l155 33v-416h-86l-53 266q-53 30 -126 53q-74 23 -189 23q-109 0 -205 -44q-94 -43 -164 -121q-71 -78 -109 -183q-38 -104 -38 -234q0 -132 34 -241t102 -191 q67 -81 164 -124q99 -44 222 -44q73 0 144 15q72 15 118 36v359q0 13 -10 17q-11 5 -43 9l-129 13l-6 67h520l-6 -67l-107 -13q-53 -8 -53 -30v-320l119 -10l4 -53q-128 -44 -277 -72q-153 -29 -282 -29q-149 0 -278 44q-127 43 -222 128q-96 86 -148 205q-53 123 -53 275z " />
<glyph unicode="H" horiz-adv-x="1501" d="M86 0l6 70l107 12q53 6 53 29v1060q0 14 -10 18q-11 5 -43 9l-107 12l-6 70h500l-6 -70l-107 -12q-53 -6 -53 -29v-471h661v473q0 15 -10 19q-7 3 -43 8l-106 12l-7 70h500l-6 -70l-106 -12q-54 -6 -54 -29v-1060q0 -13 11 -18t43 -9l106 -12l6 -70h-500l7 70l106 12 q53 6 53 29v503h-661v-505q0 -14 11 -18q12 -5 42 -9l107 -12l6 -70h-500z" />
<glyph unicode="I" horiz-adv-x="718" d="M90 0l6 70l127 12q53 6 53 29v1060q0 14 -10 18q-11 5 -43 9l-127 12l-6 70h541l-6 -70l-127 -12q-54 -6 -54 -29v-1060q0 -13 12 -18t42 -9l127 -12l6 -70h-541z" />
<glyph unicode="J" horiz-adv-x="796" d="M2 96q0 41 27 65q26 23 67 23q54 0 94 -39q38 -38 56 -106h2q39 11 67 34q31 26 49 71q19 46 28 127q9 80 9 202v698q0 15 -10 19q-7 3 -43 8l-141 12l-6 70h549l-7 -70l-118 -12q-31 -5 -42 -10q-12 -6 -12 -19v-665q0 -258 -96 -396q-97 -139 -276 -139q-91 0 -144 36 t-53 91z" />
<glyph unicode="K" horiz-adv-x="1296" d="M86 0l6 70l107 12q53 6 53 29v1060q0 14 -10 18q-11 5 -43 9l-107 12l-6 70h500l-6 -70l-107 -12q-53 -6 -53 -29v-561l440 443q81 79 85 110q2 16 -8.5 25.5t-33.5 11.5l-104 12l-6 70h489l-6 -70l-86 -10q-37 -6 -68 -26q-33 -21 -86 -74l-364 -363l440 -590 q29 -40 46 -51t48 -16l74 -10l6 -70h-452l6 70l80 12q12 5 11 16q-2 15 -11 29l-361 508l-139 -137v-389q0 -14 11 -18q12 -5 42 -9l107 -12l6 -70h-500z" />
<glyph unicode="L" horiz-adv-x="1157" d="M86 0l6 70l107 12q53 6 53 29v1060q0 14 -10 18q-11 5 -43 9l-107 12l-6 70h518l-6 -70l-125 -12q-53 -6 -53 -29v-1093h51q152 0 239 3t132 12t60 27q17 21 24 46l61 244h94l-45 -408h-950z" />
<glyph unicode="M" horiz-adv-x="1728" d="M29 0l8 70l137 14q13 2 21 10q9 9 16 38q9 36 13 87q11 133 12 158l34 674q1 10 1 20q0 103 -60 117l-145 22l-7 70h439l362 -987h10l355 987h428l-4 -70l-152 -10q-20 -1 -28 -17q-7 -15 -9 -32l29 -780q1 -88 6 -145q5 -61 10 -88q5 -29 15 -44q8 -13 18 -14l129 -10 l6 -70h-522l6 70l133 10q13 2 20 15t10 47q2 27 4 89q1 16 1 34q0 46 -4 106l-29 794h-14l-412 -1124h-86l-399 1083h-21l-34 -747q-7 -150 -7 -157q-1 -47 -1 -71v-17q1 -29 8 -39q6 -9 18 -9l135 -14l6 -70h-456z" />
<glyph unicode="N" horiz-adv-x="1507" d="M76 0l6 70l123 16q23 4 36 12q13 7 19 38q7 33 8 86q2 76 2 155v676q0 67 -14 94q-15 29 -49 45l-117 18l-6 70h354l738 -1032h6v655q0 79 -2 155q-1 47 -9 86q-6 31 -19 38q-14 8 -36 12l-123 16l-6 70h473l-6 -70l-123 -16q-23 -4 -36 -12q-12 -7 -20 -38 q-8 -30 -9 -86q-2 -76 -2 -155v-919h-99l-805 1126h-8v-733q0 -79 2 -155q1 -53 8 -86q6 -30 20 -38t36 -12l123 -16l6 -70h-471z" />
<glyph unicode="O" horiz-adv-x="1513" d="M94 629q0 136 50 260q48 119 140 216q88 92 211 147q124 55 265 55q138 0 261 -49q121 -48 209 -135q90 -88 139 -209q50 -123 50 -269q0 -136 -50 -260q-49 -122 -139 -215q-89 -92 -211 -146q-124 -55 -265 -55q-140 0 -262 48q-117 46 -209 135q-90 87 -139 207 q-50 123 -50 270zM281 651q0 -146 38 -257q38 -110 106 -191q65 -77 154 -120q87 -42 181 -42q96 0 181 39t151 114q65 74 103 183t38 246q0 144 -40 257t-106 191q-67 79 -152 120q-87 42 -183 42q-95 0 -181 -39q-85 -39 -150 -114q-67 -78 -103 -182q-37 -107 -37 -247z " />
<glyph unicode="P" horiz-adv-x="1146" d="M86 0l6 70l107 12q53 6 53 29v1060q0 14 -10 18q-11 5 -43 9l-107 12l-6 70h496q125 0 223 -28q94 -27 158 -74q63 -47 94 -111q30 -63 30 -137q0 -100 -38 -175t-106 -129q-66 -53 -157 -80q-93 -28 -192 -28q-46 0 -89 3q-58 4 -85 7v-419q0 -14 11 -18q12 -5 42 -9 l145 -12l7 -70h-539zM420 610q39 -10 80 -15q45 -5 86 -5q148 0 234 82q87 82 87 225q0 144 -89 227q-85 80 -236 80h-7h-108q-17 0 -47 -2v-592z" />
<glyph unicode="Q" horiz-adv-x="1513" d="M94 629q0 136 50 260q48 119 140 216q88 92 211 147q124 55 265 55q138 0 261 -49q121 -48 209 -135q90 -88 139 -209q50 -123 50 -269q0 -117 -36 -222q-37 -109 -100 -192q-64 -84 -156 -148q-91 -62 -199 -91q53 -93 114 -149q60 -56 134 -85q69 -27 156 -32 q21 -1 43 -1q66 0 143 9l6 -66q-33 -11 -115 -25q-72 -12 -145 -12q-95 0 -177 19q-75 17 -140 59q-57 37 -114 105q-54 65 -100 155q-135 1 -252 51q-114 48 -202 136t-136 206q-49 120 -49 267zM281 651q0 -146 38 -257q38 -110 106 -191q65 -77 154 -120q87 -42 181 -42 q96 0 181 39t151 114q65 74 103 183t38 246q0 144 -40 257t-106 191q-67 79 -152 120q-87 42 -183 42q-95 0 -181 -39q-85 -39 -150 -114q-67 -78 -103 -182q-37 -107 -37 -247z" />
<glyph unicode="R" horiz-adv-x="1210" d="M86 0l6 70l107 12q53 6 53 29v1060q0 14 -10 18q-11 5 -43 9l-107 12l-6 70h524q234 0 342 -87q109 -88 109 -226q0 -139 -83 -230q-83 -90 -220 -137l278 -430q38 -54 57 -68q17 -13 42 -18l84 -14l6 -70h-301l-78 141l-250 426q-66 -2 -88 -2h-88v-456q0 -14 11 -18 q12 -5 42 -9l117 -12l6 -70h-510zM420 651q9 0 29 -2q12 -1 27 -3q10 -1 32 -3q38 -5 86 -6q130 15 207 86q78 72 78 207q0 140 -79 210q-70 61 -204 61q-19 0 -39 -1h-32q-16 0 -46 -2q-36 -2 -59 -2v-545z" />
<glyph unicode="S" horiz-adv-x="1032" d="M90 387h82l86 -283q46 -20 122 -38q73 -17 130 -17q70 0 123 21q55 22 90 54q37 34 55 77q19 46 19 90q0 62 -23 108q-22 45 -64 79q-41 33 -102 61q-50 23 -133 53q-63 24 -139 59q-62 28 -115 73q-50 43 -77 99q-27 57 -27 138q0 69 25 131q26 64 78 110q53 47 132 77 q80 30 187 30h38q63 0 102 -5q54 -7 99 -18l107 31v-404h-82l-58 263q-44 19 -114 36q-63 15 -119 15q-62 0 -109 -18q-49 -19 -77 -47q-32 -32 -46 -68q-16 -42 -16 -80q0 -62 24 -105t66 -75q46 -35 101 -58q48 -20 125 -51q69 -25 145 -59q66 -29 117 -74q50 -44 78 -103 t28 -143q0 -76 -33 -143t-93 -120q-61 -53 -147 -83q-90 -31 -196 -31h-12q-97 0 -180 15t-166 41z" />
<glyph unicode="T" horiz-adv-x="1253" d="M51 887l35 393h1096v-393h-88l-45 215q-6 28 -18 48q-12 19 -43 31q-28 11 -93 17q-62 6 -170 6h-14v-1095q0 -14 11 -18q12 -5 42 -9l139 -12l6 -70h-565l6 70l139 12q54 6 54 29v1093h-15q-104 0 -166 -3q-60 -3 -95 -12q-33 -9 -47 -27t-21 -46l-56 -229h-92z" />
<glyph unicode="U" horiz-adv-x="1456" d="M70 1280h499l-6 -70l-106 -12q-54 -6 -54 -29v-708q0 -110 29 -185q28 -71 79 -118q50 -46 119 -65q67 -19 148 -19q174 0 262 99q88 98 88 261v469q0 79 -2 155q-1 53 -8 86q-6 31 -19 38q-13 8 -36 12l-123 16l-6 70h471l-6 -70l-121 -16q-22 -4 -36 -12 q-12 -7 -20 -38q-9 -35 -10 -86q-2 -76 -2 -155v-479q0 -111 -33 -191q-34 -82 -98 -142q-63 -59 -154 -90q-93 -32 -204 -32q-110 0 -202 28q-88 27 -152 85q-63 57 -98 146q-33 85 -33 212v731q0 13 -11 18t-43 9l-106 12z" />
<glyph unicode="V" horiz-adv-x="1257" d="M-35 1280h527l-7 -70l-116 -14q-23 -5 -30 -11q-9 -8 -8 -24q2 -19 10 -45q12 -38 24 -74l301 -899h18l256 760q32 96 43 148q10 46 10 75q0 7 -1 14q-3 32 -19 45q-17 13 -45 15l-78 10l-6 70h446l-6 -70l-80 -14q-27 -7 -43 -16q-18 -11 -36 -40q-19 -31 -39 -85 q-27 -72 -56 -152l-315 -907h-168l-404 1155q-5 19 -15 26q-11 8 -34 13l-123 20z" />
<glyph unicode="W" horiz-adv-x="1880" d="M-31 1280h527l-7 -70l-116 -14q-19 -3 -28.5 -12t-8.5 -23q1 -24 33 -119l256 -831h8l278 790l-49 150q-5 19 -15 26q-11 8 -36 13l-117 20l-6 70h520l-6 -70l-121 -14q-35 -6 -33 -37q2 -35 29 -117l271 -833l6 2l207 692q29 93 45 152q13 48 13 77v8q-2 30 -16 39 q-15 9 -42 15l-107 16l-6 70h457l-7 -70l-73 -14q-24 -8 -40 -17q-15 -9 -32 -38q-15 -26 -37 -84q-14 -37 -53 -154l-287 -907h-119l-296 885h-5l-309 -885h-121l-381 1155q-5 19 -15 26q-11 8 -34 13l-121 20z" />
<glyph unicode="X" horiz-adv-x="1265" d="M2 0l6 70l92 14q38 11 63 34q26 24 62 72l326 453l-356 508q-9 13 -27 26q-16 11 -31 13l-106 20l-8 70h509l-6 -70l-100 -12q-41 -6 -41 -28q0 -6 3 -13q12 -28 67 -117l198 -295h9l225 342q33 48 33 76q0 29 -37 35l-95 12l-6 70h443l-6 -70l-91 -14q-38 -11 -64 -34 q-34 -30 -63 -72l-290 -408l391 -553q10 -15 25 -25q12 -9 32 -14l107 -20l6 -70h-510l6 70l102 12q47 6 34 40q-14 37 -68 118l-228 342h-8l-256 -387q-36 -47 -36 -73q0 -3 1 -6q5 -26 41 -32l90 -14l9 -70h-447z" />
<glyph unicode="Y" horiz-adv-x="1228" d="M-14 1280h499l-6 -70l-102 -12q-35 -5 -31 -39q5 -36 55 -119l246 -407h10l267 454q28 44 28 71q0 4 -1 8q-5 26 -44 34l-78 10l-6 70h414l-6 -70l-62 -10q-41 -12 -71 -33q-32 -23 -68 -77l-321 -533v-448q0 -14 10 -18q11 -5 43 -9l139 -12l6 -70h-567l6 70l141 12 q54 6 54 29v426l-381 602q-7 10 -34 33q-21 18 -50 24l-84 14z" />
<glyph unicode="Z" horiz-adv-x="1136" d="M68 0v70l806 1126v8h-231q-137 0 -216 -6q-78 -6 -119 -18q-38 -11 -54 -35q-14 -20 -25 -58l-41 -186h-82v379h967v-72l-805 -1126l-2 -8l234 2q139 0 234 5q87 5 130 16q47 13 61 32q14 20 25 51l51 203h95l-43 -383h-985z" />
<glyph unicode="[" horiz-adv-x="753" d="M195 -451v1784h516v-86h-416v-1612h416v-86h-516z" />
<glyph unicode="\" horiz-adv-x="571" d="M20 1358h93l438 -1790h-92z" />
<glyph unicode="]" horiz-adv-x="753" d="M43 -365h416v1612h-416v86h516v-1784h-516v86z" />
<glyph unicode="^" d="M143 1040l228 398h78l227 -398h-55l-209 252h-4l-209 -252h-56z" />
<glyph unicode="_" horiz-adv-x="962" d="M-16 -106l6 104h983l6 -104h-995z" />
<glyph unicode="`" d="M127 1417h186l197 -377h-45z" />
<glyph unicode="a" horiz-adv-x="913" d="M70 709q0 37 35 78q36 42 92 77q59 36 122 59q65 23 130 23q87 0 144 -19q59 -19 93 -66t48 -123q10 -57 10 -134q0 -27 -1 -57l-16 -391v-12q0 -60 45 -60q23 0 47 15q28 18 58 42l34 -45q-42 -55 -94 -93q-46 -34 -96 -34q-55 0 -93 36t-38 116h-8q-65 -69 -121 -108 q-62 -44 -135 -44q-52 0 -97 18q-43 17 -78 49q-33 30 -55 76q-20 41 -20 95q0 68 29 116t94 93q61 42 162 79q88 32 237 68v19q0 84 -13 135q-14 55 -40 85q-28 32 -67 44q-41 12 -89 12q-25 0 -57 -5q-21 -3 -52 -13q-17 -5 -38 -18q-15 -9 -15 -17t21 -32q20 -23 20 -62 q0 -35 -27 -64t-73 -29q-43 0 -71 25q-27 24 -27 66zM225 242q0 -74 45 -116t111 -42q53 0 101 30q53 33 100 76l12 308q-100 -26 -173 -56q-69 -28 -114 -59q-40 -28 -62 -66q-20 -35 -20 -75z" />
<glyph unicode="b" horiz-adv-x="1050" d="M-16 1303l6 51l313 73v-639h8q55 59 132 103q76 43 165 43q85 0 153 -34q70 -35 117 -94q46 -58 74 -141q27 -81 27 -178q0 -104 -33 -197q-33 -94 -94 -165q-62 -72 -150 -114t-198 -42q-25 0 -52 4q-20 3 -62 11q-30 6 -61 15q-20 6 -53 17h-4l-92 -59h-22v1262 q0 32 -21 38zM303 162q43 -41 105 -79q56 -34 131 -34q57 0 110 28q50 27 90 77q41 52 61 119q21 71 21 157q0 88 -19 157q-20 71 -57 120t-87 76q-51 28 -111 28q-76 0 -140 -38q-62 -37 -104 -85v-526z" />
<glyph unicode="c" horiz-adv-x="905" d="M70 430q0 111 38 207q38 95 103 163t153 106t183 38q72 0 124 -16q56 -17 92 -43q38 -27 57 -61q20 -35 20 -70q0 -60 -34 -82q-35 -23 -71 -23q-56 0 -86 51q-17 30 -17 68q0 28 9 61v5q-20 15 -55 26q-31 10 -74 10q-63 0 -114 -26q-52 -27 -90 -75q-37 -48 -60 -116 q-23 -69 -23 -151q0 -86 24 -160q26 -78 66 -127q46 -55 103 -84q62 -31 129 -31q71 0 139 30q69 31 123 95l41 -24q-55 -109 -152 -170q-96 -60 -217 -60q-89 0 -164 34q-76 34 -131 95q-56 62 -86 146t-30 184z" />
<glyph unicode="d" horiz-adv-x="1077" d="M70 430q0 106 34 198q34 91 100 162q62 67 154 108q89 40 201 40q47 0 94 -10q49 -10 90 -27h5v359q0 30 -19 36l-160 37l9 49l315 45v-1300q0 -33 20 -39l146 -33l-6 -49l-305 -37v137h-7q-49 -53 -125 -95q-73 -40 -163 -40q-82 0 -151 34q-73 36 -122 95 q-51 61 -81 146q-29 81 -29 184zM229 483q0 -177 80 -283t213 -106q72 0 126 27q58 29 100 67v549q-47 47 -104 83t-132 36q-64 0 -116 -27q-53 -27 -89 -75q-35 -47 -57 -118q-21 -69 -21 -153z" />
<glyph unicode="e" horiz-adv-x="935" d="M70 430q0 111 38 207q37 93 101 163q62 68 149 106t181 38q145 0 230 -82t85 -215q0 -26 -3 -56q-3 -34 -7 -52l-617 8q-2 -8 -2 -25v-24q0 -87 24 -160q25 -76 66 -126q43 -52 103 -82t129 -30q71 0 139 30q69 31 123 95l41 -24q-55 -109 -152 -170q-96 -60 -217 -60 q-89 0 -164 34q-76 34 -131 95q-56 62 -86 146t-30 184zM236 608q174 2 231 2h223q1 16 1 32q0 100 -45 160q-52 70 -144 70q-43 0 -85 -18q-43 -18 -78 -52q-39 -38 -64 -83q-27 -49 -39 -111z" />
<glyph unicode="f" horiz-adv-x="638" d="M25 821l12 90h149l2 52q5 104 40 188q36 85 95 147t133 96q72 33 156 33q75 0 125 -33q54 -35 54 -89q0 -44 -26 -68q-27 -25 -63 -25q-42 0 -77 33q-36 34 -52 94l-2 11l-51 4q-86 -34 -132 -129q-46 -93 -46 -248v-66h285l-15 -94h-270v-711q0 -12 11 -19q12 -8 46 -9 l136 -8l6 -70h-488l6 70l86 8q52 2 52 31v704z" />
<glyph unicode="g" horiz-adv-x="940" d="M20 -274q0 46 17 85q16 35 44 67q28 31 61 51q40 24 71 38v8q-56 10 -94 54q-37 43 -37 94q0 61 50 114q48 51 116 82q0 7 2 7h2q-78 34 -127 106q-49 71 -49 176q0 72 27 132q27 59 76 107q47 46 115 72q65 25 144 25q71 0 124 -14q58 -15 106 -37l278 -2v-119l-219 39 v-10q27 -33 46 -78q18 -43 18 -104q0 -65 -28 -126q-27 -59 -77 -104q-51 -46 -115 -71q-65 -25 -141 -25q-28 0 -60 3t-53 9q-13 -7 -28 -16q-19 -12 -32 -25q-17 -17 -26 -31q-10 -16 -10 -34q0 -41 36 -68t93 -27q37 0 60 1q46 2 68 2q44 0 64 1t46 1q70 0 125 -21 q56 -21 94 -56q39 -36 60 -83q22 -49 22 -103q0 -79 -38 -147q-37 -67 -106 -116q-68 -48 -160 -75q-90 -26 -202 -26q-166 0 -264 67q-99 68 -99 177zM160 -227q0 -52 23 -91q25 -42 64 -68q41 -27 94 -42q50 -14 118 -14q67 0 118 17q56 19 93 47q39 30 60 71q22 42 22 88 q0 77 -49 128q-48 49 -173 54h-50q-27 0 -42 -1q-8 -1 -26.5 -1.5t-28.5 -0.5q-22 -1 -90 -1q-17 -6 -40 -22t-44 -40q-17 -20 -35 -55q-14 -28 -14 -69zM229 635q0 -77 24 -137t64 -97q52 -43 115 -43q86 0 133 45q74 66 74 211q0 70 -18 124t-56 89q-57 52 -129 52 q-93 0 -150 -69t-57 -175z" />
<glyph unicode="h" horiz-adv-x="1081" d="M8 1303l6 51l308 73v-630h10q77 65 160 106q84 41 167 41q48 0 93 -15q43 -15 79 -50q41 -41 59 -98q17 -54 17 -130v-542q0 -12 11 -20q9 -6 51 -11l80 -8l6 -70h-434l6 70l84 8q33 2 42 9t9 22v446q0 152 -52 208t-145 56q-72 0 -136 -34q-65 -35 -107 -68v-252v-359 q0 -12 10 -19t45 -9l94 -8l6 -70h-442l6 70l82 8q51 2 51 31v1105q0 37 -22 43z" />
<glyph unicode="i" horiz-adv-x="544" d="M49 821l4 56l293 67v-838q0 -12 11 -19q12 -8 46 -9l86 -8l7 -70h-439l6 70l87 8q51 2 51 31v575q0 36 -3 59q-3 22 -11 35q-9 14 -20 19q-13 6 -36 12zM147 1243q0 45 26 80t79 35q54 0 79 -34t25 -81q0 -46 -25 -80q-26 -35 -79 -35t-79 35t-26 80z" />
<glyph unicode="j" horiz-adv-x="516" d="M-131 -414q0 41 31 69t67 28q49 0 81 -33t48 -88q54 17 76 88q23 74 23 186v848q0 29 -4 59q-3 24 -10 35q-9 14 -20 19q-13 6 -36 12l-82 12l4 56l293 67v-1012q-6 -108 -36 -195q-31 -89 -75 -148q-46 -61 -100 -92q-56 -32 -113 -32q-60 0 -103 30q-44 30 -44 91z M141 1243q0 45 26 80t79 35q54 0 79 -34t25 -81q0 -46 -25 -80q-26 -35 -79 -35t-79 35t-26 80z" />
<glyph unicode="k" horiz-adv-x="993" d="M8 1303l6 51l308 73v-964l217 203q62 58 81 77q33 33 33 58q0 19 -16 26q-20 9 -41 13l-66 6l-6 67h426l-6 -67l-51 -8q-17 -1 -40 -12q-20 -9 -43 -25q-24 -17 -54 -42q-48 -41 -72 -63l-166 -151l293 -400q26 -33 40 -47q19 -19 40 -20l80 -8l6 -70h-264l-107 174 l-192 277l-92 -84v-261q0 -12 10 -18q9 -5 45 -10l80 -8l6 -70h-428l6 70l82 8q28 4 40 9q11 4 11 22v1105q0 37 -22 43z" />
<glyph unicode="l" horiz-adv-x="546" d="M27 1303l6 51l311 73v-1321q0 -12 11 -19q12 -8 46 -9l86 -8l7 -70h-439l6 70l86 8q52 2 52 31v1105q0 37 -23 43z" />
<glyph unicode="m" horiz-adv-x="1654" d="M49 821l2 56l295 67v-147h6q77 66 155 106q80 41 159 41q46 0 89 -15q41 -14 76 -46q42 -42 60 -101h8q77 71 161 117q82 45 165 45q47 0 92 -15t80 -50q76 -76 76 -224v-546q0 -13 9 -20q8 -6 50 -11l80 -8l6 -70h-430l6 70l80 8q33 2 42 9q9 8 9 22v452q0 78 -14 124 q-16 51 -40 80q-25 30 -60 42t-74 12q-63 0 -125 -33q-64 -34 -105 -71q0 -12 1 -24t1 -37v-37v-23v-485q0 -12 10 -20q8 -6 50 -11l86 -8l6 -70h-436l6 70l80 8q33 2 42 9t9 22v452q0 78 -14 124q-16 51 -40 80q-26 30 -60 42t-75 12q-63 0 -124 -33q-66 -35 -103 -67v-256 v-357q0 -12 10 -19t45 -9l99 -8l6 -70h-447l7 70l81 8q52 2 52 31v575q0 36 -3 59q-3 22 -11 35q-9 14 -20 19q-14 6 -34 12z" />
<glyph unicode="n" horiz-adv-x="1110" d="M49 821l2 56l295 67v-147h10q77 65 160 106q84 41 168 41q47 0 92 -15t80 -50q40 -40 58 -98q18 -57 18 -130v-542q0 -13 10 -20q9 -6 51 -11l82 -8l6 -70h-436l6 70l84 8q33 2 42 9t9 22v446q0 152 -52 208t-144 56q-72 0 -136 -34q-68 -37 -108 -68v-252v-359 q0 -12 10 -19t45 -9l95 -8l6 -70h-443l7 70l81 8q52 2 52 31v579q0 28 -2 56q-1 20 -10 34t-19 19q-12 6 -33 12z" />
<glyph unicode="o" horiz-adv-x="1060" d="M72 453q0 105 37 194q39 94 101 157q64 66 151 103q86 37 186 37q96 0 180 -35q82 -34 140 -97q59 -63 91 -147q33 -86 33 -188q0 -107 -36 -200q-35 -91 -99 -161q-63 -69 -150 -108t-188 -39q-102 0 -183 37q-83 38 -141 102q-61 67 -91 152q-31 87 -31 193zM233 498 q0 -111 28 -211q27 -95 85 -156q26 -26 76 -55q46 -27 117 -27q60 0 114 26q53 26 93 73q40 48 63 116q22 66 22 152q0 116 -26 210q-26 95 -84 156q-32 32 -78 57q-49 27 -117 27q-65 0 -116 -26q-55 -28 -93 -75t-61 -116t-23 -151z" />
<glyph unicode="p" horiz-adv-x="1073" d="M29 821l4 56l293 67v-156h8q55 59 132 103q76 43 165 43q84 0 152 -34q70 -35 117 -94q48 -60 75 -141q26 -78 26 -178q0 -107 -32 -197q-33 -92 -95 -165q-62 -72 -148 -114q-87 -42 -198 -42q-44 0 -102 11q-60 11 -96 26h-4v-403q0 -13 10 -20q11 -8 47 -9l106 -8 l7 -70h-459l6 70l84 8q51 2 51 31v1083q0 28 -2 56q-2 22 -9 34q-8 13 -20 19q-13 7 -32 12zM326 162q44 -43 104 -79q56 -34 131 -34q58 0 111 28q51 27 89 77t60 119q23 72 23 157t-20 157q-20 73 -56 120q-37 49 -87 76q-51 28 -112 28q-76 0 -140 -38q-60 -36 -103 -85 v-526z" />
<glyph unicode="q" horiz-adv-x="1052" d="M70 430q0 106 34 198q34 91 100 162q62 67 154 108q89 40 201 40q57 0 113 -14q61 -15 102 -35h4l92 57h23v-1341q0 -13 10 -20q9 -6 51 -11l82 -8l6 -70h-458l6 70l106 8q33 2 42 9q10 8 10 22v501h-7q-49 -53 -125 -95q-73 -40 -163 -40q-82 0 -151 34q-73 36 -122 95 q-51 61 -81 146q-29 81 -29 184zM229 483q0 -177 80 -283t213 -106q72 0 126 27q58 29 100 67v549q-47 47 -104 83t-132 36q-64 0 -116 -27q-53 -27 -89 -75q-35 -47 -57 -118q-21 -69 -21 -153z" />
<glyph unicode="r" horiz-adv-x="757" d="M51 821l4 56l291 67v-266h8q49 81 82 125q40 54 70 83q32 31 64 46q29 14 65 14q54 0 85 -31q30 -30 30 -73t-25 -74t-72 -31q-32 0 -58 20q-25 19 -40 46q-27 -17 -52 -39q-31 -27 -57 -55q-23 -24 -55 -67q-27 -36 -45 -75v-461q0 -12 10 -19t45 -9l109 -8l6 -70h-457 l7 70l81 8q52 2 52 31v579q0 28 -2 56q-1 20 -10 34t-19 19q-12 6 -33 12z" />
<glyph unicode="s" horiz-adv-x="823" d="M100 276h93l43 -182q35 -24 76 -39q39 -14 91 -14q37 0 74 12q36 12 66 35q28 22 46 54q17 30 17 71t-19 67q-21 29 -51 49q-32 21 -73 38q-11 5 -86 32q-47 16 -99 41q-49 23 -87 55q-37 31 -61 76t-24 111q0 51 21 99t61 85t101 60q59 22 137 22q70 0 114 -10 q39 -9 85 -23l61 21l16 -287h-90l-39 178q-35 23 -78 36q-45 14 -85 14q-77 0 -126 -41q-48 -40 -48 -105q0 -37 16 -63q17 -28 46 -48q30 -21 72 -39q45 -19 91 -36q44 -15 100 -41q50 -23 88 -55q39 -33 63 -78q23 -43 23 -111q0 -57 -22 -108q-23 -53 -68 -94 q-44 -40 -111 -64q-69 -25 -155 -25q-69 0 -141 11q-74 11 -125 32z" />
<glyph unicode="t" horiz-adv-x="702" d="M18 821l2 60l140 84l96 129l72 -9l-2 -174h331l-14 -94h-317l-13 -545q-1 -10 0 -20q0 -86 39 -124q44 -42 125 -42q41 0 86 15q44 15 86 38l13 -53q-50 -51 -121 -84q-72 -33 -140 -33q-104 0 -170 63q-63 60 -63 196v8l12 577z" />
<glyph unicode="u" horiz-adv-x="1077" d="M20 913h306l-15 -553q0 -151 53 -209q52 -57 144 -57q72 0 136 34q68 36 108 71v323v285q0 14 -11 20q-12 7 -45 11l-102 8l-6 67h311v-786q0 -33 19 -39l147 -33l-6 -49l-307 -37v150h-11q-80 -68 -159 -108q-82 -42 -168 -42q-46 0 -92 17t-80 51q-41 40 -59 96 q-17 54 -17 129l4 545q0 21 -12 23q-4 0 -11 1.5t-20 3.5t-23 3l-77 8z" />
<glyph unicode="v" horiz-adv-x="942" d="M-37 913h428l-6 -67l-76 -10q-25 -5 -36 -16q-11 -12 -1 -40l242 -626l211 577q15 44 15 67v7q-3 21 -44 26l-80 15l-6 67h367l-6 -67l-68 -15q-14 -1 -29 -7q-12 -4 -22 -16t-19 -32q-18 -42 -22 -53l-283 -737h-102l-311 786q-15 33 -29 43q-15 10 -51 16l-64 13z" />
<glyph unicode="w" horiz-adv-x="1413" d="M-29 913h410l-6 -67l-68 -10q-26 -5 -37 -19q-12 -15 -2 -41l207 -614l199 524l-31 86q-11 30 -28 44q-13 10 -50 15l-63 15l-6 67h415l-6 -67l-65 -10q-27 -4 -39 -18t-2 -42l221 -618l172 563q11 38 11 63q0 11 -2 19q-7 27 -54 33l-64 10l-6 67h367l-6 -67l-64 -10 q-14 -1 -32 -9q-13 -6 -23 -17q-12 -14 -20 -32q-10 -23 -21 -55l-238 -737h-100l-223 596l-236 -596h-100l-270 786q-11 34 -25 45q-16 13 -47 17l-62 10z" />
<glyph unicode="x" horiz-adv-x="974" d="M-6 0l6 68l70 12q32 4 56 25q20 18 71 75l221 269l-221 286q-40 52 -66 73q-22 18 -59 23l-60 15l-6 67h418l-6 -67l-60 -12q-35 -5 -33 -23q2 -20 33 -63l148 -203h2l154 200q33 43 35 65q1 10 -9.5 16t-30.5 8l-67 12l-6 67h379l-7 -67l-69 -12q-40 -5 -62 -25 q-18 -17 -67 -74l-203 -243l238 -312q40 -51 65 -72q24 -20 55 -26l58 -12l6 -70h-416l6 68l60 12q36 8 36 26q0 16 -30 62l-166 227h-2l-174 -225q-34 -46 -36 -67q-1 -10 9 -15.5t31 -7.5l67 -12l7 -68h-375z" />
<glyph unicode="y" horiz-adv-x="925" d="M-37 913h422l-6 -67l-70 -10q-22 -1 -36 -15q-11 -11 1 -41l254 -604l195 555q12 36 12 58q0 10 -3 17q-7 20 -48 25l-76 15l-6 67h371l-6 -67l-68 -15q-33 -4 -50 -23q-17 -18 -44 -85l-250 -680l-98 -311q-43 -131 -97 -201q-53 -68 -143 -68q-61 0 -97 30t-36 77 q0 43 24 73q23 29 72 29q48 0 74 -20q27 -21 43 -53q25 11 47 50q19 35 43 107l78 224v2l-356 790q-15 30 -27 42q-11 11 -51 17l-60 13z" />
<glyph unicode="z" horiz-adv-x="917" d="M57 0v61l592 783h-65q-124 0 -185 -4q-72 -5 -107 -16q-40 -13 -54 -31q-17 -22 -23 -54l-33 -172h-90v346h737v-61l-589 -780h88q122 0 185 4q77 5 112 14q41 10 62 32q21 21 36 54l76 170h86l-82 -346h-746z" />
<glyph unicode="{" horiz-adv-x="681" d="M51 442l23 56q41 1 97 10q44 7 86 27q37 18 61 48t24 74q0 57 -17 98q-20 48 -39 89q-25 53 -40 95q-19 52 -19 116q0 136 101 216q100 79 288 91v-68q-124 -11 -187 -65q-64 -55 -64 -127q0 -54 18 -97q16 -38 40 -90q21 -45 39 -96q17 -48 17 -117q0 -52 -25 -96 q-24 -43 -65 -79q-37 -33 -85 -53q-46 -20 -87 -21v-25q42 -2 87 -22q47 -21 85 -55q40 -35 65 -78t25 -95q0 -66 -17 -113q-20 -56 -39 -96q-28 -60 -40 -89q-18 -43 -18 -95q0 -36 16 -69t49 -60t79 -45q50 -19 107 -25v-63q-187 10 -288 90t-101 217q0 64 19 116 q16 45 40 94q18 38 39 88q17 41 17 97q0 43 -24 73t-61 48q-41 19 -86 28q-51 10 -97 11z" />
<glyph unicode="|" horiz-adv-x="567" d="M238 -381v1790h90v-1790h-90z" />
<glyph unicode="}" horiz-adv-x="681" d="M66 -414q120 10 186 69q65 58 65 130q0 54 -17 95q-20 48 -39 89q-23 49 -40 96q-18 49 -18 113q0 52 25 95t65 78q38 34 85 55q45 20 87 22v25q-41 1 -87 21q-48 20 -85 53q-41 36 -65 79q-25 44 -25 96q0 66 18 117q15 42 40 96q16 33 39 90q17 41 17 97q0 72 -65 127 t-186 65v68q188 -12 288 -91q101 -80 101 -216q0 -67 -18 -116q-19 -52 -39 -95q-28 -60 -40 -89q-18 -43 -18 -98q0 -44 24 -74t61 -48q42 -20 86 -27q56 -9 97 -10l23 -56l-23 -57q-46 -1 -97 -11q-45 -9 -86 -28q-37 -18 -61 -48t-24 -73q0 -54 18 -97q15 -36 40 -88 q20 -40 39 -94q18 -49 18 -116q0 -137 -101 -217t-288 -90v63z" />
<glyph unicode="~" d="M78 354q21 121 67 180q47 60 129 60q47 0 91 -23q37 -19 80 -50q37 -27 72 -51t61 -24q32 0 56 27t54 107h53q-21 -119 -67 -179q-46 -61 -129 -61q-47 0 -90 24t-81 51q-42 30 -71 50q-32 22 -61 22q-34 0 -57 -26q-24 -27 -54 -107h-53z" />
<glyph unicode="&#xa1;" horiz-adv-x="575" d="M170 1192q0 48 34 82q35 35 85 35q54 0 84 -35q30 -34 30 -82q0 -44 -30 -79q-30 -34 -84 -34q-51 0 -85 34t-34 79zM193 45l75 829q2 13 21 13q18 0 20 -13l78 -829q4 -32 -11 -54q-16 -22 -71 -22h-31q-54 0 -70 22q-15 22 -11 54z" />
<glyph unicode="&#xa2;" horiz-adv-x="903" d="M70 446q0 109 38 202q38 92 103 157q64 64 151 102q84 37 185 37q17 0 47 -2q22 -1 43 -6q1 0 16 56q15 57 33 126l49 182h74l-102 -385q64 -29 96 -70q33 -42 33 -89q0 -42 -27 -66t-55 -24q-70 0 -99 59l-166 -619q29 -8 66 -8q70 0 136 33q69 35 120 94l41 -22 q-61 -114 -154 -173q-96 -61 -209 -61h-18q-6 0 -16 2l-84 -311h-74l86 326q-71 18 -129 62q-57 43 -98 106q-43 65 -64 136q-22 73 -22 156zM225 504q0 -129 54 -231q52 -99 143 -144l190 715q-43 22 -106 22q-60 0 -111 -24t-89 -71q-38 -48 -59 -114q-22 -71 -22 -153z " />
<glyph unicode="&#xa3;" horiz-adv-x="946" d="M8 14q153 47 214 141q61 95 61 228q0 47 -1 72q0 8 -1 23t-1.5 27.5t-0.5 24.5h-207l6 80h196q-4 62 -6 117q-2 74 -2 96q0 102 28 191q27 85 80 147q52 61 128 95q75 34 170 34q98 0 159 -41q60 -41 60 -112q0 -42 -29 -69q-30 -28 -67 -28q-52 0 -82 40q-31 42 -19 104 q-17 11 -40 18q-26 8 -54 8q-38 0 -73 -15q-33 -15 -58 -53t-38 -101q-13 -61 -13 -156q0 -47 3 -119q5 -114 7 -156h334l6 -80h-338q2 -30 2 -45v-45q-1 -75 -20 -148q-17 -66 -50 -124v-10q22 -5 67 -19q7 -2 35 -11t44 -14q44 -15 83 -23q42 -9 79 -9q80 0 110 35 q29 29 49 68q21 41 39 87l45 -12q2 -58 -11 -110q-14 -58 -43 -100q-31 -44 -78 -71q-50 -28 -117 -28q-57 0 -105 19q-46 18 -92 45q-33 20 -80 55q-46 35 -65 47q-46 -59 -119 -105q-71 -44 -172 -67z" />
<glyph unicode="&#xa4;" horiz-adv-x="1056" d="M43 434l6 80h119q-2 30 -3 46t-1 46q0 29 1 42q1 20 3 42h-125l6 80h129q21 116 67 209q48 97 114 162q69 68 157 105q90 38 191 38q67 0 120 -13q58 -14 98 -37t65 -54q24 -30 24 -66q0 -37 -25 -65q-24 -27 -65 -27q-54 0 -84 46q-32 50 -39 101q-29 18 -60 26 q-28 7 -69 7q-145 0 -233 -118q-89 -119 -111 -314h424l6 -80h-436v-49q0 -67 6 -127h424l6 -80h-416q41 -174 137 -260q97 -86 217 -86q91 0 164 44q70 43 125 108l41 -23q-60 -113 -153 -180q-94 -68 -228 -68q-89 0 -164 34q-77 35 -136 94t-102 147q-42 86 -63 190h-137 z" />
<glyph unicode="&#xa5;" horiz-adv-x="1253" d="M20 1280h488l-6 -70l-103 -12q-35 -4 -30 -39t57 -119l233 -389h9l247 436q29 53 24 79q-5 27 -42 34l-78 10l-6 70h412l-6 -70l-60 -10q-43 -13 -72 -33q-32 -22 -65 -77l-272 -463h346l6 -82h-387v-174h381l6 -82h-387v-162q0 -31 37 -37l159 -20l7 -70h-564l6 70 l160 20q37 6 37 37v162h-377l6 82h371v174h-377l6 82h332l-321 512q-9 13 -33 33q-22 18 -51 24l-86 14z" />
<glyph unicode="&#xa7;" horiz-adv-x="880" d="M61 666q0 81 52 145q50 62 123 100q-43 67 -43 144q0 46 22 90q21 42 64 82q39 36 96 59t119 23q42 0 84 -11q43 -11 71 -28q30 -18 50 -46t20 -63q0 -40 -26 -66t-64 -26q-49 0 -81 38q-31 37 -46 107q-30 15 -74 15q-51 0 -87 -33t-36 -96q0 -42 21 -76q24 -40 54 -67 q34 -31 78 -60q29 -19 89 -57q13 -8 97 -63q51 -34 87 -68q40 -38 63 -82q23 -43 23 -105q0 -84 -51 -147q-52 -64 -123 -101q43 -62 43 -141q0 -51 -23 -97q-24 -48 -65 -86q-42 -39 -99 -61t-126 -22q-44 0 -83 10t-72 29q-30 17 -51 46q-20 28 -20 62q0 41 26 67 q25 25 65 25q49 0 80 -37q32 -38 47 -108q21 -11 41 -12q28 -2 43 -2q57 0 91 37q33 36 33 102q0 43 -20 77q-22 38 -54 67q-41 37 -77 61q-44 29 -90 57q-26 16 -98 63q-48 31 -87 69q-36 35 -62 83q-24 45 -24 103zM172 731q0 -76 55 -130q56 -54 131 -103q44 -27 136 -85 q66 -41 118 -100q95 57 95 144q0 36 -16 70q-16 33 -41 60q-29 31 -59 53q-46 34 -71 50q-56 37 -135 85q-73 44 -117 97q-39 -22 -67 -61q-29 -40 -29 -80z" />
<glyph unicode="&#xa8;" d="M92 1223q0 47 30 84q29 36 83 36t83 -36t29 -84t-29 -84q-30 -37 -83 -37t-83 37t-30 84zM502 1223q0 48 29 84t83 36t83 -36q30 -37 30 -84t-30 -84t-83 -37t-83 37q-29 36 -29 84z" />
<glyph unicode="&#xa9;" horiz-adv-x="1503" d="M82 639q0 141 52 261q52 122 144 213q92 92 212 144q125 54 262 54q136 0 261 -54q121 -53 213 -144q90 -90 143 -213q52 -120 52 -261t-52 -261q-53 -123 -143 -213t-213 -143t-261 -53q-139 0 -262 53q-122 52 -212 143q-92 91 -144 213q-52 120 -52 261zM156 639 q0 -121 47 -232q46 -109 128 -192q80 -82 189 -130q108 -48 232 -48q123 0 231 48q109 48 189 130q82 83 128 192q48 113 48 232q0 118 -48 233q-46 109 -128 193q-80 82 -189 130q-108 48 -231 48q-124 0 -232 -48q-109 -48 -189 -130q-82 -84 -128 -193q-47 -112 -47 -233 zM389 627q0 85 29 158q28 71 79 125q49 52 120 81q72 29 155 29q51 0 93 -6q41 -6 73 -17l92 23v-260h-53l-43 151q-30 20 -70 31q-43 12 -102 12q-56 0 -103 -21q-44 -20 -81 -60q-36 -39 -55 -93t-19 -123q0 -147 75 -241t214 -94q34 0 71 8q36 8 58 24l63 162h55 l-26 -242l-58 13q-42 -14 -86 -21q-54 -8 -94 -8q-89 0 -164 28q-70 26 -120 76q-49 49 -76 117q-27 67 -27 148z" />
<glyph unicode="&#xaa;" horiz-adv-x="692" d="M57 1137q0 27 29 58q28 29 74 54q49 26 99 40q58 16 106 16q113 0 165 -61q52 -62 48 -163l-13 -327q-2 -42 9 -58q12 -18 44 -18q34 0 72 22l6 -36q-24 -32 -63 -55t-86 -23q-50 0 -75 28q-26 29 -32 78h-4q-54 -49 -105 -76q-57 -30 -104 -30q-63 0 -115 43 q-53 44 -53 116q0 98 101 157t286 93l3 68q6 79 -44 126q-49 46 -120 46q-37 0 -69 -15t-32 -26q0 -4 13 -23q12 -18 12 -45q0 -29 -20 -47q-19 -18 -54 -18q-36 0 -56 20q-22 22 -22 56zM190 791q0 -45 29 -76t76 -31q35 0 76 21t67 43l6 200q-113 -23 -182 -59 q-72 -37 -72 -98z" />
<glyph unicode="&#xab;" horiz-adv-x="997" d="M68 410v86l444 295l18 -41l-297 -297l297 -297l-18 -41zM453 410v86l442 315l18 -41l-315 -317l315 -318l-18 -41z" />
<glyph unicode="&#xac;" horiz-adv-x="913" d="M70 709q0 37 35 78q36 42 92 77q59 36 122 59q65 23 130 23q87 0 144 -19q59 -19 93 -66t48 -123q14 -77 9 -191l-16 -391q-5 -72 45 -72q23 0 47 15q28 18 58 42l34 -45q-42 -55 -94 -93q-46 -34 -96 -34q-55 0 -93 36t-38 116h-8q-65 -69 -121 -108q-62 -44 -135 -44 q-52 0 -97 18q-43 17 -78 49q-33 30 -55 76q-20 41 -20 95q0 68 29 116t94 93q61 42 162 79q88 32 237 68v19q0 84 -13 135q-14 55 -40 85q-28 32 -67 44q-41 12 -89 12q-25 0 -57 -5q-21 -3 -52 -13q-17 -5 -38 -18q-15 -9 -15 -17t21 -32q20 -23 20 -62q0 -35 -27 -64 t-73 -29q-43 0 -71 25q-27 24 -27 66zM225 242q0 -74 45 -116t111 -42q53 0 101 30q53 33 100 76l12 308q-100 -26 -173 -56q-69 -28 -114 -59q-40 -28 -62 -66q-20 -35 -20 -75z" />
<glyph unicode="&#xad;" horiz-adv-x="671" d="M70 428l6 104h524l6 -104h-536z" />
<glyph unicode="&#xae;" horiz-adv-x="1503" d="M82 639q0 141 52 261q52 122 144 213q92 92 212 144q125 54 262 54q136 0 261 -54q121 -53 213 -144q90 -90 143 -213q52 -120 52 -261t-52 -261q-53 -123 -143 -213t-213 -143t-261 -53q-139 0 -262 53q-122 52 -212 143q-92 91 -144 213q-52 120 -52 261zM156 639 q0 -121 47 -232q46 -109 128 -192q80 -82 189 -130q108 -48 232 -48q123 0 231 48q109 48 189 130q82 83 128 192q48 113 48 232q0 118 -48 233q-46 109 -128 193q-80 82 -189 130q-108 48 -231 48q-124 0 -232 -48q-109 -48 -189 -130q-82 -84 -128 -193q-47 -112 -47 -233 zM440 281l6 59l76 12q21 2 21 23v538q0 21 -21 23l-76 12l-6 60h324q67 0 120 -16q50 -15 83 -42q34 -28 48 -59q15 -33 15 -70q0 -78 -47 -131t-131 -80l145 -221q23 -26 30 -31q6 -4 22 -10l69 -8l6 -59h-190l-45 81l-141 224l-97 4v-215q0 -21 21 -23l88 -12l4 -59h-324z M651 655l94 -10q72 6 119 44t47 114q0 149 -198 141l-62 -2v-287z" />
<glyph unicode="&#xaf;" d="M160 1104l6 84h493l7 -84h-506z" />
<glyph unicode="&#xb0;" horiz-adv-x="841" d="M80 987q0 72 23 132q23 61 68 109q43 46 108 74q63 27 141 27q79 0 142 -27t107 -74q43 -46 67 -109t24 -132q0 -67 -24 -129q-24 -61 -67 -107q-44 -47 -107 -74q-65 -28 -142 -28q-76 0 -141 28t-108 74q-45 48 -68 107t-23 129zM174 987q0 -50 16 -95q16 -44 49 -82 q31 -35 77 -56q47 -21 104 -21q56 0 103 21q48 22 78 56q31 35 49 82q18 46 18 95q0 53 -18 100q-19 49 -49 82q-32 35 -78 56q-44 20 -103 20q-60 0 -104 -20t-77 -56t-49 -82q-16 -45 -16 -100z" />
<glyph unicode="&#xb1;" horiz-adv-x="1503" d="M82 639q0 141 52 261q52 122 144 213q92 92 212 144q125 54 262 54q136 0 261 -54q121 -53 213 -144q90 -90 143 -213q52 -120 52 -261t-52 -261q-53 -123 -143 -213t-213 -143t-261 -53q-139 0 -262 53q-122 52 -212 143q-92 91 -144 213q-52 120 -52 261zM156 639 q0 -121 47 -232q46 -109 128 -192q80 -82 189 -130q108 -48 232 -48q123 0 231 48q109 48 189 130q82 83 128 192q48 113 48 232q0 118 -48 233q-46 109 -128 193q-80 82 -189 130q-108 48 -231 48q-124 0 -232 -48q-109 -48 -189 -130q-82 -84 -128 -193q-47 -112 -47 -233 zM487 281l5 59l77 12q21 2 21 23v540q0 19 -21 21l-77 14l-5 58h293q147 0 217 -58t70 -145q0 -54 -23 -102q-22 -45 -60 -77q-40 -34 -88 -51q-50 -18 -105 -18q-35 0 -49 1q-31 2 -46 5v-188q0 -19 21 -23l98 -12l2 -59h-330zM696 627l42 -7q26 -4 48 -4q76 0 124 46 q46 45 46 122q0 78 -51 120q-50 42 -143 40h-66v-317z" />
<glyph unicode="&#xb4;" d="M307 1040l193 377h192l-338 -377h-47z" />
<glyph unicode="&#xb5;" horiz-adv-x="940" d="M20 -274q0 46 17 85q16 35 44 67q28 31 61 51q40 24 71 38v8q-56 10 -94 54q-37 43 -37 94q0 61 50 114q48 51 116 82q0 7 2 7h2q-78 34 -127 106q-49 71 -49 176q0 72 27 132q27 59 76 107q47 46 115 72q65 25 144 25q71 0 124 -14q58 -15 106 -37l278 -2v-119l-219 39 v-10q27 -33 46 -78q18 -43 18 -104q0 -65 -28 -126q-27 -59 -77 -104q-51 -46 -115 -71q-65 -25 -141 -25q-28 0 -60 3t-53 9q-13 -7 -28 -16q-19 -12 -32 -25q-17 -17 -26 -31q-10 -16 -10 -34q0 -41 36 -68t93 -27q37 0 60 1q46 2 68 2q44 0 64 1t46 1q70 0 125 -21 q56 -21 94 -56q39 -36 60 -83q22 -49 22 -103q0 -79 -38 -147q-37 -67 -106 -116q-68 -48 -160 -75q-90 -26 -202 -26q-166 0 -264 67q-99 68 -99 177zM160 -227q0 -52 23 -91q25 -42 64 -68q41 -27 94 -42q50 -14 118 -14q67 0 118 17q56 19 93 47q39 30 60 71q22 42 22 88 q0 77 -49 128q-48 49 -173 54h-50q-27 0 -42 -1q-8 -1 -26.5 -1.5t-28.5 -0.5q-22 -1 -90 -1q-17 -6 -40 -22t-44 -40q-17 -20 -35 -55q-14 -28 -14 -69zM229 635q0 -77 24 -137t64 -97q52 -43 115 -43q86 0 133 45q74 66 74 211q0 70 -18 124t-56 89q-57 52 -129 52 q-93 0 -150 -69t-57 -175z" />
<glyph unicode="&#xb6;" horiz-adv-x="1011" d="M82 905q0 91 32 163t90 118t140 70t180 24h312v-1346h-99v627q-50 -16 -101 -22q-56 -7 -85 -7q-118 0 -208 29q-88 28 -146 80q-57 51 -86 119q-29 69 -29 145z" />
<glyph unicode="&#xb7;" horiz-adv-x="462" d="M106 465q0 49 36 86t94 37q56 0 90 -37t34 -86q0 -50 -34 -88q-34 -39 -90 -39q-58 0 -94 39t-36 88z" />
<glyph unicode="&#xb8;" d="M209 -502q162 22 242 67q77 43 77 113q0 50 -43 80q-45 31 -131 31q-28 0 -58 -3q-40 -4 -60 -7v35l213 225h81l-151 -160q115 4 190 -43q74 -47 74 -137q0 -99 -107 -164t-311 -82z" />
<glyph unicode="&#xba;" horiz-adv-x="788" d="M49 942q0 73 26 140q27 69 71 116q46 50 111 78q66 29 140 29q78 0 142 -29q63 -29 107 -77q44 -49 68 -114q23 -63 23 -139q0 -74 -25 -139q-25 -64 -71 -115q-44 -49 -109 -78q-62 -28 -141 -28q-78 0 -141 27q-65 28 -108 77q-44 50 -68 114q-25 67 -25 138zM190 979 q0 -93 24 -165q24 -74 65 -114q21 -21 55 -35t74 -14q82 0 135 68t53 190q0 87 -22 162q-21 72 -62 113q-23 23 -56 40t-75 17q-84 0 -137 -70q-54 -71 -54 -192z" />
<glyph unicode="&#xbb;" horiz-adv-x="997" d="M86 135l315 318l-315 317l20 41l441 -315v-86l-441 -316zM469 156l299 297l-299 297l18 41l445 -295v-86l-445 -295z" />
<glyph unicode="&#xbf;" horiz-adv-x="731" d="M86 307q0 65 16 106t45 70q27 27 69 49t85 39q36 13 66 26q34 15 55 31q25 19 39 41t14 56q0 50 -32 93q-34 45 -76 83h61q32 -26 44 -38q29 -27 47 -53q23 -33 37 -65q15 -35 15 -73q0 -52 -18 -90t-50 -65q-31 -26 -74 -48q-17 -8 -89 -41q-12 -5 -35 -14.5t-32 -13.5 q-37 -16 -56 -29q-24 -17 -39 -36q-14 -18 -14 -46q0 -68 87 -116t230 -48q41 0 70 4q47 6 55 8q11 -11 15 -27t4 -34q0 -47 -41 -77q-40 -30 -111 -30q-85 0 -155 30q-67 29 -122 77q-52 46 -81 107t-29 124zM307 1192q0 47 32 82t83 35q52 0 87 -35q34 -34 34 -82 q0 -45 -34 -79t-87 -34q-52 0 -83 34q-32 35 -32 79z" />
<glyph unicode="&#xc0;" horiz-adv-x="1202" d="M-33 0l6 70l82 14q23 6 40 16q18 11 36 40q21 34 41 86q20 50 55 151l285 803v65l170 72l395 -1188q11 -33 51 -39l121 -20l6 -70h-526l6 70l117 14q22 5 31 11q9 7 11 24t-6 45q-10 38 -22 74l-75 225h-443l-74 -223q-27 -80 -29 -116q-2 -32 36 -40l102 -14l6 -70h-422 zM279 1763h186l197 -377h-46zM377 547h387l-182 575h-11z" />
<glyph unicode="&#xc1;" horiz-adv-x="1202" d="M-33 0l6 70l82 14q23 6 40 16q18 11 36 40q21 34 41 86q20 50 55 151l285 803v65l170 72l395 -1188q11 -33 51 -39l121 -20l6 -70h-526l6 70l117 14q22 5 31 11q9 7 11 24t-6 45q-10 38 -22 74l-75 225h-443l-74 -223q-27 -80 -29 -116q-2 -32 36 -40l102 -14l6 -70h-422 zM377 547h387l-182 575h-11zM524 1386l193 377h192l-338 -377h-47z" />
<glyph unicode="&#xc2;" horiz-adv-x="1202" d="M-33 0l6 70l82 14q23 6 40 16q18 11 36 40q21 34 41 86q20 50 55 151l285 803v65l170 72l395 -1188q11 -33 51 -39l121 -20l6 -70h-526l6 70l117 14q22 5 31 11q9 7 11 24t-6 45q-10 38 -22 74l-75 225h-443l-74 -223q-27 -80 -29 -116q-2 -32 36 -40l102 -14l6 -70h-422 zM334 1386l227 398h78l227 -398h-55l-209 252h-4l-209 -252h-55zM377 547h387l-182 575h-11z" />
<glyph unicode="&#xc3;" horiz-adv-x="1202" d="M-33 0l6 70l82 14q23 6 40 16q18 11 36 40q21 34 41 86q20 50 55 151l285 803v65l170 72l395 -1188q11 -33 51 -39l121 -20l6 -70h-526l6 70l117 14q22 5 31 11q9 7 11 24t-6 45q-10 38 -22 74l-75 225h-443l-74 -223q-27 -80 -29 -116q-2 -32 36 -40l102 -14l6 -70h-422 zM268 1425q21 120 68 180q46 60 129 60q46 0 90 -23q41 -21 81 -50q38 -27 72 -51q33 -23 60 -23q33 0 56 26q25 29 55 107h53q-21 -115 -68 -178q-47 -62 -129 -62q-47 0 -90 24t-81 51q-60 43 -70 50q-34 23 -62 23q-32 0 -56 -27t-54 -107h-54zM377 547h387l-182 575h-11 z" />
<glyph unicode="&#xc4;" horiz-adv-x="1202" d="M-33 0l6 70l82 14q23 6 40 16q18 11 36 40q21 34 41 86q20 50 55 151l285 803v65l170 72l395 -1188q11 -33 51 -39l121 -20l6 -70h-526l6 70l117 14q22 5 31 11q9 7 11 24t-6 45q-10 38 -22 74l-75 225h-443l-74 -223q-27 -80 -29 -116q-2 -32 36 -40l102 -14l6 -70h-422 zM283 1556q0 48 29 84q30 37 83 37t83 -37q30 -38 30 -84t-30 -83t-83 -37t-83 37q-29 36 -29 83zM377 547h387l-182 575h-11zM692 1556q0 46 30 84q30 37 83 37t83 -37q30 -38 30 -84t-30 -83t-83 -37t-83 37t-30 83z" />
<glyph unicode="&#xc5;" horiz-adv-x="1202" d="M-33 0l6 70l82 14q23 6 40 16q18 11 36 40q21 34 41 86q20 50 55 151l308 864q-52 21 -80 67q-29 47 -29 103q0 76 48 130t134 54t134 -54q49 -55 49 -130q0 -50 -23 -94t-63 -68l372 -1120q11 -33 51 -39l121 -20l6 -70h-526l6 70l117 14q22 5 31 11q9 7 11 24t-6 45 q-10 38 -22 74l-75 225h-443l-74 -223q-27 -80 -29 -116q-2 -32 36 -40l102 -14l6 -70h-422zM377 547h387l-182 577h-11zM487 1411q0 -52 32 -92q31 -39 89 -39q60 0 91 39q32 40 32 92q0 50 -32 90q-31 39 -91 39q-58 0 -89 -39q-32 -40 -32 -90z" />
<glyph unicode="&#xc6;" horiz-adv-x="1646" d="M-106 0l6 70l86 14q25 6 44 15q18 8 43 38q22 26 56 85q35 61 84 157l381 725q43 79 -41 94l-88 12l-6 70h1079v-371h-80l-45 207q-7 29 -20 48q-12 18 -56 27q-46 10 -127 11q-112 2 -235 2h-62v-514h60q80 0 106 1q46 2 61 5q22 5 29 12q10 10 13 21l47 137h65 l-41 -426h-65l-14 131q-1 10 -8 21q-5 8 -25 14q-23 7 -61 8q-54 2 -111 2h-56v-540h35q166 0 259 3q95 3 141 12q47 9 62 27q17 21 24 46l51 198h92l-39 -362h-950l6 70l125 20q37 6 37 37v336h-396l-102 -201q-15 -31 -41 -88q-13 -30 -17 -51q-3 -18 5 -26q6 -6 22 -11 l103 -16l6 -70h-442zM403 547h353v647h-19z" />
<glyph unicode="&#xc7;" horiz-adv-x="1366" d="M94 621q0 159 54 286q53 125 150 216t224 138q129 48 279 48q84 0 165 -13q79 -13 119 -26l156 33v-416h-86l-53 266q-53 30 -126 53q-74 23 -188 23q-111 0 -205 -44q-92 -43 -161 -121q-68 -76 -105 -183q-36 -102 -36 -234q0 -133 35 -241q36 -111 104 -191 q69 -81 166 -124q100 -44 225 -44q78 0 143 16q66 16 121 46l86 276h90l-49 -387l-94 20q-40 -13 -127 -30q-73 -14 -154 -19l-86 -90q116 4 191 -43q74 -47 74 -137q0 -98 -108 -164q-107 -65 -310 -82l-17 45q162 22 242 67q78 43 78 113q0 50 -43 80q-45 31 -131 31 q-29 0 -59 -3q-40 -4 -60 -7v35l147 157q-135 6 -258 54q-115 45 -206 130q-89 83 -138 200t-49 266z" />
<glyph unicode="&#xc8;" horiz-adv-x="1193" d="M86 0l6 70l107 12q53 6 53 29v1060q0 14 -10 18q-11 5 -43 9l-107 12l-6 70h983v-371h-88l-45 207q-7 28 -22 48q-14 18 -56 27q-46 10 -127 11q-112 2 -233 2h-78v-514h78q78 0 103 1q44 2 59 5q22 5 31 12q10 9 14 21l45 137h71l-43 -426h-67l-17 131q0 13 -5 21 t-25 14q-23 7 -61 8q-54 2 -109 2h-74v-540h55q163 0 255 3t138 12q48 9 63 27q14 17 25 46l52 198h100l-39 -362h-983zM301 1763h186l197 -377h-45z" />
<glyph unicode="&#xc9;" horiz-adv-x="1193" d="M86 0l6 70l107 12q53 6 53 29v1060q0 14 -10 18q-11 5 -43 9l-107 12l-6 70h983v-371h-88l-45 207q-7 28 -22 48q-14 18 -56 27q-46 10 -127 11q-112 2 -233 2h-78v-514h78q78 0 103 1q44 2 59 5q22 5 31 12q10 9 14 21l45 137h71l-43 -426h-67l-17 131q0 13 -5 21 t-25 14q-23 7 -61 8q-54 2 -109 2h-74v-540h55q163 0 255 3t138 12q48 9 63 27q14 17 25 46l52 198h100l-39 -362h-983zM539 1386l192 377h193l-338 -377h-47z" />
<glyph unicode="&#xca;" horiz-adv-x="1193" d="M86 0l6 70l107 12q53 6 53 29v1060q0 14 -10 18q-11 5 -43 9l-107 12l-6 70h983v-371h-88l-45 207q-7 28 -22 48q-14 18 -56 27q-46 10 -127 11q-112 2 -233 2h-78v-514h78q78 0 103 1q44 2 59 5q22 5 31 12q10 9 14 21l45 137h71l-43 -426h-67l-17 131q0 13 -5 21 t-25 14q-23 7 -61 8q-54 2 -109 2h-74v-540h55q163 0 255 3t138 12q48 9 63 27q14 17 25 46l52 198h100l-39 -362h-983zM332 1386l227 398h78l227 -398h-55l-209 252h-4l-209 -252h-55z" />
<glyph unicode="&#xcb;" horiz-adv-x="1193" d="M86 0l6 70l107 12q53 6 53 29v1060q0 14 -10 18q-11 5 -43 9l-107 12l-6 70h983v-371h-88l-45 207q-7 28 -22 48q-14 18 -56 27q-46 10 -127 11q-112 2 -233 2h-78v-514h78q78 0 103 1q44 2 59 5q22 5 31 12q10 9 14 21l45 137h71l-43 -426h-67l-17 131q0 13 -5 21 t-25 14q-23 7 -61 8q-54 2 -109 2h-74v-540h55q163 0 255 3t138 12q48 9 63 27q14 17 25 46l52 198h100l-39 -362h-983zM281 1556q0 48 29 84q30 37 83 37t83 -37q30 -38 30 -84t-30 -83t-83 -37t-83 37q-29 36 -29 83zM690 1556q0 46 30 84q30 37 83 37t83 -37 q29 -36 29 -84q0 -47 -29 -83q-30 -37 -83 -37t-83 37t-30 83z" />
<glyph unicode="&#xcc;" horiz-adv-x="718" d="M16 1763h187l196 -377h-45zM90 0l6 70l127 12q53 6 53 29v1060q0 14 -10 18q-11 5 -43 9l-127 12l-6 70h541l-6 -70l-127 -12q-54 -6 -54 -29v-1060q0 -13 12 -18t42 -9l127 -12l6 -70h-541z" />
<glyph unicode="&#xcd;" horiz-adv-x="718" d="M90 0l6 70l127 12q53 6 53 29v1060q0 14 -10 18q-11 5 -43 9l-127 12l-6 70h541l-6 -70l-127 -12q-54 -6 -54 -29v-1060q0 -13 12 -18t42 -9l127 -12l6 -70h-541zM322 1386l192 377h193l-338 -377h-47z" />
<glyph unicode="&#xce;" horiz-adv-x="718" d="M90 0l6 70l127 12q53 6 53 29v1060q0 14 -10 18q-11 5 -43 9l-127 12l-6 70h541l-6 -70l-127 -12q-54 -6 -54 -29v-1060q0 -13 12 -18t42 -9l127 -12l6 -70h-541zM92 1386l227 398h78l228 -398h-56l-209 252h-4l-209 -252h-55z" />
<glyph unicode="&#xcf;" horiz-adv-x="718" d="M41 1563q0 47 30 84q29 36 83 36t83 -36t29 -84t-29 -84q-30 -37 -83 -37t-83 37t-30 84zM90 0l6 70l127 12q53 6 53 29v1060q0 14 -10 18q-11 5 -43 9l-127 12l-6 70h541l-6 -70l-127 -12q-54 -6 -54 -29v-1060q0 -13 12 -18t42 -9l127 -12l6 -70h-541zM451 1563 q0 48 29 84t83 36t83 -36q30 -37 30 -84t-30 -84t-83 -37t-83 37q-29 36 -29 84z" />
<glyph unicode="&#xd0;" horiz-adv-x="1370" d="M68 614l6 80h178v459q0 31 -37 37l-125 20l-6 70l444 6q175 2 312 -44q139 -46 238 -129t154 -198q54 -114 54 -249q0 -143 -47 -266t-141 -211q-96 -90 -238 -139q-145 -50 -334 -50h-442l6 70l125 20q37 6 37 37v487h-184zM410 102l165 -26q130 -2 227 38 q101 41 169 112q68 70 106 172q37 98 37 214q0 134 -41 245q-40 109 -120 187q-80 79 -195 120q-117 42 -271 42h-77v-512h254l6 -80h-260v-512z" />
<glyph unicode="&#xd1;" horiz-adv-x="1505" d="M76 0l6 70l123 16q23 4 36 12q13 7 19 38q7 33 8 86q2 76 2 155v676q0 67 -14 94q-15 29 -49 45l-117 18l-6 70h354l738 -1032h6v655q0 79 -2 155q-1 47 -9 86q-6 31 -19 38q-14 8 -36 12l-123 16l-6 70h473l-6 -70l-123 -16q-23 -4 -36 -12q-12 -7 -20 -38 q-8 -30 -9 -86q-2 -76 -2 -155v-919h-99l-805 1126h-8v-733q0 -79 2 -155q1 -53 8 -86q6 -30 20 -38t36 -12l123 -16l6 -70h-471zM422 1425q21 121 67 180q47 60 129 60q47 0 91 -23q41 -21 81 -50q66 -48 71 -51q33 -23 61 -23q33 0 56 26q24 27 54 107h53 q-21 -117 -67 -178q-47 -62 -129 -62q-47 0 -90 24t-81 51q-42 30 -71 50q-34 23 -61 23q-33 0 -57 -27t-54 -107h-53z" />
<glyph unicode="&#xd2;" horiz-adv-x="1513" d="M94 629q0 136 50 260q48 119 140 216q88 92 211 147q124 55 265 55q138 0 261 -49q121 -48 209 -135q90 -88 139 -209q50 -123 50 -269q0 -136 -50 -260q-49 -122 -139 -215q-89 -92 -211 -146q-124 -55 -265 -55q-140 0 -262 48q-117 46 -209 135q-90 87 -139 207 q-50 123 -50 270zM281 651q0 -146 38 -257q38 -110 106 -191q65 -77 154 -120q87 -42 181 -42q96 0 181 39t151 114q65 74 103 183t38 246q0 144 -40 257t-106 191q-67 79 -152 120q-87 42 -183 42q-95 0 -181 -39q-85 -39 -150 -114q-67 -78 -103 -182q-37 -107 -37 -247z M453 1763h186l197 -377h-45z" />
<glyph unicode="&#xd3;" horiz-adv-x="1513" d="M94 629q0 136 50 260q48 119 140 216q88 92 211 147q124 55 265 55q138 0 261 -49q121 -48 209 -135q90 -88 139 -209q50 -123 50 -269q0 -136 -50 -260q-49 -122 -139 -215q-89 -92 -211 -146q-124 -55 -265 -55q-140 0 -262 48q-117 46 -209 135q-90 87 -139 207 q-50 123 -50 270zM281 651q0 -146 38 -257q38 -110 106 -191q65 -77 154 -120q87 -42 181 -42q96 0 181 39t151 114q65 74 103 183t38 246q0 144 -40 257t-106 191q-67 79 -152 120q-87 42 -183 42q-95 0 -181 -39q-85 -39 -150 -114q-67 -78 -103 -182q-37 -107 -37 -247z M653 1386l193 377h192l-338 -377h-47z" />
<glyph unicode="&#xd4;" horiz-adv-x="1513" d="M94 629q0 136 50 260q48 119 140 216q88 92 211 147q124 55 265 55q138 0 261 -49q121 -48 209 -135q90 -88 139 -209q50 -123 50 -269q0 -136 -50 -260q-49 -122 -139 -215q-89 -92 -211 -146q-124 -55 -265 -55q-140 0 -262 48q-117 46 -209 135q-90 87 -139 207 q-50 123 -50 270zM281 651q0 -146 38 -257q38 -110 106 -191q65 -77 154 -120q87 -42 181 -42q96 0 181 39t151 114q65 74 103 183t38 246q0 144 -40 257t-106 191q-67 79 -152 120q-87 42 -183 42q-95 0 -181 -39q-85 -39 -150 -114q-67 -78 -103 -182q-37 -107 -37 -247z M489 1386l228 398h78l227 -398h-55l-209 252h-4l-209 -252h-56z" />
<glyph unicode="&#xd5;" horiz-adv-x="1513" d="M94 629q0 136 50 260q48 119 140 216q88 92 211 147q124 55 265 55q138 0 261 -49q121 -48 209 -135q90 -88 139 -209q50 -123 50 -269q0 -136 -50 -260q-49 -122 -139 -215q-89 -92 -211 -146q-124 -55 -265 -55q-140 0 -262 48q-117 46 -209 135q-90 87 -139 207 q-50 123 -50 270zM281 651q0 -146 38 -257q38 -110 106 -191q65 -77 154 -120q87 -42 181 -42q96 0 181 39t151 114q65 74 103 183t38 246q0 144 -40 257t-106 191q-67 79 -152 120q-87 42 -183 42q-95 0 -181 -39q-85 -39 -150 -114q-67 -78 -103 -182q-37 -107 -37 -247z M424 1425q21 120 68 180q46 60 129 60q46 0 90 -23q41 -21 81 -50q66 -48 71 -51q33 -23 61 -23q33 0 56 26q24 27 54 107h53q-21 -117 -67 -178q-47 -62 -129 -62q-47 0 -90 24t-81 51q-42 30 -71 50q-34 23 -61 23q-33 0 -57 -27t-54 -107h-53z" />
<glyph unicode="&#xd6;" horiz-adv-x="1513" d="M94 629q0 136 50 260q48 119 140 216q88 92 211 147q124 55 265 55q138 0 261 -49q121 -48 209 -135q90 -88 139 -209q50 -123 50 -269q0 -136 -50 -260q-49 -122 -139 -215q-89 -92 -211 -146q-124 -55 -265 -55q-140 0 -262 48q-117 46 -209 135q-90 87 -139 207 q-50 123 -50 270zM281 651q0 -146 38 -257q38 -110 106 -191q65 -77 154 -120q87 -42 181 -42q96 0 181 39t151 114q65 74 103 183t38 246q0 144 -40 257t-106 191q-67 79 -152 120q-87 42 -183 42q-95 0 -181 -39q-85 -39 -150 -114q-67 -78 -103 -182q-37 -107 -37 -247z M438 1556q0 46 30 84q30 37 83 37t83 -37q30 -38 30 -84t-30 -83t-83 -37t-83 37t-30 83zM848 1556q0 46 30 84q30 37 83 37q52 0 82 -37q30 -38 30 -84t-30 -83t-82 -37q-53 0 -83 37t-30 83z" />
<glyph unicode="&#xd7;" horiz-adv-x="995" d="M80 133l346 346l-346 344l76 76l346 -346l346 348l76 -76l-349 -346l347 -346l-76 -76l-344 346l-346 -346z" />
<glyph unicode="&#xd8;" horiz-adv-x="1513" d="M86 629q0 135 45 258t129 216q82 91 204 149q120 57 271 57q170 0 307 -72l99 172h90l-121 -209q128 -86 201 -226t73 -325q0 -135 -45 -258t-129 -216q-84 -92 -204 -149q-122 -57 -273 -57q-81 0 -158 18q-79 18 -143 50q-24 -44 -36 -64q-34 -57 -36 -61 q-24 -44 -36 -64h-91l132 228q-129 84 -204 225t-75 328zM254 666q0 -158 48 -278t128 -200l553 949q-114 90 -264 90q-97 0 -183 -39q-83 -38 -148 -112q-61 -70 -98 -176q-36 -104 -36 -234zM489 137q118 -82 261 -82q97 0 184 38q84 37 148 110q63 72 99 175 q36 104 36 234q0 152 -49 274q-48 119 -126 199q-27 -45 -276 -473q-13 -23 -47.5 -82.5t-52.5 -91.5q-11 -20 -30 -52.5t-32.5 -56t-25.5 -43.5t-23.5 -40t-23.5 -40t-17 -28z" />
<glyph unicode="&#xd9;" horiz-adv-x="1456" d="M70 1280h499l-6 -70l-106 -12q-54 -6 -54 -29v-708q0 -110 29 -185q28 -71 79 -118q50 -46 119 -65q67 -19 148 -19q174 0 262 99q88 98 88 261v469q0 79 -2 155q-1 53 -8 86q-6 31 -19 38q-13 8 -36 12l-123 16l-6 70h471l-6 -70l-121 -16q-22 -4 -36 -12 q-12 -7 -20 -38q-9 -35 -10 -86q-2 -76 -2 -155v-479q0 -111 -33 -191q-34 -82 -98 -142q-63 -59 -154 -90q-93 -32 -204 -32q-110 0 -202 28q-88 27 -152 85q-63 57 -98 146q-33 85 -33 212v731q0 13 -11 18t-43 9l-106 12zM422 1763h186l197 -377h-45z" />
<glyph unicode="&#xda;" horiz-adv-x="1456" d="M70 1280h499l-6 -70l-106 -12q-54 -6 -54 -29v-708q0 -110 29 -185q28 -71 79 -118q50 -46 119 -65q67 -19 148 -19q174 0 262 99q88 98 88 261v469q0 79 -2 155q-1 53 -8 86q-6 31 -19 38q-13 8 -36 12l-123 16l-6 70h471l-6 -70l-121 -16q-22 -4 -36 -12 q-12 -7 -20 -38q-9 -35 -10 -86q-2 -76 -2 -155v-479q0 -111 -33 -191q-34 -82 -98 -142q-63 -59 -154 -90q-93 -32 -204 -32q-110 0 -202 28q-88 27 -152 85q-63 57 -98 146q-33 85 -33 212v731q0 13 -11 18t-43 9l-106 12zM684 1386l193 377h192l-338 -377h-47z" />
<glyph unicode="&#xdb;" horiz-adv-x="1456" d="M70 1280h499l-6 -70l-106 -12q-54 -6 -54 -29v-708q0 -110 29 -185q28 -71 79 -118q50 -46 119 -65q67 -19 148 -19q174 0 262 99q88 98 88 261v469q0 79 -2 155q-1 53 -8 86q-6 31 -19 38q-13 8 -36 12l-123 16l-6 70h471l-6 -70l-121 -16q-22 -4 -36 -12 q-12 -7 -20 -38q-9 -35 -10 -86q-2 -76 -2 -155v-479q0 -111 -33 -191q-34 -82 -98 -142q-63 -59 -154 -90q-93 -32 -204 -32q-110 0 -202 28q-88 27 -152 85q-63 57 -98 146q-33 85 -33 212v731q0 13 -11 18t-43 9l-106 12zM489 1386l228 398h78l227 -398h-55l-209 252h-4 l-209 -252h-56z" />
<glyph unicode="&#xdc;" horiz-adv-x="1456" d="M70 1280h499l-6 -70l-106 -12q-54 -6 -54 -29v-708q0 -110 29 -185q28 -71 79 -118q50 -46 119 -65q67 -19 148 -19q174 0 262 99q88 98 88 261v469q0 79 -2 155q-1 53 -8 86q-6 31 -19 38q-13 8 -36 12l-123 16l-6 70h471l-6 -70l-121 -16q-22 -4 -36 -12 q-12 -7 -20 -38q-9 -35 -10 -86q-2 -76 -2 -155v-479q0 -111 -33 -191q-34 -82 -98 -142q-63 -59 -154 -90q-93 -32 -204 -32q-110 0 -202 28q-88 27 -152 85q-63 57 -98 146q-33 85 -33 212v731q0 13 -11 18t-43 9l-106 12zM410 1556q0 48 29 84q30 37 83 37t83 -37 q30 -38 30 -84t-30 -83t-83 -37t-83 37q-29 36 -29 83zM819 1556q0 46 30 84q30 37 83 37t83 -37q29 -36 29 -84q0 -47 -29 -83q-30 -37 -83 -37t-83 37t-30 83z" />
<glyph unicode="&#xdd;" horiz-adv-x="1239" d="M-14 1280h499l-6 -70l-102 -12q-35 -5 -31 -39q5 -36 55 -119l246 -407h10l267 454q32 51 27 79q-5 26 -44 34l-78 10l-6 70h414l-6 -70l-62 -10q-41 -12 -71 -33q-32 -23 -68 -77l-321 -533v-448q0 -14 10 -18q11 -5 43 -9l139 -12l6 -70h-567l6 70l141 12q54 6 54 29 v426l-381 602q-7 10 -34 33q-21 18 -50 24l-84 14zM518 1393l193 376h192l-338 -376h-47z" />
<glyph unicode="&#xde;" horiz-adv-x="1181" d="M86 0l6 70l107 12q53 6 53 29v1060q0 14 -10 18q-11 5 -43 9l-107 12l-6 70h500l-6 -70l-107 -12q-17 -2 -35 -9t-18 -20v-137h162q128 0 223 -27q93 -27 158 -76t94 -114q30 -66 30 -141q0 -98 -38 -171t-106 -127q-64 -51 -157 -79q-90 -27 -192 -27q-49 0 -88 3 q-16 1 -86 8v-172q0 -14 11 -18q12 -5 42 -9l145 -12l7 -70h-539zM420 365q51 -12 84 -16q45 -5 96 -5q148 0 227 79q80 80 80 218q0 153 -99 235t-282 78h-106v-589z" />
<glyph unicode="&#xdf;" horiz-adv-x="1349" d="M25 821l12 90h149l2 52q5 104 40 188q36 85 95 147t133 96q72 33 156 33q75 0 125 -33q54 -35 54 -89q0 -44 -26 -68q-27 -25 -63 -25q-42 0 -77 33q-36 34 -52 94l-2 11l-51 4q-86 -34 -132 -129q-46 -93 -46 -248v-870q0 -13 11 -20q12 -8 46 -9l99 -8l6 -70h-451l6 70 l86 8q52 2 52 31v704zM612 276h93l45 -182q35 -24 76 -39q39 -14 89 -14q39 0 76 12q36 12 66 35q28 22 46 54q17 30 17 71t-19 67q-21 29 -51 49q-32 21 -73 38q-11 5 -86 32q-47 16 -99 41q-46 22 -86 55q-39 33 -62 76t-23 111q0 53 20 99q21 48 61 85t101 60 q59 22 137 22q69 0 113 -10q41 -9 84 -23l63 21l17 -287h-93l-39 178q-35 23 -78 36q-45 14 -85 14q-75 0 -124 -41q-48 -40 -48 -105q0 -37 16 -63q17 -28 46 -48t71 -39q39 -17 92 -36q39 -14 98 -41q50 -23 88 -55q41 -35 64 -78q24 -45 24 -111q0 -57 -22 -108 q-23 -53 -68 -94q-44 -40 -111 -64q-69 -25 -155 -25q-70 0 -142 11q-73 11 -126 32z" />
<glyph unicode="&#xe0;" horiz-adv-x="899" d="M70 709q0 37 35 78q36 42 92 77q59 36 122 59q65 23 130 23q87 0 144 -19q59 -19 93 -66t48 -123q14 -77 9 -191l-16 -391q-5 -72 45 -72q23 0 47 15q28 18 58 42l34 -45q-42 -55 -94 -93q-46 -34 -96 -34q-55 0 -93 36t-38 116h-8q-65 -69 -121 -108q-62 -44 -135 -44 q-52 0 -97 18q-43 17 -78 49q-33 30 -55 76q-20 41 -20 95q0 68 29 116t94 93q61 42 162 79q88 32 237 68v19q0 84 -13 135q-14 55 -40 85q-28 32 -67 44q-41 12 -89 12q-25 0 -57 -5q-21 -3 -52 -13q-17 -5 -38 -18q-15 -9 -15 -17t21 -32q20 -23 20 -62q0 -35 -27 -64 t-73 -29q-43 0 -71 25q-27 24 -27 66zM129 1417h186l197 -377h-45zM225 242q0 -74 45 -116t111 -42q53 0 101 30q53 33 100 76l12 308q-100 -26 -173 -56q-69 -28 -114 -59q-40 -28 -62 -66q-20 -35 -20 -75z" />
<glyph unicode="&#xe1;" horiz-adv-x="899" d="M70 709q0 37 35 78q36 42 92 77q59 36 122 59q65 23 130 23q87 0 144 -19q59 -19 93 -66t48 -123q14 -77 9 -191l-16 -391q-5 -72 45 -72q23 0 47 15q28 18 58 42l34 -45q-42 -55 -94 -93q-46 -34 -96 -34q-55 0 -93 36t-38 116h-8q-65 -69 -121 -108q-62 -44 -135 -44 q-52 0 -97 18q-43 17 -78 49q-33 30 -55 76q-20 41 -20 95q0 68 29 116t94 93q61 42 162 79q88 32 237 68v19q0 84 -13 135q-14 55 -40 85q-28 32 -67 44q-41 12 -89 12q-25 0 -57 -5q-21 -3 -52 -13q-17 -5 -38 -18q-15 -9 -15 -17t21 -32q20 -23 20 -62q0 -35 -27 -64 t-73 -29q-43 0 -71 25q-27 24 -27 66zM225 242q0 -74 45 -116t111 -42q53 0 101 30q53 33 100 76l12 308q-100 -26 -173 -56q-69 -28 -114 -59q-40 -28 -62 -66q-20 -35 -20 -75zM348 1040l193 377h192l-338 -377h-47z" />
<glyph unicode="&#xe2;" horiz-adv-x="899" d="M70 709q0 37 35 78q36 42 92 77q59 36 122 59q65 23 130 23q87 0 144 -19q59 -19 93 -66t48 -123q14 -77 9 -191l-16 -391q-5 -72 45 -72q23 0 47 15q28 18 58 42l34 -45q-42 -55 -94 -93q-46 -34 -96 -34q-55 0 -93 36t-38 116h-8q-65 -69 -121 -108q-62 -44 -135 -44 q-52 0 -97 18q-43 17 -78 49q-33 30 -55 76q-20 41 -20 95q0 68 29 116t94 93q61 42 162 79q88 32 237 68v19q0 84 -13 135q-14 55 -40 85q-28 32 -67 44q-41 12 -89 12q-25 0 -57 -5q-21 -3 -52 -13q-17 -5 -38 -18q-15 -9 -15 -17t21 -32q20 -23 20 -62q0 -35 -27 -64 t-73 -29q-43 0 -71 25q-27 24 -27 66zM147 1040l228 398h78l227 -398h-55l-209 252h-4l-209 -252h-56zM225 242q0 -74 45 -116t111 -42q53 0 101 30q53 33 100 76l12 308q-100 -26 -173 -56q-69 -28 -114 -59q-40 -28 -62 -66q-20 -35 -20 -75z" />
<glyph unicode="&#xe3;" horiz-adv-x="899" d="M70 709q0 37 35 78q36 42 92 77q59 36 122 59q65 23 130 23q87 0 144 -19q59 -19 93 -66t48 -123q14 -77 9 -191l-16 -391q-5 -72 45 -72q23 0 47 15q28 18 58 42l34 -45q-42 -55 -94 -93q-46 -34 -96 -34q-55 0 -93 36t-38 116h-8q-65 -69 -121 -108q-62 -44 -135 -44 q-52 0 -97 18q-43 17 -78 49q-33 30 -55 76q-20 41 -20 95q0 68 29 116t94 93q61 42 162 79q88 32 237 68v19q0 84 -13 135q-14 55 -40 85q-28 32 -67 44q-41 12 -89 12q-25 0 -57 -5q-21 -3 -52 -13q-17 -5 -38 -18q-15 -9 -15 -17t21 -32q20 -23 20 -62q0 -35 -27 -64 t-73 -29q-43 0 -71 25q-27 24 -27 66zM86 1079q21 118 68 179t129 61q46 0 90 -23q41 -21 81 -50q66 -48 71 -51q34 -24 61 -24q32 0 56 27t54 107h54q-21 -117 -68 -179q-46 -61 -129 -61q-47 0 -90 24t-81 51q-42 30 -71 50q-32 22 -61 22q-33 0 -56 -26q-25 -29 -55 -107 h-53zM225 242q0 -74 45 -116t111 -42q53 0 101 30q53 33 100 76l12 308q-100 -26 -173 -56q-69 -28 -114 -59q-40 -28 -62 -66q-20 -35 -20 -75z" />
<glyph unicode="&#xe4;" horiz-adv-x="899" d="M70 709q0 37 35 78q36 42 92 77q59 36 122 59q65 23 130 23q87 0 144 -19q59 -19 93 -66t48 -123q14 -77 9 -191l-16 -391q-5 -72 45 -72q23 0 47 15q28 18 58 42l34 -45q-42 -55 -94 -93q-46 -34 -96 -34q-55 0 -93 36t-38 116h-8q-65 -69 -121 -108q-62 -44 -135 -44 q-52 0 -97 18q-43 17 -78 49q-33 30 -55 76q-20 41 -20 95q0 68 29 116t94 93q61 42 162 79q88 32 237 68v19q0 84 -13 135q-14 55 -40 85q-28 32 -67 44q-41 12 -89 12q-25 0 -57 -5q-21 -3 -52 -13q-17 -5 -38 -18q-15 -9 -15 -17t21 -32q20 -23 20 -62q0 -35 -27 -64 t-73 -29q-43 0 -71 25q-27 24 -27 66zM113 1223q0 48 29 84t83 36t83 -36q30 -37 30 -84t-30 -84t-83 -37t-83 37q-29 36 -29 84zM225 242q0 -74 45 -116t111 -42q53 0 101 30q53 33 100 76l12 308q-100 -26 -173 -56q-69 -28 -114 -59q-40 -28 -62 -66q-20 -35 -20 -75z M522 1223q0 47 30 84q29 36 83 36t83 -36q30 -37 30 -84t-30 -84t-83 -37t-83 37t-30 84z" />
<glyph unicode="&#xe5;" horiz-adv-x="899" d="M70 709q0 37 35 78q36 42 92 77q59 36 122 59q65 23 130 23q87 0 144 -19q59 -19 93 -66t48 -123q14 -77 9 -191l-16 -391q-5 -72 45 -72q23 0 47 15q28 18 58 42l34 -45q-42 -55 -94 -93q-46 -34 -96 -34q-55 0 -93 36t-38 116h-8q-65 -69 -121 -108q-62 -44 -135 -44 q-52 0 -97 18q-43 17 -78 49q-33 30 -55 76q-20 41 -20 95q0 68 29 116t94 93q61 42 162 79q88 32 237 68v19q0 84 -13 135q-14 55 -40 85q-28 32 -67 44q-41 12 -89 12q-25 0 -57 -5q-21 -3 -52 -13q-17 -5 -38 -18q-15 -9 -15 -17t21 -32q20 -23 20 -62q0 -35 -27 -64 t-73 -29q-43 0 -71 25q-27 24 -27 66zM225 242q0 -74 45 -116t111 -42q53 0 101 30q53 33 100 76l12 308q-100 -26 -173 -56q-69 -28 -114 -59q-40 -28 -62 -66q-20 -35 -20 -75zM260 1239q0 76 48 130t134 54q87 0 135 -54t48 -130t-48 -130t-135 -54q-86 0 -134 54 t-48 130zM322 1239q0 -52 31 -90q31 -39 89 -39t89 39q32 40 32 90q0 52 -32 92q-31 39 -89 39t-89 -39q-31 -38 -31 -92z" />
<glyph unicode="&#xe6;" horiz-adv-x="1456" d="M70 709q0 37 35 78q36 42 92 77q59 36 122 59q65 23 130 23q115 0 183 -37q69 -37 91 -116q64 70 151 111q84 40 185 40q145 0 230 -82t85 -215q0 -26 -3 -56q-3 -29 -9 -52l-617 8q0 -13 -1 -25t-1 -24q0 -87 24 -160q24 -74 67 -126q44 -53 102 -82q60 -30 129 -30 q71 0 140 30q71 31 122 95l41 -24q-55 -110 -151 -170t-216 -60q-115 0 -207 56q-93 57 -145 151q-30 -46 -65 -81q-39 -39 -80 -66q-44 -29 -88 -45q-46 -17 -92 -17q-50 0 -95 18q-43 17 -78 49q-33 30 -55 76q-20 41 -20 95q0 127 124 208t398 148v25q6 78 -7 127 q-14 52 -42 83q-27 30 -70 46q-38 14 -90 14q-25 0 -57 -5q-21 -3 -52 -13q-17 -5 -38 -18q-15 -9 -15 -17t21 -32q20 -23 20 -62q0 -35 -27 -64t-73 -29q-43 0 -71 25q-27 24 -27 66zM225 242q0 -74 45 -116t115 -42q68 0 129 38t111 103q-16 44 -27 99q-10 49 -10 106 q0 6 2 34q0 5 4 34q-100 -26 -173 -56q-69 -28 -114 -59q-40 -28 -62 -66q-20 -35 -20 -75zM754 608q174 2 231 2h225q6 122 -45 192t-145 70q-43 0 -85 -18q-43 -18 -78 -52q-37 -36 -63 -83q-29 -52 -40 -111z" />
<glyph unicode="&#xe7;" horiz-adv-x="897" d="M70 430q0 111 38 207q38 95 103 163t153 106t183 38q72 0 124 -16q56 -17 92 -43q38 -27 57 -61q20 -35 20 -70q0 -60 -34 -82q-35 -23 -71 -23q-56 0 -86 51q-30 52 -8 129v5q-20 15 -55 26q-31 10 -74 10q-63 0 -114 -26q-52 -27 -90 -75q-37 -48 -60 -116 q-23 -69 -23 -151q0 -86 24 -160q26 -78 66 -127q46 -55 103 -84q62 -31 129 -31q71 0 139 30q69 31 123 95l41 -24q-47 -96 -127 -154q-79 -57 -180 -72l-92 -96q115 4 190 -43q74 -47 74 -137q0 -98 -108 -164q-107 -65 -310 -82l-16 45q160 22 241 67q78 43 78 113 q0 50 -43 80q-45 31 -131 31q-28 0 -58 -3q-43 -4 -61 -7v35l150 157q-84 6 -156 42q-71 35 -123 97q-52 61 -80 142t-28 178z" />
<glyph unicode="&#xe8;" horiz-adv-x="933" d="M70 430q0 111 38 207q37 93 101 163q62 68 149 106t181 38q145 0 230 -82t85 -215q0 -26 -3 -56q-3 -34 -7 -52l-617 8q-2 -8 -2 -25v-24q0 -87 24 -160q25 -76 66 -126q43 -52 103 -82t129 -30q71 0 139 30q69 31 123 95l41 -24q-55 -109 -152 -170q-96 -60 -217 -60 q-89 0 -164 34q-76 34 -131 95q-56 62 -86 146t-30 184zM182 1417h187l196 -377h-45zM236 608q174 2 231 2h223q8 123 -44 192q-52 70 -144 70q-43 0 -85 -18q-43 -18 -78 -52q-39 -38 -64 -83q-27 -49 -39 -111z" />
<glyph unicode="&#xe9;" horiz-adv-x="933" d="M70 430q0 111 38 207q37 93 101 163q62 68 149 106t181 38q145 0 230 -82t85 -215q0 -26 -3 -56q-3 -34 -7 -52l-617 8q-2 -8 -2 -25v-24q0 -87 24 -160q25 -76 66 -126q43 -52 103 -82t129 -30q71 0 139 30q69 31 123 95l41 -24q-55 -109 -152 -170q-96 -60 -217 -60 q-89 0 -164 34q-76 34 -131 95q-56 62 -86 146t-30 184zM236 608q174 2 231 2h223q8 123 -44 192q-52 70 -144 70q-43 0 -85 -18q-43 -18 -78 -52q-39 -38 -64 -83q-27 -49 -39 -111zM375 1040l192 377h193l-338 -377h-47z" />
<glyph unicode="&#xea;" horiz-adv-x="933" d="M70 430q0 111 38 207q37 93 101 163q62 68 149 106t181 38q145 0 230 -82t85 -215q0 -26 -3 -56q-3 -34 -7 -52l-617 8q-2 -8 -2 -25v-24q0 -87 24 -160q25 -76 66 -126q43 -52 103 -82t129 -30q71 0 139 30q69 31 123 95l41 -24q-55 -109 -152 -170q-96 -60 -217 -60 q-89 0 -164 34q-76 34 -131 95q-56 62 -86 146t-30 184zM209 1040l227 398h78l227 -398h-55l-209 252h-4l-209 -252h-55zM236 608q174 2 231 2h223q8 123 -44 192q-52 70 -144 70q-43 0 -85 -18q-43 -18 -78 -52q-39 -38 -64 -83q-27 -49 -39 -111z" />
<glyph unicode="&#xeb;" horiz-adv-x="933" d="M70 430q0 111 38 207q37 93 101 163q62 68 149 106t181 38q145 0 230 -82t85 -215q0 -26 -3 -56q-3 -34 -7 -52l-617 8q-2 -8 -2 -25v-24q0 -87 24 -160q25 -76 66 -126q43 -52 103 -82t129 -30q71 0 139 30q69 31 123 95l41 -24q-55 -109 -152 -170q-96 -60 -217 -60 q-89 0 -164 34q-76 34 -131 95q-56 62 -86 146t-30 184zM158 1223q0 48 29 84t83 36t83 -36q30 -37 30 -84t-30 -84t-83 -37t-83 37q-29 36 -29 84zM236 608q174 2 231 2h223q8 123 -44 192q-52 70 -144 70q-43 0 -85 -18q-43 -18 -78 -52q-39 -38 -64 -83q-27 -49 -39 -111 zM567 1223q0 47 30 84q29 36 83 36t83 -36q30 -37 30 -84t-30 -84t-83 -37t-83 37t-30 84z" />
<glyph unicode="&#xec;" horiz-adv-x="544" d="M-35 1417h187l196 -377h-45zM49 821l4 56l293 67v-838q0 -12 11 -19q12 -8 46 -9l86 -8l7 -70h-439l6 70l87 8q51 2 51 31v575q0 36 -3 59q-3 22 -11 35q-9 14 -20 19q-13 6 -36 12z" />
<glyph unicode="&#xed;" horiz-adv-x="544" d="M49 821l4 56l293 67v-838q0 -12 11 -19q12 -8 46 -9l86 -8l7 -70h-439l6 70l87 8q51 2 51 31v575q0 36 -3 59q-3 22 -11 35q-9 14 -20 19q-13 6 -36 12zM170 1040l192 377h193l-338 -377h-47z" />
<glyph unicode="&#xee;" horiz-adv-x="544" d="M2 1040l227 398h78l228 -398h-56l-209 252h-4l-209 -252h-55zM49 821l4 56l293 67v-838q0 -12 11 -19q12 -8 46 -9l86 -8l7 -70h-439l6 70l87 8q51 2 51 31v575q0 36 -3 59q-3 22 -11 35q-9 14 -20 19q-13 6 -36 12z" />
<glyph unicode="&#xef;" horiz-adv-x="544" d="M-49 1223q0 47 30 84q29 36 82 36q54 0 83 -36q30 -37 30 -84t-30 -84t-83 -37q-52 0 -82 37t-30 84zM49 821l4 56l293 67v-838q0 -12 11 -19q12 -8 46 -9l86 -8l7 -70h-439l6 70l87 8q51 2 51 31v575q0 36 -3 59q-3 22 -11 35q-9 14 -20 19q-13 6 -36 12zM360 1223 q0 47 30 84q29 36 83 36t83 -36q30 -37 30 -84t-30 -84t-83 -37t-83 37t-30 84z" />
<glyph unicode="&#xf0;" horiz-adv-x="1024" d="M53 455q0 109 36 197q38 93 95 153q61 64 138 98q79 35 159 35q98 0 183 -49q87 -50 139 -152q-27 119 -84 227q-55 105 -154 191l-303 -100v84l225 75q-105 69 -229 103l31 53q83 -16 160 -48q73 -30 141 -75q0 3 42 16q13 4 44 13.5t49 15.5q67 23 133 45v-84l-188 -63 q141 -117 222 -284q81 -166 81 -363q0 -119 -32 -226q-31 -104 -91 -182q-61 -79 -145 -122q-86 -44 -197 -44q-101 0 -186 38q-82 36 -144 105q-59 64 -92 154q-33 88 -33 189zM215 508q0 -117 35 -219q34 -101 94 -160q28 -29 75 -54q47 -26 111 -26q120 0 200 92 q79 91 79 267q0 114 -32 215q-31 97 -91 157q-31 31 -79 58q-46 26 -113 26q-123 0 -201 -91t-78 -265z" />
<glyph unicode="&#xf1;" horiz-adv-x="1110" d="M49 821l2 56l295 67v-147h10q77 65 160 106q84 41 168 41q47 0 92 -15t80 -50q40 -40 58 -98q18 -57 18 -130v-542q0 -13 10 -20q9 -6 51 -11l82 -8l6 -70h-436l6 70l84 8q33 2 42 9t9 22v446q0 152 -52 208t-144 56q-72 0 -136 -34q-68 -37 -108 -68v-252v-359 q0 -12 10 -19t45 -9l95 -8l6 -70h-443l7 70l81 8q52 2 52 31v579q0 28 -2 56q-1 20 -10 34t-19 19q-12 6 -33 12zM223 1079q21 118 68 179t129 61q46 0 90 -23q41 -21 81 -50q37 -27 72 -51q34 -24 60 -24q32 0 56 27q25 29 55 107h53q-21 -117 -68 -179q-46 -61 -129 -61 q-46 0 -90 24t-81 51q-60 43 -70 50q-32 22 -62 22q-33 0 -56 -26q-25 -29 -55 -107h-53z" />
<glyph unicode="&#xf2;" horiz-adv-x="1060" d="M72 453q0 105 37 194q39 94 101 157q64 66 151 103q86 37 186 37q96 0 180 -35q82 -34 140 -97q59 -63 91 -147q33 -86 33 -188q0 -107 -36 -200q-35 -91 -99 -161q-63 -69 -150 -108t-188 -39q-102 0 -183 37q-83 38 -141 102q-61 67 -91 152q-31 87 -31 193zM233 498 q0 -111 28 -211q27 -95 85 -156q26 -26 76 -55q46 -27 117 -27q60 0 114 26q53 26 93 73q40 48 63 116q22 66 22 152q0 116 -26 210q-26 95 -84 156q-32 32 -78 57q-49 27 -117 27q-65 0 -116 -26q-55 -28 -93 -75t-61 -116t-23 -151zM233 1417h187l196 -377h-45z" />
<glyph unicode="&#xf3;" horiz-adv-x="1060" d="M72 453q0 105 37 194q39 94 101 157q64 66 151 103q86 37 186 37q96 0 180 -35q82 -34 140 -97q59 -63 91 -147q33 -86 33 -188q0 -107 -36 -200q-35 -91 -99 -161q-63 -69 -150 -108t-188 -39q-102 0 -183 37q-83 38 -141 102q-61 67 -91 152q-31 87 -31 193zM233 498 q0 -111 28 -211q27 -95 85 -156q26 -26 76 -55q46 -27 117 -27q60 0 114 26q53 26 93 73q40 48 63 116q22 66 22 152q0 116 -26 210q-26 95 -84 156q-32 32 -78 57q-49 27 -117 27q-65 0 -116 -26q-55 -28 -93 -75t-61 -116t-23 -151zM442 1040l193 377h192l-338 -377h-47z " />
<glyph unicode="&#xf4;" horiz-adv-x="1060" d="M72 453q0 105 37 194q39 94 101 157q64 66 151 103q86 37 186 37q96 0 180 -35q82 -34 140 -97q59 -63 91 -147q33 -86 33 -188q0 -107 -36 -200q-35 -91 -99 -161q-63 -69 -150 -108t-188 -39q-102 0 -183 37q-83 38 -141 102q-61 67 -91 152q-31 87 -31 193zM233 498 q0 -111 28 -211q27 -95 85 -156q26 -26 76 -55q46 -27 117 -27q60 0 114 26q53 26 93 73q40 48 63 116q22 66 22 152q0 116 -26 210q-26 95 -84 156q-32 32 -78 57q-49 27 -117 27q-65 0 -116 -26q-55 -28 -93 -75t-61 -116t-23 -151zM264 1040l228 398h77l228 -398h-56 l-209 252h-4l-209 -252h-55z" />
<glyph unicode="&#xf5;" horiz-adv-x="1060" d="M72 453q0 105 37 194q39 94 101 157q64 66 151 103q86 37 186 37q96 0 180 -35q82 -34 140 -97q59 -63 91 -147q33 -86 33 -188q0 -107 -36 -200q-35 -91 -99 -161q-63 -69 -150 -108t-188 -39q-102 0 -183 37q-83 38 -141 102q-61 67 -91 152q-31 87 -31 193zM199 1079 q21 120 67 179q47 61 129 61q46 0 90 -23q41 -21 81 -50q38 -27 72 -51t60 -24q33 0 57 27t54 107h53q-21 -119 -67 -179q-46 -61 -129 -61q-48 0 -91 24q-39 22 -80 51q-42 30 -71 50q-32 22 -62 22q-33 0 -56 -26q-24 -27 -54 -107h-53zM233 498q0 -111 28 -211 q27 -95 85 -156q26 -26 76 -55q46 -27 117 -27q60 0 114 26q53 26 93 73q40 48 63 116q22 66 22 152q0 116 -26 210q-26 95 -84 156q-32 32 -78 57q-49 27 -117 27q-65 0 -116 -26q-55 -28 -93 -75t-61 -116t-23 -151z" />
<glyph unicode="&#xf6;" horiz-adv-x="1060" d="M72 453q0 105 37 194q39 94 101 157q64 66 151 103q86 37 186 37q96 0 180 -35q82 -34 140 -97q59 -63 91 -147q33 -86 33 -188q0 -107 -36 -200q-35 -91 -99 -161q-63 -69 -150 -108t-188 -39q-102 0 -183 37q-83 38 -141 102q-61 67 -91 152q-31 87 -31 193zM213 1223 q0 47 30 84q29 36 83 36t83 -36t29 -84t-29 -84q-30 -37 -83 -37t-83 37t-30 84zM233 498q0 -111 28 -211q27 -95 85 -156q26 -26 76 -55q46 -27 117 -27q60 0 114 26q53 26 93 73q40 48 63 116q22 66 22 152q0 116 -26 210q-26 95 -84 156q-32 32 -78 57q-49 27 -117 27 q-65 0 -116 -26q-55 -28 -93 -75t-61 -116t-23 -151zM623 1223q0 48 29 84t83 36t83 -36q30 -37 30 -84t-30 -84t-83 -37t-83 37q-29 36 -29 84z" />
<glyph unicode="&#xf7;" horiz-adv-x="995" d="M84 426l6 111h817l6 -111h-829zM395 193q0 41 30 72q30 32 77 32t76 -32q28 -31 28 -72q0 -42 -28 -74q-28 -33 -76 -33q-47 0 -77 33t-30 74zM395 766q0 40 29 74q28 32 76 32t77 -32t29 -74t-29 -74q-30 -33 -77 -33t-76 33q-29 34 -29 74z" />
<glyph unicode="&#xf8;" horiz-adv-x="1060" d="M76 455q0 101 35 191q35 89 96 155q60 65 145 104q84 39 183 39q61 0 110 -13q52 -14 98 -36l162 279h78l-182 -318q88 -68 133 -170q47 -106 47 -227q0 -100 -35 -191q-34 -88 -96 -155q-62 -66 -145 -105q-84 -39 -183 -39q-55 0 -108 14q-59 16 -99 35l-141 -247h-80 l164 282q-86 67 -134 171q-48 105 -48 231zM225 506q0 -105 27 -189q27 -83 74 -147l358 623q-39 36 -85 53q-48 18 -101 18q-119 0 -196 -92t-77 -266zM373 117q80 -68 184 -68q59 0 108 24q51 25 87 69q35 43 57 113q20 63 20 153q0 102 -24 186q-23 80 -72 145z" />
<glyph unicode="&#xf9;" horiz-adv-x="1077" d="M20 913h306l-15 -553q0 -151 53 -209q52 -57 144 -57q72 0 136 34q68 36 108 71v323v285q0 14 -11 20q-12 7 -45 11l-102 8l-6 67h311v-786q0 -33 19 -39l147 -33l-6 -49l-307 -37v150h-11q-80 -68 -159 -108q-82 -42 -168 -42q-46 0 -92 17t-80 51q-41 40 -59 96 q-17 54 -17 129l4 545q0 21 -12 23q-4 0 -11 1.5t-20 3.5t-23 3l-77 8zM215 1417h186l197 -377h-45z" />
<glyph unicode="&#xfa;" horiz-adv-x="1077" d="M20 913h306l-15 -553q0 -151 53 -209q52 -57 144 -57q72 0 136 34q68 36 108 71v323v285q0 14 -11 20q-12 7 -45 11l-102 8l-6 67h311v-786q0 -33 19 -39l147 -33l-6 -49l-307 -37v150h-11q-80 -68 -159 -108q-82 -42 -168 -42q-46 0 -92 17t-80 51q-41 40 -59 96 q-17 54 -17 129l4 545q0 21 -12 23q-4 0 -11 1.5t-20 3.5t-23 3l-77 8zM442 1040l193 377h192l-338 -377h-47z" />
<glyph unicode="&#xfb;" horiz-adv-x="1077" d="M20 913h306l-15 -553q0 -151 53 -209q52 -57 144 -57q72 0 136 34q68 36 108 71v323v285q0 14 -11 20q-12 7 -45 11l-102 8l-6 67h311v-786q0 -33 19 -39l147 -33l-6 -49l-307 -37v150h-11q-80 -68 -159 -108q-82 -42 -168 -42q-46 0 -92 17t-80 51q-41 40 -59 96 q-17 54 -17 129l4 545q0 21 -12 23q-4 0 -11 1.5t-20 3.5t-23 3l-77 8zM248 1040l227 398h78l227 -398h-55l-209 252h-4l-209 -252h-55z" />
<glyph unicode="&#xfc;" horiz-adv-x="1077" d="M20 913h306l-15 -553q0 -151 53 -209q52 -57 144 -57q72 0 136 34q68 36 108 71v323v285q0 14 -11 20q-12 7 -45 11l-102 8l-6 67h311v-786q0 -33 19 -39l147 -33l-6 -49l-307 -37v150h-11q-80 -68 -159 -108q-82 -42 -168 -42q-46 0 -92 17t-80 51q-41 40 -59 96 q-17 54 -17 129l4 545q0 21 -12 23q-4 0 -11 1.5t-20 3.5t-23 3l-77 8zM190 1223q0 47 30 84q29 36 83 36t83 -36q30 -37 30 -84t-30 -84t-83 -37t-83 37t-30 84zM602 1223q0 47 30 84q29 36 83 36t83 -36t29 -84t-29 -84q-30 -37 -83 -37t-83 37t-30 84z" />
<glyph unicode="&#xfd;" horiz-adv-x="925" d="M-37 913h422l-6 -67l-70 -10q-22 -1 -36 -15q-11 -11 1 -41l254 -604l195 555q17 53 9 75q-7 20 -48 25l-76 15l-6 67h371l-6 -67l-68 -15q-33 -4 -50 -23q-17 -18 -44 -85l-250 -680l-98 -311q-43 -131 -97 -201q-53 -68 -143 -68q-61 0 -97 30t-36 77q0 43 24 73 q23 29 72 29q48 0 74 -20q27 -21 43 -53q25 11 47 50q19 35 43 107l78 224v2l-356 790q-15 30 -27 42q-11 11 -51 17l-60 13zM360 1040l193 377h192l-337 -377h-48z" />
<glyph unicode="&#xfe;" horiz-adv-x="1050" d="M-16 1303l6 51l313 73v-643h8q63 66 135 107q76 43 162 43q87 0 155 -34q71 -35 117 -93q47 -59 73 -139q26 -81 26 -172q0 -104 -33 -198q-34 -98 -94 -168q-63 -74 -151 -117q-90 -44 -199 -44q-44 0 -99 9q-53 9 -96 26h-4v-401q0 -13 10 -20q11 -8 47 -9l107 -8 l6 -70h-459l6 70l87 8q51 2 51 31v1609q0 37 -23 43zM303 162q47 -47 107 -80t131 -33q55 0 105 27q51 28 88 77q38 50 62 119q23 66 23 156q0 88 -20 154q-21 70 -57 119q-37 52 -86 78q-51 28 -111 28q-73 0 -137 -38q-65 -39 -105 -89v-518z" />
<glyph unicode="&#xff;" horiz-adv-x="925" d="M-37 913h422l-6 -67l-70 -10q-22 -1 -36 -15q-11 -11 1 -41l254 -604l195 555q17 53 9 75q-7 20 -48 25l-76 15l-6 67h371l-6 -67l-68 -15q-33 -4 -50 -23q-17 -18 -44 -85l-250 -680l-98 -311q-43 -131 -97 -201q-53 -68 -143 -68q-61 0 -97 30t-36 77q0 43 24 73 q23 29 72 29q48 0 74 -20q27 -21 43 -53q25 11 47 50q19 35 43 107l78 224v2l-356 790q-15 30 -27 42q-11 11 -51 17l-60 13zM164 1223q0 47 30 84q29 36 82 36q54 0 83 -36q30 -37 30 -84t-30 -84t-83 -37q-52 0 -82 37t-30 84zM573 1223q0 47 30 84q29 36 83 36t83 -36 q30 -37 30 -84t-30 -84t-83 -37t-83 37t-30 84z" />
<glyph unicode="&#x152;" horiz-adv-x="1910" d="M94 619q0 130 47 253q45 118 142 212t237 145q145 53 334 53l932 -2v-371h-82l-45 207q-7 26 -21 48q-12 18 -55 27q-46 10 -127 11q-112 2 -235 2h-93v-514h91q80 0 106 1q45 2 60 5q23 5 30 12q8 8 12 21l48 137h65l-41 -426h-65l-15 131q-1 12 -7 21q-5 8 -24 14 q-21 7 -60 8q-54 2 -111 2h-89v-540h66q166 0 259 3q94 3 140 12q48 9 63 27q16 19 23 46l52 198h92l-39 -362h-934q-168 0 -309 44q-140 44 -239 126q-100 84 -154 197q-54 114 -54 252zM266 668q0 -133 40 -240q40 -108 120 -186q79 -78 197 -120q117 -42 270 -42h78v1098 l-166 32q-130 -2 -230 -45q-99 -43 -168 -115t-105 -170q-36 -97 -36 -212z" />
<glyph unicode="&#x153;" horiz-adv-x="1697" d="M72 455q1 101 40 194q37 89 101 156q60 63 149 102q84 37 185 37q126 0 221 -55q97 -56 154 -152q63 99 162 153t216 54q145 0 230 -82q86 -83 86 -215q0 -26 -3 -56q-3 -29 -9 -52l-617 8q-2 -8 -2 -25v-24q0 -87 24 -160q25 -76 66 -126q43 -52 103 -82t129 -30 q71 0 140 30q71 31 122 95l41 -24q-55 -109 -152 -170q-96 -60 -217 -60q-110 0 -201 53t-143 144q-64 -93 -162 -145q-102 -54 -217 -54q-102 0 -183 37q-82 37 -142 102q-61 65 -92 153q-31 86 -29 194zM233 502q-1 -114 27 -213q28 -97 86 -158q26 -26 76 -55 q46 -27 117 -27q60 0 114 26q53 26 92 72t62 114q22 66 24 151q0 117 -26 212q-27 98 -84 158q-32 32 -78 57q-49 27 -117 27q-127 0 -209 -98q-83 -99 -84 -266zM995 608q174 2 232 2h223q8 123 -44 192q-52 70 -144 70q-43 0 -85 -18q-43 -18 -78 -52q-39 -38 -64 -83 q-29 -52 -40 -111z" />
<glyph unicode="&#x178;" horiz-adv-x="1239" d="M-14 1280h499l-6 -70l-102 -12q-35 -5 -31 -39q5 -36 55 -119l246 -407h10l267 454q32 51 27 79q-5 26 -44 34l-78 10l-6 70h414l-6 -70l-62 -10q-41 -12 -71 -33q-32 -23 -68 -77l-321 -533v-448q0 -14 10 -18q11 -5 43 -9l139 -12l6 -70h-567l6 70l141 12q54 6 54 29 v426l-381 602q-7 10 -34 33q-21 18 -50 24l-84 14zM330 1565q0 48 29 84q30 37 83 37t83 -37t30 -84t-30 -84t-83 -37t-83 37q-29 36 -29 84zM739 1565q0 47 30 84t83 37t83 -37t30 -84t-30 -84t-83 -37t-83 37t-30 84z" />
<glyph unicode="&#x2c6;" d="M143 1040l228 398h78l227 -398h-55l-209 252h-4l-209 -252h-56z" />
<glyph unicode="&#x2dc;" d="M78 1079q21 120 67 179q47 61 129 61q47 0 91 -23q37 -19 80 -50q37 -27 72 -51t61 -24q32 0 56 27t54 107h53q-21 -119 -67 -179q-46 -61 -129 -61q-47 0 -90 24t-81 51q-42 30 -71 50q-32 22 -61 22q-34 0 -57 -26q-24 -27 -54 -107h-53z" />
<glyph unicode="&#x2000;" horiz-adv-x="892" />
<glyph unicode="&#x2001;" horiz-adv-x="1784" />
<glyph unicode="&#x2002;" horiz-adv-x="892" />
<glyph unicode="&#x2003;" horiz-adv-x="1784" />
<glyph unicode="&#x2004;" horiz-adv-x="594" />
<glyph unicode="&#x2005;" horiz-adv-x="446" />
<glyph unicode="&#x2006;" horiz-adv-x="297" />
<glyph unicode="&#x2007;" horiz-adv-x="297" />
<glyph unicode="&#x2008;" horiz-adv-x="223" />
<glyph unicode="&#x2009;" horiz-adv-x="356" />
<glyph unicode="&#x200a;" horiz-adv-x="99" />
<glyph unicode="&#x2010;" horiz-adv-x="671" d="M70 428l6 104h524l6 -104h-536z" />
<glyph unicode="&#x2011;" horiz-adv-x="671" d="M70 428l6 104h524l6 -104h-536z" />
<glyph unicode="&#x2012;" horiz-adv-x="671" d="M70 428l6 104h524l6 -104h-536z" />
<glyph unicode="&#x2013;" horiz-adv-x="962" d="M53 424l6 100h848l6 -100h-860z" />
<glyph unicode="&#x2014;" horiz-adv-x="1921" d="M53 424l6 100h1805l6 -100h-1817z" />
<glyph unicode="&#x2018;" horiz-adv-x="462" d="M72 969q0 64 25 120q23 51 67 105q37 45 92 92q44 38 100 80l45 -33q-33 -24 -63 -54q-34 -34 -55 -64q-28 -40 -40 -72q-16 -42 -16 -80q0 -44 24 -74q26 -32 53 -50q32 -21 53 -30q24 -11 24 -12q0 -47 -34 -81t-95 -34q-33 0 -66 15q-32 15 -58 39q-27 25 -41 58 q-15 34 -15 75z" />
<glyph unicode="&#x2019;" horiz-adv-x="462" d="M68 797q33 24 63 54q34 34 55 64q23 33 39 73q15 38 15 79q0 46 -24 76q-25 32 -52 50q-29 20 -52 30q-24 11 -24 12q0 47 34 81t95 34q33 0 66 -15q32 -15 58 -39q27 -25 41 -58q15 -34 15 -75q0 -65 -25 -121q-24 -53 -67 -106q-37 -45 -92 -92q-44 -38 -100 -80z" />
<glyph unicode="&#x201a;" horiz-adv-x="462" d="M68 -324q29 21 63 55t55 64q23 33 39 73q15 37 15 79q0 46 -24 76q-25 32 -52 50q-25 17 -52 29q-24 10 -24 13q0 47 34 81q33 33 95 33q35 0 66 -14q32 -15 58 -39q27 -25 41 -58q15 -34 15 -75q0 -65 -25 -121q-24 -53 -67 -106q-37 -45 -92 -92q-44 -38 -100 -80z" />
<glyph unicode="&#x201c;" horiz-adv-x="868" d="M72 969q0 64 25 120q23 51 67 105q37 45 92 92q44 38 100 80l45 -33q-33 -24 -63 -54q-34 -34 -55 -64q-28 -40 -40 -72q-16 -42 -16 -80q0 -44 24 -74q26 -32 53 -50q32 -21 53 -30q24 -11 24 -12q0 -47 -34 -81t-95 -34q-33 0 -66 15q-32 15 -58 39q-27 25 -41 58 q-15 34 -15 75zM498 969q0 64 25 120q23 51 67 105q37 45 92 92q44 38 100 80l45 -33q-33 -24 -63 -54q-34 -34 -55 -64q-25 -36 -39 -72q-15 -39 -15 -80q0 -44 24 -74q25 -32 52 -50q29 -20 52 -30q24 -11 24 -12q0 -47 -34 -81t-95 -34q-33 0 -66 15q-32 15 -58 39 q-27 25 -41 58q-15 34 -15 75z" />
<glyph unicode="&#x201d;" horiz-adv-x="868" d="M68 797q33 24 63 54q34 34 55 64q23 33 39 73q15 38 15 79q0 46 -24 76q-25 32 -52 50q-29 20 -52 30q-24 11 -24 12q0 47 34 81t95 34q33 0 66 -15q32 -15 58 -39q27 -25 41 -58q15 -34 15 -75q0 -65 -25 -121q-24 -53 -67 -106q-37 -45 -92 -92q-44 -38 -100 -80z M496 797q33 24 63 54q34 34 55 64q23 33 39 73q15 38 15 79q0 46 -24 76q-25 32 -52 50q-29 20 -52 30q-24 11 -24 12q0 47 33 81t96 34q33 0 66 -15q32 -15 58 -39q27 -25 41 -58q15 -34 15 -75q0 -65 -25 -121q-24 -53 -67 -106q-37 -45 -92 -92q-44 -38 -100 -80z" />
<glyph unicode="&#x201e;" horiz-adv-x="868" d="M68 -324q29 21 63 55t55 64q23 33 39 73q15 37 15 79q0 46 -24 76q-25 32 -52 50q-25 17 -52 29q-24 10 -24 13q0 47 34 81q33 33 95 33q35 0 66 -14q32 -15 58 -39q27 -25 41 -58q15 -34 15 -75q0 -65 -25 -121q-24 -53 -67 -106q-37 -45 -92 -92q-44 -38 -100 -80z M496 -324q29 21 63 55t55 64q23 33 39 73q15 38 15 79q0 46 -24 76q-25 32 -52 50q-25 17 -52 29q-24 10 -24 13q0 47 33 81q32 33 96 33q35 0 66 -14q32 -15 58 -39q27 -25 41 -58q15 -34 15 -75q0 -65 -25 -121q-24 -53 -67 -106q-37 -45 -92 -92q-44 -38 -100 -80z" />
<glyph unicode="&#x2022;" horiz-adv-x="931" d="M72 475q0 23 12 63q8 28 31 83q16 40 39 80q24 43 34 53q16 16 54 36q27 14 80 36q44 18 84 30q41 12 61 12q21 0 62 -12q37 -11 83 -30q58 -24 81 -36q37 -19 52 -36q16 -15 36 -53q19 -37 37 -80q19 -46 30 -83q12 -40 12 -63q0 -21 -12 -62q-11 -37 -30 -83 q-20 -48 -37 -81q-19 -37 -36 -54q-13 -13 -52 -35q-31 -17 -81 -38q-44 -18 -84 -30t-63 -12q-22 0 -62 12q-41 12 -84 30t-79 38q-39 22 -52 35q-10 11 -34 54q-21 37 -39 81q-23 55 -31 83q-12 41 -12 62z" />
<glyph unicode="&#x2026;" horiz-adv-x="1392" d="M106 96q0 48 36 86q36 37 94 37q56 0 90 -37t34 -86q0 -50 -34 -88q-34 -39 -90 -39q-58 0 -94 39t-36 88zM571 96q0 48 36 86q36 37 91 37q58 0 92 -37q33 -36 33 -86q0 -51 -33 -88q-34 -39 -92 -39q-55 0 -91 39t-36 88zM1034 96q0 48 36 86q36 37 93 37q56 0 90 -37 q35 -38 35 -86t-35 -88q-35 -39 -90 -39q-57 0 -93 39t-36 88z" />
<glyph unicode="&#x202f;" horiz-adv-x="356" />
<glyph unicode="&#x2039;" horiz-adv-x="634" d="M80 410v86l440 315l21 -41l-303 -317l303 -318l-21 -41z" />
<glyph unicode="&#x203a;" horiz-adv-x="634" d="M96 135l303 318l-303 317l19 41l442 -315v-86l-442 -316z" />
<glyph unicode="&#x205f;" horiz-adv-x="446" />
<glyph unicode="&#x20ac;" horiz-adv-x="1056" d="M43 434l6 80h119q-2 30 -3 46t-1 46q0 29 1 42q1 20 3 42h-125l6 80h129q21 116 67 209q48 97 114 162q69 68 157 105q90 38 191 38q67 0 120 -13q58 -14 98 -37t65 -54q24 -30 24 -66q0 -37 -25 -65q-24 -27 -65 -27q-54 0 -84 46q-32 50 -39 101q-29 18 -60 26 q-28 7 -69 7q-145 0 -233 -118q-89 -119 -111 -314h424l6 -80h-436v-49q0 -67 6 -127h424l6 -80h-416q41 -174 137 -260q97 -86 217 -86q91 0 164 44q70 43 125 108l41 -23q-60 -113 -153 -180q-94 -68 -228 -68q-89 0 -164 34q-77 35 -136 94t-102 147q-42 86 -63 190h-137 z" />
<glyph unicode="&#x2122;" horiz-adv-x="1865" d="M61 1012l17 268h672v-268h-60l-14 71q-11 39 -25 71q-12 27 -34 43q-24 17 -55 21q-38 5 -93 5h-6v-615q0 -20 18 -22l105 -13l2 -55h-371l4 55l105 13q20 1 20 22v615h-8q-51 0 -84 -6q-31 -6 -54 -22q-20 -14 -36 -43q-10 -19 -29 -69l-18 -71h-56zM838 518l4 55l80 11 q8 0 13 5q6 6 10 21q6 21 7 46q0 6 1 20.5l2 29t1 29.5l15 453q0 22 -17 24l-88 13l-4 55h289l156 -586h18l199 586h288l-4 -55l-84 -13q-22 -1 -22 -24l12 -510q1 -56 10 -73q7 -14 21 -19l80 -13l4 -55h-336l4 55l78 13q14 4 17 21q3 18 3 71l-12 520h-20l-228 -655h-92 l-186 659h-21l-16 -467q-2 -66 -2 -78q0 -24 2 -44q2 -16 6 -20q4 -5 12 -9l82 -11l4 -55h-286z" />
<glyph unicode="&#x25fc;" horiz-adv-x="911" d="M0 0v911h911v-911h-911z" />
</font>
</defs>
</svg>
