<?xml version="1.0" standalone="no"?>
<!DOCTYPE svg PUBLIC "-//W3C//DTD SVG 1.1//EN" "http://www.w3.org/Graphics/SVG/1.1/DTD/svg11.dtd" >
<svg xmlns="http://www.w3.org/2000/svg" xmlns:xlink="http://www.w3.org/1999/xlink" version="1.1">
<metadata></metadata>
<defs>
<font id="estado_finesemibold" horiz-adv-x="1146" >
<font-face units-per-em="2048" ascent="1638" descent="-410" />
<missing-glyph horiz-adv-x="438" />
<glyph unicode="&#xfb01;" horiz-adv-x="1116" d="M37 877v36l121 43v88q0 135 59.5 248.5t170 181.5t249.5 68q168 0 253 -63t85 -150q0 -62 -40 -103.5t-108 -41.5q-64 0 -101.5 38.5t-37.5 86.5q0 37 15 67.5t30 49.5t15 28q0 22 -29 36.5t-86 14.5q-217 0 -217 -338v-233h348l197 49h12l-4 -303v-649l108 -2v-29h-473 v29l107 2v846h-295v-846l121 -2v-29h-490v31l111 2v839z" />
<glyph unicode="&#xfb02;" horiz-adv-x="1140" d="M37 877v36l121 43v129q0 197 124 324t320 127q142 0 246 -55l137 57h14l-6 -319v-1188l107 -2v-29h-473v29l108 2v846h-319v-846l133 -2v-29h-502v31l111 2v839zM416 946h319v416q-21 59 -66 95t-91 36q-162 0 -162 -223v-324z" />
<glyph horiz-adv-x="0" />
<glyph horiz-adv-x="682" />
<glyph unicode=" "  horiz-adv-x="438" />
<glyph unicode="&#x09;" horiz-adv-x="438" />
<glyph unicode="&#xa0;" horiz-adv-x="438" />
<glyph unicode="!" horiz-adv-x="567" d="M117 1303q0 77 46.5 123.5t117.5 46.5q69 0 117 -45.5t48 -124.5q0 -106 -18.5 -237.5t-36.5 -215.5t-54.5 -232.5t-45.5 -189.5h-19q-7 28 -38 154.5t-44 187t-34.5 167t-30 195t-8.5 171.5zM133 147q0 66 45 112t109 46q62 0 106.5 -46t44.5 -112q0 -64 -44.5 -110.5 t-106.5 -46.5q-64 0 -109 46t-45 111z" />
<glyph unicode="&#x22;" horiz-adv-x="770" d="M70 1360q0 57 39 90t100 33q59 0 98 -32.5t39 -90.5l-108 -385h-29zM424 1360q0 57 39 90t100 33q59 0 98 -32.5t39 -90.5l-108 -385h-29z" />
<glyph unicode="#" horiz-adv-x="1200" d="M78 516l8 43h246l61 440h-246l7 48h245l56 395h47l-56 -395h396l53 395h47l-53 -395h250l-9 -48h-249l-62 -440h250l-8 -43h-248l-72 -516h-49l76 516h-397l-72 -516h-47l74 516h-248zM379 559h393l64 440h-396z" />
<glyph unicode="$" horiz-adv-x="1064" d="M68 256q0 63 36 105t101 42q53 0 89 -34t36 -86q0 -15 -2 -28t-8 -25t-9 -17t-12 -17.5t-10 -13.5q-3 -4 -9 -11t-9 -11t-6 -11.5t-3 -15.5q0 -11 12.5 -24.5t46 -27t80.5 -20.5v568l-10 6q-49 20 -88 40.5t-81.5 53.5t-70.5 70.5t-46.5 91t-18.5 115.5q0 144 84 245 t231 135v160h39v-153q41 8 97 8q41 0 61 -2v147h39v-153q140 -20 226.5 -89t86.5 -155q0 -58 -32 -100.5t-97 -42.5q-52 0 -86.5 33t-34.5 85q0 23 6.5 43t11.5 27.5t19 26.5q3 4 10 11.5t11.5 13t8 13.5t3.5 17q0 24 -37.5 44.5t-95.5 29.5v-496l76 -33q286 -125 286 -368 q0 -166 -101.5 -275t-260.5 -145v-213h-39v205q-52 -9 -104 -9h-54v-196h-39v200q-88 8 -154.5 32.5t-104 58.5t-56 70.5t-18.5 74.5zM289 1147q0 -120 112 -186v372q-112 -51 -112 -186zM440 59q16 -2 58 -2q50 0 100 13v475q-15 5 -37 16q-44 15 -121 51v-553zM440 938 l82 -35l76 -33v486q-46 4 -68 4q-50 0 -90 -12v-410zM637 84q63 29 98 87.5t35 137.5q0 141 -133 215v-440z" />
<glyph unicode="%" horiz-adv-x="1341" d="M57 1083q0 99 33 184t102 140t160 55q92 0 158 -54t95.5 -133.5t29.5 -172.5q0 -70 -19 -135.5t-55 -119t-94.5 -86t-130.5 -32.5q-89 0 -154 53.5t-95 132t-30 168.5zM244 8l835 1475l37 -21l-833 -1472zM244 1110q0 -358 106 -358q101 0 101 315q0 65 -4.5 123 t-15.5 118.5t-35 96t-58 35.5q-94 0 -94 -330zM705 334q0 99 33 184.5t101.5 141t159.5 55.5q92 0 158.5 -54t96.5 -134t30 -173q0 -70 -19.5 -135.5t-56 -119.5t-95 -86.5t-130.5 -32.5q-67 0 -121.5 31t-88 82t-51 113t-17.5 128zM891 360q0 -358 108 -358q99 0 99 315 q0 66 -4.5 124.5t-15.5 118.5t-34.5 96t-56.5 36q-96 0 -96 -332z" />
<glyph unicode="&#x26;" horiz-adv-x="1652" d="M66 371q0 161 109 284.5t276 182.5q-63 83 -96 150t-33 145q0 67 25.5 128.5t74.5 112.5t130.5 81t184.5 30q92 0 164.5 -25t115.5 -66.5t65 -90t22 -99.5q0 -109 -86.5 -199.5t-249.5 -125.5q33 -39 191.5 -240.5t170.5 -216.5q39 59 78.5 139.5t55.5 143.5l-164 57v29 h379v-29l-172 -60q-48 -164 -152 -305l68 -82q32 -38 54 -61t57.5 -52t74.5 -43t82 -14q19 0 38.5 4.5t28.5 8.5t30.5 15t25.5 13l14 -16q-171 -188 -334 -188q-98 0 -162.5 40.5t-123.5 110.5l-56 66q-89 -103 -210.5 -160t-241.5 -57q-97 0 -180 32.5t-138 86.5t-85.5 124 t-30.5 146zM311 512q0 -71 25.5 -140t71.5 -124t116 -89t152 -34q77 0 134.5 22t125.5 72q-44 54 -234.5 295.5t-238.5 300.5q-82 -47 -117 -122t-35 -181zM567 1249q0 -71 50 -157.5t137 -194.5q63 34 106 118.5t43 188.5q0 66 -15 119.5t-54.5 91t-98.5 37.5 q-82 0 -125 -59.5t-43 -143.5z" />
<glyph unicode="'" horiz-adv-x="413" d="M70 1360q0 57 39 90t100 33q59 0 98 -32.5t39 -90.5l-108 -385h-29z" />
<glyph unicode="(" horiz-adv-x="661" d="M125 547q0 303 130 564.5t380 416.5l18 -21q-104 -84 -174.5 -190t-106.5 -232t-50.5 -250.5t-14.5 -281.5q0 -682 338 -983l-22 -23q-152 101 -266.5 266.5t-173 355.5t-58.5 378z" />
<glyph unicode=")" horiz-adv-x="661" d="M8 1507l19 21q250 -155 380 -416.5t130 -564.5q0 -189 -59 -378.5t-173.5 -355t-267.5 -266.5l-23 23q100 88 169.5 205t104.5 250t49.5 258.5t14.5 269.5q0 157 -14 281.5t-50 250.5t-106 232t-174 190z" />
<glyph unicode="*" horiz-adv-x="907" d="M84 1272q0 16 15.5 30.5t37.5 14.5q40 0 94 -33t120.5 -87t92.5 -71q-3 16 -29 103t-26 129q0 75 20.5 120.5t45.5 45.5t45 -44.5t20 -121.5q0 -41 -25.5 -123.5t-29.5 -110.5q8 6 84 69t131 96.5t94 33.5q19 0 33 -12.5t14 -34.5q0 -25 -22 -47t-63.5 -39.5t-80.5 -30.5 t-92.5 -29t-81.5 -26q9 -3 43.5 -15.5t49.5 -18t47.5 -18t49.5 -20.5t43 -21t40 -24t29 -24.5t21.5 -27.5t6.5 -28q0 -16 -14 -29.5t-33 -13.5q-36 0 -87.5 38t-116.5 100t-93 83q3 -15 29 -106.5t26 -132.5q0 -75 -20 -120.5t-45 -45.5q-26 0 -46 44.5t-20 121.5 q0 39 23.5 123t27.5 112q-26 -17 -90 -73.5t-119 -95t-92 -38.5q-18 0 -32.5 12.5t-14.5 33.5q0 18 12 35.5t35.5 33.5t48.5 29t61 27t63 23.5t64.5 22.5t55.5 19q-11 3 -50 11t-64 14t-64.5 16.5t-66 22t-53 26.5t-39.5 33t-13 39z" />
<glyph unicode="+" d="M94 502v55h449v473h59v-473h451v-55h-451v-482h-59v482h-449z" />
<glyph unicode="," horiz-adv-x="499" d="M78 143q0 67 45 113.5t110 46.5q85 0 133 -63.5t48 -147.5q0 -69 -25.5 -140t-87.5 -142.5t-151 -118.5l-15 22q74 55 123 133t49 160q0 27 -6 39q-29 -41 -86 -41q-65 0 -101 37.5t-36 101.5z" />
<glyph unicode="-" horiz-adv-x="598" d="M37 492v167h524v-167h-524z" />
<glyph unicode="." horiz-adv-x="499" d="M98 147q0 66 44 112t110 46q62 0 106.5 -46t44.5 -112q0 -64 -44.5 -110.5t-106.5 -46.5q-65 0 -109.5 46t-44.5 111z" />
<glyph unicode="/" horiz-adv-x="696" d="M63 -381l457 1874l53 -8l-454 -1874z" />
<glyph unicode="0" horiz-adv-x="1202" d="M61 702q0 148 38.5 286t107.5 247t174.5 174.5t230.5 65.5q101 0 187.5 -41t148 -111t105.5 -162.5t65 -197t21 -213.5q0 -142 -37 -277.5t-105.5 -245t-176.5 -176.5t-238 -67q-122 0 -223 62.5t-165 165.5t-98.5 230t-34.5 260zM369 731q0 -93 4.5 -178.5t20 -186 t40 -173t69 -121.5t103.5 -49q45 0 81 28.5t59.5 72.5t41 107.5t26.5 122t14.5 129.5t6.5 116.5t1 94.5q0 143 -11 264.5t-36.5 235t-76 179t-122.5 65.5q-43 0 -77.5 -31t-57 -78.5t-39.5 -115.5t-25.5 -131t-13.5 -136.5t-6.5 -120.5t-1.5 -94z" />
<glyph unicode="1" horiz-adv-x="780" d="M82 1323v25q146 11 250.5 39.5t214.5 74.5v-20l-8 -10v-1401l166 -4v-27h-619v27l164 4v1290z" />
<glyph unicode="2" horiz-adv-x="1075" d="M39 1118q0 64 32 127t92 116.5t160.5 86.5t223.5 33q118 0 214 -39.5t157 -124t61 -201.5q0 -85 -32.5 -166.5t-83 -146t-123 -137t-141 -131t-148.5 -135.5t-136 -144l631 4l53 125h21l-43 -385h-932v16q285 314 381 435q180 226 232 395q28 91 28 186 q0 103 -33.5 185.5t-104 134t-167.5 51.5q-76 0 -125 -27q-63 -37 -63 -88q0 -7 3 -14t7 -12t13 -12.5t14 -11.5t17 -12.5t17 -11.5q70 -48 70 -118q0 -64 -39.5 -102t-95.5 -38q-76 0 -118 47.5t-42 114.5z" />
<glyph unicode="3" horiz-adv-x="1120" d="M55 238q0 70 45 124t123 54q73 0 115.5 -41t42.5 -92q0 -41 -15.5 -71t-34.5 -44t-34.5 -32t-15.5 -38q0 -36 50.5 -62t121.5 -26q142 0 226.5 96t84.5 275q0 51 -7.5 98t-27.5 95t-50.5 83.5t-79.5 57.5t-112 22q-45 0 -82.5 -16.5t-61.5 -32.5t-34 -16q-28 0 -28 24 q0 9 6 16t18.5 13t22.5 9.5t26 7.5t21 6q165 55 249.5 147t84.5 211q0 58 -14 108t-45.5 96.5t-92.5 73.5t-145 27q-74 -3 -123 -38.5t-49 -86.5q0 -7 3.5 -14t12.5 -15.5t14.5 -13.5t20.5 -16t20 -15q58 -44 58 -108q0 -54 -40.5 -93.5t-92.5 -39.5q-74 0 -112 48t-38 111 q0 62 33 123.5t94.5 112.5t160.5 83t218 32q172 0 275.5 -80t103.5 -221q0 -121 -108.5 -228.5t-287.5 -156.5v-17q122 10 218 -15t153.5 -75t87 -113.5t29.5 -134.5q0 -201 -172 -330.5t-440 -129.5q-174 0 -285 74.5t-111 183.5z" />
<glyph unicode="4" horiz-adv-x="1191" d="M31 451v34l622 924l230 55l16 -2v-970h215l27 163h30l-26 -204h-246v-422l131 -4v-25h-553v25l135 4v422h-581zM76 492h536v796z" />
<glyph unicode="5" horiz-adv-x="1107" d="M61 231q0 67 45 121t125 54q69 0 109.5 -38.5t40.5 -93.5q0 -39 -14.5 -68.5t-32.5 -44t-32.5 -31.5t-14.5 -34q0 -36 47.5 -63t114.5 -27q81 0 142.5 37t96 100t51.5 137.5t17 159.5q0 203 -89 311.5t-259 108.5q-49 0 -101.5 -15t-92.5 -46.5t-40 -69.5q0 -26 21 -51 q22 -26 22 -41q0 -21 -12.5 -32t-32.5 -11q-18 0 -35.5 22.5t-17.5 57.5q0 40 24 100q3 6 22.5 52t27 68t21 65.5t19 85.5t5.5 88q0 149 -25 311q222 -19 358 -19q245 0 398 52l6 -13q-17 -45 -36 -81.5t-55 -80t-80 -72.5t-112.5 -49t-150.5 -20q-158 0 -267 33 q0 -69 -2 -100q-5 -138 -69 -265q54 33 92.5 52t106.5 36t147 17q224 0 364 -109t140 -309q0 -155 -83 -280t-220 -193t-299 -68q-175 0 -282.5 73t-107.5 183z" />
<glyph unicode="6" horiz-adv-x="1191" d="M59 692q0 125 23.5 238.5t75.5 214t128 174t187.5 116t247.5 42.5q171 0 263.5 -71.5t92.5 -166.5q0 -69 -40 -120.5t-119 -51.5q-65 0 -105.5 40.5t-40.5 98.5q0 42 18 78.5t36 61.5t18 40q0 22 -36.5 38t-88.5 16q-78 0 -138 -35.5t-98.5 -94.5t-63.5 -145.5 t-36.5 -177.5t-15.5 -203q55 39 145.5 70t185.5 31q190 0 304 -107.5t114 -290.5q0 -96 -32 -185t-92 -160.5t-156 -114.5t-213 -43q-169 0 -298.5 95t-197.5 255t-68 358zM365 657q0 -100 12.5 -201t40.5 -202.5t82.5 -165t128.5 -63.5q96 0 149 116t53 285 q0 170 -81.5 266t-214.5 96q-80 0 -168 -30q-2 -41 -2 -101z" />
<glyph unicode="7" horiz-adv-x="1095" d="M43 1036l121 455h26l-16 -64h903l8 -18q-213 -245 -332.5 -569.5t-119.5 -698.5q0 -47 4 -141h-342q-2 18 -2 39q1 140 58 309t144.5 321t187.5 282.5t194 213.5h-762l-39 -129h-33z" />
<glyph unicode="8" horiz-adv-x="1161" d="M59 367q0 159 109 262.5t319 130.5v12q-97 5 -174 35.5t-124.5 77t-72 103.5t-24.5 118q0 167 138.5 270t361.5 103q214 0 353.5 -97.5t139.5 -261.5q0 -136 -111 -234.5t-294 -111.5v-12q188 -20 307 -123t119 -252q0 -122 -72.5 -215.5t-195.5 -142.5t-275 -49 q-222 0 -363 104.5t-141 282.5zM358 367q0 -160 54 -257.5t163 -97.5q113 0 169.5 103.5t56.5 285.5q0 78 -23 151.5t-75.5 129t-124.5 61.5q-53 -5 -94 -34t-64 -68t-37.5 -90.5t-19.5 -95t-5 -88.5zM379 1118q0 -66 8.5 -117t30 -98t63 -80t101.5 -51q60 17 103 54.5 t66 87.5t33.5 103t10.5 111q0 320 -213 320q-103 0 -153 -89t-50 -241z" />
<glyph unicode="9" horiz-adv-x="1169" d="M66 993q0 96 33 183.5t94 155.5t156 108.5t210 40.5q254 0 403.5 -181t149.5 -483q0 -106 -15.5 -205.5t-47.5 -194t-84.5 -172.5t-122.5 -137t-167 -91.5t-212 -32.5q-172 0 -270.5 64t-98.5 163q0 73 44 124.5t126 51.5q68 0 108 -39.5t40 -89.5q0 -35 -12 -64.5 t-27 -46.5t-27 -34.5t-12 -30.5q0 -22 41 -42t100 -20q56 0 102 22.5t78 59t57.5 91.5t41 111t26 126t15.5 128.5t8 127.5q-141 -106 -324 -106q-190 0 -301.5 116.5t-111.5 296.5zM350 1059q0 -169 74.5 -274t206.5 -105q90 0 172 29q4 78 4 122q0 68 -4.5 132.5 t-14.5 136.5t-29.5 131t-47 107.5t-70 76t-94.5 27.5q-92 0 -144.5 -106.5t-52.5 -276.5z" />
<glyph unicode=":" horiz-adv-x="499" d="M98 147q0 66 44 112t110 46q62 0 106.5 -46t44.5 -112q0 -64 -44.5 -110.5t-106.5 -46.5q-65 0 -109.5 46t-44.5 111zM98 807q0 66 44 112t110 46q62 0 106.5 -46t44.5 -112q0 -64 -44.5 -111t-106.5 -47q-65 0 -109.5 46.5t-44.5 111.5z" />
<glyph unicode=";" horiz-adv-x="499" d="M78 143q0 67 45 113.5t110 46.5q85 0 133 -63.5t48 -147.5q0 -69 -25.5 -140t-87.5 -142.5t-151 -118.5l-15 22q74 55 123 133t49 160q0 27 -6 39q-29 -41 -86 -41q-65 0 -101 37.5t-36 101.5zM98 807q0 66 44 112t110 46q62 0 106.5 -46t44.5 -112q0 -64 -44.5 -111 t-106.5 -47q-65 0 -109.5 46.5t-44.5 111.5z" />
<glyph unicode="&#x3c;" d="M141 520v17l834 454l31 -55l-754 -410l754 -409l-31 -58z" />
<glyph unicode="=" d="M94 338v55h959v-55h-959zM94 705v55h959v-55h-959z" />
<glyph unicode="&#x3e;" d="M141 117l754 409l-754 410l31 55l834 -454v-17l-834 -461z" />
<glyph unicode="?" horiz-adv-x="782" d="M66 1317q0 153 176 153q108 0 197.5 -34.5t147 -92.5t89 -131.5t31.5 -154.5q0 -92 -25.5 -166t-74 -128t-106.5 -92t-136 -71l2 -168l-23 -4l-55 426q47 8 94 20t102 31t96.5 40.5t69 52t27.5 63.5q0 32 -13.5 55t-33.5 35.5t-54 20t-64.5 9.5t-76.5 3h-225 q-60 2 -102.5 35.5t-42.5 97.5zM219 147q0 66 44 112t108 46q63 0 108 -46t45 -112q0 -65 -45 -111t-108 -46q-64 0 -108 46t-44 111z" />
<glyph unicode="@" horiz-adv-x="1665" d="M70 420q0 131 39.5 256.5t116 232.5t180 188.5t240 128t286.5 46.5q190 0 340.5 -79.5t235.5 -226.5t85 -335q0 -114 -36.5 -226.5t-101.5 -204.5t-165.5 -149t-218.5 -57q-78 0 -131 35t-53 106q0 58 61 330l-14 2q-31 -86 -68.5 -163t-83.5 -147.5t-100.5 -112.5 t-108.5 -42q-68 0 -116.5 54.5t-48.5 168.5q0 117 42 255.5t109.5 257.5t163 198.5t192.5 79.5q43 0 79 -23t55 -59l12 49q5 12 17.5 20.5t25.5 8.5q176 0 176 -41l-92 -391q-1 -7 -23 -114.5t-39 -184.5q-16 -88 -16 -107q0 -27 22 -47.5t66 -20.5q86 0 157 51.5t113.5 132 t65 170t22.5 173.5q0 122 -41 229.5t-117.5 190t-194.5 130.5t-263 48q-167 0 -307 -66t-233.5 -180.5t-145 -268t-51.5 -327.5q0 -295 166.5 -458.5t457.5 -163.5q44 0 80.5 3t57 6t62.5 10.5t71 12.5q10 1 61.5 16.5t57.5 16.5q16 4 40 4q21 0 33.5 -6.5t12.5 -15.5 q0 -8 -4.5 -16t-10.5 -9q-118 -5 -139 -10q-109 -25 -175 -34t-161 -9q-125 0 -237.5 28.5t-205 86t-159.5 139t-104 191.5t-37 239zM647 252q0 -46 13 -71t47 -25q54 0 140.5 183.5t137.5 393.5l25 103q0 34 -7.5 66t-30.5 58.5t-57 26.5q-46 0 -90.5 -64.5t-75.5 -159.5 t-55 -200t-35.5 -188t-11.5 -123z" />
<glyph unicode="A" horiz-adv-x="1431" d="M-35 0v29l160 67l442 1161l-35 103l164 49l105 86h12l520 -1464l131 -2v-29h-622v29l164 4l-201 567h-445l-190 -504l160 -67v-29h-365zM375 643h416l-199 565h-2z" />
<glyph unicode="B" horiz-adv-x="1355" d="M37 0v29l176 4v1392l-176 5v28h369q34 0 189 1t185 1q68 0 130 -9.5t125.5 -35t109.5 -64.5t75 -103t29 -146q0 -128 -99 -224t-273 -110v-10q185 -15 300 -110.5t115 -235.5q0 -126 -67.5 -222t-178 -145t-243.5 -49q-81 0 -240.5 2t-240.5 2h-285zM524 35q64 -6 140 -6 q155 0 236 103.5t81 270.5q0 160 -94 250t-254 90h-109v-708zM524 776h127q142 0 214.5 87t72.5 229q0 157 -79.5 245.5t-244.5 89.5q-32 0 -90 -4v-647z" />
<glyph unicode="C" horiz-adv-x="1392" d="M59 729q0 226 97 396t265 259t382 89q223 0 391 -64l82 41l10 -4l23 -442l-21 -5q-41 61 -71 104t-86 112t-103 112.5t-105.5 77t-109.5 33.5q-116 0 -198 -51.5t-128.5 -148t-67 -218t-20.5 -279.5q0 -118 15 -219.5t49.5 -190t87 -151t131.5 -98t178 -35.5 q160 0 278.5 107.5t157.5 322.5l33 -4q-34 -250 -176.5 -369.5t-361.5 -119.5q-332 0 -532 203.5t-200 541.5z" />
<glyph unicode="D" horiz-adv-x="1583" d="M37 0v29l176 4v1392l-176 5v28h414q44 0 122.5 1t133.5 1q137 0 231 -18q286 -51 435 -233.5t149 -471.5q0 -144 -57.5 -281t-165.5 -244t-248 -159q-63 -25 -165.5 -41t-178.5 -16q-36 0 -177 2t-188 2h-305zM524 29h140q114 0 203 36.5t147 99.5t95.5 153t53 189.5 t15.5 217.5q0 109 -15.5 206.5t-53 190.5t-95 160t-147.5 107.5t-205 40.5q-98 0 -138 -3v-1398z" />
<glyph unicode="E" horiz-adv-x="1388" d="M37 0v29l176 4v1392l-176 5v28h1022l158 4v-10l28 -403l-18 -7l-285 312q-46 48 -80.5 60.5t-107.5 12.5h-230v-653h94q46 0 86 10t69 25t55.5 40.5t43.5 48t34.5 56.5t27 57t22.5 58h25q-25 -214 -27 -311q0 -122 27 -326h-25q-53 143 -137.5 226t-200.5 83h-94v-708 h291q51 0 78.5 14t60.5 47l336 381l21 -4l-72 -471h-1202z" />
<glyph unicode="F" horiz-adv-x="1296" d="M37 0v29l176 4v1392l-176 5v28h1020l160 4v-10l28 -403l-18 -7l-281 310q-49 49 -82.5 62t-103.5 13h-236v-653h94q46 0 86 10t69 25t55.5 40.5t43.5 48t34.5 56.5t27 57t22.5 58h25q-25 -214 -27 -311q0 -122 27 -326h-25q-53 143 -137.5 226t-200.5 83h-94v-708l201 -4 v-29h-688z" />
<glyph unicode="G" horiz-adv-x="1550" d="M59 705q0 222 97 397t270.5 273t392.5 98q236 0 424 -66l82 43l10 -4l21 -442l-21 -5q-54 82 -91.5 135.5t-91.5 116.5t-101 100t-105.5 62t-118.5 25q-209 0 -315 -179.5t-106 -508.5q0 -79 9.5 -158.5t29 -163.5t54.5 -155.5t82.5 -129t116.5 -90.5t152 -33 q109 0 209 31v551l-162 2v31h592v-29l-127 -2v-481h59v-21q-363 -118 -577 -118q-185 0 -333.5 52t-247 146.5t-151.5 227.5t-53 295z" />
<glyph unicode="H" horiz-adv-x="1615" d="M37 0v29l176 4v1392l-176 5v28h657v-28l-170 -5v-651h568v651l-170 5v28h657v-28l-172 -5v-1392l172 -4v-29h-657v29l170 4v704h-568v-704l172 -4v-29h-659z" />
<glyph unicode="I" horiz-adv-x="735" d="M37 0v29l176 4v1392l-176 5v28h657v-28l-170 -5v-1392l172 -4v-29h-659z" />
<glyph unicode="J" horiz-adv-x="966" d="M29 176q0 73 42.5 119.5t110.5 46.5q65 0 106.5 -35.5t41.5 -99.5q0 -32 -11 -58.5t-24 -40.5t-24 -29.5t-11 -27.5q0 -37 64 -37q67 0 105 57t38 156v1198l-174 5v28h657v-28l-170 -5v-987q0 -201 -120.5 -328.5t-331.5 -127.5q-141 0 -220 52.5t-79 141.5z" />
<glyph unicode="K" horiz-adv-x="1505" d="M37 1430v28h668v-28l-181 -5v-637h105q51 0 92 21q34 18 86 76l455 481l-160 64v28h379v-28l-174 -68l-416 -451l512 -878l125 -4v-29h-475l-11 33l-401 723h-117v-723l172 -4v-29h-655v29l172 4v1392z" />
<glyph unicode="L" horiz-adv-x="1355" d="M37 0v29l176 4v1392l-176 5v28h657v-28l-170 -5v-1392h283q58 0 87 14t60 47l336 381l21 -4l-72 -471h-1202z" />
<glyph unicode="M" horiz-adv-x="1843" d="M29 1430v28h542l353 -928h4l366 928h510v-28l-172 -5v-1392l174 -4v-29h-655v29l170 4v1382h-4l-526 -1341h-19l-522 1341h-4v-1311l168 -75v-29h-377v29l168 75v1321z" />
<glyph unicode="N" horiz-adv-x="1396" d="M14 1430v28h465l690 -962h2v860l-165 74v28h368v-28l-162 -74v-926l2 -436h-53l-917 1288v-1178l166 -79v-25h-373v25l166 79v1213l-76 94z" />
<glyph unicode="O" horiz-adv-x="1564" d="M59 723q0 150 52.5 286.5t146 240t231 164.5t297.5 61q217 0 382 -99t250 -263.5t85 -367.5q0 -118 -33 -231t-96 -208.5t-149 -167.5t-199.5 -113t-239.5 -41q-167 0 -305 56t-230 154.5t-142 234t-50 294.5zM406 719q0 -116 11 -215t38.5 -190t70 -154.5t109 -101.5 t151.5 -38q84 0 149 37t107 99.5t69.5 153t38.5 190.5t11 219q0 112 -11 212.5t-38.5 195.5t-69 163.5t-107.5 110t-149 41.5q-380 0 -380 -723z" />
<glyph unicode="P" horiz-adv-x="1316" d="M37 0v29l176 4v1392l-176 5v28h352q14 0 112.5 1t227.5 1q80 0 152 -12t143 -42.5t122.5 -77t83.5 -121t32 -169.5q0 -126 -66.5 -227t-175 -155t-234.5 -54h-2l-260 51v-620l181 -4v-29h-668zM524 674q90 -8 142 -8q66 0 116 24q81 42 121.5 142.5t40.5 211.5 q0 177 -76 279t-233 102l-111 -4v-747z" />
<glyph unicode="Q" horiz-adv-x="1564" d="M59 723q0 150 52.5 286.5t146 240t231 164.5t297.5 61q217 0 382 -99t250 -263.5t85 -367.5q0 -172 -66 -325t-191 -263t-288 -149q11 -42 31.5 -79.5t52.5 -72.5t81.5 -56t109.5 -21q62 0 151 26l7 -16q-65 -45 -160 -75.5t-209 -30.5q-98 0 -183.5 36t-145.5 109.5 t-75 171.5q-253 50 -406 245t-153 478zM406 719q0 -116 11 -215t38.5 -190t70 -154.5t109 -101.5t151.5 -38q84 0 149 37t107 99.5t69.5 153t38.5 190.5t11 219q0 112 -11 212.5t-38.5 195.5t-69 163.5t-107.5 110t-149 41.5q-380 0 -380 -723z" />
<glyph unicode="R" horiz-adv-x="1468" d="M37 0v29l176 4v1392l-176 5v28h307q54 0 206.5 1t207.5 1q235 0 365 -94t130 -264q0 -146 -117.5 -248.5t-306.5 -122.5v-12q144 -7 220.5 -66t111.5 -164l111 -311q20 -69 52 -99t83 -30q33 0 76 6l2 -22q-39 -17 -120 -31t-159 -14q-124 0 -187 50t-87 152l-90 314 q-30 110 -73.5 159.5t-115.5 49.5l-129 2v-682l178 -4v-29h-665zM524 748q54 -7 103 -7q132 0 226.5 93t94.5 247q0 113 -43.5 197t-126.5 121q-67 31 -155 31q-55 0 -99 -5v-677z" />
<glyph unicode="S" horiz-adv-x="1218" d="M82 471l20 6q38 -57 58 -85.5t61.5 -85.5t70.5 -89t73 -75.5t80.5 -66.5t81 -40t87.5 -17q113 0 174.5 79.5t61.5 195.5q0 63 -19.5 113t-58 86.5t-81 61.5t-101.5 50l-117 51q-65 28 -120 61t-108.5 80.5t-84.5 110.5t-31 135q0 102 37.5 184.5t102.5 134.5t148.5 79.5 t178.5 27.5q205 0 354 -63l72 37l6 -4l33 -400l-19 -2q-62 87 -102 140t-89 109t-87.5 85.5t-82.5 48.5t-89 19q-95 0 -155 -60t-60 -161q0 -39 7.5 -71t25.5 -57.5t34 -42.5t47.5 -35t50 -27t56.5 -26q12 -5 18 -8l193 -88q319 -143 319 -407q0 -105 -46 -195.5 t-121 -149.5t-170 -92.5t-195 -33.5q-95 0 -210 26t-183 72l-53 -70l-21 2z" />
<glyph unicode="T" horiz-adv-x="1390" d="M23 1057l20 399l4 6l156 -4h1016l124 4l5 -6l20 -399l-27 -6l-274 315q-32 34 -56.5 47.5t-58.5 13.5h-100v-1394l174 -4v-29h-659v29l172 4v1394h-95q-35 0 -59.5 -12.5t-56.5 -44.5l-279 -319z" />
<glyph unicode="U" horiz-adv-x="1490" d="M31 1432v26h657v-26l-170 -5v-909q0 -463 344 -463q104 0 184 39t127 106t70 148t23 174v834l-166 76v26h368v-26l-161 -76v-852q0 -83 -16.5 -156.5t-55.5 -141t-98.5 -116t-150.5 -77.5t-206 -29q-133 0 -233 27t-164.5 74t-104.5 119.5t-56.5 155.5t-16.5 189v878z " />
<glyph unicode="V" horiz-adv-x="1308" d="M-23 1430v28h619v-28l-164 -5l365 -995h2l344 932l-160 68v28h365v-28l-158 -68l-518 -1374h-35l-535 1439z" />
<glyph unicode="W" horiz-adv-x="2058" d="M-29 1430v28h621v-28l-164 -5l365 -995h2l219 598l-150 399l-125 3v28h621v-28l-164 -5l365 -995h2l344 932l-160 68v28h364v-28l-157 -68l-518 -1374h-35l-365 979h-2l-366 -979h-35l-537 1439z" />
<glyph unicode="X" horiz-adv-x="1378" d="M-29 0v29l185 65l395 598l-408 733l-141 5v28h666v-28l-172 -5l307 -553l317 492l-157 66v28h376v-28l-174 -68l-344 -526l445 -803l143 -4v-29h-659v29l170 4l-349 620l-368 -561l159 -63v-29h-391z" />
<glyph unicode="Y" horiz-adv-x="1310" d="M-35 1430v28h653v-28l-167 -5l350 -667l327 604l-159 68v28h368v-28l-163 -68l-357 -662v-667l182 -4v-29h-677v29l180 4v659l-400 733z" />
<glyph unicode="Z" horiz-adv-x="1384" d="M51 0v16l871 1411h-418q-36 0 -61 -12t-56 -45l-305 -328l-23 2l47 412l5 6l155 -4h1014v-18l-868 -1407h401q37 0 67 12t42.5 22.5t38.5 36.5q41 41 169.5 183.5t167.5 189.5l19 -6l-90 -471h-1176z" />
<glyph unicode="[" horiz-adv-x="827" d="M207 -465v2013q196 -49 371 -49q184 0 206 80l15 -4q-17 -272 -162 -272q-72 0 -160 42.5t-140 82.5t-87 75v-1923q24 24 60.5 53.5t90.5 65.5t117.5 60t118.5 24q145 0 162 -275l-15 -4q-22 80 -206 80q-175 0 -371 -49z" />
<glyph unicode="\" horiz-adv-x="696" d="M152 1485l53 8l457 -1874l-56 -8z" />
<glyph unicode="]" horiz-adv-x="827" d="M29 -492q17 275 161 275q55 0 118.5 -24t118 -60t91 -65.5t60.5 -53.5v1923q-23 -23 -60.5 -52.5t-91 -65t-117.5 -59t-119 -23.5q-144 0 -161 272l14 4q22 -80 207 -80q175 0 371 49v-2013q-196 49 -371 49q-185 0 -207 -80z" />
<glyph unicode="^" d="M109 279l460 827h15l454 -830l-51 -30l-414 751l-407 -751z" />
<glyph unicode="_" horiz-adv-x="868" d="M0 -174h963v-70h-963v70z" />
<glyph unicode="`" horiz-adv-x="598" d="M94 1335q0 40 33.5 76.5t77.5 36.5q26 0 45 -8l252 -348l-15 -15l-385 223l-4 5q-4 24 -4 30z" />
<glyph unicode="a" horiz-adv-x="999" d="M70 205q0 61 28.5 114t74.5 91t111 69.5t131 52t142 35.5v168q0 98 -35 147.5t-133 49.5q-56 0 -96.5 -26t-40.5 -54q0 -13 12.5 -27.5t27.5 -26.5t27.5 -35.5t12.5 -51.5q0 -51 -32 -84t-85 -33q-63 0 -92 34t-29 87q0 110 123 190t318 80q287 0 284 -229l-6 -500 q0 -90 72 -90q63 0 78 76h20q-2 -49 -15 -91.5t-37.5 -79t-67 -58t-99.5 -21.5q-71 0 -124.5 46.5t-70.5 133.5q-34 -94 -104.5 -140t-159.5 -46q-99 0 -167 59t-68 160zM319 276q0 -67 32 -109t89 -42q54 0 85.5 34.5t31.5 90.5v285q-107 -21 -172.5 -89.5t-65.5 -169.5z " />
<glyph unicode="b" horiz-adv-x="1118" d="M33 1434v24l358 35h12l-6 -324v-335q33 31 56 49.5t65.5 45.5t93.5 40.5t109 13.5q148 0 249 -113t101 -309q0 -124 -43 -232t-115 -182.5t-168.5 -117.5t-201.5 -43q-79 0 -161 18.5t-130 56.5l-86 -63h-29q2 225 2 356v1053zM397 246q0 -115 40 -171.5t126 -56.5 q105 0 172.5 123t67.5 324q0 77 -14.5 143t-44 120.5t-80.5 86t-119 31.5q-93 0 -148 -41v-559z" />
<glyph unicode="c" horiz-adv-x="919" d="M47 451q0 239 141 384.5t363 145.5q84 0 148 -20.5t98.5 -53.5t51.5 -67.5t17 -67.5q0 -62 -37 -108t-102 -46q-55 0 -91 30.5t-36 80.5q0 36 15 63.5t29.5 49t14.5 41.5q0 24 -28.5 43.5t-83.5 19.5q-66 0 -116 -30.5t-79 -84.5t-43 -121t-14 -147q0 -71 18.5 -134.5 t56.5 -117t102.5 -85t148.5 -31.5q81 0 149.5 28t114.5 76l8 -8q-11 -53 -40 -105t-75.5 -98t-117.5 -74t-154 -28q-110 0 -199 38t-145 102.5t-85.5 147.5t-29.5 177z" />
<glyph unicode="d" horiz-adv-x="1134" d="M47 459q0 127 43 229.5t114 165.5t156 96t175 33q109 0 194 -31v455l-111 27v24l363 35h12l-6 -393v-1016l98 -29v-20l-340 -47h-16v149q-44 -62 -119 -106.5t-168 -44.5q-171 0 -283 130.5t-112 342.5zM301 600q0 -207 87.5 -337t234.5 -130q64 0 106 29v567 q0 97 -59.5 158t-137.5 61q-63 0 -109.5 -30t-72 -81t-37.5 -110t-12 -127z" />
<glyph unicode="e" horiz-adv-x="960" d="M47 453q0 228 142 378t356 150q167 0 270 -91.5t103 -238.5v-26h-617q-4 -23 -4 -60q0 -50 7 -95.5t29 -97.5t57 -89.5t97 -62.5t144 -25q94 0 165 32t113 74l9 -10q-23 -141 -132.5 -223t-269.5 -82q-216 0 -342.5 132.5t-126.5 334.5zM303 657h359v41q0 102 -39 174 t-121 72q-177 0 -199 -287z" />
<glyph unicode="f" horiz-adv-x="636" d="M37 877v36l121 43v138q0 199 115 323.5t309 124.5q104 0 173.5 -44.5t69.5 -127.5q0 -50 -31.5 -89.5t-88.5 -39.5q-56 0 -88.5 31t-32.5 78q0 32 14 57t28.5 42t14.5 30q0 32 -70 32q-155 0 -155 -227v-332h219v-82h-219v-839l133 -2v-29h-502v31l111 2v839z" />
<glyph unicode="g" horiz-adv-x="1093" d="M23 -270q0 63 67 133t203 94v4q-172 30 -172 154q0 40 23 77.5t61 65t81 48t89 32.5v6q-140 34 -210.5 119.5t-70.5 181.5q0 151 120 243.5t312 92.5q126 0 265 -51l247 37v-152l-243 80l-2 -6q64 -37 102.5 -107t38.5 -129q0 -78 -36 -140t-96.5 -99.5t-134.5 -56.5 t-155 -19q-79 0 -133.5 -27t-54.5 -75q0 -58 112 -58h291q61 0 120 -15t110 -44.5t82.5 -81t31.5 -117.5q0 -129 -84 -226.5t-214 -145.5t-281 -48q-237 0 -353 63t-116 167zM242 -207q0 -33 7 -65t26.5 -67.5t49.5 -62t82 -44t119 -17.5q79 0 152.5 27.5t124.5 86t51 136.5 q0 166 -209 166h-319q-39 -20 -61.5 -64.5t-22.5 -95.5zM348 651q0 -124 40 -202t124 -78q168 0 168 293q0 282 -170 282q-47 0 -81 -27t-50.5 -73t-23.5 -93.5t-7 -101.5z" />
<glyph unicode="h" horiz-adv-x="1161" d="M43 0v29l109 2v1376l-109 27v24l360 35h11l-4 -410v-264q70 70 156 117t175 47q131 0 202 -69.5t71 -190.5v-692l106 -2v-29h-471v29l107 2v624q0 38 -8.5 71t-27.5 64t-55.5 49.5t-86.5 18.5q-38 0 -73.5 -13.5t-50 -24t-44.5 -34.5v-755l106 -2v-29h-473z" />
<glyph unicode="i" horiz-adv-x="563" d="M49 0v29l109 2v843l-101 27v25l349 53h14l-4 -299v-649l106 -2v-29h-473zM135 1235q0 65 43 109.5t107 44.5q67 0 111 -44t44 -110q0 -63 -45.5 -107.5t-109.5 -44.5q-62 0 -106 44.5t-44 107.5z" />
<glyph unicode="j" horiz-adv-x="555" d="M-186 -334q0 55 34.5 95t94.5 40q56 0 88 -29t32 -77q0 -40 -26.5 -78t-26.5 -49q0 -8 8.5 -17.5t20.5 -9.5q61 0 90 48t29 130v1155l-101 27v25l351 53h12l-4 -338v-627q0 -146 -44 -260.5t-132.5 -182t-208.5 -67.5q-94 0 -155.5 42t-61.5 120zM135 1235q0 65 43 109.5 t107 44.5q67 0 111 -44t44 -110q0 -63 -45.5 -107.5t-109.5 -44.5q-62 0 -106 44.5t-44 107.5z" />
<glyph unicode="k" horiz-adv-x="1091" d="M43 0v29l109 2v1376l-109 27v24l358 35h13q-4 -237 -4 -358v-553h88q59 0 114 55l271 246l-144 57v27h342v-27l-149 -59l-240 -224l338 -626l96 -2v-29h-376l-9 31l-266 520h-65v-520l106 -2v-29h-473z" />
<glyph unicode="l" horiz-adv-x="557" d="M43 0v29l109 2v1376l-109 27v24l360 35h11l-4 -281v-1181l106 -2v-29h-473z" />
<glyph unicode="m" horiz-adv-x="1767" d="M49 0v29l109 2v843l-101 27v25l344 53h11l2 -160q73 71 158.5 117.5t166.5 46.5q104 0 171 -44.5t91 -123.5q77 72 168.5 120t171.5 48q135 0 207 -70.5t72 -193.5v-688l109 -2v-29h-474v29l107 2v620q0 55 -14.5 99t-55.5 76t-106 32q-55 0 -101 -23.5t-75 -52.5 q8 -36 8 -61v-690l106 -2v-29h-471v29l107 2v633q0 81 -43 137.5t-133 56.5q-38 0 -73.5 -13.5t-52 -25.5t-42.5 -33v-755l106 -2v-29h-473z" />
<glyph unicode="n" horiz-adv-x="1167" d="M49 0v29l109 2v843l-101 27v25l344 53h11l2 -160q72 70 159.5 117t167.5 47q135 0 207 -70.5t72 -193.5v-688l108 -2v-29h-473v29l107 2v620q0 55 -14.5 99t-55.5 76t-106 32q-38 0 -74 -13.5t-53.5 -26t-42.5 -32.5v-755l106 -2v-29h-473z" />
<glyph unicode="o" horiz-adv-x="1097" d="M47 473q0 134 64 250t180 187t258 71q215 0 358.5 -132t143.5 -347q0 -221 -145 -368.5t-357 -147.5q-219 0 -360.5 137t-141.5 350zM332 487q0 -224 58.5 -347.5t158.5 -123.5q104 0 159.5 122.5t55.5 348.5q0 223 -53.5 341t-159.5 118q-219 0 -219 -459z" />
<glyph unicode="p" horiz-adv-x="1128" d="M41 -455l111 2v1327l-101 27v25l342 53h13l2 -131q62 60 140.5 96.5t147.5 36.5q176 0 280.5 -125.5t104.5 -320.5q0 -241 -139.5 -395t-353.5 -154q-125 0 -178 41v-480l129 -2v-28h-498v28zM410 287q0 -140 50 -204.5t128 -64.5q96 0 163.5 107t67.5 283 q0 199 -76.5 319.5t-214.5 120.5q-51 0 -118 -29v-532z" />
<glyph unicode="q" horiz-adv-x="1124" d="M47 451q0 142 58 262t171 195t259 75q160 0 303 -78l129 74h20v-1432l113 -2v-28h-502v28l131 2v586q-55 -75 -135 -112t-158 -37q-173 0 -281 132.5t-108 334.5zM301 573q0 -120 35.5 -218.5t106.5 -159t165 -60.5q74 0 121 27v569q0 88 -51.5 152.5t-138.5 64.5 q-67 0 -116 -33t-74 -89.5t-36.5 -118.5t-11.5 -134z" />
<glyph unicode="r" horiz-adv-x="872" d="M49 0v29l109 2v843l-101 27v25l344 53h11l2 -184q52 72 133.5 129t157.5 57q83 0 124 -45.5t41 -104.5q0 -64 -40 -110.5t-99 -46.5q-61 0 -95 34.5t-34 77.5q0 16 5 36.5t5 25.5q0 20 -26 20q-31 0 -81 -37.5t-89 -82.5v-717l119 -2v-29h-486z" />
<glyph unicode="s" horiz-adv-x="849" d="M55 338l17 6l233 -313q44 -13 86 -13t82 17t71 60.5t31 105.5q0 69 -41 111t-128 69l-95 27q-237 71 -237 274q0 130 100 214.5t256 84.5q119 0 225 -39l64 19l8 -3l10 -274l-16 -4l-80 94q-75 89 -127 129.5t-111 40.5q-56 0 -93.5 -41t-37.5 -102q0 -116 162 -168 l119 -35q248 -79 248 -281q0 -81 -38.5 -146.5t-100 -104.5t-132 -59.5t-141.5 -20.5q-158 0 -289 51l-28 2v8z" />
<glyph unicode="t" horiz-adv-x="743" d="M27 895v39l186 102l143 146h50l-5 -228h314v-65h-314v-580q0 -143 146 -143q43 0 90 16.5t82 48.5l14 -8q-37 -100 -128.5 -167.5t-211.5 -67.5q-121 0 -184.5 63t-63.5 174v662z" />
<glyph unicode="u" horiz-adv-x="1157" d="M47 905v25l361 49l6 -4l-6 -289v-338q0 -231 198 -231q75 0 144 65v697l-105 26v29l365 45l4 -4l-6 -289v-602l100 -29v-20l-342 -47h-16v164q-145 -168 -326 -168q-122 0 -198 68t-76 204v623z" />
<glyph unicode="v" horiz-adv-x="931" d="M-39 938v29h502v-29l-123 -2l250 -604h2l219 551l-121 55v29h279v-29l-117 -55l-363 -895h-18l-412 948z" />
<glyph unicode="w" horiz-adv-x="1542" d="M-39 938v29h502v-29l-123 -2l252 -604h2l160 393l-92 211l-99 2v29h502v-29l-123 -2l252 -604h2l223 551l-121 55v29h281v-29l-119 -55l-368 -895h-17l-297 684h-4l-282 -684h-21l-412 948z" />
<glyph unicode="x" horiz-adv-x="976" d="M-29 0v29l133 57l277 360l-283 488l-100 2v31h512v-31l-123 -2l199 -346l221 301l-115 49v29h281v-29l-125 -55l-240 -328l303 -524l95 -2v-29h-504v29l121 2l-222 385l-254 -338l121 -49v-29h-297z" />
<glyph unicode="y" horiz-adv-x="937" d="M-39 938v29h502v-29l-123 -2l254 -614h4l213 561l-121 55v29h279v-29l-119 -55l-416 -1090q-31 -76 -55.5 -123t-57 -88.5t-73 -59.5t-92.5 -18q-80 0 -134.5 45.5t-54.5 120.5q0 66 39.5 109t102.5 43q61 0 95 -31.5t34 -79.5q0 -32 -15.5 -58t-31 -42.5t-15.5 -26.5 q0 -11 9.5 -18.5t19.5 -7.5q31 -1 58 15.5t50 51t39.5 68t36.5 82.5l82 217l-412 944z" />
<glyph unicode="z" horiz-adv-x="935" d="M53 0v20l549 916h-227q-37 0 -59 -10.5t-44 -44.5l-172 -252h-24l14 338h801v-21l-551 -917l223 8q58 3 89.5 23t66.5 65l143 221h25l-37 -346h-797z" />
<glyph unicode="{" horiz-adv-x="552" d="M109 -88q0 68 21.5 147.5t48 140t48 140t21.5 147.5q0 75 -19 107q-11 0 -29 -13.5t-34 -13.5t-29.5 9t-13.5 26t11 27t28 10t37.5 -14.5t27.5 -14.5q18 0 21.5 27.5t-0.5 56.5q0 46 -21.5 113t-48 124.5t-48 124t-21.5 111.5q0 72 22 129t60 95t92 63t114 36t129 11v-22 q-95 -8 -166 -76.5t-71 -167.5q0 -63 17.5 -219t17.5 -219q0 -79 -17 -127t-61 -66v-4q78 -25 78 -184q0 -109 -17.5 -269.5t-17.5 -271.5q0 -103 72.5 -186.5t164.5 -91.5v-21q-87 0 -160 18.5t-131.5 57.5t-92 105.5t-33.5 154.5z" />
<glyph unicode="|" horiz-adv-x="583" d="M266 -326v1803h51v-1803h-51z" />
<glyph unicode="}" horiz-adv-x="552" d="M27 -403q92 8 164.5 91.5t72.5 186.5q0 111 -17.5 271.5t-17.5 269.5q0 159 78 184v4q-44 18 -61 66t-17 127q0 63 17.5 219t17.5 219q0 99 -71 167.5t-166 76.5v22q69 0 129 -11t114 -36t92 -63t60 -95t22 -129q0 -56 -35 -146t-69.5 -180t-34.5 -147q-4 -29 -0.5 -56.5 t21.5 -27.5q7 0 27.5 14.5t37.5 14.5t28 -10t11 -27t-13.5 -26t-29.5 -9q-17 0 -35 13.5t-28 13.5q-19 -32 -19 -107q0 -68 21.5 -147.5t48 -140t48 -140t21.5 -147.5q0 -88 -33.5 -154.5t-92 -105.5t-131.5 -57.5t-160 -18.5v21z" />
<glyph unicode="~" d="M82 473q21 66 63.5 110.5t80 60t67.5 15.5q88 0 268 -67q75 -28 106 -39t93.5 -26t111.5 -15q40 0 72 26.5t66 102.5l55 -20q-31 -93 -84 -134t-109 -41q-64 0 -131 16.5t-161.5 51.5t-128.5 45q-8 2 -28 8.5t-29 9.5t-26.5 7.5t-29 6.5t-27 3.5t-30.5 1.5 q-40 0 -79 -39.5t-61 -101.5z" />
<glyph unicode="&#xa1;" horiz-adv-x="567" d="M119 -303q0 106 18.5 236.5t38 218t54.5 230.5t46 191h17q5 -21 39 -154.5t46 -189t34 -165t30.5 -197t8.5 -170.5q0 -77 -47 -123.5t-119 -46.5q-69 0 -117.5 46.5t-48.5 123.5zM129 852q0 65 44.5 111.5t107.5 46.5q64 0 108.5 -46.5t44.5 -111.5q0 -66 -44 -111 t-109 -45q-63 0 -107.5 45t-44.5 111z" />
<glyph unicode="&#xa2;" horiz-adv-x="974" d="M43 451q0 238 145 384t365 146q63 0 119 -16l67 149l39 -14l-67 -148q77 -29 114 -84.5t37 -109.5q0 -64 -38 -110t-107 -46q-48 0 -82 25t-43 67l-201 -438q86 -86 232 -86q139 0 264 94l8 -8q-16 -37 -42.5 -76.5t-72.5 -86.5t-116 -77t-152 -30q-133 0 -223 43 l-76 -164l-37 14l76 168q-103 61 -156 168.5t-53 235.5zM289 547q0 -166 73 -256l281 610q-30 43 -104 43q-87 0 -145 -58.5t-81.5 -144.5t-23.5 -194z" />
<glyph unicode="&#xa3;" horiz-adv-x="1214" d="M53 115q0 61 44 98t108 37q81 0 166 -62q28 62 28 156q0 33 -4.5 69.5t-9 64t-14.5 69t-16 63t-19.5 69t-18.5 64.5h-239v43h227q-43 151 -43 275q0 182 125 298t315 116q152 0 237 -66.5t85 -161.5q0 -54 -36 -98.5t-97 -44.5q-51 0 -88 32t-37 87q0 45 27.5 88.5 t27.5 60.5q0 28 -34 49t-89 21q-49 0 -86 -18.5t-57.5 -46t-33 -65.5t-16 -69.5t-3.5 -66.5q0 -37 4.5 -75.5t15 -83.5t18 -73t24 -83l22.5 -75h375v-43h-363q31 -136 31 -208q0 -233 -234 -351l2 -6q64 7 502 41q207 17 207 119q0 30 -8.5 59t-14.5 39t-22 37l18 8 q29 -33 53.5 -85t24.5 -109q0 -125 -89.5 -217.5t-238.5 -92.5q-126 0 -234 40.5t-216 129.5q-28 -70 -75 -111.5t-109 -41.5q-56 0 -99 32.5t-43 88.5z" />
<glyph unicode="&#xa4;" horiz-adv-x="620" d="M45 494l64 65q-52 70 -52 154q0 79 52 147l-64 62l57 55l60 -62q70 48 143 48q85 0 150 -48l63 64l57 -55l-63 -62q51 -73 51 -153q0 -81 -53 -152l63 -63l-55 -54l-63 64q-65 -45 -144 -45q-76 0 -149 43l-60 -66zM109 705q0 -84 56 -145.5t142 -61.5q94 0 148.5 56 t54.5 159q0 95 -59.5 153t-139.5 58q-93 0 -147.5 -56.5t-54.5 -162.5z" />
<glyph unicode="&#xa5;" horiz-adv-x="1310" d="M-35 1430v28h653v-28l-167 -5l350 -667l327 604l-159 68v28h368v-28l-163 -68l-357 -662v-53h379v-43h-379v-571l182 -4v-29h-677v29l180 4v571h-377v43h377v45l-400 733z" />
<glyph unicode="&#xa6;" d="M545 -324v875h55v-875h-55zM545 692v793h55v-793h-55z" />
<glyph unicode="&#xa7;" horiz-adv-x="1028" d="M109 842q0 139 42.5 258.5t114 201.5t168 128.5t203.5 46.5q61 0 101 -23t40 -59q0 -39 -34.5 -63.5t-86.5 -22.5q-28 0 -54 10.5t-43.5 26t-31 31t-21.5 26t-9 10.5q-65 0 -142.5 -67.5t-111.5 -133.5q151 -107 271 -226.5t212 -255t141.5 -288t49.5 -309.5 q0 -169 -70.5 -314.5t-192 -231t-264.5 -85.5q-76 0 -126 29t-50 66q0 40 34.5 64t88.5 22q28 0 53 -11.5t41.5 -28.5t29 -33.5t19.5 -28t8 -11.5q71 0 156 52.5t141 150.5q-170 101 -291 206t-210 233.5t-132.5 284.5t-43.5 345zM158 872q0 -126 37.5 -258.5t101 -249.5 t146.5 -225t175.5 -192.5t186.5 -143.5q10 15 21.5 41.5t24.5 91t13 138.5q0 134 -59.5 298t-153 313.5t-205.5 280.5t-219 214q-31 -42 -50 -136.5t-19 -171.5z" />
<glyph unicode="&#xa8;" horiz-adv-x="817" d="M78 1243q0 57 39.5 97t95.5 40q54 0 93.5 -40t39.5 -97q0 -55 -39.5 -95t-93.5 -40q-55 0 -95 40t-40 95zM471 1243q0 57 39 97t94 40q54 0 93.5 -40t39.5 -97q0 -55 -39.5 -95t-93.5 -40q-55 0 -94 39.5t-39 95.5z" />
<glyph unicode="&#xa9;" horiz-adv-x="1830" d="M137 680q0 187 63 345t171 263.5t253.5 164t309.5 58.5q166 0 307.5 -52.5t246.5 -150t164.5 -247.5t59.5 -336q0 -175 -52.5 -324t-150.5 -258t-246 -171t-329 -62q-192 0 -345.5 60t-251 165t-149 244t-51.5 301zM180 690q0 -161 52.5 -297.5t148.5 -235.5t238 -154.5 t313 -55.5q167 0 307 61t234.5 165.5t147 246t52.5 301.5q0 173 -58.5 317t-159 240t-235.5 148.5t-288 52.5q-154 0 -291.5 -57.5t-239.5 -159t-161.5 -250.5t-59.5 -322zM367 705q0 183 77.5 317t212 201t308.5 67q92 0 164 -13t153 -46l53 37l19 -2l-13 -95l37 -258 l-22 -4q-105 153 -166 219q-126 135 -234 136q-77 0 -134 -28t-92.5 -75t-57 -119.5t-29.5 -150.5t-8 -178q0 -92 13 -171t42 -147.5t72.5 -117t108.5 -76t147 -27.5q128 0 223 88.5t127 247.5l25 -2q-14 -100 -55 -175.5t-102 -120.5t-134.5 -67t-159.5 -22 q-278 0 -426.5 156t-148.5 426z" />
<glyph unicode="&#xaa;" horiz-adv-x="614" d="M70 1008q0 42 26.5 79.5t69.5 64.5t86.5 45t89.5 30v82q0 118 -96 118q-72 0 -72 -38q0 -11 23.5 -35.5t23.5 -50.5q0 -27 -18.5 -46.5t-48.5 -19.5q-34 0 -52 21.5t-18 52.5q0 62 60 105.5t157 43.5q85 0 138.5 -29.5t52.5 -95.5l-5 -295q0 -39 31 -39q21 0 30.5 15.5 t14.5 48.5h19q0 -69 -32.5 -118.5t-98.5 -49.5q-42 0 -71.5 25.5t-33.5 68.5q-29 -46 -71.5 -72t-86.5 -26q-49 0 -83.5 31.5t-34.5 83.5zM98 754v55h418v-55h-418zM219 1051q0 -76 55 -76q44 0 68 39v190q-48 -8 -85.5 -52.5t-37.5 -100.5z" />
<glyph unicode="&#xab;" horiz-adv-x="833" d="M66 510q0 24 18 39l311 315l17 -10l-142 -338l136 -348l-13 -10l-311 313q-16 13 -16 39zM422 510q0 24 18 39l312 315l14 -10l-139 -338l135 -348l-12 -10l-312 313q-16 13 -16 39z" />
<glyph unicode="&#xac;" horiz-adv-x="1173" d="M70 598v57h979v-424h-60v367h-919z" />
<glyph unicode="&#xad;" horiz-adv-x="598" d="M37 492v167h524v-167h-524z" />
<glyph unicode="&#xae;" horiz-adv-x="1110" d="M41 1098q0 162 70.5 286t188 188t261.5 64q224 0 366 -135.5t142 -374.5q0 -153 -58.5 -272t-175 -188.5t-274.5 -69.5q-166 0 -285.5 68t-177 180t-57.5 254zM80 1104q0 -209 130.5 -342t350.5 -133q119 0 215.5 47.5t159.5 132.5h-213q-28 47 -93.5 165.5t-72.5 137.5 h-65v-281h86v-22h-318v22h78v594q-5 0 -39.5 1t-38.5 1v23h387q83 0 139 -44.5t56 -123.5q0 -59 -39.5 -104.5t-97.5 -59.5q87 -156 188 -287q4 0 25.5 -1t31.5 -1q84 125 84 293q0 146 -64.5 257.5t-171 169t-237.5 57.5q-202 0 -341.5 -140.5t-139.5 -361.5zM492 1133h53 q57 0 98 39t41 108q0 64 -29.5 105.5t-91.5 41.5h-71v-294z" />
<glyph unicode="&#xaf;" horiz-adv-x="792" d="M104 1174v153h584v-153h-584z" />
<glyph unicode="&#xb0;" horiz-adv-x="577" d="M86 1241q0 90 54 155.5t151 65.5q87 0 144 -58.5t57 -139.5q0 -93 -57.5 -157.5t-147.5 -64.5q-95 0 -148 58t-53 141zM133 1262q0 -98 42.5 -139.5t119.5 -41.5q56 0 100.5 45t44.5 115q0 91 -41.5 136.5t-117.5 45.5q-66 0 -107 -44t-41 -117z" />
<glyph unicode="&#xb1;" d="M94 0v55h959v-55h-959zM94 621v55h449v397h59v-397h451v-55h-451v-373h-59v373h-449z" />
<glyph unicode="&#xb2;" horiz-adv-x="671" d="M66 647v15q167 184 210 240q107 136 123 249q4 28 4 55q0 83 -41.5 142t-113.5 59q-35 0 -63.5 -18.5t-28.5 -47.5q0 -14 19 -27t38.5 -33t19.5 -50q0 -41 -26 -62.5t-55 -21.5q-38 0 -62 27t-24 63q0 84 75.5 150.5t214.5 66.5q99 0 169.5 -52.5t70.5 -150.5 q0 -52 -21 -98.5t-59.5 -87.5t-79.5 -76.5t-96 -85t-94 -94.5l329 4l23 66h18l-24 -232h-526z" />
<glyph unicode="&#xb3;" horiz-adv-x="681" d="M49 772q0 43 29 76t80 33q44 0 70 -25t26 -55q0 -25 -9 -44t-19.5 -28t-19.5 -18.5t-9 -18.5q0 -15 22 -27t62 -12q75 0 119 47.5t44 141.5q0 36 -7.5 67.5t-24 61t-47.5 46.5t-74 17q-31 0 -60 -15t-32 -15q-19 0 -19 12q0 4 2 7.5t4 5.5t6.5 4.5t7 4t8 3.5t7.5 3 q103 34 152 82t49 115q0 68 -37 115t-119 47q-42 -2 -74 -21t-32 -45q0 -10 13 -20.5t28 -19.5t28 -26.5t13 -39.5q0 -35 -22.5 -56.5t-55.5 -21.5q-46 0 -67 27.5t-21 66.5q0 77 78.5 140t216.5 63q99 0 163 -44.5t64 -121.5q0 -64 -62 -123.5t-176 -85.5v-8q14 2 47 2 q119 0 178.5 -55t59.5 -133q0 -115 -94.5 -185.5t-261.5 -70.5q-106 0 -170 41.5t-64 105.5z" />
<glyph unicode="&#xb4;" horiz-adv-x="598" d="M82 1092l248 348q17 10 45 10q44 0 77 -36t33 -77q0 -6 -4 -30l-2 -4l-383 -228z" />
<glyph unicode="&#xb5;" horiz-adv-x="1134" d="M147 -317q0 62 11.5 215.5t11.5 232.5v627l-10 149l184 21h14l-6 -277v-340q0 -41 10.5 -79.5t32 -72.5t61 -54.5t91.5 -20.5q63 0 106 26.5t80 71.5v576l-10 153l188 17h13l-9 -277v-452q0 -99 72 -99q36 0 60 36t24 79l23 -2q0 -119 -50 -173t-135 -54q-157 0 -174 161 h-4q-45 -83 -111.5 -127.5t-140.5 -44.5q-25 0 -43.5 2t-51 15.5t-55.5 37.5t-45 74t-32 119h-23q4 -67 61 -257.5t56 -276.5q0 -160 -106 -160q-93 0 -93 154z" />
<glyph unicode="&#xb6;" horiz-adv-x="1286" d="M109 1014q0 115 45 202.5t123 139t174.5 77t207.5 25.5h424l136 8v-43h-199v-1308q0 -95 -21.5 -173t-66 -139t-120 -95t-177.5 -34q-86 0 -159 27t-121 87t-48 142q0 79 52.5 135t129.5 56q61 0 107.5 -34.5t46.5 -102.5q0 -47 -14.5 -75t-42.5 -56q-5 -5 -17.5 -16.5 t-17 -16.5t-9.5 -14t-5 -19q0 -72 112 -72q152 0 236 104t84 273v455h-330q-267 0 -398.5 119t-131.5 348z" />
<glyph unicode="&#xb7;" horiz-adv-x="499" d="M98 717q0 66 44 111.5t110 45.5q62 0 106.5 -45.5t44.5 -111.5q0 -64 -44.5 -111t-106.5 -47q-65 0 -109.5 46.5t-44.5 111.5z" />
<glyph unicode="&#xb8;" horiz-adv-x="563" d="M61 -365q0 33 20.5 54.5t53.5 21.5q32 0 51 -17t19 -40q0 -15 -12.5 -36t-12.5 -26q0 -30 58 -30q57 0 93 26.5t36 75.5q0 45 -57.5 78.5t-172.5 46.5l68 227h37l-27 -92q59 -3 108.5 -14t95.5 -31.5t72.5 -57t26.5 -85.5q0 -96 -88.5 -149.5t-206.5 -53.5q-78 0 -120 30 t-42 72z" />
<glyph unicode="&#xb9;" horiz-adv-x="577" d="M98 1358v22q159 12 316 70v-20l-13 -7v-749l95 -2v-25h-396v25l95 2v682z" />
<glyph unicode="&#xba;" horiz-adv-x="679" d="M51 1167q0 120 84 207.5t209 87.5t208 -76.5t83 -199.5q0 -128 -82 -211.5t-209 -83.5q-131 0 -212 77t-81 199zM133 752v57h418v-57h-418zM223 1176q0 -134 27.5 -195t93.5 -61q69 0 95 59.5t26 196.5q0 134 -26 195t-95 61q-67 0 -94 -60.5t-27 -195.5z" />
<glyph unicode="&#xbb;" horiz-adv-x="831" d="M70 168l137 340l-137 344l14 10l311 -313q17 -21 17 -39q0 -25 -17 -39l-311 -315zM424 168l137 340l-137 344l14 10l312 -313q16 -16 16 -39q0 -28 -16 -39l-312 -315z" />
<glyph unicode="&#xbc;" horiz-adv-x="1474" d="M172 1358v22q158 12 315 70v-20l-12 -7v-749l94 -2v-25h-395v25l94 2v682zM324 -14l835 1474l37 -20l-834 -1473zM717 227v27l327 491l179 43h16v-530h107l12 78h26l-14 -109h-131v-200l72 -2v-25h-346v25l75 2v200h-323zM756 258h284v430z" />
<glyph unicode="&#xbd;" horiz-adv-x="1474" d="M172 1358v22q158 12 315 70v-20l-12 -7v-749l94 -2v-25h-395v25l94 2v682zM324 -14l835 1474l37 -20l-834 -1473zM836 0v14q167 184 210 240q107 136 124 249q4 28 4 56q0 83 -42 142t-114 59q-35 0 -63.5 -18.5t-28.5 -47.5q0 -11 12 -22t27 -19.5t27 -26.5t12 -42 q0 -41 -26.5 -62.5t-55.5 -21.5q-38 0 -62 27t-24 63q0 84 75.5 150.5t214.5 66.5q99 0 169.5 -52.5t70.5 -150.5q0 -52 -21 -98.5t-59.5 -87.5t-79.5 -76.5t-96 -85t-94 -94.5l330 4l22 65h18l-24 -231h-526z" />
<glyph unicode="&#xbe;" horiz-adv-x="1474" d="M76 772q0 43 28.5 76t79.5 33q44 0 70.5 -25.5t26.5 -54.5q0 -25 -9 -44t-20 -28t-20 -18.5t-9 -18.5q0 -15 22 -27t62 -12q75 0 119.5 47.5t44.5 141.5q0 78 -36.5 135t-117.5 57q-31 0 -60 -15t-32 -15q-18 0 -18 12q0 4 2 7.5t4 5.5t6.5 4.5t7 4t8 3.5t7.5 3 q103 34 151.5 82t48.5 115q0 68 -36.5 115t-118.5 47q-42 -2 -74.5 -21t-32.5 -45q0 -10 13 -20.5t28 -19.5t28 -26.5t13 -39.5q0 -35 -22.5 -56.5t-55.5 -21.5q-46 0 -67 27.5t-21 66.5q0 77 78.5 140t216.5 63q99 0 163 -44.5t64 -121.5q0 -65 -61.5 -124t-175.5 -85v-8 q14 2 47 2q119 0 178.5 -55t59.5 -133q0 -115 -95 -185.5t-262 -70.5q-106 0 -169.5 41.5t-63.5 105.5zM324 -14l835 1474l37 -20l-834 -1473zM717 227v27l327 491l179 43h16v-530h107l12 78h26l-14 -109h-131v-200l72 -2v-25h-346v25l75 2v200h-323zM756 258h284v430z" />
<glyph unicode="&#xbf;" horiz-adv-x="782" d="M111 -57q0 91 25.5 165t74 127.5t106.5 91.5t136 70v170l20 4l55 -428q-60 -10 -120 -26t-124.5 -41t-104.5 -60.5t-40 -76.5q0 -32 13.5 -55t33.5 -35.5t54 -20t64.5 -9.5t76.5 -3h225q60 -2 103 -35.5t43 -97.5q0 -46 -16.5 -78.5t-45 -48t-56 -21.5t-59.5 -6 q-108 0 -197.5 34.5t-146.5 92.5t-88.5 132t-31.5 155zM295 852q0 64 44.5 111t106.5 47q64 0 109 -46.5t45 -111.5q0 -66 -45 -112t-109 -46q-62 0 -106.5 46t-44.5 112z" />
<glyph unicode="&#xc0;" horiz-adv-x="1431" d="M-35 0v29l160 67l442 1161l-35 103l164 49l105 86h12l520 -1464l131 -2v-29h-622v29l164 4l-201 567h-445l-190 -504l160 -67v-29h-365zM319 1825q0 46 31.5 83.5t79.5 37.5q14 0 35 -7l332 -344l-15 -20l-450 197l-4 6q-9 27 -9 47zM375 643h416l-199 565h-2z" />
<glyph unicode="&#xc1;" horiz-adv-x="1431" d="M-35 0v29l160 67l442 1161l-35 103l164 49l105 86h12l520 -1464l131 -2v-29h-622v29l164 4l-201 567h-445l-190 -504l160 -67v-29h-365zM375 643h416l-199 565h-2zM504 1565l327 344q21 6 35 6q50 0 82.5 -38t32.5 -85q0 -19 -8 -47l-4 -6l-451 -195z" />
<glyph unicode="&#xc2;" horiz-adv-x="1431" d="M-35 0v29l160 67l442 1161l-35 103l164 49l105 86h12l520 -1464l131 -2v-29h-622v29l164 4l-201 567h-445l-190 -504l160 -67v-29h-365zM354 1593l262 303q35 41 74 41q47 0 82 -41l254 -303l-14 -20l-322 166l-321 -166zM375 643h416l-199 565h-2z" />
<glyph unicode="&#xc3;" horiz-adv-x="1431" d="M-35 0v29l160 67l442 1161l-35 103l164 49l105 86h12l520 -1464l131 -2v-29h-622v29l164 4l-201 567h-445l-190 -504l160 -67v-29h-365zM309 1567q17 65 50.5 113.5t69.5 71.5t64.5 33.5t47.5 10.5q57 0 174 -22.5t166 -22.5q57 0 98.5 14.5t69.5 61.5l16 -4 q-6 -78 -71.5 -155t-139.5 -77q-58 0 -183 22.5t-182 22.5q-117 0 -159 -75zM375 643h416l-199 565h-2z" />
<glyph unicode="&#xc4;" horiz-adv-x="1431" d="M-35 0v29l160 67l442 1161l-35 103l164 49l105 86h12l520 -1464l131 -2v-29h-622v29l164 4l-201 567h-445l-190 -504l160 -67v-29h-365zM360 1710q0 55 39 94t95 39t94.5 -38.5t38.5 -94.5q0 -55 -38.5 -93t-94.5 -38t-95 38t-39 93zM375 643h416l-199 565h-2zM768 1710 q0 56 39 94.5t94 38.5t94 -38.5t39 -94.5q0 -55 -38.5 -93t-94.5 -38t-94.5 38t-38.5 93z" />
<glyph unicode="&#xc5;" horiz-adv-x="1431" d="M-35 0v29l160 67l442 1161l-35 103l164 49l105 86h12l520 -1464l131 -2v-29h-622v29l164 4l-201 567h-445l-190 -504l160 -67v-29h-365zM375 643h416l-199 565h-2zM524 1671q0 68 42.5 114t111.5 46t113.5 -41.5t44.5 -106.5q0 -71 -44 -117t-114 -46q-71 0 -112.5 42 t-41.5 109zM565 1675q0 -54 30.5 -88.5t82.5 -34.5q56 0 86.5 33.5t30.5 87.5t-32 89.5t-87 35.5q-51 0 -81 -35t-30 -88z" />
<glyph unicode="&#xc6;" horiz-adv-x="2037" d="M-31 0v29l164 59l660 1337l-226 5v28h1119l188 4v-10l-23 -78l43 -325l-18 -7l-285 312q-45 48 -80.5 60.5t-107.5 12.5h-229v-653h94q46 0 86 10t69 25t55.5 40.5t43.5 48t34.5 56.5t27 57t22.5 58h22q-24 -204 -26 -311q0 -129 26 -326h-22q-53 143 -137.5 226 t-200.5 83h-94v-708h290q51 0 79.5 14.5t58.5 46.5q86 84 335 381l21 -4l-62 -319l-8 -121l13 -19l-3 -12h-1222v29l186 4v690h-373l-307 -635l170 -59v-29h-383zM506 756h356v669h-28z" />
<glyph unicode="&#xc7;" horiz-adv-x="1392" d="M59 729q0 226 97 396t265 259t382 89q223 0 391 -64l82 41l10 -4l23 -442l-21 -5q-41 61 -71 104t-86 112t-103 112.5t-105.5 77t-109.5 33.5q-116 0 -198 -51.5t-128.5 -148t-67 -218t-20.5 -279.5q0 -118 15 -219.5t49.5 -190t87 -151t131.5 -98t178 -35.5 q160 0 278.5 107.5t157.5 322.5l33 -4q-34 -250 -176.5 -369.5t-361.5 -119.5q-4 0 -12.5 1t-12.5 1l-16 -62q59 -3 108.5 -14t95.5 -31.5t72.5 -57t26.5 -85.5q0 -96 -88.5 -149.5t-206.5 -53.5q-78 0 -120 30t-42 72q0 33 20.5 54.5t53.5 21.5q32 0 50.5 -17t18.5 -40 q0 -15 -12 -36t-12 -26q0 -30 57 -30t93 26.5t36 75.5q0 45 -57 78.5t-172 46.5l57 197q-306 19 -488 220t-182 523z" />
<glyph unicode="&#xc8;" horiz-adv-x="1388" d="M37 0v29l176 4v1392l-176 5v28h1022l158 4v-10l28 -403l-18 -7l-285 312q-46 48 -80.5 60.5t-107.5 12.5h-230v-653h94q46 0 86 10t69 25t55.5 40.5t43.5 48t34.5 56.5t27 57t22.5 58h25q-25 -214 -27 -311q0 -122 27 -326h-25q-53 143 -137.5 226t-200.5 83h-94v-708 h291q51 0 78.5 14t60.5 47l336 381l21 -4l-72 -471h-1202zM354 1825q0 46 31.5 83.5t79.5 37.5q14 0 35 -7l331 -344l-14 -20l-450 197l-5 6q-8 24 -8 47z" />
<glyph unicode="&#xc9;" horiz-adv-x="1388" d="M37 0v29l176 4v1392l-176 5v28h1022l158 4v-10l28 -403l-18 -7l-285 312q-46 48 -80.5 60.5t-107.5 12.5h-230v-653h94q46 0 86 10t69 25t55.5 40.5t43.5 48t34.5 56.5t27 57t22.5 58h25q-25 -214 -27 -311q0 -122 27 -326h-25q-53 143 -137.5 226t-200.5 83h-94v-708 h291q51 0 78.5 14t60.5 47l336 381l21 -4l-72 -471h-1202zM594 1597l328 345q21 6 34 6q50 0 82.5 -38t32.5 -85q0 -19 -8 -47l-4 -6l-451 -195z" />
<glyph unicode="&#xca;" horiz-adv-x="1388" d="M37 0v29l176 4v1392l-176 5v28h1022l158 4v-10l28 -403l-18 -7l-285 312q-46 48 -80.5 60.5t-107.5 12.5h-230v-653h94q46 0 86 10t69 25t55.5 40.5t43.5 48t34.5 56.5t27 57t22.5 58h25q-25 -214 -27 -311q0 -122 27 -326h-25q-53 143 -137.5 226t-200.5 83h-94v-708 h291q51 0 78.5 14t60.5 47l336 381l21 -4l-72 -471h-1202zM387 1593l262 303q35 41 74 41q47 0 82 -41l254 -303l-15 -20l-321 166l-322 -166z" />
<glyph unicode="&#xcb;" horiz-adv-x="1388" d="M37 0v29l176 4v1392l-176 5v28h1022l158 4v-10l28 -403l-18 -7l-285 312q-46 48 -80.5 60.5t-107.5 12.5h-230v-653h94q46 0 86 10t69 25t55.5 40.5t43.5 48t34.5 56.5t27 57t22.5 58h25q-25 -214 -27 -311q0 -122 27 -326h-25q-53 143 -137.5 226t-200.5 83h-94v-708 h291q51 0 78.5 14t60.5 47l336 381l21 -4l-72 -471h-1202zM387 1710q0 56 38.5 94.5t94.5 38.5t94.5 -38.5t38.5 -94.5q0 -55 -38.5 -93t-94.5 -38t-94.5 38t-38.5 93zM795 1710q0 56 38.5 94.5t94.5 38.5t94.5 -38.5t38.5 -94.5q0 -55 -38.5 -93t-94.5 -38t-94.5 38 t-38.5 93z" />
<glyph unicode="&#xcc;" horiz-adv-x="735" d="M10 1825q0 46 31.5 83.5t79.5 37.5q14 0 35 -7l331 -344l-14 -20l-450 197l-5 6q-8 24 -8 47zM37 0v29l176 4v1392l-176 5v28h657v-28l-170 -5v-1392l172 -4v-29h-659z" />
<glyph unicode="&#xcd;" horiz-adv-x="735" d="M37 0v29l176 4v1392l-176 5v28h657v-28l-170 -5v-1392l172 -4v-29h-659zM211 1597l328 345q21 6 34 6q50 0 82.5 -38t32.5 -85q0 -19 -8 -47l-4 -6l-451 -195z" />
<glyph unicode="&#xce;" horiz-adv-x="735" d="M31 1593l262 303q35 41 74 41q47 0 82 -41l253 -303l-14 -20l-321 166l-322 -166zM37 0v29l176 4v1392l-176 5v28h657v-28l-170 -5v-1392l172 -4v-29h-659z" />
<glyph unicode="&#xcf;" horiz-adv-x="735" d="M35 1710q0 56 38.5 94.5t94.5 38.5t94.5 -38.5t38.5 -94.5q0 -55 -38.5 -93t-94.5 -38t-94.5 38t-38.5 93zM37 0v29l176 4v1392l-176 5v28h657v-28l-170 -5v-1392l172 -4v-29h-659zM442 1710q0 56 39 94.5t94 38.5q56 0 95 -39t39 -94t-39 -93t-95 -38t-94.5 38t-38.5 93 z" />
<glyph unicode="&#xd0;" horiz-adv-x="1583" d="M37 0v29l176 4v710h-152v43h152v639l-176 5v28h414q44 0 122.5 1t133.5 1q137 0 231 -18q286 -51 435 -233.5t149 -471.5q0 -144 -57.5 -281t-165.5 -244t-248 -159q-63 -25 -165.5 -41t-178.5 -16q-36 0 -177 2t-188 2h-305zM524 29h140q114 0 203 36.5t147 99.5 t95.5 153t53 189.5t15.5 217.5q0 109 -15.5 206.5t-53 190.5t-95 160t-147.5 107.5t-205 40.5q-98 0 -138 -3v-641h348v-43h-348v-714z" />
<glyph unicode="&#xd1;" horiz-adv-x="1396" d="M14 1430v28h465l690 -962h2v860l-165 74v28h368v-28l-162 -74v-926l2 -436h-53l-917 1288v-1178l166 -79v-25h-373v25l166 79v1213l-76 94zM354 1567q17 65 50.5 113.5t69.5 71.5t64.5 33.5t47.5 10.5q57 0 174 -22.5t166 -22.5q57 0 98.5 14.5t69.5 61.5l16 -4 q-6 -78 -71.5 -155t-139.5 -77q-57 0 -182 22.5t-182 22.5q-118 0 -160 -75z" />
<glyph unicode="&#xd2;" horiz-adv-x="1564" d="M59 723q0 150 52.5 286.5t146 240t231 164.5t297.5 61q217 0 382 -99t250 -263.5t85 -367.5q0 -118 -33 -231t-96 -208.5t-149 -167.5t-199.5 -113t-239.5 -41q-167 0 -305 56t-230 154.5t-142 234t-50 294.5zM406 719q0 -116 11 -215t38.5 -190t70 -154.5t109 -101.5 t151.5 -38q84 0 149 37t107 99.5t69.5 153t38.5 190.5t11 219q0 112 -11 212.5t-38.5 195.5t-69 163.5t-107.5 110t-149 41.5q-380 0 -380 -723zM410 1825q0 46 31 83.5t79 37.5q14 0 35 -7l332 -344l-15 -20l-450 197l-4 6q-8 24 -8 47z" />
<glyph unicode="&#xd3;" horiz-adv-x="1564" d="M59 723q0 150 52.5 286.5t146 240t231 164.5t297.5 61q217 0 382 -99t250 -263.5t85 -367.5q0 -118 -33 -231t-96 -208.5t-149 -167.5t-199.5 -113t-239.5 -41q-167 0 -305 56t-230 154.5t-142 234t-50 294.5zM406 719q0 -116 11 -215t38.5 -190t70 -154.5t109 -101.5 t151.5 -38q84 0 149 37t107 99.5t69.5 153t38.5 190.5t11 219q0 112 -11 212.5t-38.5 195.5t-69 163.5t-107.5 110t-149 41.5q-380 0 -380 -723zM668 1597l327 345q21 6 35 6q50 0 82.5 -38t32.5 -85q0 -19 -8 -47l-4 -6l-451 -195z" />
<glyph unicode="&#xd4;" horiz-adv-x="1564" d="M59 723q0 150 52.5 286.5t146 240t231 164.5t297.5 61q217 0 382 -99t250 -263.5t85 -367.5q0 -118 -33 -231t-96 -208.5t-149 -167.5t-199.5 -113t-239.5 -41q-167 0 -305 56t-230 154.5t-142 234t-50 294.5zM406 719q0 -116 11 -215t38.5 -190t70 -154.5t109 -101.5 t151.5 -38q84 0 149 37t107 99.5t69.5 153t38.5 190.5t11 219q0 112 -11 212.5t-38.5 195.5t-69 163.5t-107.5 110t-149 41.5q-380 0 -380 -723zM444 1593l263 303q35 41 73 41q47 0 82 -41l254 -303l-14 -20l-322 166l-321 -166z" />
<glyph unicode="&#xd5;" horiz-adv-x="1564" d="M59 723q0 150 52.5 286.5t146 240t231 164.5t297.5 61q217 0 382 -99t250 -263.5t85 -367.5q0 -118 -33 -231t-96 -208.5t-149 -167.5t-199.5 -113t-239.5 -41q-167 0 -305 56t-230 154.5t-142 234t-50 294.5zM401 1567q17 65 50.5 113.5t69.5 71.5t64.5 33.5t47.5 10.5 q57 0 174 -22.5t166 -22.5q57 0 98.5 14.5t69.5 61.5l16 -4q-6 -78 -71.5 -155t-139.5 -77q-58 0 -182 22.5t-182 22.5q-118 0 -160 -75zM406 719q0 -116 11 -215t38.5 -190t70 -154.5t109 -101.5t151.5 -38q84 0 149 37t107 99.5t69.5 153t38.5 190.5t11 219 q0 112 -11 212.5t-38.5 195.5t-69 163.5t-107.5 110t-149 41.5q-380 0 -380 -723z" />
<glyph unicode="&#xd6;" horiz-adv-x="1564" d="M59 723q0 150 52.5 286.5t146 240t231 164.5t297.5 61q217 0 382 -99t250 -263.5t85 -367.5q0 -118 -33 -231t-96 -208.5t-149 -167.5t-199.5 -113t-239.5 -41q-167 0 -305 56t-230 154.5t-142 234t-50 294.5zM406 719q0 -116 11 -215t38.5 -190t70 -154.5t109 -101.5 t151.5 -38q84 0 149 37t107 99.5t69.5 153t38.5 190.5t11 219q0 112 -11 212.5t-38.5 195.5t-69 163.5t-107.5 110t-149 41.5q-380 0 -380 -723zM449 1710q0 56 38.5 94.5t94.5 38.5t94.5 -38.5t38.5 -94.5q0 -55 -38.5 -93t-94.5 -38t-94.5 38t-38.5 93zM856 1710 q0 56 39 94.5t94 38.5t94 -38.5t39 -94.5q0 -55 -38.5 -93t-94.5 -38t-94.5 38t-38.5 93z" />
<glyph unicode="&#xd7;" d="M133 928l47 49l395 -397l392 395l45 -47l-391 -393l393 -394l-47 -47l-392 393l-393 -391l-47 45l393 391z" />
<glyph unicode="&#xd8;" horiz-adv-x="1564" d="M59 723q0 150 52.5 286.5t146 240t231 164.5t297.5 61q100 0 211 -27l43 133l52 -10l-45 -139q214 -74 335 -260t121 -427q0 -118 -33 -231t-96 -208.5t-149 -167.5t-199.5 -113t-239.5 -41q-102 0 -198 22l-49 -151l-56 12l49 153q-223 70 -348 258.5t-125 444.5z M406 719q0 -438 157 -606l410 1259q-83 70 -187 70q-380 0 -380 -723zM608 74q76 -54 178 -54q84 0 149 37t107 99.5t69.5 153t38.5 190.5t11 219q0 425 -147 610z" />
<glyph unicode="&#xd9;" horiz-adv-x="1490" d="M31 1432v26h657v-26l-170 -5v-909q0 -463 344 -463q104 0 184 39t127 106t70 148t23 174v834l-166 76v26h368v-26l-161 -76v-852q0 -83 -16.5 -156.5t-55.5 -141t-98.5 -116t-150.5 -77.5t-206 -29q-133 0 -233 27t-164.5 74t-104.5 119.5t-56.5 155.5t-16.5 189v878z M418 1825q0 46 31 83.5t79 37.5q14 0 35 -7l332 -344l-14 -20l-451 197l-4 6q-8 24 -8 47z" />
<glyph unicode="&#xda;" horiz-adv-x="1490" d="M31 1432v26h657v-26l-170 -5v-909q0 -463 344 -463q104 0 184 39t127 106t70 148t23 174v834l-166 76v26h368v-26l-161 -76v-852q0 -83 -16.5 -156.5t-55.5 -141t-98.5 -116t-150.5 -77.5t-206 -29q-133 0 -233 27t-164.5 74t-104.5 119.5t-56.5 155.5t-16.5 189v878z M655 1597l328 345q21 6 35 6q50 0 82.5 -38t32.5 -85q0 -15 -9 -47l-4 -6l-450 -195z" />
<glyph unicode="&#xdb;" horiz-adv-x="1490" d="M31 1432v26h657v-26l-170 -5v-909q0 -463 344 -463q104 0 184 39t127 106t70 148t23 174v834l-166 76v26h368v-26l-161 -76v-852q0 -83 -16.5 -156.5t-55.5 -141t-98.5 -116t-150.5 -77.5t-206 -29q-133 0 -233 27t-164.5 74t-104.5 119.5t-56.5 155.5t-16.5 189v878z M479 1593l262 303q35 41 74 41q47 0 82 -41l254 -303l-14 -20l-322 166l-321 -166z" />
<glyph unicode="&#xdc;" horiz-adv-x="1490" d="M31 1432v26h657v-26l-170 -5v-909q0 -463 344 -463q104 0 184 39t127 106t70 148t23 174v834l-166 76v26h368v-26l-161 -76v-852q0 -83 -16.5 -156.5t-55.5 -141t-98.5 -116t-150.5 -77.5t-206 -29q-133 0 -233 27t-164.5 74t-104.5 119.5t-56.5 155.5t-16.5 189v878z M526 1710q0 56 39 94.5t94 38.5q56 0 95 -39t39 -94t-39 -93t-95 -38t-94.5 38t-38.5 93zM934 1710q0 56 39 94.5t94 38.5t94 -38.5t39 -94.5q0 -55 -38.5 -93t-94.5 -38t-94.5 38t-38.5 93z" />
<glyph unicode="&#xdd;" horiz-adv-x="1310" d="M-35 1430v28h653v-28l-167 -5l350 -667l327 604l-159 68v28h368v-28l-163 -68l-357 -662v-667l182 -4v-29h-677v29l180 4v659l-400 733zM688 1565l328 344q21 6 35 6q50 0 82 -38t32 -85q0 -19 -8 -47l-4 -6l-451 -195z" />
<glyph unicode="&#xde;" horiz-adv-x="1316" d="M37 0v29l176 4v1392l-176 5v28h657v-28l-170 -5v-231h205q80 0 152 -11t143.5 -40t122.5 -74t83 -118.5t32 -168.5q0 -126 -66.5 -227.5t-175 -156t-234.5 -54.5h-2l-260 51v-362l183 -4v-29h-670zM524 414q90 -8 142 -8q62 0 116 26q82 43 122 139.5t40 206.5 q0 177 -76 278t-233 101q-6 0 -49 -1t-62 -1v-741z" />
<glyph unicode="&#xdf;" horiz-adv-x="1337" d="M37 877v36l121 43v50q0 102 39.5 197t111 170t181 120t239.5 45q119 0 205 -22t132.5 -60.5t67.5 -84.5t21 -101q0 -58 -22 -105.5t-62.5 -81.5t-83.5 -56.5t-100 -43.5q-166 -69 -166 -174q0 -53 50 -89t147 -69l155 -51q40 -14 75 -35t68.5 -53t53.5 -79t20 -103 q0 -103 -58 -183.5t-147 -120.5t-190 -40q-163 0 -291 51l-31 2v8l17 74l-31 217l16 6l240 -313q40 -11 82 -11q91 0 136.5 57t45.5 130q0 78 -47 119t-129 65l-78 25q-138 44 -191.5 109t-53.5 151q0 40 10 73.5t35 68t42.5 53.5t57.5 59q6 6 33.5 33t37 37t31.5 35.5 t31.5 42.5t22 43t17.5 53t5 57q0 134 -57.5 200t-155.5 66q-274 0 -274 -317v-1149l119 -2v-29h-488v31h111v841z" />
<glyph unicode="&#xe0;" horiz-adv-x="999" d="M70 205q0 61 28.5 114t74.5 91t111 69.5t131 52t142 35.5v168q0 98 -35 147.5t-133 49.5q-56 0 -96.5 -26t-40.5 -54q0 -13 12.5 -27.5t27.5 -26.5t27.5 -35.5t12.5 -51.5q0 -51 -32 -84t-85 -33q-63 0 -92 34t-29 87q0 110 123 190t318 80q287 0 284 -229l-6 -500 q0 -90 72 -90q63 0 78 76h20q-2 -49 -15 -91.5t-37.5 -79t-67 -58t-99.5 -21.5q-71 0 -124.5 46.5t-70.5 133.5q-34 -94 -104.5 -140t-159.5 -46q-99 0 -167 59t-68 160zM188 1352q0 40 33.5 76t77.5 36q26 0 45 -8l252 -348l-14 -14l-385 223l-4 4q-5 30 -5 31zM319 276 q0 -67 32 -109t89 -42q54 0 85.5 34.5t31.5 90.5v285q-107 -21 -172.5 -89.5t-65.5 -169.5z" />
<glyph unicode="&#xe1;" horiz-adv-x="999" d="M70 205q0 61 28.5 114t74.5 91t111 69.5t131 52t142 35.5v168q0 98 -35 147.5t-133 49.5q-56 0 -96.5 -26t-40.5 -54q0 -13 12.5 -27.5t27.5 -26.5t27.5 -35.5t12.5 -51.5q0 -51 -32 -84t-85 -33q-63 0 -92 34t-29 87q0 110 123 190t318 80q287 0 284 -229l-6 -500 q0 -90 72 -90q63 0 78 76h20q-2 -49 -15 -91.5t-37.5 -79t-67 -58t-99.5 -21.5q-71 0 -124.5 46.5t-70.5 133.5q-34 -94 -104.5 -140t-159.5 -46q-99 0 -167 59t-68 160zM313 1108l248 348q17 10 45 10q44 0 77.5 -35.5t33.5 -76.5q0 -7 -4 -31l-2 -4l-383 -227zM319 276 q0 -67 32 -109t89 -42q54 0 85.5 34.5t31.5 90.5v285q-107 -21 -172.5 -89.5t-65.5 -169.5z" />
<glyph unicode="&#xe2;" horiz-adv-x="999" d="M70 205q0 61 28.5 114t74.5 91t111 69.5t131 52t142 35.5v168q0 98 -35 147.5t-133 49.5q-56 0 -96.5 -26t-40.5 -54q0 -13 12.5 -27.5t27.5 -26.5t27.5 -35.5t12.5 -51.5q0 -51 -32 -84t-85 -33q-63 0 -92 34t-29 87q0 110 123 190t318 80q287 0 284 -229l-6 -500 q0 -90 72 -90q63 0 78 76h20q-2 -49 -15 -91.5t-37.5 -79t-67 -58t-99.5 -21.5q-71 0 -124.5 46.5t-70.5 133.5q-34 -94 -104.5 -140t-159.5 -46q-99 0 -167 59t-68 160zM143 1106l222 289q49 61 94 61q54 0 98 -59l209 -291l-14 -14l-297 182l-299 -182zM319 276 q0 -67 32 -109t89 -42q54 0 85.5 34.5t31.5 90.5v285q-107 -21 -172.5 -89.5t-65.5 -169.5z" />
<glyph unicode="&#xe3;" horiz-adv-x="999" d="M72 205q0 61 28.5 114t74.5 91t111 69.5t131 52t142 35.5v168q0 98 -35 147.5t-133 49.5q-56 0 -96.5 -26t-40.5 -54q0 -13 12.5 -27.5t27.5 -26.5t27.5 -35.5t12.5 -51.5q0 -51 -32 -84t-85 -33q-63 0 -92 34t-29 87q0 110 123 190t318 80q287 0 284 -229l-6 -500 q0 -90 72 -90q63 0 78 76h20q-2 -49 -15 -91.5t-37.5 -79t-67 -58t-99.5 -21.5q-71 0 -124.5 46.5t-70.5 133.5q-34 -94 -104.5 -140t-159.5 -46q-99 0 -167 59t-68 160zM100 1085q13 60 37.5 105.5t50.5 69t56.5 38.5t50 19t35.5 4q59 0 167.5 -18.5t159.5 -18.5 q27 0 38 0.5t34 3.5t36.5 10t30.5 21t29 35l15 -4q-8 -93 -68.5 -161.5t-140.5 -68.5q-59 0 -177 19.5t-178 19.5q-111 0 -159 -80zM322 276q0 -67 31.5 -109t88.5 -42q54 0 85.5 34.5t31.5 90.5v285q-107 -21 -172 -89.5t-65 -169.5z" />
<glyph unicode="&#xe4;" horiz-adv-x="999" d="M70 205q0 61 28.5 114t74.5 91t111 69.5t131 52t142 35.5v168q0 98 -35 147.5t-133 49.5q-56 0 -96.5 -26t-40.5 -54q0 -13 12.5 -27.5t27.5 -26.5t27.5 -35.5t12.5 -51.5q0 -51 -32 -84t-85 -33q-63 0 -92 34t-29 87q0 110 123 190t318 80q287 0 284 -229l-6 -500 q0 -90 72 -90q63 0 78 76h20q-2 -49 -15 -91.5t-37.5 -79t-67 -58t-99.5 -21.5q-71 0 -124.5 46.5t-70.5 133.5q-34 -94 -104.5 -140t-159.5 -46q-99 0 -167 59t-68 160zM123 1260q0 57 39.5 97t95.5 40q54 0 93.5 -40t39.5 -97q0 -55 -39.5 -95.5t-93.5 -40.5q-55 0 -95 40 t-40 96zM319 276q0 -67 32 -109t89 -42q54 0 85.5 34.5t31.5 90.5v285q-107 -21 -172.5 -89.5t-65.5 -169.5zM516 1260q0 57 39 97t94 40q54 0 93.5 -40t39.5 -97q0 -55 -39.5 -95.5t-93.5 -40.5q-55 0 -94 40t-39 96z" />
<glyph unicode="&#xe5;" horiz-adv-x="999" d="M70 205q0 61 28.5 114t74.5 91t111 69.5t131 52t142 35.5v168q0 98 -35 147.5t-133 49.5q-56 0 -96.5 -26t-40.5 -54q0 -13 12.5 -27.5t27.5 -26.5t27.5 -35.5t12.5 -51.5q0 -51 -32 -84t-85 -33q-63 0 -92 34t-29 87q0 110 123 190t318 80q287 0 284 -229l-6 -500 q0 -90 72 -90q63 0 78 76h20q-2 -49 -15 -91.5t-37.5 -79t-67 -58t-99.5 -21.5q-71 0 -124.5 46.5t-70.5 133.5q-34 -94 -104.5 -140t-159.5 -46q-99 0 -167 59t-68 160zM307 1233q0 68 42.5 114t111.5 46t113 -41.5t44 -106.5q0 -71 -43.5 -117.5t-113.5 -46.5 q-71 0 -112.5 42.5t-41.5 109.5zM319 276q0 -67 32 -109t89 -42q54 0 85.5 34.5t31.5 90.5v285q-107 -21 -172.5 -89.5t-65.5 -169.5zM348 1237q0 -54 30.5 -88.5t82.5 -34.5q56 0 86.5 33.5t30.5 87.5t-32 89.5t-87 35.5q-51 0 -81 -35t-30 -88z" />
<glyph unicode="&#xe6;" horiz-adv-x="1476" d="M66 199q0 76 46 142t121.5 112t158 77.5t171.5 49.5v137q0 217 -186 217q-55 0 -89 -23t-34 -51q0 -13 12.5 -27.5t27.5 -26.5t27.5 -35.5t12.5 -51.5q0 -48 -36 -82.5t-89 -34.5q-58 0 -92.5 37t-34.5 86q0 110 114 185t287 75q103 0 179 -25.5t110 -72.5q132 94 289 94 q167 0 270 -91.5t103 -238.5v-26h-617q-4 -16 -4 -60q0 -50 7 -95.5t29 -97.5t57 -89.5t97 -62.5t144 -25q94 0 165 32t113 74l9 -10q-23 -141 -132.5 -223t-269.5 -82q-141 0 -262.5 65.5t-169.5 181.5q-15 -66 -50 -116t-79.5 -77t-89 -40.5t-88.5 -13.5q-99 0 -163 56 t-64 157zM324 270q0 -64 34.5 -102.5t90.5 -38.5q47 0 83 37t41 88q-10 45 -10 291q-106 -22 -172.5 -97.5t-66.5 -177.5zM819 657h359v41q0 102 -39 174t-121 72q-177 0 -199 -287z" />
<glyph unicode="&#xe7;" horiz-adv-x="919" d="M47 451q0 239 141 384.5t363 145.5q84 0 148 -20.5t98.5 -53.5t51.5 -67.5t17 -67.5q0 -62 -37 -108t-102 -46q-55 0 -91 30.5t-36 80.5q0 36 15 63.5t29.5 49t14.5 41.5q0 24 -28.5 43.5t-83.5 19.5q-66 0 -116 -30.5t-79 -84.5t-43 -121t-14 -147q0 -71 18.5 -134.5 t56.5 -117t102.5 -85t148.5 -31.5q81 0 149.5 28t114.5 76l8 -8q-11 -53 -40 -105t-75.5 -98t-117.5 -74t-154 -28h-6l-17 -62q59 -3 108.5 -14t95.5 -31.5t72.5 -57t26.5 -85.5q0 -96 -88 -149.5t-206 -53.5q-78 0 -120 30t-42 72q0 33 20 54.5t53 21.5q32 0 51 -17t19 -40 q0 -15 -12 -36t-12 -26q0 -30 57 -30t93 26.5t36 75.5q0 45 -57 78.5t-172 46.5l59 199q-198 13 -308 144.5t-110 318.5z" />
<glyph unicode="&#xe8;" horiz-adv-x="960" d="M47 453q0 228 142 378t356 150q167 0 270 -91.5t103 -238.5v-26h-617q-4 -23 -4 -60q0 -50 7 -95.5t29 -97.5t57 -89.5t97 -62.5t144 -25q94 0 165 32t113 74l9 -10q-23 -141 -132.5 -223t-269.5 -82q-216 0 -342.5 132.5t-126.5 334.5zM209 1352q0 40 33 76t77 36 q27 0 46 -8l251 -348l-14 -14l-385 223l-4 4q-4 24 -4 31zM303 657h359v41q0 102 -39 174t-121 72q-177 0 -199 -287z" />
<glyph unicode="&#xe9;" horiz-adv-x="960" d="M47 453q0 228 142 378t356 150q167 0 270 -91.5t103 -238.5v-26h-617q-4 -23 -4 -60q0 -50 7 -95.5t29 -97.5t57 -89.5t97 -62.5t144 -25q94 0 165 32t113 74l9 -10q-23 -141 -132.5 -223t-269.5 -82q-216 0 -342.5 132.5t-126.5 334.5zM303 657h359v41q0 102 -39 174 t-121 72q-177 0 -199 -287zM369 1108l247 348q18 10 46 10q44 0 77 -35.5t33 -76.5q0 -7 -4 -31l-2 -4l-383 -227z" />
<glyph unicode="&#xea;" horiz-adv-x="960" d="M47 453q0 228 142 378t356 150q167 0 270 -91.5t103 -238.5v-26h-617q-4 -23 -4 -60q0 -50 7 -95.5t29 -97.5t57 -89.5t97 -62.5t144 -25q94 0 165 32t113 74l9 -10q-23 -141 -132.5 -223t-269.5 -82q-216 0 -342.5 132.5t-126.5 334.5zM211 1106l221 289q49 61 94 61 q55 0 99 -59l209 -291l-15 -14l-297 182l-299 -182zM303 657h359v41q0 102 -39 174t-121 72q-177 0 -199 -287z" />
<glyph unicode="&#xeb;" horiz-adv-x="960" d="M47 453q0 228 142 378t356 150q167 0 270 -91.5t103 -238.5v-26h-617q-4 -23 -4 -60q0 -50 7 -95.5t29 -97.5t57 -89.5t97 -62.5t144 -25q94 0 165 32t113 74l9 -10q-23 -141 -132.5 -223t-269.5 -82q-216 0 -342.5 132.5t-126.5 334.5zM199 1260q0 57 39.5 97t95.5 40 q54 0 93.5 -40t39.5 -97q0 -55 -39.5 -95.5t-93.5 -40.5q-55 0 -95 40t-40 96zM303 657h359v41q0 102 -39 174t-121 72q-177 0 -199 -287zM592 1260q0 57 39 97t94 40q54 0 93.5 -40t39.5 -97q0 -55 -39.5 -95.5t-93.5 -40.5q-55 0 -94 40t-39 96z" />
<glyph unicode="&#xec;" horiz-adv-x="563" d="M-10 1335q0 40 33 76.5t77 36.5q26 0 45 -8l252 -348l-14 -15l-385 223l-4 5q-4 24 -4 30zM49 0v29l109 2v843l-101 27v25l349 53h14l-4 -299v-649l106 -2v-29h-473z" />
<glyph unicode="&#xed;" horiz-adv-x="563" d="M49 0v29l109 2v843l-101 27v25l349 53h14l-4 -299v-649l106 -2v-29h-473zM115 1092l247 348q18 10 46 10q44 0 77 -36t33 -77q0 -6 -4 -30l-2 -4l-383 -228z" />
<glyph unicode="&#xee;" horiz-adv-x="563" d="M-33 1098l221 288q50 62 95 62q54 0 98 -59l209 -291l-15 -15l-296 183l-299 -183zM49 0v29l109 2v843l-101 27v25l349 53h14l-4 -299v-649l106 -2v-29h-473z" />
<glyph unicode="&#xef;" horiz-adv-x="563" d="M-53 1243q0 57 39.5 97t95.5 40q54 0 93.5 -40t39.5 -97q0 -55 -39.5 -95t-93.5 -40q-56 0 -95.5 40t-39.5 95zM49 0v29l109 2v843l-101 27v25l349 53h14l-4 -299v-649l106 -2v-29h-473zM340 1243q0 57 39 97t94 40q54 0 93.5 -40t39.5 -97q0 -55 -39.5 -95t-93.5 -40 q-55 0 -94 39.5t-39 95.5z" />
<glyph unicode="&#xf0;" horiz-adv-x="1087" d="M47 432q0 116 47.5 215t141 161t215.5 62q159 0 280 -86q-59 213 -186 381l-398 -170l-22 41l391 168q-125 147 -291 223l11 25q256 -21 456 -172l221 94l21 -41l-201 -86q144 -125 225.5 -299t81.5 -368q0 -98 -19.5 -186t-61 -163t-100.5 -130t-143 -86t-184 -31 q-225 0 -355 126t-130 322zM322 393q0 -156 62 -267.5t153 -111.5q51 0 92 36t64.5 90.5t39.5 125.5t21.5 133t5.5 121q0 108 -23 230q-79 26 -153 26q-123 0 -192.5 -104.5t-69.5 -278.5z" />
<glyph unicode="&#xf1;" horiz-adv-x="1167" d="M49 0v29l109 2v843l-101 27v25l344 53h11l2 -160q72 70 159.5 117t167.5 47q135 0 207 -70.5t72 -193.5v-688l108 -2v-29h-473v29l107 2v620q0 55 -14.5 99t-55.5 76t-106 32q-38 0 -74 -13.5t-53.5 -26t-42.5 -32.5v-755l106 -2v-29h-473zM225 1085q13 60 37.5 105.5 t50.5 69t56.5 38.5t50 19t35.5 4q59 0 167.5 -18.5t159.5 -18.5q27 0 38 0.5t34 3.5t36.5 10t30.5 21t29 35l15 -4q-8 -93 -68.5 -161.5t-140.5 -68.5q-60 0 -178 19.5t-177 19.5q-111 0 -159 -80z" />
<glyph unicode="&#xf2;" horiz-adv-x="1097" d="M47 473q0 134 64 250t180 187t258 71q215 0 358.5 -132t143.5 -347q0 -221 -145 -368.5t-357 -147.5q-219 0 -360.5 137t-141.5 350zM225 1352q0 40 33.5 76t77.5 36q26 0 45 -8l252 -348l-15 -14l-385 223l-4 4q-4 24 -4 31zM332 487q0 -224 58.5 -347.5t158.5 -123.5 q104 0 159.5 122.5t55.5 348.5q0 223 -53.5 341t-159.5 118q-219 0 -219 -459z" />
<glyph unicode="&#xf3;" horiz-adv-x="1097" d="M47 473q0 134 64 250t180 187t258 71q215 0 358.5 -132t143.5 -347q0 -221 -145 -368.5t-357 -147.5q-219 0 -360.5 137t-141.5 350zM332 487q0 -224 58.5 -347.5t158.5 -123.5q104 0 159.5 122.5t55.5 348.5q0 223 -53.5 341t-159.5 118q-219 0 -219 -459zM389 1108 l248 348q17 10 45 10q44 0 77.5 -35.5t33.5 -76.5q0 -1 -5 -31l-2 -4l-383 -227z" />
<glyph unicode="&#xf4;" horiz-adv-x="1097" d="M47 473q0 134 64 250t180 187t258 71q215 0 358.5 -132t143.5 -347q0 -221 -145 -368.5t-357 -147.5q-219 0 -360.5 137t-141.5 350zM238 1106l221 289q49 61 94 61q54 0 98 -59l209 -291l-14 -14l-297 182l-299 -182zM332 487q0 -224 58.5 -347.5t158.5 -123.5 q104 0 159.5 122.5t55.5 348.5q0 223 -53.5 341t-159.5 118q-219 0 -219 -459z" />
<glyph unicode="&#xf5;" horiz-adv-x="1097" d="M47 473q0 134 64 250t180 187t258 71q215 0 358.5 -132t143.5 -347q0 -221 -145 -368.5t-357 -147.5q-219 0 -360.5 137t-141.5 350zM178 1085q13 60 37.5 105.5t50.5 69t56.5 38.5t50 19t35.5 4q59 0 167.5 -18.5t159.5 -18.5q27 0 38 0.5t34 3.5t36.5 10t30.5 21t29 35 l15 -4q-8 -93 -68.5 -161.5t-140.5 -68.5q-59 0 -177 19.5t-178 19.5q-111 0 -159 -80zM332 487q0 -224 58.5 -347.5t158.5 -123.5q104 0 159.5 122.5t55.5 348.5q0 223 -53.5 341t-159.5 118q-219 0 -219 -459z" />
<glyph unicode="&#xf6;" horiz-adv-x="1097" d="M47 473q0 134 64 250t180 187t258 71q215 0 358.5 -132t143.5 -347q0 -221 -145 -368.5t-357 -147.5q-219 0 -360.5 137t-141.5 350zM219 1260q0 57 39.5 97t95.5 40q54 0 93.5 -40t39.5 -97q0 -55 -39.5 -95.5t-93.5 -40.5q-55 0 -95 40t-40 96zM332 487 q0 -224 58.5 -347.5t158.5 -123.5q104 0 159.5 122.5t55.5 348.5q0 223 -53.5 341t-159.5 118q-219 0 -219 -459zM612 1260q0 57 39 97t94 40q54 0 94 -40t40 -97q0 -55 -40 -95.5t-94 -40.5q-55 0 -94 40t-39 96z" />
<glyph unicode="&#xf7;" d="M94 502v55h959v-55h-959zM457 246q0 53 33.5 88t84.5 35q47 0 82 -35.5t35 -87.5q0 -51 -35.5 -89t-81.5 -38q-50 0 -84 37.5t-34 89.5zM457 821q0 53 33.5 88t84.5 35q47 0 82 -35.5t35 -87.5q0 -51 -35.5 -89t-81.5 -38q-50 0 -84 37.5t-34 89.5z" />
<glyph unicode="&#xf8;" horiz-adv-x="1097" d="M47 473q0 134 64 250t180 187t258 71q75 0 143 -18l43 124l37 -14l-41 -121q145 -49 232.5 -167t87.5 -283q0 -221 -145 -368.5t-357 -147.5q-65 0 -146 18l-47 -141l-37 14l48 137q-146 50 -233 172.5t-87 286.5zM332 487q0 -240 69 -368l267 774q-47 53 -117 53 q-219 0 -219 -459zM428 76q51 -60 121 -60q104 0 159.5 122.5t55.5 348.5q0 249 -68 367z" />
<glyph unicode="&#xf9;" horiz-adv-x="1157" d="M39 905v25l360 49l7 -4l-7 -289v-338q0 -231 199 -231q74 0 143 65v697l-104 26v29l364 45l5 -4l-7 -289v-602l101 -29v-20l-342 -47h-17v164q-145 -168 -325 -168q-122 0 -198.5 68t-76.5 204v623zM260 1352q0 40 33.5 76t77.5 36q26 0 45 -8l252 -348l-15 -14l-385 223 l-4 4q-4 24 -4 31z" />
<glyph unicode="&#xfa;" horiz-adv-x="1157" d="M39 905v25l360 49l7 -4l-7 -289v-338q0 -231 199 -231q74 0 143 65v697l-104 26v29l364 45l5 -4l-7 -289v-602l101 -29v-20l-342 -47h-17v164q-145 -168 -325 -168q-122 0 -198.5 68t-76.5 204v623zM451 1108l247 348q18 10 45 10q44 0 77.5 -35.5t33.5 -76.5 q0 -7 -4 -31l-2 -4l-383 -227z" />
<glyph unicode="&#xfb;" horiz-adv-x="1157" d="M39 905v25l360 49l7 -4l-7 -289v-338q0 -231 199 -231q74 0 143 65v697l-104 26v29l364 45l5 -4l-7 -289v-602l101 -29v-20l-342 -47h-17v164q-145 -168 -325 -168q-122 0 -198.5 68t-76.5 204v623zM264 1106l221 289q49 61 95 61q54 0 98 -59l209 -291l-15 -14l-297 182 l-299 -182z" />
<glyph unicode="&#xfc;" horiz-adv-x="1157" d="M39 905v25l360 49l7 -4l-7 -289v-338q0 -231 199 -231q74 0 143 65v697l-104 26v29l364 45l5 -4l-7 -289v-602l101 -29v-20l-342 -47h-17v164q-145 -168 -325 -168q-122 0 -198.5 68t-76.5 204v623zM246 1260q0 57 39.5 97t95.5 40q54 0 93.5 -40t39.5 -97 q0 -55 -39.5 -95.5t-93.5 -40.5q-55 0 -95 40t-40 96zM639 1260q0 57 39 97t94 40q54 0 93.5 -40t39.5 -97q0 -55 -39.5 -95.5t-93.5 -40.5q-55 0 -94 40t-39 96z" />
<glyph unicode="&#xfd;" horiz-adv-x="937" d="M-39 938v29h502v-29l-123 -2l254 -614h4l213 561l-121 55v29h279v-29l-119 -55l-416 -1090q-31 -76 -55.5 -123t-57 -88.5t-73 -59.5t-92.5 -18q-80 0 -134.5 45.5t-54.5 120.5q0 66 39.5 109t102.5 43q61 0 95 -31.5t34 -79.5q0 -32 -15.5 -58t-31 -42.5t-15.5 -26.5 q0 -11 9.5 -18.5t19.5 -7.5q31 -1 58 15.5t50 51t39.5 68t36.5 82.5l82 217l-412 944zM412 1108l247 348q17 10 46 10q44 0 77 -35.5t33 -76.5q0 -7 -4 -31l-2 -4l-383 -227z" />
<glyph unicode="&#xfe;" horiz-adv-x="1128" d="M41 -455l111 2v1842l-101 47v20l191 35l161 53h11l-4 -332l-2 -364q62 60 140.5 96.5t147.5 36.5q176 0 280.5 -125.5t104.5 -320.5q0 -241 -139.5 -395t-353.5 -154q-125 0 -178 41v-480l129 -2v-28h-498v28zM410 287q0 -140 50 -204.5t128 -64.5q96 0 163.5 107 t67.5 283q0 199 -76.5 319.5t-214.5 120.5q-51 0 -118 -29v-532z" />
<glyph unicode="&#xff;" horiz-adv-x="937" d="M-39 938v29h502v-29l-123 -2l254 -614h4l213 561l-121 55v29h279v-29l-119 -55l-416 -1090q-31 -76 -55.5 -123t-57 -88.5t-73 -59.5t-92.5 -18q-80 0 -134.5 45.5t-54.5 120.5q0 66 39.5 109t102.5 43q61 0 95 -31.5t34 -79.5q0 -32 -15.5 -58t-31 -42.5t-15.5 -26.5 q0 -11 9.5 -18.5t19.5 -7.5q31 -1 58 15.5t50 51t39.5 68t36.5 82.5l82 217l-412 944zM182 1260q0 57 39.5 97t95.5 40q54 0 94 -40t40 -97q0 -55 -40 -95.5t-94 -40.5q-55 0 -95 40t-40 96zM575 1260q0 57 39 97t95 40q54 0 93.5 -40t39.5 -97q0 -55 -39.5 -95.5 t-93.5 -40.5q-55 0 -94.5 40t-39.5 96z" />
<glyph unicode="&#x152;" horiz-adv-x="2611" d="M59 723q0 150 52.5 286.5t146 240t231 164.5t297.5 61q240 0 406.5 -119.5t243.5 -321.5v391l-174 5v28h1019l166 4v-10l-22 -78l43 -325l-19 -7l-284 312q-46 48 -80.5 60.5t-108.5 12.5h-229v-653h94q46 0 86 10t69 25t55.5 40.5t43.5 48t34.5 56.5t27 57t22.5 58h25 q-25 -214 -27 -311q0 -122 27 -326h-25q-53 143 -137.5 226t-200.5 83h-94v-708h291q51 0 78.5 14t60.5 47q38 38 336 381l20 -4l-63 -319l-6 -121l12 -19l-4 -12h-1212v29l176 4v426q-79 -212 -248.5 -343.5t-401.5 -131.5q-167 0 -305 56t-230 154.5t-142 234t-50 294.5z M406 719q0 -116 11 -215t38.5 -190t70 -154.5t109 -101.5t151.5 -38q84 0 149 37t107 99.5t69.5 153t38.5 190.5t11 219q0 112 -11 212.5t-38.5 195.5t-69 163.5t-107.5 110t-149 41.5q-380 0 -380 -723z" />
<glyph unicode="&#x153;" horiz-adv-x="1724" d="M47 473q0 134 64 250t180 187t258 71q118 0 219 -43t170 -121q67 78 162.5 121t206.5 43q167 0 269.5 -91.5t102.5 -238.5v-26h-616q-4 -23 -4 -60q0 -50 7 -95.5t29 -97.5t57 -89.5t97 -62.5t144 -25q94 0 165 32t113 74l8 -10q-23 -141 -132 -223t-269 -82 q-233 0 -365 155q-68 -74 -162 -114.5t-202 -40.5q-219 0 -360.5 137t-141.5 350zM332 487q0 -224 58.5 -347.5t158.5 -123.5q104 0 159.5 122.5t55.5 348.5q0 223 -53.5 341t-159.5 118q-219 0 -219 -459zM1065 657h358v41q0 102 -38.5 174t-120.5 72q-177 0 -199 -287z " />
<glyph unicode="&#x178;" horiz-adv-x="1310" d="M-35 1430v28h653v-28l-167 -5l350 -667l327 604l-159 68v28h368v-28l-163 -68l-357 -662v-667l182 -4v-29h-677v29l180 4v659l-400 733zM408 1710q0 56 39 94.5t94 38.5t94 -38.5t39 -94.5q0 -55 -38.5 -93t-94.5 -38t-94.5 38t-38.5 93zM815 1710q0 56 38.5 94.5 t94.5 38.5t94.5 -38.5t38.5 -94.5q0 -55 -38.5 -93t-94.5 -38t-94.5 38t-38.5 93z" />
<glyph unicode="&#x2c6;" horiz-adv-x="825" d="M98 1098l221 288q50 62 95 62q54 0 98 -59l209 -291l-14 -15l-297 183l-299 -183z" />
<glyph unicode="&#x2dc;" horiz-adv-x="856" d="M68 1079q13 60 37.5 105.5t50.5 69.5t56 38.5t49.5 18.5t35.5 4q59 0 168 -18.5t160 -18.5q27 0 38 0.5t34 3.5t36.5 10t30.5 21t29 35l14 -5q-8 -93 -68.5 -161t-140.5 -68q-60 0 -177 19.5t-177 19.5q-112 0 -160 -80z" />
<glyph unicode="&#x2000;" horiz-adv-x="974" />
<glyph unicode="&#x2001;" horiz-adv-x="1948" />
<glyph unicode="&#x2002;" horiz-adv-x="974" />
<glyph unicode="&#x2003;" horiz-adv-x="1948" />
<glyph unicode="&#x2004;" horiz-adv-x="649" />
<glyph unicode="&#x2005;" horiz-adv-x="487" />
<glyph unicode="&#x2006;" horiz-adv-x="324" />
<glyph unicode="&#x2007;" horiz-adv-x="324" />
<glyph unicode="&#x2008;" horiz-adv-x="243" />
<glyph unicode="&#x2009;" horiz-adv-x="389" />
<glyph unicode="&#x200a;" horiz-adv-x="108" />
<glyph unicode="&#x2010;" horiz-adv-x="598" d="M37 492v167h524v-167h-524z" />
<glyph unicode="&#x2011;" horiz-adv-x="598" d="M37 492v167h524v-167h-524z" />
<glyph unicode="&#x2012;" horiz-adv-x="598" d="M37 492v167h524v-167h-524z" />
<glyph unicode="&#x2013;" horiz-adv-x="962" d="M0 578v69h963v-69h-963z" />
<glyph unicode="&#x2014;" horiz-adv-x="1705" d="M0 578v69h1706v-69h-1706z" />
<glyph unicode="&#x2018;" horiz-adv-x="464" d="M66 1145q0 121 84.5 214t224.5 124l12 -29q-84 -35 -151.5 -100.5t-67.5 -134.5q0 -21 6 -31q14 24 40 36.5t52 12.5q62 0 97.5 -39.5t35.5 -95.5q0 -63 -44 -109.5t-111 -46.5q-81 0 -129.5 58.5t-48.5 140.5z" />
<glyph unicode="&#x2019;" horiz-adv-x="464" d="M66 1325q0 64 44 111t111 47q81 0 129.5 -58.5t48.5 -140.5q0 -120 -85 -213.5t-224 -124.5l-14 29q83 33 152 99t69 134q0 18 -6 33q-28 -51 -92 -51q-61 0 -97 40t-36 95z" />
<glyph unicode="&#x201a;" horiz-adv-x="464" d="M66 145q0 63 44 109.5t111 46.5q81 0 129.5 -58.5t48.5 -140.5q0 -120 -85 -213.5t-224 -124.5l-14 29q83 33 152 100t69 136q0 15 -6 30q-26 -49 -92 -49q-62 0 -97.5 39.5t-35.5 95.5z" />
<glyph unicode="&#x201c;" horiz-adv-x="874" d="M66 1145q0 121 84.5 214t224.5 124l12 -29q-84 -35 -151.5 -100.5t-67.5 -134.5q0 -21 6 -31q14 24 40 36.5t52 12.5q62 0 97.5 -39.5t35.5 -95.5q0 -63 -44 -109.5t-111 -46.5q-81 0 -129.5 58.5t-48.5 140.5zM475 1145q0 121 84.5 214t224.5 124l13 -29 q-84 -35 -151.5 -100.5t-67.5 -134.5q0 -21 6 -31q14 24 40 36.5t52 12.5q62 0 97.5 -39.5t35.5 -95.5q0 -63 -44.5 -109.5t-111.5 -46.5q-81 0 -129.5 58.5t-48.5 140.5z" />
<glyph unicode="&#x201d;" horiz-adv-x="874" d="M66 1325q0 64 44 111t111 47q81 0 129.5 -58.5t48.5 -140.5q0 -120 -85 -213.5t-224 -124.5l-14 29q83 33 152 99t69 134q0 18 -6 33q-28 -51 -92 -51q-61 0 -97 40t-36 95zM475 1325q0 63 44 110.5t110 47.5q83 0 131.5 -58.5t48.5 -140.5q0 -120 -85 -213.5 t-224 -124.5l-15 29q83 33 152.5 99t69.5 134q0 16 -7 33q-28 -51 -94 -51q-60 0 -95.5 40.5t-35.5 94.5z" />
<glyph unicode="&#x201e;" horiz-adv-x="874" d="M66 145q0 63 44 109.5t111 46.5q81 0 129.5 -58.5t48.5 -140.5q0 -120 -85 -213.5t-224 -124.5l-14 29q83 33 152 100t69 136q0 15 -6 30q-26 -49 -92 -49q-62 0 -97.5 39.5t-35.5 95.5zM475 145q0 63 44 109.5t110 46.5q83 0 131.5 -58.5t48.5 -140.5q0 -120 -85 -213.5 t-224 -124.5l-15 29q83 33 152.5 100t69.5 136q0 13 -7 30q-26 -49 -94 -49q-60 0 -95.5 39.5t-35.5 95.5z" />
<glyph unicode="&#x2022;" horiz-adv-x="763" d="M111 674q0 112 79.5 192t190.5 80q113 0 192.5 -80t79.5 -192q0 -111 -78.5 -189.5t-191.5 -78.5q-111 0 -191.5 79t-80.5 189z" />
<glyph unicode="&#x2026;" horiz-adv-x="1499" d="M98 147q0 66 44 112t110 46q62 0 106.5 -46t44.5 -112q0 -64 -44.5 -110.5t-106.5 -46.5q-65 0 -109.5 46t-44.5 111zM598 147q0 66 44 112t110 46q62 0 106.5 -46t44.5 -112q0 -64 -44.5 -110.5t-106.5 -46.5q-65 0 -109.5 46t-44.5 111zM1098 147q0 67 43.5 112.5 t109.5 45.5q62 0 107 -46t45 -112q0 -64 -45 -110.5t-107 -46.5q-65 0 -109 46t-44 111z" />
<glyph unicode="&#x202f;" horiz-adv-x="389" />
<glyph unicode="&#x2039;" horiz-adv-x="477" d="M66 510q0 26 18 39l311 315l17 -10l-117 -338l113 -348l-15 -10l-311 313q-16 13 -16 39z" />
<glyph unicode="&#x203a;" horiz-adv-x="477" d="M70 168l114 340l-114 344l14 10l311 -313q17 -17 17 -39q0 -28 -17 -39l-311 -315z" />
<glyph unicode="&#x205f;" horiz-adv-x="487" />
<glyph unicode="&#x20ac;" horiz-adv-x="1269" d="M45 600v43h156q-2 25 -2 74q0 65 10 143h-164v43h172q25 117 79.5 218.5t135 180t191.5 123.5t239 45q80 0 142.5 -15t99.5 -37.5t61 -53t32.5 -58t8.5 -55.5q0 -59 -35 -101t-102 -42q-54 0 -90.5 32.5t-36.5 88.5q0 39 15 65t29.5 43t14.5 35q0 25 -37 42.5t-104 17.5 q-92 0 -166 -64q-144 -123 -176 -465h463v-43h-467q-4 -47 -4 -129v-88h471v-43h-471q12 -323 127 -457q83 -111 229 -116q47 0 86 16t39 41q0 17 -13.5 36t-26.5 44.5t-13 58.5q0 58 37 90.5t92 32.5q67 0 100 -36t33 -91q0 -31 -8.5 -60.5t-34 -63t-64.5 -58t-107 -41 t-155 -16.5q-145 0 -259.5 46t-190 129.5t-120.5 195t-58 249.5h-158z" />
<glyph unicode="&#x2122;" horiz-adv-x="1492" d="M43 1276l16 156l-12 30l2 4l62 -2h458l58 2l2 -4l-15 -30l19 -156l-8 -2l-133 147q-24 27 -43 27h-33v-582l71 -2v-18h-299v18l70 2v582h-29q-21 0 -39 -18l-139 -156zM662 1448v18h256l135 -362h2l145 362h240v-18l-68 -2v-580l68 -2v-18h-295v18l67 2v570h-2l-221 -559 h-14l-217 559h-2v-541l69 -35v-14h-161v14l69 35v551q-4 0 -35.5 1t-35.5 1z" />
<glyph unicode="&#x25fc;" horiz-adv-x="962" d="M0 0v963h963v-963h-963z" />
</font>
</defs>
</svg>
