<?xml version="1.0" standalone="no"?>
<!DOCTYPE svg PUBLIC "-//W3C//DTD SVG 1.1//EN" "http://www.w3.org/Graphics/SVG/1.1/DTD/svg11.dtd" >
<svg xmlns="http://www.w3.org/2000/svg" xmlns:xlink="http://www.w3.org/1999/xlink" version="1.1">
<metadata></metadata>
<defs>
<font id="estado_finebold" horiz-adv-x="1146" >
<font-face units-per-em="2048" ascent="1638" descent="-410" />
<missing-glyph horiz-adv-x="440" />
<glyph unicode="&#xfb01;" horiz-adv-x="1144" d="M37 879v39l119 40v78q0 143 64 259t178 182.5t255 66.5q175 0 265 -65.5t90 -157.5q0 -67 -42.5 -110.5t-115.5 -43.5q-68 0 -109 41t-41 92q0 38 16.5 70.5t33 52.5t16.5 29q0 25 -29 40t-88 15q-217 0 -217 -346v-225h336l223 55h13l-5 -297v-663l107 -2v-29h-490v29 l107 2v848h-291v-848l119 -2v-29h-504v31l109 2v841z" />
<glyph unicode="&#xfb02;" horiz-adv-x="1171" d="M37 879v39l121 40v121q0 204 129.5 330.5t326.5 126.5q146 0 254 -57l152 59h12l-6 -313v-1194l107 -2v-29h-490v29l107 2v848h-318v-848l133 -2v-29h-518v31l111 2v841zM432 950h318v402q-22 66 -68 103.5t-92 37.5q-158 0 -158 -213v-330z" />
<glyph horiz-adv-x="0" />
<glyph horiz-adv-x="682" />
<glyph unicode=" "  horiz-adv-x="440" />
<glyph unicode="&#x09;" horiz-adv-x="440" />
<glyph unicode="&#xa0;" horiz-adv-x="440" />
<glyph unicode="!" horiz-adv-x="587" d="M117 1294q0 83 49.5 132t126.5 49q73 0 125.5 -49t52.5 -132q0 -104 -20 -234.5t-41.5 -219t-58.5 -226.5t-48 -182h-18q-2 7 -34 123.5t-40.5 150t-33 137t-33 161t-18 140t-9.5 150.5zM135 156q0 69 47.5 117.5t114.5 48.5q66 0 114 -48.5t48 -117.5q0 -68 -48 -117 t-114 -49q-67 0 -114.5 49t-47.5 117z" />
<glyph unicode="&#x22;" horiz-adv-x="794" d="M70 1356q0 60 40.5 94.5t106.5 34.5q61 0 102 -34t41 -95l-114 -395h-29zM436 1356q0 60 41 94.5t107 34.5q61 0 102 -34t41 -95l-115 -395h-28z" />
<glyph unicode="#" horiz-adv-x="1212" d="M88 516l8 43h246l61 440h-245l6 48h246l55 395h47l-55 -395h395l53 395h47l-53 -395h250l-8 -48h-250l-62 -440h250l-8 -43h-248l-71 -516h-50l76 516h-397l-72 -516h-47l74 516h-248zM389 559h393l64 440h-395z" />
<glyph unicode="$" horiz-adv-x="1077" d="M70 254q0 65 37.5 108.5t103.5 43.5q56 0 93.5 -35.5t37.5 -89.5q0 -9 -0.5 -16.5t-3 -15t-3.5 -13t-5 -12.5t-5.5 -10.5t-6.5 -10.5t-6 -8.5t-7 -8.5t-6 -8q-3 -4 -9 -11t-9 -11t-6 -11.5t-3 -15.5q0 -11 12.5 -24t44.5 -25.5t79 -18.5v557q-4 0 -9 5q-50 21 -88 41 t-83 54t-74 71.5t-48.5 92.5t-19.5 119q0 148 86.5 249.5t235.5 135.5v160h38v-151q41 8 99 8q39 0 59 -2v145h39v-151q141 -20 229.5 -88t88.5 -158q0 -60 -32.5 -104t-99.5 -44q-54 0 -90.5 34.5t-36.5 88.5q0 46 37 97q3 5 13 16.5t15 21t5 19.5q0 27 -36 47t-93 29v-492 l76 -33q295 -129 295 -374q0 -169 -104 -279.5t-267 -146.5v-209h-39v203q-52 -9 -104 -9h-54v-194h-38v198q-173 16 -255.5 84t-82.5 152zM301 1151q0 -112 107 -180v364q-107 -53 -107 -184zM446 57q16 -2 58 -2q50 0 100 13v464l-29 15q-11 3 -129 55v-545zM446 948 q35 -18 89 -39l69 -30v479q-46 4 -65 4q-53 0 -93 -12v-402zM643 82q62 30 96.5 86t34.5 133q0 73 -33 123.5t-98 89.5v-432z" />
<glyph unicode="%" horiz-adv-x="1351" d="M55 1083q0 99 33.5 184.5t104 141t163.5 55.5q94 0 161.5 -54.5t97.5 -134.5t30 -173q0 -95 -33 -178t-104 -139t-168 -56q-90 0 -157 53.5t-97.5 132t-30.5 168.5zM248 8l835 1475l37 -21l-833 -1472zM248 1114q0 -362 108 -362q99 0 99 313q0 65 -4.5 123.5t-15.5 119 t-35 96.5t-58 36q-25 0 -43.5 -26.5t-28 -62.5t-15 -86t-6.5 -83t-1 -68zM707 336q0 99 33 184t102.5 140t163.5 55q95 0 162.5 -54t97.5 -134t30 -173q0 -95 -33.5 -178t-105 -139.5t-168.5 -56.5q-68 0 -123 31t-89 82t-52 113.5t-18 129.5zM899 365q0 -361 107 -361 q98 0 98 311q0 66 -4.5 124.5t-15.5 119.5t-34.5 97t-56.5 36q-94 0 -94 -327z" />
<glyph unicode="&#x26;" horiz-adv-x="1665" d="M66 373q0 156 111 280t278 183q-62 82 -93.5 147t-31.5 143q0 68 26.5 130.5t76.5 114.5t133.5 83t187.5 31q95 0 169 -25t117 -67t64.5 -91t21.5 -102q0 -108 -86.5 -198t-248.5 -121q29 -34 352 -449q35 55 75 135.5t56 139.5l-162 55v31h373v-31l-168 -60 q-49 -152 -150 -294l64 -78q31 -38 55 -63t60.5 -55t77.5 -45t85 -15q12 0 23.5 1.5t19.5 3.5t20 6.5t17 6.5t18.5 8t16.5 8l14 -16q-179 -188 -342 -188q-56 0 -102.5 13t-83.5 39t-59 47.5t-52 57.5l-53 62q-83 -99 -203 -159t-241 -60q-99 0 -182.5 33t-138 87.5 t-85 124.5t-30.5 146zM324 526q0 -72 25.5 -141t71.5 -124t117.5 -88.5t155.5 -33.5q69 0 122.5 19.5t113.5 62.5q-40 49 -234.5 298.5t-230.5 293.5q-141 -83 -141 -287zM590 1253q0 -69 48.5 -155.5t137.5 -198.5q58 32 100 118t42 189q0 47 -9 89t-27.5 78t-51.5 57.5 t-76 21.5q-80 0 -122 -59.5t-42 -139.5z" />
<glyph unicode="'" horiz-adv-x="428" d="M70 1356q0 60 40.5 94.5t106.5 34.5q61 0 102 -34t41 -95l-114 -395h-29z" />
<glyph unicode="(" horiz-adv-x="661" d="M121 553q0 197 56 377.5t173 337t285 260.5l18 -21q-101 -82 -169.5 -186.5t-103.5 -230t-49 -250t-14 -281.5q0 -686 330 -989l-22 -23q-229 152 -366.5 434.5t-137.5 571.5z" />
<glyph unicode=")" horiz-adv-x="661" d="M8 1507l19 21q168 -104 285 -260.5t173 -337t56 -377.5q0 -189 -59.5 -380t-175.5 -358t-269 -268l-23 23q97 89 164.5 206t102 250t49 260t14.5 273q0 157 -14 281.5t-49 250t-103.5 230t-169.5 186.5z" />
<glyph unicode="*" horiz-adv-x="909" d="M86 1272q0 18 16.5 34.5t40.5 16.5q41 0 93.5 -35.5t113.5 -88.5t96 -73q-4 24 -31.5 112.5t-27.5 129.5q0 73 21 114.5t47 41.5t46.5 -41t20.5 -115q0 -39 -26.5 -122t-30.5 -120q24 15 87 69.5t120 93t98 38.5q19 0 35 -14t16 -37q0 -34 -38 -61.5t-84.5 -41.5 t-115.5 -34t-102 -33q25 -10 68 -24.5t75 -25t70 -26.5t62 -31.5t40.5 -36.5t16.5 -44q0 -19 -15.5 -35.5t-37.5 -16.5q-39 0 -88.5 39t-109 98.5t-95.5 83.5q3 -26 30 -116.5t27 -130.5q0 -73 -20.5 -114.5t-46.5 -41.5t-47 41t-21 117q0 36 25 119.5t28 121.5 q-29 -17 -88.5 -72t-114 -94.5t-94.5 -39.5q-19 0 -35 13t-16 36q0 28 23 52.5t64.5 43t81 32.5t92.5 30t79 26q-22 7 -75.5 18.5t-94.5 22t-85 27t-68.5 40.5t-24.5 54z" />
<glyph unicode="+" d="M94 502v55h449v473h59v-473h451v-55h-451v-482h-59v482h-449z" />
<glyph unicode="," horiz-adv-x="512" d="M78 150q0 72 47 120.5t115 48.5q90 0 139 -65.5t49 -153.5q0 -74 -26.5 -147.5t-90.5 -146.5t-157 -119l-17 20q75 55 126.5 136.5t51.5 162.5q0 26 -6 41q-30 -43 -88 -43q-68 0 -105.5 40t-37.5 106z" />
<glyph unicode="-" horiz-adv-x="604" d="M37 489v173h530v-173h-530z" />
<glyph unicode="." horiz-adv-x="512" d="M96 156q0 69 46.5 117.5t115.5 48.5q66 0 113 -48.5t47 -117.5q0 -68 -47 -117t-113 -49q-68 0 -115 49t-47 117z" />
<glyph unicode="/" horiz-adv-x="696" d="M63 -381l457 1874l53 -8l-454 -1874z" />
<glyph unicode="0" horiz-adv-x="1220" d="M61 700q0 118 24.5 231.5t73.5 212t115.5 173t156.5 117.5t192 43t190.5 -40.5t151 -110.5t107 -162.5t66 -197t21.5 -214.5q0 -112 -23.5 -222t-71 -208.5t-114 -174t-159 -119.5t-199.5 -44q-125 0 -228 62.5t-168 165t-100 228.5t-35 260zM389 715q0 -91 4.5 -174.5 t19 -181.5t38 -168.5t65.5 -118t98 -47.5q44 0 79.5 29.5t58 74t39 110.5t25 125.5t13.5 133t6 118t1 95.5q0 139 -10.5 258t-34.5 230t-72 175t-115 64q-42 0 -76.5 -32t-56 -81t-38 -119.5t-24.5 -134.5t-13 -140t-6 -122t-1 -94z" />
<glyph unicode="1" horiz-adv-x="802" d="M84 1321v25q152 11 260.5 40t222.5 76v-20l-8 -10v-1401l166 -4v-27h-637v27l164 4v1286z" />
<glyph unicode="2" horiz-adv-x="1093" d="M35 1106q0 67 32.5 131.5t94.5 120t165.5 89.5t231.5 34q88 0 166 -23t139.5 -67.5t97 -116t35.5 -160.5q0 -84 -31.5 -163t-81.5 -141.5t-121.5 -132.5t-140.5 -127t-151 -134t-141 -146l639 6l51 123h20l-45 -399h-954v18q274 297 353 390q188 223 249 385 q43 113 43 231q0 102 -31.5 185t-102 136.5t-169.5 53.5q-78 0 -127 -27q-63 -40 -63 -88q0 -14 12.5 -28.5t24 -22.5t38.5 -25q78 -48 78 -123q0 -69 -42 -108t-101 -39q-78 0 -123 49t-45 119z" />
<glyph unicode="3" horiz-adv-x="1138" d="M55 242q0 74 46.5 130t129.5 56q79 0 122.5 -44t43.5 -97q0 -42 -16.5 -73.5t-35.5 -45.5t-35.5 -33t-16.5 -39q0 -34 47.5 -60t118.5 -26q140 0 224.5 95.5t84.5 271.5q0 51 -7 98.5t-26.5 97t-49.5 85t-79.5 58.5t-113.5 23q-44 0 -82 -16.5t-63 -33.5t-36 -17 q-28 0 -28 22q0 12 11 21t22 13t31.5 9.5t25.5 7.5q168 58 254 151t86 212q0 57 -14.5 107t-46 95.5t-91.5 72t-143 26.5q-75 -3 -124.5 -38.5t-49.5 -86.5q0 -10 8 -20t16.5 -17t26.5 -19.5t27 -19.5q61 -44 61 -114q0 -58 -42.5 -98t-98.5 -40q-77 0 -115.5 50.5 t-38.5 117.5q0 63 34 125t97 114.5t164.5 85t224.5 32.5q174 0 277.5 -79t103.5 -218q0 -118 -110.5 -226.5t-288.5 -158.5v-17q123 9 220.5 -16t155.5 -74t87.5 -112t29.5 -134q0 -203 -175.5 -336t-448.5 -133q-180 0 -292 76t-112 189z" />
<glyph unicode="4" horiz-adv-x="1208" d="M29 453v30l616 916l256 65l17 -2v-970h212l27 163h33l-29 -202h-243v-424l131 -4v-25h-574v25l137 4v424h-583zM76 492h534v798z" />
<glyph unicode="5" horiz-adv-x="1122" d="M59 240q0 71 48 126.5t133 55.5q74 0 115.5 -41t41.5 -96q0 -42 -15.5 -74.5t-33.5 -48t-33.5 -33t-15.5 -33.5q0 -34 44 -62t112 -28q79 0 139 37.5t94 100.5t50 136.5t16 155.5q0 201 -90 312.5t-261 111.5q-46 0 -97 -15t-89.5 -46.5t-38.5 -69.5q0 -23 23 -51 q22 -26 22 -43q0 -22 -12.5 -33.5t-32.5 -11.5t-38.5 22.5t-18.5 59.5q0 44 26 104q1 1 14.5 32t16.5 38t15 37t16 44.5t12.5 44t11.5 51.5t6 51.5t3 58.5q0 151 -25 311q278 -19 367 -19q245 0 401 52l6 -13q-18 -48 -37.5 -86.5t-56 -84.5t-81 -76t-114 -51t-153.5 -21 q-65 0 -143.5 9t-126.5 24q2 -29 -3 -97q-8 -134 -69 -252q55 34 93 53t108.5 36.5t150.5 17.5q227 0 368.5 -108t141.5 -308q0 -158 -85.5 -284t-225.5 -193.5t-305 -67.5q-179 0 -286.5 76t-107.5 189z" />
<glyph unicode="6" horiz-adv-x="1210" d="M59 690q0 126 23.5 239.5t75.5 214.5t129.5 174.5t191.5 116t254 42.5q176 0 269.5 -73t93.5 -169q0 -73 -42 -126.5t-126 -53.5q-68 0 -112 42t-44 103q0 36 12.5 69t27.5 52t27.5 37.5t12.5 30.5q0 22 -36 37.5t-87 15.5q-64 0 -116 -24.5t-88 -71.5t-62.5 -105.5 t-42 -135.5t-24 -153t-11.5 -166q56 39 146.5 71t187.5 32q188 0 301 -106t113 -289q0 -100 -33.5 -190.5t-95 -162.5t-159 -114.5t-216.5 -42.5q-130 0 -238.5 56t-180.5 152.5t-111.5 224.5t-39.5 273zM383 657q0 -100 12.5 -201.5t39.5 -202.5t79.5 -164.5t122.5 -63.5 q64 0 109 58.5t65 147t20 195.5q0 171 -79 266.5t-207 95.5q-82 0 -160 -28q-2 -45 -2 -103z" />
<glyph unicode="7" horiz-adv-x="1114" d="M45 1018l119 473h26l-14 -64h926l8 -16q-212 -249 -333.5 -568.5t-121.5 -688.5q0 -65 7 -154h-369v39q1 141 59.5 309t149 317t192.5 275.5t197 206.5h-776l-39 -129h-31z" />
<glyph unicode="8" horiz-adv-x="1183" d="M57 369q0 158 111 260t328 131v12q-195 10 -299.5 107t-104.5 227q0 167 141.5 271t368.5 104q144 0 258.5 -42.5t182 -125t67.5 -191.5q0 -136 -114.5 -235.5t-301.5 -112.5v-12q193 -21 314.5 -123t121.5 -252q0 -182 -159.5 -294.5t-397.5 -112.5q-227 0 -371.5 105.5 t-144.5 283.5zM377 367q0 -159 52.5 -257t156.5 -98q110 0 164.5 104.5t54.5 284.5q0 77 -22 150.5t-73 129.5t-122 62q-51 -5 -90.5 -33.5t-61.5 -67.5t-36 -91t-18.5 -95.5t-4.5 -88.5zM397 1120q0 -68 8 -118.5t28.5 -98t60.5 -80.5t100 -51q58 17 100 54.5t64 88.5 t31.5 103t9.5 110q0 320 -205 320q-101 0 -149 -87.5t-48 -240.5z" />
<glyph unicode="9" horiz-adv-x="1185" d="M66 989q0 98 33.5 186.5t95.5 157t158.5 108.5t213.5 40q173 0 301.5 -84t195 -235t66.5 -349q0 -127 -21.5 -243t-71 -224.5t-123.5 -187.5t-188 -126.5t-255 -47.5q-176 0 -277.5 65.5t-101.5 167.5q0 76 46.5 130t131.5 54q73 0 115.5 -42t42.5 -93q0 -38 -13 -70.5 t-29 -49.5t-29 -35t-13 -31q0 -20 40 -38.5t99 -18.5q55 0 100 23t76.5 59.5t56 92t39.5 111t25.5 125.5t15 126.5t7.5 123.5q-137 -106 -326 -106q-190 0 -300.5 115t-110.5 296zM369 1059q0 -168 71.5 -273.5t198.5 -105.5q95 0 164 27q4 90 4 127q0 84 -6 162.5 t-23.5 161.5t-44.5 144t-72.5 100.5t-103.5 39.5q-89 0 -138.5 -108t-49.5 -275z" />
<glyph unicode=":" horiz-adv-x="512" d="M96 156q0 69 46.5 117.5t115.5 48.5q66 0 113 -48.5t47 -117.5q0 -68 -47 -117t-113 -49q-68 0 -115 49t-47 117zM96 807q0 69 46.5 117.5t115.5 48.5q66 0 113 -48.5t47 -117.5q0 -68 -47 -117t-113 -49q-68 0 -115 49t-47 117z" />
<glyph unicode=";" horiz-adv-x="512" d="M78 150q0 72 47 120.5t115 48.5q90 0 139 -65.5t49 -153.5q0 -74 -26.5 -147.5t-90.5 -146.5t-157 -119l-17 20q75 55 126.5 136.5t51.5 162.5q0 26 -6 41q-30 -43 -88 -43q-68 0 -105.5 40t-37.5 106zM96 807q0 69 46.5 117.5t115.5 48.5q66 0 113 -48.5t47 -117.5 q0 -68 -47 -117t-113 -49q-68 0 -115 49t-47 117z" />
<glyph unicode="&#x3c;" d="M141 520v17l834 454l31 -55l-754 -410l754 -409l-31 -58z" />
<glyph unicode="=" d="M94 338v55h959v-55h-959zM94 705v55h959v-55h-959z" />
<glyph unicode="&#x3e;" d="M141 117l754 409l-754 410l31 55l834 -454v-17l-834 -461z" />
<glyph unicode="?" horiz-adv-x="804" d="M66 1309q0 49 17.5 83.5t46.5 51t57.5 23t60.5 6.5q112 0 204.5 -34.5t151.5 -93t91 -133.5t32 -159q0 -92 -26.5 -166.5t-77 -129t-110 -93t-138.5 -70.5v-158l-21 -2l-59 430q63 10 123.5 25t128.5 38.5t109.5 57.5t41.5 72q0 35 -16 57t-49 32t-68 13.5t-90 3.5 l-256 2q-62 0 -107.5 36t-45.5 108zM219 156q0 69 47.5 117.5t114.5 48.5q66 0 114 -48.5t48 -117.5q0 -68 -48 -117t-114 -49q-67 0 -114.5 49t-47.5 117z" />
<glyph unicode="@" horiz-adv-x="1675" d="M70 418q0 109 29 215.5t81.5 201t131 175.5t173.5 139.5t212 91.5t243 33q190 0 341 -79.5t237 -226.5t86 -335q0 -91 -23.5 -182.5t-70 -173.5t-109.5 -146t-148 -101.5t-180 -37.5q-79 0 -130.5 34t-51.5 103q0 64 63 334l-14 2q-31 -84 -70 -162t-86.5 -149 t-102.5 -113.5t-108 -42.5q-72 0 -123 56t-51 173q0 121 43 260t111.5 256t166 195t195.5 78q44 0 81.5 -23t56.5 -61l12 49q3 14 16.5 22.5t28.5 8.5q190 0 190 -43l-86 -373q-4 -18 -23.5 -118.5t-37.5 -182.5q-18 -93 -18 -111q0 -26 21 -45.5t61 -19.5q68 0 126.5 33.5 t99 88t69 123t42 138t13.5 133.5q0 123 -42.5 232t-120 191t-196 129.5t-262.5 47.5q-168 0 -308 -65.5t-234.5 -179t-146.5 -268t-52 -331.5q0 -296 167.5 -461.5t458.5 -165.5q44 0 80 3t57.5 6.5t62.5 11t71 12.5q10 1 61.5 16.5t57.5 16.5q16 4 41 4q45 0 45 -22 q0 -8 -4.5 -16t-10.5 -9q-117 -5 -139 -10q-109 -25 -175 -34t-161 -9q-157 0 -293 46t-237 131t-159 216t-58 291zM653 258q0 -96 62 -96q50 0 134 172.5t134 374.5l29 116q0 28 -4.5 54.5t-14.5 52.5t-29.5 41.5t-45.5 15.5q-56 0 -109 -97t-85 -226.5t-51.5 -243.5 t-19.5 -164z" />
<glyph unicode="A" horiz-adv-x="1458" d="M-35 0v29l160 71l446 1155l-34 105l174 47l114 90h13l520 -1464l131 -4v-29h-645v29l164 4l-201 567h-445l-190 -500l158 -71v-29h-365zM379 643h414l-199 561h-2z" />
<glyph unicode="B" horiz-adv-x="1382" d="M39 0v29l172 4v1392l-172 5v28h385q28 0 194.5 1t192.5 1q67 0 129.5 -9.5t125.5 -35t109.5 -64.5t75.5 -103t29 -146q0 -60 -24.5 -116t-70.5 -102.5t-119.5 -77.5t-164.5 -38v-10q186 -14 303 -109t117 -235q0 -126 -67.5 -222.5t-178.5 -146t-246 -49.5 q-86 0 -252.5 2t-252.5 2h-285zM547 35q59 -6 127 -6q154 0 234.5 103.5t80.5 270.5q0 160 -91.5 250t-250.5 90h-100v-708zM547 776h115q140 0 212 87t72 229q0 155 -77 244.5t-238 90.5q-57 0 -84 -2v-649z" />
<glyph unicode="C" horiz-adv-x="1406" d="M59 727q0 226 98.5 397t268 260t383.5 89q223 0 397 -62l82 37l10 -2l23 -449l-21 -2q-134 192 -218 282q-151 161 -261 161q-89 0 -157.5 -34t-114 -94.5t-74.5 -149t-41 -190.5t-12 -227q0 -119 14.5 -219.5t47.5 -189.5t84.5 -151t129 -98t176.5 -36q77 0 146 26 t128 78t101 137.5t60 196.5l32 -4q-17 -129 -64 -226t-119 -156t-161.5 -88t-197.5 -29q-337 0 -538.5 202.5t-201.5 540.5z" />
<glyph unicode="D" horiz-adv-x="1599" d="M39 0v29l172 4v1392l-172 5v28h416q46 0 126.5 1t137.5 1q152 0 246 -20q282 -53 428.5 -235.5t146.5 -467.5q0 -217 -128.5 -408t-336.5 -272q-65 -25 -173 -43t-185 -18q-35 0 -176 2t-187 2h-315zM547 29h125q108 0 194 36.5t143 99.5t94.5 152.5t54 190t16.5 217.5 q0 109 -15.5 207t-53 190.5t-94 159.5t-145 107.5t-200.5 40.5q-84 0 -119 -3v-1398z" />
<glyph unicode="E" horiz-adv-x="1406" d="M39 0v29l172 4v1392l-172 5v28h1036l160 4v-10l27 -418l-19 -4l-295 326q-47 47 -82 59t-108 12h-211v-653h82q63 0 115.5 19.5t86 46.5t63 72t44 76.5t33.5 80.5h22q-24 -204 -26 -315q0 -129 26 -326h-22q-53 143 -139.5 228t-202.5 85h-82v-708h278q48 0 73.5 13.5 t57.5 45.5l351 391l20 -4l-70 -479h-1218z" />
<glyph unicode="F" horiz-adv-x="1314" d="M39 0v29l172 4v1392l-172 5v28h1032l164 4v-10l27 -418l-19 -4l-293 324q-48 48 -81 60.5t-103 12.5h-219v-653h82q63 0 115.5 19.5t86 46.5t63 72t44 76.5t33.5 80.5h22q-24 -204 -26 -315q0 -129 26 -326h-22q-53 143 -139.5 228t-202.5 85h-82v-708l196 -4v-29h-704z " />
<glyph unicode="G" horiz-adv-x="1564" d="M59 705q0 166 57.5 309t158.5 243.5t244 158t308 57.5q241 0 433 -66l81 41l11 -2l20 -449l-18 -2q-44 63 -66.5 94.5t-65 87.5t-70.5 85.5t-70 68.5t-77.5 58.5t-79 34t-87.5 14.5q-202 0 -307 -180t-105 -508q0 -78 9 -156.5t28 -162.5t53.5 -155.5t80.5 -129 t114 -90.5t149 -33q109 0 191 24v555l-162 2v31h614v-29l-127 -2v-483h60v-21q-370 -116 -580 -116q-250 0 -431 90.5t-273.5 252.5t-92.5 378z" />
<glyph unicode="H" horiz-adv-x="1636" d="M39 0v29l172 4v1392l-172 5v28h676v-28l-168 -5v-651h545v651l-168 5v28h673v-28l-170 -5v-1392l170 -4v-29h-673v29l168 4v704h-545v-704l170 -4v-29h-678z" />
<glyph unicode="I" horiz-adv-x="755" d="M39 0v29l172 4v1392l-172 5v28h676v-28l-168 -5v-1392l170 -4v-29h-678z" />
<glyph unicode="J" horiz-adv-x="1003" d="M29 184q0 74 44 124t115 50q69 0 112.5 -38t43.5 -105q0 -35 -12 -62.5t-26 -41.5t-26 -30t-12 -30q0 -37 68 -37q67 0 106 57.5t39 157.5v1196l-172 5v28h676v-28l-168 -5v-1005q0 -197 -130 -318.5t-347 -121.5q-147 0 -229 54.5t-82 149.5z" />
<glyph unicode="K" horiz-adv-x="1529" d="M39 1430v28h688v-28l-180 -5v-634h88q55 0 90 18q40 22 90 78l469 479l-160 64v28h381v-28l-176 -68l-416 -436l517 -893l118 -4v-29h-493l-11 33l-395 725h-102v-725l170 -4v-29h-676v29l170 4v1392z" />
<glyph unicode="L" horiz-adv-x="1372" d="M39 0v29l172 4v1392l-172 5v28h676v-28l-168 -5v-1392h268q57 0 85 13.5t56 45.5l351 391l20 -4l-70 -479h-1218z" />
<glyph unicode="M" horiz-adv-x="1863" d="M29 1430v28h563l342 -901h4l358 901h529v-28l-168 -5v-1392l170 -4v-29h-672v29l168 4v1382h-4l-531 -1343h-18l-524 1343h-4v-1309l168 -77v-29h-373v29l164 77v1319z" />
<glyph unicode="N" horiz-adv-x="1400" d="M10 1430v28h486l680 -938h2v834l-166 76v28h366v-28l-159 -76v-908l2 -452h-60l-921 1280v-1168l166 -81v-25h-371v25l164 81v1207l-82 98z" />
<glyph unicode="O" horiz-adv-x="1576" d="M59 723q0 150 54 286.5t148.5 240t233 164.5t298.5 61q163 0 300.5 -57.5t230 -156.5t143.5 -232t51 -284q0 -148 -53.5 -286t-147 -243.5t-230.5 -168.5t-294 -63q-223 0 -391 96.5t-255.5 263.5t-87.5 379zM430 719q0 -146 18.5 -266t59 -220.5t113 -156.5t172.5 -56 q79 0 141.5 37t102.5 99.5t66 153t37 191t11 218.5q0 142 -18.5 264.5t-58 229t-111.5 168t-170 61.5q-363 0 -363 -723z" />
<glyph unicode="P" horiz-adv-x="1347" d="M39 0v29l172 4v1392l-172 5v28h373q14 0 112.5 1t227.5 1q81 0 154.5 -12t145 -42.5t123 -77.5t83.5 -122t32 -170q0 -125 -65.5 -226t-173.5 -155.5t-234 -54.5h-2l-268 51v-618l180 -4v-29h-688zM547 672q86 -8 135 -8q63 0 117 26q78 42 115.5 142t37.5 212 q0 177 -74.5 279t-226.5 102l-104 -4v-749z" />
<glyph unicode="Q" horiz-adv-x="1576" d="M59 723q0 150 54 286.5t148.5 240t233 164.5t298.5 61q163 0 300.5 -57.5t230 -156.5t143.5 -232t51 -284q0 -170 -66 -322.5t-190 -262t-285 -150.5q10 -40 29.5 -77.5t51.5 -74t82.5 -59t112.5 -22.5q65 0 150 26l6 -16q-66 -46 -164.5 -77.5t-218.5 -31.5 q-101 0 -188.5 37t-149 112t-76.5 175q-246 54 -399.5 248t-153.5 473zM430 719q0 -146 18.5 -266t59 -220.5t113 -156.5t172.5 -56q79 0 141.5 37t102.5 99.5t66 153t37 191t11 218.5q0 142 -18.5 264.5t-58 229t-111.5 168t-170 61.5q-363 0 -363 -723z" />
<glyph unicode="R" horiz-adv-x="1501" d="M39 0v29l172 4v1392l-172 5v28h326q111 2 434 2q231 0 359 -94.5t128 -261.5q0 -149 -118 -251.5t-310 -119.5v-14q153 -6 232 -66.5t114 -169.5l101 -297q21 -74 53.5 -104.5t85.5 -30.5q18 0 72 8l2 -22q-43 -19 -127.5 -35t-169.5 -16q-131 0 -194.5 55t-88.5 164 l-80 299q-29 109 -72.5 159t-117.5 50l-121 2v-682l174 -2v-31h-682zM547 750q51 -7 96 -7q131 0 225.5 92.5t94.5 247.5q0 113 -44.5 197.5t-130.5 120.5q-59 29 -147 29q-47 0 -94 -3v-677z" />
<glyph unicode="S" horiz-adv-x="1234" d="M82 481l20 4q126 -181 184 -249q183 -218 335 -218q109 0 169 77t60 192q0 63 -19.5 113t-58 86.5t-81 61.5t-101.5 50l-107 47q-356 153 -356 395q0 84 25.5 154.5t70.5 120.5t105.5 85t131 51.5t146.5 16.5q214 0 363 -63l73 37l7 -2l30 -408l-18 -4q-64 89 -108.5 146 t-94 112t-89 85.5t-83 48.5t-86.5 18q-90 0 -148.5 -58.5t-58.5 -158.5q0 -56 15.5 -97.5t55.5 -72.5t64 -44.5t86 -40.5q11 -5 17 -8l186 -84q330 -146 330 -415q0 -104 -46.5 -194.5t-123 -151t-174 -95t-199.5 -34.5q-94 0 -210 26t-189 72l-58 -70l-18 2z" />
<glyph unicode="T" horiz-adv-x="1413" d="M25 1047l18 409l4 6l150 -4h1044l125 4l4 -6l19 -409l-27 -9l-289 332q-30 32 -53.5 44.5t-54.5 12.5h-91v-1394l173 -4v-29h-678v29l170 4v1394h-86q-33 0 -55 -11.5t-52 -41.5l-295 -336z" />
<glyph unicode="U" horiz-adv-x="1507" d="M31 1432v26h676v-26l-168 -5v-907q0 -457 344 -457q82 0 149 25t113 68.5t77.5 102.5t45.5 125.5t14 139.5v830l-164 78v26h365v-26l-160 -78v-848q0 -84 -16.5 -157.5t-56 -141.5t-99.5 -116.5t-153.5 -77.5t-211.5 -29q-134 0 -235.5 27t-167 75t-106.5 121 t-57.5 156.5t-16.5 189.5v874z" />
<glyph unicode="V" horiz-adv-x="1320" d="M-23 1430v28h644v-28l-164 -5l358 -970h2l338 905l-160 70v28h365v-28l-160 -70l-520 -1372h-37l-541 1439z" />
<glyph unicode="W" horiz-adv-x="2078" d="M-27 1430v28h643v-28l-163 -5l360 -970h2l211 575l-149 397l-125 3v28h643v-28l-164 -5l358 -968h2l338 903l-160 70v28h365v-28l-160 -70l-520 -1372h-37l-368 983h-2l-371 -983h-37l-541 1439z" />
<glyph unicode="X" horiz-adv-x="1398" d="M-31 0v29l187 69l397 588l-410 739l-141 5v28h692v-28l-172 -5l301 -544l316 479l-156 70v28h379v-28l-178 -70l-342 -516l446 -811l139 -4v-29h-682v29l170 4l-342 616l-370 -553l159 -67v-29h-393z" />
<glyph unicode="Y" horiz-adv-x="1331" d="M-35 1430v28h676v-28l-168 -5l350 -667l326 602l-158 70v28h369v-28l-164 -70l-356 -660v-667l182 -4v-29h-700v29l180 4v657l-402 735z" />
<glyph unicode="Z" horiz-adv-x="1392" d="M49 0v16l862 1411h-399q-34 0 -57.5 -11.5t-51.5 -41.5l-319 -344l-21 2l46 424l4 6l149 -4h1032v-18l-860 -1407h385q34 0 62.5 12t40 22t36.5 35q49 51 171.5 185.5t177.5 197.5l18 -6l-84 -479h-1192z" />
<glyph unicode="[" horiz-adv-x="843" d="M225 -469v2025q77 -19 183.5 -34t191.5 -15q185 0 207 80l14 -4q-17 -278 -162 -278q-72 0 -161 44t-142 85.5t-88 76.5v-1935q24 24 61 54t92 67t119 61.5t119 24.5q145 0 162 -279l-14 -4q-22 80 -207 80q-85 0 -191.5 -15t-183.5 -34z" />
<glyph unicode="\" horiz-adv-x="696" d="M152 1485l53 8l457 -1874l-56 -8z" />
<glyph unicode="]" horiz-adv-x="843" d="M25 -496q17 279 161 279q55 0 119.5 -24.5t119 -61.5t92 -67t61.5 -54v1935q-24 -24 -61.5 -54t-92 -66.5t-119 -61t-119.5 -24.5q-144 0 -161 278l14 4q22 -80 207 -80q85 0 191.5 15t183.5 34v-2025q-77 19 -183.5 34t-191.5 15q-185 0 -207 -80z" />
<glyph unicode="^" d="M109 279l460 827h15l454 -830l-51 -30l-414 751l-407 -751z" />
<glyph unicode="_" horiz-adv-x="868" d="M0 -172h946v-72h-946v72z" />
<glyph unicode="`" horiz-adv-x="604" d="M94 1331q0 43 33.5 79t79.5 36q26 0 47 -8l258 -344l-16 -17l-394 213l-2 6q-6 18 -6 35z" />
<glyph unicode="a" horiz-adv-x="1021" d="M70 209q0 77 41.5 139.5t115 105.5t156.5 71.5t182 47.5v166q0 98 -36 148.5t-134 50.5q-55 0 -95 -25t-40 -53q0 -14 13 -28.5t29 -27t29 -37t13 -54.5q0 -52 -33.5 -87.5t-89.5 -35.5q-66 0 -97.5 35.5t-31.5 89.5q0 112 127 194t334 82q142 -1 218 -59q73 -56 73 -169 v-9l-6 -490q0 -88 69 -88q62 0 80 78h19q-2 -51 -14.5 -95t-37.5 -83t-69.5 -61.5t-104.5 -22.5q-72 0 -129 46.5t-76 135.5q-34 -93 -105 -140.5t-163 -47.5q-98 0 -167.5 60.5t-69.5 162.5zM334 283q0 -65 31.5 -107.5t89.5 -42.5q47 0 78.5 33t31.5 84v291 q-106 -20 -168.5 -89.5t-62.5 -168.5z" />
<glyph unicode="b" horiz-adv-x="1138" d="M33 1434v24l377 35h12l-6 -332v-321q32 30 55.5 48.5t66 45.5t94 41t109.5 14q71 0 134 -28t111.5 -80t77 -133.5t28.5 -182.5q0 -125 -43.5 -234.5t-117.5 -185t-173 -118.5t-207 -43q-80 0 -164 20t-133 59l-90 -65h-27q2 227 2 358v1049zM416 242q0 -224 159 -224 q101 0 164.5 125.5t63.5 323.5q0 79 -14 145.5t-42.5 120.5t-78 84.5t-115.5 30.5q-80 0 -137 -39v-567z" />
<glyph unicode="c" horiz-adv-x="933" d="M47 453q0 240 143.5 387t368.5 147q86 0 151.5 -20.5t101 -53.5t52.5 -68t17 -69q0 -65 -40 -113.5t-108 -48.5q-57 0 -95 32t-38 85q0 38 15.5 66.5t31 50.5t15.5 43q0 23 -27.5 42t-79.5 19q-65 0 -113 -30t-76 -84t-41.5 -120.5t-13.5 -146.5q0 -71 19 -134.5t56 -115 t100.5 -82t144.5 -30.5q84 0 153 28.5t113 77.5l10 -8q-9 -53 -37.5 -107t-76 -104t-122 -81t-163.5 -31q-110 0 -198.5 37.5t-145.5 102.5t-87 149t-30 180z" />
<glyph unicode="d" horiz-adv-x="1153" d="M47 459q0 128 43.5 231.5t115 167t158.5 97.5t179 34q114 0 188 -28v444l-108 29v24l378 35h13l-6 -393v-1014l98 -29v-20l-356 -49h-19v153q-43 -63 -121 -109t-172 -46q-170 0 -280.5 131.5t-110.5 341.5zM322 604q0 -208 85.5 -336.5t225.5 -128.5q59 0 98 27v571 q0 96 -55.5 157.5t-130.5 61.5q-60 0 -104.5 -30.5t-69.5 -82.5t-37 -112t-12 -127z" />
<glyph unicode="e" horiz-adv-x="974" d="M47 457q0 229 144.5 379.5t361.5 150.5q168 0 273.5 -92t105.5 -242v-28h-617q-2 -20 -2 -56q0 -48 6.5 -92t28 -95t55.5 -87.5t95.5 -61t142.5 -24.5q96 0 169 32.5t112 73.5l10 -8q-24 -153 -137.5 -238t-276.5 -85q-216 0 -343.5 133.5t-127.5 339.5zM319 657h343v43 q0 107 -37.5 178.5t-116.5 71.5q-90 0 -136.5 -79.5t-52.5 -213.5z" />
<glyph unicode="f" horiz-adv-x="657" d="M37 879v39l119 40v127q0 207 120 333t318 126q108 0 180 -46t72 -132q0 -51 -34 -93t-95 -42q-59 0 -93 33t-34 82q0 26 9.5 49t21 35.5t21 26t9.5 24.5q0 30 -67 30q-73 0 -112.5 -54t-39.5 -161v-340h217v-82h-217v-843l133 -2v-29h-518v31l109 2v841z" />
<glyph unicode="g" horiz-adv-x="1116" d="M18 -274q0 26 14.5 57t45 65t87.5 61t132 38v4q-99 16 -140.5 59.5t-41.5 100.5q0 56 44 105.5t100.5 79.5t119.5 48v6q-143 34 -215 119.5t-72 181.5q0 152 124.5 244t320.5 92q133 0 278 -51l242 37v-156l-240 84l-4 -8q65 -37 103 -106t38 -128q0 -63 -24.5 -116 t-66 -89.5t-97.5 -62t-117.5 -37.5t-126.5 -12q-84 0 -139 -26t-55 -74q0 -56 112 -56h312q47 0 93.5 -8.5t91.5 -29t79 -49.5t55 -73t21 -98q0 -129 -86 -228.5t-220.5 -149.5t-289.5 -50q-243 0 -360.5 60t-117.5 166zM252 -213q0 -31 6 -61t25 -65.5t48.5 -62t81.5 -44 t119 -17.5q81 0 153.5 28t121.5 86.5t49 135.5q0 154 -199 154h-329q-35 -20 -55.5 -63t-20.5 -91zM365 657q0 -124 38.5 -203t118.5 -79q162 0 162 295q0 282 -164 282q-37 0 -65 -18.5t-44.5 -47.5t-27 -69t-14.5 -78.5t-4 -81.5z" />
<glyph unicode="h" horiz-adv-x="1185" d="M43 0v29l107 2v1374l-107 29v24l379 35h10l-6 -395v-277q67 71 157 120.5t183 49.5q131 0 202.5 -71t71.5 -195v-694l107 -2v-29h-490v29l107 2v628q0 37 -9 70t-28 62.5t-55 47t-84 17.5q-36 0 -70 -13t-46.5 -21.5t-45.5 -33.5v-757l106 -2v-29h-489z" />
<glyph unicode="i" horiz-adv-x="577" d="M49 0v29l107 2v848l-99 26v25l367 55h12l-4 -291v-663l107 -2v-29h-490zM135 1247q0 68 45.5 115t112.5 47q70 0 117 -47t47 -115q0 -67 -48 -114.5t-116 -47.5q-66 0 -112 47t-46 115z" />
<glyph unicode="j" horiz-adv-x="571" d="M-203 -326q0 57 36.5 99.5t100.5 42.5q59 0 93 -31t34 -80q0 -32 -14 -58.5t-28.5 -45t-14.5 -31.5q0 -8 9 -18.5t22 -10.5q121 0 121 180v1158l-99 26v25l367 55h12l-4 -344v-631q0 -226 -109 -366t-294 -140q-100 0 -166 44t-66 126zM135 1247q0 68 45.5 115t112.5 47 q70 0 117 -47t47 -115q0 -67 -48 -114.5t-116 -47.5q-66 0 -112 47t-46 115z" />
<glyph unicode="k" horiz-adv-x="1114" d="M43 0v29l107 2v1374l-107 29v24l377 35h12q-6 -246 -6 -348v-561h80q59 0 119 57l278 246l-145 59v27h346v-27l-152 -61l-233 -213l338 -641l94 -2v-29h-395l-8 31l-261 522h-61v-522l106 -2v-29h-489z" />
<glyph unicode="l" horiz-adv-x="571" d="M43 0v29l107 2v1374l-107 29v24l379 35h10l-6 -274v-1188l106 -2v-29h-489z" />
<glyph unicode="m" horiz-adv-x="1800" d="M49 0v29l107 2v848l-99 26v25l361 55h10l2 -164q73 73 161.5 121.5t170.5 48.5q106 0 174 -45.5t92 -128.5q75 73 169 123.5t175 50.5q138 0 210.5 -71.5t72.5 -200.5v-688l106 -2v-29h-489v29l106 2v624q0 86 -42.5 143.5t-133.5 57.5q-94 0 -166 -72q8 -36 8 -61v-692 l107 -2v-29h-489v29l106 2v635q0 82 -44 136t-132 54q-83 0 -160 -68v-757l107 -2v-29h-490z" />
<glyph unicode="n" horiz-adv-x="1191" d="M49 0v29l107 2v848l-99 26v25l361 55h10l2 -164q72 72 162 121t172 49q137 0 210 -71.5t73 -200.5v-688l106 -2v-29h-489v29l106 2v624q0 86 -42.5 143.5t-133.5 57.5q-85 0 -162 -68v-757l107 -2v-29h-490z" />
<glyph unicode="o" horiz-adv-x="1118" d="M47 477q0 100 38.5 193.5t105.5 163t163 111.5t205 42q221 0 366.5 -132t145.5 -349q0 -223 -147.5 -372.5t-364.5 -149.5q-223 0 -367.5 139t-144.5 354zM352 492q0 -224 56 -350t151 -126q99 0 153 125t54 351q0 223 -52 342.5t-153 119.5q-209 0 -209 -462z" />
<glyph unicode="p" horiz-adv-x="1148" d="M39 -455l111 2v1332l-99 26v25l361 55h10l4 -135q62 64 143 101.5t152 37.5q174 0 277.5 -126t103.5 -324q0 -241 -143 -398t-359 -157q-118 0 -174 41v-478l131 -2v-28h-518v28zM426 283q0 -139 49 -202t123 -63q93 0 157 111t64 289q0 200 -72.5 315t-205.5 115 q-53 0 -115 -27v-538z" />
<glyph unicode="q" horiz-adv-x="1142" d="M47 453q0 147 60.5 268.5t175.5 194.5t262 73q165 0 305 -78l137 76h21v-1440l112 -2v-28h-520v28l131 2v592q-59 -79 -140 -117t-159 -38q-170 0 -277.5 133.5t-107.5 335.5zM322 578q0 -120 35.5 -218.5t104.5 -158.5t159 -60q64 0 110 25v575q0 86 -49.5 150.5 t-130.5 64.5q-64 0 -111 -33.5t-71.5 -90.5t-35.5 -119.5t-11 -134.5z" />
<glyph unicode="r" horiz-adv-x="899" d="M49 0v29l107 2v848l-99 26v25l361 55h10l2 -194q51 75 133 135.5t160 60.5q86 0 129 -46t43 -107q0 -70 -42.5 -120t-104.5 -50q-66 0 -101 36t-35 82q0 16 4.5 36.5t4.5 25.5q0 20 -25 20q-31 0 -78 -38.5t-86 -84.5v-710l119 -2v-29h-502z" />
<glyph unicode="s" horiz-adv-x="866" d="M55 348l19 6l243 -325q46 -11 82 -11q66 0 121 45t55 132q0 67 -39 110t-128 70l-91 26q-245 72 -245 281q0 134 103.5 219.5t262.5 85.5q59 0 126 -12t108 -27l63 21l10 -4l11 -283l-17 -4l-86 96q-80 93 -131 134.5t-106 41.5q-54 0 -91.5 -40.5t-37.5 -102.5 q0 -113 164 -166l110 -33q123 -38 189.5 -106t66.5 -180q0 -67 -26 -124t-69 -96t-98 -66t-112 -39.5t-113 -12.5q-158 0 -297 53l-30 2v8z" />
<glyph unicode="t" horiz-adv-x="757" d="M29 899v41l194 107l148 145h53l-4 -234h307v-65h-307v-569q0 -146 143 -146q43 0 90.5 18t81.5 50l15 -8q-37 -103 -132 -176.5t-221 -73.5q-122 0 -187 64.5t-65 176.5v662z" />
<glyph unicode="u" horiz-adv-x="1181" d="M45 909v27l379 49l6 -4l-6 -291v-338q0 -227 199 -227q68 0 135 57v703l-107 24v31l383 45l6 -4l-6 -291v-604l99 -29v-20l-359 -49h-16v164q-145 -168 -330 -168q-127 0 -204 69.5t-77 206.5v625z" />
<glyph unicode="v" horiz-adv-x="954" d="M-35 944v29h522v-29l-122 -2l247 -590h2l215 535l-120 57v29h280v-29l-119 -57l-368 -899h-19l-420 954z" />
<glyph unicode="w" horiz-adv-x="1581" d="M-35 944v29h522v-29l-122 -2l249 -592h2l158 381l-94 211l-96 2v29h520v-29l-123 -2l250 -592h2l221 537l-121 57v29h283v-29l-121 -57l-377 -899h-18l-301 692h-4l-291 -692h-21l-420 954z" />
<glyph unicode="x" horiz-adv-x="997" d="M-29 0v29l138 59l276 358l-285 494l-102 2v31h534v-31l-124 -2l198 -344l221 297l-116 51v29h284v-29l-127 -57l-241 -326l305 -528l94 -4v-29h-522v29l121 4l-219 381l-256 -334l122 -51v-29h-301z" />
<glyph unicode="y" horiz-adv-x="958" d="M-35 944v29h524v-29l-122 -2l251 -604h5l208 549l-120 57v29h278v-29l-119 -57l-417 -1090q-26 -62 -45 -101.5t-45 -79.5t-52 -62t-62 -36t-79 -14q-85 0 -141 47t-56 125q0 70 41.5 116t108.5 46q65 0 101 -33.5t36 -85.5q0 -26 -10 -48.5t-22.5 -35.5t-22.5 -26 t-10 -21q0 -13 9.5 -20.5t20.5 -7.5h4q37 0 71 32q35 33 58.5 77t49.5 110l77 207l-422 956z" />
<glyph unicode="z" horiz-adv-x="958" d="M55 0v23l549 919h-211q-40 0 -61.5 -9.5t-44.5 -45.5l-185 -262h-24l16 348h819v-21l-551 -923l205 10q61 3 94.5 22.5t67.5 63.5l154 231h24l-37 -356h-815z" />
<glyph unicode="{" horiz-adv-x="552" d="M102 -96q0 69 23 149.5t50 142t50 141.5t23 148q0 75 -19 107q-11 0 -29 -13.5t-34 -13.5t-29.5 9t-13.5 26t11 27t28 10t37.5 -14.5t27.5 -14.5q9 0 14 7t6.5 21.5t1.5 25.5t-1 30q0 57 -36.5 148.5l-73 183t-36.5 147.5q0 89 34.5 155.5t94.5 104.5t134 56t161 18v-22 q-94 -8 -162.5 -76.5t-68.5 -167.5q0 -63 14.5 -222t14.5 -222q0 -79 -17 -127t-61 -66v-4q78 -25 78 -184q0 -109 -14.5 -272t-14.5 -275q0 -104 70 -187.5t161 -91.5v-20q-87 0 -161 18.5t-134 57.5t-94.5 105.5t-34.5 154.5z" />
<glyph unicode="|" horiz-adv-x="563" d="M256 -326v1803h51v-1803h-51z" />
<glyph unicode="}" horiz-adv-x="552" d="M27 -412q91 8 161 91.5t70 187.5q0 112 -14.5 275t-14.5 272q0 159 78 184v4q-44 18 -61 66t-17 127q0 63 14.5 222t14.5 222q0 99 -68.5 167.5t-162.5 76.5v22q87 0 161 -18t134 -56t94.5 -104.5t34.5 -155.5q0 -56 -36.5 -147.5l-73 -183t-36.5 -148.5q-1 -19 -1 -30 t1.5 -25.5t6.5 -21.5t14 -7q7 0 27.5 14.5t37.5 14.5t28 -10t11 -27t-13.5 -26t-29.5 -9q-17 0 -35 13.5t-28 13.5q-19 -32 -19 -107q0 -68 23 -148t50 -141.5t50 -142t23 -149.5q0 -88 -34.5 -154.5t-94.5 -105.5t-134 -57.5t-161 -18.5v20z" />
<glyph unicode="~" d="M82 473q21 66 63.5 110.5t80 60t67.5 15.5q88 0 268 -67q75 -28 106 -39t93.5 -26t111.5 -15q40 0 72 26.5t66 102.5l55 -20q-31 -93 -84 -134t-109 -41q-64 0 -131 16.5t-161.5 51.5t-128.5 45q-8 2 -28 8.5t-29 9.5t-26.5 7.5t-29 6.5t-27 3.5t-30.5 1.5 q-40 0 -79 -39.5t-61 -101.5z" />
<glyph unicode="&#xa1;" horiz-adv-x="587" d="M119 -289q0 85 11 179t32.5 193.5t39.5 171.5t46.5 175.5t38.5 142.5h18q4 -14 29.5 -105.5t34 -124.5t29.5 -117.5t30.5 -135t22 -123t17.5 -135t5 -121.5q0 -83 -50 -131.5t-126 -48.5q-74 0 -126 48.5t-52 131.5zM131 850q0 69 47 117.5t113 48.5q69 0 115.5 -48.5 t46.5 -117.5t-46.5 -116.5t-115.5 -47.5q-66 0 -113 47.5t-47 116.5z" />
<glyph unicode="&#xa2;" horiz-adv-x="980" d="M43 453q0 120 40 220.5t109.5 169t164 106.5t202.5 38q56 0 117 -14l67 149l39 -14l-67 -147q83 -30 123.5 -87.5t40.5 -115.5q0 -66 -41 -114t-115 -48q-50 0 -86 25.5t-45 70.5l-191 -416q86 -92 240 -92q140 0 260 90l8 -8q-10 -27 -27 -57.5t-51 -72.5t-75.5 -74 t-105 -55t-134.5 -23q-129 0 -227 45l-76 -166l-39 14l78 172q-103 60 -156 167t-53 237zM305 555q0 -156 68 -244l274 598q-26 43 -98 43q-64 0 -112 -32.5t-76 -89.5t-42 -126t-14 -149z" />
<glyph unicode="&#xa3;" horiz-adv-x="1236" d="M53 125q0 64 47 102.5t113 38.5q89 0 170 -63q25 56 25 139q0 25 -2.5 52.5t-5.5 49t-9.5 53t-10 48.5t-13.5 52t-13.5 47.5t-15 52t-14.5 48.5h-246v43h233q-41 153 -41 269q0 182 128 300t321 118q160 0 242.5 -69t82.5 -163q0 -56 -38.5 -101.5t-100.5 -45.5 q-53 0 -92 32.5t-39 90.5q0 37 14 66.5t28.5 51t14.5 39.5q0 26 -32 46t-84 20q-49 0 -85.5 -18.5t-56.5 -45t-32 -64t-15.5 -68t-3.5 -64.5q0 -38 4.5 -76t16 -84t19 -73.5t25 -84.5t23.5 -76h371v-43h-360q30 -113 30 -200q0 -115 -59 -200t-182 -148l2 -7 q78 10 159.5 17.5t185.5 15.5t163 13q206 16 206 118q0 31 -8 59t-15.5 41t-21.5 35l17 9q29 -31 54.5 -85t25.5 -114q0 -58 -21.5 -115t-61.5 -104t-105 -76t-144 -29q-124 0 -232.5 44t-220.5 137q-30 -72 -79.5 -117t-112.5 -45q-57 0 -102.5 34t-45.5 97z" />
<glyph unicode="&#xa4;" horiz-adv-x="620" d="M45 494l64 65q-52 70 -52 154q0 79 52 147l-64 62l57 55l60 -62q70 48 143 48q85 0 150 -48l63 64l57 -55l-63 -62q51 -73 51 -153q0 -81 -53 -152l63 -63l-55 -54l-63 64q-65 -45 -144 -45q-76 0 -149 43l-60 -66zM109 705q0 -84 56 -145.5t142 -61.5q94 0 148.5 56 t54.5 159q0 95 -59.5 153t-139.5 58q-93 0 -147.5 -56.5t-54.5 -162.5z" />
<glyph unicode="&#xa5;" horiz-adv-x="1331" d="M-35 1430v28h676v-28l-168 -5l350 -667l326 602l-158 70v28h369v-28l-164 -70l-356 -660v-53h379v-43h-379v-571l182 -4v-29h-700v29l180 4v571h-379v43h379v43l-402 735z" />
<glyph unicode="&#xa6;" d="M545 -324v875h55v-875h-55zM545 692v793h55v-793h-55z" />
<glyph unicode="&#xa7;" horiz-adv-x="1028" d="M109 842q0 139 42.5 258.5t114 201.5t168 128.5t203.5 46.5q61 0 101 -23t40 -59q0 -39 -34.5 -63.5t-86.5 -22.5q-28 0 -54 10.5t-43.5 26t-31 31t-21.5 26t-9 10.5q-65 0 -142.5 -67.5t-111.5 -133.5q151 -107 271 -226.5t212 -255t141.5 -288t49.5 -309.5 q0 -169 -70.5 -314.5t-192 -231t-264.5 -85.5q-76 0 -126 29t-50 66q0 40 34.5 64t88.5 22q28 0 53 -11.5t41.5 -28.5t29 -33.5t19.5 -28t8 -11.5q71 0 156 52.5t141 150.5q-170 101 -291 206t-210 233.5t-132.5 284.5t-43.5 345zM158 872q0 -126 38.5 -258.5t102.5 -249 t148 -224.5t175 -192.5t183 -144.5q10 15 21.5 41.5t24.5 91t13 138.5q0 134 -61 298.5t-156 314.5t-205.5 280t-214.5 213q-31 -42 -50 -136.5t-19 -171.5z" />
<glyph unicode="&#xa8;" horiz-adv-x="821" d="M74 1245q0 58 41 99.5t98 41.5t98 -41.5t41 -99.5t-41 -99.5t-98 -41.5t-98 41.5t-41 99.5zM469 1245q0 59 40.5 100t98.5 41q57 0 98.5 -41.5t41.5 -99.5t-41.5 -99.5t-98.5 -41.5q-58 0 -98.5 41t-40.5 100z" />
<glyph unicode="&#xa9;" horiz-adv-x="1814" d="M127 680q0 187 63 345t171 263.5t253.5 164t309.5 58.5q166 0 307.5 -52.5t246.5 -150t164.5 -247.5t59.5 -336q0 -175 -52.5 -324t-150.5 -258t-246 -171t-329 -62q-192 0 -345.5 60t-251 165t-149 244t-51.5 301zM170 690q0 -161 52.5 -297.5t148.5 -235.5t238 -154.5 t313 -55.5q167 0 307 61t234.5 165.5t147 246t52.5 301.5q0 173 -58.5 317t-159 240t-235.5 148.5t-288 52.5q-154 0 -291.5 -57.5t-239.5 -159t-161.5 -250.5t-59.5 -322zM352 705q0 185 78.5 319.5t212 201t307.5 66.5q181 0 324 -59l55 35h19l-13 -94l39 -267l-22 -4 q-36 51 -60.5 84.5t-73.5 91.5t-89 93.5t-91.5 63.5t-95.5 28q-74 0 -128.5 -28t-88.5 -74.5t-54.5 -119t-28 -150.5t-7.5 -179q0 -117 21 -211.5t64.5 -169t118.5 -115.5t177 -41q125 0 221.5 90.5t126.5 249.5l25 -2q-28 -199 -152.5 -296t-306.5 -97q-278 0 -428 157 t-150 427z" />
<glyph unicode="&#xaa;" horiz-adv-x="618" d="M68 1008q0 43 25.5 80.5t69 64.5t87 45t92.5 31v82q0 121 -96 121q-70 0 -70 -41q0 -11 24.5 -36t24.5 -52q0 -29 -19.5 -48.5t-51.5 -19.5q-36 0 -54 22t-18 54q0 63 60 107t161 44q197 0 197 -131l-4 -287q0 -38 28 -38q21 0 30.5 15t14.5 48h17q0 -70 -32 -121 t-101 -51q-43 0 -73 25.5t-34 70.5q-29 -47 -73 -73.5t-89 -26.5q-49 0 -82.5 31.5t-33.5 83.5zM100 758v51h422v-51h-422zM221 1053q0 -76 55 -76q43 0 66 37v192q-48 -9 -84.5 -54t-36.5 -99z" />
<glyph unicode="&#xab;" horiz-adv-x="862" d="M68 514q0 26 18 39l328 328l16 -11l-143 -350l137 -358l-12 -12l-330 325q-14 14 -14 39zM432 514q0 23 19 39l327 328l17 -11l-144 -350l140 -358l-15 -12l-327 325q-17 17 -17 39z" />
<glyph unicode="&#xac;" horiz-adv-x="1173" d="M70 598v57h979v-424h-60v367h-919z" />
<glyph unicode="&#xad;" horiz-adv-x="604" d="M37 489v173h530v-173h-530z" />
<glyph unicode="&#xae;" horiz-adv-x="1114" d="M43 1100q0 162 70.5 286t188 188t261.5 64q109 0 201.5 -34.5t161 -98t107 -161.5t38.5 -218q0 -233 -135.5 -380.5t-372.5 -147.5q-126 0 -226 38.5t-163.5 107t-97 159.5t-33.5 197zM80 1106q0 -210 131 -342.5t352 -132.5q119 0 215.5 47.5t159.5 132.5h-221 q-30 53 -91 167t-69 136h-61v-278h84v-25h-320v25h74v589q-5 0 -37.5 1t-36.5 1v23h391q85 0 140 -43.5t55 -122.5q0 -59 -38.5 -104.5t-96.5 -57.5q94 -168 182 -286q5 0 28 -1t33 -1q82 127 82 290q0 146 -64.5 257.5t-171 169t-237.5 57.5q-98 0 -186.5 -36.5t-154 -101 t-104 -159.5t-38.5 -205zM496 1137h49q57 0 97 38t40 105q0 64 -29 105.5t-90 41.5h-67v-290z" />
<glyph unicode="&#xaf;" horiz-adv-x="792" d="M96 1171v160h600v-160h-600z" />
<glyph unicode="&#xb0;" horiz-adv-x="577" d="M86 1241q0 90 54 155.5t151 65.5q87 0 144 -58.5t57 -139.5q0 -93 -57.5 -157.5t-147.5 -64.5q-95 0 -148 58t-53 141zM133 1262q0 -181 162 -181q56 0 100.5 45.5t44.5 114.5q0 91 -41.5 136.5t-117.5 45.5q-65 0 -106.5 -44t-41.5 -117z" />
<glyph unicode="&#xb1;" d="M94 0v55h959v-55h-959zM94 621v55h449v397h59v-397h451v-55h-451v-373h-59v373h-449z" />
<glyph unicode="&#xb2;" horiz-adv-x="684" d="M63 647v15q164 180 200 224q111 137 133 247q7 36 7 73q0 83 -41 142t-114 59q-34 0 -62 -18t-28 -48q0 -12 12.5 -23t27.5 -19.5t27.5 -27t12.5 -42.5q0 -45 -27.5 -66.5t-58.5 -21.5q-39 0 -64 28t-25 64q0 40 18 78.5t53 71t94.5 53t133.5 20.5q100 0 172 -52.5 t72 -150.5q0 -52 -20.5 -97.5t-59 -85.5t-79.5 -74.5t-97 -84t-96 -94.5l332 4l24 64h17l-25 -238h-539z" />
<glyph unicode="&#xb3;" horiz-adv-x="692" d="M47 772q0 45 29.5 79t81.5 34q47 0 73.5 -26t26.5 -58q0 -33 -15 -54.5t-29.5 -33.5t-14.5 -23q0 -14 21.5 -25.5t62.5 -11.5q72 0 116.5 48t44.5 141q0 49 -12 89t-48 71.5t-93 31.5q-31 0 -60 -15t-32 -15q-21 0 -21 12q0 5 2 8.5t7 6.5t8.5 5t10.5 4.5t9 3.5 q103 34 152 82t49 115q0 68 -36.5 115t-119.5 47q-42 -2 -73 -21t-31 -45q0 -10 13 -20.5t29 -19.5t29 -27.5t13 -42.5q0 -36 -23.5 -58t-56.5 -22q-47 0 -69.5 29t-22.5 69q0 77 81.5 141t221.5 64q100 0 164.5 -44t64.5 -120q0 -65 -63 -125t-179 -86v-6q8 0 26 1t22 1 q121 -1 182 -56t61 -134q0 -116 -96 -186t-270 -70q-105 0 -170.5 42t-65.5 105z" />
<glyph unicode="&#xb4;" horiz-adv-x="604" d="M84 1092l252 348q21 8 49 8q45 0 79 -35.5t34 -79.5q0 -17 -6 -35l-3 -6l-391 -215z" />
<glyph unicode="&#xb5;" horiz-adv-x="1134" d="M147 -317q0 62 11.5 215.5t11.5 232.5v627l-10 149l184 21h14l-6 -277v-340q0 -41 10.5 -79.5t32 -72.5t61 -54.5t91.5 -20.5q63 0 106 26.5t80 71.5v576l-10 153l188 17h13l-9 -277v-452q0 -99 72 -99q36 0 60 36t24 79l23 -2q0 -119 -50 -173t-135 -54q-157 0 -174 161 h-4q-45 -83 -111.5 -127.5t-140.5 -44.5q-25 0 -43.5 2t-51 15.5t-55.5 37.5t-45 74t-32 119h-23q4 -67 61 -257.5t56 -276.5q0 -160 -106 -160q-93 0 -93 154z" />
<glyph unicode="&#xb6;" horiz-adv-x="1286" d="M111 1014q0 92 30 167.5t81 126t122 85t150.5 50t167.5 15.5h423l136 8v-43h-199v-1306q0 -95 -21.5 -173.5t-66 -140t-120 -95.5t-177.5 -34q-88 0 -161.5 26.5t-122 86t-48.5 141.5q0 83 54.5 139t134.5 56q65 0 113 -37.5t48 -108.5q0 -47 -14.5 -76t-40.5 -57 q-7 -7 -19 -17.5t-17.5 -16t-10 -14t-4.5 -17.5q0 -66 102 -66q151 0 235.5 105t84.5 274v455h-330q-267 0 -398.5 119t-131.5 348z" />
<glyph unicode="&#xb7;" horiz-adv-x="512" d="M96 717q0 69 46.5 117.5t115.5 48.5q66 0 113 -48.5t47 -117.5q0 -68 -47 -117t-113 -49q-68 0 -115 49t-47 117z" />
<glyph unicode="&#xb8;" horiz-adv-x="563" d="M57 -367q0 33 21 55.5t55 22.5t52 -17t18 -42q0 -15 -13.5 -36t-13.5 -26q0 -30 57 -30q56 0 92.5 27.5t36.5 76.5q0 43 -58 76.5t-171 46.5l68 229h37l-27 -90q60 -4 110.5 -15t97 -32t73 -57.5t26.5 -85.5q0 -96 -90.5 -150.5t-208.5 -54.5q-79 0 -120.5 30.5 t-41.5 71.5z" />
<glyph unicode="&#xb9;" horiz-adv-x="587" d="M96 1358v20q177 13 330 72v-20l-12 -7v-749l96 -2v-25h-412v25l97 2v682z" />
<glyph unicode="&#xba;" horiz-adv-x="686" d="M51 1167q0 121 84.5 209t210.5 88q127 0 211 -77t84 -201q0 -128 -84 -212.5t-211 -84.5q-132 0 -213.5 77.5t-81.5 200.5zM133 756v53h422v-53h-422zM229 1178q0 -135 27 -197.5t90 -62.5q65 0 90 61t25 199q0 135 -25 196.5t-90 61.5q-64 0 -90.5 -61t-26.5 -197z" />
<glyph unicode="&#xbb;" horiz-adv-x="860" d="M70 160l141 354l-141 356l14 11l328 -328q18 -14 18 -39q0 -27 -18 -39l-328 -328zM434 870l15 11l327 -328q19 -15 19 -39q0 -26 -19 -39l-327 -328l-13 13l139 354z" />
<glyph unicode="&#xbc;" horiz-adv-x="1484" d="M143 1358v20q177 13 330 72v-20l-12 -7v-749l96 -2v-25h-412v25l97 2v682zM301 -14l836 1474l37 -20l-834 -1473zM715 225v27l327 493l195 48h16v-535h107l10 80h27l-13 -113h-131v-198l72 -2v-25h-360v25l75 2v198h-325zM754 258h286v432z" />
<glyph unicode="&#xbd;" horiz-adv-x="1484" d="M143 1358v20q177 13 330 72v-20l-12 -7v-749l96 -2v-25h-412v25l97 2v682zM301 -14l836 1474l37 -20l-834 -1473zM817 0v14q164 180 202 227q111 137 132 248q6 34 6 70q0 83 -41.5 142t-114.5 59q-34 0 -62 -18t-28 -48q0 -12 12.5 -23t27.5 -19.5t27.5 -27t12.5 -42.5 q0 -45 -27.5 -66.5t-58.5 -21.5q-39 0 -63.5 28t-24.5 64q0 40 18 78.5t53 71t94.5 53t133.5 20.5q100 0 172 -52.5t72 -150.5q0 -52 -20.5 -97.5t-59 -85.5t-79.5 -74.5t-97 -84t-96 -94.5l331 4l25 64h16l-24 -238h-539z" />
<glyph unicode="&#xbe;" horiz-adv-x="1484" d="M76 772q0 45 29 79t81 34q47 0 74 -26.5t27 -57.5q0 -26 -9.5 -45.5t-20.5 -28t-20.5 -18.5t-9.5 -19q0 -14 21.5 -25.5t62.5 -11.5q73 0 117.5 48t44.5 141q0 35 -7.5 66.5t-24 61t-48 47t-74.5 17.5q-31 0 -60 -15t-32 -15q-20 0 -20 12q0 5 2 8.5t7 6.5t8.5 5 t10.5 4.5t9 3.5q103 34 151.5 82t48.5 115q0 68 -36 115t-119 47q-42 -2 -73.5 -21t-31.5 -45q0 -10 13 -20.5t29 -19.5t29 -27.5t13 -42.5q0 -36 -23.5 -58t-56.5 -22q-47 0 -69.5 29t-22.5 69q0 77 81.5 141t221.5 64q100 0 165 -44t65 -120q0 -65 -63 -125t-179 -86v-6 q7 0 25 1t22 1q121 -1 182.5 -56t61.5 -134q0 -115 -96.5 -185.5t-270.5 -70.5q-105 0 -170 42t-65 105zM330 -14l835 1474l37 -20l-833 -1473zM715 225v27l327 493l195 48h16v-535h107l10 80h27l-13 -113h-131v-198l72 -2v-25h-360v25l75 2v198h-325zM754 258h286v432z" />
<glyph unicode="&#xbf;" horiz-adv-x="804" d="M113 -49q0 93 26.5 168t77 129.5t110 93t138.5 70.5v157l20 2l60 -430q-63 -10 -123.5 -25t-129 -38t-110 -57t-41.5 -72q0 -29 12 -49t29.5 -31t49.5 -17.5t60.5 -8.5t72.5 -3h256q62 -2 107.5 -37.5t45.5 -107.5q0 -49 -17.5 -83.5t-46.5 -50.5t-57.5 -22t-60.5 -6 q-112 0 -204.5 34.5t-151.5 92.5t-91 133t-32 158zM297 850q0 68 48 117t114 49q67 0 114.5 -49t47.5 -117q0 -69 -47.5 -117.5t-114.5 -48.5q-66 0 -114 48.5t-48 117.5z" />
<glyph unicode="&#xc0;" horiz-adv-x="1458" d="M-35 0v29l160 71l446 1155l-34 105l174 47l114 90h13l520 -1464l131 -4v-29h-645v29l164 4l-201 567h-445l-190 -500l158 -71v-29h-365zM332 1821q0 48 33.5 86.5t83.5 38.5q13 0 38 -7l328 -346l-14 -22l-455 192l-4 6q-10 40 -10 52zM379 643h414l-199 561h-2z" />
<glyph unicode="&#xc1;" horiz-adv-x="1458" d="M-35 0v29l160 71l446 1155l-34 105l174 47l114 90h13l520 -1464l131 -4v-29h-645v29l164 4l-201 567h-445l-190 -500l158 -71v-29h-365zM379 643h414l-199 561h-2zM510 1565l326 348q21 6 38 6q51 0 85 -38.5t34 -86.5q0 -11 -10 -51l-4 -6l-455 -193z" />
<glyph unicode="&#xc2;" horiz-adv-x="1458" d="M-35 0v29l160 71l446 1155l-34 105l174 47l114 90h13l520 -1464l131 -4v-29h-645v29l164 4l-201 567h-445l-190 -500l158 -71v-29h-365zM358 1589l269 307q34 43 75 43q47 0 84 -43l258 -307l-14 -20l-328 166l-329 -166zM379 643h414l-199 561h-2z" />
<glyph unicode="&#xc3;" horiz-adv-x="1458" d="M-35 0v29l160 71l446 1155l-34 105l174 47l114 90h13l520 -1464l131 -4v-29h-645v29l164 4l-201 567h-445l-190 -500l158 -71v-29h-365zM319 1565q14 55 40 98.5t53 67.5t57.5 39.5t51.5 20.5t36 5q58 0 176 -22.5t166 -22.5q26 0 44 2t42.5 8.5t44.5 22.5t35 41l16 -4 q-6 -80 -70.5 -157t-142.5 -77q-59 0 -184.5 22.5t-183.5 22.5q-119 0 -160 -73zM379 643h414l-199 561h-2z" />
<glyph unicode="&#xc4;" horiz-adv-x="1458" d="M-35 0v29l160 71l446 1155l-34 105l174 47l114 90h13l520 -1464l131 -4v-29h-645v29l164 4l-201 567h-445l-190 -500l158 -71v-29h-365zM369 1714q0 56 39.5 95.5t95.5 39.5q58 0 97.5 -39.5t39.5 -95.5q0 -57 -39.5 -96t-97.5 -39q-56 0 -95.5 39t-39.5 96zM379 643h414 l-199 561h-2zM782 1714q0 56 39.5 95.5t96.5 39.5t97 -39.5t40 -95.5q0 -57 -40 -96t-97 -39t-96.5 39t-39.5 96z" />
<glyph unicode="&#xc5;" horiz-adv-x="1458" d="M-35 0v29l160 71l446 1155l-34 105l174 47l114 90h13l520 -1464l131 -4v-29h-645v29l164 4l-201 567h-445l-190 -500l158 -71v-29h-365zM379 643h414l-199 561h-2zM539 1673q0 68 42 114t111 46t113.5 -41.5t44.5 -105.5q0 -71 -44 -117.5t-114 -46.5q-71 0 -112 42 t-41 109zM580 1677q0 -54 30.5 -88.5t81.5 -34.5q56 0 86.5 33.5t30.5 87.5t-32 89.5t-87 35.5q-51 0 -80.5 -35t-29.5 -88z" />
<glyph unicode="&#xc6;" horiz-adv-x="2058" d="M-31 0v29l166 61l658 1335l-226 5v28h1141l186 4v-10l-22 -78l41 -340l-19 -4l-295 326q-47 47 -82 59t-108 12h-211v-653h82q63 0 115.5 19.5t86 46.5t63 72t44 76.5t33.5 80.5h23q-25 -213 -27 -315q0 -122 27 -326h-23q-53 143 -139.5 228t-202.5 85h-82v-708h279 q48 0 73.5 13.5t57.5 45.5q68 66 350 391l20 -4l-61 -323l-6 -125l12 -19l-2 -12h-1243v29l186 4v690h-372l-306 -633l168 -61v-29h-385zM508 756h356v669h-28z" />
<glyph unicode="&#xc7;" horiz-adv-x="1406" d="M59 727q0 226 98.5 397t268 260t383.5 89q223 0 397 -62l82 37l10 -2l23 -449l-21 -2q-134 192 -218 282q-151 161 -261 161q-89 0 -157.5 -34t-114 -94.5t-74.5 -149t-41 -190.5t-12 -227q0 -119 14.5 -219.5t47.5 -189.5t84.5 -151t129 -98t176.5 -36q77 0 146 26 t128 78t101 137.5t60 196.5l32 -4q-17 -129 -64 -226t-119 -156t-161.5 -88t-197.5 -29h-17l-16 -58q60 -4 110.5 -15t97 -32t73 -57.5t26.5 -85.5q0 -96 -90.5 -150.5t-208.5 -54.5q-79 0 -120.5 30.5t-41.5 71.5q0 33 21 55.5t55 22.5t52 -17t18 -42q0 -15 -13.5 -36 t-13.5 -26q0 -30 57 -30q56 0 93 27.5t37 76.5q0 43 -58.5 76.5t-171.5 46.5l57 199q-314 15 -500 215.5t-186 525.5z" />
<glyph unicode="&#xc8;" horiz-adv-x="1406" d="M39 0v29l172 4v1392l-172 5v28h1036l160 4v-10l27 -418l-19 -4l-295 326q-47 47 -82 59t-108 12h-211v-653h82q63 0 115.5 19.5t86 46.5t63 72t44 76.5t33.5 80.5h22q-24 -204 -26 -315q0 -129 26 -326h-22q-53 143 -139.5 228t-202.5 85h-82v-708h278q48 0 73.5 13.5 t57.5 45.5l351 391l20 -4l-70 -479h-1218zM367 1821q0 48 33 86.5t83 38.5q15 0 39 -7l328 -346l-14 -22l-455 192l-4 6q-10 40 -10 52z" />
<glyph unicode="&#xc9;" horiz-adv-x="1406" d="M39 0v29l172 4v1392l-172 5v28h1036l160 4v-10l27 -418l-19 -4l-295 326q-47 47 -82 59t-108 12h-211v-653h82q63 0 115.5 19.5t86 46.5t63 72t44 76.5t33.5 80.5h22q-24 -204 -26 -315q0 -129 26 -326h-22q-53 143 -139.5 228t-202.5 85h-82v-708h278q48 0 73.5 13.5 t57.5 45.5l351 391l20 -4l-70 -479h-1218zM602 1593l326 349q21 6 39 6q50 0 84 -38.5t34 -86.5q0 -11 -10 -51l-4 -7l-455 -192z" />
<glyph unicode="&#xca;" horiz-adv-x="1406" d="M39 0v29l172 4v1392l-172 5v28h1036l160 4v-10l27 -418l-19 -4l-295 326q-47 47 -82 59t-108 12h-211v-653h82q63 0 115.5 19.5t86 46.5t63 72t44 76.5t33.5 80.5h22q-24 -204 -26 -315q0 -129 26 -326h-22q-53 143 -139.5 228t-202.5 85h-82v-708h278q48 0 73.5 13.5 t57.5 45.5l351 391l20 -4l-70 -479h-1218zM391 1589l268 307q34 43 76 43q47 0 84 -43l258 -307l-14 -20l-328 166l-329 -166z" />
<glyph unicode="&#xcb;" horiz-adv-x="1406" d="M39 0v29l172 4v1392l-172 5v28h1036l160 4v-10l27 -418l-19 -4l-295 326q-47 47 -82 59t-108 12h-211v-653h82q63 0 115.5 19.5t86 46.5t63 72t44 76.5t33.5 80.5h22q-24 -204 -26 -315q0 -129 26 -326h-22q-53 143 -139.5 228t-202.5 85h-82v-708h278q48 0 73.5 13.5 t57.5 45.5l351 391l20 -4l-70 -479h-1218zM395 1714q0 56 39.5 95.5t95.5 39.5q58 0 98 -39.5t40 -95.5q0 -57 -40 -96t-98 -39q-56 0 -95.5 39t-39.5 96zM809 1714q0 56 39 95.5t96 39.5t97 -39.5t40 -95.5q0 -57 -40 -96t-97 -39t-96 39t-39 96z" />
<glyph unicode="&#xcc;" horiz-adv-x="755" d="M25 1821q0 48 33 86.5t83 38.5q15 0 39 -7l328 -346l-14 -22l-455 192l-4 6q-10 40 -10 52zM39 0v29l172 4v1392l-172 5v28h676v-28l-168 -5v-1392l170 -4v-29h-678z" />
<glyph unicode="&#xcd;" horiz-adv-x="755" d="M39 0v29l172 4v1392l-172 5v28h676v-28l-168 -5v-1392l170 -4v-29h-678zM213 1593l326 349q21 6 39 6q50 0 84 -38.5t34 -86.5q0 -11 -10 -51l-4 -7l-455 -192z" />
<glyph unicode="&#xce;" horiz-adv-x="755" d="M35 1589l268 307q34 43 76 43q47 0 84 -43l258 -307l-14 -20l-328 166l-330 -166zM39 0v29l172 4v1392l-172 5v28h676v-28l-168 -5v-1392l170 -4v-29h-678z" />
<glyph unicode="&#xcf;" horiz-adv-x="755" d="M39 0v29l172 4v1392l-172 5v28h676v-28l-168 -5v-1392l170 -4v-29h-678zM39 1714q0 56 39.5 95.5t95.5 39.5q58 0 97.5 -39.5t39.5 -95.5q0 -57 -39.5 -96t-97.5 -39q-56 0 -95.5 39t-39.5 96zM453 1714q0 56 39 95.5t96 39.5t97 -39.5t40 -95.5q0 -57 -40 -96t-97 -39 t-96 39t-39 96z" />
<glyph unicode="&#xd0;" horiz-adv-x="1599" d="M39 0v29l172 4v710h-150v43h150v639l-172 5v28h416q46 0 126.5 1t137.5 1q152 0 246 -20q282 -53 428.5 -235.5t146.5 -467.5q0 -217 -128.5 -408t-336.5 -272q-65 -25 -173 -43t-185 -18q-35 0 -176 2t-187 2h-315zM547 29h125q108 0 194 36.5t143 99.5t94.5 152.5 t54 190t16.5 217.5q0 109 -15.5 207t-53 190.5t-94 159.5t-145 107.5t-200.5 40.5q-84 0 -119 -3v-641h342v-43h-342v-714z" />
<glyph unicode="&#xd1;" horiz-adv-x="1400" d="M10 1430v28h486l680 -938h2v834l-166 76v28h366v-28l-159 -76v-908l2 -452h-60l-921 1280v-1168l166 -81v-25h-371v25l164 81v1207l-82 98zM362 1565q14 55 40 98.5t53 67.5t57.5 39.5t51.5 20.5t36 5q58 0 176 -22.5t166 -22.5q26 0 44 2t42.5 8.5t44.5 22.5t35 41 l16 -4q-6 -80 -70.5 -157t-142.5 -77q-59 0 -184 22.5t-184 22.5q-119 0 -160 -73z" />
<glyph unicode="&#xd2;" horiz-adv-x="1576" d="M59 723q0 150 54 286.5t148.5 240t233 164.5t298.5 61q163 0 300.5 -57.5t230 -156.5t143.5 -232t51 -284q0 -148 -53.5 -286t-147 -243.5t-230.5 -168.5t-294 -63q-223 0 -391 96.5t-255.5 263.5t-87.5 379zM418 1821q0 48 33.5 86.5t83.5 38.5q13 0 38 -7l328 -346 l-14 -22l-455 192l-4 6q-10 40 -10 52zM430 719q0 -146 18.5 -266t59 -220.5t113 -156.5t172.5 -56q79 0 141.5 37t102.5 99.5t66 153t37 191t11 218.5q0 142 -18.5 264.5t-58 229t-111.5 168t-170 61.5q-363 0 -363 -723z" />
<glyph unicode="&#xd3;" horiz-adv-x="1576" d="M59 723q0 150 54 286.5t148.5 240t233 164.5t298.5 61q163 0 300.5 -57.5t230 -156.5t143.5 -232t51 -284q0 -148 -53.5 -286t-147 -243.5t-230.5 -168.5t-294 -63q-223 0 -391 96.5t-255.5 263.5t-87.5 379zM430 719q0 -146 18.5 -266t59 -220.5t113 -156.5t172.5 -56 q79 0 141.5 37t102.5 99.5t66 153t37 191t11 218.5q0 142 -18.5 264.5t-58 229t-111.5 168t-170 61.5q-363 0 -363 -723zM678 1593l326 349q21 6 38 6q51 0 85 -38.5t34 -86.5q0 -11 -10 -51l-4 -7l-455 -192z" />
<glyph unicode="&#xd4;" horiz-adv-x="1576" d="M59 723q0 150 54 286.5t148.5 240t233 164.5t298.5 61q163 0 300.5 -57.5t230 -156.5t143.5 -232t51 -284q0 -148 -53.5 -286t-147 -243.5t-230.5 -168.5t-294 -63q-223 0 -391 96.5t-255.5 263.5t-87.5 379zM430 719q0 -146 18.5 -266t59 -220.5t113 -156.5t172.5 -56 q79 0 141.5 37t102.5 99.5t66 153t37 191t11 218.5q0 142 -18.5 264.5t-58 229t-111.5 168t-170 61.5q-363 0 -363 -723zM444 1589l269 307q34 43 75 43q47 0 84 -43l258 -307l-14 -20l-328 166l-329 -166z" />
<glyph unicode="&#xd5;" horiz-adv-x="1576" d="M59 723q0 150 54 286.5t148.5 240t233 164.5t298.5 61q163 0 300.5 -57.5t230 -156.5t143.5 -232t51 -284q0 -148 -53.5 -286t-147 -243.5t-230.5 -168.5t-294 -63q-223 0 -391 96.5t-255.5 263.5t-87.5 379zM406 1565q14 55 39.5 98.5t53 67.5t57.5 39.5t51 20.5t36 5 q58 0 176 -22.5t166 -22.5q26 0 44 2t42.5 8.5t44.5 22.5t35 41l16 -4q-6 -80 -70.5 -157t-142.5 -77q-58 0 -184 22.5t-184 22.5q-119 0 -160 -73zM430 719q0 -146 18.5 -266t59 -220.5t113 -156.5t172.5 -56q79 0 141.5 37t102.5 99.5t66 153t37 191t11 218.5 q0 142 -18.5 264.5t-58 229t-111.5 168t-170 61.5q-363 0 -363 -723z" />
<glyph unicode="&#xd6;" horiz-adv-x="1576" d="M59 723q0 150 54 286.5t148.5 240t233 164.5t298.5 61q163 0 300.5 -57.5t230 -156.5t143.5 -232t51 -284q0 -148 -53.5 -286t-147 -243.5t-230.5 -168.5t-294 -63q-223 0 -391 96.5t-255.5 263.5t-87.5 379zM430 719q0 -146 18.5 -266t59 -220.5t113 -156.5t172.5 -56 q79 0 141.5 37t102.5 99.5t66 153t37 191t11 218.5q0 142 -18.5 264.5t-58 229t-111.5 168t-170 61.5q-363 0 -363 -723zM451 1714q0 56 39.5 95.5t95.5 39.5q58 0 97.5 -39.5t39.5 -95.5q0 -57 -39.5 -96t-97.5 -39q-56 0 -95.5 39t-39.5 96zM864 1714q0 56 39 95.5 t96 39.5t97.5 -39.5t40.5 -95.5q0 -57 -40.5 -96t-97.5 -39t-96 39t-39 96z" />
<glyph unicode="&#xd7;" d="M133 928l47 49l395 -397l392 395l45 -47l-391 -393l393 -394l-47 -47l-392 393l-393 -391l-47 45l393 391z" />
<glyph unicode="&#xd8;" horiz-adv-x="1576" d="M59 723q0 150 54 286.5t148.5 240t233 164.5t298.5 61q109 0 219 -29l47 135l51 -12l-47 -139q212 -76 333.5 -262t121.5 -423q0 -148 -53.5 -286t-147 -243.5t-230.5 -168.5t-294 -63q-112 0 -211 24l-52 -149l-53 12l51 152q-220 73 -344.5 260t-124.5 440zM430 719 q0 -417 135 -588l418 1229q-82 82 -190 82q-363 0 -363 -723zM608 86q79 -66 185 -66q79 0 141.5 37t102.5 99.5t66 153t37 191t11 218.5q0 404 -129 592z" />
<glyph unicode="&#xd9;" horiz-adv-x="1507" d="M31 1432v26h676v-26l-168 -5v-907q0 -457 344 -457q82 0 149 25t113 68.5t77.5 102.5t45.5 125.5t14 139.5v830l-164 78v26h365v-26l-160 -78v-848q0 -84 -16.5 -157.5t-56 -141.5t-99.5 -116.5t-153.5 -77.5t-211.5 -29q-134 0 -235.5 27t-167 75t-106.5 121 t-57.5 156.5t-16.5 189.5v874zM436 1821q0 48 33.5 86.5t83.5 38.5q15 0 39 -7l328 -346l-15 -22l-454 192l-5 6q-10 40 -10 52z" />
<glyph unicode="&#xda;" horiz-adv-x="1507" d="M31 1432v26h676v-26l-168 -5v-907q0 -457 344 -457q82 0 149 25t113 68.5t77.5 102.5t45.5 125.5t14 139.5v830l-164 78v26h365v-26l-160 -78v-848q0 -84 -16.5 -157.5t-56 -141.5t-99.5 -116.5t-153.5 -77.5t-211.5 -29q-134 0 -235.5 27t-167 75t-106.5 121 t-57.5 156.5t-16.5 189.5v874zM670 1593l325 349q21 6 39 6q51 0 85 -38.5t34 -86.5q0 -11 -10 -51l-4 -7l-455 -192z" />
<glyph unicode="&#xdb;" horiz-adv-x="1507" d="M31 1432v26h676v-26l-168 -5v-907q0 -457 344 -457q82 0 149 25t113 68.5t77.5 102.5t45.5 125.5t14 139.5v830l-164 78v26h365v-26l-160 -78v-848q0 -84 -16.5 -157.5t-56 -141.5t-99.5 -116.5t-153.5 -77.5t-211.5 -29q-134 0 -235.5 27t-167 75t-106.5 121 t-57.5 156.5t-16.5 189.5v874zM496 1589l268 307q34 43 76 43q47 0 84 -43l258 -307l-15 -20l-327 166l-330 -166z" />
<glyph unicode="&#xdc;" horiz-adv-x="1507" d="M31 1432v26h676v-26l-168 -5v-907q0 -457 344 -457q82 0 149 25t113 68.5t77.5 102.5t45.5 125.5t14 139.5v830l-164 78v26h365v-26l-160 -78v-848q0 -84 -16.5 -157.5t-56 -141.5t-99.5 -116.5t-153.5 -77.5t-211.5 -29q-134 0 -235.5 27t-167 75t-106.5 121 t-57.5 156.5t-16.5 189.5v874zM537 1714q0 56 39.5 95.5t95.5 39.5q58 0 97.5 -39.5t39.5 -95.5q0 -57 -39.5 -96t-97.5 -39q-56 0 -95.5 39t-39.5 96zM950 1714q0 56 39 95.5t96 39.5t97.5 -39.5t40.5 -95.5q0 -57 -40.5 -96t-97.5 -39t-96 39t-39 96z" />
<glyph unicode="&#xdd;" horiz-adv-x="1331" d="M-35 1430v28h676v-28l-168 -5l350 -667l326 602l-158 70v28h369v-28l-164 -70l-356 -660v-667l182 -4v-29h-700v29l180 4v657l-402 735zM700 1565l326 348q21 6 39 6q51 0 85 -38.5t34 -86.5q0 -11 -10 -51l-5 -6l-454 -193z" />
<glyph unicode="&#xde;" horiz-adv-x="1347" d="M39 0v29l172 4v1392l-172 5v28h676v-28l-168 -5v-229h205q82 0 155 -11t144.5 -40.5t123 -75t83.5 -120t32 -169.5q0 -126 -66 -227.5t-173.5 -156t-233.5 -54.5h-2l-268 51v-360l180 -4v-29h-688zM547 414q86 -8 135 -8q63 0 117 26q54 29 89.5 88.5t49.5 124.5t14 135 q0 177 -74 278t-227 101q-5 0 -47 -1t-57 -1v-743z" />
<glyph unicode="&#xdf;" horiz-adv-x="1366" d="M37 879v39l121 40v48q0 104 41.5 199.5t115.5 169.5t186 118.5t244 44.5q121 0 209 -22t135.5 -60.5t69 -84.5t21.5 -101q0 -58 -22.5 -105.5t-64.5 -81t-88 -56.5t-106 -42q-70 -28 -116 -70.5t-46 -95.5q0 -50 50 -84t153 -71l158 -52q89 -30 155 -98.5t66 -175.5 t-59 -189t-148.5 -122.5t-191.5 -40.5q-165 0 -299 51l-31 2v8l14 76l-31 225l19 6l254 -325q38 -9 74 -9q60 0 101.5 29.5t58 70t16.5 85.5q0 75 -46.5 117t-127.5 65l-78 25q-142 46 -197 111t-55 151q0 32 9 62.5t18.5 51t34 51t37 43.5t46.5 48l29.5 29.5t31.5 32.5 t27.5 31.5t28.5 36t22 36.5t19.5 43t10.5 44.5t5 51.5q0 134 -58 199t-155 65q-128 0 -197 -74.5t-69 -250.5v-1143l119 -2v-29h-504v31h111v843z" />
<glyph unicode="&#xe0;" horiz-adv-x="1021" d="M70 209q0 77 41.5 139.5t115 105.5t156.5 71.5t182 47.5v166q0 98 -36 148.5t-134 50.5q-55 0 -95 -25t-40 -53q0 -14 13 -28.5t29 -27t29 -37t13 -54.5q0 -52 -33.5 -87.5t-89.5 -35.5q-66 0 -97.5 35.5t-31.5 89.5q0 112 127 194t334 82q142 0 218 -58.5t73 -178.5 l-6 -490q0 -88 69 -88q62 0 80 78h19q-2 -51 -14.5 -95t-37.5 -83t-69.5 -61.5t-104.5 -22.5q-72 0 -129 46.5t-76 135.5q-34 -93 -105 -140.5t-163 -47.5q-98 0 -167.5 60.5t-69.5 162.5zM199 1354q0 43 33 78.5t79 35.5q26 0 47 -8l258 -344l-16 -16l-393 213l-2 6 q-6 18 -6 35zM334 283q0 -65 31.5 -107.5t89.5 -42.5q47 0 78.5 33t31.5 84v291q-106 -20 -168.5 -89.5t-62.5 -168.5z" />
<glyph unicode="&#xe1;" horiz-adv-x="1021" d="M70 209q0 77 41.5 139.5t115 105.5t156.5 71.5t182 47.5v166q0 98 -36 148.5t-134 50.5q-55 0 -95 -25t-40 -53q0 -14 13 -28.5t29 -27t29 -37t13 -54.5q0 -52 -33.5 -87.5t-89.5 -35.5q-66 0 -97.5 35.5t-31.5 89.5q0 112 127 194t334 82q142 0 218 -58.5t73 -178.5 l-6 -490q0 -88 69 -88q62 0 80 78h19q-2 -51 -14.5 -95t-37.5 -83t-69.5 -61.5t-104.5 -22.5q-72 0 -129 46.5t-76 135.5q-34 -93 -105 -140.5t-163 -47.5q-98 0 -167.5 60.5t-69.5 162.5zM328 1114l252 348q21 8 49 8q45 0 78.5 -35t33.5 -79q0 -17 -6 -35l-2 -6l-391 -215 zM334 283q0 -65 31.5 -107.5t89.5 -42.5q47 0 78.5 33t31.5 84v291q-106 -20 -168.5 -89.5t-62.5 -168.5z" />
<glyph unicode="&#xe2;" horiz-adv-x="1021" d="M70 209q0 77 41.5 139.5t115 105.5t156.5 71.5t182 47.5v166q0 98 -36 148.5t-134 50.5q-55 0 -95 -25t-40 -53q0 -14 13 -28.5t29 -27t29 -37t13 -54.5q0 -52 -33.5 -87.5t-89.5 -35.5q-66 0 -97.5 35.5t-31.5 89.5q0 112 127 194t334 82q142 0 218 -58.5t73 -178.5 l-6 -490q0 -88 69 -88q62 0 80 78h19q-2 -51 -14.5 -95t-37.5 -83t-69.5 -61.5t-104.5 -22.5q-72 0 -129 46.5t-76 135.5q-34 -93 -105 -140.5t-163 -47.5q-98 0 -167.5 60.5t-69.5 162.5zM150 1110l223 289q49 61 96 61q53 0 98 -59l211 -291l-12 -14l-301 178l-301 -178z M334 283q0 -65 31.5 -107.5t89.5 -42.5q47 0 78.5 33t31.5 84v291q-106 -20 -168.5 -89.5t-62.5 -168.5z" />
<glyph unicode="&#xe3;" horiz-adv-x="1021" d="M72 209q0 77 41.5 139.5t115 105.5t156.5 71.5t182 47.5v166q0 98 -36 148.5t-134 50.5q-55 0 -95 -25t-40 -53q0 -14 13 -28.5t29 -27t29 -37t13 -54.5q0 -52 -33.5 -87.5t-89.5 -35.5q-66 0 -97.5 35.5t-31.5 89.5q0 112 127 194t334 82q142 0 218 -58.5t73 -178.5 l-6 -490q0 -88 69 -88q62 0 80 78h19q-2 -51 -14.5 -95t-37.5 -83t-69.5 -61.5t-104.5 -22.5q-72 0 -128.5 46.5t-75.5 135.5q-34 -93 -105.5 -140.5t-163.5 -47.5q-98 0 -167.5 60.5t-69.5 162.5zM109 1094q13 61 38.5 107.5t52 70.5t58 39t51.5 18.5t37 3.5 q60 0 170.5 -19.5t159.5 -19.5q25 0 36 0.5t34 3.5t36.5 10t30.5 21t29 35l16 -4q-8 -94 -69.5 -165t-145.5 -71q-59 0 -177 19.5t-179 19.5q-118 0 -162 -76zM336 283q0 -65 31.5 -107.5t89.5 -42.5q47 0 78.5 33t31.5 84v291q-106 -20 -168.5 -89.5t-62.5 -168.5z" />
<glyph unicode="&#xe4;" horiz-adv-x="1021" d="M70 209q0 77 41.5 139.5t115 105.5t156.5 71.5t182 47.5v166q0 98 -36 148.5t-134 50.5q-55 0 -95 -25t-40 -53q0 -14 13 -28.5t29 -27t29 -37t13 -54.5q0 -52 -33.5 -87.5t-89.5 -35.5q-66 0 -97.5 35.5t-31.5 89.5q0 112 127 194t334 82q142 0 218 -58.5t73 -178.5 l-6 -490q0 -88 69 -88q62 0 80 78h19q-2 -51 -14.5 -95t-37.5 -83t-69.5 -61.5t-104.5 -22.5q-72 0 -129 46.5t-76 135.5q-34 -93 -105 -140.5t-163 -47.5q-98 0 -167.5 60.5t-69.5 162.5zM125 1268q0 58 41 99.5t98 41.5t98 -41.5t41 -99.5t-41 -100t-98 -42t-98 42 t-41 100zM334 283q0 -65 31.5 -107.5t89.5 -42.5q47 0 78.5 33t31.5 84v291q-106 -20 -168.5 -89.5t-62.5 -168.5zM520 1268q0 59 40.5 100t98.5 41q57 0 98.5 -41.5t41.5 -99.5t-41.5 -100t-98.5 -42q-58 0 -98.5 41.5t-40.5 100.5z" />
<glyph unicode="&#xe5;" horiz-adv-x="1021" d="M70 209q0 77 41.5 139.5t115 105.5t156.5 71.5t182 47.5v166q0 98 -36 148.5t-134 50.5q-55 0 -95 -25t-40 -53q0 -14 13 -28.5t29 -27t29 -37t13 -54.5q0 -52 -33.5 -87.5t-89.5 -35.5q-66 0 -97.5 35.5t-31.5 89.5q0 112 127 194t334 82q142 0 218 -58.5t73 -178.5 l-6 -490q0 -88 69 -88q62 0 80 78h19q-2 -51 -14.5 -95t-37.5 -83t-69.5 -61.5t-104.5 -22.5q-72 0 -129 46.5t-76 135.5q-34 -93 -105 -140.5t-163 -47.5q-98 0 -167.5 60.5t-69.5 162.5zM319 1241q0 68 42.5 114t111.5 46t113.5 -41.5t44.5 -106.5q0 -71 -44 -117 t-114 -46q-71 0 -112.5 42t-41.5 109zM334 283q0 -65 31.5 -107.5t89.5 -42.5q47 0 78.5 33t31.5 84v291q-106 -20 -168.5 -89.5t-62.5 -168.5zM360 1245q0 -54 30.5 -88.5t82.5 -34.5q56 0 86.5 33.5t30.5 87.5t-32 89.5t-87 35.5q-51 0 -81 -35t-30 -88z" />
<glyph unicode="&#xe6;" horiz-adv-x="1499" d="M63 201q0 62 31 118t81.5 97.5t118 76t136.5 56t141 35.5v131q0 225 -186 225q-54 0 -89.5 -22.5t-35.5 -51.5q0 -13 13 -27.5t29 -26.5t29 -36t13 -55q0 -52 -37.5 -88.5t-95.5 -36.5q-60 0 -96.5 39t-36.5 92q0 111 115 187.5t299 76.5q104 0 183.5 -24t115.5 -70 q131 90 286 90q168 0 273.5 -92t105.5 -242v-28h-616q-2 -12 -2 -56q0 -48 6.5 -92t27.5 -95t55 -87.5t95.5 -61t142.5 -24.5q96 0 169 32.5t112 73.5l10 -8q-24 -153 -137.5 -238t-276.5 -85q-143 0 -264.5 66t-169.5 181q-21 -84 -76 -141.5t-116 -80.5t-123 -23 q-100 0 -165 56.5t-65 158.5zM340 279q0 -63 34 -102.5t91 -39.5q44 0 78.5 35.5t40.5 83.5q-13 60 -13 293q-105 -22 -168 -96t-63 -174zM844 657h342v43q0 107 -37.5 178.5t-116.5 71.5q-90 0 -136 -79.5t-52 -213.5z" />
<glyph unicode="&#xe7;" horiz-adv-x="933" d="M47 453q0 240 143.5 387t368.5 147q86 0 151.5 -20.5t101 -53.5t52.5 -68t17 -69q0 -65 -40 -113.5t-108 -48.5q-57 0 -95 32t-38 85q0 38 15.5 66.5t31 50.5t15.5 43q0 23 -27.5 42t-79.5 19q-65 0 -113 -30t-76 -84t-41.5 -120.5t-13.5 -146.5q0 -71 19 -134.5t56 -115 t100.5 -82t144.5 -30.5q84 0 153 28.5t113 77.5l10 -8q-9 -53 -37.5 -107t-76 -104t-122 -81t-163.5 -31h-2l-17 -58q60 -4 111 -15t97.5 -32t73 -57.5t26.5 -85.5q0 -96 -90.5 -150.5t-208.5 -54.5q-79 0 -120.5 30.5t-41.5 71.5q0 33 21 55.5t55 22.5q33 0 51 -17t18 -42 q0 -15 -13 -36t-13 -26q0 -30 57 -30q56 0 92.5 27.5t36.5 76.5q0 43 -58 76.5t-171 46.5l57 199q-199 12 -310.5 144.5t-111.5 322.5z" />
<glyph unicode="&#xe8;" horiz-adv-x="974" d="M47 457q0 229 144.5 379.5t361.5 150.5q168 0 273.5 -92t105.5 -242v-28h-617q-2 -20 -2 -56q0 -48 6.5 -92t28 -95t55.5 -87.5t95.5 -61t142.5 -24.5q96 0 169 32.5t112 73.5l10 -8q-24 -153 -137.5 -238t-276.5 -85q-216 0 -343.5 133.5t-127.5 339.5zM215 1354 q0 43 33.5 78.5t79.5 35.5q26 0 47 -8l258 -344l-17 -16l-393 213l-2 6q-6 18 -6 35zM319 657h343v43q0 107 -37.5 178.5t-116.5 71.5q-90 0 -136.5 -79.5t-52.5 -213.5z" />
<glyph unicode="&#xe9;" horiz-adv-x="974" d="M47 457q0 229 144.5 379.5t361.5 150.5q168 0 273.5 -92t105.5 -242v-28h-617q-2 -20 -2 -56q0 -48 6.5 -92t28 -95t55.5 -87.5t95.5 -61t142.5 -24.5q96 0 169 32.5t112 73.5l10 -8q-24 -153 -137.5 -238t-276.5 -85q-216 0 -343.5 133.5t-127.5 339.5zM319 657h343v43 q0 107 -37.5 178.5t-116.5 71.5q-90 0 -136.5 -79.5t-52.5 -213.5zM379 1114l252 348q21 8 49 8q45 0 79 -35t34 -79q0 -14 -7 -35l-2 -6l-391 -215z" />
<glyph unicode="&#xea;" horiz-adv-x="974" d="M47 457q0 229 144.5 379.5t361.5 150.5q168 0 273.5 -92t105.5 -242v-28h-617q-2 -20 -2 -56q0 -48 6.5 -92t28 -95t55.5 -87.5t95.5 -61t142.5 -24.5q96 0 169 32.5t112 73.5l10 -8q-24 -153 -137.5 -238t-276.5 -85q-216 0 -343.5 133.5t-127.5 339.5zM217 1110 l223 289q49 61 97 61q53 0 98 -59l211 -291l-12 -14l-302 178l-301 -178zM319 657h343v43q0 107 -37.5 178.5t-116.5 71.5q-90 0 -136.5 -79.5t-52.5 -213.5z" />
<glyph unicode="&#xeb;" horiz-adv-x="974" d="M47 457q0 229 144.5 379.5t361.5 150.5q168 0 273.5 -92t105.5 -242v-28h-617q-2 -20 -2 -56q0 -48 6.5 -92t28 -95t55.5 -87.5t95.5 -61t142.5 -24.5q96 0 169 32.5t112 73.5l10 -8q-24 -153 -137.5 -238t-276.5 -85q-216 0 -343.5 133.5t-127.5 339.5zM201 1268 q0 58 41 99.5t98 41.5t98 -41.5t41 -99.5t-41 -100t-98 -42t-98 42t-41 100zM319 657h343v43q0 107 -37.5 178.5t-116.5 71.5q-90 0 -136.5 -79.5t-52.5 -213.5zM596 1268q0 59 40.5 100t98.5 41q57 0 98 -41.5t41 -99.5t-41 -100t-98 -42q-58 0 -98.5 41.5t-40.5 100.5z " />
<glyph unicode="&#xec;" horiz-adv-x="577" d="M0 1331q0 43 33.5 79t79.5 36q26 0 47 -8l258 -344l-17 -17l-393 213l-2 6q-6 18 -6 35zM49 0v29l107 2v848l-99 26v25l367 55h12l-4 -291v-663l107 -2v-29h-490z" />
<glyph unicode="&#xed;" horiz-adv-x="577" d="M49 0v29l107 2v848l-99 26v25l367 55h12l-4 -291v-663l107 -2v-29h-490zM123 1092l252 348q21 8 49 8q45 0 79 -35.5t34 -79.5q0 -14 -7 -35l-2 -6l-391 -215z" />
<glyph unicode="&#xee;" horiz-adv-x="577" d="M-29 1098l224 288q50 62 96 62q53 0 98 -59l211 -291l-12 -15l-301 179l-301 -179zM49 0v29l107 2v848l-99 26v25l367 55h12l-4 -291v-663l107 -2v-29h-490z" />
<glyph unicode="&#xef;" horiz-adv-x="577" d="M-51 1245q0 58 41 99.5t98 41.5t98 -41.5t41 -99.5t-41 -99.5t-98 -41.5t-98 41.5t-41 99.5zM49 0v29l107 2v848l-99 26v25l367 55h12l-4 -291v-663l107 -2v-29h-490zM344 1245q0 59 40.5 100t98.5 41q57 0 98.5 -41.5t41.5 -99.5t-41.5 -99.5t-98.5 -41.5 q-58 0 -98.5 41t-40.5 100z" />
<glyph unicode="&#xf0;" horiz-adv-x="1107" d="M47 436q0 116 47 214.5t140.5 160t216.5 61.5q171 0 280 -84q-52 209 -184 379l-397 -170l-23 41l389 166q-134 154 -291 223l11 25q262 -15 471 -168l211 90l20 -41l-190 -82q148 -121 230.5 -295t82.5 -370q0 -99 -20 -188t-62.5 -165t-103 -131t-145.5 -86.5 t-187 -31.5q-228 0 -362 126.5t-134 325.5zM340 393q0 -151 60 -264t149 -113q59 0 103 52.5t66 135t32 163.5t10 159q0 100 -21 226q-77 26 -147 26q-119 0 -185.5 -105t-66.5 -280z" />
<glyph unicode="&#xf1;" horiz-adv-x="1191" d="M49 0v29l107 2v848l-99 26v25l361 55h10l2 -164q72 72 162 121t172 49q137 0 210 -71.5t73 -200.5v-688l106 -2v-29h-489v29l106 2v624q0 86 -42.5 143.5t-133.5 57.5q-85 0 -162 -68v-757l107 -2v-29h-490zM236 1094q13 61 38.5 107.5t52 70.5t58 39t51.5 18.5t37 3.5 q60 0 170.5 -19.5t159.5 -19.5q25 0 36 0.5t34 3.5t36.5 10t30.5 21t29 35l16 -4q-8 -94 -69.5 -165t-145.5 -71q-59 0 -177 19.5t-179 19.5q-118 0 -162 -76z" />
<glyph unicode="&#xf2;" horiz-adv-x="1118" d="M47 477q0 100 38.5 193.5t105.5 163t163 111.5t205 42q221 0 366.5 -132t145.5 -349q0 -223 -147.5 -372.5t-364.5 -149.5q-223 0 -367.5 139t-144.5 354zM229 1354q0 43 33.5 78.5t79.5 35.5q26 0 47 -8l258 -344l-16 -16l-393 213l-2 6q-7 21 -7 35zM352 492 q0 -224 56 -350t151 -126q99 0 153 125t54 351q0 223 -52 342.5t-153 119.5q-209 0 -209 -462z" />
<glyph unicode="&#xf3;" horiz-adv-x="1118" d="M47 477q0 100 38.5 193.5t105.5 163t163 111.5t205 42q221 0 366.5 -132t145.5 -349q0 -223 -147.5 -372.5t-364.5 -149.5q-223 0 -367.5 139t-144.5 354zM352 492q0 -224 56 -350t151 -126q99 0 153 125t54 351q0 223 -52 342.5t-153 119.5q-209 0 -209 -462zM399 1114 l252 348q21 8 49 8q45 0 79 -35t34 -79q0 -17 -6 -35l-2 -6l-391 -215z" />
<glyph unicode="&#xf4;" horiz-adv-x="1118" d="M47 477q0 100 38.5 193.5t105.5 163t163 111.5t205 42q221 0 366.5 -132t145.5 -349q0 -223 -147.5 -372.5t-364.5 -149.5q-223 0 -367.5 139t-144.5 354zM244 1110l223 289q49 61 96 61q54 0 99 -59l210 -291l-12 -14l-301 178l-301 -178zM352 492q0 -224 56 -350 t151 -126q99 0 153 125t54 351q0 223 -52 342.5t-153 119.5q-209 0 -209 -462z" />
<glyph unicode="&#xf5;" horiz-adv-x="1118" d="M47 477q0 100 38.5 193.5t105.5 163t163 111.5t205 42q221 0 366.5 -132t145.5 -349q0 -223 -147.5 -372.5t-364.5 -149.5q-223 0 -367.5 139t-144.5 354zM186 1094q13 61 38.5 107.5t52 70.5t58.5 39t52 18.5t37 3.5q60 0 170.5 -19.5t159.5 -19.5q25 0 36 0.5t34 3.5 t36.5 10t30.5 21t29 35l16 -4q-8 -94 -69.5 -165t-145.5 -71q-59 0 -177 19.5t-179 19.5q-118 0 -162 -76zM352 492q0 -224 56 -350t151 -126q99 0 153 125t54 351q0 223 -52 342.5t-153 119.5q-209 0 -209 -462z" />
<glyph unicode="&#xf6;" horiz-adv-x="1118" d="M47 477q0 100 38.5 193.5t105.5 163t163 111.5t205 42q221 0 366.5 -132t145.5 -349q0 -223 -147.5 -372.5t-364.5 -149.5q-223 0 -367.5 139t-144.5 354zM223 1268q0 58 41 99.5t98 41.5t98.5 -41.5t41.5 -99.5t-41.5 -100t-98.5 -42t-98 42t-41 100zM352 492 q0 -224 56 -350t151 -126q99 0 153 125t54 351q0 223 -52 342.5t-153 119.5q-209 0 -209 -462zM618 1268q0 59 41 100t99 41q57 0 98 -41.5t41 -99.5t-41 -100t-98 -42q-58 0 -99 41.5t-41 100.5z" />
<glyph unicode="&#xf7;" d="M94 502v55h959v-55h-959zM457 246q0 53 33.5 88t84.5 35q47 0 82 -35.5t35 -87.5q0 -51 -35.5 -89t-81.5 -38q-50 0 -84 37.5t-34 89.5zM457 821q0 53 33.5 88t84.5 35q47 0 82 -35.5t35 -87.5q0 -51 -35.5 -89t-81.5 -38q-50 0 -84 37.5t-34 89.5z" />
<glyph unicode="&#xf8;" horiz-adv-x="1118" d="M47 477q0 100 38.5 193.5t105.5 163t163 111.5t205 42q77 0 148 -18l43 123l36 -15l-43 -119q150 -48 239 -167t89 -285q0 -223 -147.5 -372.5t-364.5 -149.5q-66 0 -151 18l-48 -135l-38 14l47 133q-148 52 -235 175.5t-87 287.5zM352 492q0 -234 60 -357l268 758 q-46 61 -119 61q-209 0 -209 -462zM438 86q51 -70 121 -70q99 0 153 125t54 351q0 240 -59 358z" />
<glyph unicode="&#xf9;" horiz-adv-x="1181" d="M39 909v27l379 49l6 -4l-6 -291v-338q0 -227 198 -227q69 0 136 57v703l-107 24v31l383 45l6 -4l-6 -291v-604l98 -29v-20l-358 -49h-16v164q-145 -168 -330 -168q-127 0 -204 69.5t-77 206.5v625zM268 1354q0 43 33.5 78.5t79.5 35.5q26 0 47 -8l258 -344l-16 -16 l-394 213l-2 6q-6 18 -6 35z" />
<glyph unicode="&#xfa;" horiz-adv-x="1181" d="M39 909v27l379 49l6 -4l-6 -291v-338q0 -227 198 -227q69 0 136 57v703l-107 24v31l383 45l6 -4l-6 -291v-604l98 -29v-20l-358 -49h-16v164q-145 -168 -330 -168q-127 0 -204 69.5t-77 206.5v625zM473 1114l252 348q21 8 49 8q45 0 79 -35t34 -79q0 -17 -6 -35l-2 -6 l-392 -215z" />
<glyph unicode="&#xfb;" horiz-adv-x="1181" d="M39 909v27l379 49l6 -4l-6 -291v-338q0 -227 198 -227q69 0 136 57v703l-107 24v31l383 45l6 -4l-6 -291v-604l98 -29v-20l-358 -49h-16v164q-145 -168 -330 -168q-127 0 -204 69.5t-77 206.5v625zM272 1110l224 289q49 61 96 61q53 0 98 -59l211 -291l-12 -14l-301 178 l-301 -178z" />
<glyph unicode="&#xfc;" horiz-adv-x="1181" d="M39 909v27l379 49l6 -4l-6 -291v-338q0 -227 198 -227q69 0 136 57v703l-107 24v31l383 45l6 -4l-6 -291v-604l98 -29v-20l-358 -49h-16v164q-145 -168 -330 -168q-127 0 -204 69.5t-77 206.5v625zM252 1268q0 58 41 99.5t98 41.5t98 -41.5t41 -99.5t-41 -100t-98 -42 t-98 42t-41 100zM647 1268q0 59 40.5 100t98.5 41q57 0 98.5 -41.5t41.5 -99.5t-41.5 -100t-98.5 -42q-58 0 -98.5 41.5t-40.5 100.5z" />
<glyph unicode="&#xfd;" horiz-adv-x="958" d="M-35 944v29h524v-29l-122 -2l251 -604h5l208 549l-120 57v29h278v-29l-119 -57l-417 -1090q-26 -62 -45 -101.5t-45 -79.5t-52 -62t-62 -36t-79 -14q-85 0 -141 47t-56 125q0 70 41.5 116t108.5 46q65 0 101 -33.5t36 -85.5q0 -26 -10 -48.5t-22.5 -35.5t-22.5 -26 t-10 -21q0 -13 9.5 -20.5t20.5 -7.5q39 -2 74.5 31.5t59 77.5t49.5 110l77 207l-422 956zM438 1114l252 348q21 8 49 8q45 0 79 -35t34 -79q0 -17 -6 -35l-2 -6l-391 -215z" />
<glyph unicode="&#xfe;" horiz-adv-x="1148" d="M39 -455l111 2v1839l-99 50v20l205 37l166 53h10l-6 -327v-369q62 64 143 101.5t152 37.5q174 0 277.5 -126t103.5 -324q0 -241 -143 -398t-359 -157q-118 0 -174 41v-478l131 -2v-28h-518v28zM426 283q0 -139 49 -202t123 -63q93 0 157 111t64 289q0 200 -72.5 315 t-205.5 115q-53 0 -115 -27v-538z" />
<glyph unicode="&#xff;" horiz-adv-x="958" d="M-35 944v29h524v-29l-122 -2l251 -604h5l208 549l-120 57v29h278v-29l-119 -57l-417 -1090q-26 -62 -45 -101.5t-45 -79.5t-52 -62t-62 -36t-79 -14q-85 0 -141 47t-56 125q0 70 41.5 116t108.5 46q65 0 101 -33.5t36 -85.5q0 -26 -10 -48.5t-22.5 -35.5t-22.5 -26 t-10 -21q0 -13 9.5 -20.5t20.5 -7.5q39 -2 74.5 31.5t59 77.5t49.5 110l77 207l-422 956zM190 1268q0 58 41.5 99.5t98.5 41.5t98 -41.5t41 -99.5t-41 -100t-98 -42t-98.5 42t-41.5 100zM586 1268q0 59 40.5 100t98.5 41q57 0 98 -41.5t41 -99.5t-41 -100t-98 -42 q-58 0 -98.5 41.5t-40.5 100.5z" />
<glyph unicode="&#x152;" horiz-adv-x="2650" d="M59 723q0 150 54 286.5t148.5 240t233 164.5t298.5 61q245 0 416.5 -123.5t246.5 -331.5v405l-172 5v28h1036l168 4v-10l-22 -78l41 -340l-19 -4l-297 326q-45 47 -80 59t-108 12h-213v-653h82q64 0 117 19.5t86 46.5t62.5 71.5t44 77t32.5 80.5h24q-24 -204 -26 -315 q0 -129 26 -326h-24q-53 143 -139.5 228t-202.5 85h-82v-708h281q47 0 73.5 14t57.5 45q52 51 169.5 184t178.5 207l20 -4l-59 -323l-6 -125l12 -19l-4 -12h-1229v29l172 4v440q-77 -217 -251.5 -353t-411.5 -136q-223 0 -391 96.5t-255.5 263.5t-87.5 379zM430 719 q0 -146 18.5 -266t59 -220.5t113 -156.5t172.5 -56q79 0 141.5 37t102.5 99.5t66 153t37 191t11 218.5q0 142 -18.5 264.5t-58 229t-111.5 168t-170 61.5q-363 0 -363 -723z" />
<glyph unicode="&#x153;" horiz-adv-x="1740" d="M47 477q0 100 38.5 193.5t105.5 163t163 111.5t205 42q118 0 219 -41t172 -117q69 75 164 116.5t205 41.5q168 0 273.5 -92t105.5 -242v-28h-617q-2 -20 -2 -56q0 -48 6.5 -92t28 -95t55.5 -87.5t95.5 -61t142.5 -24.5q96 0 169 32.5t112 73.5l10 -8 q-24 -153 -137.5 -238t-276.5 -85q-227 0 -360 149q-146 -149 -365 -149q-223 0 -367.5 139t-144.5 354zM352 492q0 -224 56 -350t151 -126q99 0 153 125t54 351q0 223 -52 342.5t-153 119.5q-209 0 -209 -462zM1085 657h342v43q0 108 -37 179t-116 71q-90 0 -136.5 -79.5 t-52.5 -213.5z" />
<glyph unicode="&#x178;" horiz-adv-x="1331" d="M-35 1430v28h676v-28l-168 -5l350 -667l326 602l-158 70v28h369v-28l-164 -70l-356 -660v-667l182 -4v-29h-700v29l180 4v657l-402 735zM418 1714q0 56 40 95.5t95 39.5q58 0 97.5 -39.5t39.5 -95.5q0 -57 -39.5 -96t-97.5 -39q-56 0 -95.5 39t-39.5 96zM831 1714 q0 56 39.5 95.5t96.5 39.5t97 -39.5t40 -95.5q0 -57 -40 -96t-97 -39t-96.5 39t-39.5 96z" />
<glyph unicode="&#x2c6;" horiz-adv-x="827" d="M96 1098l223 288q50 62 97 62q53 0 98 -59l211 -291l-12 -15l-301 179l-301 -179z" />
<glyph unicode="&#x2dc;" horiz-adv-x="866" d="M68 1085q13 61 38 107.5t52 71t58.5 39t51.5 18.5t37 4q60 0 170.5 -19.5t159.5 -19.5q25 0 36 0.5t34 3.5t36.5 10t30.5 21t29 35l16 -4q-8 -94 -69.5 -165t-145.5 -71q-59 0 -177 19.5t-179 19.5q-118 0 -162 -76z" />
<glyph unicode="&#x2000;" horiz-adv-x="974" />
<glyph unicode="&#x2001;" horiz-adv-x="1948" />
<glyph unicode="&#x2002;" horiz-adv-x="974" />
<glyph unicode="&#x2003;" horiz-adv-x="1948" />
<glyph unicode="&#x2004;" horiz-adv-x="649" />
<glyph unicode="&#x2005;" horiz-adv-x="487" />
<glyph unicode="&#x2006;" horiz-adv-x="324" />
<glyph unicode="&#x2007;" horiz-adv-x="324" />
<glyph unicode="&#x2008;" horiz-adv-x="243" />
<glyph unicode="&#x2009;" horiz-adv-x="389" />
<glyph unicode="&#x200a;" horiz-adv-x="108" />
<glyph unicode="&#x2010;" horiz-adv-x="604" d="M37 489v173h530v-173h-530z" />
<glyph unicode="&#x2011;" horiz-adv-x="604" d="M37 489v173h530v-173h-530z" />
<glyph unicode="&#x2012;" horiz-adv-x="604" d="M37 489v173h530v-173h-530z" />
<glyph unicode="&#x2013;" horiz-adv-x="946" d="M0 578v71h946v-71h-946z" />
<glyph unicode="&#x2014;" horiz-adv-x="1691" d="M0 578v71h1692v-71h-1692z" />
<glyph unicode="&#x2018;" horiz-adv-x="481" d="M66 1130q0 126 88.5 223.5t234.5 129.5l14 -29q-87 -36 -158 -105t-71 -139q0 -20 6 -30q28 49 96 49q64 0 102 -42.5t38 -101.5q0 -66 -46.5 -114.5t-115.5 -48.5q-87 0 -137.5 60.5t-50.5 147.5z" />
<glyph unicode="&#x2019;" horiz-adv-x="481" d="M66 1319q0 66 46.5 115t116.5 49q87 0 137 -60.5t50 -148.5q0 -126 -88 -223t-234 -129l-14 28q87 36 158 105.5t71 138.5q0 16 -6 31q-32 -49 -98 -49q-64 0 -101.5 42t-37.5 101z" />
<glyph unicode="&#x201a;" horiz-adv-x="481" d="M66 154q0 66 46.5 114.5t116.5 48.5q87 0 137 -60t50 -148q0 -127 -88.5 -225t-233.5 -130l-14 29q87 37 158 106t71 140q0 15 -6 30q-32 -49 -98 -49q-64 0 -101.5 42.5t-37.5 101.5z" />
<glyph unicode="&#x201c;" horiz-adv-x="909" d="M66 1130q0 126 88.5 223.5t234.5 129.5l14 -29q-87 -36 -158 -105t-71 -139q0 -20 6 -30q28 49 96 49q64 0 102 -42.5t38 -101.5q0 -66 -46.5 -114.5t-115.5 -48.5q-87 0 -137.5 60.5t-50.5 147.5zM494 1130q0 127 87.5 224t233.5 129l14 -29q-87 -36 -158 -105.5 t-71 -138.5q0 -15 6 -30q32 49 99 49q64 0 101.5 -42.5t37.5 -101.5q0 -66 -47 -114.5t-117 -48.5q-87 0 -136.5 60t-49.5 148z" />
<glyph unicode="&#x201d;" horiz-adv-x="909" d="M66 1319q0 66 46.5 115t116.5 49q87 0 137 -60.5t50 -148.5q0 -126 -88 -223t-234 -129l-14 28q87 36 158 105.5t71 138.5q0 16 -6 31q-32 -49 -98 -49q-64 0 -101.5 42t-37.5 101zM494 1319q0 66 46 115t115 49q87 0 138 -61t51 -148q0 -126 -89 -223t-235 -129l-14 28 q87 36 158 105t71 139q0 21 -6 31q-28 -49 -96 -49q-64 0 -101.5 42t-37.5 101z" />
<glyph unicode="&#x201e;" horiz-adv-x="909" d="M66 154q0 66 46.5 114.5t116.5 48.5q87 0 137 -60t50 -148q0 -127 -88.5 -225t-233.5 -130l-14 29q87 37 158 106t71 140q0 15 -6 30q-32 -49 -98 -49q-64 0 -101.5 42.5t-37.5 101.5zM494 154q0 66 46 114.5t115 48.5q87 0 138 -60.5t51 -147.5q0 -126 -89 -224.5 t-235 -130.5l-14 29q87 36 158 105.5t71 140.5q0 20 -6 30q-28 -49 -96 -49q-64 0 -101.5 42.5t-37.5 101.5z" />
<glyph unicode="&#x2022;" horiz-adv-x="782" d="M106 676q0 118 84 201.5t201 83.5t201 -83.5t84 -201.5q0 -117 -82.5 -199t-200.5 -82t-202.5 82.5t-84.5 198.5z" />
<glyph unicode="&#x2026;" horiz-adv-x="1536" d="M96 156q0 69 46.5 117.5t115.5 48.5q66 0 113 -48.5t47 -117.5q0 -68 -47 -117t-113 -49q-68 0 -115 49t-47 117zM608 156q0 69 46.5 117.5t115.5 48.5q66 0 113 -48.5t47 -117.5q0 -68 -47 -117t-113 -49q-68 0 -115 49t-47 117zM1120 156q0 69 46.5 117.5t115.5 48.5 q66 0 113 -48.5t47 -117.5q0 -68 -47 -117t-113 -49q-68 0 -115 49t-47 117z" />
<glyph unicode="&#x202f;" horiz-adv-x="389" />
<glyph unicode="&#x2039;" horiz-adv-x="495" d="M68 514q0 29 18 39l328 328l16 -11l-121 -350l115 -358l-12 -12l-328 325q-16 13 -16 39z" />
<glyph unicode="&#x203a;" horiz-adv-x="495" d="M70 160l116 354l-116 356l14 11l328 -328q18 -12 18 -39t-18 -39l-328 -328z" />
<glyph unicode="&#x205f;" horiz-adv-x="487" />
<glyph unicode="&#x20ac;" horiz-adv-x="1288" d="M45 602v43h154q-2 23 -2 72q0 86 10 145h-162v43h170q26 118 82.5 219.5t139 179t195.5 122t242 44.5q83 0 148.5 -15t103.5 -38.5t62.5 -54.5t33.5 -59.5t9 -57.5q0 -61 -37.5 -105t-106.5 -44q-58 0 -96.5 34.5t-38.5 94.5q0 32 9.5 56t20.5 35.5t20.5 26t9.5 29.5 q0 24 -36.5 41t-101.5 17q-94 0 -163 -66q-138 -124 -174 -459h456v-43h-461q-4 -49 -4 -131v-86h465v-43h-463q12 -310 121 -448q80 -121 228 -129q49 0 87 16.5t38 40.5q0 18 -13.5 37.5t-27 46.5t-13.5 61q0 61 38.5 95t96.5 34q69 0 104.5 -38.5t35.5 -94.5 q0 -31 -9 -62t-35 -65t-66.5 -59.5t-110.5 -42.5t-160 -17q-147 0 -263.5 45.5t-195 129.5t-125 197t-59.5 253h-156z" />
<glyph unicode="&#x2122;" horiz-adv-x="1507" d="M43 1272l14 160l-10 30l2 6l60 -4h466l58 4l2 -6l-12 -30l16 -160l-8 -2l-137 153q-22 25 -41 25h-29v-582l70 -2v-18h-306v18l70 2v582h-27q-17 0 -36 -16l-144 -162zM670 1448v18h262l133 -354h2l141 354h246v-18l-68 -2v-580l68 -2v-18h-301v18l68 2v568h-2l-222 -560 h-14l-219 560h-2v-539l72 -35v-14h-162v14l69 35v551q-6 0 -36 1t-35 1z" />
<glyph unicode="&#x25fc;" horiz-adv-x="972" d="M0 0v973h973v-973h-973z" />
</font>
</defs>
</svg>
