<?xml version="1.0" standalone="no"?>
<!DOCTYPE svg PUBLIC "-//W3C//DTD SVG 1.1//EN" "http://www.w3.org/Graphics/SVG/1.1/DTD/svg11.dtd" >
<svg xmlns="http://www.w3.org/2000/svg" xmlns:xlink="http://www.w3.org/1999/xlink" version="1.1">
<metadata></metadata>
<defs>
<font id="estado_headlineroman" horiz-adv-x="1146" >
<font-face units-per-em="2048" ascent="1638" descent="-410" />
<missing-glyph horiz-adv-x="409" />
<glyph unicode="&#xfb01;" horiz-adv-x="1026" d="M47 850v51l133 29l6 207q2 76 28.5 148t73.5 131t119 94.5t158 35.5q76 0 132.5 -16.5t86.5 -42.5t44 -53t14 -54q0 -45 -27.5 -80.5t-77.5 -35.5q-44 0 -72 27t-28 73q0 29 14.5 53t32.5 37q-12 10 -46.5 19.5t-82.5 9.5q-98 0 -150.5 -70.5t-52.5 -173.5v-313l369 2 l119 45h16q0 -3 -2 -100.5t-2 -206.5v-605l127 -12v-49h-426v49l127 12v789h-328v-784l142 -17v-49h-441v49l127 12v789h-133z" />
<glyph unicode="&#xfb02;" horiz-adv-x="1056" d="M47 850v51l133 29l6 207q2 76 27 148t70 131t115.5 94.5t156.5 35.5q143 0 236 -76l71 66h25q0 -26 -2 -128t-2 -202v-1145l127 -12v-49h-426v49l127 12v1270q-51 77 -109.5 110.5t-91.5 33.5q-66 0 -112 -49.5t-46 -141.5v-360l213 4v-78h-213v-784l142 -17v-49h-441v49 l127 12v789h-133z" />
<glyph horiz-adv-x="0" />
<glyph horiz-adv-x="682" />
<glyph unicode=" "  horiz-adv-x="409" />
<glyph unicode="&#x09;" horiz-adv-x="409" />
<glyph unicode="&#xa0;" horiz-adv-x="409" />
<glyph unicode="!" horiz-adv-x="524" d="M143 1315q0 62 32.5 89.5t84.5 27.5q54 0 85.5 -31t31.5 -84l-86 -903h-62zM147 102q0 49 34.5 82t82.5 33q50 0 83.5 -33t33.5 -82q0 -48 -34 -83t-83 -35q-47 0 -82 35.5t-35 82.5z" />
<glyph unicode="&#x22;" horiz-adv-x="792" d="M111 1360v33q0 48 27 74t71 26q45 0 76.5 -24.5t31.5 -77.5v-31l-73 -381h-49zM475 1360v33q0 48 27 74t71 26q45 0 77 -24.5t32 -77.5v-31l-74 -381h-49z" />
<glyph unicode="#" horiz-adv-x="1081" d="M96 510l17 82h182l51 369h-186l16 86h182l54 411h92l-55 -411h329l62 411h88l-62 -411h189l-17 -86h-184l-53 -369h188l-18 -82h-183l-71 -510h-90l73 510h-331l-72 -510h-88l74 510h-187zM383 592h330l53 369h-332z" />
<glyph unicode="$" horiz-adv-x="1007" d="M80 217q0 52 29.5 92.5t95.5 40.5q39 0 71.5 -26t32.5 -76q0 -75 -80 -117q61 -53 217 -63l15 548l-99 50q-243 115 -243 321q0 148 96 245t264 116l4 163h64l-4 -161q174 -7 259 -73t85 -147q0 -54 -32 -89t-79 -35q-50 0 -80 29.5t-30 78.5q0 31 18.5 60.5t50.5 42.5 q-45 53 -196 57l-11 -492l117 -59q125 -63 191.5 -141.5t66.5 -186.5q0 -170 -106.5 -280t-288.5 -129l-6 -203h-64l6 201q-179 4 -271.5 73.5t-92.5 159.5zM256 1063q0 -91 55 -149t156 -103l8 461q-102 -9 -160.5 -69t-58.5 -140zM510 68q115 9 181.5 75.5t66.5 159.5 q0 104 -54 164.5t-180 116.5z" />
<glyph unicode="%" horiz-adv-x="1499" d="M111 1102q0 173 79 281t218 108q136 0 211 -101.5t75 -273.5q0 -161 -81 -272t-220 -111q-130 0 -206 104t-76 265zM260 1149q0 -365 152 -365q40 0 69 29.5t43.5 77t20.5 92.5t6 90q0 60 -3 107.5t-12.5 98.5t-26 85t-45.5 56t-69 22t-68 -26.5t-41.5 -72.5t-19.5 -93 t-6 -101zM262 16l916 1487l71 -35l-909 -1486zM805 338q0 173 79 281t218 108q136 0 211.5 -101.5t75.5 -273.5q0 -161 -81.5 -272t-220.5 -111q-130 0 -206 104t-76 265zM954 385q0 -365 152 -365q40 0 69 29.5t43.5 77t20.5 92.5t6 90q0 77 -5.5 134.5t-20.5 115 t-47.5 88.5t-81.5 31q-40 0 -68 -26.5t-42 -72.5t-20 -93t-6 -101z" />
<glyph unicode="&#x26;" horiz-adv-x="1568" d="M113 375q0 92 27.5 170t76.5 135.5t108.5 99t133.5 72.5q-5 7 -36 43.5t-46 59t-38 60.5t-33.5 77.5t-10.5 81.5q0 51 24 103.5t68.5 98.5t117.5 75.5t161 29.5q83 0 148.5 -24t105.5 -64t60.5 -90t20.5 -105q0 -115 -87.5 -211.5t-223.5 -122.5q50 -58 377 -463 q28 47 59 139.5t50 182.5l-162 45v45h432v-45l-170 -49q-10 -38 -20 -73.5t-20 -65.5t-19 -54t-19.5 -48t-17.5 -39t-17.5 -34t-14.5 -26t-13.5 -23t-10.5 -18l215 -258l179 -25v-55h-355l-153 188q-188 -215 -451 -215q-106 0 -192.5 34.5t-141 92t-83.5 128.5t-29 147z M295 455q0 -153 79.5 -244.5t231.5 -91.5q119 0 214 38t149 89q-349 414 -469 561q-91 -36 -148 -136t-57 -216zM469 1219q0 -53 31 -108t96 -138l49 -62q85 36 140 106.5t55 172.5q0 221 -187 221q-87 0 -135.5 -55t-48.5 -137z" />
<glyph unicode="'" horiz-adv-x="428" d="M111 1360v33q0 48 27 74t71 26q45 0 76.5 -24.5t31.5 -77.5v-31l-73 -381h-49z" />
<glyph unicode="(" horiz-adv-x="686" d="M115 541q0 304 125.5 561.5t373.5 408.5l39 -43q-203 -177 -288.5 -401t-85.5 -518q0 -290 88 -522.5t286 -413.5l-39 -43q-131 84 -228.5 194t-156 236t-86.5 260.5t-28 280.5z" />
<glyph unicode=")" horiz-adv-x="686" d="M33 -387q203 177 289 401t86 518q0 290 -88.5 522.5t-286.5 413.5l39 43q131 -84 228.5 -194t156 -235.5t86.5 -260t28 -280.5q0 -304 -125.5 -562t-373.5 -409z" />
<glyph unicode="*" horiz-adv-x="880" d="M98 1005q12 34 47 46l267 90v4l-267 92q-47 15 -47 59q0 48 42 72t79 -6l201 -184l4 2l-57 278q-6 32 12.5 56t54.5 24q39 0 60 -21t14 -59l-53 -280l4 -2l205 186q32 32 77 10.5t45 -67.5q0 -21 -14.5 -41.5t-42.5 -30.5l-264 -88v-4l272 -90q32 -11 43.5 -41t-6.5 -66 q-18 -32 -49 -37.5t-61 19.5l-201 188l-4 -2l53 -272q6 -33 -14 -57t-58 -27q-38 0 -56.5 23t-12.5 61l53 272l-2 2l-203 -188q-24 -21 -59.5 -17.5t-53.5 33.5q-20 29 -8 63z" />
<glyph unicode="+" d="M80 532v93h446v471h92v-471h447v-93h-447v-473h-92v473h-446z" />
<glyph unicode="," horiz-adv-x="454" d="M111 104q0 46 30.5 78.5t77.5 32.5q66 0 106 -48.5t40 -111.5q0 -91 -53.5 -183.5t-159.5 -156.5l-35 43q65 48 109 117.5t44 126.5q0 23 -4 33q-26 -35 -61 -35q-44 0 -69 29t-25 75z" />
<glyph unicode="-" horiz-adv-x="602" d="M66 504v129h471v-129h-471z" />
<glyph unicode="." horiz-adv-x="454" d="M111 102q0 49 34 82t82 33q50 0 83.5 -33t33.5 -82q0 -48 -34 -83t-83 -35q-47 0 -81.5 35.5t-34.5 82.5z" />
<glyph unicode="/" horiz-adv-x="587" d="M-53 -330l536 1815l88 -19l-534 -1814z" />
<glyph unicode="0" horiz-adv-x="1155" d="M82 707q0 88 14 177.5t40.5 176.5t69 162t96 132.5t125.5 90.5t153 33q99 0 182 -43t139.5 -115t96 -167.5t57.5 -198.5t18 -210q0 -146 -33 -282t-94 -245t-156 -175t-210 -66q-149 0 -263.5 95.5t-174.5 260.5t-60 374zM303 813q0 -168 16 -304t48.5 -238.5t86 -159 t124.5 -56.5q91 0 154 80t92.5 217.5t29.5 321.5q0 162 -15.5 291.5t-47.5 230t-87 155t-129 54.5q-59 0 -107.5 -42t-78 -106.5t-50 -146t-28.5 -156t-8 -141.5z" />
<glyph unicode="1" horiz-adv-x="917" d="M160 0v49l235 17v1316q-172 -20 -205 -22v53q108 14 221.5 41.5t166.5 48.5v-1437l223 -17v-49h-641z" />
<glyph unicode="2" horiz-adv-x="1095" d="M98 0v74l226 213q120 108 208.5 211t136 179.5t75.5 152.5t35 124.5t7 100.5q0 126 -69.5 200t-188.5 74q-123 0 -203 -76.5t-143 -228.5l-45 2q30 209 159.5 328t305.5 119q77 0 143 -22.5t118.5 -67t82 -118.5t29.5 -171q0 -178 -161 -400t-441 -458l-107 -91v-2 l660 21l45 137h51l-41 -301h-883z" />
<glyph unicode="3" horiz-adv-x="1118" d="M102 240q0 56 38.5 97.5t99.5 41.5q54 0 85 -33t31 -84q0 -42 -27 -78.5t-75 -46.5v-2q29 -26 98.5 -45.5t151.5 -19.5q154 0 251 87.5t97 239.5q0 143 -88.5 221t-251.5 78h-102v60q191 25 292 112.5t101 235.5q0 92 -64.5 159.5t-173.5 67.5q-116 0 -209 -81t-145 -228 l-39 4q5 81 39 159.5t90 143.5t141 105.5t183 40.5q153 0 254.5 -93.5t101.5 -240.5q0 -126 -90.5 -237.5t-249.5 -149.5v-11q180 -6 289.5 -88.5t109.5 -230.5q0 -99 -44 -182.5t-118 -138t-169.5 -85t-198.5 -30.5q-188 0 -298 67.5t-110 184.5z" />
<glyph unicode="4" d="M41 416v104l657 932l150 31h14v-920h180l31 96h51l-32 -243h-230v-350l121 -17v-49h-414v49l121 17v350h-649zM176 563h514v723h-8z" />
<glyph unicode="5" horiz-adv-x="1122" d="M109 229q0 56 38 98t99 42q54 0 85 -33t31 -84q0 -49 -29 -81.5t-73 -43.5q74 -70 242 -70q153 0 254.5 94.5t101.5 247.5q0 79 -28 138.5t-76 93.5t-105.5 50.5t-122.5 16.5q-141 0 -288 -30l-23 34l94 707h617l16 80h51l-26 -232h-602l-58 -444q7 2 28.5 7t28.5 7t26 6 t29 5t29 4t35 3.5t38.5 1.5t47.5 1q214 0 340.5 -107t126.5 -290q0 -133 -71 -242.5t-189 -170.5t-254 -61q-189 0 -301 68t-112 184z" />
<glyph unicode="6" horiz-adv-x="1077" d="M78 504q0 176 65 343t172 293.5t242.5 217.5t278.5 129l20 -33q-427 -325 -532 -639q54 25 129 41t139 16q109 0 200.5 -46t149 -139.5t57.5 -217.5q0 -65 -17.5 -133t-54.5 -133.5t-89 -116.5t-127.5 -82t-163.5 -31q-95 0 -174.5 31.5t-133 84.5t-90.5 122t-54 143 t-17 150zM266 469q0 -54 7.5 -108t27.5 -112.5t50 -102.5t80.5 -72.5t113.5 -28.5q72 0 125 33t83 90.5t44 126t14 149.5q0 159 -90.5 248.5t-235.5 89.5q-105 0 -182 -26q-37 -118 -37 -287z" />
<glyph unicode="7" horiz-adv-x="1095" d="M135 1145l88 352h60l-17 -76h592l213 15l10 -33q-141 -142 -248 -311.5t-167.5 -335t-91 -315.5t-33.5 -287q0 -12 -1 -38.5t-1 -33.5q-3 -64 -31.5 -90.5t-67.5 -26.5q-94 0 -94 119q0 142 55.5 322.5t139 343t176 300.5t172.5 220h-658l-32 -125h-64z" />
<glyph unicode="8" horiz-adv-x="1069" d="M78 352q0 159 105 263.5t253 129.5v5q-148 32 -234.5 128t-86.5 222q0 169 126.5 280t307.5 111q173 0 288 -111t115 -270q0 -136 -92.5 -235t-228.5 -125v-5q69 -14 131 -42t114.5 -72t83.5 -109.5t31 -144.5q0 -125 -66 -219t-172 -140.5t-235 -46.5q-193 0 -316.5 99 t-123.5 282zM270 354q0 -155 69 -232t189 -77q273 0 273 346q0 125 -75 216t-198 100q-74 -7 -127 -42.5t-80 -89t-39 -108t-12 -113.5zM303 1112q0 -138 48 -218.5t177 -119.5q236 65 236 350q0 293 -232 293q-115 0 -172 -80.5t-57 -224.5z" />
<glyph unicode="9" horiz-adv-x="1058" d="M78 1004q0 65 19 131t57 127.5t90.5 109.5t125.5 76.5t156 28.5q118 0 208.5 -41.5t143 -112.5t78 -156.5t25.5 -183.5q0 -134 -31.5 -262t-96 -246.5t-157 -217t-220.5 -175.5t-281 -121l-21 33q208 134 352.5 297t204.5 342q-54 -25 -126.5 -40t-137.5 -15 q-165 0 -277 118t-112 308zM266 1028q0 -163 83.5 -261.5t223.5 -98.5q94 0 177 28q41 131 41 318q0 58 -6.5 110.5t-24.5 105.5t-46 91t-74 62t-105 24q-129 0 -199 -108t-70 -271z" />
<glyph unicode=":" horiz-adv-x="454" d="M111 102q0 49 34 82t82 33q50 0 83.5 -33t33.5 -82q0 -48 -34 -83t-83 -35q-47 0 -81.5 35.5t-34.5 82.5zM111 825q0 49 34 82t82 33q50 0 83.5 -33t33.5 -82q0 -48 -34 -83t-83 -35q-47 0 -81.5 35.5t-34.5 82.5z" />
<glyph unicode=";" horiz-adv-x="454" d="M115 825q0 49 34 82t82 33q50 0 83.5 -33t33.5 -82q0 -48 -34 -83t-83 -35q-47 0 -81.5 35.5t-34.5 82.5zM119 104q0 46 30.5 78.5t77.5 32.5q66 0 106 -48.5t40 -111.5q0 -91 -53.5 -183.5t-159.5 -156.5l-35 43q65 48 109.5 117.5t44.5 126.5q0 20 -5 33 q-26 -35 -61 -35q-44 0 -69 29t-25 75z" />
<glyph unicode="&#x3c;" d="M113 575v13l866 473l43 -80l-731 -401l737 -400l-45 -80z" />
<glyph unicode="=" d="M84 369v90h979v-90h-979zM84 719v90h979v-90h-979z" />
<glyph unicode="&#x3e;" d="M119 180l737 400l-731 401l41 80l868 -473v-13l-870 -475z" />
<glyph unicode="?" horiz-adv-x="847" d="M117 1315q0 102 139 102q91 0 169.5 -28.5t132 -74.5t92.5 -104.5t57 -118.5t18 -116q0 -72 -15.5 -129t-39.5 -96t-66.5 -73t-83.5 -56.5t-104 -49.5v-157h-70l-10 329q37 8 60 13t59.5 16t60 22t51.5 29.5t44 40t27 51.5t11 66q0 104 -84 172t-209 68h-139 q-100 0 -100 94zM264 102q0 49 34.5 82t82.5 33q50 0 83.5 -33t33.5 -82q0 -48 -34 -83t-83 -35q-47 0 -82 35.5t-35 82.5z" />
<glyph unicode="@" horiz-adv-x="1841" d="M98 387q0 206 65.5 381.5t183 300t288 194.5t373.5 70q226 0 394 -94t254.5 -256.5t86.5 -372.5q0 -124 -40 -240.5t-110.5 -207t-176 -145t-228.5 -54.5q-92 0 -150.5 44t-58.5 134q0 47 14 99q19 76 62 163l-27 15q-120 -221 -232 -338t-190 -117q-67 0 -108 56 t-41 143q0 82 21 176t57.5 185.5t90.5 175.5t115.5 148t136.5 102t150 38q49 0 102 -15.5t80 -33.5l15 37q6 18 10.5 22t17.5 4q43 0 86 -16.5t43 -34.5q0 -11 -14 -53l-192 -506q-45 -132 -52 -174q-8 -54 -8 -76q0 -44 31 -73t82 -29q97 0 181.5 52t139.5 135t86 185 t31 205q0 205 -87.5 353.5t-239.5 222.5t-351 74q-174 0 -324.5 -63.5t-257.5 -176t-168 -274t-61 -351.5q0 -338 191.5 -527t545.5 -189q264 0 496 71l6 -49q-211 -86 -508 -86q-380 0 -595.5 198.5t-215.5 567.5zM637 231q0 -54 12.5 -99.5t44.5 -45.5q45 0 146 141 t191.5 308t117.5 253q-4 51 -41 96.5t-100 45.5q-69 0 -140 -84.5t-120 -200.5t-80 -231t-31 -183z" />
<glyph unicode="A" horiz-adv-x="1427" d="M0 0v57l156 37l469 1311l69 22l78 39h10l504 -1390l141 -19v-57h-503v57l151 19l-166 473h-495l-158 -461l170 -31v-57h-426zM438 633h439l-222 606h-6z" />
<glyph unicode="B" horiz-adv-x="1208" d="M66 0v57l184 19v1304l-184 21v57h292q52 0 136.5 2t136.5 2q68 0 128 -8.5t122.5 -32.5t107 -62t73 -102t28.5 -147q0 -129 -89 -227.5t-223 -126.5v-8q157 -18 259 -109.5t102 -228.5q0 -128 -66.5 -224.5t-173.5 -145t-235 -48.5q-58 0 -162 4t-162 4h-274zM455 84 q63 -10 172 -10q151 0 229 89.5t78 246.5q0 148 -101.5 230.5t-259.5 82.5h-118v-639zM455 797h159q137 0 208 77.5t71 210.5q0 81 -27.5 141t-74 92.5t-98.5 48t-109 15.5q-23 0 -129 -4v-581z" />
<glyph unicode="C" horiz-adv-x="1327" d="M78 711q0 166 56 312t150.5 247.5t223.5 160t272 58.5q103 0 203 -23.5t160 -52.5l59 70h37l10 -445h-53q-35 64 -56 100t-50.5 82t-52 70.5t-54 51.5t-63.5 39.5t-73 21t-89 8.5q-101 0 -183 -39t-135.5 -103t-89.5 -151t-51.5 -178t-15.5 -188q0 -157 44 -279.5 t121.5 -197.5t178 -113.5t217.5 -38.5q88 0 180 22.5t125.5 37.5t91.5 42l21 -37q-88 -96 -225.5 -156.5t-288.5 -60.5q-303 0 -486.5 202t-183.5 538z" />
<glyph unicode="D" horiz-adv-x="1503" d="M70 0v57l184 19v1304l-184 21v57h161q80 0 216.5 1t216.5 1q361 0 561 -187t200 -536q0 -242 -134.5 -438.5t-366.5 -269.5q-118 -37 -287 -37q-67 0 -187 4t-186 4h-194zM459 86q108 -12 188 -12q120 0 215 33t159.5 91t107.5 140.5t62 178.5t19 208q0 155 -33.5 273.5 t-104 206.5t-188.5 133.5t-280 45.5q-70 0 -145 -6v-1292z" />
<glyph unicode="E" horiz-adv-x="1337" d="M66 0v57l184 19v1304l-184 21v57h895l200 4l17 -360h-54l-127 170q-53 71 -89 90.5t-109 19.5h-344v-583h149q50 0 82 7.5t56.5 22t42 48t31 73t30.5 109.5h55l-14 -295l14 -313h-55q-40 159 -93 215.5t-149 56.5h-149v-647h440q41 0 66.5 12.5t60.5 54.5l201 291h55 l-70 -434h-1142z" />
<glyph unicode="F" horiz-adv-x="1226" d="M66 0v57l184 19v1304l-184 21v57h895l200 4l17 -360h-54l-127 170q-53 71 -89 90.5t-109 19.5h-344v-583h149q50 0 82 7.5t56.5 22t42 48t31 73t30.5 109.5h55l-14 -295l14 -313h-55q-40 159 -93 215.5t-149 56.5h-149v-647l227 -19v-57h-616z" />
<glyph unicode="G" horiz-adv-x="1554" d="M78 711q0 167 59 313t158.5 247t233 159.5t278.5 58.5q222 0 410 -76l59 70h37l10 -445h-53q-73 151 -142 232t-143.5 111t-185.5 30q-112 0 -198.5 -40t-139.5 -104t-87 -153t-46.5 -177.5t-12.5 -186.5q0 -81 11.5 -159t36 -157.5t67 -146t100 -119t141 -82 t183.5 -29.5q116 0 268 31v494l-221 18v59h598v-59l-172 -18v-439h82v-43q-302 -131 -596 -131q-229 0 -396.5 94t-253 260.5t-85.5 387.5z" />
<glyph unicode="H" horiz-adv-x="1554" d="M66 0v57l184 19v1304l-184 21v57h573v-57l-184 -21v-583h645v583l-185 21v57h574v-57l-184 -21v-1304l184 -19v-57h-574v57l185 19v639h-645v-639l184 -19v-57h-573z" />
<glyph unicode="I" horiz-adv-x="704" d="M66 0v57l184 19v1304l-184 21v57h573v-57l-184 -21v-1304l184 -19v-57h-573z" />
<glyph unicode="J" horiz-adv-x="921" d="M47 170q0 62 40 102.5t101 40.5q63 0 95 -37.5t32 -78.5q0 -105 -88 -142v-4q24 -12 68 -12q94 0 150.5 73t56.5 191v1077l-187 21v57h576v-57l-184 -21v-827q0 -90 -11 -169t-40 -156t-74 -132t-118.5 -89t-168.5 -34q-123 0 -185.5 59t-62.5 138z" />
<glyph unicode="K" horiz-adv-x="1411" d="M66 0v57l184 19v1304l-184 21v57h573v-57l-184 -21v-581h221l389 575l-180 27v57h469v-57l-174 -35l-389 -551l442 -745l166 -13v-57h-357l-413 715h-174v-639l184 -19v-57h-573z" />
<glyph unicode="L" horiz-adv-x="1312" d="M66 0v57l184 19v1304l-184 21v57h573v-57l-184 -21v-1304h440q41 0 66.5 12.5t60.5 54.5l201 291h55l-70 -434h-1142z" />
<glyph unicode="M" horiz-adv-x="1757" d="M45 0v57l184 33v1288l-184 21v59h447l389 -1026h8l346 1026h457v-57l-185 -21v-1304l185 -19v-57h-574v57l185 19v1241h-15l-438 -1256h-53l-459 1256h-14v-1227l188 -33v-57h-467z" />
<glyph unicode="N" horiz-adv-x="1429" d="M57 0v57l185 33v1270l-17 18l-168 23v57h389l666 -1044h6v954l-188 33v57h454v-57l-172 -33v-960l2 -414h-77l-793 1272h-8v-1176l174 -33v-57h-453z" />
<glyph unicode="O" horiz-adv-x="1544" d="M78 723q0 154 47 292t134 244t220.5 168t296.5 62q166 0 299 -58.5t217.5 -160t129 -236t44.5 -289.5q0 -152 -47 -291.5t-133 -247.5t-218.5 -172.5t-291.5 -64.5q-170 0 -304 57t-219.5 159t-130 238.5t-44.5 299.5zM309 719q0 -115 12.5 -209.5t45 -182.5t84 -148 t134 -96t191.5 -36q105 0 186 34.5t133 94t84.5 146.5t46 183.5t13.5 213.5q0 111 -13 207t-46.5 187t-84.5 155.5t-132.5 103.5t-186.5 39q-111 0 -194.5 -38t-134.5 -100t-83 -153.5t-43.5 -187.5t-11.5 -213z" />
<glyph unicode="P" horiz-adv-x="1165" d="M66 0v57l184 19v1304l-184 21v57h258q64 0 140 1t140 1q74 0 141.5 -13.5t130.5 -45t109 -78.5t74 -119t28 -162q0 -196 -128 -315t-322 -119l-182 37v-569l207 -19v-57h-596zM455 700q102 -8 143 -8q75 0 133.5 31.5t92.5 83t51.5 110.5t17.5 121q0 159 -90.5 252.5 t-243.5 93.5q-34 0 -104 -4v-680z" />
<glyph unicode="Q" horiz-adv-x="1544" d="M78 723q0 154 47 292t134 244t220.5 168t296.5 62q166 0 299 -58.5t217.5 -160t129 -236t44.5 -289.5q0 -185 -65 -345.5t-195 -273.5t-305 -144q32 -126 138 -191t247 -65q104 0 213 41l21 -48q-66 -42 -169.5 -67t-201.5 -25q-75 0 -144 17t-136.5 54.5t-118 108.5 t-72.5 168q-194 20 -331 123.5t-203 263t-66 361.5zM309 719q0 -115 12.5 -209.5t45 -182.5t84 -148t134 -96t191.5 -36q105 0 186 34.5t133 94t84.5 146.5t46 183.5t13.5 213.5q0 111 -13 207t-46.5 187t-84.5 155.5t-132.5 103.5t-186.5 39q-111 0 -194.5 -38t-134.5 -100 t-83 -153.5t-43.5 -187.5t-11.5 -213z" />
<glyph unicode="R" horiz-adv-x="1376" d="M66 0v57l184 19v1304l-184 21v57h206q56 0 172.5 2t173.5 2q228 0 351 -97.5t123 -283.5q0 -137 -90.5 -239.5t-237.5 -122.5v-10q153 -23 229 -191l150 -368q27 -82 106 -82q31 0 109 4l2 -56q-128 -26 -242 -26q-84 0 -124.5 31.5t-67.5 109.5l-129 375 q-35 103 -84.5 137.5t-118.5 34.5h-139v-602l184 -19v-57h-573zM455 756h133q52 0 102 15.5t95 48t72.5 90.5t27.5 134q0 222 -131 295q-87 47 -185 47q-61 0 -114 -4v-626z" />
<glyph unicode="S" horiz-adv-x="1159" d="M115 477h59q37 -102 75.5 -176t89.5 -134t116.5 -90t146.5 -30q119 0 197 74.5t78 206.5q0 48 -14.5 88.5t-36 70t-61.5 60t-77 51.5t-96 51l-113 58q-41 21 -63.5 33t-62 36.5t-63 45t-53 52t-46 63.5t-28 75t-11.5 90q0 71 30 140t82.5 123.5t131 88t169.5 33.5 q92 0 170.5 -18.5t116.5 -45.5l72 58h37l28 -420h-55q-11 19 -36.5 68.5t-42 79.5t-48.5 72.5t-62.5 67t-77 42.5t-98.5 18q-109 0 -182.5 -68.5t-73.5 -173.5q0 -45 16 -84t36.5 -64.5t59 -53t63.5 -41t71 -36.5q3 -1 4.5 -2t4.5 -2.5l5 -2.5l154 -78q183 -93 257.5 -189 t74.5 -235q0 -168 -133.5 -289t-331.5 -121q-97 0 -200.5 29.5t-166.5 85.5l-39 -84h-57z" />
<glyph unicode="T" horiz-adv-x="1300" d="M35 1102l12 356h1208l11 -356h-49l-140 192q-36 48 -63 67t-68 19h-194v-1304l184 -19v-57h-574v57l185 19v1304h-178q-45 0 -69.5 -13t-57.5 -56l-158 -209h-49z" />
<glyph unicode="U" horiz-adv-x="1550" d="M74 1401v57h573v-57l-184 -21v-805q0 -84 9 -152.5t33.5 -136t65 -113t108 -73.5t157.5 -28q397 0 397 518v778l-189 33v57h449v-57l-170 -33v-848q0 -81 -15.5 -156.5t-53.5 -149t-95.5 -127.5t-147.5 -87t-202 -33q-286 0 -418.5 145t-132.5 425v843z" />
<glyph unicode="V" horiz-adv-x="1290" d="M-31 1401v57h506v-57l-153 -19l387 -1079h4l362 1067l-170 31v57h426v-57l-151 -39l-488 -1372h-76l-505 1392z" />
<glyph unicode="W" horiz-adv-x="1986" d="M-25 1401v57h506v-57l-153 -19l350 -1079h4l264 856l-74 223l-141 19v57h506v-57l-154 -19l351 -1079h4l338 1067l-170 31v57h426v-57l-152 -39l-463 -1372h-76l-335 997l-11 -2l-333 -995h-76l-469 1392z" />
<glyph unicode="X" horiz-adv-x="1380" d="M0 0v59l154 35l436 615l-422 663l-137 27v59h532v-59l-174 -10l336 -539l348 522l-178 27v59h436v-59l-143 -35l-418 -580l447 -698l163 -29v-57h-559v59l174 11l-356 569l-371 -553l168 -27v-59h-436z" />
<glyph unicode="Y" horiz-adv-x="1277" d="M-12 1399v59h540v-59l-174 -17l348 -610l338 598l-159 29v59h409v-59l-143 -35l-404 -676v-612l185 -19v-57h-574v57l185 19v612l-400 686z" />
<glyph unicode="Z" horiz-adv-x="1316" d="M59 0v47l928 1335l-575 -2q-37 0 -60.5 -10t-35.5 -22.5t-40 -49.5l-149 -196h-49l12 356h1155v-35l-934 -1347h533q78 0 108.5 17t75.5 83l178 258h56l-70 -434h-1133z" />
<glyph unicode="[" horiz-adv-x="616" d="M205 -426v1931h362v-59h-215v-1811h215v-61h-362z" />
<glyph unicode="\" horiz-adv-x="587" d="M29 1485h94l536 -1815h-96z" />
<glyph unicode="]" horiz-adv-x="616" d="M49 -365h215v1811h-215v59h363v-1931h-363v61z" />
<glyph unicode="^" d="M205 334l313 831h121l303 -831h-104l-260 737h-5l-262 -737h-106z" />
<glyph unicode="_" horiz-adv-x="1024" d="M0 -164h1024v-98h-1024v98z" />
<glyph unicode="`" horiz-adv-x="561" d="M111 1384l135 89l219 -388l-45 -24z" />
<glyph unicode="a" horiz-adv-x="937" d="M90 182q0 57 31.5 110.5t81 94.5t114.5 75.5t129 56.5t127 36v145q0 94 -51.5 145.5t-154.5 51.5q-79 0 -154 -57v-4q42 -13 66 -36t24 -71q0 -46 -31 -70t-63 -24q-52 0 -77.5 28.5t-25.5 73.5q0 67 57 124t142 87.5t172 30.5q262 0 262 -225v-555q0 -78 64 -78 q65 0 65 100l37 -2q0 -239 -174 -239q-67 0 -107 50.5t-46 123.5h-5q-33 -78 -103.5 -130.5t-160.5 -52.5q-98 0 -158.5 57.5t-60.5 153.5zM246 231q0 -62 35 -102.5t96 -40.5q85 0 140.5 51t55.5 121v246q-39 -9 -80.5 -24.5t-86.5 -40.5t-80 -55t-57.5 -70.5t-22.5 -84.5z " />
<glyph unicode="b" horiz-adv-x="1073" d="M43 1421v41l283 37h18l-4 -328v-323q159 131 313 131q74 0 136.5 -26.5t111 -80t76 -141.5t27.5 -203q0 -120 -40.5 -225.5t-106.5 -176t-150.5 -111t-171.5 -40.5q-63 0 -111 8t-81.5 25.5t-46.5 27t-36 30.5l-57 -68l-39 2q0 1 2 137.5t2 206.5v1053zM340 289 q0 -68 18 -120.5t66 -88t121 -35.5q291 0 291 438q0 113 -29 194.5t-98.5 131t-176.5 49.5q-56 0 -109.5 -18.5t-82.5 -42.5v-508z" />
<glyph unicode="c" horiz-adv-x="905" d="M66 442q0 118 38 219.5t102.5 170.5t151.5 108t185 39q146 0 219.5 -54.5t73.5 -125.5q0 -53 -32.5 -86t-78.5 -33q-47 0 -78 26t-31 78q0 28 16.5 54t45.5 41v6q-53 20 -143 20q-142 0 -225 -105.5t-83 -283.5q0 -55 8.5 -107.5t31 -106.5t57 -94t90 -65.5t125.5 -25.5 q72 0 132 13t91 27t69 36l13 -15q-35 -85 -126.5 -146t-215.5 -61q-97 0 -173.5 27.5t-125 73t-80 108t-44.5 127t-13 135.5z" />
<glyph unicode="d" horiz-adv-x="1069" d="M66 446q0 122 37 223.5t100.5 168.5t147 104t177.5 37q116 0 203 -43v461l-139 18v41l297 43h18l-4 -393v-1020l129 -12v-41l-260 -49h-31l-8 143q-50 -65 -125 -110.5t-147 -45.5q-74 0 -143.5 29.5t-126.5 86t-91 149.5t-34 210zM233 498q0 -183 88.5 -289.5 t239.5 -106.5q112 0 170 62v588q-15 73 -74.5 117t-134.5 44q-89 0 -156 -57.5t-100 -151t-33 -206.5z" />
<glyph unicode="e" horiz-adv-x="925" d="M66 444q0 143 58 265t165 196t239 74q161 0 244.5 -89.5t83.5 -230.5q0 -67 -10 -100h-617l-1 -19q-1 -20 -1 -26q0 -68 16 -133.5t50.5 -128t100 -101t153.5 -38.5q131 0 284 80l13 -15q-20 -73 -122 -140t-220 -67q-111 0 -196 36t-137 100.5t-77.5 149t-25.5 187.5z M236 627h450q4 29 4 47q0 104 -54.5 166.5t-150.5 62.5q-50 0 -91 -19.5t-67.5 -48.5t-46 -68t-29.5 -72.5t-15 -67.5z" />
<glyph unicode="f" horiz-adv-x="602" d="M47 854v47l133 37l6 199q2 78 23.5 148.5t62 130t107.5 95t153 35.5q100 0 149.5 -41.5t49.5 -97.5q0 -42 -25.5 -71t-68.5 -29q-39 0 -67.5 22t-28.5 66q0 49 39 84q-30 10 -70 10q-66 0 -112 -49.5t-46 -141.5v-374l213 4v-78h-213v-784l160 -17v-49h-459v49l127 12 v779z" />
<glyph unicode="g" horiz-adv-x="1064" d="M20 -246q0 69 74 134t182 100v4q-66 20 -100.5 60.5t-34.5 94.5q0 68 61 125.5t150 85.5v7q-118 29 -179.5 106.5t-61.5 173.5q0 99 54 176.5t140.5 117.5t186.5 40q108 0 251 -55l246 30v-149l-215 63l-8 -8q40 -32 69 -88.5t29 -109.5q0 -80 -30.5 -141t-83.5 -98.5 t-120 -56t-145 -18.5q-60 0 -129 -35t-69 -88q0 -45 38 -68.5t101 -23.5h229q344 0 344 -219q0 -77 -34.5 -141t-90 -106t-127.5 -71.5t-146 -42.5q-69 -12 -136 -12h-10q-222 1 -328.5 58.5t-106.5 154.5zM197 -201q0 -180 268 -180q377 0 377 229q0 33 -11 58t-30 39 t-45 23.5t-54.5 11.5t-59 4t-59.5 0h-28h-211q-147 -66 -147 -185zM283 659q0 -106 51 -175.5t151 -69.5q109 0 160 71.5t51 186.5q0 105 -50.5 172t-160.5 67q-57 0 -98.5 -22.5t-63 -61t-31 -80t-9.5 -88.5z" />
<glyph unicode="h" horiz-adv-x="1075" d="M45 0v49l127 12v1336l-125 24v41l283 37h18q0 -25 -2 -127t-2 -203v-358q59 78 142.5 123t164.5 45q127 0 188.5 -64t61.5 -163v-691l127 -12v-49h-426v49l127 12v619q0 38 -6 67.5t-22.5 60t-52.5 47.5t-89 17q-42 0 -80.5 -16t-65 -41t-42.5 -46t-27 -42v-666l127 -12 v-49h-426z" />
<glyph unicode="i" horiz-adv-x="518" d="M45 0v49l127 12v779l-127 24v39l287 58h16q0 -3 -2 -101t-2 -207v-592l127 -12v-49h-426zM139 1233q0 46 33.5 80.5t79.5 34.5t79.5 -34t33.5 -81t-33.5 -82t-79.5 -35q-47 0 -80 34.5t-33 82.5z" />
<glyph unicode="j" horiz-adv-x="532" d="M-92 -319q0 40 23.5 72t70.5 32q39 0 66.5 -25t27.5 -69q0 -22 -7.5 -42t-18.5 -28v-6q62 0 100.5 45.5t38.5 120.5v1059l-127 24v39l287 58h16q0 -12 -1 -46t-2 -98.5t-1 -150.5v-531q0 -132 -17 -233.5t-55 -180t-103.5 -120t-156.5 -41.5q-62 0 -101.5 35t-39.5 86z M176 1233q0 46 33.5 80.5t79.5 34.5t79 -34t33 -81t-33 -82t-79 -35q-47 0 -80 34.5t-33 82.5z" />
<glyph unicode="k" horiz-adv-x="1036" d="M45 0v49l127 12v1336l-125 24v41l283 37h18q0 -43 -2 -148t-2 -198v-586h135l260 316l-166 20v51h420v-51l-151 -31l-242 -274l268 -532l144 -15v-51h-295l-248 506h-125v-445l127 -12v-49h-426z" />
<glyph unicode="l" horiz-adv-x="518" d="M45 0v49l127 12v1336l-125 24v41l283 37h18q0 -25 -2 -127t-2 -203v-1108l127 -12v-49h-426z" />
<glyph unicode="m" horiz-adv-x="1611" d="M45 0v49l127 12v779l-127 24v39l270 58h17l12 -150q60 79 138.5 123.5t158.5 44.5q104 0 164.5 -45.5t79.5 -120.5h4q59 79 139 122.5t160 43.5q127 0 188.5 -64t61.5 -163v-691l127 -12v-49h-426v49l127 12v619q0 38 -6 67.5t-22.5 60t-52.5 47.5t-89 17 q-127 0 -205 -145v-666l127 -12v-49h-426v49l127 12v619q0 38 -6 67.5t-22.5 60t-52.5 47.5t-89 17q-127 0 -205 -145v-666l127 -12v-49h-426z" />
<glyph unicode="n" horiz-adv-x="1075" d="M45 0v49l127 12v779l-127 24v39l270 58h17l12 -150q59 78 142.5 123t164.5 45q127 0 188.5 -64t61.5 -163v-691l127 -12v-49h-426v49l127 12v619q0 38 -6 67.5t-22.5 60t-52.5 47.5t-89 17q-42 0 -80.5 -16t-65 -41t-42.5 -46t-27 -42v-666l127 -12v-49h-426z" />
<glyph unicode="o" horiz-adv-x="1015" d="M66 463q0 135 53 252t156 190.5t233 73.5q203 0 322.5 -133t119.5 -354q0 -101 -30 -194.5t-85 -166.5t-140 -116.5t-187 -43.5q-200 0 -321 138.5t-121 353.5zM256 477q0 -442 252 -442q71 0 122.5 37.5t78.5 103t39 139.5t12 162q0 97 -12 172t-39.5 136.5t-77.5 94.5 t-121 33q-254 0 -254 -436z" />
<glyph unicode="p" horiz-adv-x="1079" d="M41 -410l127 13v1237l-127 24v39l270 58h19l10 -140q57 72 141.5 115t143.5 43q82 0 148 -24.5t110.5 -67t74.5 -101t43 -124.5t13 -140q0 -150 -56.5 -275t-161.5 -199.5t-237 -74.5q-127 0 -219 58v-426l137 -15v-49h-436v49zM340 223q48 -186 213 -186 q97 0 163.5 56.5t97 150.5t30.5 219q0 163 -80.5 279t-224.5 116q-67 0 -122 -32.5t-77 -75.5v-527z" />
<glyph unicode="q" horiz-adv-x="1079" d="M84 446q0 102 32 196.5t90 170t149 121t200 45.5q127 0 258 -57l78 57h31v-1374l137 -15v-49h-463v49l154 13v501q-66 -55 -138 -94t-127 -39q-191 0 -296 132t-105 343zM252 516q0 -191 87 -305.5t247 -114.5q42 0 90 17t74 34v580q0 75 -67 130.5t-165 55.5 q-66 0 -118 -35t-83.5 -92.5t-48 -127t-16.5 -142.5z" />
<glyph unicode="r" horiz-adv-x="800" d="M45 0v49l127 12v779l-127 24v39l272 58h15l12 -164h4q64 86 143 132t144 46q68 0 100.5 -35.5t32.5 -85.5q0 -54 -31.5 -82.5t-70.5 -28.5q-52 0 -75.5 26.5t-23.5 64.5q0 26 17 51l-4 6q-61 -14 -125.5 -63.5t-110.5 -110.5v-656l143 -14v-47h-442z" />
<glyph unicode="s" horiz-adv-x="831" d="M94 299h51l111 -231q64 -31 143 -31q87 0 140 47.5t53 132.5q0 71 -37.5 114.5t-114.5 76.5l-106 45q-40 17 -67 30.5t-59.5 36.5t-52 48t-33 61.5t-13.5 79.5q0 118 90.5 194t228.5 76q90 0 207 -23h51v-245l-45 -2q-13 17 -24.5 35t-23.5 41.5t-17.5 34t-19 40 t-15.5 33.5q-49 18 -111 18q-72 0 -123 -36.5t-51 -112.5q0 -56 32 -91t99 -63l145 -59q46 -18 79.5 -38.5t67 -51.5t51.5 -76t18 -102q0 -137 -100.5 -223.5t-254.5 -86.5q-52 0 -98 7.5t-97.5 21t-78.5 18.5z" />
<glyph unicode="t" horiz-adv-x="657" d="M47 854v45l141 53l119 189h45v-217l264 6v-82h-264v-590v-12q0 -30 0.5 -45.5t6 -38t16 -33t31 -19t51.5 -8.5q51 0 155 37l13 -26q-127 -138 -269 -138q-176 0 -176 179v686z" />
<glyph unicode="u" horiz-adv-x="1071" d="M41 897v43l289 21h16l-6 -277v-383q0 -35 3.5 -62.5t14 -57.5t29 -49.5t50.5 -32.5t75 -13q120 0 207 123v665l-123 23v47l289 17h12l-6 -277v-598l131 -12v-41l-277 -49h-16l-8 163q-58 -84 -139 -129t-174 -45q-47 0 -89 14t-77 41.5t-55.5 75.5t-20.5 111v659z" />
<glyph unicode="v" horiz-adv-x="937" d="M0 905v49h422v-49l-129 -8l223 -649h4l213 639l-125 18v49h330v-49l-115 -20l-329 -893h-52l-323 901z" />
<glyph unicode="w" horiz-adv-x="1470" d="M0 905v49h422v-49l-129 -8l223 -649h4l174 524l-43 121l-119 12v49h422v-49l-129 -8l224 -649h4l213 639l-125 18v49h329v-49l-114 -20l-330 -893h-51l-234 649h-8l-239 -649h-52l-323 901z" />
<glyph unicode="x" horiz-adv-x="1024" d="M-8 0v49l125 23l315 401l-289 420l-102 12v49h420v-49l-123 -8l221 -322l227 312l-118 18v49h338v-49l-113 -20l-291 -369l307 -448l123 -19v-49h-434v47l121 10l-246 357l-250 -346l115 -19v-49h-346z" />
<glyph unicode="y" horiz-adv-x="964" d="M-2 903v51h428v-51l-129 -8l248 -614h4l215 604l-125 18v51h326v-51l-117 -22l-406 -1094q-81 -223 -264 -223q-77 0 -127.5 39t-50.5 116q0 42 29.5 80.5t93.5 38.5q38 0 68 -26t30 -70q0 -75 -61 -98v-6q28 -7 37 -7q64 0 103 42t73 137l86 241l-342 828z" />
<glyph unicode="z" horiz-adv-x="843" d="M57 0v25l533 874h-291q-32 0 -51 -13t-41 -44l-92 -135h-41l4 247h708v-22l-526 -873l262 9q44 2 71.5 18t59.5 59l105 144h39l-45 -289h-695z" />
<glyph unicode="{" horiz-adv-x="614" d="M123 543v75q38 0 64 2.5t55 10t44 25.5t15 46q0 42 -35 125.5t-70.5 173.5t-35.5 150q0 155 108.5 254.5t321.5 99.5v-67q-279 -7 -279 -273q0 -40 57.5 -194t57.5 -213q0 -137 -150 -178v-9q72 -21 111 -72t39 -116q0 -62 -18.5 -131t-40 -119t-40 -108t-18.5 -101 q0 -287 281 -289v-63q-227 3 -328.5 89.5t-101.5 256.5q0 52 22.5 128t50 139t50 125.5t22.5 90.5q0 70 -38 104.5t-144 37.5z" />
<glyph unicode="|" horiz-adv-x="544" d="M225 -281v1766h94v-1766h-94z" />
<glyph unicode="}" horiz-adv-x="614" d="M25 -365q280 2 280 289q0 43 -18.5 101t-40 108t-40 119t-18.5 131q0 65 39 116t111 72v9q-150 41 -150 178q0 59 57.5 213t57.5 194q0 266 -278 273v67q213 0 321.5 -99.5t108.5 -254.5q0 -60 -35.5 -150t-71 -173.5t-35.5 -125.5q0 -28 15.5 -46t44.5 -25.5t55 -10 t64 -2.5v-75q-106 -3 -144.5 -37.5t-38.5 -104.5q0 -34 36.5 -123t73 -191.5t36.5 -168.5q0 -170 -101.5 -256.5t-328.5 -89.5v63z" />
<glyph unicode="~" d="M90 532q19 56 47.5 94.5t61 56.5t59.5 25t55 7q61 0 133.5 -22.5t129.5 -49.5t130 -49.5t136 -22.5q88 0 133 117l82 -26q-28 -90 -90 -137.5t-150 -47.5q-58 0 -131.5 23.5t-132.5 51.5t-127 51.5t-115 23.5q-26 0 -47 -10t-37 -30t-26 -37t-23 -44q-18 4 -46 13t-42 13 z" />
<glyph unicode="&#xa1;" horiz-adv-x="524" d="M143 1010q0 48 34 83t83 35q47 0 82 -35.5t35 -82.5q0 -49 -34.5 -82t-82.5 -33q-50 0 -83.5 33t-33.5 82zM147 -205l86 903h62l86 -901q0 -116 -117 -116q-54 0 -85.5 30.5t-31.5 83.5z" />
<glyph unicode="&#xa2;" horiz-adv-x="937" d="M72 442q0 118 38 219.5t102.5 170.5t151.5 108t185 39q86 0 153 -23l82 150l70 -29l-84 -155q72 -51 72 -123q0 -53 -32.5 -86t-78.5 -33q-50 0 -80 27l-291 -527q87 -76 195 -76q62 0 110 18t78 49.5t43.5 52t26.5 48.5l33 -4q-22 -132 -114.5 -214.5t-223.5 -82.5 q-134 0 -234 54l-79 -146l-70 31l88 160q-141 125 -141 372zM233 516q0 -166 74 -276l359 651q-43 14 -125 14q-142 0 -225 -105.5t-83 -283.5z" />
<glyph unicode="&#xa3;" horiz-adv-x="1116" d="M59 82q0 39 32 70.5t81 31.5q63 0 154 -49q49 82 49 230q0 64 -25 174q-4 17 -41 149l-190 -2l2 86l170 -8q-60 205 -60 313q0 182 118 298t310 116q132 0 219 -60.5t87 -152.5q0 -55 -32 -90t-79 -35q-50 0 -80.5 30t-30.5 79q0 31 19 60t51 42q-19 24 -65 36.5 t-99 12.5q-70 0 -121 -24.5t-78 -66.5t-39 -90t-12 -104q0 -119 68 -362l407 6l-22 -86l-367 4q47 -169 47 -260q0 -83 -37.5 -166.5t-103.5 -128.5v-6q137 -10 457 -10q26 0 45.5 3.5t32.5 13.5t21 18.5t13.5 27.5t8 30.5t6 38t6.5 40.5l49 -6q-8 -141 -55.5 -230.5 t-132.5 -89.5q-119 0 -257.5 26.5t-250.5 86.5q-28 -38 -72 -66t-84 -28q-64 0 -91.5 28t-27.5 70z" />
<glyph unicode="&#xa4;" horiz-adv-x="1222" d="M84 567v86l149 -4q-2 27 -2 78q0 57 5 98l-152 -2v86l162 -4q20 121 67 225.5t117 186t170 128t217 46.5q132 0 218.5 -60.5t86.5 -152.5q0 -55 -32 -90t-78 -35q-50 0 -80.5 30t-30.5 79q0 31 19 60t51 42q-19 23 -68.5 36t-103.5 13q-69 0 -126.5 -30.5t-95.5 -79 t-66.5 -117t-44 -137t-24.5 -146.5l545 6v-86l-551 4q-2 -31 -2 -86q0 -61 2 -94l551 6v-86l-545 4q9 -79 25.5 -149t46.5 -140t70.5 -119.5t101 -80.5t133.5 -31q84 0 148 33q-76 35 -76 113q0 54 30.5 85t79.5 31q62 0 90.5 -36.5t28.5 -83.5q0 -38 -16.5 -75.5 t-50.5 -72.5t-99 -56.5t-151 -21.5q-128 0 -229 44t-169.5 125t-109.5 190t-55 245z" />
<glyph unicode="&#xa5;" horiz-adv-x="1335" d="M16 1399v59h541v-59l-174 -17l348 -610l338 598l-160 29v59h410v-59l-143 -35l-404 -676v-22l336 8v-96l-336 6v-508l184 -19v-57h-573v57l184 19v508l-336 -6v96l336 -8v22l-399 686z" />
<glyph unicode="&#xa6;" horiz-adv-x="686" d="M291 -371v820h104v-820h-104zM291 666v819h104v-819h-104z" />
<glyph unicode="&#xa7;" horiz-adv-x="1300" d="M176 868q0 175 73 317.5t205 224t296 81.5q176 0 267 -47.5t91 -102.5q0 -25 -15.5 -47t-50.5 -22q-18 0 -39 11.5t-45.5 27.5t-56 32t-84.5 27.5t-119 11.5q-93 0 -171 -41.5t-148 -134.5q102 -78 193.5 -157.5t196.5 -191.5t180 -220t125 -236.5t50 -248.5 q0 -171 -76.5 -313t-208 -223t-288.5 -81q-176 0 -267 47.5t-91 102.5q0 25 15 47t50 22q18 0 39 -11.5t45.5 -27.5t56 -32t84.5 -27.5t119 -11.5q97 0 182.5 42.5t143.5 135.5q-101 76 -196.5 160t-199 195.5t-180 220.5t-126.5 233.5t-50 236.5zM274 893 q0 -80 26.5 -166.5t68.5 -163.5t104 -159t123 -148.5t135 -136t131.5 -118.5t120.5 -99q49 98 49 231q0 97 -47.5 213.5t-123 225t-170.5 215.5t-187.5 191t-177.5 146q-52 -89 -52 -231z" />
<glyph unicode="&#xa8;" horiz-adv-x="776" d="M106 1225q0 46 31.5 77t77.5 31q45 0 77 -31.5t32 -76.5t-32 -77t-77 -32q-46 0 -77.5 31.5t-31.5 77.5zM453 1225q0 45 31.5 76.5t76.5 31.5q46 0 77.5 -31t31.5 -77t-31.5 -77.5t-77.5 -31.5q-45 0 -76.5 32t-31.5 77z" />
<glyph unicode="&#xa9;" horiz-adv-x="1865" d="M115 631q0 194 69 359.5t185 276t267.5 172.5t317.5 62q164 0 308.5 -57.5t253.5 -162.5t172 -265t63 -354q0 -178 -58 -333t-162 -268t-258 -178t-337 -65q-262 0 -449 104.5t-279.5 286t-92.5 422.5zM197 631q0 -220 87 -388.5t255.5 -264t396.5 -95.5q219 0 388 103.5 t258 280t89 395.5q0 178 -55.5 324.5t-153 243t-228.5 148.5t-282 52q-153 0 -290.5 -57.5t-240.5 -159.5t-163.5 -253.5t-60.5 -328.5zM414 641q0 264 150 431t401 167q172 0 290 -70l39 45h39v-167l17 -183h-54q-11 38 -17.5 58.5t-22 57.5t-31 59t-42.5 50t-58 43t-76 26 t-99 11q-74 0 -132 -32.5t-93.5 -84t-58.5 -120t-32 -134.5t-9 -134q0 -109 20 -199t60.5 -159.5t109 -108.5t158.5 -39q60 0 108 16t79.5 40.5t57 63.5t40 75.5t28.5 86.5h70q-13 -81 -45 -147t-73 -107t-91 -68.5t-96.5 -38.5t-92.5 -11q-258 0 -401 155t-143 418z" />
<glyph unicode="&#xaa;" horiz-adv-x="686" d="M117 997q0 55 51 108t114.5 84t123.5 44v82q0 96 -107 96q-40 0 -94 -27q53 -20 53 -73q0 -27 -19.5 -45.5t-45.5 -18.5q-31 0 -50.5 19.5t-19.5 52.5q0 69 69.5 110t153.5 41q86 0 134 -33.5t48 -90.5v-345q0 -28 25 -28q14 0 25.5 15.5t11.5 39.5h28q0 -75 -32 -112 t-86 -37q-39 0 -64.5 29.5t-25.5 70.5q-22 -44 -68.5 -74.5t-93.5 -30.5q-51 0 -91 31t-40 92zM160 705v79h422v-79h-422zM229 1030q0 -34 19.5 -55t50.5 -21q35 0 71 23.5t36 58.5v160q-69 -11 -123 -59t-54 -107z" />
<glyph unicode="&#xab;" horiz-adv-x="839" d="M68 457v86l311 286l47 -43l-199 -280l199 -297l-47 -35zM414 457v86l311 286l47 -43l-199 -280l199 -297l-47 -35z" />
<glyph unicode="&#xac;" horiz-adv-x="1275" d="M117 580v86h1042v-465h-84v379h-958z" />
<glyph unicode="&#xad;" horiz-adv-x="602" d="M66 504v129h471v-129h-471z" />
<glyph unicode="&#xae;" horiz-adv-x="1040" d="M102 1081q0 96 34.5 178.5t92 138t133 87t158.5 31.5q113 0 207 -48.5t152.5 -144.5t58.5 -223q0 -180 -115.5 -299t-302.5 -119q-199 0 -308.5 109.5t-109.5 289.5zM166 1081q0 -156 95 -252t259 -96q78 0 149 29.5t117 79.5v14l-88 -4q-32 0 -47 14t-28 43l-58 115 q-20 41 -63 41h-35v-172l63 -8v-29h-231v29l57 8v410l-57 6v30h252q170 0 170 -131q0 -44 -39.5 -81t-97.5 -46v-4q26 -2 45 -11.5t26.5 -18t18.5 -23.5l14 -23q45 -83 57 -96q16 -18 35 -18l35 -2q55 95 55 215q0 164 -100 263t-250 99t-252 -106.5t-102 -274.5zM467 1106 h61q33 0 60.5 25t27.5 69q0 48 -24 75.5t-66 27.5h-59v-197z" />
<glyph unicode="&#xaf;" horiz-adv-x="792" d="M119 1120v133h555v-133h-555z" />
<glyph unicode="&#xb0;" horiz-adv-x="536" d="M98 1223q0 79 45.5 127.5t122.5 48.5q86 0 129 -45t43 -123q0 -73 -48 -120.5t-124 -47.5q-74 0 -121 45t-47 115zM162 1231q0 -48 29 -83.5t75 -35.5q49 0 79 31t30 88q0 53 -30.5 86t-78.5 33q-47 0 -75.5 -33t-28.5 -86z" />
<glyph unicode="&#xb1;" d="M66 0v94h1015v-94h-1015zM66 637v88h460v348h90v-348h465v-88h-460v-350h-95v350h-460z" />
<glyph unicode="&#xb2;" horiz-adv-x="690" d="M78 1221q11 122 92 202t199 80q112 0 173.5 -60.5t61.5 -156.5q0 -30 -8.5 -60.5t-18.5 -54.5t-33.5 -54.5t-37 -47.5t-47 -48t-44.5 -41.5t-49.5 -42.5t-43.5 -36l-80 -67v-3l317 3l37 81h35l-33 -217h-500v72l140 133q125 114 168 182.5t43 147.5q0 71 -40 112t-104 41 q-67 0 -116 -44t-74 -123z" />
<glyph unicode="&#xb3;" horiz-adv-x="724" d="M88 850q0 38 22 68t68 30q37 0 59.5 -21t22.5 -57q0 -57 -47 -88q29 -34 131 -34q73 0 115.5 46t42.5 115q0 81 -50 118.5t-126 37.5h-54v49q107 12 150 47t43 103q0 50 -37.5 86t-101.5 36q-66 0 -113.5 -35.5t-65.5 -93.5q-18 5 -41 9q13 94 90 165.5t189 71.5 q96 0 163.5 -51t67.5 -137q0 -67 -44 -123t-134 -84v-8q107 -9 165.5 -55.5t58.5 -120.5q0 -79 -43.5 -134t-114 -79.5t-162.5 -24.5q-116 0 -185 47t-69 117z" />
<glyph unicode="&#xb4;" horiz-adv-x="561" d="M96 1085l219 388l136 -89l-310 -323z" />
<glyph unicode="&#xb5;" horiz-adv-x="1134" d="M156 911l196 45h17l-7 -276v-369q0 -89 46.5 -147t150.5 -58q88 0 134 68t46 168v573l185 41h12l-6 -276v-461q0 -90 53 -90q24 0 40 31t15 94h45q0 -141 -39.5 -207.5t-121.5 -66.5q-75 0 -122.5 59t-41.5 164h-8q-23 -106 -87.5 -168t-142.5 -62q-207 0 -260 248l-18 2 q0 -72 20 -158t44.5 -150.5t44.5 -134.5t20 -116q0 -66 -28.5 -100.5t-72.5 -34.5q-104 0 -104 154v1079z" />
<glyph unicode="&#xb6;" horiz-adv-x="1259" d="M74 971q0 95 30 175.5t82.5 137t124 96.5t153 59t169.5 19h393l160 19v-101h-195v-1306q0 -77 -15 -147.5t-47.5 -133.5t-79.5 -109.5t-116 -74t-153 -27.5q-126 0 -200.5 49t-74.5 119q0 49 29 82t78 33q50 0 77 -29.5t27 -73.5q0 -21 -13 -48t-42 -42q37 -18 139 -18 q69 0 124 26.5t89.5 68.5t57 99.5t31.5 115.5t9 120v391h-299q-267 0 -402.5 132t-135.5 368z" />
<glyph unicode="&#xb7;" horiz-adv-x="454" d="M111 725q0 49 34 82t82 33q50 0 83.5 -33t33.5 -82q0 -48 -34 -83.5t-83 -35.5q-47 0 -81.5 35.5t-34.5 83.5z" />
<glyph unicode="&#xb8;" horiz-adv-x="563" d="M86 -360q0 27 19 45t45 18q65 0 65 -51q0 -41 -29 -55q27 -9 58 -9q131 0 131 107q0 19 -8 34.5t-25.5 26t-36 18t-48.5 12.5t-53.5 8t-60.5 7l97 232l49 -4l-53 -123q264 -16 264 -168q0 -89 -69 -142t-189 -53q-74 0 -115 25.5t-41 71.5z" />
<glyph unicode="&#xb9;" horiz-adv-x="669" d="M154 700v41l133 13v678h-133v41q179 18 274 36h8v-755l131 -13v-41h-413z" />
<glyph unicode="&#xba;" horiz-adv-x="694" d="M70 1163q0 123 76.5 213t201.5 90q131 0 204 -74t73 -204q0 -81 -31 -152.5t-96 -118.5t-150 -47q-133 0 -205.5 81.5t-72.5 211.5zM137 705v79h420v-79h-420zM205 1171q0 -256 143 -256q144 0 144 256q0 119 -32.5 184.5t-109.5 65.5q-145 0 -145 -250z" />
<glyph unicode="&#xbb;" horiz-adv-x="839" d="M68 217l198 281l-198 297l47 34l311 -282v-86l-311 -287zM414 217l198 281l-198 297l47 34l311 -282v-86l-311 -287z" />
<glyph unicode="&#xbc;" horiz-adv-x="1552" d="M154 700v41l133 13v678h-133v41q179 18 274 36h8v-755l131 -13v-41h-413zM297 16l915 1487l72 -35l-909 -1486zM809 217v70l338 497l139 19h8v-479h113l16 49h37l-24 -156h-142v-168l88 -8v-41h-319v41l90 8v168h-344zM899 324h254v362h-6z" />
<glyph unicode="&#xbd;" horiz-adv-x="1552" d="M154 700v41l133 13v678h-133v41q179 18 274 36h8v-755l131 -13v-41h-413zM297 16l915 1487l72 -35l-909 -1486zM895 522q11 122 92 202.5t199 80.5q112 0 173.5 -60.5t61.5 -156.5q0 -30 -8.5 -60.5t-18.5 -54.5t-33.5 -54.5t-37 -47.5t-47 -48t-44.5 -41.5t-49.5 -42.5 t-43.5 -36l-80 -68v-2l317 2l37 82h35l-33 -217h-500v72l140 133q125 114 168 182.5t43 147.5q0 71 -40 112t-104 41q-67 0 -116 -44.5t-74 -123.5z" />
<glyph unicode="&#xbe;" horiz-adv-x="1552" d="M113 850q0 38 22 68t68 30q37 0 59.5 -21t22.5 -57q0 -57 -47 -88q29 -34 131 -34q73 0 115 46t42 115q0 81 -50 118.5t-126 37.5h-53v49q107 12 149.5 47t42.5 103q0 50 -37.5 86t-101.5 36q-66 0 -113 -35.5t-65 -93.5q-18 5 -41 9q13 94 90 165.5t189 71.5 q96 0 163.5 -51t67.5 -137q0 -67 -44 -123t-134 -84v-8q107 -9 165 -55.5t58 -120.5q0 -118 -89 -178t-230 -60q-116 0 -185 47t-69 117zM332 16l915 1487l72 -35l-909 -1486zM809 217v70l338 497l139 19h8v-479h113l16 49h37l-24 -156h-142v-168l88 -8v-41h-319v41l90 8 v168h-344zM899 324h254v362h-6z" />
<glyph unicode="&#xbf;" horiz-adv-x="847" d="M125 121q0 72 15.5 129t39.5 96t66.5 73t83.5 56t104 49v158h70l10 -330q-38 -8 -60 -13t-59.5 -16t-60.5 -21.5t-51 -29t-44 -40t-27 -51.5t-11 -66q0 -104 84 -172t209 -68h139q100 0 100 -94q0 -103 -139 -103q-91 0 -169.5 28.5t-132 75t-92.5 105t-57 118.5t-18 116 zM352 993q0 48 34 83.5t83 35.5q47 0 82 -36t35 -83q0 -49 -34.5 -81.5t-82.5 -32.5q-50 0 -83.5 32.5t-33.5 81.5z" />
<glyph unicode="&#xc0;" horiz-adv-x="1427" d="M0 0v57l156 37l469 1311l69 22l78 39h10l504 -1390l141 -19v-57h-503v57l151 19l-166 473h-495l-158 -461l170 -31v-57h-426zM332 1749l102 135l342 -270l-37 -49zM438 633h439l-222 606h-6z" />
<glyph unicode="&#xc1;" horiz-adv-x="1427" d="M0 0v57l156 37l469 1311l69 22l78 39h10l504 -1390l141 -19v-57h-503v57l151 19l-166 473h-495l-158 -461l170 -31v-57h-426zM438 633h439l-222 606h-6zM573 1614l342 270l103 -135l-408 -184z" />
<glyph unicode="&#xc2;" horiz-adv-x="1427" d="M0 0v57l156 37l469 1311l69 22l78 39h10l504 -1390l141 -19v-57h-503v57l151 19l-166 473h-495l-158 -461l170 -31v-57h-426zM438 633h439l-222 606h-6zM442 1579l179 274h153l176 -268l-47 -33l-211 187l-200 -187z" />
<glyph unicode="&#xc3;" horiz-adv-x="1427" d="M0 0v57l156 37l469 1311l69 22l78 39h10l504 -1390l141 -19v-57h-503v57l151 19l-166 473h-495l-158 -461l170 -31v-57h-426zM352 1602q18 53 47 92.5t59 58.5t54 28t41 9q88 0 197 -24.5t143 -24.5q62 0 89 11t56 58l29 -12q-11 -69 -64.5 -131.5t-113.5 -62.5 q-57 0 -173 23.5t-173 23.5q-112 0 -156 -68zM438 633h439l-222 606h-6z" />
<glyph unicode="&#xc4;" horiz-adv-x="1427" d="M0 0v57l156 37l469 1311l69 22l78 39h10l504 -1390l141 -19v-57h-503v57l151 19l-166 473h-495l-158 -461l170 -31v-57h-426zM393 1710q0 47 34 81t81 34t81 -34t34 -81t-34 -81t-81 -34t-81 34t-34 81zM438 633h439l-222 606h-6zM758 1710q0 47 33.5 81t80.5 34t81 -34 t34 -81t-34 -81t-81 -34t-80.5 34t-33.5 81z" />
<glyph unicode="&#xc5;" horiz-adv-x="1427" d="M0 0v57l156 37l469 1311l69 22l78 39h10l504 -1390l141 -19v-57h-503v57l151 19l-166 473h-495l-158 -461l170 -31v-57h-426zM438 633h439l-222 606h-6zM518 1700q0 74 55.5 126t139.5 52q83 0 135.5 -46t52.5 -120q0 -82 -54.5 -135t-139.5 -53q-84 0 -136.5 52 t-52.5 124zM594 1704q0 -48 31.5 -84.5t81.5 -36.5q58 0 88 34.5t30 84.5q0 56 -30 88.5t-88 32.5q-52 0 -82.5 -33t-30.5 -86z" />
<glyph unicode="&#xc6;" horiz-adv-x="2050" d="M0 0v57l152 37l624 1288l-170 17v59h1067l201 4v-24l-25 -103l41 -233h-53l-127 170q-53 71 -89.5 90.5t-109.5 19.5h-344v-583h150q50 0 82 7.5t56.5 22t42 48t31 73t30.5 109.5h55l-15 -295l15 -313h-55q-40 159 -93 215.5t-149 56.5h-150v-647h441q41 0 66.5 12.5 t60.5 54.5l200 291h56l-88 -274l18 -135v-25h-1143v57l185 19v639h-404l-301 -629l156 -29v-57h-414zM598 799h365v571l-91 4z" />
<glyph unicode="&#xc7;" horiz-adv-x="1327" d="M78 711q0 166 56 312t150.5 247.5t223.5 160t272 58.5q103 0 203 -23.5t160 -52.5l59 70h37l10 -445h-53q-35 64 -56 100t-50.5 82t-52 70.5t-54 51.5t-63.5 39.5t-73 21t-89 8.5q-101 0 -183 -39t-135.5 -103t-89.5 -151t-51.5 -178t-15.5 -188q0 -157 44 -279.5 t121.5 -197.5t178 -113.5t217.5 -38.5q88 0 180 22.5t125.5 37.5t91.5 42l21 -37q-77 -84 -194.5 -142t-248.5 -71l-28 -69q264 -16 264 -168q0 -89 -69 -142t-189 -53q-74 0 -115 25.5t-41 71.5q0 27 19 45t45 18q65 0 65 -51q0 -41 -29 -55q27 -9 58 -9q131 0 131 107 q0 19 -8 34.5t-25.5 26t-36 18t-48.5 12.5t-53.5 8t-60.5 7l70 170h-20q-303 0 -486.5 202t-183.5 538z" />
<glyph unicode="&#xc8;" horiz-adv-x="1337" d="M66 0v57l184 19v1304l-184 21v57h895l200 4l17 -360h-54l-127 170q-53 71 -89 90.5t-109 19.5h-344v-583h149q50 0 82 7.5t56.5 22t42 48t31 73t30.5 109.5h55l-14 -295l14 -313h-55q-40 159 -93 215.5t-149 56.5h-149v-647h440q41 0 66.5 12.5t60.5 54.5l201 291h55 l-70 -434h-1142zM406 1749l102 135l342 -270l-37 -49z" />
<glyph unicode="&#xc9;" horiz-adv-x="1337" d="M66 0v57l184 19v1304l-184 21v57h895l200 4l17 -360h-54l-127 170q-53 71 -89 90.5t-109 19.5h-344v-583h149q50 0 82 7.5t56.5 22t42 48t31 73t30.5 109.5h55l-14 -295l14 -313h-55q-40 159 -93 215.5t-149 56.5h-149v-647h440q41 0 66.5 12.5t60.5 54.5l201 291h55 l-70 -434h-1142zM627 1614l342 270l102 -135l-407 -184z" />
<glyph unicode="&#xca;" horiz-adv-x="1337" d="M66 0v57l184 19v1304l-184 21v57h895l200 4l17 -360h-54l-127 170q-53 71 -89 90.5t-109 19.5h-344v-583h149q50 0 82 7.5t56.5 22t42 48t31 73t30.5 109.5h55l-14 -295l14 -313h-55q-40 159 -93 215.5t-149 56.5h-149v-647h440q41 0 66.5 12.5t60.5 54.5l201 291h55 l-70 -434h-1142zM457 1579l178 274h153l177 -268l-47 -33l-211 187l-201 -187z" />
<glyph unicode="&#xcb;" horiz-adv-x="1337" d="M66 0v57l184 19v1304l-184 21v57h895l200 4l17 -360h-54l-127 170q-53 71 -89 90.5t-109 19.5h-344v-583h149q50 0 82 7.5t56.5 22t42 48t31 73t30.5 109.5h55l-14 -295l14 -313h-55q-40 159 -93 215.5t-149 56.5h-149v-647h440q41 0 66.5 12.5t60.5 54.5l201 291h55 l-70 -434h-1142zM387 1710q0 47 34 81t81 34t80.5 -34t33.5 -81t-33.5 -81t-80.5 -34t-81 34t-34 81zM752 1710q0 47 33.5 81t80.5 34t81 -34t34 -81t-34 -81t-81 -34t-80.5 34t-33.5 81z" />
<glyph unicode="&#xcc;" horiz-adv-x="704" d="M55 1749l103 135l342 -270l-37 -49zM66 0v57l184 19v1304l-184 21v57h573v-57l-184 -21v-1304l184 -19v-57h-573z" />
<glyph unicode="&#xcd;" horiz-adv-x="704" d="M66 0v57l184 19v1304l-184 21v57h573v-57l-184 -21v-1304l184 -19v-57h-573zM203 1614l342 270l102 -135l-407 -184z" />
<glyph unicode="&#xce;" horiz-adv-x="704" d="M66 0v57l184 19v1304l-184 21v57h573v-57l-184 -21v-1304l184 -19v-57h-573zM106 1579l179 274h153l176 -268l-47 -33l-211 187l-200 -187z" />
<glyph unicode="&#xcf;" horiz-adv-x="704" d="M59 1710q0 47 34 81t81 34t81 -34t34 -81t-34 -81t-81 -34t-81 34t-34 81zM66 0v57l184 19v1304l-184 21v57h573v-57l-184 -21v-1304l184 -19v-57h-573zM424 1710q0 47 34 81t81 34t80.5 -34t33.5 -81t-33.5 -81t-80.5 -34t-81 34t-34 81z" />
<glyph unicode="&#xd0;" horiz-adv-x="1523" d="M90 0v57l184 19v637h-149v84h149v583l-184 21v57h162q80 0 216 1t216 1q361 0 561.5 -187t200.5 -536q0 -158 -58.5 -300.5t-173.5 -250.5t-270 -157q-118 -37 -287 -37q-67 0 -186 4t-186 4h-195zM479 86q108 -12 189 -12q120 0 215 33t159.5 91t107.5 140.5t62 178.5 t19 208q0 155 -33.5 273.5t-104 206.5t-188.5 133.5t-280 45.5q-71 0 -146 -6v-581h338v-84h-338v-627z" />
<glyph unicode="&#xd1;" horiz-adv-x="1429" d="M57 0v57l185 33v1270l-17 18l-168 23v57h389l666 -1044h6v954l-188 33v57h454v-57l-172 -33v-960l2 -414h-77l-793 1272h-8v-1176l174 -33v-57h-453zM401 1602q18 53 47 92.5t59 58.5t54 28t41 9q88 0 197 -24.5t143 -24.5q62 0 89 11t56 58l29 -12q-11 -69 -64.5 -131.5 t-113.5 -62.5q-56 0 -173 23.5t-173 23.5q-112 0 -156 -68z" />
<glyph unicode="&#xd2;" horiz-adv-x="1544" d="M78 723q0 154 47 292t134 244t220.5 168t296.5 62q166 0 299 -58.5t217.5 -160t129 -236t44.5 -289.5q0 -152 -47 -291.5t-133 -247.5t-218.5 -172.5t-291.5 -64.5q-170 0 -304 57t-219.5 159t-130 238.5t-44.5 299.5zM309 719q0 -115 12.5 -209.5t45 -182.5t84 -148 t134 -96t191.5 -36q105 0 186 34.5t133 94t84.5 146.5t46 183.5t13.5 213.5q0 111 -13 207t-46.5 187t-84.5 155.5t-132.5 103.5t-186.5 39q-111 0 -194.5 -38t-134.5 -100t-83 -153.5t-43.5 -187.5t-11.5 -213zM449 1749l102 135l342 -270l-37 -49z" />
<glyph unicode="&#xd3;" horiz-adv-x="1544" d="M78 723q0 154 47 292t134 244t220.5 168t296.5 62q166 0 299 -58.5t217.5 -160t129 -236t44.5 -289.5q0 -152 -47 -291.5t-133 -247.5t-218.5 -172.5t-291.5 -64.5q-170 0 -304 57t-219.5 159t-130 238.5t-44.5 299.5zM309 719q0 -115 12.5 -209.5t45 -182.5t84 -148 t134 -96t191.5 -36q105 0 186 34.5t133 94t84.5 146.5t46 183.5t13.5 213.5q0 111 -13 207t-46.5 187t-84.5 155.5t-132.5 103.5t-186.5 39q-111 0 -194.5 -38t-134.5 -100t-83 -153.5t-43.5 -187.5t-11.5 -213zM641 1614l342 270l102 -135l-407 -184z" />
<glyph unicode="&#xd4;" horiz-adv-x="1544" d="M78 723q0 154 47 292t134 244t220.5 168t296.5 62q166 0 299 -58.5t217.5 -160t129 -236t44.5 -289.5q0 -152 -47 -291.5t-133 -247.5t-218.5 -172.5t-291.5 -64.5q-170 0 -304 57t-219.5 159t-130 238.5t-44.5 299.5zM309 719q0 -115 12.5 -209.5t45 -182.5t84 -148 t134 -96t191.5 -36q105 0 186 34.5t133 94t84.5 146.5t46 183.5t13.5 213.5q0 111 -13 207t-46.5 187t-84.5 155.5t-132.5 103.5t-186.5 39q-111 0 -194.5 -38t-134.5 -100t-83 -153.5t-43.5 -187.5t-11.5 -213zM516 1579l178 274h154l176 -268l-47 -33l-211 187l-201 -187z " />
<glyph unicode="&#xd5;" horiz-adv-x="1544" d="M78 723q0 154 47 292t134 244t220.5 168t296.5 62q166 0 299 -58.5t217.5 -160t129 -236t44.5 -289.5q0 -152 -47 -291.5t-133 -247.5t-218.5 -172.5t-291.5 -64.5q-170 0 -304 57t-219.5 159t-130 238.5t-44.5 299.5zM309 719q0 -115 12.5 -209.5t45 -182.5t84 -148 t134 -96t191.5 -36q105 0 186 34.5t133 94t84.5 146.5t46 183.5t13.5 213.5q0 111 -13 207t-46.5 187t-84.5 155.5t-132.5 103.5t-186.5 39q-111 0 -194.5 -38t-134.5 -100t-83 -153.5t-43.5 -187.5t-11.5 -213zM414 1602q18 53 46.5 92t58.5 58.5t54 28.5t41 9 q88 0 197 -24.5t143 -24.5q62 0 89.5 11t56.5 58l28 -12q-11 -69 -64.5 -131.5t-113.5 -62.5q-56 0 -173 23.5t-173 23.5q-111 0 -155 -68z" />
<glyph unicode="&#xd6;" horiz-adv-x="1544" d="M78 723q0 154 47 292t134 244t220.5 168t296.5 62q166 0 299 -58.5t217.5 -160t129 -236t44.5 -289.5q0 -152 -47 -291.5t-133 -247.5t-218.5 -172.5t-291.5 -64.5q-170 0 -304 57t-219.5 159t-130 238.5t-44.5 299.5zM309 719q0 -115 12.5 -209.5t45 -182.5t84 -148 t134 -96t191.5 -36q105 0 186 34.5t133 94t84.5 146.5t46 183.5t13.5 213.5q0 111 -13 207t-46.5 187t-84.5 155.5t-132.5 103.5t-186.5 39q-111 0 -194.5 -38t-134.5 -100t-83 -153.5t-43.5 -187.5t-11.5 -213zM485 1710q0 47 34 81t81 34t81 -34t34 -81t-34 -81t-81 -34 t-81 34t-34 81zM850 1710q0 47 34 81t81 34t80.5 -34t33.5 -81t-33.5 -81t-80.5 -34t-81 34t-34 81z" />
<glyph unicode="&#xd7;" d="M123 965l63 63l387 -389q69 71 202.5 203.5t185.5 185.5l63 -61l-387 -389l387 -388l-63 -63l-388 389l-387 -389l-61 63l385 385z" />
<glyph unicode="&#xd8;" horiz-adv-x="1544" d="M78 723q0 154 47 292t134 244t220.5 168t296.5 62q206 0 361 -90l84 145l71 -28l-92 -160q130 -100 198 -259.5t68 -351.5q0 -152 -47 -291.5t-133 -247.5t-218.5 -172.5t-291.5 -64.5q-185 0 -330 68l-90 -158l-67 37l90 158q-148 95 -224.5 264t-76.5 385zM309 719 q0 -370 135 -533l631 1104q-118 121 -299 121q-111 0 -194.5 -38t-134.5 -100t-83 -153.5t-43.5 -187.5t-11.5 -213zM500 131q108 -84 276 -84q105 0 186 34.5t133 94t84.5 146.5t46 183.5t13.5 213.5q0 323 -113 506z" />
<glyph unicode="&#xd9;" horiz-adv-x="1550" d="M74 1401v57h573v-57l-184 -21v-805q0 -84 9 -152.5t33.5 -136t65 -113t108 -73.5t157.5 -28q397 0 397 518v778l-189 33v57h449v-57l-170 -33v-848q0 -81 -15.5 -156.5t-53.5 -149t-95.5 -127.5t-147.5 -87t-202 -33q-286 0 -418.5 145t-132.5 425v843zM498 1749l102 135 l342 -270l-37 -49z" />
<glyph unicode="&#xda;" horiz-adv-x="1550" d="M74 1401v57h573v-57l-184 -21v-805q0 -84 9 -152.5t33.5 -136t65 -113t108 -73.5t157.5 -28q397 0 397 518v778l-189 33v57h449v-57l-170 -33v-848q0 -81 -15.5 -156.5t-53.5 -149t-95.5 -127.5t-147.5 -87t-202 -33q-286 0 -418.5 145t-132.5 425v843zM831 1614l343 270 l102 -135l-408 -184z" />
<glyph unicode="&#xdb;" horiz-adv-x="1550" d="M74 1401v57h573v-57l-184 -21v-805q0 -84 9 -152.5t33.5 -136t65 -113t108 -73.5t157.5 -28q397 0 397 518v778l-189 33v57h449v-57l-170 -33v-848q0 -81 -15.5 -156.5t-53.5 -149t-95.5 -127.5t-147.5 -87t-202 -33q-286 0 -418.5 145t-132.5 425v843zM629 1579l178 274 h154l176 -268l-47 -33l-211 187l-201 -187z" />
<glyph unicode="&#xdc;" horiz-adv-x="1550" d="M74 1401v57h573v-57l-184 -21v-805q0 -84 9 -152.5t33.5 -136t65 -113t108 -73.5t157.5 -28q397 0 397 518v778l-189 33v57h449v-57l-170 -33v-848q0 -81 -15.5 -156.5t-53.5 -149t-95.5 -127.5t-147.5 -87t-202 -33q-286 0 -418.5 145t-132.5 425v843zM602 1710 q0 47 34 81t81 34t80.5 -34t33.5 -81t-33.5 -81t-80.5 -34t-81 34t-34 81zM967 1710q0 47 33.5 81t80.5 34t81 -34t34 -81t-34 -81t-81 -34t-80.5 34t-33.5 81z" />
<glyph unicode="&#xdd;" horiz-adv-x="1277" d="M-12 1399v59h540v-59l-174 -17l348 -610l338 598l-159 29v59h409v-59l-143 -35l-404 -676v-612l185 -19v-57h-574v57l185 19v612l-400 686zM649 1614l342 270l103 -135l-408 -184z" />
<glyph unicode="&#xde;" horiz-adv-x="1165" d="M66 0v57l184 19v1304l-184 21v57h573v-57l-184 -21v-225q41 2 149 2q95 0 176 -20t152.5 -64t113 -125t41.5 -192q0 -194 -126.5 -305t-323.5 -111l-182 37v-301l207 -19v-57h-596zM455 432q102 -8 143 -8q75 0 133.5 28.5t93 76.5t51.5 104.5t17 118.5q0 157 -89.5 243 t-244.5 86q-34 0 -104 -4v-645z" />
<glyph unicode="&#xdf;" horiz-adv-x="1300" d="M47 850v51l133 29v49q0 114 34.5 218t98 185.5t164 130t223.5 48.5q180 0 289 -86t109 -218q0 -63 -21.5 -117.5t-55.5 -92.5t-75.5 -71t-82.5 -60.5t-75 -53.5t-55.5 -57t-21.5 -64q0 -21 6.5 -37.5t13 -27t25.5 -21.5t28.5 -15.5t38 -16t39.5 -15.5l146 -59 q45 -18 79 -38.5t67.5 -51.5t51 -76t17.5 -102q0 -137 -100.5 -223.5t-254.5 -86.5q-52 0 -98 7.5t-97.5 21t-78.5 18.5v70l-25 211h52l110 -231q64 -31 143 -31q87 0 140 47.5t53 132.5q0 71 -37.5 114.5t-114.5 76.5l-106 45q-118 48 -171.5 94t-53.5 129q0 52 25 92.5 t93 110.5q11 11 51.5 48t60 59t47 62.5t40 88.5t12.5 106q0 50 -15 90t-40 64.5t-59.5 41t-70.5 23t-77 6.5q-95 0 -165 -47.5t-102 -117t-32 -148.5v-1089l127 -13v-53h-426v53l127 13v784h-133z" />
<glyph unicode="&#xe0;" horiz-adv-x="937" d="M90 182q0 57 31.5 110.5t81 94.5t114.5 75.5t129 56.5t127 36v145q0 94 -51.5 145.5t-154.5 51.5q-79 0 -154 -57v-4q42 -13 66 -36t24 -71q0 -46 -31 -70t-63 -24q-52 0 -77.5 28.5t-25.5 73.5q0 67 57 124t142 87.5t172 30.5q262 0 262 -225v-555q0 -78 64 -78 q65 0 65 100l37 -2q0 -239 -174 -239q-67 0 -107 50.5t-46 123.5h-5q-33 -78 -103.5 -130.5t-160.5 -52.5q-98 0 -158.5 57.5t-60.5 153.5zM172 1384l135 89l219 -388l-45 -24zM246 231q0 -62 35 -102.5t96 -40.5q85 0 140.5 51t55.5 121v246q-39 -9 -80.5 -24.5 t-86.5 -40.5t-80 -55t-57.5 -70.5t-22.5 -84.5z" />
<glyph unicode="&#xe1;" horiz-adv-x="937" d="M90 182q0 57 31.5 110.5t81 94.5t114.5 75.5t129 56.5t127 36v145q0 94 -51.5 145.5t-154.5 51.5q-79 0 -154 -57v-4q42 -13 66 -36t24 -71q0 -46 -31 -70t-63 -24q-52 0 -77.5 28.5t-25.5 73.5q0 67 57 124t142 87.5t172 30.5q262 0 262 -225v-555q0 -78 64 -78 q65 0 65 100l37 -2q0 -239 -174 -239q-67 0 -107 50.5t-46 123.5h-5q-33 -78 -103.5 -130.5t-160.5 -52.5q-98 0 -158.5 57.5t-60.5 153.5zM246 231q0 -62 35 -102.5t96 -40.5q85 0 140.5 51t55.5 121v246q-39 -9 -80.5 -24.5t-86.5 -40.5t-80 -55t-57.5 -70.5t-22.5 -84.5z M356 1085l219 388l136 -89l-310 -323z" />
<glyph unicode="&#xe2;" horiz-adv-x="937" d="M90 182q0 57 31.5 110.5t81 94.5t114.5 75.5t129 56.5t127 36v145q0 94 -51.5 145.5t-154.5 51.5q-79 0 -154 -57v-4q42 -13 66 -36t24 -71q0 -46 -31 -70t-63 -24q-52 0 -77.5 28.5t-25.5 73.5q0 67 57 124t142 87.5t172 30.5q262 0 262 -225v-555q0 -78 64 -78 q65 0 65 100l37 -2q0 -239 -174 -239q-67 0 -107 50.5t-46 123.5h-5q-33 -78 -103.5 -130.5t-160.5 -52.5q-98 0 -158.5 57.5t-60.5 153.5zM172 1079l180 351h154l182 -347l-53 -24l-211 256l-201 -256zM246 231q0 -62 35 -102.5t96 -40.5q85 0 140.5 51t55.5 121v246 q-39 -9 -80.5 -24.5t-86.5 -40.5t-80 -55t-57.5 -70.5t-22.5 -84.5z" />
<glyph unicode="&#xe3;" horiz-adv-x="937" d="M90 182q0 57 31.5 110.5t81 94.5t114.5 75.5t129 56.5t127 36v145q0 94 -51.5 145.5t-154.5 51.5q-79 0 -154 -57v-4q42 -13 66 -36t24 -71q0 -46 -31 -70t-63 -24q-52 0 -77.5 28.5t-25.5 73.5q0 67 57 124t142 87.5t172 30.5q262 0 262 -225v-555q0 -78 64 -78 q65 0 65 100l37 -2q0 -239 -174 -239q-67 0 -107 50.5t-46 123.5h-5q-33 -78 -103.5 -130.5t-160.5 -52.5q-98 0 -158.5 57.5t-60.5 153.5zM121 1112q17 50 44 88t55 56.5t50.5 27t38.5 8.5q82 0 171.5 -23.5t121.5 -23.5q58 0 83.5 11.5t53.5 56.5l27 -13q-11 -66 -61 -126 t-105 -60q-53 0 -150 22.5t-149 22.5q-103 0 -147 -65zM246 231q0 -62 35 -102.5t96 -40.5q85 0 140.5 51t55.5 121v246q-39 -9 -80.5 -24.5t-86.5 -40.5t-80 -55t-57.5 -70.5t-22.5 -84.5z" />
<glyph unicode="&#xe4;" horiz-adv-x="937" d="M90 182q0 57 31.5 110.5t81 94.5t114.5 75.5t129 56.5t127 36v145q0 94 -51.5 145.5t-154.5 51.5q-79 0 -154 -57v-4q42 -13 66 -36t24 -71q0 -46 -31 -70t-63 -24q-52 0 -77.5 28.5t-25.5 73.5q0 67 57 124t142 87.5t172 30.5q262 0 262 -225v-555q0 -78 64 -78 q65 0 65 100l37 -2q0 -239 -174 -239q-67 0 -107 50.5t-46 123.5h-5q-33 -78 -103.5 -130.5t-160.5 -52.5q-98 0 -158.5 57.5t-60.5 153.5zM150 1225q0 46 31 77t77 31q45 0 77 -31.5t32 -76.5t-32 -77t-77 -32q-46 0 -77 31.5t-31 77.5zM246 231q0 -62 35 -102.5t96 -40.5 q85 0 140.5 51t55.5 121v246q-39 -9 -80.5 -24.5t-86.5 -40.5t-80 -55t-57.5 -70.5t-22.5 -84.5zM496 1225q0 45 31.5 76.5t76.5 31.5q46 0 77.5 -31t31.5 -77t-31.5 -77.5t-77.5 -31.5q-44 0 -76 32t-32 77z" />
<glyph unicode="&#xe5;" horiz-adv-x="937" d="M90 182q0 57 31.5 110.5t81 94.5t114.5 75.5t129 56.5t127 36v145q0 94 -51.5 145.5t-154.5 51.5q-79 0 -154 -57v-4q42 -13 66 -36t24 -71q0 -46 -31 -70t-63 -24q-52 0 -77.5 28.5t-25.5 73.5q0 67 57 124t142 87.5t172 30.5q262 0 262 -225v-555q0 -78 64 -78 q65 0 65 100l37 -2q0 -239 -174 -239q-67 0 -107 50.5t-46 123.5h-5q-33 -78 -103.5 -130.5t-160.5 -52.5q-98 0 -158.5 57.5t-60.5 153.5zM246 231q0 -62 35 -102.5t96 -40.5q85 0 140.5 51t55.5 121v246q-39 -9 -80.5 -24.5t-86.5 -40.5t-80 -55t-57.5 -70.5t-22.5 -84.5z M248 1268q0 75 55 126.5t139 51.5q83 0 136 -46t53 -120q0 -82 -55 -135t-140 -53q-83 0 -135.5 52t-52.5 124zM324 1272q0 -48 31 -84.5t81 -36.5q58 0 88.5 34.5t30.5 84.5q0 56 -31.5 89.5t-89.5 33.5q-51 0 -80.5 -33.5t-29.5 -87.5z" />
<glyph unicode="&#xe6;" horiz-adv-x="1458" d="M115 182q0 57 31.5 110.5t81 94.5t114.5 75.5t129 56.5t127 36v145q0 94 -51.5 145.5t-155.5 51.5q-19 0 -37 -3t-30 -7t-27.5 -11.5t-22 -11.5t-20.5 -13.5t-16 -10.5v-4q42 -13 66 -36t24 -71q0 -46 -31.5 -70t-63.5 -24q-52 0 -77 28.5t-25 73.5q0 67 58.5 124 t145 87.5t173.5 30.5q103 0 157 -34.5t83 -102.5q130 137 313 137q161 0 244.5 -89.5t83.5 -230.5q0 -63 -11 -100h-614v-117q7 -63 27 -118t56 -104.5t95.5 -78t136.5 -28.5q132 0 285 80l12 -15q-20 -73 -122 -140t-220 -67q-283 0 -387 219q-50 -103 -136 -159.5 t-177 -59.5q-98 0 -158.5 57.5t-60.5 153.5zM270 231q0 -62 30.5 -102.5t82.5 -40.5q89 0 149 52.5t86 129.5q-20 76 -20 174v62q-51 -12 -103.5 -34t-105 -55.5t-86 -82.5t-33.5 -103zM768 627h451q4 29 4 47q0 104 -54.5 166.5t-150.5 62.5q-61 0 -109 -28t-76 -73.5 t-43 -88t-22 -86.5z" />
<glyph unicode="&#xe7;" horiz-adv-x="905" d="M66 442q0 118 38 219.5t102.5 170.5t151.5 108t185 39q146 0 219.5 -54.5t73.5 -125.5q0 -53 -32.5 -86t-78.5 -33q-47 0 -78 26t-31 78q0 28 16.5 54t45.5 41v6q-53 20 -143 20q-142 0 -225 -105.5t-83 -283.5q0 -55 8.5 -107.5t31 -106.5t57 -94t90 -65.5t125.5 -25.5 q72 0 132 13t91 27t69 36l13 -15q-35 -85 -126.5 -146t-215.5 -61h-15l-28 -65q264 -16 264 -168q0 -89 -69 -142t-189 -53q-74 0 -115 25.5t-41 71.5q0 27 19 45t45 18q65 0 65 -51q0 -42 -28 -55q27 -9 57 -9q131 0 131 107q0 23 -13 40.5t-32 28t-53 18t-61 11.5t-72 8 l71 174q-83 8 -148 39.5t-106.5 76.5t-68.5 104t-38 119.5t-11 127.5z" />
<glyph unicode="&#xe8;" horiz-adv-x="925" d="M66 444q0 143 58 265t165 196t239 74q161 0 244.5 -89.5t83.5 -230.5q0 -67 -10 -100h-617l-1 -19q-1 -20 -1 -26q0 -68 16 -133.5t50.5 -128t100 -101t153.5 -38.5q131 0 284 80l13 -15q-20 -73 -122 -140t-220 -67q-111 0 -196 36t-137 100.5t-77.5 149t-25.5 187.5z M195 1384l135 89l219 -388l-45 -24zM236 627h450q4 29 4 47q0 104 -54.5 166.5t-150.5 62.5q-50 0 -91 -19.5t-67.5 -48.5t-46 -68t-29.5 -72.5t-15 -67.5z" />
<glyph unicode="&#xe9;" horiz-adv-x="925" d="M66 444q0 143 58 265t165 196t239 74q161 0 244.5 -89.5t83.5 -230.5q0 -67 -10 -100h-617l-1 -19q-1 -20 -1 -26q0 -68 16 -133.5t50.5 -128t100 -101t153.5 -38.5q131 0 284 80l13 -15q-20 -73 -122 -140t-220 -67q-111 0 -196 36t-137 100.5t-77.5 149t-25.5 187.5z M236 627h450q4 29 4 47q0 104 -54.5 166.5t-150.5 62.5q-50 0 -91 -19.5t-67.5 -48.5t-46 -68t-29.5 -72.5t-15 -67.5zM410 1085l219 388l135 -89l-309 -323z" />
<glyph unicode="&#xea;" horiz-adv-x="925" d="M66 444q0 143 58 265t165 196t239 74q161 0 244.5 -89.5t83.5 -230.5q0 -67 -10 -100h-617l-1 -19q-1 -20 -1 -26q0 -68 16 -133.5t50.5 -128t100 -101t153.5 -38.5q131 0 284 80l13 -15q-20 -73 -122 -140t-220 -67q-111 0 -196 36t-137 100.5t-77.5 149t-25.5 187.5z M236 627h450q4 29 4 47q0 104 -54.5 166.5t-150.5 62.5q-50 0 -91 -19.5t-67.5 -48.5t-46 -68t-29.5 -72.5t-15 -67.5zM240 1079l180 351h153l183 -347l-54 -24l-210 256l-201 -256z" />
<glyph unicode="&#xeb;" horiz-adv-x="925" d="M66 444q0 143 58 265t165 196t239 74q161 0 244.5 -89.5t83.5 -230.5q0 -67 -10 -100h-617l-1 -19q-1 -20 -1 -26q0 -68 16 -133.5t50.5 -128t100 -101t153.5 -38.5q131 0 284 80l13 -15q-20 -73 -122 -140t-220 -67q-111 0 -196 36t-137 100.5t-77.5 149t-25.5 187.5z M227 1225q0 46 31.5 77t77.5 31q45 0 76.5 -31.5t31.5 -76.5t-32 -77t-76 -32q-46 0 -77.5 31.5t-31.5 77.5zM236 627h450q4 29 4 47q0 104 -54.5 166.5t-150.5 62.5q-50 0 -91 -19.5t-67.5 -48.5t-46 -68t-29.5 -72.5t-15 -67.5zM573 1225q0 45 32 76.5t77 31.5 q46 0 77.5 -31t31.5 -77t-31.5 -77.5t-77.5 -31.5q-45 0 -77 32t-32 77z" />
<glyph unicode="&#xec;" horiz-adv-x="518" d="M-55 1384l135 89l219 -388l-45 -24zM45 0v49l127 12v779l-127 24v39l287 58h16q0 -3 -2 -101t-2 -207v-592l127 -12v-49h-426z" />
<glyph unicode="&#xed;" horiz-adv-x="518" d="M45 0v49l127 12v779l-127 24v39l287 58h16q0 -3 -2 -101t-2 -207v-592l127 -12v-49h-426zM115 1085l219 388l135 -89l-309 -323z" />
<glyph unicode="&#xee;" horiz-adv-x="518" d="M-8 1079l180 351h154l182 -347l-53 -24l-211 256l-201 -256zM45 0v49l127 12v779l-127 24v39l287 58h16q0 -3 -2 -101t-2 -207v-592l127 -12v-49h-426z" />
<glyph unicode="&#xef;" horiz-adv-x="518" d="M-57 1225q0 46 31 77t77 31q45 0 77 -31.5t32 -76.5t-32 -77t-77 -32q-46 0 -77 31.5t-31 77.5zM45 0v49l127 12v779l-127 24v39l287 58h16q0 -3 -2 -101t-2 -207v-592l127 -12v-49h-426zM289 1225q0 45 31.5 76.5t76.5 31.5q46 0 77.5 -31t31.5 -77t-31.5 -77.5 t-77.5 -31.5q-45 0 -76.5 32t-31.5 77z" />
<glyph unicode="&#xf0;" horiz-adv-x="1015" d="M66 463q0 221 128.5 368.5t313.5 147.5q70 0 109.5 -9t78.5 -30q-69 158 -168 291l-323 -123l-23 72l297 112q-104 126 -211 203l25 29q165 -46 313 -185l264 101l23 -72l-231 -88q133 -152 209.5 -352t76.5 -393q0 -84 -14.5 -162.5t-47.5 -152.5t-82.5 -128.5 t-125.5 -87.5t-170 -33q-184 0 -313 138.5t-129 353.5zM252 510q0 -233 58.5 -350t199.5 -117q55 0 97.5 20t69 57.5t44 80.5t25.5 102t11 106.5t3 108.5q0 83 -13 175.5t-32 152.5q-27 25 -85 42t-110 17q-268 0 -268 -395z" />
<glyph unicode="&#xf1;" horiz-adv-x="1075" d="M45 0v49l127 12v779l-127 24v39l270 58h17l12 -150q59 78 142.5 123t164.5 45q127 0 188.5 -64t61.5 -163v-691l127 -12v-49h-426v49l127 12v619q0 38 -6 67.5t-22.5 60t-52.5 47.5t-89 17q-42 0 -80.5 -16t-65 -41t-42.5 -46t-27 -42v-666l127 -12v-49h-426zM215 1112 q17 50 44 88t55 56.5t50.5 27t38.5 8.5q82 0 171.5 -23.5t121.5 -23.5q58 0 84 11.5t54 56.5l26 -13q-11 -66 -61 -126t-105 -60q-53 0 -150 22.5t-149 22.5q-103 0 -147 -65z" />
<glyph unicode="&#xf2;" horiz-adv-x="1015" d="M66 463q0 135 53 252t156 190.5t233 73.5q203 0 322.5 -133t119.5 -354q0 -101 -30 -194.5t-85 -166.5t-140 -116.5t-187 -43.5q-200 0 -321 138.5t-121 353.5zM223 1384l135 89l220 -388l-46 -24zM256 477q0 -442 252 -442q71 0 122.5 37.5t78.5 103t39 139.5t12 162 q0 97 -12 172t-39.5 136.5t-77.5 94.5t-121 33q-254 0 -254 -436z" />
<glyph unicode="&#xf3;" horiz-adv-x="1015" d="M66 463q0 135 53 252t156 190.5t233 73.5q203 0 322.5 -133t119.5 -354q0 -101 -30 -194.5t-85 -166.5t-140 -116.5t-187 -43.5q-200 0 -321 138.5t-121 353.5zM256 477q0 -442 252 -442q71 0 122.5 37.5t78.5 103t39 139.5t12 162q0 97 -12 172t-39.5 136.5t-77.5 94.5 t-121 33q-254 0 -254 -436zM410 1085l219 388l135 -89l-309 -323z" />
<glyph unicode="&#xf4;" horiz-adv-x="1015" d="M66 463q0 135 53 252t156 190.5t233 73.5q203 0 322.5 -133t119.5 -354q0 -101 -30 -194.5t-85 -166.5t-140 -116.5t-187 -43.5q-200 0 -321 138.5t-121 353.5zM219 1079l180 351h154l182 -347l-53 -24l-211 256l-201 -256zM256 477q0 -442 252 -442q71 0 122.5 37.5 t78.5 103t39 139.5t12 162q0 97 -12 172t-39.5 136.5t-77.5 94.5t-121 33q-254 0 -254 -436z" />
<glyph unicode="&#xf5;" horiz-adv-x="1015" d="M66 463q0 135 53 252t156 190.5t233 73.5q203 0 322.5 -133t119.5 -354q0 -101 -30 -194.5t-85 -166.5t-140 -116.5t-187 -43.5q-200 0 -321 138.5t-121 353.5zM184 1112q17 50 44.5 88t55.5 56.5t50.5 27t38.5 8.5q82 0 171.5 -23.5t121.5 -23.5q58 0 83.5 11.5 t53.5 56.5l26 -13q-11 -66 -60.5 -126t-104.5 -60q-53 0 -150 22.5t-149 22.5q-104 0 -148 -65zM256 477q0 -442 252 -442q71 0 122.5 37.5t78.5 103t39 139.5t12 162q0 97 -12 172t-39.5 136.5t-77.5 94.5t-121 33q-254 0 -254 -436z" />
<glyph unicode="&#xf6;" horiz-adv-x="1015" d="M66 463q0 135 53 252t156 190.5t233 73.5q203 0 322.5 -133t119.5 -354q0 -101 -30 -194.5t-85 -166.5t-140 -116.5t-187 -43.5q-200 0 -321 138.5t-121 353.5zM231 1225q0 46 31.5 77t77.5 31q45 0 77 -31.5t32 -76.5t-32 -77t-77 -32q-46 0 -77.5 31.5t-31.5 77.5z M256 477q0 -442 252 -442q71 0 122.5 37.5t78.5 103t39 139.5t12 162q0 97 -12 172t-39.5 136.5t-77.5 94.5t-121 33q-254 0 -254 -436zM578 1225q0 45 31.5 76.5t76.5 31.5q46 0 77.5 -31t31.5 -77t-31.5 -77.5t-77.5 -31.5q-44 0 -76 32t-32 77z" />
<glyph unicode="&#xf7;" d="M119 532v91h909v-91h-909zM463 285q0 46 32 77t78 31t78.5 -31.5t32.5 -76.5q0 -44 -32.5 -76.5t-78.5 -32.5q-45 0 -77.5 32t-32.5 77zM463 874q0 44 32.5 76.5t77.5 32.5q46 0 78.5 -32.5t32.5 -76.5q0 -46 -32.5 -78t-78.5 -32t-78 32t-32 78z" />
<glyph unicode="&#xf8;" horiz-adv-x="1015" d="M66 463q0 135 53 252t156 190.5t233 73.5q81 0 151 -25l50 129l65 -24l-49 -131q107 -58 166 -171t59 -265q0 -101 -30 -194.5t-85 -166.5t-140 -116.5t-187 -43.5q-60 0 -135 21l-47 -129l-68 20l49 133q-114 57 -177.5 175t-63.5 272zM256 477q0 -260 88 -366l287 768 q-49 34 -121 34q-254 0 -254 -436zM399 61q45 -26 109 -26q71 0 122.5 37.5t78.5 103t39 139.5t12 162q0 237 -74 346z" />
<glyph unicode="&#xf9;" horiz-adv-x="1071" d="M41 897v43l289 21h16l-6 -277v-383q0 -35 3.5 -62.5t14 -57.5t29 -49.5t50.5 -32.5t75 -13q120 0 207 123v665l-123 23v47l289 17h12l-6 -277v-598l131 -12v-41l-277 -49h-16l-8 163q-58 -84 -139 -129t-174 -45q-47 0 -89 14t-77 41.5t-55.5 75.5t-20.5 111v659z M236 1384l135 89l219 -388l-45 -24z" />
<glyph unicode="&#xfa;" horiz-adv-x="1071" d="M41 897v43l289 21h16l-6 -277v-383q0 -35 3.5 -62.5t14 -57.5t29 -49.5t50.5 -32.5t75 -13q120 0 207 123v665l-123 23v47l289 17h12l-6 -277v-598l131 -12v-41l-277 -49h-16l-8 163q-58 -84 -139 -129t-174 -45q-47 0 -89 14t-77 41.5t-55.5 75.5t-20.5 111v659z M475 1085l219 388l135 -89l-309 -323z" />
<glyph unicode="&#xfb;" horiz-adv-x="1071" d="M41 897v43l289 21h16l-6 -277v-383q0 -35 3.5 -62.5t14 -57.5t29 -49.5t50.5 -32.5t75 -13q120 0 207 123v665l-123 23v47l289 17h12l-6 -277v-598l131 -12v-41l-277 -49h-16l-8 163q-58 -84 -139 -129t-174 -45q-47 0 -89 14t-77 41.5t-55.5 75.5t-20.5 111v659z M256 1079l180 351h154l182 -347l-53 -24l-211 256l-201 -256z" />
<glyph unicode="&#xfc;" horiz-adv-x="1071" d="M41 897v43l289 21h16l-6 -277v-383q0 -35 3.5 -62.5t14 -57.5t29 -49.5t50.5 -32.5t75 -13q120 0 207 123v665l-123 23v47l289 17h12l-6 -277v-598l131 -12v-41l-277 -49h-16l-8 163q-58 -84 -139 -129t-174 -45q-47 0 -89 14t-77 41.5t-55.5 75.5t-20.5 111v659z M293 1225q0 46 31 77t77 31q45 0 77 -31.5t32 -76.5t-32 -77t-77 -32q-46 0 -77 31.5t-31 77.5zM639 1225q0 45 32 76.5t77 31.5q46 0 77 -31t31 -77t-31 -77.5t-77 -31.5q-45 0 -77 32t-32 77z" />
<glyph unicode="&#xfd;" horiz-adv-x="964" d="M-2 903v51h428v-51l-129 -8l248 -614h4l215 604l-125 18v51h326v-51l-117 -22l-406 -1094q-81 -223 -264 -223q-77 0 -127.5 39t-50.5 116q0 42 29.5 80.5t93.5 38.5q38 0 68 -26t30 -70q0 -75 -61 -98v-6q28 -7 37 -7q64 0 103 42t73 137l86 241l-342 828zM512 1085 l219 388l135 -89l-309 -323z" />
<glyph unicode="&#xfe;" horiz-adv-x="1079" d="M41 -410l127 13v1794l-125 24v41l152 29l131 45h18l-4 -551v-164q57 72 141.5 115t143.5 43q82 0 148 -24.5t110.5 -67t74.5 -101t43 -124.5t13 -140q0 -150 -56.5 -275t-161.5 -199.5t-237 -74.5q-127 0 -219 58v-426l137 -15v-49h-436v49zM340 223q48 -186 213 -186 q97 0 163.5 56.5t97 150.5t30.5 219q0 163 -80.5 279t-224.5 116q-67 0 -122 -32.5t-77 -75.5v-527z" />
<glyph unicode="&#xff;" horiz-adv-x="964" d="M-2 903v51h428v-51l-129 -8l248 -614h4l215 604l-125 18v51h326v-51l-117 -22l-406 -1094q-81 -223 -264 -223q-77 0 -127.5 39t-50.5 116q0 42 29.5 80.5t93.5 38.5q38 0 68 -26t30 -70q0 -75 -61 -98v-6q28 -7 37 -7q64 0 103 42t73 137l86 241l-342 828zM213 1225 q0 46 31.5 77t77.5 31q45 0 76.5 -31.5t31.5 -76.5t-32 -77t-76 -32q-46 0 -77.5 31.5t-31.5 77.5zM559 1225q0 45 32 76.5t77 31.5q46 0 77 -31t31 -77t-31 -77.5t-77 -31.5q-45 0 -77 32t-32 77z" />
<glyph unicode="&#x152;" horiz-adv-x="2154" d="M78 723q0 154 48.5 290.5t136.5 239.5t223 163.5t298 60.5q68 0 325 -9.5t325 -9.5h370l174 4v-24l-24 -103l41 -233h-53l-127 170q-53 71 -89.5 90.5t-109.5 19.5h-344v-583h149q50 0 82 7.5t56.5 22t42 48t31 73t30.5 109.5h55l-14 -295l14 -313h-55q-40 159 -93 215.5 t-149 56.5h-149v-647h440q41 0 66.5 12.5t60.5 54.5l201 291h55l-88 -274l18 -135v-25h-790q-67 0 -257.5 -9t-223.5 -9q-161 0 -290 55t-213 154t-128.5 234.5t-44.5 297.5zM309 719q0 -139 32 -256t96 -208t169.5 -142.5t243.5 -51.5q90 0 217 15v1300q-141 25 -283 25 q-99 0 -179.5 -36t-135 -98.5t-91 -150t-53 -186.5t-16.5 -211z" />
<glyph unicode="&#x153;" horiz-adv-x="1652" d="M66 463q0 135 53 252t156 190.5t233 73.5q127 0 223.5 -55.5t153.5 -155.5q63 98 159 154.5t211 56.5q161 0 244.5 -89.5t83.5 -230.5q0 -67 -10 -100h-617l-1 -19q-1 -20 -1 -26q0 -68 16 -133.5t50.5 -128t100 -101t153.5 -38.5q132 0 285 80l12 -15q-20 -73 -122 -140 t-220 -67q-262 0 -373 191q-58 -90 -146.5 -140.5t-201.5 -50.5q-200 0 -321 138.5t-121 353.5zM256 477q0 -442 252 -442q71 0 122.5 37.5t78.5 103t39 139.5t12 162q0 97 -12 172t-39.5 136.5t-77.5 94.5t-121 33q-254 0 -254 -436zM963 627h450q4 29 4 47 q0 104 -54.5 166.5t-150.5 62.5q-50 0 -91 -19.5t-67.5 -48.5t-46 -68t-29.5 -72.5t-15 -67.5z" />
<glyph unicode="&#x178;" horiz-adv-x="1277" d="M-12 1399v59h540v-59l-174 -17l348 -610l338 598l-159 29v59h409v-59l-143 -35l-404 -676v-612l185 -19v-57h-574v57l185 19v612l-400 686zM438 1710q0 47 34 81t81 34t81 -34t34 -81t-34 -81t-81 -34t-81 34t-34 81zM803 1710q0 47 34 81t81 34t80.5 -34t33.5 -81 t-33.5 -81t-80.5 -34t-81 34t-34 81z" />
<glyph unicode="&#x2c6;" horiz-adv-x="720" d="M102 1079l181 351h153l182 -347l-53 -24l-211 256l-200 -256z" />
<glyph unicode="&#x2dc;" horiz-adv-x="819" d="M84 1112q17 50 44 88t55 56.5t50.5 27t38.5 8.5q82 0 171.5 -23.5t121.5 -23.5q58 0 83.5 11.5t53.5 56.5l27 -13q-11 -66 -61 -126t-105 -60q-53 0 -150 22.5t-149 22.5q-103 0 -147 -65z" />
<glyph unicode="&#x2000;" horiz-adv-x="942" />
<glyph unicode="&#x2001;" horiz-adv-x="1884" />
<glyph unicode="&#x2002;" horiz-adv-x="942" />
<glyph unicode="&#x2003;" horiz-adv-x="1884" />
<glyph unicode="&#x2004;" horiz-adv-x="628" />
<glyph unicode="&#x2005;" horiz-adv-x="471" />
<glyph unicode="&#x2006;" horiz-adv-x="314" />
<glyph unicode="&#x2007;" horiz-adv-x="314" />
<glyph unicode="&#x2008;" horiz-adv-x="235" />
<glyph unicode="&#x2009;" horiz-adv-x="376" />
<glyph unicode="&#x200a;" horiz-adv-x="104" />
<glyph unicode="&#x2010;" horiz-adv-x="602" d="M66 504v129h471v-129h-471z" />
<glyph unicode="&#x2011;" horiz-adv-x="602" d="M66 504v129h471v-129h-471z" />
<glyph unicode="&#x2012;" horiz-adv-x="602" d="M66 504v129h471v-129h-471z" />
<glyph unicode="&#x2013;" horiz-adv-x="854" d="M0 539v98h854v-98h-854z" />
<glyph unicode="&#x2014;" horiz-adv-x="1433" d="M0 539v98h1434v-98h-1434z" />
<glyph unicode="&#x2018;" horiz-adv-x="417" d="M82 1176q0 194 205 317l35 -43q-67 -49 -106.5 -107.5t-39.5 -113.5q0 -23 4 -33q26 35 62 35q44 0 69 -29.5t25 -75.5t-31 -78t-78 -32q-65 0 -105 48.5t-40 111.5z" />
<glyph unicode="&#x2019;" horiz-adv-x="417" d="M82 1380q0 46 30.5 78.5t77.5 32.5q66 0 106 -48.5t40 -111.5q0 -194 -205 -317l-35 43q67 49 106.5 107.5t39.5 113.5q0 23 -4 33q-26 -35 -62 -35q-44 0 -69 29t-25 75z" />
<glyph unicode="&#x201a;" horiz-adv-x="417" d="M82 104q0 46 30.5 78.5t77.5 32.5q66 0 106 -48.5t40 -111.5q0 -194 -205 -317l-35 43q67 49 106.5 107.5t39.5 113.5q0 23 -4 33q-26 -35 -62 -35q-44 0 -69 29t-25 75z" />
<glyph unicode="&#x201c;" horiz-adv-x="778" d="M82 1176q0 194 205 317l35 -43q-67 -49 -106.5 -107.5t-39.5 -113.5q0 -23 4 -33q26 35 62 35q44 0 69 -29.5t25 -75.5t-31 -78t-78 -32q-65 0 -105 48.5t-40 111.5zM442 1176q0 194 205 317l35 -43q-66 -49 -105.5 -107t-39.5 -114q0 -23 4 -33q26 35 61 35 q44 0 69 -29.5t25 -75.5t-30.5 -78t-77.5 -32q-66 0 -106 48.5t-40 111.5z" />
<glyph unicode="&#x201d;" horiz-adv-x="778" d="M82 1380q0 46 30.5 78.5t77.5 32.5q66 0 106 -48.5t40 -111.5q0 -194 -205 -317l-35 43q67 49 106.5 107.5t39.5 113.5q0 23 -4 33q-26 -35 -62 -35q-44 0 -69 29t-25 75zM442 1380q0 46 31 78.5t78 32.5q65 0 105 -48.5t40 -111.5q0 -195 -204 -317l-35 43 q66 49 105.5 107t39.5 114q0 23 -4 33q-26 -35 -61 -35q-45 0 -70 29t-25 75z" />
<glyph unicode="&#x201e;" horiz-adv-x="778" d="M82 104q0 46 30.5 78.5t77.5 32.5q66 0 106 -48.5t40 -111.5q0 -194 -205 -317l-35 43q67 49 106.5 107.5t39.5 113.5q0 23 -4 33q-26 -35 -62 -35q-44 0 -69 29t-25 75zM442 104q0 46 31 78.5t78 32.5q65 0 105 -48.5t40 -111.5q0 -195 -204 -317l-35 43 q66 49 105.5 107t39.5 114q0 23 -4 33q-26 -35 -61 -35q-45 0 -70 29t-25 75z" />
<glyph unicode="&#x2022;" horiz-adv-x="878" d="M176 608q0 109 77.5 186.5t186.5 77.5q107 0 184.5 -77.5t77.5 -186.5q0 -108 -76 -185t-184 -77q-109 0 -187.5 77.5t-78.5 184.5z" />
<glyph unicode="&#x2026;" horiz-adv-x="1216" d="M94 102q0 49 34.5 82t82.5 33q50 0 83.5 -33t33.5 -82q0 -48 -34 -83t-83 -35q-47 0 -82 35.5t-35 82.5zM492 102q0 49 34 82t82 33q50 0 83.5 -33t33.5 -82q0 -48 -34 -83t-83 -35q-47 0 -81.5 35.5t-34.5 82.5zM889 102q0 49 34.5 82t82.5 33q50 0 83 -33t33 -82 q0 -48 -33.5 -83t-82.5 -35q-47 0 -82 35.5t-35 82.5z" />
<glyph unicode="&#x202f;" horiz-adv-x="376" />
<glyph unicode="&#x2039;" horiz-adv-x="493" d="M68 457v86l311 286l47 -43l-199 -280l199 -297l-47 -35z" />
<glyph unicode="&#x203a;" horiz-adv-x="493" d="M68 217l198 281l-198 297l47 34l311 -282v-86l-311 -287z" />
<glyph unicode="&#x205f;" horiz-adv-x="471" />
<glyph unicode="&#x20ac;" horiz-adv-x="1222" d="M84 567v86l149 -4q-2 27 -2 78q0 57 5 98l-152 -2v86l162 -4q20 121 67 225.5t117 186t170 128t217 46.5q132 0 218.5 -60.5t86.5 -152.5q0 -55 -32 -90t-78 -35q-50 0 -80.5 30t-30.5 79q0 31 19 60t51 42q-19 23 -68.5 36t-103.5 13q-69 0 -126.5 -30.5t-95.5 -79 t-66.5 -117t-44 -137t-24.5 -146.5l545 6v-86l-551 4q-2 -31 -2 -86q0 -61 2 -94l551 6v-86l-545 4q9 -79 25.5 -149t46.5 -140t70.5 -119.5t101 -80.5t133.5 -31q84 0 148 33q-76 35 -76 113q0 54 30.5 85t79.5 31q62 0 90.5 -36.5t28.5 -83.5q0 -38 -16.5 -75.5 t-50.5 -72.5t-99 -56.5t-151 -21.5q-128 0 -229 44t-169.5 125t-109.5 190t-55 245z" />
<glyph unicode="&#x2122;" horiz-adv-x="1691" d="M70 1282l20 119l-14 43v18h608v-18l-14 -43l20 -119h-35l-98 135h-111v-610l82 -8v-37h-299v37l82 8v610h-108l-99 -135h-34zM752 762v37l82 14v604l-82 10v35h278l144 -430h8l149 430h275v-35l-82 -10v-610l82 -8v-37h-299v37l82 8v590h-9l-211 -598h-47l-209 598h-14 v-584l82 -14v-37h-229z" />
<glyph unicode="&#x25fc;" horiz-adv-x="952" d="M0 0v952h952v-952h-952z" />
</font>
</defs>
</svg>
