<?xml version="1.0" standalone="no"?>
<!DOCTYPE svg PUBLIC "-//W3C//DTD SVG 1.1//EN" "http://www.w3.org/Graphics/SVG/1.1/DTD/svg11.dtd" >
<svg xmlns="http://www.w3.org/2000/svg" xmlns:xlink="http://www.w3.org/1999/xlink" version="1.1">
<metadata></metadata>
<defs>
<font id="estado_headlinemedium" horiz-adv-x="1146" >
<font-face units-per-em="2048" ascent="1638" descent="-410" />
<missing-glyph horiz-adv-x="409" />
<glyph unicode="&#xfb01;" horiz-adv-x="1099" d="M45 862v53l131 29l6 160q5 122 58 223t152 164t226 63q157 0 232.5 -58t75.5 -132q0 -56 -32.5 -97.5t-92.5 -41.5q-53 0 -87 33.5t-34 87.5q0 35 17 67t44 45q-41 29 -135 29q-98 0 -154.5 -70t-56.5 -188v-289l365 2l162 43h18q0 -2 -1 -122t-1 -191v-609l121 -12v-51 h-463v51l123 12v799h-324v-794l131 -17v-51h-471v51l121 12v795z" />
<glyph unicode="&#xfb02;" horiz-adv-x="1124" d="M45 862v53l131 29l6 174q2 83 28.5 158.5t74 136.5t123.5 97t170 36q145 0 264 -73l96 65h23q0 -16 -2.5 -137t-2.5 -187v-1151l123 -12v-51h-463v51l121 12v1258q-42 76 -95.5 114t-94.5 38q-65 0 -108.5 -50t-43.5 -139v-346l207 4v-80h-207v-794l137 -17v-51h-477v51 l121 12v799h-131z" />
<glyph horiz-adv-x="0" />
<glyph horiz-adv-x="682" />
<glyph unicode=" "  horiz-adv-x="409" />
<glyph unicode="&#x09;" horiz-adv-x="409" />
<glyph unicode="&#xa0;" horiz-adv-x="409" />
<glyph unicode="!" horiz-adv-x="552" d="M137 1307q0 77 40 109t97 32q59 0 99.5 -35.5t40.5 -103.5l-109 -895h-59zM143 119q0 57 40 96t96 39q57 0 96 -39t39 -96q0 -59 -39 -98t-96 -39q-56 0 -96 39t-40 98z" />
<glyph unicode="&#x22;" horiz-adv-x="831" d="M98 1346v34q0 52 33.5 84.5t85.5 32.5q50 0 88.5 -31.5t38.5 -87.5v-32l-90 -402h-53zM487 1346v34q0 52 33.5 84.5t83.5 32.5q51 0 90 -31.5t39 -87.5v-32l-90 -402h-55z" />
<glyph unicode="#" horiz-adv-x="1099" d="M76 506l16 90h205l53 369h-209l15 92h206l54 403h92l-55 -403h315l59 403h91l-58 -403h209l-14 -92h-207l-55 -369h211l-17 -90h-207l-69 -506h-95l74 506h-317l-72 -506h-88l72 506h-209zM387 596h315l56 369h-318z" />
<glyph unicode="$" horiz-adv-x="1026" d="M78 225q0 53 32.5 96.5t104.5 43.5q41 0 77 -28t36 -79q0 -87 -88 -129q56 -56 211 -63l12 522l-92 45q-260 124 -260 344q0 156 102.5 256t269.5 119q0 8 2 82t2 82h70l-4 -162q92 -4 163 -25.5t110.5 -54t59 -68.5t19.5 -73q0 -58 -33 -97t-88 -39q-48 0 -82 32.5 t-34 82.5q0 33 18.5 65.5t56.5 49.5q-22 24 -77.5 38.5t-116.5 16.5q0 -208 -10 -463l114 -59q132 -67 204.5 -152t72.5 -202q0 -169 -114 -285t-298 -133q0 -13 -3 -104.5t-3 -102.5h-70l7 205q-186 6 -278.5 76t-92.5 163zM283 1073q0 -79 49 -131.5t139 -91.5l8 430 q-94 -11 -145 -69.5t-51 -137.5zM520 66q109 9 168.5 74.5t59.5 156.5q0 64 -28 112.5t-71.5 79.5t-116.5 66z" />
<glyph unicode="%" horiz-adv-x="1490" d="M104 1102q0 171 83 280t221 109q134 0 213 -102.5t79 -272.5q0 -159 -85 -271t-222 -112q-131 0 -210 104.5t-79 264.5zM272 8l877 1491l74 -33l-869 -1493zM274 1147q0 -359 138 -359q35 0 61 29.5t39 76t19 91.5t6 88q0 76 -5 133t-19 114t-43.5 87.5t-74.5 30.5 q-35 0 -60 -26.5t-37.5 -71.5t-18 -92t-5.5 -101zM791 338q0 171 83.5 280t219.5 109q134 0 213 -102.5t79 -272.5q0 -159 -85 -271t-222 -112q-130 0 -209 104.5t-79 264.5zM961 383q0 -358 137 -358q36 0 62 29t39 75.5t18.5 91t5.5 88.5q0 76 -5 133t-19 114t-43.5 87.5 t-74.5 30.5q-35 0 -60 -26.5t-37 -71.5t-17.5 -92t-5.5 -101z" />
<glyph unicode="&#x26;" horiz-adv-x="1581" d="M100 381q0 171 98 285.5t259 175.5q-31 36 -42 49.5t-39.5 53t-40.5 66.5t-24 67t-12 79q0 58 25.5 114.5t73 103.5t125.5 76.5t173 29.5q164 0 255 -83t91 -204q0 -107 -83 -202t-226 -126q69 -83 361 -446q25 44 55.5 136t40.5 161l-162 47v45h434v-45l-166 -51 q-61 -225 -143 -357l227 -276l160 -23v-57h-397l-144 174q-179 -201 -442 -201q-106 0 -193.5 34t-144.5 91t-88 130t-31 153zM328 471q0 -159 88.5 -253.5t238.5 -94.5q97 0 176 30.5t127 77.5q-113 132 -464 566q-77 -38 -121.5 -130t-44.5 -196zM510 1225 q0 -51 33.5 -110t97.5 -138q7 -11 27.5 -36.5t23.5 -29.5q75 38 127.5 113.5t52.5 175.5q0 99 -46.5 154t-135.5 55t-134.5 -52t-45.5 -132z" />
<glyph unicode="'" horiz-adv-x="444" d="M98 1346v34q0 52 33.5 84.5t85.5 32.5q50 0 88.5 -31.5t38.5 -87.5v-32l-90 -402h-53z" />
<glyph unicode="(" horiz-adv-x="688" d="M109 547q0 195 56.5 376.5t171.5 336t275 249.5l39 -45q-187 -164 -266.5 -388.5t-79.5 -520.5q0 -298 79 -534t267 -406l-39 -45q-129 80 -226.5 191.5t-157.5 239.5t-89.5 265t-29.5 281z" />
<glyph unicode=")" horiz-adv-x="688" d="M37 -385q99 87 167.5 192.5t107 225t55 243t16.5 269.5q0 292 -80.5 522t-265.5 397l39 45q165 -102 280 -257.5t169.5 -333.5t54.5 -371q0 -196 -53 -376.5t-168.5 -340.5t-282.5 -260z" />
<glyph unicode="*" horiz-adv-x="851" d="M87 1002.5q9 35.5 42 50.5q12 7 126.5 43t131.5 39v4q-15 1 -129.5 38.5t-128.5 45.5q-51 24 -35 82q6 42 44 62t75 -7q13 -9 97 -90t93 -94l5 2q-7 15 -34.5 132t-27.5 132q-4 32 18.5 55t57.5 23q38 0 62 -20t20 -58q0 -18 -27 -134.5t-33 -131.5l5 -2q14 16 97.5 97 t96.5 89q32 28 72.5 9t46.5 -60q7 -24 -3.5 -49.5t-39.5 -38.5q-13 -9 -126.5 -44.5t-129.5 -37.5v-4q18 -4 134 -39.5t128 -42.5q31 -13 39.5 -46t-10.5 -65q-18 -33 -48.5 -42t-62.5 15q-14 8 -96.5 91.5t-93.5 97.5l-4 -2q6 -16 31.5 -131t25.5 -131q4 -32 -19 -55 t-59 -25q-38 0 -61 21.5t-19 58.5q0 17 26.5 131t33.5 131l-5 2q-10 -13 -93.5 -96.5t-96.5 -92.5q-30 -21 -63 -13t-52 38q-20 27 -11 62.5z" />
<glyph unicode="+" d="M78 526v109h442v465h107v-465h440v-109h-440v-467h-107v467h-442z" />
<glyph unicode="," horiz-adv-x="491" d="M104 121q0 54 36.5 92.5t92.5 38.5q76 0 122 -54.5t46 -125.5q0 -104 -58 -204t-177 -163l-37 43q62 45 109.5 119t48.5 133q0 25 -4 37q-30 -37 -70 -37q-52 0 -80.5 34t-28.5 87z" />
<glyph unicode="-" horiz-adv-x="647" d="M74 489v158h499v-158h-499z" />
<glyph unicode="." horiz-adv-x="491" d="M111 119q0 57 39.5 96t95.5 39q57 0 96 -39t39 -96q0 -59 -38.5 -98t-96.5 -39q-56 0 -95.5 39t-39.5 98z" />
<glyph unicode="/" horiz-adv-x="624" d="M-41 -328l537 1813l96 -21l-535 -1812z" />
<glyph unicode="0" horiz-adv-x="1153" d="M70 711q0 109 20 217t61.5 208t100.5 176t143 121.5t183 45.5q125 0 224 -64t159 -169.5t91 -233t31 -264.5q0 -144 -34.5 -280.5t-96.5 -246.5t-160 -177t-214 -67q-152 0 -268 94t-178 260.5t-62 379.5zM334 813q0 -232 24.5 -399t79.5 -264t137 -97q118 0 180 168.5 t62 458.5q0 341 -59 534t-185 193q-52 0 -94 -40.5t-68 -103.5t-44 -144t-25.5 -157.5t-7.5 -148.5z" />
<glyph unicode="1" horiz-adv-x="905" d="M133 0v53l225 17v1306q-82 -11 -206 -16v57q201 22 438 84v-1431l217 -17v-53h-674z" />
<glyph unicode="2" horiz-adv-x="1114" d="M106 0v78l222 217q438 406 438 739q0 121 -67.5 190.5t-186.5 69.5q-222 0 -332 -282l-47 4q34 220 165 339.5t316 119.5q79 0 147.5 -23.5t121.5 -68t83.5 -116.5t30.5 -163q0 -85 -35 -176.5t-89 -172.5t-136 -171t-159 -161t-175 -153l-92 -77v-7l631 21l43 129h51 l-47 -336h-883z" />
<glyph unicode="3" horiz-adv-x="1116" d="M88 242q0 65 42 110t108 45q57 0 94 -36.5t37 -94.5q0 -44 -29 -82.5t-72 -50.5l2 -4q26 -23 88.5 -40t135.5 -17q144 0 228.5 88t84.5 235q0 130 -82 212.5t-240 82.5h-92v64q365 53 365 321q0 90 -60 152.5t-163 62.5q-114 0 -199 -72.5t-133 -203.5l-41 4 q5 86 39.5 167.5t92 146t142 104t182.5 39.5q160 0 262.5 -93.5t102.5 -242.5q0 -121 -96.5 -232t-251.5 -153v-11q183 -6 295 -90.5t112 -232.5q0 -133 -75 -234t-196 -151.5t-267 -50.5q-189 0 -302.5 69.5t-113.5 188.5z" />
<glyph unicode="4" d="M39 399v125l631 924l196 33h15v-899h168l26 80h51l-36 -263h-209v-329l123 -17v-53h-465v53l123 17v329h-623zM180 582h482v692h-11z" />
<glyph unicode="5" horiz-adv-x="1118" d="M90 236q0 65 42 110t108 45q57 0 94 -36.5t37 -94.5q0 -49 -29.5 -84.5t-71.5 -50.5q67 -59 219 -59q147 0 242.5 89.5t95.5 243.5q0 141 -90 212t-243 71q-135 0 -275 -35l-20 31l98 743h618l21 78h51l-31 -276h-608l-51 -398q134 39 274 39q225 0 349 -113t124 -288 q0 -207 -153.5 -346.5t-380.5 -139.5q-190 0 -305 69.5t-115 189.5z" />
<glyph unicode="6" horiz-adv-x="1110" d="M74 522q0 153 45.5 295t123 251.5t179 197.5t213.5 143.5t227 79.5l25 -35q-199 -141 -333.5 -305.5t-193.5 -339.5q53 29 129.5 47t143.5 18q173 0 288 -110t115 -297q0 -67 -18.5 -135.5t-58 -133t-94.5 -114.5t-134 -80.5t-170 -30.5q-97 0 -179 32t-138 85.5 t-95 124.5t-57 148.5t-18 158.5zM311 467q0 -59 7 -115t25.5 -112.5t46.5 -98t72.5 -68t100.5 -26.5q64 0 111 31.5t73.5 87.5t39 123t12.5 147q0 156 -79 248t-210 92q-97 0 -166 -26q-33 -115 -33 -283z" />
<glyph unicode="7" horiz-adv-x="1107" d="M104 1100l93 399h65l-18 -80h624l217 17l13 -37q-162 -149 -283 -364t-184 -435t-80 -442l-6 -78q-8 -121 -123 -121q-56 0 -86.5 34t-30.5 101q0 122 56.5 289t141 323.5t180 294.5t177.5 218h-655l-33 -119h-68z" />
<glyph unicode="8" horiz-adv-x="1087" d="M74 352q0 161 102.5 264.5t253.5 126.5v7q-153 30 -237 125t-84 223q0 168 130 279.5t318 111.5q179 0 299.5 -112t120.5 -269q0 -135 -92.5 -233.5t-225.5 -124.5v-5q72 -14 133.5 -42t112.5 -72t80 -109.5t29 -144.5q0 -94 -41 -171.5t-109.5 -127.5t-155.5 -77.5 t-182 -27.5q-91 0 -171.5 24t-143.5 70t-100 119.5t-37 165.5zM313 354q0 -154 60 -230.5t166 -76.5q122 0 179.5 86.5t57.5 257.5q0 125 -64 214.5t-173 99.5q-65 -8 -111.5 -43.5t-70 -88.5t-34 -107t-10.5 -112zM336 1112q0 -138 44 -218.5t161 -119.5q61 18 103.5 53 t65.5 82.5t32.5 98.5t9.5 114q0 139 -51.5 215t-157.5 76q-103 0 -155 -80t-52 -221z" />
<glyph unicode="9" horiz-adv-x="1089" d="M76 993q0 85 31 169.5t87.5 155t146 115t196.5 44.5q97 0 177 -29t135 -78t92.5 -116t55 -142.5t17.5 -157.5q0 -248 -103.5 -457t-284 -347t-413.5 -193l-27 37q431 288 539 639q-123 -66 -266 -66q-169 0 -276 117.5t-107 308.5zM309 1028q0 -161 72.5 -261.5 t200.5 -100.5q92 0 159 30q35 122 35 305q0 81 -11.5 148.5t-36.5 126t-72.5 92t-112.5 33.5q-115 0 -174.5 -102t-59.5 -271z" />
<glyph unicode=":" horiz-adv-x="491" d="M111 119q0 57 39.5 96t95.5 39q57 0 96 -39t39 -96q0 -59 -38.5 -98t-96.5 -39q-56 0 -95.5 39t-39.5 98zM111 825q0 56 39.5 94.5t95.5 38.5q57 0 96 -38t39 -95q0 -60 -39 -99.5t-96 -39.5q-56 0 -95.5 40t-39.5 99z" />
<glyph unicode=";" horiz-adv-x="491" d="M109 121q0 53 37 92t92 39q76 0 122 -54.5t46 -125.5q0 -104 -58 -204t-178 -163l-35 43q61 46 109 120t49 132q0 25 -6 37q-27 -37 -70 -37q-52 0 -80 34t-28 87zM113 825q0 56 39.5 94.5t95.5 38.5q57 0 96 -38t39 -95q0 -60 -39 -99.5t-96 -39.5q-56 0 -95.5 40 t-39.5 99z" />
<glyph unicode="&#x3c;" d="M109 573v21l868 473l49 -92l-715 -393l723 -394l-53 -92z" />
<glyph unicode="=" d="M82 367v106h983v-106h-983zM82 715v104h983v-104h-983z" />
<glyph unicode="&#x3e;" d="M113 188l725 394l-717 393l49 92l868 -473v-21l-872 -477z" />
<glyph unicode="?" horiz-adv-x="858" d="M115 1311q0 121 145 121q96 0 177 -29t135 -75t91.5 -105.5t54.5 -119t17 -116.5q0 -72 -15 -130.5t-39.5 -100t-65.5 -77t-84 -60t-103 -50.5l-4 -155h-66l-10 366q143 29 200 55q114 54 114 158q0 100 -85 152.5t-217 52.5h-133q-50 0 -81 28.5t-31 84.5zM262 119 q0 57 39.5 96t95.5 39q57 0 96 -39t39 -96q0 -59 -39 -98t-96 -39q-56 0 -95.5 39t-39.5 98z" />
<glyph unicode="@" horiz-adv-x="1880" d="M102 377q0 204 65.5 381t184 305.5t293 202t383.5 73.5q344 0 547 -195.5t203 -520.5q0 -178 -79 -328.5t-215.5 -238t-297.5 -87.5q-89 0 -143 43.5t-54 126.5q0 46 19 111q19 73 61 158l-29 16q-121 -220 -230.5 -338.5t-193.5 -118.5q-70 0 -116.5 57t-46.5 156 q0 133 48 277.5t126 262.5t187.5 194.5t221.5 76.5q51 0 105.5 -18.5t77.5 -40.5l16 47q6 17 13 22t22 5q47 0 104.5 -18t57.5 -40q0 -10 -17 -61l-176 -463q-46 -130 -59 -195q-6 -37 -6 -69q0 -41 28 -70t78 -29q106 0 202.5 79.5t154 210.5t57.5 276q0 307 -184.5 474 t-497.5 167q-241 0 -429.5 -115.5t-290.5 -315t-102 -446.5q0 -329 189.5 -509.5t538.5 -180.5q265 0 499 72l10 -56q-116 -44 -254 -65t-258 -21q-383 0 -598 190t-215 556zM676 274q0 -54 12.5 -98.5t44.5 -44.5q40 0 130 123t171.5 273t108.5 235q-4 56 -38 110t-95 54 q-51 0 -103 -51t-92 -129t-72.5 -167t-49.5 -170.5t-17 -134.5z" />
<glyph unicode="A" horiz-adv-x="1456" d="M0 0v59l152 37l464 1297l89 24l90 51h16l506 -1390l139 -19v-59h-551v59l148 19l-166 467h-475l-156 -455l166 -31v-59h-422zM436 629h420l-211 581h-6z" />
<glyph unicode="B" horiz-adv-x="1263" d="M57 0v59l174 19v1302l-174 19v59h308q55 0 151.5 2t153.5 2q69 0 131 -8.5t126 -33t110 -62.5t75 -102.5t29 -147.5q0 -130 -90.5 -227.5t-227.5 -122.5v-8q156 -14 262 -110q105 -95 105 -231q0 -80 -27 -147t-74.5 -115.5t-111 -83.5t-136.5 -52t-151 -17q-66 0 -170 3 t-164 3h-299zM483 86q54 -8 162 -8q144 0 217.5 88.5t73.5 245.5q0 145 -94.5 226t-245.5 81h-113v-633zM483 797h150q129 0 196.5 79.5t67.5 213.5q0 79 -25.5 138t-69 91.5t-93 47.5t-105.5 15q-35 0 -121 -4v-581z" />
<glyph unicode="C" horiz-adv-x="1341" d="M78 705q0 173 57.5 321t155.5 248.5t229.5 157.5t278.5 57q199 0 358 -74l53 68h43l9 -461h-56q-54 95 -91 153t-77.5 108t-77.5 74.5t-81 38t-99 13.5q-90 0 -164 -34t-124.5 -93t-86 -140t-51.5 -172.5t-16 -193.5q0 -152 41 -271.5t115 -195t172.5 -114.5t216.5 -39 q53 0 102.5 6t95.5 19t70 20.5t67 25.5t46 19l18 -41q-82 -99 -222.5 -167.5t-297.5 -68.5q-311 0 -497.5 203.5t-186.5 532.5z" />
<glyph unicode="D" horiz-adv-x="1519" d="M59 0v59l174 19v1302l-174 19v59h224q52 0 197 1t196 1q359 0 563.5 -188t204.5 -535q0 -242 -134.5 -437.5t-371.5 -270.5q-115 -37 -289 -37q-64 0 -181 4t-179 4h-230zM485 88q82 -10 172 -10q110 0 197.5 33t147 90.5t99.5 139.5t57.5 177.5t17.5 206.5 q0 153 -33 272.5t-100.5 206t-176 132.5t-252.5 46q-79 0 -129 -4v-1290z" />
<glyph unicode="E" horiz-adv-x="1353" d="M57 0v59l174 19v1302l-174 19v59h926l201 4l14 -387h-55l-142 187q-54 70 -93 93t-111 23h-314v-577h133q117 0 162 49.5t84 212.5h60l-15 -301l15 -326h-60q-39 158 -95.5 221.5t-150.5 63.5h-133v-641h396q39 0 67 13.5t62 51.5l229 306h57l-71 -451h-1166z" />
<glyph unicode="F" horiz-adv-x="1247" d="M57 0v59l174 17v1304l-174 19v59h926l201 4l14 -387h-55l-142 187q-54 70 -93 93t-111 23h-314v-577h133q117 0 162 49.5t84 212.5h60l-15 -301l15 -326h-60q-39 158 -95.5 221.5t-150.5 63.5h-133v-645l215 -17v-59h-641z" />
<glyph unicode="G" horiz-adv-x="1566" d="M78 707q0 167 59.5 313.5t159.5 248.5t236.5 161t287.5 59q244 0 420 -74l53 68h43l9 -461h-56q-63 120 -120 197.5t-114.5 118.5t-110.5 56t-122 15q-104 0 -185 -40t-130.5 -104t-82 -152.5t-44.5 -177t-12 -185.5q0 -81 10.5 -159t32.5 -157.5t61.5 -145.5t93 -118 t131.5 -81.5t172 -29.5q109 0 232 25v496l-205 14v61h623v-61l-166 -14v-430h80v-46q-313 -135 -598 -135q-240 0 -412.5 93t-259 258.5t-86.5 386.5z" />
<glyph unicode="H" horiz-adv-x="1566" d="M57 0v59l174 17v1304l-174 19v59h600v-59l-174 -19v-581h600v581l-174 19v59h600v-59l-174 -19v-1304l174 -17v-59h-600v59l174 17v639h-600v-639l174 -17v-59h-600z" />
<glyph unicode="I" horiz-adv-x="714" d="M57 0v59l174 17v1304l-174 19v59h600v-59l-174 -19v-1304l174 -17v-59h-600z" />
<glyph unicode="J" horiz-adv-x="946" d="M47 176q0 67 42.5 111.5t109.5 44.5q65 0 100 -39.5t35 -83.5q0 -59 -27.5 -99t-66.5 -53v-6q22 -10 61 -10q88 0 138 73t50 191v1075l-174 19v59h603v-59l-177 -19v-811q0 -102 -14.5 -189t-48 -163t-83.5 -129.5t-125 -84t-169 -30.5q-66 0 -117 18.5t-79.5 49t-43 65 t-14.5 70.5z" />
<glyph unicode="K" horiz-adv-x="1439" d="M57 0v59l174 17v1304l-174 19v59h600v-59l-174 -19v-579h236l385 573l-174 25v59h450v-59l-163 -35l-381 -541l436 -751l153 -13v-59h-393l-401 715h-148v-639l174 -17v-59h-600z" />
<glyph unicode="L" horiz-adv-x="1333" d="M57 0v59l174 19v1302l-174 19v59h600v-59l-174 -19v-1300h396q39 0 67 13.5t62 51.5l229 306h57l-71 -451h-1166z" />
<glyph unicode="M" horiz-adv-x="1759" d="M43 0v59l174 33v1282l-174 23v61h481l353 -969h6l325 969h494v-59l-176 -19v-1304l176 -17v-59h-600v59l172 19v1237h-12l-431 -1256h-59l-442 1256h-15v-1223l183 -33v-59h-455z" />
<glyph unicode="N" horiz-adv-x="1425" d="M47 1397v61h412l655 -983h6v891l-182 33v59h446v-59l-165 -33v-960l2 -412h-80l-811 1229h-6v-1131l174 -33v-59h-447v59l174 33v1262l-22 22z" />
<glyph unicode="O" horiz-adv-x="1562" d="M78 723q0 153 49 291.5t138.5 244.5t224.5 168t296 62q165 0 299 -58.5t220.5 -160t133 -236t46.5 -289.5q0 -152 -49 -291.5t-137 -247.5t-221.5 -172.5t-291.5 -64.5q-170 0 -305.5 57t-223 159t-133.5 239t-46 299zM367 719q0 -114 10.5 -206.5t38.5 -181.5t73.5 -149 t121 -96.5t175.5 -36.5q96 0 169.5 35.5t119 94.5t74.5 147t40 182.5t11 210.5q0 110 -11 204.5t-40 186.5t-74.5 156t-119 103.5t-169.5 39.5q-102 0 -178 -38.5t-121 -100.5t-73 -154.5t-37.5 -186t-9.5 -210.5z" />
<glyph unicode="P" horiz-adv-x="1226" d="M57 0v59l174 17v1304l-174 19v59h279q45 0 136 1t183 1q77 0 147.5 -13.5t135.5 -44.5t112.5 -78t76 -118.5t28.5 -161.5q0 -197 -134 -317.5t-341 -120.5l-197 39v-569l201 -17v-59h-627zM483 700q94 -8 135 -8q73 0 130.5 32.5t91 84.5t50.5 112t17 121 q0 157 -88.5 247.5t-238.5 90.5q-62 0 -97 -2v-678z" />
<glyph unicode="Q" horiz-adv-x="1562" d="M78 723q0 153 49 291.5t138.5 244.5t224.5 168t296 62q165 0 299 -58.5t220.5 -160t133 -236t46.5 -289.5q0 -177 -63.5 -334t-188.5 -271t-291 -152q32 -121 123 -185.5t219 -64.5q96 0 209 41l23 -51q-68 -45 -171.5 -71t-205.5 -26q-77 0 -148.5 17.5t-140.5 56 t-121.5 109.5t-77.5 168q-274 39 -423.5 240.5t-149.5 500.5zM367 719q0 -114 10.5 -206.5t38.5 -181.5t73.5 -149t121 -96.5t175.5 -36.5q96 0 169.5 35.5t119 94.5t74.5 147t40 182.5t11 210.5q0 110 -11 204.5t-40 186.5t-74.5 156t-119 103.5t-169.5 39.5 q-102 0 -178 -38.5t-121 -100.5t-73 -154.5t-37.5 -186t-9.5 -210.5z" />
<glyph unicode="R" horiz-adv-x="1415" d="M57 0v59l174 19v1302l-174 19v59h250q55 0 186 2t187 2q228 0 352.5 -97.5t124.5 -281.5q0 -139 -100.5 -239t-253.5 -117v-12q168 -27 250 -211l131 -332q34 -100 108 -100q15 0 105 4l2 -60q-146 -30 -262 -30q-90 0 -139.5 36t-73.5 113l-117 363q-33 104 -80 144 t-115 40h-129v-604l183 -19v-59h-609zM483 762h133q52 0 101 17t91 50t67.5 90.5t25.5 131.5q0 207 -121 282q-71 49 -182 49q-66 0 -115 -4v-616z" />
<glyph unicode="S" horiz-adv-x="1175" d="M117 500h59q85 -228 181.5 -336.5t246.5 -108.5q112 0 185 73.5t73 195.5q0 47 -15.5 86.5t-37.5 67t-63.5 57t-75.5 48t-92 46.5l-101 47q-58 27 -96.5 48.5t-88.5 59t-80 76t-51.5 96.5t-21.5 125q0 79 31 152.5t86 129.5t136.5 90t176.5 34t178 -18t130 -50l59 62h45 l31 -439h-56q-31 56 -48 86t-45 75t-47.5 69t-49 53t-56.5 43.5t-62 24.5t-73 10q-107 0 -175 -67t-68 -169q0 -50 19 -91t57.5 -73t78 -55t97.5 -49l174 -84q171 -81 247 -180t76 -236q0 -126 -70 -226.5t-179 -152t-232 -51.5q-96 0 -202.5 27.5t-168.5 77.5l-39 -74h-59z " />
<glyph unicode="T" horiz-adv-x="1333" d="M33 1075l16 383h1237l14 -383h-53l-166 221q-37 46 -62.5 63t-62.5 17h-163v-1300l174 -17v-59h-600v59l174 19v1298h-154q-40 0 -64.5 -13t-56.5 -54l-180 -234h-53z" />
<glyph unicode="U" horiz-adv-x="1536" d="M59 1399v59h600v-59l-174 -19v-817q0 -82 9 -149t33.5 -130t64 -105t103.5 -67.5t149 -25.5q194 0 289.5 127t95.5 358v795l-180 33v59h438v-59l-164 -33v-840q0 -81 -16 -157.5t-55 -150.5t-97 -129t-149 -88.5t-205 -33.5q-568 0 -568 570v843z" />
<glyph unicode="V" horiz-adv-x="1294" d="M-35 1399v59h555v-59l-149 -19l362 -1020h4l342 1008l-164 31v59h420v-59l-147 -37l-492 -1370h-88l-504 1388z" />
<glyph unicode="W" horiz-adv-x="2019" d="M-25 1399v59h553v-59l-149 -19l340 -1020h4l238 752l-93 268l-139 19v59h553v-59l-147 -19l338 -1020h4l325 1008l-164 31v59h420v-59l-147 -37l-475 -1370h-88l-330 958l-8 -2l-324 -956h-92l-479 1388z" />
<glyph unicode="X" horiz-adv-x="1419" d="M0 0v61l152 35l444 602l-424 672l-137 27v61h586v-61l-172 -13l317 -516l350 504l-174 25v61h440v-61l-143 -35l-426 -565l453 -709l153 -29v-59h-602v61l170 13l-342 553l-373 -541l168 -25v-61h-440z" />
<glyph unicode="Y" horiz-adv-x="1300" d="M-8 1397v61h569v-61l-162 -17l334 -600l324 590l-158 29v59h410v-59l-140 -37l-393 -670v-614l176 -19v-59h-602v59l174 19v614l-387 682z" />
<glyph unicode="Z" horiz-adv-x="1347" d="M66 0v51l895 1327h-525q-48 0 -71.5 -16t-60.5 -63q-6 -7 -9 -11l-166 -213h-51l14 383h1180v-41l-899 -1337h485q50 0 82 12.5t51 31t56 66.5l192 261h59l-73 -451h-1159z" />
<glyph unicode="[" horiz-adv-x="610" d="M201 -422v1927h368v-65h-198v-1792h198v-70h-368z" />
<glyph unicode="\" horiz-adv-x="624" d="M37 1477l100 8l537 -1813l-103 -10z" />
<glyph unicode="]" horiz-adv-x="610" d="M41 -354h199v1794h-199v65h369v-1927h-369v68z" />
<glyph unicode="^" d="M207 336l305 831h135l293 -831h-109l-251 733h-7q-44 -132 -256 -733h-110z" />
<glyph unicode="_" horiz-adv-x="1024" d="M0 -178h1024v-111h-1024v111z" />
<glyph unicode="`" horiz-adv-x="587" d="M106 1380l148 105l227 -387l-47 -29z" />
<glyph unicode="a" horiz-adv-x="991" d="M82 186q0 72 44.5 135t119.5 109t157.5 78.5t174.5 54.5v137q0 96 -50 148.5t-151 52.5q-81 0 -144 -47v-6q40 -12 66.5 -41.5t26.5 -75.5q0 -48 -34 -78t-73 -30q-60 0 -89.5 32.5t-29.5 81.5q0 72 57.5 131t145 90t182.5 31q157 0 232.5 -65.5t75.5 -180.5v-530 q0 -74 57 -74q32 0 45.5 28t13.5 83l47 -2q0 -268 -196 -268q-71 0 -116.5 49t-53.5 125h-4q-40 -81 -114 -132t-165 -51q-102 0 -163.5 58.5t-61.5 156.5zM285 242q0 -60 33 -99t88 -39q76 0 124 47.5t48 110.5v248q-117 -29 -205 -102.5t-88 -165.5z" />
<glyph unicode="b" horiz-adv-x="1099" d="M35 1417v47l325 39h21l-4 -311v-348q149 145 315 145q150 0 245 -111.5t95 -332.5q0 -127 -43 -236t-112.5 -181t-156 -112.5t-175.5 -40.5q-78 0 -139 16t-87.5 31.5t-56.5 40.5l-61 -65l-47 4q0 4 1 66t2 144.5t1 135.5v1045zM377 279q0 -101 42 -166.5t138 -65.5 q118 0 188 102.5t70 323.5q0 369 -276 369q-44 0 -89.5 -13.5t-72.5 -33.5v-516z" />
<glyph unicode="c" horiz-adv-x="929" d="M66 451q0 240 140 389t351 149q147 0 225 -59t78 -137q0 -57 -34 -97.5t-93 -40.5q-55 0 -90 32t-35 87q0 32 18.5 63.5t49.5 51.5v6q-44 16 -125 16q-131 0 -206 -105.5t-75 -273.5q0 -73 16 -138t50 -121.5t94.5 -89.5t142.5 -33q67 0 124.5 12.5t87.5 25t73 35.5 l14 -14q-16 -41 -45.5 -81.5t-73 -76.5t-105.5 -58t-132 -22q-97 0 -175.5 28t-128.5 74.5t-84 110t-48 129.5t-14 138z" />
<glyph unicode="d" horiz-adv-x="1105" d="M66 449q0 122 37.5 224.5t101.5 171t149.5 106.5t182.5 38q108 0 190 -39v447l-135 18v47l336 39h22l-4 -409v-1002l125 -12v-47l-303 -47h-29l-8 153q-46 -65 -124.5 -115.5t-149.5 -50.5q-75 0 -143.5 30t-124.5 87t-89.5 150.5t-33.5 210.5zM285 514q0 -183 82 -286 t221 -103q43 0 81 14.5t58 34.5v580q-10 76 -61.5 121t-124.5 45q-119 0 -187.5 -116t-68.5 -290z" />
<glyph unicode="e" horiz-adv-x="958" d="M66 453q0 144 59 266t168 196t246 74q168 0 259 -92t91 -242q0 -46 -8 -92h-609q0 -1 -1 -19t-1 -24q0 -47 9 -95.5t31 -99.5t55.5 -90.5t87 -64.5t120.5 -25q82 0 149 19.5t142 58.5l13 -14q-17 -79 -123.5 -158.5t-235.5 -79.5q-114 0 -202 36.5t-142 102t-81 152 t-27 191.5zM279 635h399q4 8 4 43q0 104 -47.5 169.5t-136.5 65.5q-46 0 -83 -20.5t-60.5 -50t-40 -69.5t-24.5 -73t-11 -65z" />
<glyph unicode="f" horiz-adv-x="638" d="M45 864v51l131 35l6 168q2 89 25 164.5t66.5 136.5t116.5 96t167 35q103 0 159 -45.5t56 -109.5q0 -42 -28 -76.5t-80 -34.5q-43 0 -74 25.5t-31 74.5q0 65 49 99q-28 8 -63 8q-67 0 -108.5 -52t-41.5 -143v-358l209 4v-82h-209v-792l150 -17v-51h-490v51l121 12v787z " />
<glyph unicode="g" horiz-adv-x="1087" d="M20 -254q0 68 69 127t181 90v4q-62 22 -96.5 66t-34.5 100q0 67 60.5 127t156.5 88v6q-119 29 -183 111.5t-64 177.5q0 149 114.5 247.5t280.5 98.5q113 0 258 -55l248 33v-160l-215 65l-9 -10q44 -32 74.5 -90t30.5 -115q0 -80 -31.5 -142.5t-87 -100.5t-125 -57 t-149.5 -19q-60 0 -123.5 -31.5t-63.5 -81.5q0 -37 30 -56t83 -19h246q56 0 102.5 -4.5t97 -19.5t85 -39t57 -67t22.5 -100q0 -96 -54 -171.5t-139.5 -119t-180.5 -65.5q-92 -21 -183 -21h-8q-235 1 -342 57t-107 146zM213 -195q0 -87 66.5 -136.5t199.5 -49.5q103 0 181 21 t128 71.5t50 126.5q0 26 -8.5 45.5t-19 32t-33 21.5t-38 13t-47.5 6.5t-47.5 2.5h-50.5l-266 -2q-115 -57 -115 -152zM319 659q0 -108 46 -183t135 -75q50 0 86.5 22t57 61t29.5 85.5t9 102.5q0 68 -15.5 121.5t-58.5 92t-110 38.5q-51 0 -88 -25t-55.5 -66t-27 -84 t-8.5 -90z" />
<glyph unicode="h" horiz-adv-x="1114" d="M41 0v51l121 12v1330l-121 24v47l326 39h18q0 -16 -1 -135.5t-1 -185.5v-367q56 82 140 128t169 46q131 0 195.5 -68t64.5 -169v-689l121 -12v-51h-463v51l121 12v617q0 180 -158 180q-64 0 -113.5 -39.5t-76.5 -89.5v-668l121 -12v-51h-463z" />
<glyph unicode="i" horiz-adv-x="546" d="M43 0v51l123 12v777l-121 24v43l324 66h18q0 -2 -1 -111t-1 -180v-619l121 -12v-51h-463zM147 1255q0 53 38.5 93.5t93.5 40.5t92 -39t37 -95t-37 -96.5t-92 -40.5q-56 0 -94 40.5t-38 96.5z" />
<glyph unicode="j" horiz-adv-x="557" d="M-129 -311q0 47 29 84t84 37q50 0 79 -31t29 -74q0 -29 -12 -55t-25 -37v-6q69 0 104.5 52.5t35.5 125.5v1051l-121 22v45l323 58h19q0 -8 -0.5 -62t-1 -128t-0.5 -130v-498q0 -131 -21 -236.5t-65 -187t-118 -126t-173 -44.5q-69 0 -117.5 39t-48.5 101zM174 1255 q0 53 38 93.5t93 40.5t92 -39t37 -95t-37 -96.5t-92 -40.5q-56 0 -93.5 40.5t-37.5 96.5z" />
<glyph unicode="k" horiz-adv-x="1081" d="M41 0v51l121 12v1330l-121 24v47l324 39h20q0 -29 -1 -156t-1 -188v-575h172l240 303l-156 20v56h401v-56l-143 -30l-227 -271l262 -538l131 -15v-53h-336l-235 520h-109v-457l121 -12v-51h-463z" />
<glyph unicode="l" horiz-adv-x="548" d="M41 0v51l121 12v1330l-121 24v47l326 39h18q0 -16 -1 -135.5t-1 -185.5v-1119l121 -12v-51h-463z" />
<glyph unicode="m" horiz-adv-x="1671" d="M43 0v51l123 12v777l-121 24v43l309 66h19l12 -158q56 83 136.5 128.5t166.5 45.5q108 0 169.5 -48t82.5 -126h4q58 81 139.5 127.5t165.5 46.5q131 0 194.5 -67.5t63.5 -169.5v-689l121 -12v-51h-461v51l121 12v617q0 180 -158 180q-110 0 -184 -127v-670l121 -12v-51 h-461v51l121 12v627q0 170 -158 170q-63 0 -110 -38.5t-74 -90.5v-668l121 -12v-51h-463z" />
<glyph unicode="n" horiz-adv-x="1116" d="M43 0v51l123 12v777l-121 24v43l309 66h19l12 -158q56 82 140 128t169 46q132 0 196 -67.5t64 -169.5v-689l121 -12v-51h-463v51l121 12v617q0 180 -158 180q-64 0 -113.5 -39.5t-76.5 -89.5v-668l121 -12v-51h-463z" />
<glyph unicode="o" horiz-adv-x="1069" d="M66 469q0 101 32.5 194.5t91 166t148.5 116t197 43.5q216 0 342.5 -134.5t126.5 -356.5q0 -144 -57.5 -263.5t-165.5 -191.5t-246 -72q-218 0 -343.5 140.5t-125.5 357.5zM309 483q0 -140 20.5 -235t71.5 -151t134 -56q225 0 225 442q0 78 -6.5 141t-22 119t-40.5 93.5 t-64 59.5t-90 22q-228 0 -228 -435z" />
<glyph unicode="p" horiz-adv-x="1107" d="M41 -408l121 13v1235l-119 24v43l305 66h21l12 -148q57 77 142.5 120.5t146.5 43.5q99 0 173 -36.5t116.5 -101t62.5 -143.5t20 -173q0 -153 -58 -281t-164 -204.5t-238 -76.5q-108 0 -201 52l2 -420l133 -13v-53h-475v53zM381 236q15 -92 59 -143.5t131 -51.5 q121 0 186.5 112.5t65.5 309.5q0 77 -16.5 143.5t-48.5 120t-85.5 84.5t-121.5 31q-51 0 -98 -23.5t-72 -56.5v-526z" />
<glyph unicode="q" horiz-adv-x="1116" d="M78 446q0 103 31.5 198.5t90.5 173t155 124.5t214 47q132 0 273 -63l80 67h36v-1388l127 -13v-53h-495v53l149 13v518q-54 -62 -127.5 -107t-130.5 -45q-98 0 -176 37.5t-127 103.5t-74.5 151t-25.5 183zM297 526q0 -187 83 -296t224 -109q33 0 73.5 14.5t61.5 28.5v579 q0 73 -56 125t-144 52q-76 0 -132 -57t-83 -145t-27 -192z" />
<glyph unicode="r" horiz-adv-x="856" d="M43 0v51l123 12v777l-121 24v43l309 66h19l10 -166h4q64 87 144.5 132.5t148.5 45.5q72 0 108.5 -39.5t36.5 -97.5q0 -57 -35.5 -94t-84.5 -37q-60 0 -87.5 31t-27.5 73q0 37 20 60l-4 6q-55 -13 -114 -57.5t-107 -104.5v-662l145 -12v-51h-487z" />
<glyph unicode="s" horiz-adv-x="864" d="M86 313h55l129 -245q64 -27 142 -27q80 0 129 44t49 120q0 70 -36.5 109.5t-111.5 70.5l-102 43q-110 44 -172 107.5t-62 169.5q0 125 94.5 204.5t241.5 79.5q105 0 217 -22h56l4 -265l-47 -2q-44 58 -111 199q-57 21 -117 21q-67 0 -113 -37.5t-46 -104.5 q0 -55 33.5 -88t101.5 -63l141 -60q225 -89 225 -278q0 -139 -105.5 -228.5t-274.5 -89.5q-55 0 -104 8t-101 20t-84 17z" />
<glyph unicode="t" horiz-adv-x="702" d="M45 858v51l143 54l144 202h57v-233l273 6v-86h-273v-571q0 -32 1 -48.5t6.5 -39.5t16 -34t31.5 -19.5t52 -8.5q52 0 161 39l13 -31q-132 -164 -299 -164q-103 0 -152 50t-49 139v680z" />
<glyph unicode="u" horiz-adv-x="1112" d="M37 897v51l330 21h16l-6 -277v-364q0 -45 5.5 -78.5t21.5 -67t50 -51.5t85 -18q109 0 184 110v654l-117 20v55l330 17h12l-6 -277v-600l127 -14v-47l-319 -49h-17l-8 178q-126 -187 -313 -187q-49 0 -92 13t-81 41.5t-60.5 81.5t-22.5 124v644z" />
<glyph unicode="v" horiz-adv-x="972" d="M-2 909v54h455v-54l-119 -8l219 -620h4l213 608l-123 20v54h328v-54l-111 -22l-344 -893h-67l-344 903z" />
<glyph unicode="w" horiz-adv-x="1515" d="M0 909v54h455v-54l-119 -8l211 -620h4l164 485l-49 131l-111 12v54h455v-54l-119 -8l211 -620h4l205 608l-123 20v54h328v-54l-109 -22l-338 -893h-68l-237 643h-6l-244 -643h-68l-335 903z" />
<glyph unicode="x" horiz-adv-x="1060" d="M-2 0v53l117 21l313 393l-295 430l-98 12v54h467v-54l-123 -8l209 -311l223 299l-121 20v54h340v-54l-108 -20l-287 -357l313 -462l115 -17v-53h-477v51l121 10l-234 349l-246 -336l119 -21v-53h-348z" />
<glyph unicode="y" horiz-adv-x="991" d="M-8 -276q0 52 34 92.5t101 40.5q44 0 76.5 -31.5t32.5 -77.5q0 -32 -16 -63t-50 -43v-7q16 -4 31 -4q64 0 106 44t76 135l84 223l-361 856l-110 18v56h459v-56l-119 -8l237 -592h5l213 580l-125 20v56h327v-56l-112 -22l-422 -1090q-49 -128 -117 -181.5t-166 -53.5 q-76 0 -130 42.5t-54 121.5z" />
<glyph unicode="z" horiz-adv-x="899" d="M55 0v31l525 866h-267q-55 0 -94 -59l-102 -154h-45l4 279h762v-29l-523 -864l254 8q41 2 68 17.5t59 58.5l115 157h43l-47 -311h-752z" />
<glyph unicode="{" horiz-adv-x="602" d="M96 555v68q36 0 63.5 3t55.5 11.5t43.5 27t15.5 46.5q0 39 -22 96.5t-48.5 108.5t-48.5 113.5t-22 109.5q0 169 113 266.5t332 97.5v-59q-58 -2 -103.5 -19t-75 -44t-49 -63.5t-27.5 -74.5t-8 -80q0 -47 42 -190t42 -201q0 -141 -149 -182v-10q77 -21 116.5 -72 t39.5 -117q0 -79 -23 -160t-46.5 -156.5t-23.5 -140.5q0 -47 4.5 -83.5t21 -77.5t44 -69t77.5 -48.5t118 -24.5v-57q-230 3 -337.5 91t-107.5 263q0 57 23 130.5t50 131t50 120t23 100.5q0 139 -183 145z" />
<glyph unicode="|" horiz-adv-x="595" d="M248 -266v1751h100v-1751h-100z" />
<glyph unicode="}" horiz-adv-x="602" d="M25 -369q67 4 116.5 24.5t77 48.5t43.5 69t20.5 77.5t4.5 83.5q0 65 -22.5 140.5t-45 156.5t-22.5 160q0 66 39.5 117t115.5 72v10q-149 41 -149 182q0 58 41 201t41 190q0 53 -13 99.5t-41.5 88t-81.5 66.5t-124 27v59q219 0 331.5 -97.5t112.5 -266.5q0 -47 -22 -109.5 t-48.5 -113.5t-48.5 -108.5t-22 -96.5q0 -28 15.5 -46.5t43.5 -27t55.5 -11.5t63.5 -3v-68q-182 -6 -182 -145q0 -47 36 -132.5t72.5 -181.5t36.5 -168q0 -175 -107 -263t-337 -91v57z" />
<glyph unicode="~" d="M88 526q61 193 229 193q59 0 131.5 -22t130 -48.5t129.5 -48.5t130 -22q84 0 125 116l96 -30q-26 -94 -90 -143.5t-156 -49.5q-55 0 -128.5 22.5t-133.5 50t-126.5 50t-109.5 22.5q-25 0 -45 -10t-36 -30.5t-25 -36.5t-21 -43q-9 2 -49 15t-51 15z" />
<glyph unicode="&#xa1;" horiz-adv-x="552" d="M139 -178l109 895h59l109 -893q0 -77 -40 -109t-97 -32q-59 0 -99.5 35.5t-40.5 103.5zM139 1010q0 60 39 99.5t96 39.5q56 0 95 -40t39 -99q0 -57 -39 -95t-95 -38q-57 0 -96 38t-39 95z" />
<glyph unicode="&#xa2;" horiz-adv-x="978" d="M90 451q0 240 140 389t350 149q87 0 143 -20l80 147l69 -35l-79 -145q44 -27 68 -65t24 -78q0 -57 -35 -97.5t-94 -40.5q-61 0 -97 39l-260 -467q88 -92 207 -92q45 0 84.5 11.5t64 26.5t48 38.5t33.5 37.5t22 34l31 -11q-11 -56 -40.5 -108.5t-73 -96t-106.5 -70 t-134 -26.5q-142 0 -242 62l-84 -152l-72 31l92 168q-139 128 -139 371zM295 532q0 -141 55 -235l334 604q-40 12 -106 12q-130 0 -206.5 -106.5t-76.5 -274.5z" />
<glyph unicode="&#xa3;" horiz-adv-x="1161" d="M55 92q0 45 36 79t89 34q72 0 168 -62q45 83 45 238q0 46 -24 168q-11 52 -41 153l-209 -2l2 86l186 -6q-53 178 -53 299q0 184 124 297t312 113q137 0 228.5 -62t91.5 -163q0 -57 -34.5 -96.5t-88.5 -39.5q-51 0 -85 33t-34 84q0 35 21.5 69.5t56.5 47.5 q-20 23 -66.5 36t-99.5 13q-63 0 -108.5 -23.5t-68.5 -63t-32.5 -80.5t-9.5 -87q0 -18 1.5 -38t3 -36.5t5.5 -39.5t6.5 -36.5t8.5 -40t8.5 -37t10 -39t9.5 -35.5t11 -38t10 -35l364 4l-14 -86l-332 5q41 -151 41 -240q0 -96 -51 -183.5t-129 -134.5l-2 -6q202 -6 475 13 q34 1 58.5 10.5t39.5 23t25.5 39.5t15 50t10.5 65l54 -4q-5 -157 -64 -265t-156 -108q-112 0 -261 31t-259 90q-33 -44 -77.5 -73t-86.5 -29q-69 0 -100 31t-31 77z" />
<glyph unicode="&#xa4;" horiz-adv-x="1245" d="M78 563v90l149 -4q-2 27 -2 80q0 55 6 107l-153 -2v88l166 -4q23 119 74 221.5t126 181t178 123.5t222 45q141 0 230 -61t89 -160q0 -56 -34.5 -94.5t-90.5 -38.5q-51 0 -83.5 32.5t-32.5 83.5q0 35 21 69.5t56 45.5q-19 20 -65.5 31.5t-93.5 11.5q-66 0 -120.5 -29.5 t-91 -77.5t-64.5 -114t-43.5 -132.5t-24.5 -140.5l503 7v-88l-512 4q-2 -33 -2 -97q0 -61 2 -94l512 6v-90l-505 4q9 -77 24 -144.5t44 -137.5t67 -119.5t96.5 -81t130.5 -31.5q86 0 139 29q-40 19 -60 52.5t-20 70.5q0 55 33 89t84 34q65 0 97 -40t32 -91q0 -96 -82.5 -163 t-242.5 -67q-263 0 -415.5 160.5t-187.5 437.5z" />
<glyph unicode="&#xa5;" horiz-adv-x="1337" d="M10 1397v61h572v-61l-162 -17l332 -600l325 590l-157 29v59h407v-59l-139 -37l-393 -670v-24l335 8v-96l-335 6v-508l176 -19v-59h-602v59l174 19v508l-328 -6v96l328 -8v24l-387 682z" />
<glyph unicode="&#xa6;" horiz-adv-x="686" d="M285 -371v820h116v-820h-116zM285 666v819h116v-819h-116z" />
<glyph unicode="&#xa7;" horiz-adv-x="1292" d="M170 856q0 135 44 253t120.5 202t186 132t235.5 48q174 0 259 -48t85 -106q0 -35 -20 -62.5t-58 -27.5q-24 0 -47 12.5t-47.5 30.5t-54.5 36.5t-80 31t-113 12.5q-174 0 -295 -168q105 -69 196.5 -141t195 -177t176.5 -213t121 -246.5t48 -279.5q0 -174 -79 -315 t-214 -220t-297 -79q-174 0 -259 48t-85 106q0 35 20 61.5t58 26.5q28 0 59.5 -18.5t60 -41t88 -41t136.5 -18.5q84 0 167 42.5t136 129.5q-96 61 -190 135t-196.5 178.5t-179.5 213.5t-127 241.5t-50 261.5zM279 895q1 -114 49 -237t121 -227t168.5 -204.5t185 -174.5 t176.5 -132q35 77 35 186q2 132 -64.5 285t-172 286.5t-227 244.5t-235.5 178q-36 -76 -36 -205z" />
<glyph unicode="&#xa8;" horiz-adv-x="796" d="M90 1245q0 53 35.5 90t87.5 37t88.5 -37t36.5 -90q0 -54 -36 -90.5t-89 -36.5q-52 0 -87.5 36.5t-35.5 90.5zM457 1245q0 52 37 89.5t88 37.5q52 0 88.5 -37t36.5 -90q0 -54 -36 -90.5t-89 -36.5q-52 0 -88.5 37t-36.5 90z" />
<glyph unicode="&#xa9;" horiz-adv-x="1855" d="M102 633q0 194 69 359.5t184.5 276t268 172.5t318.5 62q133 0 254 -36t222 -107.5t175.5 -171.5t116 -234.5t41.5 -289.5q0 -179 -58.5 -334t-163.5 -268.5t-259.5 -178.5t-339.5 -65q-198 0 -355.5 60t-260.5 168t-157.5 257.5t-54.5 329.5zM190 633q0 -218 87.5 -386.5 t256.5 -264t396 -95.5q219 0 388 104t258 280t89 393q0 177 -56.5 323t-155 242.5t-230.5 149.5t-283 53q-152 0 -289 -58t-239 -160.5t-162 -253.5t-60 -327zM406 637q0 263 153.5 432.5t403.5 169.5q173 0 286 -70l39 45h41v-170l17 -184h-54q-10 34 -18 58t-23 58t-31 58 t-42 50t-56 42t-72.5 26.5t-91.5 10.5q-72 0 -128 -32.5t-89 -82.5t-54 -118.5t-28.5 -132.5t-7.5 -133q0 -145 33.5 -254t108.5 -175.5t186 -66.5q59 0 105.5 15.5t77 39t54.5 61.5t38 74t28 86h70q-11 -84 -42.5 -151t-73 -108.5t-92 -69t-97 -38.5t-91.5 -11 q-257 0 -403.5 154.5t-146.5 416.5z" />
<glyph unicode="&#xaa;" horiz-adv-x="714" d="M104 987q0 57 50 108.5t116.5 83t137.5 48.5v73q0 105 -111 105q-42 0 -88 -23q53 -22 53 -75q0 -30 -22 -51t-50 -21q-37 0 -57 21.5t-20 56.5q0 71 72.5 114t164.5 43q97 0 151 -38t54 -103v-319q0 -13 7 -25t20 -12q14 0 23 16.5t9 44.5h37q0 -79 -35 -122.5 t-98 -43.5q-42 0 -70 30t-30 71q-28 -46 -78 -76.5t-102 -30.5q-57 0 -95.5 32t-38.5 93zM156 686v86h442v-86h-442zM242 1024q0 -32 19 -52t48 -20q36 0 67.5 25t31.5 59v150q-72 -13 -119 -59.5t-47 -102.5z" />
<glyph unicode="&#xab;" horiz-adv-x="901" d="M59 461v92l344 291l46 -39l-185 -291l185 -309l-46 -37zM453 461v92l344 291l45 -39l-185 -291l185 -309l-45 -37z" />
<glyph unicode="&#xac;" horiz-adv-x="1288" d="M109 575v97h1060v-488h-108v391h-952z" />
<glyph unicode="&#xad;" horiz-adv-x="647" d="M74 489v158h499v-158h-499z" />
<glyph unicode="&#xae;" horiz-adv-x="1019" d="M92 1079q0 97 34 180.5t91.5 139.5t133.5 87.5t159 31.5q114 0 208 -49t152 -146t58 -225q0 -182 -115 -301t-303 -119q-199 0 -308.5 109.5t-109.5 291.5zM160 1079q0 -154 94.5 -249t255.5 -95q77 0 148 29.5t116 77.5v14l-100 -4q-31 0 -46 14.5t-28 42.5l-51 111 q-20 41 -57 41h-29v-166l61 -6v-33h-237v33l57 6v401l-57 7v34h248q83 0 128.5 -33t45.5 -98q0 -45 -37 -80.5t-94 -44.5v-4q35 -4 53 -18t33 -39l14 -25q43 -78 56.5 -91t29.5 -13h39q51 88 51 207q0 162 -99 261t-245 99q-147 0 -248.5 -106.5t-101.5 -272.5zM463 1104h51 q32 0 57 26t25 70q0 42 -24 69t-64 27h-45v-192z" />
<glyph unicode="&#xaf;" horiz-adv-x="802" d="M117 1122v148h569v-148h-569z" />
<glyph unicode="&#xb0;" horiz-adv-x="579" d="M96 1229q0 90 51 145.5t140 55.5q97 0 146.5 -52t49.5 -141q0 -81 -55 -137t-141 -56q-87 0 -139 51t-52 134zM176 1237q0 -53 31.5 -91t79.5 -38q52 0 83 33.5t31 95.5q0 58 -31.5 93.5t-82.5 35.5q-49 0 -80 -37t-31 -92z" />
<glyph unicode="&#xb1;" d="M70 0v109h1007v-109h-1007zM70 664v104h450v385h105v-385h452v-104h-448v-390h-109v390h-450z" />
<glyph unicode="&#xb2;" horiz-adv-x="700" d="M76 1227q11 121 92 197.5t203 76.5q107 0 170 -59t63 -154q0 -30 -8 -60t-17.5 -53t-31 -51.5t-34.5 -44.5t-43.5 -44t-43 -38.5t-47 -38.5t-41.5 -34l-86 -74v-2l315 4l31 76h37l-33 -230h-512v66l127 125q123 118 168 191t45 151q0 66 -37.5 104.5t-101.5 38.5 q-58 0 -106.5 -40t-71.5 -109z" />
<glyph unicode="&#xb3;" horiz-adv-x="718" d="M82 848q0 43 24.5 73.5t71.5 30.5q39 0 64.5 -21t25.5 -59q0 -29 -14.5 -54.5t-38.5 -39.5q28 -28 115 -28q68 0 108.5 46.5t40.5 114.5q0 74 -46 112t-120 38h-53v51q101 13 141.5 50t40.5 100q0 48 -34 81t-93 33q-60 0 -105.5 -34.5t-64.5 -90.5q-15 6 -39 6 q11 100 89.5 172t191.5 72q97 0 163 -51.5t66 -136.5q0 -67 -45.5 -121.5t-134.5 -81.5v-8q105 -9 164 -56t59 -122q0 -118 -89.5 -179t-233.5 -61q-115 0 -184.5 46.5t-69.5 117.5z" />
<glyph unicode="&#xb4;" horiz-adv-x="587" d="M100 1098l228 387l149 -105l-330 -311z" />
<glyph unicode="&#xb5;" horiz-adv-x="1173" d="M152 930l233 37h16l-6 -281v-367q0 -85 43 -137.5t135 -52.5q71 0 116 49.5t56 130.5v488l-4 137l230 33h12l-6 -281v-459q0 -86 49 -86q26 0 40 29.5t13 85.5h51q0 -138 -50.5 -207t-143.5 -69q-79 0 -127 54.5t-47 149.5h-8q-30 -99 -95.5 -155t-142.5 -56q-22 0 -43 3 t-52.5 16t-56.5 35t-49.5 64t-38.5 99h-22q1 -65 23 -141.5t47 -134t45.5 -124.5t19.5 -116q0 -71 -32.5 -108t-82.5 -37q-51 0 -81.5 40.5t-30.5 125.5v1085z" />
<glyph unicode="&#xb6;" horiz-adv-x="1267" d="M82 971q0 95 30 175.5t82.5 137t124 96.5t153 59t169.5 19h397l160 19v-105h-197v-1325q0 -77 -14.5 -146.5t-46 -132t-78 -108t-114.5 -72t-152 -26.5q-133 0 -216 53t-83 139q0 54 32.5 90.5t90.5 36.5q52 0 82 -32t30 -80q0 -27 -16 -58t-47 -47q45 -29 143 -29 q85 0 146.5 36.5t94 98.5t47.5 131t15 148v426h-294q-268 0 -403.5 130t-135.5 366z" />
<glyph unicode="&#xb7;" horiz-adv-x="491" d="M111 721q0 55 39.5 94t95.5 39q57 0 96 -38.5t39 -94.5q0 -60 -39 -99.5t-96 -39.5q-56 0 -95.5 40t-39.5 99z" />
<glyph unicode="&#xb8;" horiz-adv-x="563" d="M76 -358q0 30 21 50.5t48 20.5q31 0 50.5 -14.5t19.5 -40.5q0 -49 -35 -59q33 -11 66 -11q60 0 90.5 28t30.5 75q0 28 -16.5 47.5t-49.5 31.5t-70.5 18.5t-89.5 10.5l99 234l53 -6l-51 -117q274 -15 274 -174q0 -89 -76 -142t-198 -53q-84 0 -125 27t-41 74z" />
<glyph unicode="&#xb9;" horiz-adv-x="657" d="M137 698v45l129 11v667h-129v45q156 16 291 41h10v-753l125 -11v-45h-426z" />
<glyph unicode="&#xba;" horiz-adv-x="718" d="M72 1157q0 127 78.5 219t209.5 92q136 0 211.5 -76t75.5 -210q0 -130 -78 -228t-209 -98q-138 0 -213 83.5t-75 217.5zM143 686v86h443v-86h-443zM231 1165q0 -258 129 -258t129 258q0 122 -29 187t-98 65q-131 0 -131 -252z" />
<glyph unicode="&#xbb;" horiz-adv-x="901" d="M59 211l187 299l-185 301l45 33l343 -287v-92l-343 -297zM453 211l186 299l-184 301l45 33l342 -287v-92l-342 -297z" />
<glyph unicode="&#xbc;" horiz-adv-x="1552" d="M143 698v45l129 11v667h-129v45q154 16 293 41h8v-753l125 -11v-45h-426zM305 8l879 1493l76 -35l-873 -1493zM805 205v80l334 497l161 19h9v-477h102l19 51h38l-28 -170h-131v-154l82 -8v-43h-330v43l84 8v154h-340zM901 324h244v354h-6z" />
<glyph unicode="&#xbd;" horiz-adv-x="1552" d="M143 698v45l129 11v667h-129v45q154 16 293 41h8v-753l125 -11v-45h-426zM305 8l879 1493l76 -35l-873 -1493zM891 528q11 123 92 200t203 77q107 0 171 -60t64 -155q0 -30 -8 -59.5t-17.5 -52.5t-32 -52t-34.5 -44.5t-44 -45t-43 -38.5t-47.5 -39t-41.5 -34l-86 -73v-2 l315 6l31 73h37l-31 -229h-514v66l129 124q121 118 166 191.5t45 150.5q0 68 -36.5 107t-100.5 39q-59 0 -108 -41t-72 -111z" />
<glyph unicode="&#xbe;" horiz-adv-x="1552" d="M96 848q0 43 26 73.5t73 30.5q38 0 63 -21t25 -59q0 -29 -14.5 -54.5t-37.5 -39.5q28 -28 115 -28q68 0 109 46.5t41 114.5q0 74 -46 112t-120 38h-54v51q101 13 142 50.5t41 99.5q0 48 -34 81t-93 33q-61 0 -106 -34.5t-64 -90.5q-15 6 -41 6q11 100 90 172t192 72 q97 0 162.5 -51.5t65.5 -136.5q0 -67 -45.5 -121.5t-134.5 -81.5v-8q106 -9 165.5 -56t59.5 -122q0 -118 -90.5 -179t-235.5 -61q-114 0 -184 47t-70 117zM344 8l879 1493l75 -35l-872 -1493zM805 205v80l334 497l161 19h9v-477h102l19 51h38l-28 -170h-131v-154l82 -8v-43 h-330v43l84 8v154h-340zM901 324h244v354h-6z" />
<glyph unicode="&#xbf;" horiz-adv-x="858" d="M129 131q0 72 15 130.5t39.5 100t65.5 77t84 60t103 50.5l4 158h66l12 -369q-139 -28 -192 -51q-123 -53 -123 -162q0 -100 85.5 -152.5t217.5 -52.5h131q51 0 82 -26.5t31 -81.5q0 -64 -41 -94.5t-103 -30.5q-97 0 -178.5 29t-135 75t-91.5 105t-55 118.5t-17 116.5z M334 999q0 60 39 100t96 40q56 0 94.5 -40t38.5 -100q0 -57 -38.5 -95t-94.5 -38q-57 0 -96 38t-39 95z" />
<glyph unicode="&#xc0;" horiz-adv-x="1456" d="M0 0v59l152 37l464 1297l89 24l90 51h16l506 -1390l139 -19v-59h-551v59l148 19l-166 467h-475l-156 -455l166 -31v-59h-422zM326 1747l116 156l353 -289l-37 -49zM436 629h420l-211 581h-6z" />
<glyph unicode="&#xc1;" horiz-adv-x="1456" d="M0 0v59l152 37l464 1297l89 24l90 51h16l506 -1390l139 -19v-59h-551v59l148 19l-166 467h-475l-156 -455l166 -31v-59h-422zM436 629h420l-211 581h-6zM567 1614l353 289l118 -156l-434 -182z" />
<glyph unicode="&#xc2;" horiz-adv-x="1456" d="M0 0v59l152 37l464 1297l89 24l90 51h16l506 -1390l139 -19v-59h-551v59l148 19l-166 467h-475l-156 -455l166 -31v-59h-422zM434 1581l184 285h162l185 -281l-41 -33l-230 172l-215 -172zM436 629h420l-211 581h-6z" />
<glyph unicode="&#xc3;" horiz-adv-x="1456" d="M0 0v59l152 37l464 1297l89 24l90 51h16l506 -1390l139 -19v-59h-551v59l148 19l-166 467h-475l-156 -455l166 -31v-59h-422zM342 1595q19 57 48.5 101t60 67t55 34t41.5 11q90 0 208.5 -26.5t153.5 -26.5q60 0 91.5 13.5t58.5 62.5l37 -14q-13 -76 -68 -148t-117 -72 q-57 0 -186.5 26t-187.5 26q-109 0 -152 -70zM436 629h420l-211 581h-6z" />
<glyph unicode="&#xc4;" horiz-adv-x="1456" d="M0 0v59l152 37l464 1297l89 24l90 51h16l506 -1390l139 -19v-59h-551v59l148 19l-166 467h-475l-156 -455l166 -31v-59h-422zM377 1714q0 54 36.5 90.5t90.5 36.5q53 0 90 -36.5t37 -90.5q0 -51 -37.5 -88t-89.5 -37q-54 0 -90.5 36.5t-36.5 88.5zM436 629h420l-211 581 h-6zM760 1714q0 54 36.5 90.5t90.5 36.5q53 0 89 -36.5t36 -90.5q0 -51 -36.5 -88t-88.5 -37q-53 0 -90 36.5t-37 88.5z" />
<glyph unicode="&#xc5;" horiz-adv-x="1456" d="M0 0v59l152 37l464 1297l89 24l90 51h16l506 -1390l139 -19v-59h-551v59l148 19l-166 467h-475l-156 -455l166 -31v-59h-422zM436 629h420l-211 581h-6zM510 1704q0 76 56 128t145 52t143.5 -45.5t54.5 -120.5q0 -81 -55.5 -135.5t-144.5 -54.5q-91 0 -145 50.5 t-54 125.5zM604 1708q0 -54 27.5 -88.5t75.5 -34.5q53 0 79.5 34t26.5 87q0 59 -26 93t-80 34q-47 0 -75 -34t-28 -91z" />
<glyph unicode="&#xc6;" horiz-adv-x="2060" d="M-2 0v59l149 37l619 1284l-172 17v61h1098l198 4v-26l-24 -109l39 -252h-56l-141 187q-54 70 -93 93t-112 23h-313v-579h133q61 0 98 10.5t65.5 42.5t46 79t38.5 132h57l-14 -301l14 -326h-57q-41 158 -97.5 221.5t-150.5 63.5h-133v-641h395q39 0 67.5 13.5t63.5 51.5 l228 306h59l-92 -285l18 -137v-29h-1165v59l174 19v635l-385 2l-293 -627l156 -29v-59h-418zM594 801h344v569l-72 4z" />
<glyph unicode="&#xc7;" horiz-adv-x="1341" d="M78 705q0 173 57.5 321t155.5 248.5t229.5 157.5t278.5 57q199 0 358 -74l53 68h43l9 -461h-56q-54 95 -91 153t-77.5 108t-77.5 74.5t-81 38t-99 13.5q-90 0 -164 -34t-124.5 -93t-86 -140t-51.5 -172.5t-16 -193.5q0 -152 41 -271.5t115 -195t172.5 -114.5t216.5 -39 q53 0 102.5 6t95.5 19t70 20.5t67 25.5t46 19l18 -41q-75 -91 -201 -157t-270 -77l-27 -61q275 -15 275 -174q0 -89 -76.5 -142t-198.5 -53q-84 0 -125 27t-41 74q0 30 21.5 50.5t48.5 20.5q31 0 50.5 -14.5t19.5 -40.5q0 -49 -35 -59q33 -11 65 -11q60 0 90.5 28t30.5 75 q0 36 -31.5 59.5t-77 33t-116.5 15.5l72 170q-204 2 -358.5 95t-237 259t-82.5 382z" />
<glyph unicode="&#xc8;" horiz-adv-x="1353" d="M57 0v59l174 19v1302l-174 19v59h926l201 4l14 -387h-55l-142 187q-54 70 -93 93t-111 23h-314v-577h133q117 0 162 49.5t84 212.5h60l-15 -301l15 -326h-60q-39 158 -95.5 221.5t-150.5 63.5h-133v-641h396q39 0 67 13.5t62 51.5l229 306h57l-71 -451h-1166zM391 1747 l117 156l352 -289l-37 -49z" />
<glyph unicode="&#xc9;" horiz-adv-x="1353" d="M57 0v59l174 19v1302l-174 19v59h926l201 4l14 -387h-55l-142 187q-54 70 -93 93t-111 23h-314v-577h133q117 0 162 49.5t84 212.5h60l-15 -301l15 -326h-60q-39 158 -95.5 221.5t-150.5 63.5h-133v-641h396q39 0 67 13.5t62 51.5l229 306h57l-71 -451h-1166zM614 1614 l353 289l118 -156l-434 -182z" />
<glyph unicode="&#xca;" horiz-adv-x="1353" d="M57 0v59l174 19v1302l-174 19v59h926l201 4l14 -387h-55l-142 187q-54 70 -93 93t-111 23h-314v-577h133q117 0 162 49.5t84 212.5h60l-15 -301l15 -326h-60q-39 158 -95.5 221.5t-150.5 63.5h-133v-641h396q39 0 67 13.5t62 51.5l229 306h57l-71 -451h-1166zM451 1581 l184 285h162l184 -281l-41 -33l-229 172l-215 -172z" />
<glyph unicode="&#xcb;" horiz-adv-x="1353" d="M57 0v59l174 19v1302l-174 19v59h926l201 4l14 -387h-55l-142 187q-54 70 -93 93t-111 23h-314v-577h133q117 0 162 49.5t84 212.5h60l-15 -301l15 -326h-60q-39 158 -95.5 221.5t-150.5 63.5h-133v-641h396q39 0 67 13.5t62 51.5l229 306h57l-71 -451h-1166zM379 1714 q0 54 36.5 90.5t90.5 36.5q53 0 90 -36.5t37 -90.5q0 -51 -37.5 -88t-89.5 -37q-54 0 -90.5 36.5t-36.5 88.5zM762 1714q0 54 36.5 90.5t90.5 36.5q53 0 89 -36.5t36 -90.5q0 -51 -36.5 -88t-88.5 -37q-53 0 -90 36.5t-37 88.5z" />
<glyph unicode="&#xcc;" horiz-adv-x="714" d="M43 1747l117 156l352 -289l-37 -49zM57 0v59l174 17v1304l-174 19v59h600v-59l-174 -19v-1304l174 -17v-59h-600z" />
<glyph unicode="&#xcd;" horiz-adv-x="714" d="M57 0v59l174 17v1304l-174 19v59h600v-59l-174 -19v-1304l174 -17v-59h-600zM201 1614l352 289l119 -156l-434 -182z" />
<glyph unicode="&#xce;" horiz-adv-x="714" d="M57 0v59l174 17v1304l-174 19v59h600v-59l-174 -19v-1304l174 -17v-59h-600zM98 1581l185 285h161l185 -281l-41 -33l-230 172l-215 -172z" />
<glyph unicode="&#xcf;" horiz-adv-x="714" d="M43 1714q0 54 36.5 90.5t90.5 36.5q53 0 90 -36.5t37 -90.5q0 -51 -37.5 -88t-89.5 -37q-54 0 -90.5 36.5t-36.5 88.5zM57 0v59l174 17v1304l-174 19v59h600v-59l-174 -19v-1304l174 -17v-59h-600zM426 1714q0 54 36.5 90.5t90.5 36.5q53 0 89 -36.5t36 -90.5 q0 -51 -36.5 -88t-88.5 -37q-53 0 -90 36.5t-37 88.5z" />
<glyph unicode="&#xd0;" horiz-adv-x="1546" d="M84 0v59l174 19v639h-145v84h145v579l-174 19v59h223q52 0 197 1t196 1q359 0 563.5 -188t204.5 -535q0 -242 -134 -437.5t-371 -270.5q-115 -37 -289 -37q-64 0 -181.5 4t-179.5 4h-229zM510 88q82 -10 172 -10q137 0 238.5 49.5t161.5 139t89 204t29 254.5 q0 153 -33 272.5t-100.5 206t-175.5 132.5t-252 46q-79 0 -129 -4v-577h338v-84h-338v-629z" />
<glyph unicode="&#xd1;" horiz-adv-x="1425" d="M47 1397v61h412l655 -983h6v891l-182 33v59h446v-59l-165 -33v-960l2 -412h-80l-811 1229h-6v-1131l174 -33v-59h-447v59l174 33v1262l-22 22zM383 1595q19 57 48.5 101t60 67t55 34t41.5 11q90 0 208.5 -26.5t153.5 -26.5q60 0 91.5 13.5t58.5 62.5l37 -14 q-13 -76 -68 -148t-117 -72q-58 0 -187 26t-187 26q-109 0 -152 -70z" />
<glyph unicode="&#xd2;" horiz-adv-x="1562" d="M78 723q0 153 49 291.5t138.5 244.5t224.5 168t296 62q165 0 299 -58.5t220.5 -160t133 -236t46.5 -289.5q0 -152 -49 -291.5t-137 -247.5t-221.5 -172.5t-291.5 -64.5q-170 0 -305.5 57t-223 159t-133.5 239t-46 299zM367 719q0 -114 10.5 -206.5t38.5 -181.5t73.5 -149 t121 -96.5t175.5 -36.5q96 0 169.5 35.5t119 94.5t74.5 147t40 182.5t11 210.5q0 110 -11 204.5t-40 186.5t-74.5 156t-119 103.5t-169.5 39.5q-102 0 -178 -38.5t-121 -100.5t-73 -154.5t-37.5 -186t-9.5 -210.5zM420 1747l117 156l352 -289l-37 -49z" />
<glyph unicode="&#xd3;" horiz-adv-x="1562" d="M78 723q0 153 49 291.5t138.5 244.5t224.5 168t296 62q165 0 299 -58.5t220.5 -160t133 -236t46.5 -289.5q0 -152 -49 -291.5t-137 -247.5t-221.5 -172.5t-291.5 -64.5q-170 0 -305.5 57t-223 159t-133.5 239t-46 299zM367 719q0 -114 10.5 -206.5t38.5 -181.5t73.5 -149 t121 -96.5t175.5 -36.5q96 0 169.5 35.5t119 94.5t74.5 147t40 182.5t11 210.5q0 110 -11 204.5t-40 186.5t-74.5 156t-119 103.5t-169.5 39.5q-102 0 -178 -38.5t-121 -100.5t-73 -154.5t-37.5 -186t-9.5 -210.5zM641 1614l352 289l119 -156l-434 -182z" />
<glyph unicode="&#xd4;" horiz-adv-x="1562" d="M78 723q0 153 49 291.5t138.5 244.5t224.5 168t296 62q165 0 299 -58.5t220.5 -160t133 -236t46.5 -289.5q0 -152 -49 -291.5t-137 -247.5t-221.5 -172.5t-291.5 -64.5q-170 0 -305.5 57t-223 159t-133.5 239t-46 299zM367 719q0 -114 10.5 -206.5t38.5 -181.5t73.5 -149 t121 -96.5t175.5 -36.5q96 0 169.5 35.5t119 94.5t74.5 147t40 182.5t11 210.5q0 110 -11 204.5t-40 186.5t-74.5 156t-119 103.5t-169.5 39.5q-102 0 -178 -38.5t-121 -100.5t-73 -154.5t-37.5 -186t-9.5 -210.5zM510 1581l184 285h162l184 -281l-41 -33l-229 172 l-215 -172z" />
<glyph unicode="&#xd5;" horiz-adv-x="1562" d="M78 723q0 153 49 291.5t138.5 244.5t224.5 168t296 62q165 0 299 -58.5t220.5 -160t133 -236t46.5 -289.5q0 -152 -49 -291.5t-137 -247.5t-221.5 -172.5t-291.5 -64.5q-170 0 -305.5 57t-223 159t-133.5 239t-46 299zM367 719q0 -114 10.5 -206.5t38.5 -181.5t73.5 -149 t121 -96.5t175.5 -36.5q96 0 169.5 35.5t119 94.5t74.5 147t40 182.5t11 210.5q0 110 -11 204.5t-40 186.5t-74.5 156t-119 103.5t-169.5 39.5q-102 0 -178 -38.5t-121 -100.5t-73 -154.5t-37.5 -186t-9.5 -210.5zM403 1595q19 57 48.5 101t60 67t55 34t41.5 11 q90 0 209 -26.5t154 -26.5q60 0 91 13.5t58 62.5l37 -14q-13 -76 -67.5 -148t-116.5 -72q-57 0 -187 26t-188 26q-109 0 -152 -70z" />
<glyph unicode="&#xd6;" horiz-adv-x="1562" d="M78 723q0 153 49 291.5t138.5 244.5t224.5 168t296 62q165 0 299 -58.5t220.5 -160t133 -236t46.5 -289.5q0 -152 -49 -291.5t-137 -247.5t-221.5 -172.5t-291.5 -64.5q-170 0 -305.5 57t-223 159t-133.5 239t-46 299zM367 719q0 -114 10.5 -206.5t38.5 -181.5t73.5 -149 t121 -96.5t175.5 -36.5q96 0 169.5 35.5t119 94.5t74.5 147t40 182.5t11 210.5q0 110 -11 204.5t-40 186.5t-74.5 156t-119 103.5t-169.5 39.5q-102 0 -178 -38.5t-121 -100.5t-73 -154.5t-37.5 -186t-9.5 -210.5zM469 1714q0 54 36.5 90.5t90.5 36.5q53 0 90 -36.5 t37 -90.5q0 -51 -37.5 -88t-89.5 -37q-54 0 -90.5 36.5t-36.5 88.5zM852 1714q0 54 36.5 90.5t90.5 36.5q53 0 89 -36.5t36 -90.5q0 -51 -36.5 -88t-88.5 -37q-53 0 -90 36.5t-37 88.5z" />
<glyph unicode="&#xd7;" d="M115 963l75 75l383 -383q41 42 192 192t191 191l76 -73l-383 -385l383 -381l-76 -78l-383 383l-383 -383l-73 78l381 379z" />
<glyph unicode="&#xd8;" horiz-adv-x="1562" d="M78 723q0 153 49 291.5t138.5 244.5t224.5 168t296 62q166 0 306 -62l67 142l76 -25l-74 -153q156 -95 240 -266t84 -380q0 -152 -49 -291.5t-137 -247.5t-221.5 -172.5t-291.5 -64.5q-149 0 -282 47l-80 -166l-72 33l80 166q-172 91 -263 267t-91 407zM367 719 q0 -379 127 -541l542 1133q-98 98 -250 98q-102 0 -178 -38.5t-121 -100.5t-73 -154.5t-37.5 -186t-9.5 -210.5zM553 119q92 -70 233 -70q96 0 169.5 35.5t119 94.5t74.5 147t40 182.5t11 210.5q0 348 -110 522z" />
<glyph unicode="&#xd9;" horiz-adv-x="1536" d="M59 1399v59h600v-59l-174 -19v-817q0 -82 9 -149t33.5 -130t64 -105t103.5 -67.5t149 -25.5q194 0 289.5 127t95.5 358v795l-180 33v59h438v-59l-164 -33v-840q0 -81 -16 -157.5t-55 -150.5t-97 -129t-149 -88.5t-205 -33.5q-568 0 -568 570v843zM479 1747l117 156 l352 -289l-37 -49z" />
<glyph unicode="&#xda;" horiz-adv-x="1536" d="M59 1399v59h600v-59l-174 -19v-817q0 -82 9 -149t33.5 -130t64 -105t103.5 -67.5t149 -25.5q194 0 289.5 127t95.5 358v795l-180 33v59h438v-59l-164 -33v-840q0 -81 -16 -157.5t-55 -150.5t-97 -129t-149 -88.5t-205 -33.5q-568 0 -568 570v843zM801 1614l352 289 l119 -156l-434 -182z" />
<glyph unicode="&#xdb;" horiz-adv-x="1536" d="M59 1399v59h600v-59l-174 -19v-817q0 -82 9 -149t33.5 -130t64 -105t103.5 -67.5t149 -25.5q194 0 289.5 127t95.5 358v795l-180 33v59h438v-59l-164 -33v-840q0 -81 -16 -157.5t-55 -150.5t-97 -129t-149 -88.5t-205 -33.5q-568 0 -568 570v843zM604 1581l184 285h162 l185 -281l-41 -33l-230 172l-215 -172z" />
<glyph unicode="&#xdc;" horiz-adv-x="1536" d="M59 1399v59h600v-59l-174 -19v-817q0 -82 9 -149t33.5 -130t64 -105t103.5 -67.5t149 -25.5q194 0 289.5 127t95.5 358v795l-180 33v59h438v-59l-164 -33v-840q0 -81 -16 -157.5t-55 -150.5t-97 -129t-149 -88.5t-205 -33.5q-568 0 -568 570v843zM575 1714 q0 54 36.5 90.5t90.5 36.5q53 0 90 -36.5t37 -90.5q0 -51 -37.5 -88t-89.5 -37q-54 0 -90.5 36.5t-36.5 88.5zM958 1714q0 54 36.5 90.5t90.5 36.5q53 0 89 -36.5t36 -90.5q0 -51 -36.5 -88t-88.5 -37q-53 0 -90 36.5t-37 88.5z" />
<glyph unicode="&#xdd;" horiz-adv-x="1300" d="M-8 1397v61h569v-61l-162 -17l334 -600l324 590l-158 29v59h410v-59l-140 -37l-393 -670v-614l176 -19v-59h-602v59l174 19v614l-387 682zM668 1614l352 289l119 -156l-434 -182z" />
<glyph unicode="&#xde;" horiz-adv-x="1226" d="M57 0v59l174 17v1304l-174 19v59h600v-59l-174 -19v-215q45 2 172 2q79 0 148 -11.5t135 -40t113 -72t75.5 -113.5t28.5 -160q0 -196 -133.5 -311t-341.5 -115l-197 39v-307l201 -17v-59h-627zM483 438q94 -8 135 -8q73 0 130.5 30.5t91 80.5t50.5 108t17 119 q0 155 -87.5 237t-239.5 82q-62 0 -97 -2v-647z" />
<glyph unicode="&#xdf;" horiz-adv-x="1357" d="M45 862v53l131 29v53q0 114 37.5 216t106 180.5t175 125t236.5 46.5q195 0 308.5 -82t113.5 -209q0 -60 -21.5 -111.5t-56.5 -89t-77 -70.5t-83.5 -61.5t-76.5 -55.5t-56.5 -58.5t-21.5 -65.5q0 -25 11 -45t31.5 -34t43 -24.5t50.5 -21.5q7 -3 11 -4l156 -66 q221 -87 221 -274q0 -141 -104 -231.5t-273 -90.5q-67 0 -167 21t-122 24v76l-30 221h57l127 -245q64 -27 139 -27q81 0 132 44t51 122q0 68 -39.5 110.5t-120.5 75.5l-96 39q-117 47 -172.5 96.5t-55.5 133.5q0 50 27 97t84 109q13 16 44 49.5t48 53t42 54.5t38 65t23 71.5 t10 85.5q0 113 -68 169.5t-180 56.5q-94 0 -160 -48.5t-94.5 -119t-28.5 -152.5v-1087l121 -11v-55h-461v55l121 11v796h-131z" />
<glyph unicode="&#xe0;" horiz-adv-x="991" d="M82 186q0 72 44.5 135t119.5 109t157.5 78.5t174.5 54.5v137q0 96 -50 148.5t-151 52.5q-81 0 -144 -47v-6q40 -12 66.5 -41.5t26.5 -75.5q0 -48 -34 -78t-73 -30q-60 0 -89.5 32.5t-29.5 81.5q0 72 57.5 131t145 90t182.5 31q157 0 232.5 -65.5t75.5 -180.5v-530 q0 -74 57 -74q32 0 45.5 28t13.5 83l47 -2q0 -268 -196 -268q-71 0 -116.5 49t-53.5 125h-4q-40 -81 -114 -132t-165 -51q-102 0 -163.5 58.5t-61.5 156.5zM178 1380l148 105l227 -387l-47 -29zM285 242q0 -60 33 -99t88 -39q76 0 124 47.5t48 110.5v248 q-117 -29 -205 -102.5t-88 -165.5z" />
<glyph unicode="&#xe1;" horiz-adv-x="991" d="M82 186q0 72 44.5 135t119.5 109t157.5 78.5t174.5 54.5v137q0 96 -50 148.5t-151 52.5q-81 0 -144 -47v-6q40 -12 66.5 -41.5t26.5 -75.5q0 -48 -34 -78t-73 -30q-60 0 -89.5 32.5t-29.5 81.5q0 72 57.5 131t145 90t182.5 31q157 0 232.5 -65.5t75.5 -180.5v-530 q0 -74 57 -74q32 0 45.5 28t13.5 83l47 -2q0 -268 -196 -268q-71 0 -116.5 49t-53.5 125h-4q-40 -81 -114 -132t-165 -51q-102 0 -163.5 58.5t-61.5 156.5zM285 242q0 -60 33 -99t88 -39q76 0 124 47.5t48 110.5v248q-117 -29 -205 -102.5t-88 -165.5zM375 1098l227 387 l150 -105l-330 -311z" />
<glyph unicode="&#xe2;" horiz-adv-x="991" d="M82 186q0 72 44.5 135t119.5 109t157.5 78.5t174.5 54.5v137q0 96 -50 148.5t-151 52.5q-81 0 -144 -47v-6q40 -12 66.5 -41.5t26.5 -75.5q0 -48 -34 -78t-73 -30q-60 0 -89.5 32.5t-29.5 81.5q0 72 57.5 131t145 90t182.5 31q157 0 232.5 -65.5t75.5 -180.5v-530 q0 -74 57 -74q32 0 45.5 28t13.5 83l47 -2q0 -268 -196 -268q-71 0 -116.5 49t-53.5 125h-4q-40 -81 -114 -132t-165 -51q-102 0 -163.5 58.5t-61.5 156.5zM195 1087l184 345h160l186 -340l-47 -29l-223 231l-211 -231zM285 242q0 -60 33 -99t88 -39q76 0 124 47.5t48 110.5 v248q-117 -29 -205 -102.5t-88 -165.5z" />
<glyph unicode="&#xe3;" horiz-adv-x="991" d="M82 186q0 72 44.5 135t119.5 109t157.5 78.5t174.5 54.5v137q0 96 -50 148.5t-151 52.5q-81 0 -144 -47v-6q40 -12 66.5 -41.5t26.5 -75.5q0 -48 -34 -78t-73 -30q-60 0 -89.5 32.5t-29.5 81.5q0 72 57.5 131t145 90t182.5 31q157 0 232.5 -65.5t75.5 -180.5v-530 q0 -74 57 -74q32 0 45.5 28t13.5 83l47 -2q0 -268 -196 -268q-71 0 -116.5 49t-53.5 125h-4q-40 -81 -114 -132t-165 -51q-102 0 -163.5 58.5t-61.5 156.5zM127 1118q34 103 95.5 155t101.5 52q87 0 185.5 -24.5t131.5 -24.5q57 0 86.5 13t56.5 61l33 -17 q-11 -73 -63.5 -143t-110.5 -70q-55 0 -159 24.5t-160 24.5q-54 0 -95.5 -19.5t-60.5 -51.5zM285 242q0 -60 33 -99t88 -39q76 0 124 47.5t48 110.5v248q-117 -29 -205 -102.5t-88 -165.5z" />
<glyph unicode="&#xe4;" horiz-adv-x="991" d="M82 186q0 72 44.5 135t119.5 109t157.5 78.5t174.5 54.5v137q0 96 -50 148.5t-151 52.5q-81 0 -144 -47v-6q40 -12 66.5 -41.5t26.5 -75.5q0 -48 -34 -78t-73 -30q-60 0 -89.5 32.5t-29.5 81.5q0 72 57.5 131t145 90t182.5 31q157 0 232.5 -65.5t75.5 -180.5v-530 q0 -74 57 -74q32 0 45.5 28t13.5 83l47 -2q0 -268 -196 -268q-71 0 -116.5 49t-53.5 125h-4q-40 -81 -114 -132t-165 -51q-102 0 -163.5 58.5t-61.5 156.5zM164 1245q0 53 35.5 90t87.5 37t88.5 -37t36.5 -90q0 -54 -36 -90.5t-89 -36.5q-52 0 -87.5 36.5t-35.5 90.5z M285 242q0 -60 33 -99t88 -39q76 0 124 47.5t48 110.5v248q-117 -29 -205 -102.5t-88 -165.5zM530 1245q0 52 37 89.5t88 37.5q52 0 88.5 -37t36.5 -90q0 -54 -36 -90.5t-89 -36.5q-51 0 -88 37t-37 90z" />
<glyph unicode="&#xe5;" horiz-adv-x="991" d="M82 186q0 72 44.5 135t119.5 109t157.5 78.5t174.5 54.5v137q0 96 -50 148.5t-151 52.5q-81 0 -144 -47v-6q40 -12 66.5 -41.5t26.5 -75.5q0 -48 -34 -78t-73 -30q-60 0 -89.5 32.5t-29.5 81.5q0 72 57.5 131t145 90t182.5 31q157 0 232.5 -65.5t75.5 -180.5v-530 q0 -74 57 -74q32 0 45.5 28t13.5 83l47 -2q0 -268 -196 -268q-71 0 -116.5 49t-53.5 125h-4q-40 -81 -114 -132t-165 -51q-102 0 -163.5 58.5t-61.5 156.5zM256 1262q0 75 57 126.5t146 51.5t142.5 -45t53.5 -119q0 -81 -55 -135t-145 -54q-91 0 -145 50t-54 125zM285 242 q0 -60 33 -99t88 -39q76 0 124 47.5t48 110.5v248q-117 -29 -205 -102.5t-88 -165.5zM352 1266q0 -54 27.5 -88.5t73.5 -34.5q54 0 80 33.5t26 87.5q0 58 -26 91.5t-80 33.5q-47 0 -74 -33.5t-27 -89.5z" />
<glyph unicode="&#xe6;" horiz-adv-x="1486" d="M98 186q0 72 44.5 135t119.5 109t157.5 78.5t174.5 54.5v137q0 96 -50 148.5t-151 52.5q-70 0 -143 -47v-6q40 -12 66 -41.5t26 -75.5q0 -48 -33.5 -78t-72.5 -30q-60 0 -89.5 32.5t-29.5 81.5q0 72 58.5 131t147 90t183.5 31q104 0 165 -31t95 -90q128 121 301 121 q169 0 259.5 -92t90.5 -242q0 -61 -8 -92h-606v-90q3 -45 14 -88.5t34.5 -87.5t56 -77t83 -54t111.5 -21q82 0 149 19.5t142 58.5l14 -14q-20 -80 -125.5 -159t-234.5 -79q-287 0 -398 217q-53 -104 -143 -159.5t-184 -57.5q-100 0 -162 58.5t-62 156.5zM301 242 q0 -59 30 -98.5t79 -39.5q71 0 126.5 44.5t86.5 109.5q-29 86 -29 195v57q-118 -28 -205.5 -101.5t-87.5 -166.5zM807 635h399q4 8 4 43q0 104 -47 169.5t-135 65.5q-57 0 -100.5 -29t-67.5 -76t-36.5 -89t-16.5 -84z" />
<glyph unicode="&#xe7;" horiz-adv-x="929" d="M66 451q0 240 140 389t351 149q147 0 225 -59t78 -137q0 -57 -34 -97.5t-93 -40.5q-55 0 -90 32t-35 87q0 32 18.5 63.5t49.5 51.5v6q-44 16 -125 16q-131 0 -206 -105.5t-75 -273.5q0 -73 16 -138t50 -121.5t94.5 -89.5t142.5 -33q67 0 124.5 12.5t87.5 25t73 35.5 l14 -14q-16 -41 -45.5 -81.5t-73 -76.5t-105.5 -58t-132 -22h-14l-27 -61q275 -15 275 -174q0 -89 -76.5 -142t-198.5 -53q-84 0 -125 27t-41 74q0 30 21.5 50.5t48.5 20.5q31 0 50.5 -14.5t19.5 -40.5q0 -49 -35 -59q33 -11 65 -11q60 0 90.5 28t30.5 75q0 36 -31.5 59.5 t-77 33t-116.5 15.5l74 176q-83 9 -149 41t-109 78.5t-72 106.5t-41 121.5t-12 128.5z" />
<glyph unicode="&#xe8;" horiz-adv-x="958" d="M66 453q0 144 59 266t168 196t246 74q168 0 259 -92t91 -242q0 -46 -8 -92h-609q0 -1 -1 -19t-1 -24q0 -47 9 -95.5t31 -99.5t55.5 -90.5t87 -64.5t120.5 -25q82 0 149 19.5t142 58.5l13 -14q-17 -79 -123.5 -158.5t-235.5 -79.5q-114 0 -202 36.5t-142 102t-81 152 t-27 191.5zM205 1380l147 105l228 -387l-48 -29zM279 635h399q4 8 4 43q0 104 -47.5 169.5t-136.5 65.5q-46 0 -83 -20.5t-60.5 -50t-40 -69.5t-24.5 -73t-11 -65z" />
<glyph unicode="&#xe9;" horiz-adv-x="958" d="M66 453q0 144 59 266t168 196t246 74q168 0 259 -92t91 -242q0 -46 -8 -92h-609q0 -1 -1 -19t-1 -24q0 -47 9 -95.5t31 -99.5t55.5 -90.5t87 -64.5t120.5 -25q82 0 149 19.5t142 58.5l13 -14q-17 -79 -123.5 -158.5t-235.5 -79.5q-114 0 -202 36.5t-142 102t-81 152 t-27 191.5zM279 635h399q4 8 4 43q0 104 -47.5 169.5t-136.5 65.5q-46 0 -83 -20.5t-60.5 -50t-40 -69.5t-24.5 -73t-11 -65zM414 1098l227 387l150 -105l-330 -311z" />
<glyph unicode="&#xea;" horiz-adv-x="958" d="M66 453q0 144 59 266t168 196t246 74q168 0 259 -92t91 -242q0 -46 -8 -92h-609q0 -1 -1 -19t-1 -24q0 -47 9 -95.5t31 -99.5t55.5 -90.5t87 -64.5t120.5 -25q82 0 149 19.5t142 58.5l13 -14q-17 -79 -123.5 -158.5t-235.5 -79.5q-114 0 -202 36.5t-142 102t-81 152 t-27 191.5zM250 1087l184 345h160l186 -340l-47 -29l-223 231l-211 -231zM279 635h399q4 8 4 43q0 104 -47.5 169.5t-136.5 65.5q-46 0 -83 -20.5t-60.5 -50t-40 -69.5t-24.5 -73t-11 -65z" />
<glyph unicode="&#xeb;" horiz-adv-x="958" d="M66 453q0 144 59 266t168 196t246 74q168 0 259 -92t91 -242q0 -46 -8 -92h-609q0 -1 -1 -19t-1 -24q0 -47 9 -95.5t31 -99.5t55.5 -90.5t87 -64.5t120.5 -25q82 0 149 19.5t142 58.5l13 -14q-17 -79 -123.5 -158.5t-235.5 -79.5q-114 0 -202 36.5t-142 102t-81 152 t-27 191.5zM217 1245q0 53 35.5 90t87.5 37t88.5 -37t36.5 -90q0 -54 -36 -90.5t-89 -36.5q-52 0 -87.5 36.5t-35.5 90.5zM279 635h399q4 8 4 43q0 104 -47.5 169.5t-136.5 65.5q-46 0 -83 -20.5t-60.5 -50t-40 -69.5t-24.5 -73t-11 -65zM584 1245q0 52 37 89.5t88 37.5 q52 0 88.5 -37t36.5 -90q0 -54 -36 -90.5t-89 -36.5q-51 0 -88 37t-37 90z" />
<glyph unicode="&#xec;" horiz-adv-x="546" d="M-35 1380l148 105l227 -387l-47 -29zM43 0v51l123 12v777l-121 24v43l324 66h18q0 -2 -1 -111t-1 -180v-619l121 -12v-51h-463z" />
<glyph unicode="&#xed;" horiz-adv-x="546" d="M43 0v51l123 12v777l-121 24v43l324 66h18q0 -2 -1 -111t-1 -180v-619l121 -12v-51h-463zM131 1098l227 387l150 -105l-330 -311z" />
<glyph unicode="&#xee;" horiz-adv-x="546" d="M-4 1087l184 345h160l186 -340l-47 -29l-223 231l-211 -231zM41 0v51l123 12v777l-121 24v43l324 66h18q0 -2 -1 -111t-1 -180v-619l121 -12v-51h-463z" />
<glyph unicode="&#xef;" horiz-adv-x="546" d="M-53 1245q0 53 35.5 90t87.5 37t88.5 -37t36.5 -90q0 -54 -36 -90.5t-89 -36.5q-52 0 -87.5 36.5t-35.5 90.5zM41 0v51l123 12v777l-121 24v43l324 66h18q0 -2 -1 -111t-1 -180v-619l121 -12v-51h-463zM313 1245q0 52 37 89.5t88 37.5q52 0 88.5 -37t36.5 -90 q0 -54 -36 -90.5t-89 -36.5q-52 0 -88.5 37t-36.5 90z" />
<glyph unicode="&#xf0;" horiz-adv-x="1071" d="M66 463q0 224 132.5 375t333.5 151q83 0 154 -26q-51 129 -164 264l-301 -111l-24 74l270 100q-114 121 -215 193l29 39q191 -44 346 -172l270 100l25 -74l-232 -86q145 -144 229.5 -339t84.5 -402q0 -86 -16.5 -167.5t-53 -156.5t-90 -131t-133 -89.5t-176.5 -33.5 q-202 0 -335.5 137.5t-133.5 354.5zM305 518q0 -115 11 -198.5t36.5 -147t71.5 -95.5t113 -32q42 0 75.5 15t56.5 40t40 62.5t26.5 76t15.5 88t7.5 91.5t1.5 92q0 198 -47 348q-27 24 -73.5 38.5t-96.5 14.5q-238 0 -238 -393z" />
<glyph unicode="&#xf1;" horiz-adv-x="1116" d="M43 0v51l123 12v777l-121 24v43l309 66h19l12 -158q56 82 140 128t169 46q132 0 196 -67.5t64 -169.5v-689l121 -12v-51h-463v51l121 12v617q0 180 -158 180q-64 0 -113.5 -39.5t-76.5 -89.5v-668l121 -12v-51h-463zM219 1118q34 103 95.5 155t101.5 52q87 0 185.5 -24.5 t131.5 -24.5q57 0 87 13t57 61l32 -17q-11 -73 -63.5 -143t-110.5 -70q-55 0 -159 24.5t-160 24.5q-54 0 -95.5 -19.5t-60.5 -51.5z" />
<glyph unicode="&#xf2;" horiz-adv-x="1069" d="M66 469q0 101 32.5 194.5t91 166t148.5 116t197 43.5q216 0 342.5 -134.5t126.5 -356.5q0 -144 -57.5 -263.5t-165.5 -191.5t-246 -72q-218 0 -343.5 140.5t-125.5 357.5zM240 1380l147 105l227 -387l-47 -29zM309 483q0 -140 20.5 -235t71.5 -151t134 -56q225 0 225 442 q0 78 -6.5 141t-22 119t-40.5 93.5t-64 59.5t-90 22q-228 0 -228 -435z" />
<glyph unicode="&#xf3;" horiz-adv-x="1069" d="M66 469q0 101 32.5 194.5t91 166t148.5 116t197 43.5q216 0 342.5 -134.5t126.5 -356.5q0 -144 -57.5 -263.5t-165.5 -191.5t-246 -72q-218 0 -343.5 140.5t-125.5 357.5zM309 483q0 -140 20.5 -235t71.5 -151t134 -56q225 0 225 442q0 78 -6.5 141t-22 119t-40.5 93.5 t-64 59.5t-90 22q-228 0 -228 -435zM444 1098l228 387l149 -105l-329 -311z" />
<glyph unicode="&#xf4;" horiz-adv-x="1069" d="M66 469q0 101 32.5 194.5t91 166t148.5 116t197 43.5q216 0 342.5 -134.5t126.5 -356.5q0 -144 -57.5 -263.5t-165.5 -191.5t-246 -72q-218 0 -343.5 140.5t-125.5 357.5zM246 1087l184 345h160l186 -340l-47 -29l-223 231l-211 -231zM309 483q0 -140 20.5 -235 t71.5 -151t134 -56q225 0 225 442q0 78 -6.5 141t-22 119t-40.5 93.5t-64 59.5t-90 22q-228 0 -228 -435z" />
<glyph unicode="&#xf5;" horiz-adv-x="1069" d="M66 469q0 101 32.5 194.5t91 166t148.5 116t197 43.5q216 0 342.5 -134.5t126.5 -356.5q0 -144 -57.5 -263.5t-165.5 -191.5t-246 -72q-218 0 -343.5 140.5t-125.5 357.5zM190 1118q34 103 95.5 155t101.5 52q87 0 186 -24.5t132 -24.5q57 0 86.5 13t56.5 61l33 -17 q-11 -73 -63.5 -143t-110.5 -70q-55 0 -160 24.5t-160 24.5q-54 0 -95.5 -19.5t-60.5 -51.5zM309 483q0 -140 20.5 -235t71.5 -151t134 -56q225 0 225 442q0 78 -6.5 141t-22 119t-40.5 93.5t-64 59.5t-90 22q-228 0 -228 -435z" />
<glyph unicode="&#xf6;" horiz-adv-x="1069" d="M66 469q0 101 32.5 194.5t91 166t148.5 116t197 43.5q216 0 342.5 -134.5t126.5 -356.5q0 -144 -57.5 -263.5t-165.5 -191.5t-246 -72q-218 0 -343.5 140.5t-125.5 357.5zM236 1245q0 53 35 90t87 37t88.5 -37t36.5 -90q0 -54 -36 -90.5t-89 -36.5q-52 0 -87 36.5 t-35 90.5zM309 483q0 -140 20.5 -235t71.5 -151t134 -56q225 0 225 442q0 78 -6.5 141t-22 119t-40.5 93.5t-64 59.5t-90 22q-228 0 -228 -435zM602 1245q0 52 37 89.5t88 37.5q52 0 88.5 -37t36.5 -90q0 -54 -36 -90.5t-89 -36.5q-51 0 -88 37t-37 90z" />
<glyph unicode="&#xf7;" d="M98 526v107h951v-107h-951zM459 260q0 49 34.5 83t84.5 34t84 -34t34 -83q0 -48 -34.5 -82.5t-83.5 -34.5t-84 34.5t-35 82.5zM459 903q0 48 35 82.5t84 34.5t83.5 -34.5t34.5 -82.5q0 -50 -34.5 -85.5t-83.5 -35.5t-84 35.5t-35 85.5z" />
<glyph unicode="&#xf8;" horiz-adv-x="1069" d="M66 469q0 101 32.5 194.5t91 166t148.5 116t197 43.5q93 0 184 -33l61 131l-47 -137q128 -53 199.5 -171.5t71.5 -280.5q0 -144 -57.5 -263.5t-165.5 -191.5t-246 -72q-85 0 -162 25l-62 -135l47 139q-139 50 -215.5 175.5t-76.5 293.5zM309 483q0 -277 84 -379l182 543 l99 211q-54 60 -137 60q-228 0 -228 -435zM414 82q50 -41 121 -41q225 0 225 442q0 238 -68 346l-176 -526z" />
<glyph unicode="&#xf9;" horiz-adv-x="1112" d="M37 897v51l330 21h16l-6 -277v-364q0 -45 5.5 -78.5t21.5 -67t50 -51.5t85 -18q109 0 184 110v654l-117 20v55l330 17h12l-6 -277v-600l127 -14v-47l-319 -49h-17l-8 178q-126 -187 -313 -187q-49 0 -92 13t-81 41.5t-60.5 81.5t-22.5 124v644zM254 1380l147 105 l228 -387l-47 -29z" />
<glyph unicode="&#xfa;" horiz-adv-x="1112" d="M37 897v51l330 21h16l-6 -277v-364q0 -45 5.5 -78.5t21.5 -67t50 -51.5t85 -18q109 0 184 110v654l-117 20v55l330 17h12l-6 -277v-600l127 -14v-47l-319 -49h-17l-8 178q-126 -187 -313 -187q-49 0 -92 13t-81 41.5t-60.5 81.5t-22.5 124v644zM492 1098l227 387 l149 -105l-329 -311z" />
<glyph unicode="&#xfb;" horiz-adv-x="1112" d="M37 897v51l330 21h16l-6 -277v-364q0 -45 5.5 -78.5t21.5 -67t50 -51.5t85 -18q109 0 184 110v654l-117 20v55l330 17h12l-6 -277v-600l127 -14v-47l-319 -49h-17l-8 178q-126 -187 -313 -187q-49 0 -92 13t-81 41.5t-60.5 81.5t-22.5 124v644zM279 1087l184 345h160 l186 -340l-47 -29l-223 231l-211 -231z" />
<glyph unicode="&#xfc;" horiz-adv-x="1112" d="M37 897v51l330 21h16l-6 -277v-364q0 -45 5.5 -78.5t21.5 -67t50 -51.5t85 -18q109 0 184 110v654l-117 20v55l330 17h12l-6 -277v-600l127 -14v-47l-319 -49h-17l-8 178q-126 -187 -313 -187q-49 0 -92 13t-81 41.5t-60.5 81.5t-22.5 124v644zM276 1245q0 53 35.5 90 t87.5 37t88.5 -37t36.5 -90q0 -54 -36 -90.5t-89 -36.5q-52 0 -87.5 36.5t-35.5 90.5zM643 1245q0 52 37 89.5t88 37.5q52 0 88.5 -37t36.5 -90q0 -54 -36 -90.5t-89 -36.5q-52 0 -88.5 37t-36.5 90z" />
<glyph unicode="&#xfd;" horiz-adv-x="991" d="M-8 -276q0 52 34 92.5t101 40.5q44 0 76.5 -31.5t32.5 -77.5q0 -32 -16 -63t-50 -43v-7q16 -4 31 -4q64 0 106 44t76 135l84 223l-361 856l-110 18v56h459v-56l-119 -8l237 -592h5l213 580l-125 20v56h327v-56l-112 -22l-422 -1090q-49 -128 -117 -181.5t-166 -53.5 q-76 0 -130 42.5t-54 121.5zM537 1098l227 387l149 -105l-329 -311z" />
<glyph unicode="&#xfe;" horiz-adv-x="1107" d="M41 -408l121 13v1788l-121 24v47l186 27l140 45h18l-4 -465v-246q58 77 143.5 120.5t145.5 43.5q99 0 173 -36.5t116.5 -101t62.5 -143.5t20 -173q0 -153 -58 -281t-164 -204.5t-238 -76.5q-108 0 -201 52l2 -420l133 -13v-53h-475v53zM381 236q15 -92 59 -143.5 t131 -51.5q121 0 186.5 112.5t65.5 309.5q0 77 -16.5 143.5t-48.5 120t-85.5 84.5t-121.5 31q-51 0 -98 -23.5t-72 -56.5v-526z" />
<glyph unicode="&#xff;" horiz-adv-x="991" d="M-8 -276q0 52 34 92.5t101 40.5q44 0 76.5 -31.5t32.5 -77.5q0 -32 -16 -63t-50 -43v-7q16 -4 31 -4q64 0 106 44t76 135l84 223l-361 856l-110 18v56h459v-56l-119 -8l237 -592h5l213 580l-125 20v56h327v-56l-112 -22l-422 -1090q-49 -128 -117 -181.5t-166 -53.5 q-76 0 -130 42.5t-54 121.5zM223 1245q0 53 35.5 90t87.5 37t88.5 -37t36.5 -90q0 -54 -36 -90.5t-89 -36.5q-52 0 -87.5 36.5t-35.5 90.5zM590 1245q0 52 37 89.5t88 37.5q52 0 88.5 -37t36.5 -90q0 -54 -36 -90.5t-89 -36.5q-51 0 -88 37t-37 90z" />
<glyph unicode="&#x152;" horiz-adv-x="2183" d="M78 723q0 153 50 289.5t140.5 239.5t227 163t299.5 60q67 0 293 -8.5t294 -8.5h449l184 4v-26l-24 -109l39 -252h-56l-143 182q-54 71 -93 96t-110 25h-315v-579h133q49 0 82.5 7.5t58.5 23.5t43.5 49t32.5 74t31 110h57l-14 -301l14 -326h-57q-41 159 -97 222t-151 63 h-133v-641h395q40 0 67.5 13t63.5 52l229 306h58l-92 -285l18 -137v-29h-819q-61 0 -244 -8t-225 -8q-218 0 -374.5 95.5t-234 261t-77.5 382.5zM365 719q0 -111 15.5 -205t51.5 -177.5t92 -142t141.5 -92.5t194.5 -34q82 0 201 14v1288q-157 25 -258 25q-97 0 -173.5 -36.5 t-125.5 -98t-81 -149.5t-45 -184t-13 -208z" />
<glyph unicode="&#x153;" horiz-adv-x="1695" d="M66 469q0 101 32.5 194.5t91 166t148.5 116t197 43.5q253 0 380 -182q65 86 157.5 134t203.5 48q168 0 259 -92t91 -242q0 -46 -8 -92h-608q0 -1 -1 -19t-1 -24q0 -47 9 -95.5t31 -99.5t55.5 -90.5t87 -64.5t120.5 -25q82 0 149 19.5t142 58.5l12 -14 q-17 -79 -123.5 -158.5t-235.5 -79.5q-253 0 -368 170q-63 -80 -153.5 -125t-198.5 -45q-218 0 -343.5 140.5t-125.5 357.5zM309 483q0 -140 20.5 -235t71.5 -151t134 -56q225 0 225 442q0 78 -6.5 141t-22 119t-40.5 93.5t-64 59.5t-90 22q-228 0 -228 -435zM1016 635h399 q4 8 4 43q0 104 -47.5 169.5t-136.5 65.5q-46 0 -83 -20.5t-60.5 -50t-40 -69.5t-24.5 -73t-11 -65z" />
<glyph unicode="&#x178;" horiz-adv-x="1300" d="M-8 1397v61h569v-61l-162 -17l334 -600l324 590l-158 29v59h410v-59l-140 -37l-393 -670v-614l176 -19v-59h-602v59l174 19v614l-387 682zM426 1714q0 54 36.5 90.5t90.5 36.5q53 0 90 -36.5t37 -90.5q0 -51 -37.5 -88t-89.5 -37q-53 0 -90 36.5t-37 88.5zM809 1714 q0 54 36.5 90.5t90.5 36.5q53 0 89 -36.5t36 -90.5q0 -51 -36.5 -88t-88.5 -37q-54 0 -90.5 36.5t-36.5 88.5z" />
<glyph unicode="&#x2c6;" horiz-adv-x="739" d="M104 1087l185 345h160l186 -340l-47 -29l-223 231l-211 -231z" />
<glyph unicode="&#x2dc;" horiz-adv-x="837" d="M72 1118q34 103 95 155t101 52q87 0 186 -24.5t132 -24.5q57 0 86.5 13t56.5 61l33 -17q-11 -73 -63.5 -143t-110.5 -70q-56 0 -160 24.5t-160 24.5q-54 0 -95 -19.5t-60 -51.5z" />
<glyph unicode="&#x2000;" horiz-adv-x="951" />
<glyph unicode="&#x2001;" horiz-adv-x="1903" />
<glyph unicode="&#x2002;" horiz-adv-x="951" />
<glyph unicode="&#x2003;" horiz-adv-x="1903" />
<glyph unicode="&#x2004;" horiz-adv-x="634" />
<glyph unicode="&#x2005;" horiz-adv-x="475" />
<glyph unicode="&#x2006;" horiz-adv-x="317" />
<glyph unicode="&#x2007;" horiz-adv-x="317" />
<glyph unicode="&#x2008;" horiz-adv-x="237" />
<glyph unicode="&#x2009;" horiz-adv-x="380" />
<glyph unicode="&#x200a;" horiz-adv-x="105" />
<glyph unicode="&#x2010;" horiz-adv-x="647" d="M74 489v158h499v-158h-499z" />
<glyph unicode="&#x2011;" horiz-adv-x="647" d="M74 489v158h499v-158h-499z" />
<glyph unicode="&#x2012;" horiz-adv-x="647" d="M74 489v158h499v-158h-499z" />
<glyph unicode="&#x2013;" horiz-adv-x="931" d="M39 530v113h854v-113h-854z" />
<glyph unicode="&#x2014;" horiz-adv-x="1517" d="M39 530v113h1440v-113h-1440z" />
<glyph unicode="&#x2018;" horiz-adv-x="444" d="M74 1169q0 216 231 338l37 -45q-153 -105 -156 -221q0 -23 7 -37q27 37 69 37q52 0 80.5 -34t28.5 -87q0 -54 -37.5 -93.5t-91.5 -39.5q-76 0 -122 55t-46 127z" />
<glyph unicode="&#x2019;" horiz-adv-x="444" d="M74 1374q0 54 36.5 92.5t92.5 38.5q76 0 122 -54.5t46 -125.5q0 -216 -234 -338l-37 43q156 110 156 223q0 25 -4 37q-27 -37 -70 -37q-52 0 -80 34t-28 87z" />
<glyph unicode="&#x201a;" horiz-adv-x="448" d="M76 121q0 53 37 92t92 39q76 0 122 -54.5t46 -125.5q0 -215 -232 -338l-37 43q66 49 110.5 108t45.5 115q0 25 -6 37q-27 -37 -70 -37q-52 0 -80 34t-28 87z" />
<glyph unicode="&#x201c;" horiz-adv-x="843" d="M74 1169q0 216 231 338l37 -45q-153 -105 -156 -221q0 -23 7 -37q27 37 69 37q52 0 80.5 -34t28.5 -87q0 -54 -37.5 -93.5t-91.5 -39.5q-76 0 -122 55t-46 127zM473 1169q0 214 234 338l36 -45q-152 -102 -155 -221q0 -25 4 -37q30 37 70 37q52 0 80 -34t28 -87 q0 -54 -36.5 -93.5t-92.5 -39.5q-76 0 -122 55t-46 127z" />
<glyph unicode="&#x201d;" horiz-adv-x="843" d="M74 1374q0 54 36.5 92.5t92.5 38.5q76 0 122 -54.5t46 -125.5q0 -216 -234 -338l-37 43q156 110 156 223q0 25 -4 37q-27 -37 -70 -37q-52 0 -80 34t-28 87zM473 1374q0 54 37.5 92.5t93.5 38.5q75 0 120.5 -54.5t45.5 -125.5q0 -216 -231 -338l-37 43q152 107 155 223 q0 25 -4 37q-30 -37 -71 -37q-51 0 -80 34t-29 87z" />
<glyph unicode="&#x201e;" horiz-adv-x="849" d="M76 121q0 53 37 92t92 39q76 0 122 -54.5t46 -125.5q0 -215 -232 -338l-37 43q66 49 110.5 108t45.5 115q0 25 -6 37q-27 -37 -70 -37q-52 0 -80 34t-28 87zM477 121q0 54 36.5 92.5t92.5 38.5q76 0 122 -54.5t46 -125.5q0 -216 -233 -338l-37 43q67 49 111 108t44 115 q0 25 -4 37q-27 -37 -69 -37q-52 0 -80.5 34t-28.5 87z" />
<glyph unicode="&#x2022;" horiz-adv-x="921" d="M164 606q0 123 87 210t210 87q122 0 209.5 -87t87.5 -210q0 -120 -86 -206.5t-209 -86.5t-211 86.5t-88 206.5z" />
<glyph unicode="&#x2026;" horiz-adv-x="1376" d="M100 119q0 57 40 96t96 39t94.5 -39t38.5 -96q0 -59 -38.5 -98t-94.5 -39t-96 39t-40 98zM553 119q0 57 39.5 96t95.5 39q57 0 96 -39t39 -96q0 -59 -38.5 -98t-96.5 -39q-56 0 -95.5 39t-39.5 98zM1006 119q0 57 39.5 96t95.5 39q57 0 96 -39t39 -96q0 -59 -39 -98 t-96 -39q-56 0 -95.5 39t-39.5 98z" />
<glyph unicode="&#x202f;" horiz-adv-x="380" />
<glyph unicode="&#x2039;" horiz-adv-x="507" d="M59 461v92l344 291l46 -39l-185 -291l185 -309l-46 -37z" />
<glyph unicode="&#x203a;" horiz-adv-x="507" d="M59 211l187 299l-185 301l45 33l343 -287v-92l-343 -297z" />
<glyph unicode="&#x205f;" horiz-adv-x="475" />
<glyph unicode="&#x20ac;" horiz-adv-x="1245" d="M78 563v90l149 -4q-2 27 -2 80q0 55 6 107l-153 -2v88l166 -4q23 119 74 221.5t126 181t178 123.5t222 45q141 0 230 -61t89 -160q0 -56 -34.5 -94.5t-90.5 -38.5q-51 0 -83.5 32.5t-32.5 83.5q0 35 21 69.5t56 45.5q-19 20 -65.5 31.5t-93.5 11.5q-66 0 -120.5 -29.5 t-91 -77.5t-64.5 -114t-43.5 -132.5t-24.5 -140.5l503 7v-88l-512 4q-2 -33 -2 -97q0 -61 2 -94l512 6v-90l-505 4q9 -77 24 -144.5t44 -137.5t67 -119.5t96.5 -81t130.5 -31.5q86 0 139 29q-40 19 -60 52.5t-20 70.5q0 55 33 89t84 34q65 0 97 -40t32 -91q0 -96 -82.5 -163 t-242.5 -67q-263 0 -415.5 160.5t-187.5 437.5z" />
<glyph unicode="&#x2122;" horiz-adv-x="1701" d="M74 1268l20 133l-14 39v22h606v-22l-14 -39l20 -133h-41l-94 145h-100v-602l80 -8v-43h-310v43l80 8v602h-100l-92 -145h-41zM752 760v43l82 12v594l-82 12v41h295l135 -426h8l137 426h291v-41l-80 -12v-598l80 -8v-43h-307v43l78 8v580h-11l-196 -605h-66l-201 605h-12 v-576l82 -12v-43h-233z" />
<glyph unicode="&#x25fc;" horiz-adv-x="962" d="M0 0v963h963v-963h-963z" />
</font>
</defs>
</svg>
